<svg width="150" height="150" viewBox="0 0 150 150" fill="none" xmlns="http://www.w3.org/2000/svg">
<rect width="150" height="150" rx="48" fill="black"/>
<path d="M53.4614 48.8L58.6049 43.6565L80.1436 65.1952L75.0001 70.3387L53.4614 48.8Z" fill="#005EFF"/>
<path d="M80.1436 65.1952L75.0001 60.0516L83.5191 51.5326L88.6627 56.6761L80.1436 65.1952Z" fill="#005EFF"/>
<path d="M89.7878 50.4074C91.8294 52.4492 91.8294 55.7595 89.7878 57.8013C87.7461 59.843 84.4357 59.843 82.394 57.8013C80.3522 55.7595 80.3522 52.4492 82.394 50.4074C84.4357 48.3656 87.7461 48.3656 89.7878 50.4074Z" fill="#005EFF"/>
<path d="M59.7301 42.5313C61.7719 44.5731 61.7719 47.8834 59.7301 49.9252C57.6884 51.967 54.378 51.967 52.3362 49.9252C50.2945 47.8834 50.2945 44.5731 52.3362 42.5313C54.378 40.4896 57.6884 40.4896 59.7301 42.5313Z" fill="#005EFF"/>
<path d="M78.697 61.4982C80.7388 63.54 80.7388 66.8503 78.697 68.8921C76.6553 70.9339 73.3449 70.9339 71.3031 68.8921C69.2614 66.8503 69.2614 63.54 71.3031 61.4982C73.3449 59.4565 71.3031 68.8921 78.697 61.4982Z" fill="#005EFF"/>
<path d="M48.8 96.5386L43.6565 91.3952L65.1952 69.8565L70.3387 75.0001L48.8 96.5386Z" fill="#005EFF"/>
<path d="M65.1952 69.8565L60.0516 75.0001L51.5326 66.4811L56.6761 61.3375L65.1952 69.8565Z" fill="#005EFF"/>
<path d="M50.4074 60.2123C52.4492 58.1706 55.7595 58.1706 57.8013 60.2123C59.843 62.2541 59.843 65.5644 57.8013 67.6062C55.7595 69.648 52.4492 69.648 50.4074 67.6062C48.3656 65.5644 48.3656 62.2541 50.4074 60.2123Z" fill="#005EFF"/>
<path d="M42.5313 90.27C44.5731 88.2283 47.8834 88.2283 49.9252 90.27C51.967 92.312 51.967 95.6223 49.9252 97.6639C47.8834 99.7056 44.5731 99.7056 42.5313 97.6639C40.4896 95.6223 40.4896 92.312 42.5313 90.27Z" fill="#005EFF"/>
<path d="M61.4982 71.3031C63.54 69.2614 66.8503 69.2614 68.8921 71.3031C70.9339 73.3449 70.9339 76.6553 68.8921 78.697C66.8503 80.7388 63.54 80.7388 61.4982 78.697C59.4565 76.6553 68.8921 78.697 61.4982 71.3031Z" fill="#005EFF"/>
<path d="M96.5386 101.2L91.3952 106.343L69.8565 84.805L75.0001 79.6614L96.5386 101.2Z" fill="#005EFF"/>
<path d="M69.8565 84.805L75.0001 89.9486L66.4811 98.4674L61.3375 93.3239L69.8565 84.805Z" fill="#005EFF"/>
<path d="M60.2123 99.5927C58.1706 97.5511 58.1706 94.2407 60.2123 92.1986C62.2541 90.1571 65.5644 90.1571 67.6062 92.1986C69.648 94.2407 69.648 97.5511 67.6062 99.5927C65.5644 101.634 62.2541 101.634 60.2123 99.5927Z" fill="#005EFF"/>
<path d="M90.27 107.469C88.2283 105.427 88.2283 102.117 90.27 100.075C92.312 98.0331 95.6223 98.0331 97.6639 100.075C99.7056 102.117 99.7056 105.427 97.6639 107.469C95.6223 109.51 92.312 109.51 90.27 107.469Z" fill="#005EFF"/>
<path d="M71.3031 88.5019C69.2614 86.4602 69.2614 83.1498 71.3031 81.108C73.3449 79.0663 76.6553 79.0663 78.697 81.108C80.7388 83.1498 80.7388 86.4602 78.697 88.5019C76.6553 90.5437 78.697 81.108 71.3031 88.5019Z" fill="#005EFF"/>
<path d="M101.2 53.4614L106.343 58.6049L84.805 80.1436L79.6614 75.0001L101.2 53.4614Z" fill="#005EFF"/>
<path d="M84.805 80.1436L89.9486 75.0001L98.4674 83.5191L93.3239 88.6627L84.805 80.1436Z" fill="#005EFF"/>
<path d="M99.5927 89.7878C97.5511 91.8294 94.2407 91.8294 92.1986 89.7878C90.1571 87.7461 90.1571 84.4357 92.1986 82.394C94.2407 80.3522 97.5511 80.3522 99.5927 82.394C101.634 84.4357 101.634 87.7461 99.5927 89.7878Z" fill="#005EFF"/>
<path d="M107.469 59.7301C105.427 61.7719 102.117 61.7719 100.075 59.7301C98.0331 57.6884 98.0331 54.378 100.075 52.3362C102.117 50.2945 105.427 50.2945 107.469 52.3362C109.51 54.378 109.51 57.6884 107.469 59.7301Z" fill="#005EFF"/>
<path d="M88.5019 78.697C86.4602 80.7388 83.1498 80.7388 81.108 78.697C79.0663 76.6553 79.0663 73.3449 81.108 71.3031C83.1498 69.2614 86.4602 69.2614 88.5019 71.3031C90.5437 73.3449 81.108 71.3031 88.5019 78.697Z" fill="#005EFF"/>
</svg>
