<svg width="648" height="165" viewBox="0 0 648 165" fill="none" xmlns="http://www.w3.org/2000/svg">
<path d="M117.237 56.6017C114.444 54.8743 110.813 54.8743 107.741 56.6017L85.9544 69.8447L71.1511 78.4819L49.3653 91.7255C46.5722 93.453 42.9414 93.453 39.869 91.7255L22.5518 81.3609C19.7587 79.6335 17.8033 76.4669 17.8033 73.012V52.571C17.8033 49.1162 19.4795 45.9495 22.5518 44.2221L39.5898 34.1457C42.3822 32.4183 46.013 32.4183 49.0861 34.1457L66.124 44.2221C68.9164 45.9495 70.8718 49.1162 70.8718 52.571V65.8147L85.6751 56.8893V43.6463C85.6751 40.1914 83.9997 37.0248 80.9273 35.2974L49.3653 16.2956C46.5722 14.5681 42.9414 14.5681 39.869 16.2956L7.7485 35.2974C4.67614 37.0248 3 40.1914 3 43.6463V81.9367C3 85.3916 4.67614 88.5582 7.7485 90.2856L39.869 109.287C42.6621 111.015 46.293 111.015 49.3653 109.287L71.1511 96.3313L85.9544 87.4066L107.741 74.4512C110.534 72.7237 114.165 72.7237 117.237 74.4512L134.275 84.5282C137.068 86.255 139.024 89.4223 139.024 92.8772V113.318C139.024 116.772 137.347 119.94 134.275 121.666L117.237 132.032C114.444 133.758 110.813 133.758 107.741 132.032L90.7029 121.955C87.9098 120.227 85.9544 117.061 85.9544 113.606V100.362L71.1511 109.287V122.53C71.1511 125.985 72.8272 129.152 75.8996 130.879L108.02 149.881C110.813 151.609 114.444 151.609 117.516 149.881L149.637 130.879C152.43 129.152 154.385 125.985 154.385 122.53V84.24C154.385 80.7851 152.709 77.6185 149.637 75.8911L117.237 56.6017Z" fill="white"/>
<path d="M213.36 138.932V107.143C216.766 111.484 222.947 113.91 230.138 113.91C248.43 113.91 260.794 100.76 260.794 80.7166C260.794 60.6731 249.439 47.5234 231.652 47.5234C223.452 47.5234 217.144 50.5878 213.36 55.5668V48.5451H195.824V138.932H213.36ZM227.994 98.5896C218.532 98.5896 212.35 91.4406 212.35 80.7166C212.35 69.8653 218.532 62.7157 227.994 62.7157C237.203 62.7157 243.51 69.8653 243.51 80.7166C243.51 91.4406 237.203 98.5896 227.994 98.5896Z" fill="white"/>
<path d="M300.616 113.91C320.17 113.91 334.173 99.8663 334.173 80.7166C334.173 61.5669 320.17 47.5234 300.616 47.5234C281.062 47.5234 267.059 61.5669 267.059 80.7166C267.059 99.8663 281.062 113.91 300.616 113.91ZM300.616 98.5896C291.154 98.5896 284.721 91.3128 284.721 80.7166C284.721 69.9925 291.154 62.7158 300.616 62.7158C310.078 62.7158 316.511 69.9925 316.511 80.7166C316.511 91.3128 310.078 98.5896 300.616 98.5896Z" fill="white"/>
<path d="M362.308 112.888V20.5859H344.773V112.888H362.308Z" fill="white"/>
<path d="M415.013 48.5439L401.767 90.0349L388.395 48.5439H370.48L393.567 112.376L384.232 138.93H401.01L409.967 112.632L433.054 48.5439H415.013Z" fill="white"/>
<path d="M482.3 54.9281C478.765 50.4599 472.46 47.5234 464.765 47.5234C446.217 47.5234 434.992 60.6731 434.992 80.7166C434.992 100.76 446.217 113.91 465.015 113.91C472.46 113.91 479.143 111.101 482.427 106.377V114.803C482.427 120.804 478.516 125.017 473.215 125.017H443.946V138.932H475.99C490.372 138.932 499.962 130.123 499.962 116.718V48.5451H482.3V54.9281ZM467.791 98.5896C458.455 98.5896 452.273 91.5678 452.273 80.7166C452.273 69.8653 458.455 62.7157 467.791 62.7157C477.253 62.7157 483.435 69.8653 483.435 80.7166C483.435 91.5678 477.253 98.5896 467.791 98.5896Z" fill="white"/>
<path d="M544.178 113.91C563.735 113.91 577.733 99.8663 577.733 80.7166C577.733 61.5669 563.735 47.5234 544.178 47.5234C524.626 47.5234 510.621 61.5669 510.621 80.7166C510.621 99.8663 524.626 113.91 544.178 113.91ZM544.178 98.5896C534.716 98.5896 528.283 91.3128 528.283 80.7166C528.283 69.9925 534.716 62.7158 544.178 62.7158C553.64 62.7158 560.073 69.9925 560.073 80.7166C560.073 91.3128 553.64 98.5896 544.178 98.5896Z" fill="white"/>
<path d="M604.987 112.888V77.6523C604.987 69.3545 610.406 63.3538 618.106 63.3538C625.419 63.3538 630.34 68.9715 630.34 76.7592V112.888H648V72.8011C648 57.9924 638.662 47.5234 624.285 47.5234C615.576 47.5234 608.512 51.2258 604.987 57.4816V48.5451H587.32V112.888H604.987Z" fill="white"/>
</svg>
