<svg width="585" height="165" viewBox="0 0 585 165" fill="none" xmlns="http://www.w3.org/2000/svg">
<path d="M163.105 23.0361H189.996C196.829 23.0361 201.825 24.8665 205.057 28.0148C208.217 30.7238 209.613 34.3846 209.613 37.9721C209.613 39.3632 209.613 41.1204 209.172 42.5115C208.29 44.7812 206.894 47.0509 205.057 48.8813C204.176 49.7599 203.221 50.2724 202.339 50.7117C205.498 51.5903 208.29 53.4207 210.568 55.6904C212.404 57.9601 213.286 60.6691 213.286 64.7692C213.286 67.0389 212.845 69.7479 211.89 71.5782C211.009 73.4086 209.172 75.2391 207.335 76.5569C205.057 77.948 202.78 78.8266 200.502 79.7052C197.784 80.5838 194.551 80.5838 191.392 80.5838H163.62V22.8896H163.105V23.0361ZM187.718 46.6848C189.996 46.6848 192.273 46.2455 194.551 45.2937C196.388 44.4151 197.269 42.5847 197.269 40.7543C197.269 38.9239 196.388 37.0935 194.992 36.215C193.155 34.8239 190.877 34.3846 188.6 34.8238H175.816V47.1241H187.645V46.6848H187.718ZM190.877 69.8211C193.155 69.8211 195.433 69.3818 197.71 68.43C199.547 67.5514 200.429 65.721 199.988 63.4513C199.988 61.6209 199.106 59.7905 197.71 58.9119C196.314 58.0333 193.596 57.0815 190.437 57.0815H175.375V69.8211H190.877Z" fill="#F3BA2F"/>
<path d="M229.152 23.0371H241.936V81.1706H229.152V23.0371Z" fill="#F3BA2F"/>
<path d="M261.488 23.0371H273.391L300.722 58.9129V23.0371H313.432V81.1706H302.559L273.831 44.4162V81.1706H261.488V23.0371Z" fill="#F3BA2F"/>
<path d="M352.143 22.5977H363.972L389.026 81.1704H375.801L370.364 67.9915H345.751L340.315 81.1704H327.09L352.143 22.5977ZM365.809 57.1556L358.095 38.1194L350.38 57.1556H365.809Z" fill="#F3BA2F"/>
<path d="M402.766 23.0371H414.594L441.926 58.9129V23.0371H454.71V81.1706H443.762L415.476 44.4162V81.1706H402.766V23.0371Z" fill="#F3BA2F"/>
<path d="M501.143 82.1191C497.029 82.1191 492.915 81.2405 489.315 79.8494C482.041 76.7012 476.531 71.21 473.371 63.9616C471.975 60.3008 471.094 56.2739 471.094 52.1738C471.094 44.4862 474.253 36.7253 479.763 30.868C482.482 28.159 485.714 25.8893 489.315 24.4982C493.429 22.6678 497.543 22.2285 501.584 22.2285C503.862 22.2285 506.58 22.2285 508.858 22.6678C511.137 23.1071 512.974 23.5464 514.811 24.4982C516.647 25.3768 518.484 26.3286 519.803 27.2072C521.2 28.0858 522.965 29.4769 524.362 30.868L516.647 40.3861C514.371 38.5557 512.089 36.7253 509.812 35.4074C507.535 34.0895 504.817 33.577 502.098 33.577C499.821 33.577 497.543 34.0163 495.266 34.9681C492.988 35.8467 491.151 37.2378 489.829 39.0682C488.433 40.8986 487.11 42.729 486.155 44.9987C485.2 47.2684 484.759 49.5381 484.759 51.8077C484.759 54.0774 485.2 56.7864 486.155 59.0561C487.037 61.3258 487.992 63.1562 489.829 64.9866C492.988 68.6474 497.543 70.4046 502.098 70.4046C504.817 70.4046 508.05 69.9653 510.77 68.5742C513.046 67.1831 515.762 65.4259 517.599 63.5955L525.831 71.7957C524.434 73.1868 522.67 74.944 521.273 76.3351C519.436 77.7262 517.599 78.6048 515.84 79.4834C514.004 80.362 511.721 81.3138 509.445 81.7531C506.139 82.1191 503.421 82.1191 501.143 82.1191Z" fill="#F3BA2F"/>
<path d="M540.301 23.0371H584.088V34.3856H552.646V46.2466H580.415V57.595H552.646V69.8221H584.528V81.1706H540.301V23.0371Z" fill="#F3BA2F"/>
<path d="M179.487 138.424C176.328 138.424 173.096 137.984 170.377 136.593C167.659 135.715 164.94 133.884 162.148 131.614L166.704 126.636C168.54 128.466 170.377 129.345 172.655 130.736C174.932 131.614 177.209 132.127 179.487 132.127C181.324 132.127 183.161 131.688 184.924 130.736C186.32 129.857 186.761 128.466 186.761 127.075C186.761 126.636 186.761 125.684 186.32 125.245C185.879 124.805 185.438 123.854 184.924 123.414C184.042 122.975 183.087 122.536 182.206 122.023C180.81 121.584 179.046 121.145 177.65 120.632C175.813 120.193 173.536 119.753 171.699 118.802C170.303 118.362 168.54 117.411 167.585 116.532C166.703 115.653 165.749 114.702 164.867 113.384C163.985 111.553 163.985 109.723 163.985 108.405C163.985 106.575 164.426 105.257 164.867 103.426C165.308 102.035 166.703 100.717 167.585 99.7655C168.981 98.8869 170.303 97.9351 172.14 97.4958C173.977 97.0565 175.813 96.6172 177.577 96.6172C180.295 96.6172 183.014 97.0565 185.805 98.0083C188.083 98.8869 190.361 100.278 192.638 101.669L188.965 107.087C187.128 105.696 185.291 104.817 183.528 103.939C181.765 103.06 179.854 103.06 178.091 103.06C176.328 103.06 174.417 103.499 173.095 104.451C172.213 105.33 171.258 106.721 171.258 108.112C171.258 108.991 171.258 109.503 171.699 110.382C172.14 110.821 172.581 111.773 173.095 112.212C173.977 112.651 174.932 113.091 176.254 113.603C177.65 114.043 178.973 114.482 181.25 114.994C183.087 115.434 184.924 115.873 187.201 116.825C188.597 117.264 189.92 118.216 191.316 119.094C192.197 119.973 193.153 121.364 193.593 122.243C194.034 123.634 194.475 124.952 194.475 126.782C194.475 128.613 194.034 130.443 193.593 131.761C192.712 133.152 191.757 134.47 190.434 135.861C189.038 136.74 187.716 137.691 185.879 138.131C183.601 137.911 181.324 138.424 179.487 138.424Z" fill="#F3BA2F"/>
<path d="M202.266 97.0566H210.054L222.323 116.166L235.107 97.0566H242.822V137.911H235.548V108.405L222.764 127.514H222.323L209.613 108.405V137.911H202.266V97.0566Z" fill="#F3BA2F"/>
<path d="M267.432 96.6172H274.265L292.045 137.472H284.331L280.216 127.514H261.114L256.999 137.472H249.652L267.432 96.6172ZM277.939 121.584L270.665 105.257L263.832 121.584H277.939Z" fill="#F3BA2F"/>
<path d="M299.316 97.0566H317.537C319.814 97.0566 322.092 97.4959 324.369 97.9352C326.206 98.3745 328.043 99.7656 329.365 101.084C330.247 101.962 331.202 103.353 332.084 105.184C332.525 106.575 332.966 108.332 332.966 110.162C332.966 111.553 332.525 113.311 332.084 114.702C331.643 116.093 330.688 116.971 330.247 118.362C329.365 119.241 328.41 120.193 327.088 121.071C325.692 121.95 324.369 122.463 322.973 122.902L333.921 138.35H325.325L315.332 124.293H306.222V138.35H298.875L299.316 97.0566ZM317.096 117.045C319.373 117.045 321.651 116.605 323.047 115.214C324.443 113.823 325.325 112.066 325.325 110.236C325.325 108.405 324.443 106.575 323.047 105.257C321.21 103.866 318.933 103.426 316.655 103.426H306.149V117.045H317.096Z" fill="#F3BA2F"/>
<path d="M351.701 103.426H338.477V97.0566H371.759V103.426H358.534V137.911H351.261L351.701 103.426Z" fill="#F3BA2F"/>
<path d="M415.991 138.425C413.273 138.425 410.555 137.986 407.763 136.595C402.767 134.325 398.652 130.664 396.816 125.686C395.934 122.977 394.979 120.268 395.42 117.485C395.42 114.777 395.86 112.068 396.816 109.285C398.652 104.307 402.767 100.207 407.763 97.9368C410.481 97.0582 413.2 96.1064 416.432 96.1064C418.269 96.1064 420.106 96.1064 421.428 96.5457C422.751 96.985 424.147 97.4243 425.543 97.9368C426.939 98.3761 427.82 99.3279 429.216 99.7672C430.098 100.646 431.494 101.598 432.375 102.476L427.82 107.894C426.424 106.503 424.661 105.185 422.824 104.233C420.988 103.282 418.71 102.842 416.432 102.842C414.596 102.842 412.759 103.282 410.995 103.721C409.159 104.599 407.836 105.551 406.44 106.869C405.044 108.187 404.163 109.578 403.722 111.409C403.281 113.239 402.84 115.069 402.84 116.827C402.84 118.657 403.281 120.487 403.722 122.245C404.163 124.075 405.118 125.393 406.44 126.784C407.836 128.175 409.159 129.054 410.995 129.932C412.832 130.811 414.669 131.323 416.432 130.811C418.71 130.811 420.988 130.371 422.824 129.42C424.661 128.541 426.498 127.15 428.261 125.32L432.816 129.859C431.935 130.738 430.539 132.129 429.657 133.007C428.261 133.886 427.379 134.838 425.984 135.277C424.588 135.716 423.265 136.668 421.428 136.668C419.592 138.425 417.755 138.425 415.991 138.425Z" fill="#F3BA2F"/>
<path d="M440.098 97.0566H446.93V113.896H466.547V97.0566H473.821V137.911H466.547V120.705H446.93V137.911H440.098V97.0566Z" fill="#F3BA2F"/>
<path d="M498.866 96.6172H505.699L523.477 137.472H515.762L511.649 127.514H492.547L488.433 137.472H481.086L498.866 96.6172ZM508.931 121.584L502.099 105.257L495.266 121.584H508.931Z" fill="#F3BA2F"/>
<path d="M530.758 97.0566H538.033V137.911H530.758V97.0566Z" fill="#F3BA2F"/>
<path d="M548.977 97.0566H555.366L577.263 125.245V97.0566H584.538V137.911H578.582L556.251 108.844V137.911H548.977V97.0566Z" fill="#F3BA2F"/>
<path d="M82.9487 135.203V152.921L67.4463 162L52.3848 152.921V135.203L67.4463 144.282L82.9487 135.203ZM0 73.9212L15.0615 83V113.385L40.9968 128.833V146.551L0 122.463V73.9212ZM134.893 73.9212V122.537L93.455 146.625V128.906L119.39 113.458V83L134.893 73.9212ZM93.3815 49.8332L108.884 58.912V76.6302L82.9487 92.0788V122.976L67.8871 132.055L52.8256 122.976V92.0788L25.9352 76.6302V58.912L41.4376 49.8332L67.3728 65.2818L93.3815 49.8332ZM26.0087 89.3698L41.0702 98.4486V116.167L26.0087 107.088V89.3698ZM108.884 89.3698V107.088L93.8223 116.167V98.4486L108.884 89.3698ZM15.0615 34.3846L30.5639 43.4634L15.0615 52.5422V70.2604L0 61.1817V43.4634L15.0615 34.3846ZM119.831 34.3846L135.333 43.4634V61.1817L119.831 70.2604V52.5422L104.77 43.4634L119.831 34.3846ZM67.4463 34.3846L82.9487 43.4634L67.4463 52.6154L52.3848 43.5366L67.4463 34.3846ZM67.4463 4L108.884 28.088L93.8223 37.1668L67.8871 21.7183L41.4376 37.1668L26.4495 28.088L67.4463 4Z" fill="#F3BA2F"/>
</svg>
