<svg width="500" height="173" viewBox="0 0 500 173" fill="none" xmlns="http://www.w3.org/2000/svg">
<path fill-rule="evenodd" clip-rule="evenodd" d="M145.674 10.4434V97.686C145.674 98.3739 145.116 98.9321 144.428 98.9321H135.28C131.053 98.9321 127.113 96.7885 124.818 93.2393L83.6426 29.5796L85.0533 61.372V97.686C85.0533 98.3739 84.4951 98.9321 83.807 98.9321H71.8166C71.1289 98.9321 70.5703 98.3739 70.5703 97.686V10.4434C70.5703 9.75553 71.1289 9.19727 71.8166 9.19727H80.8443C85.0668 9.19727 89.0031 11.3373 91.2997 14.8815L132.472 78.4215L131.191 46.7574V10.4434C131.191 9.75553 131.749 9.19727 132.438 9.19727H144.428C145.116 9.19727 145.674 9.75553 145.674 10.4434Z" fill="white"/>
<path fill-rule="evenodd" clip-rule="evenodd" d="M265.807 98.9321H253.106C252.23 98.9321 251.629 98.0523 251.945 97.2361L285.558 10.391C285.837 9.67197 286.528 9.19727 287.301 9.19727H303.194C303.967 9.19727 304.66 9.67197 304.937 10.391L338.552 97.2361C338.868 98.0523 338.265 98.9321 337.389 98.9321H324.688C324.171 98.9321 323.708 98.6119 323.525 98.1273L296.413 26.6271C296.007 25.5553 294.491 25.5553 294.083 26.6271L266.972 98.1273C266.789 98.6119 266.324 98.9321 265.807 98.9321Z" fill="white"/>
<path fill-rule="evenodd" clip-rule="evenodd" d="M429.159 96.9176L403.946 64.7039C418.172 62.0119 426.503 52.3978 426.503 37.6549C426.503 20.7346 415.481 9.19629 396 9.19629H360.83C359.798 9.19629 358.961 10.0337 358.961 11.0657C358.961 17.6799 364.321 23.0417 370.933 23.0417H394.463C406.255 23.0417 411.894 29.0665 411.894 37.7832C411.894 46.5013 406.381 52.6543 394.463 52.6543H360.83C359.798 52.6543 358.961 53.4908 358.961 54.5238V97.685C358.961 98.3734 359.519 98.9316 360.207 98.9316H372.198C372.887 98.9316 373.445 98.3734 373.445 97.685V65.474H387.286L409.177 94.0482C411.535 97.1268 415.192 98.9316 419.066 98.9316H428.174C429.213 98.9316 429.8 97.7352 429.159 96.9176Z" fill="white"/>
<path fill-rule="evenodd" clip-rule="evenodd" d="M230.349 85.0871H188.754C188.065 85.0871 187.507 84.5289 187.507 83.841V61.3362C187.507 60.6484 188.065 60.0901 188.754 60.0901H227.145C227.833 60.0901 228.391 59.5314 228.391 58.8435V47.4895C228.391 46.8016 227.833 46.2434 227.145 46.2434H174.892C173.861 46.2434 173.023 47.0807 173.023 48.1128V97.0622C173.023 98.0951 173.861 98.9316 174.892 98.9316H230.349C231.037 98.9316 231.595 98.3743 231.595 97.685V86.3337C231.595 85.6458 231.037 85.0871 230.349 85.0871ZM230.349 9.19629H174.688C173.769 9.19629 173.023 9.9429 173.023 10.8616C173.023 17.5878 178.475 23.0417 185.201 23.0417H230.349C231.037 23.0417 231.595 22.4834 231.595 21.7955V10.4424C231.595 9.75455 231.037 9.19629 230.349 9.19629Z" fill="white"/>
<path fill-rule="evenodd" clip-rule="evenodd" d="M75.9918 127.171V135.13C75.9918 135.397 76.2076 135.613 76.474 135.613H90.8134C91.0789 135.613 91.2957 135.83 91.2957 136.096V140.312C91.2957 140.579 91.0789 140.796 90.8134 140.796H76.474C76.2076 140.796 75.9918 141.012 75.9918 141.279V154.612C75.9918 154.877 75.7764 155.094 75.5099 155.094H71.0539C70.7875 155.094 70.5703 154.877 70.5703 154.612V121.989C70.5703 121.722 70.7875 121.507 71.0539 121.507H92.0109C92.2778 121.507 92.4946 121.722 92.4946 121.989V126.207C92.4946 126.472 92.2778 126.689 92.0109 126.689H76.474C76.2076 126.689 75.9918 126.905 75.9918 127.171Z" fill="white"/>
<path fill-rule="evenodd" clip-rule="evenodd" d="M107.758 138.301C107.758 145.306 112.89 150.487 119.702 150.487C126.466 150.487 131.598 145.306 131.598 138.301C131.598 131.295 126.466 126.113 119.702 126.113C112.89 126.113 107.758 131.295 107.758 138.301ZM137.116 138.301C137.068 148.184 129.536 155.669 119.702 155.669C109.867 155.669 102.289 148.184 102.289 138.301C102.289 128.416 109.867 120.931 119.702 120.931C129.536 120.931 137.068 128.416 137.116 138.301Z" fill="white"/>
<path fill-rule="evenodd" clip-rule="evenodd" d="M175.294 121.507C175.56 121.507 175.776 121.722 175.776 121.989V141.707C175.776 151.063 169.923 155.67 162.199 155.67C154.476 155.67 148.625 151.063 148.625 141.707V121.989C148.625 121.722 148.84 121.507 149.107 121.507H153.658C153.924 121.507 154.14 121.722 154.14 121.989V141.371C154.14 147.896 157.547 150.488 162.199 150.488C166.853 150.488 170.258 147.896 170.258 141.371V121.989C170.258 121.722 170.475 121.507 170.741 121.507H175.294Z" fill="white"/>
<path fill-rule="evenodd" clip-rule="evenodd" d="M216.415 121.989V154.612C216.415 154.878 216.2 155.094 215.933 155.094H212.612C210.976 155.094 209.451 154.264 208.563 152.89L193.198 129.137L193.726 141.036V154.612C193.726 154.878 193.509 155.094 193.243 155.094H188.787C188.521 155.094 188.305 154.878 188.305 154.612V121.989C188.305 121.724 188.521 121.507 188.787 121.507H192.063C193.698 121.507 195.221 122.336 196.111 123.708L211.475 147.417L210.995 135.567V121.989C210.995 121.724 211.212 121.507 211.477 121.507H215.933C216.2 121.507 216.415 121.724 216.415 121.989Z" fill="white"/>
<path fill-rule="evenodd" clip-rule="evenodd" d="M253.646 138.301C253.646 131.487 248.704 126.689 241.94 126.689H236.044C235.777 126.689 235.561 126.905 235.561 127.171V149.429C235.561 149.696 235.777 149.912 236.044 149.912H241.94C248.704 149.912 253.646 145.162 253.646 138.301ZM259.066 138.301C259.066 147.993 251.631 155.094 241.892 155.094H230.623C230.356 155.094 230.141 154.878 230.141 154.612V121.989C230.141 121.724 230.356 121.507 230.623 121.507H241.892C251.678 121.507 259.066 128.561 259.066 138.301Z" fill="white"/>
<path fill-rule="evenodd" clip-rule="evenodd" d="M286.779 140.286L282.152 128.072C281.996 127.657 281.407 127.657 281.25 128.072L276.624 140.286C276.504 140.602 276.737 140.939 277.075 140.939H286.328C286.666 140.939 286.899 140.602 286.779 140.286ZM288.659 146.074H274.743C274.543 146.074 274.363 146.197 274.292 146.386L271.122 154.782C271.05 154.97 270.871 155.094 270.67 155.094H265.952C265.612 155.094 265.379 154.753 265.502 154.437L278.129 121.815C278.2 121.63 278.379 121.508 278.579 121.508H284.824C285.023 121.508 285.201 121.63 285.274 121.815L297.901 154.437C298.023 154.753 297.79 155.094 297.451 155.094H292.732C292.532 155.094 292.353 154.97 292.281 154.782L289.11 146.386C289.039 146.197 288.86 146.074 288.659 146.074Z" fill="white"/>
<path fill-rule="evenodd" clip-rule="evenodd" d="M327.082 126.689H317.78C317.513 126.689 317.296 126.905 317.296 127.171V154.612C317.296 154.878 317.081 155.094 316.815 155.094H312.36C312.093 155.094 311.877 154.878 311.877 154.612V127.171C311.877 126.905 311.662 126.689 311.395 126.689H305.111C302.517 126.689 300.414 124.585 300.414 121.989C300.414 121.724 300.629 121.507 300.896 121.507H327.082C327.348 121.507 327.564 121.724 327.564 121.989V126.207C327.564 126.473 327.348 126.689 327.082 126.689Z" fill="white"/>
<path fill-rule="evenodd" clip-rule="evenodd" d="M339.849 121.507H344.305C344.572 121.507 344.788 121.722 344.788 121.989V154.612C344.788 154.877 344.572 155.094 344.305 155.094H339.849C339.583 155.094 339.367 154.877 339.367 154.612V121.989C339.367 121.722 339.583 121.507 339.849 121.507Z" fill="white"/>
<path fill-rule="evenodd" clip-rule="evenodd" d="M361.82 138.301C361.82 145.306 366.953 150.487 373.765 150.487C380.528 150.487 385.661 145.306 385.661 138.301C385.661 131.295 380.528 126.113 373.765 126.113C366.953 126.113 361.82 131.295 361.82 138.301ZM391.178 138.301C391.13 148.184 383.598 155.669 373.765 155.669C363.93 155.669 356.352 148.184 356.352 138.301C356.352 128.416 363.93 120.931 373.765 120.931C383.598 120.931 391.13 128.416 391.178 138.301Z" fill="white"/>
<path fill-rule="evenodd" clip-rule="evenodd" d="M429.43 121.989V154.612C429.43 154.878 429.213 155.094 428.947 155.094H425.628C423.989 155.094 422.467 154.264 421.577 152.89L406.213 129.137L406.74 141.036V154.612C406.74 154.878 406.524 155.094 406.258 155.094H401.802C401.536 155.094 401.32 154.878 401.32 154.612V121.989C401.32 121.724 401.536 121.507 401.802 121.507H405.078C406.713 121.507 408.237 122.336 409.126 123.708L424.49 147.417L424.011 135.567V121.989C424.011 121.724 424.228 121.507 424.495 121.507H428.947C429.213 121.507 429.43 121.724 429.43 121.989Z" fill="white"/>
</svg>
