<svg width="469" height="165" viewBox="0 0 469 165" fill="none" xmlns="http://www.w3.org/2000/svg">
<path d="M189 67H181V119H189V67Z" fill="white"/>
<path d="M225 46H159V55H225V46Z" fill="white"/>
<path d="M204 67H196V119H204V67Z" fill="white"/>
<path d="M420 119H427V88.6324L420 80V119Z" fill="white"/>
<path d="M405 119.854H412.843V61.9802L469 125V46.0669H461.078V103.941L405 41V119.854Z" fill="white"/>
<path d="M353.5 47C333.37 47 317 63.1459 317 83C317 102.854 333.37 119 353.5 119C373.63 119 390 102.854 390 83C390 63.1459 373.63 47 353.5 47ZM353.5 111.275C337.678 111.275 324.833 98.6051 324.833 83C324.833 67.3949 337.678 54.7253 353.5 54.7253C369.322 54.7253 382.167 67.3949 382.167 83C382.089 98.5279 369.244 111.275 353.5 111.275Z" fill="white"/>
<path d="M353.5 78C350.463 78 348 80.2388 348 83C348 85.7612 350.463 88 353.5 88C356.537 88 359 85.7612 359 83C359 80.2388 356.537 78 353.5 78Z" fill="white"/>
<path d="M304.605 69.0707C304.605 56.8778 294.562 47 282.147 47H240V118.923H247.908V54.7942H282.226C290.134 54.7942 296.618 61.1994 296.618 69.0707C296.618 76.865 290.213 83.2701 282.384 83.3473H254.392V119H262.299V91.1415H280.724L295.827 119H305L289.185 90.0611C298.279 87.1286 304.605 78.5627 304.605 69.0707Z" fill="white"/>
<path d="M106.432 31.7332L0 12L55.9965 154L134 58.2546L106.432 31.7332ZM104.71 40.4947L120.999 56.1234L76.5155 64.2535L104.71 40.4947ZM66.8042 62.5959L19.8925 23.3663L96.5646 37.5742L66.8042 62.5959ZM63.4366 69.542L55.8399 133.241L14.5669 28.5759L63.4366 69.542ZM70.5634 72.8572L119.825 63.8588L63.28 133.32L70.5634 72.8572Z" fill="#FF0000"/>
</svg>
