<svg xmlns="http://www.w3.org/2000/svg" fill="none" viewBox="0 0 1372 322"><path fill="#fff" d="M1025.14 132.897l-3.78 17.648 17.12.002-5.39 14.842-14.93-.005-5.23 24.887c-1.76 8.002-.98 10.596 3.17 10.966l.58.037.61.011c1.93 0 3.48-.109 5.16-.412l1.3-.265 1.64-.373.3 13.676-.91.346c-4.81 1.852-9.97 2.7-16.4 2.7-10.863 0-16.334-4.954-16.334-13.704 0-2.677.284-5.876.887-9.802l.516-3.083.634-3.376.366-1.803 4.161-19.805-8.559.005 3.207-14.842 8.542-.002 2.68-12.802 20.66-4.846z"/><path fill="#fff" fill-rule="evenodd" d="M933.966 152.341c-6.492-2.254-13.638-3.454-21.043-3.454-26.049 0-43.286 18.668-43.286 44.645 0 14.862 8.141 23.306 20.016 23.306l1.47-.036 1.609-.126c4.795-.508 9.405-2.204 13.586-4.971l.299-.21.093 4.199 18.516-.556v-1.334l.021-2.219c.098-5.021.562-9.047 1.722-13.943l10.24-44.076-1.103-.435-2.14-.79zm-44.003 38.583c0-15.39 8.322-26.484 18.923-26.484l1.165.019c1.862.061 3.362.277 4.605.644l.345.116-6.863 30.381-.696.877c-2.593 3.091-5.728 4.808-9.121 4.808-5.28 0-8.358-3.447-8.358-10.361z" clip-rule="evenodd"/><path fill="#fff" d="M845.13 148.887c11.916 0 19.068 6.681 19.068 17.023 0 1.43-.083 2.859-.269 4.459l-.278 2.012c-.108.706-.237 1.45-.382 2.243l-.495 2.538-.624 2.9-7.352 35.117H835.24l7.595-35.679c.583-2.806.918-5.547.918-7.544 0-5.524-1.996-7.516-7.286-7.516-3.212 0-6.378 1.225-9.632 3.818l-.567.469-.036.533c-.18 1.884-.464 3.886-.897 6.214l-.588 2.964-.351 1.624-7.352 35.117h-19.558l7.59-35.668c.583-2.896.923-5.886.923-8.029 0-5.209-1.913-7.042-7.291-7.042-2.965 0-5.858 1.002-8.73 3.108l-.711.552-10.101 47.079h-19.553l13.628-64.201 19.95-1.384-.701 3.305.299-.157c3.918-2.011 7.796-3.245 11.565-3.679l1.604-.137 1.418-.039c7.306 0 12.705 2.353 15.86 6.693l.567.837.186.321.242-.175c6.152-4.41 12.107-6.9 17.975-7.521l1.464-.116 1.46-.039zm136.536 0c3.12 0 5.595.727 7.404 2.078l.65.536.64.586-5.152 16.793-1.278-.336c-2.094-.55-4.337-.784-7.487-.784-3.842 0-7.358 1.227-10.38 3.784l-.598.539-9.281 43.096H936.75l13.628-64.201 19.975-1.386-1.144 5.067.072-.071c2.939-3.184 6.44-5.039 10.199-5.553l1.134-.114 1.052-.034zm-245.804-35.033c9.668 0 16.871 2.489 21.486 7.572 4.687 5.119 6.652 12.858 5.935 23l-.155 1.815-.123 1.269h-15.387l-.015-1.395c-.062-5.636-1.279-9.724-3.481-12.092-2.026-2.323-5.775-3.504-11.292-3.504-4.79 0-8.42.792-11.132 2.43-3.213 1.807-5.146 4.815-5.889 9.145-.629 3.676.428 6.52 3.254 8.619l.315.221.391.249 1.001.575 1.294.675 1.567.77 1.836.861 2.093.944 3.61 1.564 3.284 1.378 3.022 1.327 2.769 1.272 1.279.614 1.216.598 2.223 1.15 1.944 1.083c1.5.874 2.702 1.676 3.588 2.394 6.374 5.418 8.74 12.927 7.111 22.433-1.562 9.126-5.698 16.42-12.354 21.711-6.662 5.176-15.258 7.822-25.477 7.822-10.04 0-17.578-2.447-22.466-7.401-5.713-5.844-7.936-14.745-6.729-26.643l.206-1.807.155-1.23h15.443l-.078 1.487c-.371 7.127.758 12.069 3.275 14.833 2.371 2.485 6.574 3.823 12.612 3.823 5.45 0 10.054-1.155 13.525-3.337 3.501-2.319 5.501-5.17 6.12-8.787.789-4.604-.758-8.185-4.687-10.92l-.273-.181-.356-.208-.923-.496-1.207-.596-2.315-1.07-3.975-1.726-4.914-2.027-1.598-.682-2.965-1.291-2.661-1.195-2.362-1.101-2.067-1.01-1.774-.92-1.48-.832c-.892-.526-1.593-.996-2.109-1.411-5.672-4.855-7.688-11.93-6.125-21.061 1.552-9.074 5.831-16.218 12.844-21.309 6.548-4.959 14.164-7.402 22.971-7.402zm-386.849 65.14a61.87 61.87 0 0 1-2.591 6.075 31.108 31.108 0 0 1-4.77 7.08 26.897 26.897 0 0 1-7.444 5.79 22.04 22.04 0 0 1-10.516 2.355c-8.059 0-14.166-2.445-18.162-7.267-3.996-4.823-5.776-11.7-5.19-20.34a61.966 61.966 0 0 1 3.177-15.75 50.848 50.848 0 0 1 7.203-13.958 36.75 36.75 0 0 1 11.005-9.93 28.774 28.774 0 0 1 14.722-3.75c6.669 0 11.702 1.657 14.962 4.92s4.657 8.115 4.229 14.475l-.083 1.2h19.079l.105-1.012a35.134 35.134 0 0 0-1.502-15.158 26.937 26.937 0 0 0-7.331-11.25 33.49 33.49 0 0 0-12.168-6.772 51.053 51.053 0 0 0-15.834-2.348 55.596 55.596 0 0 0-19.304 3.578 53.401 53.401 0 0 0-17.674 10.927 59.933 59.933 0 0 0-13.355 18.653c-3.553 7.5-5.702 16.432-6.385 26.587a47.353 47.353 0 0 0 1.757 16.958 36.305 36.305 0 0 0 7.557 13.747 35.71 35.71 0 0 0 13.153 9.173c5.257 2.205 11.514 3.322 18.552 3.322a49.624 49.624 0 0 0 14.7-2.205 42.947 42.947 0 0 0 13.197-6.75 46.814 46.814 0 0 0 10.651-11.445 58.158 58.158 0 0 0 7.286-16.2l.413-1.44h-19.154l-.285.735zm777.387.001a63.422 63.422 0 0 1-2.6 6.075 30.861 30.861 0 0 1-4.77 7.08 27.038 27.038 0 0 1-7.44 5.812 22.132 22.132 0 0 1-10.52 2.355c-8.06 0-14.16-2.445-18.16-7.267-4-4.823-5.78-11.7-5.19-20.34a62.275 62.275 0 0 1 3.17-15.751 51.113 51.113 0 0 1 7.21-13.957 36.745 36.745 0 0 1 11-9.93 28.835 28.835 0 0 1 14.73-3.75c6.66 0 11.7 1.658 14.96 4.92 3.26 3.263 4.66 8.115 4.23 14.475l-.08 1.2h19.08l.1-1.012a35.24 35.24 0 0 0-1.5-15.158 26.967 26.967 0 0 0-7.34-11.25 33.409 33.409 0 0 0-12.15-6.832 51.096 51.096 0 0 0-15.84-2.348 55.6 55.6 0 0 0-19.3 3.578 53.377 53.377 0 0 0-17.68 10.927 60.022 60.022 0 0 0-13.35 18.653c-3.56 7.5-5.7 16.432-6.39 26.587a47.628 47.628 0 0 0 1.76 16.958 36.23 36.23 0 0 0 7.55 13.747 35.758 35.758 0 0 0 13.17 9.173c5.25 2.205 11.5 3.322 18.55 3.322 4.98.006 9.94-.737 14.7-2.205a43.09 43.09 0 0 0 13.19-6.75 46.643 46.643 0 0 0 10.65-11.445 57.843 57.843 0 0 0 7.28-16.2l.42-1.44h-19.15l-.29.773zm66.93-27.953c-4.83 0-10.23 1.567-15.72 4.552l6.36-29.685-18.68 1.298-18.09 85.44-.29 1.365h18.3l9.62-45.405a19.018 19.018 0 0 1 10.22-3.075c5.26 0 7.39 2.1 7.39 7.252-.07 2.25-.36 4.486-.89 6.675l-7.31 34.553h18.3l7.1-33.405c1.2-5.745 1.73-8.963 1.73-12.803-.01-10.492-6.74-16.762-18.04-16.762z"/><path fill="#fff" fill-rule="evenodd" d="M1257.65 151.041a61.122 61.122 0 0 1 22.08 4.043l.92.368-9.76 41.954a62.531 62.531 0 0 0-1.67 15.481v1.095l-17.32.517-.09-4.155a28.697 28.697 0 0 1-16.39 5.25c-9.17 0-18.94-5.798-18.94-22.08 0-25.005 16.93-42.473 41.17-42.473zm-4.31 44.266l6.52-28.973a18.403 18.403 0 0 0-6.04-.81c-10.41 0-18.26 10.965-18.26 25.5 0 6.503 2.91 10.088 8.17 10.088 3.6 0 6.82-1.958 9.61-5.805z" clip-rule="evenodd"/><path fill="#fff" d="M1303.51 144.937c2.76.053 5.53-.123 8.26-.525l.75-.15 3.34-15.75-1.09-.24c-3.2-.713-13.04-.713-16.47 0l-.75.15-3.33 15.75 1.09.24c2.71.416 5.46.592 8.2.525zm-11.57 8.295L1279 214.207h18.18l13.44-62.272-18.68 1.297zm61.7-2.19c-4.69 0-10 1.56-15.45 4.5l.9-3.825-18.71 1.29-12.95 61.005h18.18l9.41-44.04c3.26-2.948 6.76-4.44 10.32-4.44 5.08 0 7.15 2.1 7.15 7.252a34.21 34.21 0 0 1-.75 5.701l-7.51 35.527h18.3l7.11-33.405c1.27-6.158 1.84-9.225 1.84-12.803.07-10.492-6.62-16.762-17.84-16.762z"/><path fill="#fff" fill-rule="evenodd" d="M372.668 191.025c0-23.168 15.932-39.983 37.887-39.983 16.187 0 26.65 9.652 26.65 24.578 0 22.792-16.239 39.975-37.766 39.975-13.326 0-26.771-7.598-26.771-24.57zm29.039 10.087c9.224 0 16.449-10.358 16.449-23.565 0-10.455-6.256-12.015-9.982-12.015-9.171 0-16.344 10.298-16.344 23.453 0 10.552 6.189 12.127 9.877 12.127z" clip-rule="evenodd"/><path fill="#fff" d="M450.895 153.232l-12.942 60.975h18.185l13.438-62.272-18.681 1.297zm11.576-8.295a50.315 50.315 0 0 0 8.263-.525l.751-.15 3.334-15.75-1.089-.24c-3.2-.713-13.047-.713-16.472 0l-.751.15-3.335 15.75 1.089.24c2.716.416 5.463.592 8.21.525zm50.508 6.705c-4.687 0-9.99 1.552-15.443 4.499l.894-3.824-18.71 1.297-12.943 60.975h18.185l9.419-44.04c3.26-2.948 6.761-4.44 10.313-4.44 5.085 0 7.159 2.1 7.159 7.26a34.448 34.448 0 0 1-.752 5.693l-7.511 35.527h18.307l7.105-33.405c1.284-6.15 1.841-9.225 1.841-12.803.036-10.477-6.657-16.739-17.864-16.739zm44.855 26.489h31.541l5.084-14.714h-33.536l4.29-20.175h35.851l5.084-14.708H549.77l-18.29 86.07h55.054l5.223-14.715h-38.548l4.625-21.758zm90.115-24.906L634.94 170.55l-5.93-17.325h-21.45l14.422 29.145-29.091 32.235h21.677l14.592-18.21 7.827 18.21h20.29l-15.686-30.51 28.432-30.87h-22.074z"/><path fill="#5F5FFF" d="M160.285 117.689c18.052-3.892 36.599 4.004 46.286 19.703a43.448 43.448 0 0 1-3.193 50.14c-11.599 14.348-30.998 19.835-48.411 13.693-17.412-6.142-29.055-22.579-29.054-41.019h-38.54c-.03 36.836 24.513 69.183 60.035 79.123 35.522 9.942 73.327-4.957 92.475-36.442 19.147-31.486 14.949-71.851-10.268-98.736-25.218-26.886-65.282-33.71-98-16.695a82.657 82.657 0 0 1 28.67 30.233z"/><path fill="#17E5AA" d="M91.541 202.702c-18.05 3.891-36.597-4.004-46.284-19.702a43.445 43.445 0 0 1 3.189-50.138c11.598-14.349 30.995-19.838 48.408-13.698 17.413 6.139 29.057 22.574 29.059 41.013h38.54c.031-36.836-24.513-69.183-60.035-79.123-35.522-9.942-73.327 4.957-92.474 36.442-19.148 31.486-14.95 71.851 10.268 98.736 25.217 26.886 65.281 33.711 98 16.695a82.669 82.669 0 0 1-28.67-30.225z"/></svg>