<svg xmlns="http://www.w3.org/2000/svg" fill="none" viewBox="0 0 722 165"><path fill="url(#paint0_linear_335_4332)" d="M77.81 10A73.086 73.086 0 0 0 26.39 31.351 72.829 72.829 0 0 0 5 82.683a72.83 72.83 0 0 0 21.389 51.333 73.09 73.09 0 0 0 51.422 21.351 73.092 73.092 0 0 0 51.423-21.351 72.837 72.837 0 0 0 21.388-51.333 72.835 72.835 0 0 0-21.388-51.332A73.09 73.09 0 0 0 77.811 10z"/><path stroke="#0A4523" stroke-opacity=".17" stroke-width="3" d="M27.936 32.892a70.905 70.905 0 0 1 49.878-20.711 70.908 70.908 0 0 1 49.879 20.711 70.657 70.657 0 0 1 20.748 49.791 70.657 70.657 0 0 1-20.748 49.792 70.906 70.906 0 0 1-49.879 20.711 70.903 70.903 0 0 1-49.878-20.711A70.656 70.656 0 0 1 7.188 82.684a70.655 70.655 0 0 1 20.748-49.792zm0 0l-1.544-1.54 1.544 1.54z"/><path fill="url(#paint1_linear_335_4332)" d="M59.922 60.054a.784.784 0 0 1 .156-.07c.578-.27 1.166-.526 1.749-.752V47.747a3.78 3.78 0 0 0-1.106-2.676 3.794 3.794 0 0 0-2.677-1.114H42.36V76.92a37.8 37.8 0 0 1 17.563-16.866z"/><path fill="url(#paint2_linear_335_4332)" d="M75.89 80.13h3.498a9.198 9.198 0 0 0 6.498-2.685 9.164 9.164 0 0 0 2.69-6.486v-9.82c-1.893-.326-10.539-.511-12.543-.511A33.783 33.783 0 0 0 53 69.673a33.67 33.67 0 0 0-10.657 27.013v20.954a3.77 3.77 0 0 0 2.335 3.489c.459.19.95.287 1.448.287h15.687V94.14a14.03 14.03 0 0 1 4.137-9.912 14.076 14.076 0 0 1 9.942-4.094l-.001-.005z"/><path fill="url(#paint3_linear_335_4332)" d="M95.725 105.311a.807.807 0 0 1-.156.071 29.97 29.97 0 0 1-1.749.752v11.484a3.793 3.793 0 0 0 3.782 3.79h15.672V88.446a37.826 37.826 0 0 1-17.549 16.865z"/><path fill="url(#paint4_linear_335_4332)" d="M113.279 68.686V47.733a3.754 3.754 0 0 0-1.107-2.67 3.774 3.774 0 0 0-2.676-1.105H93.81v27.269a14.023 14.023 0 0 1-4.13 9.907 14.076 14.076 0 0 1-9.934 4.099h-3.512a9.184 9.184 0 0 0-8.488 5.661 9.13 9.13 0 0 0-.7 3.51v9.819c1.892.327 10.54.511 12.544.511.227 0 .434 0 .668-.014a33.493 33.493 0 0 0 13.597-3.138l.086-.042a33.694 33.694 0 0 0 13.519-11.445 33.598 33.598 0 0 0 5.832-16.71c.057-.781.086-1.56.086-2.356 0-.796-.042-1.563-.099-2.343z"/><path fill="#01943F" d="M240.063 74.088v12.906h-35.772V74.088h35.772zm-30.169-27.63v69.601h-16.808V46.458h16.808zm41.47 0v69.601h-16.76V46.458h16.76zm58.662 56.694v12.907h-37.161v-12.907h37.161zm-31.175-56.694v69.601h-16.808V46.458h16.808zm26.386 27.63v12.476h-32.372V74.088h32.372zm4.932-27.63v12.954h-37.304V46.458h37.304zm46.402 46.034h16.761c-.224 4.844-1.533 9.114-3.927 12.811-2.395 3.696-5.715 6.581-9.961 8.652-4.213 2.04-9.194 3.06-14.94 3.06-4.661 0-8.827-.781-12.499-2.343-3.639-1.562-6.736-3.808-9.29-6.74-2.522-2.932-4.453-6.485-5.794-10.66-1.309-4.175-1.963-8.875-1.963-14.102v-3.776c0-5.226.686-9.927 2.059-14.102 1.405-4.206 3.384-7.776 5.938-10.708a25.761 25.761 0 0 1 9.29-6.788c3.608-1.562 7.614-2.342 12.019-2.342 6.066 0 11.19 1.084 15.372 3.25 4.182 2.167 7.422 5.147 9.721 8.94 2.299 3.76 3.655 8.047 4.07 12.858h-16.76c-.064-2.612-.511-4.796-1.341-6.548-.83-1.785-2.138-3.124-3.927-4.016-1.787-.892-4.166-1.339-7.135-1.339-2.075 0-3.879.383-5.411 1.148-1.532.764-2.809 1.976-3.831 3.633-1.022 1.657-1.788 3.808-2.298 6.453-.479 2.613-.719 5.768-.719 9.466v3.871c0 3.697.224 6.852.671 9.465.447 2.613 1.165 4.748 2.155 6.406.99 1.657 2.266 2.884 3.831 3.681 1.596.765 3.543 1.146 5.842 1.146 2.554 0 4.709-.398 6.464-1.194 1.757-.829 3.113-2.072 4.071-3.729.958-1.69 1.468-3.84 1.532-6.453zm83.706-12.62v2.82c0 5.323-.75 10.103-2.251 14.341-1.468 4.207-3.559 7.808-6.273 10.803a27.8 27.8 0 0 1-9.625 6.836c-3.703 1.562-7.79 2.343-12.259 2.343-4.501 0-8.62-.781-12.354-2.343a28.27 28.27 0 0 1-9.674-6.836c-2.713-2.995-4.82-6.596-6.321-10.803-1.468-4.238-2.203-9.018-2.203-14.34v-2.821c0-5.322.735-10.102 2.203-14.341 1.501-4.239 3.591-7.84 6.274-10.803a26.976 26.976 0 0 1 9.625-6.836c3.735-1.594 7.853-2.39 12.355-2.39 4.468 0 8.555.796 12.258 2.39a26.883 26.883 0 0 1 9.673 6.836c2.714 2.964 4.821 6.564 6.321 10.803 1.501 4.239 2.251 9.019 2.251 14.34zm-17.048 2.82v-2.916c0-3.442-.303-6.47-.91-9.082-.574-2.645-1.436-4.86-2.585-6.645-1.15-1.784-2.57-3.123-4.262-4.015-1.66-.924-3.559-1.386-5.698-1.386-2.235 0-4.183.462-5.843 1.386-1.66.892-3.049 2.23-4.166 4.015-1.117 1.785-1.964 4-2.538 6.645-.542 2.613-.814 5.64-.814 9.082v2.916c0 3.41.272 6.437.814 9.083.574 2.613 1.421 4.828 2.538 6.644 1.149 1.817 2.554 3.187 4.214 4.112 1.692.924 3.656 1.386 5.89 1.386 2.139 0 4.038-.462 5.699-1.386 1.66-.925 3.048-2.295 4.166-4.112 1.149-1.816 2.011-4.031 2.585-6.644.607-2.646.91-5.673.91-9.083z"/><path fill="#fff" d="M513.067 92.491h16.76c-.223 4.844-1.532 9.115-3.926 12.811-2.395 3.697-5.715 6.581-9.961 8.652-4.214 2.04-9.194 3.06-14.94 3.06-4.662 0-8.828-.781-12.499-2.342-3.64-1.562-6.736-3.809-9.29-6.741-2.522-2.931-4.453-6.485-5.794-10.66-1.309-4.174-1.964-8.875-1.964-14.102v-3.776c0-5.226.687-9.927 2.06-14.102 1.404-4.206 3.383-7.776 5.937-10.708a25.756 25.756 0 0 1 9.291-6.787c3.607-1.562 7.613-2.343 12.019-2.343 6.066 0 11.189 1.084 15.372 3.251 4.182 2.166 7.422 5.146 9.721 8.939 2.298 3.76 3.655 8.047 4.07 12.859h-16.76c-.064-2.613-.512-4.797-1.341-6.55-.83-1.784-2.139-3.122-3.927-4.015-1.788-.892-4.166-1.338-7.135-1.338-2.075 0-3.879.382-5.412 1.147-1.532.765-2.809 1.976-3.83 3.633-1.022 1.657-1.788 3.808-2.299 6.454-.478 2.613-.718 5.768-.718 9.465v3.871c0 3.698.223 6.853.67 9.466.448 2.612 1.165 4.748 2.155 6.405.99 1.657 2.267 2.884 3.832 3.681 1.595.765 3.543 1.147 5.842 1.147 2.553 0 4.708-.399 6.464-1.195 1.756-.828 3.113-2.072 4.071-3.728.957-1.69 1.468-3.84 1.532-6.454zm39.746-49.858v73.425h-16.138V42.633h16.138zm-1.916 45.795l-3.783.095c0-3.632.447-6.979 1.341-10.038.894-3.06 2.171-5.72 3.831-7.983 1.66-2.263 3.655-4.016 5.986-5.259 2.331-1.242 4.916-1.864 7.757-1.864 2.555 0 4.885.367 6.992 1.1a13.433 13.433 0 0 1 5.507 3.537c1.564 1.625 2.761 3.744 3.591 6.358.863 2.613 1.294 5.8 1.294 9.56v32.124h-16.234V83.839c0-2.103-.303-3.729-.91-4.876-.575-1.179-1.405-1.992-2.49-2.438-1.086-.478-2.41-.717-3.975-.717-1.883 0-3.415.318-4.597.956a6.681 6.681 0 0 0-2.729 2.677c-.607 1.115-1.022 2.438-1.246 3.968-.223 1.53-.335 3.202-.335 5.019zm68.382 14.628v-21.32c0-1.467-.207-2.725-.622-3.777-.415-1.052-1.069-1.864-1.963-2.438-.894-.606-2.092-.908-3.592-.908-1.213 0-2.251.207-3.113.621a4.28 4.28 0 0 0-1.963 1.865c-.447.828-.671 1.88-.671 3.155h-16.137c0-2.39.527-4.605 1.58-6.645 1.085-2.071 2.618-3.872 4.597-5.402 2.011-1.53 4.406-2.709 7.183-3.537 2.809-.86 5.938-1.29 9.386-1.29 4.118 0 7.792.684 11.016 2.055 3.254 1.37 5.825 3.425 7.705 6.167 1.887 2.708 2.83 6.118 2.83 10.23v21.175c0 3.379.186 5.944.572 7.697.387 1.721.929 3.235 1.628 4.541v.813H621.53c-.766-1.593-1.341-3.538-1.724-5.832a48.014 48.014 0 0 1-.527-7.17zm1.964-18.596l.096 8.605h-7.136c-1.5 0-2.777.207-3.83.621-1.022.415-1.852.988-2.491 1.72a6.81 6.81 0 0 0-1.34 2.391 10.18 10.18 0 0 0-.383 2.821c0 .956.223 1.816.67 2.581a4.979 4.979 0 0 0 1.915 1.72c.799.415 1.693.622 2.682.622 1.788 0 3.304-.335 4.549-1.003 1.278-.702 2.251-1.546 2.921-2.534.671-.988 1.006-1.912 1.006-2.773l3.54 6.597a41.585 41.585 0 0 1-2.199 3.872 16.976 16.976 0 0 1-3.017 3.633c-1.182 1.083-2.634 1.976-4.358 2.677-1.723.669-3.815 1.004-6.273 1.004-3.192 0-6.129-.654-8.811-1.96-2.65-1.306-4.773-3.123-6.369-5.449-1.597-2.359-2.395-5.067-2.395-8.127 0-2.677.48-5.067 1.437-7.17.99-2.104 2.474-3.888 4.454-5.354 1.979-1.466 4.501-2.581 7.566-3.347 3.065-.764 6.672-1.147 10.822-1.147h6.944zm40.269-20.124v51.722H645.33V64.335h16.182zm-17.14-13.338c0-2.294.832-4.175 2.489-5.64 1.664-1.467 3.818-2.2 6.463-2.2 2.653 0 4.807.733 6.464 2.2 1.664 1.465 2.497 3.346 2.497 5.64 0 2.295-.833 4.175-2.497 5.641-1.657 1.466-3.811 2.2-6.464 2.2-2.645 0-4.799-.734-6.463-2.2-1.657-1.466-2.489-3.346-2.489-5.64zm42.958 24.38v40.68h-16.145V64.335h15.135l1.01 11.042zm-1.917 13.05l-3.782.095c0-3.951.476-7.473 1.434-10.564.959-3.123 2.311-5.768 4.072-7.935 1.753-2.167 3.841-3.808 6.271-4.924 2.459-1.147 5.185-1.72 8.187-1.72 2.392 0 4.584.35 6.56 1.051 2.014.701 3.738 1.832 5.172 3.394 1.471 1.561 2.585 3.633 3.35 6.214.803 2.55 1.204 5.705 1.204 9.465v32.554h-16.234V83.456c0-2.071-.29-3.649-.862-4.732-.579-1.116-1.404-1.88-2.496-2.295-1.085-.414-2.407-.621-3.968-.621-1.664 0-3.068.318-4.22.956a7.436 7.436 0 0 0-2.771 2.677c-.676 1.115-1.166 2.438-1.486 3.968-.29 1.53-.431 3.202-.431 5.019z"/><defs><linearGradient id="paint0_linear_335_4332" x1="77.811" x2="77.811" y1="10" y2="155.367" gradientUnits="userSpaceOnUse"><stop stop-color="#01943F"/><stop offset="1" stop-color="#025826"/></linearGradient><linearGradient id="paint1_linear_335_4332" x1="52.093" x2="52.093" y1="43.957" y2="76.92" gradientUnits="userSpaceOnUse"><stop stop-color="#fff"/><stop offset="1" stop-color="#DADADA"/></linearGradient><linearGradient id="paint2_linear_335_4332" x1="65.416" x2="65.416" y1="60.628" y2="121.416" gradientUnits="userSpaceOnUse"><stop stop-color="#fff"/><stop offset="1" stop-color="#DADADA"/></linearGradient><linearGradient id="paint3_linear_335_4332" x1="103.547" x2="103.547" y1="88.446" y2="121.408" gradientUnits="userSpaceOnUse"><stop stop-color="#DADADA"/><stop offset="1" stop-color="#fff"/></linearGradient><linearGradient id="paint4_linear_335_4332" x1="90.212" x2="90.212" y1="43.957" y2="104.734" gradientUnits="userSpaceOnUse"><stop stop-color="#fff"/><stop offset="1" stop-color="#DADADA"/></linearGradient></defs></svg>