<svg xmlns="http://www.w3.org/2000/svg" fill="none" viewBox="0 0 482 165"><g clip-path="url(#clip0_337_4419)"><path fill="#fff" d="M219.831 107.832c4.468 0 8.069 1.43 10.759 4.289 2.713 2.86 4.07 6.65 4.07 11.393v23.239h-11.718V124.49c0-1.929-.491-3.427-1.45-4.539-.959-1.112-2.362-1.657-4.187-1.657-1.918 0-3.414.636-4.49 1.884-1.077 1.271-1.591 2.995-1.591 5.219v21.356h-11.718V124.49c0-1.929-.491-3.427-1.45-4.539-.959-1.112-2.362-1.657-4.186-1.657-1.918 0-3.415.636-4.491 1.884-1.077 1.271-1.591 2.995-1.591 5.219v21.356h-11.671v-37.877h11.718v3.472c2.128-3.018 5.613-4.538 10.455-4.538 4.538 0 7.929 1.656 10.221 4.992 2.386-3.313 6.151-4.97 11.32-4.97zM276.083 142.01c-3.999 3.857-8.888 5.786-14.666 5.786-5.776 0-10.665-1.929-14.664-5.786-4-3.859-6.011-8.602-6.011-14.207s2.011-10.326 6.011-14.206c3.999-3.858 8.888-5.787 14.664-5.787 5.778 0 10.667 1.929 14.666 5.787 3.999 3.858 6.011 8.601 6.011 14.206 0 5.628-1.989 10.348-6.011 14.207zm-21.073-7.762c1.706 1.657 3.858 2.497 6.407 2.497 2.55 0 4.679-.84 6.409-2.497 1.732-1.657 2.573-3.813 2.573-6.445 0-2.633-.865-4.766-2.573-6.445-1.706-1.679-3.859-2.496-6.409-2.496-2.549 0-4.677.839-6.407 2.496-1.732 1.657-2.573 3.812-2.573 6.445 0 2.632.865 4.788 2.573 6.445zM300.429 115.616c.725-2.428 2.198-4.289 4.42-5.56 2.222-1.294 4.654-1.929 7.298-1.929v12.868c-2.854-.454-5.521.022-8 1.407-2.479 1.384-3.695 3.789-3.695 7.239v17.111h-11.718v-37.876h11.718v6.74h-.023zM344.773 108.876h11.718v37.854h-11.718v-3.563c-2.76 3.086-6.643 4.629-11.624 4.629-5.146 0-9.543-1.929-13.192-5.786-3.649-3.859-5.473-8.602-5.473-14.207s1.824-10.326 5.473-14.206c3.649-3.858 8.046-5.787 13.192-5.787 5.005 0 8.864 1.543 11.624 4.629v-3.563zm-15.999 25.69c1.708 1.656 3.953 2.496 6.713 2.496 2.76 0 5.005-.84 6.713-2.496 1.708-1.657 2.573-3.904 2.573-6.74 0-2.837-.865-5.084-2.573-6.74-1.708-1.657-3.953-2.497-6.713-2.497-2.76 0-5.005.84-6.713 2.497-1.707 1.656-2.572 3.903-2.572 6.74-.023 2.814.842 5.06 2.572 6.74zM365.055 146.752V91.47h11.718v55.282h-11.718zM396.163 103.542c-1.38 1.339-3.041 1.997-4.959 1.997-1.918 0-3.578-.658-4.958-1.997-1.38-1.339-2.058-2.95-2.058-4.81 0-1.862.678-3.473 2.058-4.812 1.38-1.339 3.04-1.997 4.958-1.997 1.918 0 3.579.68 4.959 1.997 1.38 1.339 2.058 2.95 2.058 4.811 0 1.884-.678 3.472-2.058 4.811zm-10.805 43.21v-37.877h11.717v37.854h-11.717v.023zM416.324 119.95c0 .749.655 1.385 1.987 1.861 1.333.477 2.924.953 4.795 1.43a41.593 41.593 0 0 1 5.614 1.861c1.871.749 3.462 1.997 4.794 3.744 1.333 1.748 1.988 3.926 1.988 6.559 0 4.085-1.567 7.171-4.677 9.282-3.111 2.088-6.97 3.131-11.555 3.131-8.233 0-13.823-2.995-16.77-9.009l10.151-5.606c1.029 2.973 3.251 4.471 6.642 4.471 2.807 0 4.211-.771 4.211-2.337 0-.749-.655-1.385-1.989-1.884-1.333-.499-2.922-.998-4.795-1.475a41.829 41.829 0 0 1-5.613-1.884c-1.871-.771-3.461-1.997-4.795-3.676-1.332-1.679-1.987-3.722-1.987-6.127 0-3.949 1.473-6.99 4.421-9.169 2.946-2.178 6.572-3.245 10.875-3.245 3.228 0 6.175.703 8.817 2.088 2.644 1.384 4.795 3.404 6.409 6.014l-9.986 5.219c-1.24-2.224-2.995-3.336-5.24-3.336-2.199-.045-3.297.658-3.297 2.088zM143.688 150.019l-.037-.019c-.112.169-.242.339-.354.508.13-.169.279-.32.391-.489z"/><path fill="#fff" d="M153.816 119.397c-.335-13.54-11.26-24.407-24.697-24.407-6.607 0-12.581 2.637-17.029 6.912-4.411-4.275-10.366-6.912-16.917-6.912-13.437 0-24.361 10.998-24.696 24.708v.189c0 10.433 3.74 19.699 7.165 26.064a70.057 70.057 0 0 0 4.801 7.721c.652.923 1.229 1.658 1.638 2.185.205.263.372.471.502.621.056.076.112.132.15.189l.055.056.019.019.018.019a7.768 7.768 0 0 0 11.148.772c3.276-2.938 3.61-8.042.763-11.413v-.018c0-.019-.018-.038-.055-.057a6.47 6.47 0 0 0-.298-.358c-.26-.339-.67-.866-1.173-1.582a54.445 54.445 0 0 1-3.703-5.988c-2.755-5.123-5.174-11.582-5.211-18.136.167-4.897 4.094-8.814 8.896-8.814 4.838 0 8.784 3.955 8.896 8.908a8.455 8.455 0 0 0 .874 3.503c1.117 3.032 4.002 5.198 7.389 5.198 4.355 0 7.891-3.578 7.891-8.004v-1.074c.167-4.84 4.094-8.7 8.896-8.7 4.801 0 8.728 3.879 8.896 8.7-.019 5.274-1.694 10.453-3.574 14.558a52.712 52.712 0 0 1-2.512 4.783c-.335.565-.614.98-.782 1.243-.093.132-.149.226-.186.264-.018.019-.018.038-.037.038-.019.037-.075.113-.075.113 1.452-1.846 3.667-3.013 6.179-3.013 4.355 0 7.891 3.578 7.891 7.984 0 1.601-.465 3.07-1.265 4.332l.037.019V150l.019-.019c.018-.019.018-.038.037-.056a.674.674 0 0 0 .111-.17c.094-.132.205-.301.354-.527a38.41 38.41 0 0 0 1.154-1.827 63.634 63.634 0 0 0 3.387-6.422c2.419-5.273 5.025-12.881 5.025-21.394v-.094l.019-.094z"/><path fill="#BDFF00" d="M137.032 137.683c-2.494 0-4.728 1.186-6.179 3.013-1.08 1.356-1.712 3.088-1.712 4.972 0 4.406 3.536 7.985 7.891 7.985 2.568 0 4.82-1.243 6.271-3.145.131-.17.242-.339.354-.509a7.978 7.978 0 0 0 1.266-4.331c0-4.407-3.518-7.985-7.891-7.985z"/><path fill="#E84142" d="M131.209 34.589h5.153l14.418 33.813h-6.807l-3.12-7.737H126.34l-3.026 7.737h-6.666l14.561-33.813zm7.564 20.918l-5.153-13.754-5.248 13.754h10.401zM157.172 34.589h6.855l9.123 25.55 9.408-25.55h6.43l-13.521 33.813h-5.153l-13.142-33.813zM210.271 34.589h5.154l14.417 33.813h-6.807l-3.119-7.737h-14.514l-3.026 7.737h-6.665l14.56-33.813zm7.564 20.918l-5.153-13.754-5.247 13.754h10.4zM243.023 34.589h5.957v28.368h14.229v5.445h-20.186V34.589zM287.818 34.589h5.154l14.417 33.813h-6.807l-3.12-7.737h-14.513l-3.026 7.737h-6.665l14.56-33.813zm7.564 20.918l-5.153-13.754-5.247 13.754h10.4zM320.562 34.589h7.896l16.214 25.12h.095V34.59h5.955v33.813h-7.562l-16.547-25.933h-.094v25.933h-5.957V34.589zM390.615 42.517c-1.229-1.337-2.426-2.229-3.593-2.675a9.368 9.368 0 0 0-3.45-.668c-1.733 0-3.309.318-4.728.955a10.407 10.407 0 0 0-3.593 2.58c-1.009 1.081-1.796 2.355-2.364 3.82-.536 1.464-.803 3.04-.803 4.728 0 1.815.267 3.486.803 5.014.568 1.529 1.355 2.85 2.364 3.964a10.974 10.974 0 0 0 3.593 2.627c1.419.637 2.995.955 4.728.955 1.355 0 2.662-.318 3.924-.955 1.291-.669 2.489-1.72 3.593-3.152l4.915 3.534c-1.512 2.101-3.356 3.63-5.531 4.585-2.174.955-4.491 1.433-6.948 1.433-2.586 0-4.965-.414-7.139-1.242-2.144-.86-4.004-2.054-5.578-3.582-1.545-1.56-2.759-3.423-3.641-5.588-.883-2.165-1.323-4.569-1.323-7.211 0-2.706.44-5.158 1.323-7.355.882-2.229 2.096-4.123 3.641-5.683 1.574-1.56 3.434-2.754 5.578-3.582 2.174-.86 4.553-1.29 7.139-1.29 2.269 0 4.364.414 6.286 1.242 1.954.796 3.766 2.165 5.437 4.107l-4.633 3.439zM409.461 34.589h5.955v13.468h15.648V34.589h5.957v33.813h-5.957V53.5h-15.648v14.9h-5.955V34.59zM453.953 34.589h22.172v5.444H459.91v8.31h15.364v5.445H459.91v9.17h17.066v5.444h-23.023V34.589z"/><path fill="#fff" d="M51.01 89.505c20.778 0 37.621-17.016 37.621-38.005 0-20.99-16.843-38.006-37.62-38.006-20.777 0-37.62 17.016-37.62 38.006 0 20.99 16.843 38.005 37.62 38.005z"/><path fill="#E84142" fill-rule="evenodd" d="M99.017 51.5c0 26.786-21.494 48.5-48.008 48.5C24.493 100 3 78.286 3 51.5S24.494 3 51.008 3c26.515 0 48.009 21.714 48.009 48.5zM37.404 70.8h-9.317c-1.957 0-2.925 0-3.514-.382a2.397 2.397 0 0 1-1.074-1.87c-.035-.703.449-1.561 1.416-3.277L47.92 24.306c.979-1.74 1.474-2.609 2.1-2.93a2.353 2.353 0 0 1 2.146 0c.625.321 1.12 1.19 2.099 2.93l4.73 8.34.023.043c1.058 1.866 1.594 2.813 1.828 3.806a7.146 7.146 0 0 1 0 3.312c-.236 1.001-.767 1.954-1.84 3.849l-12.084 21.58-.031.055c-1.065 1.881-1.604 2.835-2.351 3.555a7.013 7.013 0 0 1-2.866 1.68c-.98.273-2.076.274-4.27.274zm23.53 0h13.35c1.97 0 2.96 0 3.55-.392a2.387 2.387 0 0 0 1.073-1.883c.034-.68-.439-1.505-1.366-3.12l-.097-.168-6.687-11.558-.076-.13c-.94-1.605-1.414-2.416-2.023-2.73a2.328 2.328 0 0 0-2.135 0c-.613.322-1.108 1.168-2.087 2.872l-6.664 11.557-.023.04c-.975 1.701-1.462 2.551-1.427 3.249a2.418 2.418 0 0 0 1.073 1.882c.578.382 1.569.382 3.538.382z" clip-rule="evenodd"/></g><defs><clipPath id="clip0_337_4419"><path fill="#fff" d="M0 0h482v165H0z"/></clipPath></defs></svg>