<svg xmlns="http://www.w3.org/2000/svg" fill="none" viewBox="0 0 729 165"><path fill="#fff" d="M471.332 75.564a18.728 18.728 0 0 1-1.962 8.724 18.352 18.352 0 0 1-5.271 6.323 23.662 23.662 0 0 1-7.578 3.805 30.527 30.527 0 0 1-8.865 1.286 31.389 31.389 0 0 1-9.023-1.286 22.218 22.218 0 0 1-7.503-3.805 18.356 18.356 0 0 1-5.101-6.323 19.113 19.113 0 0 1-1.908-8.724V59.487a18.823 18.823 0 0 1 1.962-8.735 19.396 19.396 0 0 1 5.218-6.43 23.113 23.113 0 0 1 7.503-3.913 29.63 29.63 0 0 1 8.982-1.35c3.15-.027 6.283.432 9.292 1.361a22.031 22.031 0 0 1 7.503 3.965 18.308 18.308 0 0 1 4.994 6.431 20.161 20.161 0 0 1 1.8 8.724l-.043 16.024zm-11.864-13.998a12.049 12.049 0 0 0-1.072-5.359 10.243 10.243 0 0 0-2.733-3.451 10.963 10.963 0 0 0-3.803-1.95 14.116 14.116 0 0 0-8.285 0 10.978 10.978 0 0 0-3.806 1.95 10.132 10.132 0 0 0-2.743 3.526 12.05 12.05 0 0 0-1.072 5.359v11.79c0 4.18 1.157 7.127 3.471 8.842a13.488 13.488 0 0 0 8.275 2.572 14.977 14.977 0 0 0 4.147-.61 11.18 11.18 0 0 0 3.806-1.962 10.277 10.277 0 0 0 2.743-3.526 12.05 12.05 0 0 0 1.072-5.36v-11.82zM581.99 71.274v2.805a11.424 11.424 0 0 0 1.001 4.999 9.677 9.677 0 0 0 2.642 3.364 10.751 10.751 0 0 0 3.815 1.902c1.481.42 3.011.63 4.548.624a26.565 26.565 0 0 0 6.225-.903 16.867 16.867 0 0 0 7.243-4.15 162.482 162.482 0 0 0 3.537 4.097 70.829 70.829 0 0 1 3.418 4.127 23.705 23.705 0 0 1-9.931 6.116c-3.407 1-6.94 1.51-10.492 1.516a32.94 32.94 0 0 1-9.147-1.236 22.712 22.712 0 0 1-7.631-3.752 17.907 17.907 0 0 1-5.225-6.353 19.88 19.88 0 0 1-1.914-8.975V60.837a22.71 22.71 0 0 1 1.743-9.094 19.337 19.337 0 0 1 4.87-6.847 22.175 22.175 0 0 1 7.276-4.3 26.211 26.211 0 0 1 9.094-1.537c3.157-.033 6.301.46 9.298 1.462a21.247 21.247 0 0 1 7.33 4.203 18.686 18.686 0 0 1 4.762 6.686 22.697 22.697 0 0 1 1.677 8.975v10.889H581.99zm22.217-10.223a10.308 10.308 0 0 0-.633-4.607 10.356 10.356 0 0 0-2.59-3.863 11.96 11.96 0 0 0-7.741-2.633 11.82 11.82 0 0 0-7.835 2.72 10.125 10.125 0 0 0-3.311 8.244v1.795h22.11V61.05zM625.032 59.02a19.535 19.535 0 0 1 5.327-14.52 19.113 19.113 0 0 1 13.965-5.325c2.327.038 4.647.244 6.945.618a38.345 38.345 0 0 1 8.734 2.503V15.304h11.792v79.645h-10.769l-1.066-5.454a47.784 47.784 0 0 1-9.586 4.73 22.77 22.77 0 0 1-6.85 1.278 18.581 18.581 0 0 1-13.507-4.836c-3.323-3.224-4.975-8.248-4.952-15.073l-.033-16.574zm11.793 15.69c0 3.707.794 6.246 2.384 7.617a8.988 8.988 0 0 0 6.072 2.055c1.108-.02 2.209-.17 3.282-.448a28.737 28.737 0 0 0 3.834-1.224 39.306 39.306 0 0 0 3.952-1.78 37.431 37.431 0 0 0 3.611-2.13V53.566a55.998 55.998 0 0 0-7.287-2.386 27.3 27.3 0 0 0-6.507-.831 9.799 9.799 0 0 0-6.614 2.333 9.839 9.839 0 0 0-2.24 3.643 9.843 9.843 0 0 0-.487 4.25V74.71zM229.266 94.328V17.06H245.3l20.447 49.586 20.448-49.586h16.329v77.267h-13.631V42.757l-18.095 41.06h-9.757l-18.144-39.752v50.264h-13.631zM330.09 94.327h-12.449V40.5h12.449v53.826zM361.474 83.782c-4.049 0-6.072-2.087-6.07-6.26l.103-60.088h-12.555v63.382a15.175 15.175 0 0 0 3.653 10.876 13.044 13.044 0 0 0 9.931 3.844 40.507 40.507 0 0 0 5.812-.494 21.036 21.036 0 0 0 3.339-.738V83.782h-4.213zM388.079 68.623h-1.912v8.238l-.103 17.466h-12.552V17.433h12.552l.103 32.735v9.447h2.098a5.141 5.141 0 0 0 4.176-2.137l12.247-16.977h14.199L404.79 59.615a15.327 15.327 0 0 1-2.057 2.581 16.889 16.889 0 0 1-2.161 1.922v.22c.79.602 1.499 1.303 2.11 2.087a18.464 18.464 0 0 1 2.108 3.076l15.743 24.826h-14.199l-13.833-23.193a5.15 5.15 0 0 0-4.422-2.511zM555.527 42.809a15.927 15.927 0 0 1 3.498 11.094v40.425h-12.243v-36.36a10.482 10.482 0 0 0-1.442-5.932 5.748 5.748 0 0 0-4.836-1.758c-1.962-.006-3.9.446-5.657 1.319a60.528 60.528 0 0 0-7.925 5.163v37.568h-12.038v-36.36a8.855 8.855 0 0 0-1.388-5.987 6.203 6.203 0 0 0-4.889-1.703 12.104 12.104 0 0 0-5.504 1.319 74.012 74.012 0 0 0-7.974 5.053v37.678H482.68V40.502h10.184l.825 7.91a42.12 42.12 0 0 1 9.775-7.086 21.849 21.849 0 0 1 9.877-2.362c6.792 0 11.078 3.003 12.862 9.008 6.241-6.004 12.62-9.007 19.137-9.008a13.08 13.08 0 0 1 10.187 3.845zM723.397 43.138c3.05 2.784 4.577 7.654 4.579 14.61v36.58h-9.878l-1.338-8.13a29.91 29.91 0 0 1-8.18 6.591 22.2 22.2 0 0 1-11.061 2.746 16.24 16.24 0 0 1-11.526-4.119 14.916 14.916 0 0 1-4.424-11.479v-5.493c-.113-1.85.178-3.703.852-5.43a12.773 12.773 0 0 1 3.059-4.565 15.903 15.903 0 0 1 11.01-3.516h18.931v-3.295a12.305 12.305 0 0 0-.874-4.778 4.408 4.408 0 0 0-2.727-2.252c-1.84-.509-3.75-.731-5.657-.66-5.284 0-12.316.366-21.094 1.099l-1.235-9.447c3.634-.731 7.922-1.354 12.862-1.867 4.939-.511 9.054-.768 12.346-.77 6.515 0 11.3 1.392 14.355 4.175zm-27.782 40.04a6.807 6.807 0 0 0 4.991 1.593 19.414 19.414 0 0 0 7.151-1.594 27.529 27.529 0 0 0 7.664-4.778v-8.348h-16.05a5.214 5.214 0 0 0-4.168 1.647 7.073 7.073 0 0 0-1.182 4.395v2.086c-.079.897.022 1.801.297 2.659a6.767 6.767 0 0 0 1.297 2.34zM323.866 30.132a6.535 6.535 0 0 0 6.536-6.536 6.537 6.537 0 1 0-6.536 6.536zM173.469 34.35l13.116 22.705-69.085 39.89s-42.31 25.572-72.728-27.148l21.511-12.412s13.98 30.898 38.208 16.866a133069.26 133069.26 0 0 1 68.978-39.901z"/><path fill="#fff" d="M13.116 69.638L0 46.933 70.555 6.2s42.31-25.571 72.718 27.148l-21.512 12.413s-13.978-30.899-38.207-16.866c-24.23 14.032-70.438 40.743-70.438 40.743z"/><path fill="#FF8D00" d="M94.624 69.084a17.239 17.239 0 1 0 0-34.478 17.239 17.239 0 0 0 0 34.478z"/><path fill="#fff" d="M33.753 95.997a9.003 9.003 0 1 0 0-18.006 9.003 9.003 0 0 0 0 18.006zM153.926 26.604a9 9 0 0 0 8.318-5.557 8.993 8.993 0 0 0 .513-5.202 9.002 9.002 0 1 0-8.831 10.76z"/><path fill="url(#paint0_linear_1623_629)" fill-rule="evenodd" d="M577.324 132.482a32.71 32.71 0 0 1 4.061.98v-14.074h6.81v44.103h-6.057l-.503-2.555a25.38 25.38 0 0 1-4.734 2.17 13.783 13.783 0 0 1-3.95.681 12.94 12.94 0 0 1-4.217-.669 9.05 9.05 0 0 1-3.428-2.092 9.582 9.582 0 0 1-2.246-3.571 14.349 14.349 0 0 1-.794-5.006v-8.997a12.538 12.538 0 0 1 .862-4.764 10.29 10.29 0 0 1 2.392-3.582 10.407 10.407 0 0 1 3.579-2.226 12.283 12.283 0 0 1 4.327-.765c1.305.018 2.609.141 3.898.367zm-7.114 23.735a4.598 4.598 0 0 0 3.216 1.056 7.889 7.889 0 0 0 1.755-.244c.745-.18 1.475-.415 2.186-.703.78-.314 1.543-.668 2.288-1.061a19.69 19.69 0 0 0 1.73-1.028v-14.014a45.03 45.03 0 0 0-3.785-1.114 15.854 15.854 0 0 0-3.867-.482 4.764 4.764 0 0 0-3.292 1.184 5.484 5.484 0 0 0-1.365 4.252v8.133a5.413 5.413 0 0 0 1.134 4.021zm-138.655 7.57h7.163v-17.935h18.647v-6.693h-18.647v-11.185h21.786v-6.693h-28.949v42.506zm54.213-28.596a12.398 12.398 0 0 0-4.142-2.293 16.903 16.903 0 0 0-10.158.001 12.366 12.366 0 0 0-4.143 2.293 11.388 11.388 0 0 0-2.824 3.647 10.975 10.975 0 0 0-1.066 4.909v8.525a11.248 11.248 0 0 0 1.031 4.899c.662 1.4 1.619 2.64 2.807 3.633 1.215 1 2.611 1.758 4.113 2.23a16.26 16.26 0 0 0 5.014.752c1.678.01 3.349-.244 4.95-.752a12.97 12.97 0 0 0 4.162-2.22 10.688 10.688 0 0 0 2.902-3.633 10.977 10.977 0 0 0 1.068-4.909v-8.525a11.841 11.841 0 0 0-.965-4.88 10.394 10.394 0 0 0-2.749-3.677zm-3.096 16.056a6.384 6.384 0 0 1-.563 2.827 5.353 5.353 0 0 1-1.45 1.856 5.672 5.672 0 0 1-1.978 1.023 8.827 8.827 0 0 1-4.75-.003 4.774 4.774 0 0 1-1.912-.996 4.96 4.96 0 0 1-1.281-1.838 7.361 7.361 0 0 1-.495-2.869v-6.592a6.42 6.42 0 0 1 .563-2.828 5.341 5.341 0 0 1 1.452-1.855 5.636 5.636 0 0 1 1.978-1.022 8.28 8.28 0 0 1 2.252-.321 8.087 8.087 0 0 1 2.191.321 5.645 5.645 0 0 1 1.98 1.022 5.392 5.392 0 0 1 1.45 1.855c.4.888.594 1.855.563 2.828v6.592zm203.826-18.349a12.388 12.388 0 0 1 4.144 2.293 10.412 10.412 0 0 1 2.747 3.677 11.81 11.81 0 0 1 .965 4.88v8.525a10.975 10.975 0 0 1-1.066 4.909 10.736 10.736 0 0 1-2.902 3.633 12.98 12.98 0 0 1-4.162 2.22 16.071 16.071 0 0 1-4.952.752c-1.7.013-3.391-.241-5.012-.752a12.292 12.292 0 0 1-4.115-2.23 10.714 10.714 0 0 1-2.807-3.633 11.277 11.277 0 0 1-1.031-4.899v-8.525a10.95 10.95 0 0 1 1.068-4.909 11.332 11.332 0 0 1 2.824-3.647 12.347 12.347 0 0 1 4.141-2.293 16.903 16.903 0 0 1 10.158-.001zm1.048 18.349v-6.592a6.42 6.42 0 0 0-.563-2.828 5.374 5.374 0 0 0-1.452-1.855 5.653 5.653 0 0 0-1.978-1.022 8.1 8.1 0 0 0-2.192-.321 8.298 8.298 0 0 0-2.253.321 5.679 5.679 0 0 0-1.978 1.022 5.388 5.388 0 0 0-1.452 1.855 6.39 6.39 0 0 0-.561 2.828v6.592c-.029.98.139 1.955.493 2.869.283.703.72 1.331 1.283 1.838a4.76 4.76 0 0 0 1.91.996 8.827 8.827 0 0 0 4.75.003 5.638 5.638 0 0 0 1.978-1.023 5.335 5.335 0 0 0 1.452-1.856c.4-.887.592-1.854.563-2.827zm-172.087 2.681a38.792 38.792 0 0 1-5.175 2.792c-1.26.547-2.615.839-3.988.859a3.83 3.83 0 0 1-2.873-.859 5.032 5.032 0 0 1-.745-3.362v-20.98h-7.054v22.668a8.874 8.874 0 0 0 2.228 6.514 8.694 8.694 0 0 0 6.393 2.227 17.34 17.34 0 0 0 6.402-1.25 28.793 28.793 0 0 0 5.646-3.09l.373 3.556h5.785v-30.625h-6.992v21.55zm19.536-16.822a22.08 22.08 0 0 1 12.509-4.727 8.517 8.517 0 0 1 6.371 2.262 8.973 8.973 0 0 1 2.191 6.478v22.668h-7.054v-20.98a5.833 5.833 0 0 0-.687-3.46 2.979 2.979 0 0 0-2.448-.821c-1.52.017-3.017.349-4.401.974a56.502 56.502 0 0 0-5.909 3.166l.061 21.121h-7.053v-30.625h6.101l.319 3.944zm83.839-2.954a12.564 12.564 0 0 0-8.289-2.315c-1.984 0-4.346.132-7.023.394-2.677.262-5.159.598-7.374 1.001l-.561.102.687 5.416.572-.045c6.061-.479 10.244-.721 12.432-.721a6.639 6.639 0 0 1 4.193.881c.388.447.683.968.862 1.532.182.563.248 1.158.192 1.748v1.688h-11.216a9.566 9.566 0 0 0-6.548 2.082 7.514 7.514 0 0 0-1.84 2.674 7.52 7.52 0 0 0-.534 3.202v3.074a8.42 8.42 0 0 0 2.644 6.6 10.114 10.114 0 0 0 6.943 2.322 15.199 15.199 0 0 0 6.965-1.633 20.77 20.77 0 0 0 4.36-2.912l.571 4.002h5.707v-21.099a10.096 10.096 0 0 0-2.743-7.993zm-16.498 22.687v-.001a3.606 3.606 0 0 1-.835-2.696v-1.567a3.642 3.642 0 0 1 .641-2.358 3.001 3.001 0 0 1 2.252-.779h10.131v4.372a15.513 15.513 0 0 1-4.649 2.845c-3.312 1.267-6.375 1.281-7.54.184zm30.576-32.84h6.99v8.62h9.104v5.726h-9.104v15.797a3.417 3.417 0 0 0 .691 2.461 3.728 3.728 0 0 0 2.566.675h4.799l.817 5.564-.515.141a22.42 22.42 0 0 1-3.503.59c-1.402.142-2.609.214-3.586.214a7.95 7.95 0 0 1-6.142-2.335 9.35 9.35 0 0 1-2.117-6.526v-16.581h-5.366v-5.391l5.366-.302v-8.653zm92.873 10.642a8.53 8.53 0 0 0-6.371-2.262 22.078 22.078 0 0 0-12.509 4.727l-.32-3.944h-6.101v30.625h7.054l-.062-21.121a56.602 56.602 0 0 1 5.909-3.166 10.995 10.995 0 0 1 4.401-.974 2.977 2.977 0 0 1 2.449.821 5.84 5.84 0 0 1 .686 3.46v20.98h7.054v-22.668a8.972 8.972 0 0 0-2.19-6.478zm-63.61 29.034h-6.854v-29.634h6.854v29.634zm.171-38.942a3.598 3.598 0 1 1-7.196 0 3.599 3.599 0 1 1 7.196 0z" clip-rule="evenodd"/><defs><linearGradient id="paint0_linear_1623_629" x1="431.555" x2="727.994" y1="141.808" y2="141.808" gradientUnits="userSpaceOnUse"><stop stop-color="#FFA23D"/><stop offset="1" stop-color="#A2BBFF"/></linearGradient></defs></svg>