<svg xmlns="http://www.w3.org/2000/svg" fill="none" viewBox="0 0 627 165"><path fill="#0782F2" d="M89.393 162.814c9.21-2.943 15.666-6.646 23.832-13.577 9.779-8.356 15.856-16.141 20.888-26.491 11.014-22.977 12.154-47.473 3.228-67.412-3.323-7.311-9.969-16.046-14.906-19.56-4.368-3.038-5.602-3.702-12.154-6.456-1.519-.664-6.836-1.424-11.583-1.709-7.121-.38-9.685-.095-13.293 1.234C63.188 37.39 49.135 62.17 51.89 88.281c1.519 15.476 8.545 30.763 17.755 38.833l4.368 3.798h-6.837c-3.703 0-7.5-.38-8.45-.855-.855-.474-3.703-1.804-6.172-3.038-8.925-4.273-17.375-15.761-21.268-28.864-2.279-7.786-2.279-25.92.095-35.13 3.893-15.192 15.477-33.612 26.68-42.252C71.068 10.709 81.512 7.101 97.464 7.101c11.488 0 15.666.854 25.635 5.412 5.222 2.373 13.103 7.406 17.756 11.393 7.31 6.362 17.28 22.408 20.603 33.137 4.653 15.002 5.317 27.44 2.374 41.872-5.032 25.066-23.072 48.138-45.48 58.392-9.78 4.463-23.072 7.786-30.858 7.691l-4.747-.095 6.646-2.089z"/><path fill="#0782F2" d="M60.91 158.731c-19.844-3.133-37.314-14.811-48.993-32.946-11.204-17.091-14.907-42.632-9.4-63.71C9.26 35.87 30.432 12.987 55.403 4.727c11.204-3.703 25.92-5.982 25.92-3.988 0 .57-.57 1.045-1.234 1.045-3.038 0-12.438 3.797-18.514 7.5-16.142 9.685-28.39 25.351-34.751 44.15-9.305 27.82-4.843 55.07 11.963 72.066 7.216 7.311 13.673 10.729 23.262 12.248 11.774 1.804 22.598-1.519 32.188-9.874 8.83-7.691 13.292-14.812 16.805-26.491 3.228-10.919 3.703-17.85 2.089-28.959-2.089-13.767-8.355-25.92-17.755-34.656-3.418-3.133-3.323-3.702.57-3.702 15.571 0 30.383 11.203 36.364 27.534 2.754 7.406 4.463 20.699 3.608 28.2-4.082 38.074-31.807 67.507-65.039 69.121-3.892.19-8.355.095-9.97-.19zM255.559 126.415c-7.501-2.374-11.774-4.843-18.135-10.919-8.83-8.451-13.103-17.47-14.052-30.099-2.184-28.104 18.419-50.322 46.524-50.227 7.88.095 13.103 1.33 20.983 4.938 14.337 6.74 23.072 19.274 25.256 36.08 1.14 9.4-.285 17.85-4.367 26.3-8.071 16.426-21.079 24.496-40.733 25.351-7.501.285-10.729 0-15.476-1.424zm23.547-17.281c4.082-1.044 10.539-5.222 13.197-8.545 5.222-6.646 7.406-18.99 4.938-28.01-4.368-16.33-23.168-24.59-39.688-17.47-9.685 4.178-15.572 13.103-16.236 24.592-1.14 21.742 15.856 35.035 37.789 29.433zM448.019 126.984c-12.344-3.513-22.693-14.432-22.693-23.926v-3.229l8.261-.284 8.165-.285 1.804 3.892c1.329 3.229 2.564 4.368 6.362 5.982 11.393 4.842 23.831.475 23.831-8.355 0-7.311-4.177-9.97-18.135-11.489-14.811-1.519-23.357-6.456-27.534-15.666-2.184-4.748-2.374-14.717-.38-20.604 1.994-5.697 8.165-11.773 15.381-15.191 5.127-2.469 6.931-2.754 14.242-2.754 14.053 0 21.933 3.608 28.39 13.008 2.563 3.703 3.608 6.361 3.987 9.875l.475 4.747h-8.45l-8.45-.095-1.899-3.988c-2.279-4.652-5.602-6.266-13.958-6.266-9.21-.095-15.096 5.222-13.577 12.153 1.044 4.937 3.988 6.361 15.381 7.596 5.602.664 11.964 1.614 14.053 2.278 5.981 1.71 12.153 6.647 15.191 12.249 2.279 4.272 2.754 6.076 2.754 12.153-.095 5.032-.57 8.355-1.994 11.394-2.754 6.171-9.495 12.533-16.141 15.191-6.742 2.659-18.705 3.418-25.066 1.614zM583.412 127.175c-12.058-2.754-21.743-12.439-23.642-23.832l-.665-3.513 8.736-.285 8.64-.285 1.329 3.323c.76 1.804 2.943 4.368 4.842 5.697 3.039 2.089 4.463 2.374 11.489 2.374h7.976l3.228-3.513c2.374-2.564 3.228-4.463 3.228-6.837 0-6.93-5.982-10.254-20.888-11.393-16.996-1.424-26.87-10.824-26.87-25.636-.095-11.773 4.842-19.37 15.951-24.876 6.931-3.418 7.026-3.418 17.28-3.038 8.83.284 10.919.76 15.002 2.848 2.658 1.424 6.171 3.893 7.975 5.602 3.798 3.703 7.691 11.583 7.691 15.856v3.038h-16.901l-1.804-3.513c-2.183-4.652-6.646-6.836-13.862-6.93-10.349 0-16.236 6.36-13.008 14.241 1.425 3.418 4.178 4.463 17.85 6.267 11.964 1.519 15.287 2.658 19.939 6.551 16.426 13.862 9.685 40.258-11.868 46.809-7.026 2.184-15.002 2.564-21.648 1.045zM330.945 126.32c-.189-.285 6.362-20.508 14.527-45.1l14.812-44.625 9.305-.285c6.836-.19 9.305.095 9.685.95.19.664 4.747 14.717 10.064 31.142 5.222 16.426 11.489 35.606 13.767 42.632 4.558 13.957 5.033 16.805 2.659 15.856-.855-.285-4.747-.57-8.83-.57h-7.311l-1.804-6.171-1.709-6.172h-33.706l-2.184 6.267-2.279 6.266-8.355.19c-4.653 0-8.546-.095-8.641-.38zm48.803-30.763c0-.664-2.088-7.5-4.747-15.191-2.564-7.691-4.747-14.622-4.747-15.382 0-3.608-1.994.665-6.172 13.103-2.469 7.5-4.842 14.717-5.317 16.236l-.76 2.564h10.919c8.546 0 10.824-.285 10.824-1.33zM516.854 126.415c-.189-.19-.379-20.604-.379-45.385V36.12h18.04l-.19 45.195-.285 45.195-8.355.095c-4.653.095-8.641 0-8.831-.19z"/></svg>