<svg xmlns="http://www.w3.org/2000/svg" fill="none" viewBox="0 0 657 127"><path fill="#fff" d="M435.623 49.194c3.443 0 6.887.738 9.839 1.968 3.197 1.23 5.657 2.952 8.117 5.166 2.214 2.213 3.935 4.92 5.411 7.87 1.23 3.199 1.968 6.396 1.968 9.84a26 26 0 0 1-1.968 9.839c-1.23 3.197-3.197 5.657-5.411 7.87-2.214 2.215-4.92 3.936-8.117 5.166-3.198 1.23-6.396 1.968-9.839 1.968-3.444 0-6.642-.738-9.839-1.968-2.952-1.23-5.658-3.197-7.872-5.411-2.213-2.214-3.935-4.92-5.411-7.871-1.23-2.952-1.968-6.15-1.968-9.593 0-3.444.738-6.641 1.968-9.84 1.23-2.95 2.952-5.657 5.411-8.116 2.214-2.214 4.92-4.182 7.872-5.412a32.867 32.867 0 0 1 9.839-1.476zm-.246 4.182c-2.952 0-5.412.492-7.872 1.722-2.459 1.23-4.673 2.705-6.395 4.427-1.722 1.968-3.198 4.182-4.181 6.642-.984 2.46-1.476 5.165-1.476 7.87 0 2.706.492 5.412 1.476 7.872.983 2.46 2.459 4.673 4.181 6.641s3.936 3.444 6.395 4.428c2.46 1.23 5.166 1.722 7.872 1.722 2.951 0 5.657-.492 8.117-1.476 2.46-.984 4.673-2.46 6.641-4.428s3.444-3.935 4.428-6.641c.984-2.46 1.721-5.165 1.721-8.117 0-2.952-.491-5.658-1.721-8.363-.984-2.46-2.46-4.674-4.428-6.642s-4.181-3.443-6.641-4.427c-2.46-.492-5.166-1.23-8.117-1.23zm43.537-41.077h-4.674v85.845h4.674V12.299zm38.371 36.895c3.443 0 6.887.738 9.839 1.968 3.197 1.23 5.657 2.952 8.117 5.166 2.214 2.213 3.935 4.92 5.411 7.87 1.23 3.199 1.968 6.396 1.968 9.84a26 26 0 0 1-1.968 9.839c-1.23 3.197-3.197 5.657-5.411 7.87-2.214 2.215-4.92 3.936-8.117 5.166-3.198 1.23-6.396 1.968-9.839 1.968-3.444 0-6.642-.738-9.839-1.968-2.952-1.23-5.658-3.197-7.871-5.411-2.214-2.214-3.936-4.92-5.412-7.871-1.23-2.952-1.968-6.15-1.968-9.593 0-3.444.738-6.641 1.968-9.84 1.23-2.95 2.952-5.657 5.412-8.116 2.213-2.214 4.919-4.182 7.871-5.412a32.867 32.867 0 0 1 9.839-1.476zm-.246 4.182c-2.952 0-5.412.492-7.871 1.722-2.46 1.23-4.674 2.705-6.396 4.427-1.722 1.968-3.197 4.182-4.181 6.642s-1.476 5.165-1.476 7.87c0 2.706.492 5.412 1.476 7.872s2.459 4.673 4.181 6.641 3.936 3.444 6.396 4.428c2.459 1.23 5.165 1.722 7.871 1.722 2.951 0 5.657-.492 8.117-1.476 2.46-.984 4.673-2.46 6.641-4.428s3.444-3.935 4.428-6.641c.984-2.46 1.722-5.165 1.722-8.117 0-2.952-.492-5.658-1.722-8.363-.984-2.46-2.46-4.674-4.428-6.642s-4.181-3.443-6.641-4.427c-2.46-.492-5.166-1.23-8.117-1.23zm81.909 42.554c0 3.69-.246 7.379-.738 10.576-.492 3.444-1.722 6.642-4.182 9.839-2.214 3.198-4.919 5.412-8.363 6.888s-6.887 2.213-10.823 2.213c-3.198 0-6.149-.491-8.855-1.475-2.706-.984-5.411-2.214-7.379-3.936-2.214-1.722-3.936-3.936-5.166-6.395-1.23-2.46-1.968-5.412-2.213-8.855h4.673c.246 2.459.738 4.673 1.722 6.887.984 1.968 2.46 3.69 4.181 5.165 1.722 1.476 3.69 2.46 5.904 3.198s4.427 1.23 6.887 1.23c2.952 0 5.903-.492 8.609-1.722 2.706-1.23 4.92-2.952 6.642-5.411 1.967-2.706 2.951-5.658 3.443-8.855.492-2.952.738-6.15.738-9.347v-5.904h-.246c-2.214 2.952-4.919 5.166-8.117 6.887-3.444 1.722-6.887 2.46-10.577 2.46-3.444 0-6.641-.738-9.593-1.968s-5.411-3.197-7.379-5.411c-1.968-2.214-3.69-4.92-4.674-8.117-1.23-2.952-1.722-6.15-1.722-9.593 0-3.444.492-6.642 1.722-9.84 1.23-2.95 2.706-5.657 4.92-7.87 2.214-2.214 4.673-3.936 7.625-5.412 2.952-1.23 6.149-1.968 9.593-1.968 3.936 0 7.379.738 10.331 2.46 2.952 1.476 5.411 3.936 7.871 6.887h.246v-8.363h4.674V95.93h.246zm-23.614-42.554c-2.706 0-5.411.492-7.625 1.722-2.214 1.23-4.182 2.705-5.904 4.673a17.724 17.724 0 0 0-3.689 6.642c-.984 2.46-1.23 4.92-1.23 7.625 0 2.706.492 5.411 1.23 7.871.984 2.46 2.214 4.673 3.689 6.641 1.722 1.968 3.69 3.444 5.904 4.674 2.214 1.23 4.919 1.722 7.871 1.722 2.952 0 5.657-.492 8.117-1.722 2.46-1.23 4.428-2.706 5.904-4.674 1.475-1.968 2.705-4.181 3.689-6.887.738-2.706 1.23-5.412 1.23-8.363 0-2.706-.492-5.412-1.476-7.871-.984-2.46-2.214-4.428-3.935-6.396-1.722-1.721-3.69-3.197-6.15-4.181-1.968-.738-4.673-1.476-7.625-1.476zm32.963-3.196h4.919l20.416 43.537L652.08 50.18H657l-32.223 76.006h-4.919l11.56-27.057-23.121-48.95zM218.672 23.612c4.919 0 9.839.984 14.266 2.952 4.428 1.968 8.363 4.427 11.561 7.871 3.198 3.198 5.903 7.133 7.871 11.561 1.968 4.427 2.952 9.101 2.952 14.267 0 5.165-.984 10.084-2.952 14.512-1.968 4.428-4.427 8.363-7.871 11.56-3.198 3.199-7.133 5.904-11.561 7.626-4.427 1.968-9.347 2.706-14.266 2.706-5.166 0-9.839-.984-14.267-2.706-4.427-1.968-8.363-4.427-11.561-7.625-3.197-3.198-5.903-7.133-7.871-11.561-1.968-4.428-2.952-9.347-2.952-14.513 0-4.919.984-9.839 2.952-14.266 1.968-4.428 4.674-8.363 7.871-11.56 3.198-3.198 7.134-5.904 11.561-7.872 4.428-1.968 9.347-2.952 14.267-2.952zm0 64.938a27.49 27.49 0 0 0 10.823-2.214c3.443-1.476 6.395-3.444 8.855-5.904 2.459-2.46 4.673-5.411 6.149-8.855 1.476-3.443 2.214-7.133 2.214-11.314 0-3.936-.738-7.38-1.968-10.823-1.476-3.444-3.198-6.396-5.657-9.101-2.46-2.46-5.412-4.674-8.856-6.15-3.443-1.476-7.133-2.214-11.314-2.214-4.182 0-7.872.738-11.315 2.214-3.444 1.476-6.396 3.69-8.855 6.15-2.46 2.46-4.428 5.657-5.658 9.1-1.476 3.444-1.967 7.134-1.967 10.824 0 3.935.737 7.87 2.213 11.314s3.444 6.396 6.15 8.855c2.459 2.46 5.657 4.428 8.855 5.904 2.951 1.476 6.641 2.214 10.331 2.214zm48.701-66.657l52.639 55.098v-51.9h8.855v73.054l-52.639-55.099v53.869h-8.855V21.893zm108.229 75.021h-8.855V33.207H340.92V25.09h60.756v8.117h-26.074v63.707zM17.956 17.956L0 0v61.248c0 15.742 5.903 31.239 17.956 43.291 23.86 23.86 62.724 23.86 86.583 0L17.956 17.956zm91.748 86.584l17.956 17.956V61.249c0-15.743-5.903-31.24-17.956-43.292-23.86-23.86-62.723-23.86-86.583 0l86.583 86.583z"/></svg>