<svg xmlns="http://www.w3.org/2000/svg" fill="none" viewBox="0 0 453 165"><path fill="#fff" d="M181.16 0v95.922h24.711V43.655h18.944L181.16 0zM253.003 0v52.268h-18.942l43.654 43.654V0h-24.712zM132.04 125.667v22.425L102 125.667v38.369h8.225v-22.424l30.039 22.424v-38.369h-8.224zM147.84 164.036v-38.369h33.321v7.041h-24.722v8.059h24.722v7.041h-24.722v9.188h24.722v7.04H147.84zM241.076 164.036l-16.498-38.369h9.617l11.984 29.875 12.04-29.875h9.292l-16.499 38.369h-9.936zM342.799 136.468a7.556 7.556 0 0 0-3.385-3.953c-1.509-.803-3.605-1.205-6.288-1.205-3.049 0-5.377.377-6.985 1.129-1.613.748-2.422 1.844-2.422 3.275a3.337 3.337 0 0 0 1.481 3.011c.985.644 2.785 1.164 5.4 1.558l7.899 1.239c4.69.749 8.129 2.064 10.317 3.947 2.185 1.883 3.279 4.472 3.28 7.767 0 3.727-1.585 6.619-4.756 8.676-3.17 2.058-7.693 3.088-13.57 3.088-4.265 0-7.803-.501-10.612-1.503-2.814-1.002-4.964-2.525-6.453-4.569-1.486-2.043-2.372-4.639-2.658-7.789h8.654c.358 2.51 1.414 4.347 3.17 5.51 1.756 1.162 4.389 1.743 7.9 1.745 3.149 0 5.527-.424 7.118-1.265 1.596-.838 2.394-2.087 2.394-3.733a3.607 3.607 0 0 0-1.586-3.116c-1.056-.754-2.735-1.294-5.025-1.613l-6.452-.914c-5.23-.715-9.054-2.014-11.472-3.897-2.416-1.878-3.626-4.52-3.628-7.927a8.925 8.925 0 0 1 2.153-5.962c1.431-1.685 3.517-2.984 6.259-3.898a31.187 31.187 0 0 1 9.809-1.37c5.23 0 9.278.87 12.144 2.609 2.863 1.734 4.744 4.465 5.642 8.191l-8.328.969zM310.986 144.852c0 4.046-.886 7.584-2.659 10.613a17.871 17.871 0 0 1-7.684 7.041c-3.347 1.662-7.333 2.493-11.957 2.493-4.443 0-8.32-.796-11.632-2.389a17.932 17.932 0 0 1-7.74-6.93c-1.844-3.028-2.768-6.637-2.769-10.828 0-4.052.888-7.59 2.665-10.613a17.873 17.873 0 0 1 7.684-7.042c3.348-1.667 7.334-2.5 11.957-2.498 4.437 0 8.314.798 11.632 2.394a17.958 17.958 0 0 1 7.74 6.931c1.844 3.028 2.765 6.637 2.763 10.828m-8.918 0c0-4.157-1.165-7.381-3.495-9.672-2.329-2.296-5.606-3.443-9.832-3.44-4.19 0-7.45 1.155-9.783 3.467-2.328 2.307-3.491 5.522-3.489 9.645 0 4.156 1.163 7.38 3.489 9.672 2.329 2.29 5.608 3.437 9.838 3.44 4.189 0 7.448-1.156 9.777-3.468 2.328-2.312 3.493-5.526 3.495-9.644M216.002 164.037l-8.384-14.351h-11.231v14.351h-8.274v-38.369h18.86c10.713 0 16.07 3.995 16.069 11.984 0 2.576-.6 4.725-1.8 6.447-1.2 1.722-3.037 3.065-5.511 4.029l9.673 15.909h-9.402zm-9.673-20.958c2.83 0 4.916-.44 6.259-1.32 1.344-.876 2.015-2.263 2.015-4.162s-.635-3.261-1.904-4.085c-1.272-.826-3.359-1.237-6.26-1.233h-10.052v10.8h9.942z"/></svg>