<svg xmlns="http://www.w3.org/2000/svg" fill="none" viewBox="0 0 719 165"><path fill="#53CBC8" d="M107.459 126.923c-.426-4.718-.886-10.177-1.381-16.378-.495-6.201-.99-12.69-1.486-19.466-.497-6.775-.988-13.593-1.473-20.452a1388.31 1388.31 0 0 1-1.239-19.26 4835.895 4835.895 0 0 1-5.568 16.872c-1.877 5.651-3.66 11.015-5.349 16.091-1.688 5.076-3.248 9.671-4.68 13.787a3114.12 3114.12 0 0 1-3.48 9.959 98.23 98.23 0 0 1-2.858 4.856 31.527 31.527 0 0 1-2.982 4.033 14.908 14.908 0 0 1-3.15 2.757 6.177 6.177 0 0 1-3.362 1.029 7.129 7.129 0 0 1-3.887-.988 4.318 4.318 0 0 1-1.943-2.963 6.92 6.92 0 0 1-.114-.782 2.676 2.676 0 0 1 .053-.781 1196.41 1196.41 0 0 1-10.188-46.995L53.31 62.81c-.354-1.811-.675-3.594-.963-5.35a426.436 426.436 0 0 1-4.2 15.39 324.749 324.749 0 0 1-5.042 15.76 235.108 235.108 0 0 1-5.773 14.975 130.797 130.797 0 0 1-6.39 13.086 64.164 64.164 0 0 1-6.86 10.041 21.177 21.177 0 0 1-7.194 5.803 37.46 37.46 0 0 1-5.655 2.016 18.319 18.319 0 0 1-4.438.617 7.966 7.966 0 0 1-4.668-1.194 4.643 4.643 0 0 1-2.022-2.921 6.032 6.032 0 0 1 .903-4.28 8.542 8.542 0 0 1 4.214-3.457c2.348-.988 4.698-3.169 7.05-6.542a83.699 83.699 0 0 0 6.917-12.305c2.26-4.827 4.44-10.205 6.542-16.132a450.849 450.849 0 0 0 5.965-18.024 501.571 501.571 0 0 0 5.16-17.901 985.905 985.905 0 0 0 4.115-15.844 820.653 820.653 0 0 0 2.869-11.811l1.372-5.885a5.872 5.872 0 0 1 2.507-3.704 7.422 7.422 0 0 1 4.001-1.152 5.779 5.779 0 0 1 2.404.324c.769.277 1.47.714 2.054 1.281a12.074 12.074 0 0 1 2.28 5.72 400.66 400.66 0 0 1 3.026 9.756c.9 3.048 1.775 6.175 2.624 9.384a246.37 246.37 0 0 1 2.485 10.37c.808 3.703 1.685 7.97 2.629 12.799.676 3.457 1.353 7.27 2.031 11.44.678 4.17 1.521 8.833 2.53 13.991a7721.422 7721.422 0 0 1 11.421-31.646c3.323-9.136 6.274-16.79 8.852-22.964a100.495 100.495 0 0 1 6.836-13.991c1.981-3.155 3.744-4.732 5.29-4.733h.579c.164 0 .328-.013.49-.04.161-.028.325-.042.489-.042 1.326 0 2.537.823 3.633 2.47a17.656 17.656 0 0 1 2.416 6.42c.305 2.689.628 6.036.969 10.041.342 4.006.692 8.409 1.051 13.21.36 4.802.728 9.863 1.105 15.185.377 5.321.747 10.602 1.11 15.844.362 5.24.736 10.33 1.121 15.267.386 4.938.777 9.41 1.174 13.415.031.733.118 1.462.261 2.182l.442 2.269c.279 1.428.589 2.868.929 4.321a121.9 121.9 0 0 1 .928 4.321c.322 1.646.564 3.306.726 4.979a10.321 10.321 0 0 1-.483 4.527 6.298 6.298 0 0 1-2.878 3.29 12.759 12.759 0 0 1-6.383 1.272 5.277 5.277 0 0 1-3.894-1.688c-1.105-1.123-1.94-3.138-2.507-6.047zM557.505 98.033a40.19 40.19 0 0 1-1.601 5.186 56.505 56.505 0 0 1-2.619 5.884 42.172 42.172 0 0 1-3.36 5.515 22.216 22.216 0 0 1-3.76 4.115 5.977 5.977 0 0 1-3.76 1.605 7.745 7.745 0 0 1-4.001-.988 10.704 10.704 0 0 1-2.891-2.469 13.682 13.682 0 0 1-1.981-3.251 36.14 36.14 0 0 1-1.281-3.415 19.853 19.853 0 0 1-.872-8.024 18.207 18.207 0 0 1 2.202-7.201 14.708 14.708 0 0 1 4.832-5.186 12.367 12.367 0 0 1 6.92-1.975c1.098.03 2.188.182 3.251.454a18.16 18.16 0 0 1 3.783 1.361 15.507 15.507 0 0 1 3.339 2.182 6.277 6.277 0 0 1 1.975 2.836 7.116 7.116 0 0 1-.176 3.371zm-86.466 8.889c0-1.042.076-2.331.229-3.869a34.18 34.18 0 0 1 .844-4.814 42.754 42.754 0 0 1 1.594-5.062 16.666 16.666 0 0 1 2.62-4.569 12.792 12.792 0 0 1 3.99-3.251 11.654 11.654 0 0 1 5.497-1.234h.745c.259.004.518.031.772.081.752.135 1.46.446 2.066.908a3.785 3.785 0 0 1 1.413 1.975 5.309 5.309 0 0 1-.308 3.499 11.004 11.004 0 0 1-3.772 4.32c-.449.33-1.203.96-2.262 1.893a92.039 92.039 0 0 1-3.78 3.128 272.975 272.975 0 0 1-4.702 3.621 60.115 60.115 0 0 1-4.945 3.374h-.001zm-41.091-3.086a20.755 20.755 0 0 1-3.086 8.354 18.641 18.641 0 0 1-6.199 5.968 16.53 16.53 0 0 1-8.612 2.269 10.694 10.694 0 0 1-4.212-.741 9.041 9.041 0 0 1-2.876-1.892 9.652 9.652 0 0 1-1.829-2.511c-.434-.862-.8-1.756-1.092-2.675a18.635 18.635 0 0 1-.571-9.424 21.81 21.81 0 0 1 3.543-8.354 19.952 19.952 0 0 1 6.614-5.968 17.478 17.478 0 0 1 8.734-2.263 7.587 7.587 0 0 1 3.564.782 8.863 8.863 0 0 1 2.515 1.934 10.393 10.393 0 0 1 1.674 2.551c.402.856.748 1.736 1.038 2.635a20.614 20.614 0 0 1 .789 9.341l.006-.006zm-156.623 1.929a18.378 18.378 0 0 1-2.151 7.366 15.054 15.054 0 0 1-4.763 5.267 11.79 11.79 0 0 1-6.784 2.016 8.38 8.38 0 0 1-4.314-1.07 11.25 11.25 0 0 1-3.124-2.675 15.706 15.706 0 0 1-2.126-3.456 31.317 31.317 0 0 1-1.325-3.416 20.307 20.307 0 0 1-.927-8.19c.219-2.51.958-4.948 2.172-7.16a14.31 14.31 0 0 1 4.774-5.106 12.425 12.425 0 0 1 6.889-1.928 9.226 9.226 0 0 1 4.36.946 10.206 10.206 0 0 1 3.046 2.427c.831.98 1.511 2.075 2.018 3.252a34.734 34.734 0 0 1 1.285 3.416 21.2 21.2 0 0 1 .963 8.313l.007-.002zM718.7 105.6a7.12 7.12 0 0 0-2.294-3.456 5.012 5.012 0 0 0-3.109-1.318 3.186 3.186 0 0 0-1.249.248 1.796 1.796 0 0 0-.9.823c-.876 1.428-2.1 3.197-3.672 5.309a54.216 54.216 0 0 1-5.292 6.09 33.385 33.385 0 0 1-6.344 4.98 13.236 13.236 0 0 1-6.895 2.058 8.593 8.593 0 0 1-3.098-.494 3.308 3.308 0 0 1-1.845-2.304 8.446 8.446 0 0 1-.176-4.238c.296-1.51.747-2.985 1.346-4.403a39.07 39.07 0 0 1 1.962-4.033 70.047 70.047 0 0 0 1.665-3.128 30.918 30.918 0 0 0 2.777-8.148c.574-3.134.34-6.362-.679-9.383a14.809 14.809 0 0 0-6.949-8.765 17.61 17.61 0 0 0-5.044-1.928 25.592 25.592 0 0 0-5.404-.577 21.1 21.1 0 0 0-6.515.908 18.925 18.925 0 0 0-4.926 2.382 21.31 21.31 0 0 0-3.797 3.333 38.511 38.511 0 0 0-2.964 3.744 16.199 16.199 0 0 0-2.709-4.774 15.02 15.02 0 0 0-7.924-5.02 18.419 18.419 0 0 0-4.572-.576 21.58 21.58 0 0 0-7.958 1.317 20.55 20.55 0 0 0-5.704 3.333 27.864 27.864 0 0 0-4.207 4.403c-1.21 1.588-2.346 3.07-3.405 4.445.14-1.58-.024-3.172-.483-4.691a8.342 8.342 0 0 0-3.008-4.403 7.073 7.073 0 0 0-4.166-1.523 6.23 6.23 0 0 0-4.306 1.728 7.975 7.975 0 0 0-2.274 5.268c-.224 1.92-.529 4.239-.914 6.954a5324.78 5324.78 0 0 1-1.62 11.329c-2.37 3.507-4.668 6.63-6.895 9.37a78.842 78.842 0 0 1-3.027 3.416 35.815 35.815 0 0 1-3.155 3.004 18.262 18.262 0 0 1-3.027 2.099 5.738 5.738 0 0 1-2.696.782 4.165 4.165 0 0 1-3.323-1.606 11.88 11.88 0 0 1-2.115-4.073 22.68 22.68 0 0 1-.858-4.568 69.479 69.479 0 0 1-.312-5.72c-.032-2.031-.009-4.102.071-6.213a323.4 323.4 0 0 1 .275-6.091c.108-1.95.2-3.719.276-5.308.076-1.589.088-2.905.036-3.95-.032-.31-.1-.614-.202-.908a7.54 7.54 0 0 0-3.184-3.786 9.86 9.86 0 0 0-5.684-1.728 6.514 6.514 0 0 0-2.22.454 17.72 17.72 0 0 0-2.286 1.029c-.856.44-1.676.906-2.461 1.399a35.84 35.84 0 0 0-4.721-2.88c-1.7-.79-3.458-1.45-5.258-1.976a23.203 23.203 0 0 0-6.668-.907 27.066 27.066 0 0 0-12.002 2.427 24.49 24.49 0 0 0-8.197 6.338 28.236 28.236 0 0 0-4.96 8.849 43.913 43.913 0 0 0-2.233 10 51.247 51.247 0 0 0-.239 7.36 150.84 150.84 0 0 1-3.008 2.063 120.834 120.834 0 0 1-6.128 3.827 83.494 83.494 0 0 1-7.151 3.744 50.102 50.102 0 0 1-7.724 2.836 29.115 29.115 0 0 1-7.813 1.111 13.048 13.048 0 0 1-6.148-1.361 8.318 8.318 0 0 1-3.748-3.744 98.603 98.603 0 0 0 16.188-8.189 42.623 42.623 0 0 0 9.461-7.984 16.466 16.466 0 0 0 3.871-7.695c.429-2.417.272-4.9-.457-7.244a17.587 17.587 0 0 0-6.278-9.136 18.498 18.498 0 0 0-11.317-3.29 33.891 33.891 0 0 0-11.712 1.894 30.748 30.748 0 0 0-8.983 5.02 29.832 29.832 0 0 0-6.392 7.201 34.343 34.343 0 0 0-3.87 8.355 30.788 30.788 0 0 0-1.372 8.518 26.34 26.34 0 0 0 .373 5.031c-.123.037-.242.077-.367.113a26.375 26.375 0 0 1-7.274.987 10.355 10.355 0 0 1-2.137-.205 3.563 3.563 0 0 1-1.842-1.112 24.837 24.837 0 0 0 1.22-5.72c.225-2.105.333-4.22.323-6.337a52.669 52.669 0 0 0-.301-5.56 21.418 21.418 0 0 0-.54-3.289 19.154 19.154 0 0 0-3.379-6.378 23.628 23.628 0 0 0-10.788-7.532 17.565 17.565 0 0 0-5.534-.987 23.872 23.872 0 0 0-6.83.947 29.851 29.851 0 0 0-5.935 2.47 34.916 34.916 0 0 0-5.126 3.456 52.1 52.1 0 0 0-4.377 3.992 371.044 371.044 0 0 0 4.092-23.824 352.694 352.694 0 0 1 4.115-23.744c.333-1.172.565-2.37.694-3.58a8.603 8.603 0 0 0-.298-3.58 7.156 7.156 0 0 0-2.675-3.622 9.681 9.681 0 0 0-5.815-1.482 8.514 8.514 0 0 0-2.799.454 7.912 7.912 0 0 0-2.305 1.234 7.285 7.285 0 0 0-1.637 1.77 5.133 5.133 0 0 0-.8 2.058l-7.361 53.416a97.839 97.839 0 0 0-.472 3.498 91.843 91.843 0 0 0-.241 2.382c-.06.688-.115 1.346-.165 1.975-.05.63-.107 1.37-.17 2.223-.063.852-.153 1.88-.27 3.087a341.465 341.465 0 0 1-.478 4.526 48.518 48.518 0 0 0-.229 4.738 74.01 74.01 0 0 1-5.337 4.686 80.575 80.575 0 0 1-7.344 5.227 52.378 52.378 0 0 1-7.861 4.115 3.35 3.35 0 0 1-1.552.864 7.612 7.612 0 0 1-1.287.124 2.188 2.188 0 0 1-1.486-.494 2.502 2.502 0 0 1-.778-1.152 3.94 3.94 0 0 1 .114-3.045c.238-.988.604-2.236 1.097-3.744a3465.62 3465.62 0 0 0 1.623-4.979c.589-1.81 1.152-3.744 1.691-5.802a53.318 53.318 0 0 0 1.248-6.296c.293-2.127.407-4.275.343-6.42a22.869 22.869 0 0 0-1.034-6.173 11.939 11.939 0 0 0-5.188-7.12 15.608 15.608 0 0 0-8.001-2.099 26.322 26.322 0 0 0-7.859 1.235 39.765 39.765 0 0 0-7.455 3.17 31.505 31.505 0 0 0-6.125 4.361 16.134 16.134 0 0 0-3.732 4.734c.147-.87.174-1.757.083-2.635a12.408 12.408 0 0 0-.478-2.304 7.93 7.93 0 0 0-2.91-4.238 6.943 6.943 0 0 0-4.019-1.441 6.371 6.371 0 0 0-4.344 1.728 8.505 8.505 0 0 0-2.484 5.267c-.122.853-.273 1.791-.444 2.806a1.257 1.257 0 0 0-.673.486c-.457.824-1.039 1.825-1.745 3.004a68.841 68.841 0 0 1-2.427 3.744 60.759 60.759 0 0 1-2.981 3.951 31.385 31.385 0 0 1-3.36 3.54 18.994 18.994 0 0 1-3.543 2.551 7.342 7.342 0 0 1-3.544.989 7.554 7.554 0 0 1-2.453-.412 7.128 7.128 0 0 1-2.348-1.399 37.884 37.884 0 0 0-.099-6.625 28.972 28.972 0 0 0-1.115-5.639 20.515 20.515 0 0 0-4.562-8.025 26.258 26.258 0 0 0-6.744-5.226 28.603 28.603 0 0 0-7.554-2.798 34.046 34.046 0 0 0-7.014-.823c-4.295-.11-8.564.69-12.523 2.346a25.397 25.397 0 0 0-8.662 6.172 27.553 27.553 0 0 0-5.275 8.643 43.177 43.177 0 0 0-2.49 9.712 44.308 44.308 0 0 0-.275 9.505 36.392 36.392 0 0 0 1.413 7.902 22.497 22.497 0 0 0 4.501 8.231 28.013 28.013 0 0 0 6.409 5.473 26.178 26.178 0 0 0 6.79 3.003 22.4 22.4 0 0 0 5.673.908c3.752.047 7.49-.466 11.088-1.523a30.577 30.577 0 0 0 8.773-4.239 26.181 26.181 0 0 0 6.446-6.502 32.847 32.847 0 0 0 4.149-8.395 21.75 21.75 0 0 0 4.778 2.14c1.425.43 2.905.652 4.394.659a10.198 10.198 0 0 0 5.756-1.729 23.021 23.021 0 0 0 4.726-4.198c.029-.032.054-.066.083-.099-.318 2.042-.6 4.004-.836 5.86-.35 2.745-.583 5.16-.7 7.244a14.022 14.022 0 0 0 .264 4.526 9.19 9.19 0 0 0 3.062 4.445 7.897 7.897 0 0 0 5.13 1.815 4.781 4.781 0 0 0 4.124-1.769 12.246 12.246 0 0 0 1.956-4.444 52.934 52.934 0 0 0 1.045-5.763 37.281 37.281 0 0 1 1.196-5.803 463.17 463.17 0 0 1 3.251-9.136 58.558 58.558 0 0 1 4.578-9.671 29.098 29.098 0 0 1 6.484-7.696 13.787 13.787 0 0 1 9.083-3.127 3.484 3.484 0 0 1 2.388.864 4.586 4.586 0 0 1 1.363 2.1A7.871 7.871 0 0 1 349.6 94c-.25 1.482-.615 3.17-1.097 5.062a216.863 216.863 0 0 1-1.629 6.013 96.806 96.806 0 0 0-1.595 6.379 48.377 48.377 0 0 0-.929 6.256 17.3 17.3 0 0 0 .398 5.596c.082.44.168.837.253 1.193.084.357.187.728.307 1.111a14.517 14.517 0 0 0 4.172 6.79 10.58 10.58 0 0 0 7.191 2.428 16.61 16.61 0 0 0 3.169-.329c1.23-.25 2.441-.58 3.627-.987a60.929 60.929 0 0 0 9.748-3.91 58.254 58.254 0 0 0 7.358-4.526 72.807 72.807 0 0 0 6.392-5.227l.457-.415a32.223 32.223 0 0 0 2.62 5.436 23.105 23.105 0 0 0 4.926 5.761 22.633 22.633 0 0 0 6.87 3.91 26.085 26.085 0 0 0 8.992 1.44 30.907 30.907 0 0 0 15.882-3.909 29.685 29.685 0 0 0 11.073-12.311 15.28 15.28 0 0 0 4.621 2.304c1.662.496 3.389.746 5.125.741 2.654.011 5.3-.279 7.887-.865a45.054 45.054 0 0 0 4.383-1.253 35.007 35.007 0 0 0 6.258 7.139 30.757 30.757 0 0 0 8.157 5.105 23.826 23.826 0 0 0 9.425 1.893 42.036 42.036 0 0 0 11.288-1.522 61.61 61.61 0 0 0 10.274-3.828 68.784 68.784 0 0 0 8.846-5.062 96.855 96.855 0 0 0 5.382-3.906 20.13 20.13 0 0 0 3.371 5.512 26.092 26.092 0 0 0 5.92 5.105 24.448 24.448 0 0 0 6.324 2.836c1.716.518 3.494.808 5.286.864a15.69 15.69 0 0 0 7.722-1.928 25.79 25.79 0 0 0 6.324-4.942 36.162 36.162 0 0 0 4.943-6.667 66.675 66.675 0 0 0 3.599-7.119 13.084 13.084 0 0 0 .17 3.168c.195 1.157.472 2.298.827 3.416a25.584 25.584 0 0 0 2.287 5.144 21.486 21.486 0 0 0 3.444 4.486 17.282 17.282 0 0 0 4.458 3.21 11.795 11.795 0 0 0 5.363 1.235 14.646 14.646 0 0 0 6.401-1.523 33.216 33.216 0 0 0 6.188-3.909 48.889 48.889 0 0 0 5.701-5.31c.645-.702 1.268-1.402 1.878-2.101-.034.659-.059 1.294-.08 1.896a15.11 15.11 0 0 0 .379 4.609 9.401 9.401 0 0 0 3.166 4.527 8.236 8.236 0 0 0 5.323 1.892 4.443 4.443 0 0 0 3.974-1.851 13.21 13.21 0 0 0 1.829-4.568c.417-1.953.694-3.933.826-5.925.132-1.995.422-3.976.866-5.926a739.649 739.649 0 0 0 1.805-5.844 95.594 95.594 0 0 1 2.232-6.466 53.985 53.985 0 0 1 2.904-6.297 26.656 26.656 0 0 1 3.811-5.39 18.32 18.32 0 0 1 4.857-3.786 12.738 12.738 0 0 1 6.094-1.44 3.634 3.634 0 0 1 2.427.864 4.634 4.634 0 0 1 1.435 2.182c.254.783.345 1.609.268 2.428a12.601 12.601 0 0 1-.534 2.51 108.137 108.137 0 0 1-3.24 9.177 114.588 114.588 0 0 0-3.177 8.849 46.725 46.725 0 0 0-1.845 8.478 19.05 19.05 0 0 0 .761 8.066 5.737 5.737 0 0 0 1.327 1.975 9.68 9.68 0 0 0 2.067 1.564 11.27 11.27 0 0 0 2.438 1.029 8.275 8.275 0 0 0 2.274.37 4.452 4.452 0 0 0 2.234-.402 4.419 4.419 0 0 0 1.739-1.449 13.19 13.19 0 0 0 1.829-4.568c.415-1.953.692-3.933.827-5.925a38.12 38.12 0 0 1 .867-5.927 830.211 830.211 0 0 0 1.801-5.843 95.1 95.1 0 0 1 2.234-6.467 53.572 53.572 0 0 1 2.905-6.296 26.61 26.61 0 0 1 3.81-5.39 18.317 18.317 0 0 1 4.857-3.787 12.73 12.73 0 0 1 6.094-1.44 3.63 3.63 0 0 1 2.427.865 4.637 4.637 0 0 1 1.436 2.182c.253.783.344 1.609.267 2.428a12.533 12.533 0 0 1-.535 2.51 37.044 37.044 0 0 1-2.503 6.256 67.928 67.928 0 0 0-2.858 6.466 29.099 29.099 0 0 0-1.702 6.954 18.365 18.365 0 0 0 .864 7.737 15.776 15.776 0 0 0 6.654 9.136 20.2 20.2 0 0 0 10.811 2.882 22.293 22.293 0 0 0 8.916-1.815 36.064 36.064 0 0 0 8.012-4.815 55.4 55.4 0 0 0 7.27-6.913 114.194 114.194 0 0 0 6.576-8.189 7.77 7.77 0 0 0 2.172-3.869 7.368 7.368 0 0 0-.145-3.621M186.253 71.96a29.657 29.657 0 0 0-20.885 8.596 29.208 29.208 0 0 0-8.645 20.733v.108c.021.368.183.715.454.968.27.253.628.394 1 .393h56.157a1.46 1.46 0 0 0 1-.393c.27-.253.433-.6.454-.968v-.047-.061a29.142 29.142 0 0 0-2.246-11.22 29.305 29.305 0 0 0-6.402-9.515 29.55 29.55 0 0 0-9.582-6.358 29.742 29.742 0 0 0-11.305-2.235z"/><path fill="#E1147B" d="M137.163 134.035a1.795 1.795 0 0 1-1.11 1.648 1.812 1.812 0 0 1-1.96-.387 1.777 1.777 0 0 1 .273-2.745 1.805 1.805 0 0 1 2.27.222c.337.334.527.788.527 1.262zM212.378 124.16h-60.257a1.771 1.771 0 0 0-1.52.859 1.739 1.739 0 0 0-.037 1.735l.03.055a1.773 1.773 0 0 0 1.558.92h60.195a1.774 1.774 0 0 0 1.558-.92l.03-.055a1.75 1.75 0 0 0-.684-2.363 1.78 1.78 0 0 0-.873-.231zM220.384 107.98h-68.266a1.795 1.795 0 0 0-1.287.553c-.165.174-.293.38-.376.604a1.772 1.772 0 0 0-.105.703v.055c.026.448.223.869.552 1.177.329.308.764.479 1.216.478h68.259c.452 0 .887-.171 1.216-.478.328-.308.526-.729.552-1.177v-.055a1.754 1.754 0 0 0-1.062-1.713 1.806 1.806 0 0 0-.699-.147zM194.68 148.431h-30.764a1.764 1.764 0 0 0-1.721 1.356c-.091.385-.048.789.121 1.148.169.358.455.649.811.827l.114.055c.245.121.515.183.789.183h30.54c.274 0 .544-.062.789-.183l.115-.055c.357-.178.643-.469.812-.828.169-.359.211-.764.119-1.149a1.758 1.758 0 0 0-.625-.975 1.778 1.778 0 0 0-1.1-.379zM213.483 140.341h-30.77a1.764 1.764 0 0 0-1.721 1.356 1.763 1.763 0 0 0 .932 1.975l.114.055c.246.121.516.184.79.183h30.541c.274.001.544-.062.79-.183l.114-.055c.356-.178.642-.469.811-.827a1.745 1.745 0 0 0-.503-2.123 1.78 1.78 0 0 0-1.098-.381zM171.526 135.258l-.052-.055a1.747 1.747 0 0 1-.322-1.896 1.761 1.761 0 0 1 1.62-1.054h49.932a1.775 1.775 0 0 1 1.62 1.054 1.743 1.743 0 0 1-.321 1.896l-.053.055a1.792 1.792 0 0 1-1.297.562h-49.828a1.798 1.798 0 0 1-1.299-.562zM141.789 132.25h23.844a1.78 1.78 0 0 1 1.097.381 1.748 1.748 0 0 1 .503 2.123c-.169.358-.455.65-.812.827l-.114.055a1.767 1.767 0 0 1-.789.183h-23.616a1.775 1.775 0 0 1-.79-.183l-.114-.055a1.77 1.77 0 0 1-.812-.827 1.755 1.755 0 0 1 .505-2.124 1.78 1.78 0 0 1 1.098-.38zM147.496 109.768c0 .353-.106.697-.303.99a1.797 1.797 0 0 1-1.845.758 1.803 1.803 0 0 1-.919-.488 1.774 1.774 0 0 1 .271-2.744 1.806 1.806 0 0 1 2.27.222c.337.335.526.789.526 1.262zM189.866 118.332l.015-.055a1.754 1.754 0 0 0-.93-2.032 1.795 1.795 0 0 0-.785-.18h-49.934a1.787 1.787 0 0 0-1.408.686 1.737 1.737 0 0 0-.307 1.526c0 .018.011.037.015.055.102.374.325.705.635.94s.69.363 1.08.362h49.909a1.764 1.764 0 0 0 1.714-1.302M133.609 117.855c0 .352-.105.697-.303.99a1.797 1.797 0 0 1-1.845.758 1.798 1.798 0 0 1-1.411-1.402 1.772 1.772 0 0 1 .764-1.83 1.809 1.809 0 0 1 2.269.222c.337.335.526.789.526 1.262zM147.496 125.945a1.776 1.776 0 0 1-1.11 1.646 1.803 1.803 0 0 1-1.957-.386 1.774 1.774 0 0 1 .271-2.744 1.808 1.808 0 0 1 2.27.222c.337.335.526.788.526 1.262zM178.088 142.125c0 .353-.105.698-.303.992a1.792 1.792 0 0 1-.807.657 1.8 1.8 0 0 1-1.959-.387 1.769 1.769 0 0 1-.39-1.945 1.803 1.803 0 0 1 1.661-1.101c.477 0 .934.188 1.272.522.337.335.526.789.526 1.262zM159.293 150.211a1.777 1.777 0 0 1-1.11 1.647 1.807 1.807 0 0 1-1.958-.387 1.78 1.78 0 0 1-.389-1.944c.136-.325.366-.604.662-.8a1.805 1.805 0 0 1 2.269.223c.337.334.526.788.526 1.261z"/></svg>