<svg xmlns="http://www.w3.org/2000/svg" fill="none" viewBox="0 0 658 165"><g clip-path="url(#clip0_1101_622)"><path fill="#fff" d="M455.101 165.204c0-.115 2.321-6.595 5.147-14.43l5.147-14.245-5.698-.069-5.698-.046-.575-1.677c-.597-1.747-26.331-75.892-26.515-76.375-.092-.23 2.045-.299 10.225-.299h10.362l.437 1.218c.229.644 5.284 15.326 11.189 32.627 5.928 17.279 10.845 31.409 10.914 31.409.069 0 5.4-14.659 11.856-32.58l11.718-32.559 10.179-.069c9.627-.046 10.179-.023 10.087.345-.069.23-8.731 24.103-19.255 53.03-10.523 28.951-19.231 52.892-19.346 53.26l-.23.62h-9.972c-5.491 0-9.972-.068-9.972-.16zM369.397 137.769c-6.733-.597-13.901-3.216-19.301-7.053-2.734-1.93-7.054-6.204-8.892-8.777-5.813-8.203-8.524-18.014-7.697-28.009 1.815-21.759 18.427-37.452 39.704-37.475 10.638 0 19.875 3.263 26.239 9.26l1.195 1.148v-8.8h18.381v78.351h-18.381v-8.525l-1.677 1.471c-5.882 5.124-12.661 7.697-22.219 8.432-3.446.253-4.205.253-7.352-.023zm12.867-17.232c11.028-2.849 17.921-11.787 17.921-23.298 0-6.755-2.137-12.27-6.525-16.842-9.421-9.811-25.688-9.673-35.016.275-4.297 4.596-6.48 10.225-6.48 16.659.023 11.764 8.065 21.345 19.852 23.597 2.435.459 7.743.275 10.248-.391zM214.994 82.648V28.883H233.605l.046 41.84.069 41.841 18.818-27.25 18.818-27.25H292.242l-.345.528c-.184.275-6.25 8.938-13.464 19.208-8.479 12.086-13.051 18.795-12.936 18.956.115.138 6.755 8.984 14.751 19.668 7.996 10.684 14.636 19.553 14.774 19.714.161.207-1.953.276-10.432.276l-10.661-.023-9.374-12.73-9.375-12.752-5.928 8.433a4629.214 4629.214 0 0 1-8.915 12.706l-2.987 4.251-11.166.069-11.19.046V82.648zM303.455 82.648V28.883h18.381v107.531h-18.381V82.648zM534.83 105.854V75.296h-8.387c-4.618 0-8.386-.07-8.386-.161.023-.115 1.447-3.952 3.17-8.57l3.171-8.387 5.216-.07 5.216-.045V39.682h18.151v18.381H571.592v17.233H552.981V136.413H534.83v-30.559zM581.242 97.238V58.063h17.692v10.225l.827-1.241c4.711-6.985 15.877-11.236 27.343-10.386 18.22 1.356 28.927 11.35 30.398 28.4.161 1.7.252 12.062.252 27.066v24.286h-18.817l-.092-23.712c-.069-23.229-.069-23.78-.552-25.802-1.103-4.665-2.32-7.008-4.986-9.65-2.183-2.16-4.158-3.263-7.375-4.067-1.769-.437-2.62-.529-5.974-.506-4.595.023-6.342.39-9.65 2.022-5.469 2.711-8.961 7.674-10.386 14.797-.321 1.516-.39 5.009-.459 24.355l-.092 22.563h-18.129V97.238z"/><path fill="#FF2F00" d="M78.513 165.227c-17.922-1.218-33.638-7.1-46.827-17.509l-1.907-1.516 26.492-26.492 26.492-26.492 26.355 26.354c14.521 14.521 26.377 26.446 26.377 26.538 0 .322-3.722 3.148-7.008 5.331-10.983 7.329-23.643 11.924-36.648 13.349-3.285.345-10.868.597-13.326.437zM119.757 109.071L93.334 82.648l26.469-26.469c23.069-23.069 26.515-26.423 26.768-26.102 4.136 5.193 7.169 9.835 9.811 15.096 4.641 9.19 7.215 17.807 8.57 28.744.391 3.194.391 14.269 0 17.462-1.746 14.062-6.089 26.056-13.441 37.108-1.471 2.205-4.572 6.341-5.055 6.755-.23.183-6.778-6.25-26.699-26.171zM16.683 132.439C6.596 118.836 1.197 104.085.14 87.129c-.138-2.275-.184-5.377-.092-6.916l.16-2.78 32.26-32.26 32.26-32.259-2.276 5.974c-1.24 3.286-11.58 30.628-23 60.773-11.396 30.146-20.793 54.868-20.885 54.96-.069.092-.92-.896-1.884-2.182zM43.703 110.795C44.485 108.612 85.636.093 85.705.025c.138-.139 5.813.344 8.547.734 9.329 1.333 17.462 3.906 25.872 8.157 5.192 2.62 10.454 6.043 15.072 9.788l.529.414-46.091 46.068c-25.367 25.343-46.023 45.861-45.93 45.609z"/></g><defs><clipPath id="clip0_1101_622"><path fill="#fff" d="M0 0h657.755v165H0z"/></clipPath></defs></svg>