<svg xmlns="http://www.w3.org/2000/svg" fill="none" viewBox="0 0 517 165"><g clip-path="url(#clip0_1101_580)"><path fill="url(#paint0_linear_1101_580)" d="M164.802 76.909a82.484 82.484 0 0 0-144.3-48.826c-.085.128-.184.255-.269.396A82.232 82.232 0 0 0 .198 88.105c.141 2.146.395 4.236.706 6.382v.283c.197 1.412.437 2.824.72 4.123.254 1.228.522 2.456.833 3.671a82.485 82.485 0 0 0 162.345-25.655zm-17.96 1.214a64.072 64.072 0 0 1-.974 16.35.206.206 0 0 1 0-.099c-5.986-14.613-17.819-25.175-28.239-31.062 2.104-24.71-6.297-35.073-15.813-36.838a6.88 6.88 0 0 0-.777-.127 13.78 13.78 0 0 0-3.502 27.307c.647.074 1.298.107 1.949.099 0 .833.07 1.722.084 2.654a73.504 73.504 0 0 0-24.51-1.906c-2.82.184-5.625.538-8.402 1.059.932-8.359 4.067-17.762 10.166-24.624a28.238 28.238 0 0 1 24.187-9.475c1.865.202 3.702.609 5.478 1.215l.24.07a64.569 64.569 0 0 1 40.113 55.377zM89.348 90.73a59.298 59.298 0 0 1-7.06 8.36 61.705 61.705 0 0 1-9.883-13.993c-.127-.269-.269-.508-.396-.777a59.573 59.573 0 0 1-3.699-10.293 61.347 61.347 0 0 1 17.099-1.624h.875c3.634.311 7.231.959 10.745 1.935a61.491 61.491 0 0 1-7.144 15.616c-.226.282-.368.522-.537.776zM61.109 21.645c-9.672 12.482-12.89 27.999-12.707 39.93-22.535 10.618-27.378 23.142-24.088 32.192.084.254.17.494.282.749a13.78 13.78 0 0 0 25.415-10.633 13.62 13.62 0 0 0-.903-1.75c.72-.452 1.482-.932 2.287-1.412a74.131 74.131 0 0 0 10.561 22.224 68.544 68.544 0 0 0 5.111 6.721c-7.765 3.388-17.409 5.379-26.403 3.53a28.244 28.244 0 0 1-20.304-16.21 25.669 25.669 0 0 1-1.694-5.35c-.212-1.568-.41-3.15-.508-4.76A64.597 64.597 0 0 1 61.15 21.646h-.042zm25.768 125.197a64.354 64.354 0 0 1-46.354-15.418c15.644 2.118 30.696-2.824 40.946-8.924 20.403 14.219 33.661 12.157 39.958 4.759.17-.198.339-.396.495-.608a13.81 13.81 0 1 0-21.998-16.703 13.41 13.41 0 0 0-1.088 1.596 83.2 83.2 0 0 1-2.343-1.257 73.692 73.692 0 0 0 13.935-20.276 71.685 71.685 0 0 0 3.29-7.808c6.778 4.999 13.343 12.411 16.252 21.18a28.247 28.247 0 0 1-3.855 25.669 25.04 25.04 0 0 1-3.784 4.137 64.103 64.103 0 0 1-35.454 13.653z"/><path style="mix-blend-mode:overlay" fill="url(#paint1_radial_1101_580)" d="M101.815 26.474a6.88 6.88 0 0 0-.777-.127 13.902 13.902 0 0 0-3.911 0c7.893 4.236 13.639 16.266 10.618 39.86a70.734 70.734 0 0 1-6.679 22.082 73.777 73.777 0 0 1-11.394 17.607 64.842 64.842 0 0 0 6.848 4.504 73.722 73.722 0 0 0 13.936-20.275 70.295 70.295 0 0 0 6.735-22.154c3.558-28.097-5.295-39.732-15.376-41.497z" opacity=".9"/><path fill="#fff" d="M107.745 66.263c3.022-23.594-2.725-35.567-10.618-39.86l-.917.184c7.723 4.448 13.286 16.393 10.307 39.676a70.375 70.375 0 0 1-6.693 22.082 73.886 73.886 0 0 1-10.9 16.944c.24.197.494.381.748.565a73.83 73.83 0 0 0 11.395-17.48 70.732 70.732 0 0 0 6.678-22.111z" opacity=".8"/><path style="mix-blend-mode:overlay" fill="url(#paint2_radial_1101_580)" d="M77.741 119.789c-.734-.579-1.412-1.158-2.16-1.751-11.649 4.857-27.801 7.907-43.77 4.236a65.208 65.208 0 0 0 8.768 9.206c15.644 2.118 30.695-2.824 40.946-8.924-1.27-.917-2.457-1.807-3.784-2.767z" opacity=".5"/><path style="mix-blend-mode:overlay" fill="url(#paint3_linear_1101_580)" d="M75.581 118.039l-1.073-.848c-11.733 4.688-27.956 7.484-43.94 3.502.382.522.777 1.059 1.186 1.567 16.026 3.685 32.179.579 43.827-4.221z" opacity=".6"/><path style="mix-blend-mode:overlay" fill="url(#paint4_radial_1101_580)" d="M24.313 93.782c.085.254.184.494.282.748a14.122 14.122 0 0 0 2.02 3.36c-.226-8.937 7.271-19.95 29.198-29.128a70.073 70.073 0 0 1 22.465-5.224 73.675 73.675 0 0 1 20.84 1.115 63.53 63.53 0 0 0 .466-8.175 73.59 73.59 0 0 0-24.526-1.934 70.073 70.073 0 0 0-22.464 5.252c-26.135 10.9-31.768 24.356-28.281 33.986z" opacity=".9"/><path fill="#fff" d="M55.813 68.761C33.886 77.94 26.388 88.953 26.614 97.89c.198.24.396.466.607.692 0-8.91 7.554-19.697 29.214-28.761a70.455 70.455 0 0 1 22.45-5.253 73.58 73.58 0 0 1 20.12 1.002c0-.324 0-.635.113-.945a73.677 73.677 0 0 0-20.84-1.088 70.077 70.077 0 0 0-22.465 5.224z" opacity=".8"/><path style="mix-blend-mode:overlay" fill="url(#paint5_radial_1101_580)" d="M117.191 67.971c-.113.932-.268 1.85-.423 2.824 10.024 7.667 20.741 20.12 25.528 35.864a64.387 64.387 0 0 0 3.586-12.2c-6.015-14.684-17.833-25.273-28.225-31.063-.127 1.554-.296 2.966-.466 4.575z" opacity=".4"/><path style="mix-blend-mode:overlay" fill="url(#paint6_linear_1101_580)" d="M116.74 70.725c-.085.466-.155.917-.24 1.412 9.884 7.822 20.459 20.473 25.006 36.315a98.99 98.99 0 0 0 .762-1.822c-4.786-15.785-15.503-28.239-25.528-35.905z" opacity=".5"/><path style="mix-blend-mode:overlay" fill="url(#paint7_radial_1101_580)" d="M121.427 127.244l.508-.607a13.413 13.413 0 0 0 1.892-3.431c-7.652 4.688-20.896 3.686-39.817-10.73a70.409 70.409 0 0 1-15.856-16.817 73.943 73.943 0 0 1-9.446-18.61 64.036 64.036 0 0 0-7.313 3.672 73.973 73.973 0 0 0 10.575 22.224 70.39 70.39 0 0 0 15.786 16.816c22.492 17.198 37.007 15.32 43.671 7.483z" opacity=".9"/><path fill="#fff" d="M83.94 112.475c18.921 14.416 32.165 15.419 39.817 10.731.113-.296.212-.579.297-.875-7.709 4.462-20.84 3.332-39.506-10.915A70.388 70.388 0 0 1 68.776 94.6a73.29 73.29 0 0 1-9.192-17.917l-.875.367a73.943 73.943 0 0 0 9.446 18.61 70.393 70.393 0 0 0 15.785 16.815z" opacity=".8"/><path style="mix-blend-mode:overlay" fill="url(#paint8_radial_1101_580)" d="M52.581 59.74c.861-.354 1.737-.679 2.598-1.003 1.624-12.524 7.06-28.028 18.355-40.043a63.539 63.539 0 0 0-12.354 2.993c-9.672 12.482-12.891 28-12.708 39.916 1.243-.621 2.64-1.243 4.109-1.864z" opacity=".3"/><path style="mix-blend-mode:overlay" fill="url(#paint9_linear_1101_580)" d="M55.18 58.737l1.313-.48C58.3 45.747 63.976 30.3 75.427 18.44c-.65.066-1.299.15-1.949.254C62.24 30.71 56.803 46.213 55.18 58.737z" opacity=".4"/><path style="mix-blend-mode:multiply" fill="url(#paint10_linear_1101_580)" d="M76.91.197a82.274 82.274 0 0 0-56.408 27.886l-.31.367c2.696 2.669 11.52 7.964 15.107 10.166a64.554 64.554 0 0 1 25.853-16.943 47.64 47.64 0 0 1 2.203-2.654C72.673 8.47 85.395 2.922 100.15 2.922c1.652 0 4.998.255 5.069.269A81.895 81.895 0 0 0 76.909.197z" opacity=".4"/><path style="mix-blend-mode:multiply" fill="url(#paint11_linear_1101_580)" d="M86.877 146.842a64.354 64.354 0 0 1-46.354-15.418 61.654 61.654 0 0 1-3.459-.593c-13.767-2.824-24.95-11.056-32.334-23.834a48.38 48.38 0 0 1-2.216-4.349 82.5 82.5 0 0 0 85.592 62.126c.17-4.137-1.06-13.795-1.229-17.932z" opacity=".4"/><path style="mix-blend-mode:multiply" fill="url(#paint12_linear_1101_580)" d="M164.802 76.908a145.7 145.7 0 0 0-17.946 1.215 64.072 64.072 0 0 1-.974 16.35 57.247 57.247 0 0 1 1.2 3.205c4.448 13.329 2.824 27.123-4.49 39.916a47.574 47.574 0 0 1-2.598 4.01 82.282 82.282 0 0 0 24.808-64.696z" opacity=".4"/><path style="mix-blend-mode:multiply" fill="url(#paint13_linear_1101_580)" d="M101.01 21.461c1.866.202 3.703.609 5.479 1.215l.24.07a64.882 64.882 0 0 1 19.245 12.171 46.925 46.925 0 0 1 7.921-6.495 43.194 43.194 0 0 0-20.191-10.702c-8.514-1.751-27.787-3.46-39.944 17.225l.127-.113a32.738 32.738 0 0 1 2.937-3.896 28.238 28.238 0 0 1 24.186-9.475z" opacity=".5"/><path style="mix-blend-mode:multiply" fill="url(#paint14_linear_1101_580)" d="M126.115 129.052a25.69 25.69 0 0 1-3.798 4.137l-.184.169a65.038 65.038 0 0 1-20.162 10.66 47.38 47.38 0 0 1 1.666 10.11 43.206 43.206 0 0 0 19.358-12.143c5.817-6.509 16.943-22.337 5.111-43.22v.17a32.168 32.168 0 0 1 1.906 4.49 28.237 28.237 0 0 1-3.897 25.627z" opacity=".5"/><path style="mix-blend-mode:multiply" fill="url(#paint15_linear_1101_580)" d="M20.389 97.014a25.941 25.941 0 0 1-1.695-5.35v-.255a65.105 65.105 0 0 1 .918-22.746 47.648 47.648 0 0 1-9.63-3.714 43.205 43.205 0 0 0 .834 22.831c2.739 8.288 10.886 25.839 34.875 26.023h-.156a35.049 35.049 0 0 1-4.843-.593A28.243 28.243 0 0 1 20.39 97.015z" opacity=".5"/><path style="mix-blend-mode:multiply" fill="url(#paint16_linear_1101_580)" d="M97.538 53.654c.647.075 1.298.108 1.949.1a96.237 96.237 0 0 0-1.412-12.977c-1.045-4.39-2.598-7.314-4.236-8.951-1.229-1.186-5.083-2.655-8.077 6.41a13.78 13.78 0 0 0 11.776 15.418z" opacity=".6"/><path style="mix-blend-mode:multiply" fill="url(#paint17_linear_1101_580)" d="M50.026 83.897a13.564 13.564 0 0 0-.89-1.75 95.716 95.716 0 0 0-10.49 7.78c-3.29 3.106-5.041 5.901-5.649 8.203-.409 1.652.24 5.732 9.587 3.798a13.773 13.773 0 0 0 7.46-7.472 13.782 13.782 0 0 0-.018-10.559z" opacity=".5"/><path style="mix-blend-mode:multiply" fill="url(#paint18_linear_1101_580)" d="M99.937 109.92a14.88 14.88 0 0 0-1.101 1.623 96.97 96.97 0 0 0 11.973 5.196c4.335 1.285 7.639 1.412 9.884.749 1.708-.438 4.97-3.05-1.44-10.18a13.778 13.778 0 0 0-15.285-.949 13.78 13.78 0 0 0-4.03 3.561z" opacity=".6"/><path style="mix-blend-mode:multiply" fill="url(#paint19_linear_1101_580)" d="M96.973 74.38a61.491 61.491 0 0 1-7.144 15.617c-.17.24-.31.48-.48.734a59.298 59.298 0 0 1-7.06 8.359 65.435 65.435 0 0 0 6.17 5.789 64.818 64.818 0 0 0 8.077 5.436 73.719 73.719 0 0 0 13.936-20.276 71.866 71.866 0 0 0 3.289-7.808 44.13 44.13 0 0 0-8.556-4.998 64.946 64.946 0 0 0-8.232-2.852z" opacity=".3"/><path style="mix-blend-mode:multiply" fill="url(#paint20_linear_1101_580)" d="M40.523 131.423c15.644 2.118 30.696-2.823 40.946-8.923a151.174 151.174 0 0 1-3.727-2.711 69.654 69.654 0 0 1-10.66-10.11c-7.78 3.375-17.424 5.366-26.418 3.516A28.233 28.233 0 0 1 20.36 96.986a25.67 25.67 0 0 1-1.694-5.351 64.312 64.312 0 0 0 21.857 39.788z" opacity=".3"/><path style="mix-blend-mode:multiply" fill="url(#paint21_linear_1101_580)" d="M82.275 99.104a61.7 61.7 0 0 1-9.884-13.992c-.127-.269-.268-.509-.395-.777a59.579 59.579 0 0 1-3.7-10.293 66.787 66.787 0 0 0-8.09 2.443 63.716 63.716 0 0 0-8.726 4.236 74.136 74.136 0 0 0 10.562 22.224 68.532 68.532 0 0 0 5.111 6.72 42.83 42.83 0 0 0 8.528-4.899 64.786 64.786 0 0 0 6.594-5.662z" opacity=".3"/><path style="mix-blend-mode:multiply" fill="url(#paint22_linear_1101_580)" d="M61.11 21.702C51.437 34.183 48.217 49.7 48.401 61.632c1.412-.636 2.824-1.257 4.236-1.878a69.466 69.466 0 0 1 14.12-4.236c.931-8.359 4.066-17.763 10.165-24.625a28.24 28.24 0 0 1 24.088-9.431c1.865.2 3.703.608 5.478 1.214l.24.07a64.411 64.411 0 0 0-45.577-1.1l-.043.056z" opacity=".3"/><path style="mix-blend-mode:multiply" fill="url(#paint23_linear_1101_580)" d="M145.854 94.374c-5.986-14.613-17.819-25.175-28.239-31.062a134.485 134.485 0 0 1-.48 4.603 69.882 69.882 0 0 1-3.403 14.274c6.778 4.999 13.343 12.411 16.252 21.179a28.25 28.25 0 0 1 1.194 13.313 28.254 28.254 0 0 1-5.063 12.371 25.04 25.04 0 0 1-3.784 4.137 64.713 64.713 0 0 0 23.622-38.772.206.206 0 0 1 0-.1l-.099.057z" opacity=".3"/><path style="mix-blend-mode:multiply" fill="url(#paint24_linear_1101_580)" d="M66.602 65.486a66.173 66.173 0 0 0 1.623 8.471 61.348 61.348 0 0 1 17.099-1.624h.875c3.634.311 7.231.959 10.745 1.935.817-2.7 1.463-5.45 1.934-8.232a64.62 64.62 0 0 0 .692-9.559 73.508 73.508 0 0 0-24.511-1.976 70.429 70.429 0 0 0-8.401 1.059 43.317 43.317 0 0 0-.056 9.925z" opacity=".3"/><path fill="url(#paint25_linear_1101_580)" d="M413.7 61.278L403.082 90.83h.085l10.589-29.382-.056-.17z"/><path fill="url(#paint26_linear_1101_580)" d="M225.219 61.278L214.602 90.83h.042l10.618-29.439-.043-.113z"/><path fill="url(#paint27_linear_1101_580)" d="M227.874 68.663l7.963 22.168h-15.969l-4.024 11.182h24.059l6.834 18.949h15.249l-27.815-69.765-6.297 17.466z"/><path fill="url(#paint28_linear_1101_580)" d="M214.602 90.83l10.617-29.552.043.113 4.476-12.439h-11.719l-28.621 72.009h14.374l10.872-30.13h-.042z"/><path fill="url(#paint29_linear_1101_580)" d="M308.227 83.87a65.658 65.658 0 0 0-13.837-5.733 61.989 61.989 0 0 1-7.766-2.98 9.218 9.218 0 0 1-3.84-3.148 7.682 7.682 0 0 1-1.087-4.123 7.41 7.41 0 0 1 3.219-6.438 15.53 15.53 0 0 1 9.008-2.274c3.344.02 6.669.495 9.884 1.412a34.476 34.476 0 0 1 9.149 3.883l1.991-11.662a36.381 36.381 0 0 0-9.884-3.926 46.869 46.869 0 0 0-11.606-1.412 33.446 33.446 0 0 0-13.639 2.556 20.321 20.321 0 0 0-8.952 7.3 19.557 19.557 0 0 0-3.177 11.182c-.085 3.3.648 6.57 2.132 9.517a18.257 18.257 0 0 0 6.919 6.933 55.537 55.537 0 0 0 12.707 5.309 62.927 62.927 0 0 1 8.811 3.219 10.652 10.652 0 0 1 4.363 3.374 7.753 7.753 0 0 1 1.228 4.406 8.013 8.013 0 0 1-3.643 6.96 17.662 17.662 0 0 1-10.095 2.514 42.882 42.882 0 0 1-11.705-1.751 44.192 44.192 0 0 1-10.646-4.504l-1.327 12.03a27.426 27.426 0 0 0 6.636 3.134 57.528 57.528 0 0 0 8.584 2.076c3.019.505 6.075.76 9.136.762 8.528 0 15.225-1.944 20.092-5.831 4.866-3.888 7.299-9.272 7.299-16.153a18.494 18.494 0 0 0-2.372-9.53 20.826 20.826 0 0 0-7.582-7.103z"/><path fill="url(#paint30_linear_1101_580)" d="M383.838 48.952h-60.926V60.7h60.926V48.952z"/><path fill="url(#paint31_linear_1101_580)" d="M360.626 65.613h-14.501v55.349h14.501V65.613z"/><path fill="url(#paint32_linear_1101_580)" d="M403.082 90.83L413.7 61.279l.056.17 4.505-12.496h-11.776l-28.606 72.009h14.402l6.819-18.948h.029l4.038-11.183h-.085z"/><path fill="url(#paint33_linear_1101_580)" d="M416.369 68.72l7.935 22.11h-15.913l-4.024 11.183h24.017l6.82 18.949h15.263l-27.801-69.708-6.297 17.466z"/><path fill="url(#paint34_linear_1101_580)" d="M497.358 91.776a24.523 24.523 0 0 0 8.472-7.921 20.405 20.405 0 0 0 3.318-11.606 23.15 23.15 0 0 0-3.219-12.411 21.309 21.309 0 0 0-9.192-8.062 32.812 32.812 0 0 0-14.204-2.824h-5.041v10.9h3.135c9.601 0 14.402 4.104 14.402 12.312 0 8.208-4.956 12.317-14.868 12.326h-2.669v10.9h7.399l15.221 25.585h16.209l-18.963-29.199z"/><path fill="url(#paint35_linear_1101_580)" d="M472.635 48.952h-13.739v72.009h13.739V48.952z"/></g><defs><linearGradient id="paint0_linear_1101_580" x1="26.206" x2="131.396" y1="138.808" y2="33.604" gradientUnits="userSpaceOnUse"><stop stop-color="#E6007A"/><stop offset=".21" stop-color="#703AC2"/><stop offset=".46" stop-color="#0070EB"/><stop offset=".77" stop-color="#0297FB"/><stop offset="1" stop-color="#0AE2FF"/></linearGradient><radialGradient id="paint1_radial_1101_580" cx="0" cy="0" r="1" gradientTransform="translate(106.022 65.797) scale(31.3734)" gradientUnits="userSpaceOnUse"><stop stop-color="#fff"/><stop offset="1" stop-color="#fff" stop-opacity="0"/></radialGradient><radialGradient id="paint2_radial_1101_580" cx="0" cy="0" r="1" gradientTransform="translate(59.654 123.997) scale(18.2565)" gradientUnits="userSpaceOnUse"><stop stop-color="#fff"/><stop offset="1" stop-color="#fff" stop-opacity="0"/></radialGradient><linearGradient id="paint3_linear_1101_580" x1="32.263" x2="49.855" y1="120.905" y2="120.665" gradientUnits="userSpaceOnUse"><stop stop-color="#fff" stop-opacity="0"/><stop offset="1" stop-color="#fff"/></linearGradient><radialGradient id="paint4_radial_1101_580" cx="0" cy="0" r="1" gradientTransform="rotate(-120 48.49 18.993) scale(31.3734)" gradientUnits="userSpaceOnUse"><stop stop-color="#fff"/><stop offset="1" stop-color="#fff" stop-opacity="0"/></radialGradient><radialGradient id="paint5_radial_1101_580" cx="0" cy="0" r="1" gradientTransform="rotate(-120 88.475 3.278) scale(18.2565)" gradientUnits="userSpaceOnUse"><stop stop-color="#fff"/><stop offset="1" stop-color="#fff" stop-opacity="0"/></radialGradient><linearGradient id="paint6_linear_1101_580" x1="140.886" x2="131.882" y1="106.795" y2="91.679" gradientUnits="userSpaceOnUse"><stop stop-color="#fff" stop-opacity="0"/><stop offset="1" stop-color="#fff"/></linearGradient><radialGradient id="paint7_radial_1101_580" cx="0" cy="0" r="1" gradientTransform="rotate(120 10.174 79.049) scale(31.3734)" gradientUnits="userSpaceOnUse"><stop stop-color="#fff"/><stop offset="1" stop-color="#fff" stop-opacity="0"/></radialGradient><radialGradient id="paint8_radial_1101_580" cx="0" cy="0" r="1" gradientTransform="rotate(120 16.88 37.723) scale(18.2565)" gradientUnits="userSpaceOnUse"><stop stop-color="#fff"/><stop offset="1" stop-color="#fff" stop-opacity="0"/></radialGradient><linearGradient id="paint9_linear_1101_580" x1="74.351" x2="65.774" y1="19.784" y2="35.147" gradientUnits="userSpaceOnUse"><stop stop-color="#fff" stop-opacity="0"/><stop offset="1" stop-color="#fff"/></linearGradient><linearGradient id="paint10_linear_1101_580" x1="78.18" x2="51.297" y1="11.973" y2="19.795" gradientUnits="userSpaceOnUse"><stop stop-color="#231F20"/><stop offset="1" stop-color="#fff"/></linearGradient><linearGradient id="paint11_linear_1101_580" x1="27.392" x2="49.87" y1="114.481" y2="137.947" gradientUnits="userSpaceOnUse"><stop stop-color="#231F20"/><stop offset="1" stop-color="#fff"/></linearGradient><linearGradient id="paint12_linear_1101_580" x1="148.028" x2="155.85" y1="110.95" y2="87.173" gradientUnits="userSpaceOnUse"><stop stop-color="#231F20"/><stop offset="1" stop-color="#fff"/></linearGradient><linearGradient id="paint13_linear_1101_580" x1="90.421" x2="126.454" y1="25.584" y2="33.83" gradientUnits="userSpaceOnUse"><stop stop-color="#231F20"/><stop offset="1" stop-color="#fff"/></linearGradient><linearGradient id="paint14_linear_1101_580" x1="127.847" x2="102.67" y1="117.817" y2="144.905" gradientUnits="userSpaceOnUse"><stop stop-color="#231F20"/><stop offset="1" stop-color="#fff"/></linearGradient><linearGradient id="paint15_linear_1101_580" x1="29.244" x2="18.381" y1="104.124" y2="68.789" gradientUnits="userSpaceOnUse"><stop stop-color="#231F20"/><stop offset="1" stop-color="#fff"/></linearGradient><linearGradient id="paint16_linear_1101_580" x1="98.3" x2="86.906" y1="38.871" y2="50.28" gradientUnits="userSpaceOnUse"><stop stop-color="#231F20"/><stop offset="1" stop-color="#fff"/></linearGradient><linearGradient id="paint17_linear_1101_580" x1="36.824" x2="52.396" y1="90.622" y2="94.805" gradientUnits="userSpaceOnUse"><stop stop-color="#231F20"/><stop offset="1" stop-color="#fff"/></linearGradient><linearGradient id="paint18_linear_1101_580" x1="112.375" x2="108.204" y1="117.991" y2="102.426" gradientUnits="userSpaceOnUse"><stop stop-color="#231F20"/><stop offset="1" stop-color="#fff"/></linearGradient><linearGradient id="paint19_linear_1101_580" x1="88.671" x2="95.519" y1="104.145" y2="94.699" gradientUnits="userSpaceOnUse"><stop stop-color="#231F20"/><stop offset="1" stop-color="#fff"/></linearGradient><linearGradient id="paint20_linear_1101_580" x1="65.119" x2="51.437" y1="100.05" y2="106.573" gradientUnits="userSpaceOnUse"><stop stop-color="#231F20"/><stop offset="1" stop-color="#fff"/></linearGradient><linearGradient id="paint21_linear_1101_580" x1="60.15" x2="64.386" y1="77.275" y2="86.072" gradientUnits="userSpaceOnUse"><stop stop-color="#231F20"/><stop offset="1" stop-color="#fff"/></linearGradient><linearGradient id="paint22_linear_1101_580" x1="79.846" x2="76.923" y1="50.11" y2="40.015" gradientUnits="userSpaceOnUse"><stop stop-color="#231F20"/><stop offset="1" stop-color="#fff"/></linearGradient><linearGradient id="paint23_linear_1101_580" x1="111.445" x2="119.917" y1="96.351" y2="98.299" gradientUnits="userSpaceOnUse"><stop stop-color="#231F20"/><stop offset="1" stop-color="#fff"/></linearGradient><linearGradient id="paint24_linear_1101_580" x1="98.158" x2="87.413" y1="67.731" y2="65.782" gradientUnits="userSpaceOnUse"><stop stop-color="#231F20"/><stop offset="1" stop-color="#fff"/></linearGradient><linearGradient id="paint25_linear_1101_580" x1="181.858" x2="504.22" y1="127.908" y2="54.134" gradientUnits="userSpaceOnUse"><stop stop-color="#E6007A"/><stop offset=".21" stop-color="#703AC2"/><stop offset=".46" stop-color="#0070EB"/><stop offset=".77" stop-color="#0297FB"/><stop offset="1" stop-color="#0AE2FF"/></linearGradient><linearGradient id="paint26_linear_1101_580" x1="172.483" x2="494.83" y1="86.919" y2="13.145" gradientUnits="userSpaceOnUse"><stop stop-color="#E6007A"/><stop offset=".21" stop-color="#703AC2"/><stop offset=".46" stop-color="#0070EB"/><stop offset=".77" stop-color="#0297FB"/><stop offset="1" stop-color="#0AE2FF"/></linearGradient><linearGradient id="paint27_linear_1101_580" x1="176.055" x2="498.417" y1="102.564" y2="28.79" gradientUnits="userSpaceOnUse"><stop stop-color="#E6007A"/><stop offset=".21" stop-color="#703AC2"/><stop offset=".46" stop-color="#0070EB"/><stop offset=".77" stop-color="#0297FB"/><stop offset="1" stop-color="#0AE2FF"/></linearGradient><linearGradient id="paint28_linear_1101_580" x1="173.966" x2="496.327" y1="93.414" y2="19.64" gradientUnits="userSpaceOnUse"><stop stop-color="#E6007A"/><stop offset=".21" stop-color="#703AC2"/><stop offset=".46" stop-color="#0070EB"/><stop offset=".77" stop-color="#0297FB"/><stop offset="1" stop-color="#0AE2FF"/></linearGradient><linearGradient id="paint29_linear_1101_580" x1="178.018" x2="500.379" y1="111.148" y2="37.374" gradientUnits="userSpaceOnUse"><stop stop-color="#E6007A"/><stop offset=".21" stop-color="#703AC2"/><stop offset=".46" stop-color="#0070EB"/><stop offset=".77" stop-color="#0297FB"/><stop offset="1" stop-color="#0AE2FF"/></linearGradient><linearGradient id="paint30_linear_1101_580" x1="174.502" x2="496.864" y1="95.758" y2="21.984" gradientUnits="userSpaceOnUse"><stop stop-color="#E6007A"/><stop offset=".21" stop-color="#703AC2"/><stop offset=".46" stop-color="#0070EB"/><stop offset=".77" stop-color="#0297FB"/><stop offset="1" stop-color="#0AE2FF"/></linearGradient><linearGradient id="paint31_linear_1101_580" x1="182.876" x2="505.223" y1="132.314" y2="58.539" gradientUnits="userSpaceOnUse"><stop stop-color="#E6007A"/><stop offset=".21" stop-color="#703AC2"/><stop offset=".46" stop-color="#0070EB"/><stop offset=".77" stop-color="#0297FB"/><stop offset="1" stop-color="#0AE2FF"/></linearGradient><linearGradient id="paint32_linear_1101_580" x1="183.341" x2="505.702" y1="134.403" y2="60.629" gradientUnits="userSpaceOnUse"><stop stop-color="#E6007A"/><stop offset=".21" stop-color="#703AC2"/><stop offset=".46" stop-color="#0070EB"/><stop offset=".77" stop-color="#0297FB"/><stop offset="1" stop-color="#0AE2FF"/></linearGradient><linearGradient id="paint33_linear_1101_580" x1="185.445" x2="507.806" y1="143.581" y2="69.807" gradientUnits="userSpaceOnUse"><stop stop-color="#E6007A"/><stop offset=".21" stop-color="#703AC2"/><stop offset=".46" stop-color="#0070EB"/><stop offset=".77" stop-color="#0297FB"/><stop offset="1" stop-color="#0AE2FF"/></linearGradient><linearGradient id="paint34_linear_1101_580" x1="188.199" x2="510.532" y1="155.61" y2="81.85" gradientUnits="userSpaceOnUse"><stop stop-color="#E6007A"/><stop offset=".21" stop-color="#703AC2"/><stop offset=".46" stop-color="#0070EB"/><stop offset=".77" stop-color="#0297FB"/><stop offset="1" stop-color="#0AE2FF"/></linearGradient><linearGradient id="paint35_linear_1101_580" x1="186.646" x2="509.006" y1="148.833" y2="75.059" gradientUnits="userSpaceOnUse"><stop stop-color="#E6007A"/><stop offset=".21" stop-color="#703AC2"/><stop offset=".46" stop-color="#0070EB"/><stop offset=".77" stop-color="#0297FB"/><stop offset="1" stop-color="#0AE2FF"/></linearGradient><clipPath id="clip0_1101_580"><path fill="#fff" d="M0 0h516.32v165H0z"/></clipPath></defs></svg>