<svg xmlns="http://www.w3.org/2000/svg" fill="none" viewBox="0 0 730 192"><path fill="#fff" d="M455.148 98.702c-5.548-5.595-8.33-15.177-8.347-28.745-.017-13.568 2.744-23.17 8.284-28.803 5.533-5.635 15.987-8.462 31.36-8.481l49.297-.055-19.237-24.225-31.054.037c-24.799.026-42.834 5.002-54.106 14.931-5.107 4.52-9.031 10.273-11.822 17.142 3.095 8.393 4.653 18.22 4.675 29.48.023 11.26-1.516 21.087-4.616 29.483 2.808 6.853 6.715 12.589 11.881 17.092 11.299 9.858 29.349 14.788 54.147 14.788l28.708-.038 19.027-24.301-46.82.054c-15.368.023-25.827-2.764-31.377-8.359zM321.743 8.603l-21.822.025h-6.093c-5.769.064-10.766 2.783-14.99 8.157l-23.45 29.853-23.501-29.794c-4.308-5.422-9.32-8.13-15.036-8.124h-18.427c-3.144 0-4.714 1.316-4.708 3.949 0 1.312.601 2.71 1.804 4.196l40.765 51.548-43.131 55.178c-1.195 1.539-1.794 2.937-1.797 4.196.347 2.574 1.949 3.858 4.805 3.853h18.255c5.716 0 10.685-2.692 14.906-8.074l26.115-33.382 26.178 33.306c4.236 5.369 9.21 8.049 14.923 8.041l27.697-.03-49.725-63.1 47.232-59.798z"/><path fill="#fff" d="M402.174 116.591c5.145-4.515 9.052-10.26 11.843-17.12a59.671 59.671 0 0 0 2.778-8.54c1.498-6.232 2.266-13.202 2.258-20.94-.009-7.738-.789-14.712-2.309-20.944a59.842 59.842 0 0 0-2.794-8.54c-2.808-6.86-6.715-12.589-11.881-17.12-11.305-9.904-29.352-14.84-54.139-14.81h-19.606l-19.17 24.297 37.87-.042c15.37-.017 25.831 2.781 31.381 8.393 5.551 5.612 8.333 15.207 8.347 28.787 0 13.57-2.761 23.16-8.284 28.766-5.523 5.606-15.976 8.418-31.36 8.435l-35.411.037 19.086 24.234 17.294-.021c24.793-.016 42.825-4.974 54.097-14.872zm-96.331-16.974l-.067-62.307-24.491 31.178 24.558 31.129zm231.95 26.336v.638h-1.805v4.721h-.73v-4.721h-1.809v-.638h4.344zm.649 0h1.041l1.54 4.532 1.532-4.532h1.028v5.359h-.684V126.792l-1.528 4.52h-.721l-1.528-4.52v4.52h-.692l.012-5.359zm-320.771 23.312h-25.133a.644.644 0 0 0-.253.049.649.649 0 0 0-.41.609v34.948a.659.659 0 0 0 .663.659h3.941a.663.663 0 0 0 .663-.659v-14.57h18.263a.65.65 0 0 0 .612-.406.646.646 0 0 0 .051-.253v-3.592a.646.646 0 0 0-.195-.467.663.663 0 0 0-.468-.192h-18.263v-11.166h20.529a.662.662 0 0 0 .642-.638v-3.643a.668.668 0 0 0-.179-.473.664.664 0 0 0-.463-.206zm35.573 4.968a18.133 18.133 0 0 0-5.829-4.07 18.585 18.585 0 0 0-7.533-1.499 18.311 18.311 0 0 0-7.554 1.532 18.087 18.087 0 0 0-5.85 4.113 18.77 18.77 0 0 0-3.772 5.992 19.319 19.319 0 0 0-1.364 7.134 19.716 19.716 0 0 0 1.322 7.159 17.9 17.9 0 0 0 9.585 10.046 18.591 18.591 0 0 0 7.553 1.498c2.598.03 5.173-.492 7.554-1.532a17.966 17.966 0 0 0 5.85-4.121 18.835 18.835 0 0 0 3.777-5.971 19.277 19.277 0 0 0 1.347-7.159 19.733 19.733 0 0 0-1.318-7.155 18.217 18.217 0 0 0-3.768-5.967zm-13.463-.608a12.534 12.534 0 0 1 5.242 1.091 13.042 13.042 0 0 1 6.899 7.322 14.975 14.975 0 0 1 .999 5.397 14.737 14.737 0 0 1-.978 5.379 13.818 13.818 0 0 1-2.694 4.361 12.246 12.246 0 0 1-4.096 2.908 12.94 12.94 0 0 1-14.654-2.967 13.152 13.152 0 0 1-2.757-4.369 14.872 14.872 0 0 1-.978-5.4 14.69 14.69 0 0 1 .978-5.367 13.771 13.771 0 0 1 2.694-4.365 12.436 12.436 0 0 1 4.096-2.908 12.796 12.796 0 0 1 5.249-1.082zm53.137-4.36h-3.945a.644.644 0 0 0-.253.049.646.646 0 0 0-.41.609v20.319c0 3.63-.89 6.374-2.656 8.171-1.767 1.796-4.197 2.706-7.218 2.706-3.156 0-5.636-.957-7.378-2.845-1.741-1.888-2.644-4.675-2.644-8.284v-20.067a.662.662 0 0 0-.663-.658h-3.919a.653.653 0 0 0-.469.191.678.678 0 0 0-.144.214.671.671 0 0 0-.05.253v20.319a19.677 19.677 0 0 0 1.082 6.773 13.74 13.74 0 0 0 3.123 5.002 13.164 13.164 0 0 0 4.821 3.043c4 1.353 8.334 1.353 12.334 0a12.824 12.824 0 0 0 4.839-3.076 13.856 13.856 0 0 0 3.122-5.082 20.57 20.57 0 0 0 1.091-6.962v-20.017a.653.653 0 0 0-.195-.467.635.635 0 0 0-.215-.142.644.644 0 0 0-.253-.049zm38.897 0h-3.844a.644.644 0 0 0-.253.049.649.649 0 0 0-.41.609v26.093l-20.84-26.5a.657.657 0 0 0-.52-.251h-3.693a.653.653 0 0 0-.469.191.678.678 0 0 0-.144.214.671.671 0 0 0-.05.253v34.948a.664.664 0 0 0 .194.467c.062.061.135.11.215.143a.691.691 0 0 0 .254.049h3.844a.662.662 0 0 0 .659-.659v-26.744l21.402 27.151a.663.663 0 0 0 .52.252h3.135a.667.667 0 0 0 .613-.406.664.664 0 0 0 .05-.253v-34.948a.671.671 0 0 0-.05-.253.649.649 0 0 0-.36-.356.644.644 0 0 0-.253-.049zm35.88 5.161a18.537 18.537 0 0 0-6.11-3.819 21.624 21.624 0 0 0-7.751-1.355h-12.132a.663.663 0 0 0-.612.406.646.646 0 0 0-.051.253v34.947a.646.646 0 0 0 .195.467.663.663 0 0 0 .468.192h12.132a20.97 20.97 0 0 0 7.776-1.385 18.66 18.66 0 0 0 6.106-3.827 16.977 16.977 0 0 0 3.966-5.787 19.039 19.039 0 0 0 0-14.318 17.015 17.015 0 0 0-3.987-5.774zm-13.848 26.131h-7.541v-26.332h7.528a15.472 15.472 0 0 1 5.745 1.04 12.831 12.831 0 0 1 4.348 2.795 12.606 12.606 0 0 1 2.749 4.197c.654 1.647.986 3.405.977 5.178a13.67 13.67 0 0 1-.973 5.195 12.715 12.715 0 0 1-2.753 4.146 12.416 12.416 0 0 1-4.348 2.778 15.801 15.801 0 0 1-5.745 1.015l.013-.012zm41.226-31.544h-3.697a.663.663 0 0 0-.605.386l-15.925 35.199a.662.662 0 0 0 .05.633.65.65 0 0 0 .554.298h4.041a.66.66 0 0 0 .605-.39l3.974-8.846h18.162l3.92 8.842a.648.648 0 0 0 .604.394h4.243a.641.641 0 0 0 .554-.298.67.67 0 0 0 .05-.633l-15.926-35.208a.672.672 0 0 0-.604-.377zm5.036 22.467h-13.891l6.966-15.527 6.925 15.527zm38.206-22.215h-27.412a.644.644 0 0 0-.253.049.646.646 0 0 0-.41.609v3.664a.646.646 0 0 0 .195.467.653.653 0 0 0 .468.192h11.071v30.633a.664.664 0 0 0 .194.467.658.658 0 0 0 .469.192h3.94a.653.653 0 0 0 .469-.192.664.664 0 0 0 .194-.467v-30.633h11.075a.663.663 0 0 0 .467-.192.659.659 0 0 0 .192-.467v-3.643a.657.657 0 0 0-.659-.679zm11.728 0h-3.94a.653.653 0 0 0-.469.191.646.646 0 0 0-.195.467v34.948a.665.665 0 0 0 .41.61.691.691 0 0 0 .254.049h3.94a.667.667 0 0 0 .613-.406.664.664 0 0 0 .05-.253v-34.948a.671.671 0 0 0-.05-.253.649.649 0 0 0-.36-.356.644.644 0 0 0-.253-.049zm39.927 4.968a18.127 18.127 0 0 0-5.829-4.07 18.557 18.557 0 0 0-7.545-1.498 18.294 18.294 0 0 0-7.554 1.531 18.087 18.087 0 0 0-5.85 4.113 18.789 18.789 0 0 0-3.777 5.975 19.256 19.256 0 0 0-1.343 7.151 19.75 19.75 0 0 0 1.318 7.167 17.904 17.904 0 0 0 9.585 10.038 18.6 18.6 0 0 0 7.554 1.498c2.598.03 5.173-.492 7.553-1.532a17.988 17.988 0 0 0 5.876-4.12 18.905 18.905 0 0 0 3.776-5.972 19.25 19.25 0 0 0 1.327-7.167 19.733 19.733 0 0 0-1.318-7.155 18.23 18.23 0 0 0-3.773-5.959zm-13.458-.608a12.532 12.532 0 0 1 5.241 1.091 13.015 13.015 0 0 1 6.895 7.322c.657 1.723.99 3.553.982 5.397a14.746 14.746 0 0 1-.982 5.38 13.814 13.814 0 0 1-2.69 4.36 12.3 12.3 0 0 1-4.1 2.908 12.935 12.935 0 0 1-14.654-2.967 13.16 13.16 0 0 1-2.736-4.377 14.895 14.895 0 0 1-.978-5.401 14.71 14.71 0 0 1 .978-5.358 13.79 13.79 0 0 1 2.694-4.365 12.436 12.436 0 0 1 4.096-2.908 12.819 12.819 0 0 1 5.254-1.082zm55.766-4.361h-3.844a.653.653 0 0 0-.469.191.666.666 0 0 0-.194.468v26.093l-20.836-26.5a.652.652 0 0 0-.52-.252h-3.693a.653.653 0 0 0-.469.191.666.666 0 0 0-.194.468v34.947a.664.664 0 0 0 .194.467.658.658 0 0 0 .469.192h3.844a.661.661 0 0 0 .467-.192.64.64 0 0 0 .191-.467v-26.743l21.403 27.15a.663.663 0 0 0 .52.252h3.143a.671.671 0 0 0 .469-.192.664.664 0 0 0 .194-.467v-34.947a.66.66 0 0 0-.418-.614.664.664 0 0 0-.257-.045zm-289.899-12.593h26.845l-13.42-17.121-13.425 17.121z"/></svg>