<svg xmlns="http://www.w3.org/2000/svg" fill="none" viewBox="0 0 539 165"><path fill="#FF0420" d="M43.637 115.287c-7.455 0-13.563-1.758-18.324-5.274-4.698-3.578-7.047-8.663-7.047-15.254 0-1.38.156-3.076.47-5.084.814-4.52 1.973-9.95 3.476-16.29 4.26-17.263 15.255-25.895 32.983-25.895 4.824 0 9.146.816 12.967 2.448 3.822 1.57 6.828 3.955 9.021 7.157 2.192 3.139 3.289 6.905 3.289 11.299 0 1.319-.157 2.982-.47 4.99a213.927 213.927 0 0 1-3.383 16.291c-2.192 8.6-5.982 15.035-11.37 19.303-5.387 4.206-12.591 6.309-21.612 6.309zm1.315-13.56c3.508 0 6.484-1.035 8.928-3.107 2.505-2.071 4.29-5.242 5.355-9.51 1.441-5.9 2.537-11.049 3.29-15.443a21.62 21.62 0 0 0 .375-4.049c0-5.712-2.976-8.568-8.927-8.568-3.508 0-6.515 1.035-9.02 3.107-2.444 2.071-4.198 5.241-5.263 9.51-1.128 4.206-2.255 9.353-3.383 15.442a20.21 20.21 0 0 0-.375 3.955c0 5.776 3.006 8.663 9.02 8.663zM90.011 114.345c-.69 0-1.221-.22-1.597-.659-.313-.503-.407-1.068-.282-1.696l12.967-61.205c.125-.69.47-1.255 1.034-1.695.564-.439 1.159-.658 1.786-.658h24.995c6.953 0 12.528 1.443 16.726 4.33 4.26 2.889 6.39 7.063 6.39 12.524 0 1.57-.188 3.202-.564 4.897-1.566 7.219-4.73 12.554-9.491 16.007-4.698 3.453-11.151 5.18-19.357 5.18h-12.686l-4.322 20.62a2.7 2.7 0 0 1-1.034 1.696c-.564.439-1.159.659-1.786.659H90.011zm33.265-35.97c2.631 0 4.917-.722 6.859-2.166 2.005-1.444 3.32-3.515 3.947-6.214.188-1.068.282-2.01.282-2.825 0-1.82-.533-3.202-1.598-4.144-1.064-1.004-2.881-1.506-5.45-1.506H116.04l-3.571 16.855h10.807zM173.202 114.345c-.689 0-1.221-.22-1.597-.659-.376-.503-.501-1.068-.376-1.696l10.43-48.775h-16.726c-.689 0-1.222-.22-1.597-.66-.314-.501-.408-1.066-.282-1.694l2.161-10.076a2.692 2.692 0 0 1 1.033-1.695c.564-.439 1.16-.658 1.786-.658h50.554c.689 0 1.222.22 1.598.658.25.377.376.754.376 1.13 0 .19-.032.377-.094.565l-2.162 10.076a2.692 2.692 0 0 1-1.033 1.695c-.501.439-1.096.659-1.785.659h-16.633l-10.43 48.775a2.7 2.7 0 0 1-1.034 1.696c-.563.439-1.159.659-1.785.659h-12.404zM222.958 114.345c-.689 0-1.222-.22-1.597-.659-.377-.503-.502-1.068-.377-1.696l13.062-61.205c.126-.69.47-1.255 1.034-1.695.563-.439 1.158-.658 1.785-.658h12.686c.689 0 1.221.22 1.597.658.251.377.376.754.376 1.13 0 .19-.031.377-.094.565l-12.967 61.205a2.7 2.7 0 0 1-1.034 1.696c-.564.439-1.159.659-1.786.659h-12.685zM258.739 114.345c-.689 0-1.222-.22-1.598-.659-.375-.44-.501-1.005-.375-1.696l12.967-61.205c.125-.69.47-1.255 1.033-1.695a2.989 2.989 0 0 1 1.88-.658h10.148c1.504 0 2.475.69 2.914 2.07l10.242 29.662 22.834-29.661c.313-.502.752-.973 1.316-1.413.626-.439 1.377-.658 2.255-.658h10.243c.688 0 1.221.22 1.596.658.251.377.377.754.377 1.13 0 .19-.032.377-.094.565l-12.968 61.205a2.697 2.697 0 0 1-1.034 1.696c-.563.439-1.158.659-1.785.659h-11.37c-.689 0-1.222-.22-1.598-.659-.313-.503-.406-1.068-.281-1.696l7.329-34.745-14.377 19.115c-.626.69-1.221 1.224-1.785 1.6-.564.378-1.222.566-1.974.566h-4.886c-1.315 0-2.224-.722-2.725-2.166l-6.672-19.962-7.517 35.592a2.697 2.697 0 0 1-1.034 1.696c-.563.439-1.159.659-1.785.659h-11.276zM341.684 114.345c-.689 0-1.221-.22-1.597-.659-.376-.503-.501-1.068-.376-1.696l13.061-61.205a2.702 2.702 0 0 1 1.034-1.695c.563-.439 1.159-.658 1.785-.658h12.686c.69 0 1.223.22 1.598.658.251.377.375.754.375 1.13 0 .19-.031.377-.094.565l-12.967 61.205a2.685 2.685 0 0 1-1.035 1.696c-.563.439-1.159.659-1.785.659h-12.685zM400.671 115.287c-5.513 0-10.243-.754-14.189-2.26-3.886-1.506-6.83-3.516-8.833-6.026-1.944-2.511-2.915-5.305-2.915-8.381 0-.502.064-1.255.188-2.26a2.83 2.83 0 0 1 .753-1.412 2.242 2.242 0 0 1 1.505-.565h12.025c.754 0 1.317.126 1.692.376.439.252.877.69 1.316 1.319.439 1.632 1.44 2.981 3.008 4.049 1.628 1.067 3.853 1.6 6.67 1.6 3.57 0 6.454-.565 8.645-1.695 2.194-1.13 3.511-2.667 3.946-4.614.064-.25.094-.627.094-1.13 0-1.569-.968-2.793-2.911-3.672-1.943-.941-5.514-2.04-10.712-3.295-6.077-1.319-10.683-3.296-13.815-5.933-3.132-2.699-4.696-6.214-4.696-10.545 0-1.507.187-3.045.563-4.615 1.252-5.838 4.354-10.42 9.302-13.747 5.011-3.327 11.463-4.99 19.358-4.99 4.76 0 8.991.847 12.686 2.542 3.694 1.695 6.545 3.86 8.551 6.497 2.067 2.574 3.099 5.147 3.099 7.72 0 .754-.03 1.288-.094 1.602a2.527 2.527 0 0 1-.844 1.412c-.375.377-.847.565-1.41.565h-12.592c-1.376 0-2.318-.533-2.817-1.6-.064-1.444-.817-2.669-2.258-3.673-1.44-1.004-3.32-1.506-5.637-1.506-2.757 0-5.042.502-6.861 1.506-1.751 1.004-2.85 2.48-3.286 4.425a6.409 6.409 0 0 0-.097 1.225c0 1.507.878 2.762 2.633 3.766 1.816.942 4.981 1.915 9.49 2.92 7.018 1.38 12.123 3.358 15.318 5.931 3.256 2.574 4.884 5.995 4.884 10.264 0 1.444-.188 3.013-.563 4.708-1.376 6.403-4.73 11.268-10.056 14.595-5.259 3.264-12.306 4.897-21.14 4.897zM444.896 114.345c-.69 0-1.223-.22-1.598-.659-.375-.44-.503-1.005-.375-1.696l12.967-61.205a2.683 2.683 0 0 1 1.035-1.695 2.978 2.978 0 0 1 1.879-.658h10.149c1.502 0 2.475.69 2.914 2.07l10.24 29.662 22.833-29.661c.317-.502.756-.973 1.317-1.413.624-.439 1.375-.658 2.253-.658h10.245c.687 0 1.222.22 1.597.658.254.377.376.754.376 1.13 0 .19-.032.377-.096.565l-12.963 61.205a2.722 2.722 0 0 1-1.037 1.696c-.566.439-1.158.659-1.787.659h-11.367c-.692 0-1.221-.22-1.597-.659-.317-.503-.412-1.068-.285-1.696l7.33-34.745L484.55 96.36c-.624.69-1.221 1.224-1.787 1.6-.561.378-1.222.566-1.973.566h-4.887c-1.317 0-2.222-.722-2.724-2.166l-6.67-19.962-7.517 35.592a2.72 2.72 0 0 1-1.035 1.696c-.563.439-1.159.659-1.786.659h-11.275z"/></svg>