<svg width="169" height="136" viewBox="0 0 169 136" fill="none" xmlns="http://www.w3.org/2000/svg">
<path d="M60 2L12 2C6.47715 2 2 6.47714 2 12L2 64.85C2 70.3728 6.47716 74.85 12 74.85H37.5318C40.0999 74.85 42.1818 76.9319 42.1818 79.5C42.1818 89.7725 33.8543 98.1 23.5818 98.1H15.9956C13.1756 98.1 10.6726 99.9058 9.78317 102.582L4.40011 118.778C3.2189 122.333 5.8647 126 9.60992 126C42.9624 126 70 98.9624 70 65.6099V12C70 6.47715 65.5228 2 60 2Z" fill="#00FF00" stroke="#00FF00" stroke-width="2" stroke-linecap="round"/>
<path d="M72 9L24 9C18.4772 9 14 13.4771 14 19L14 71.85C14 77.3728 18.4772 81.85 24 81.85H49.5318C52.0999 81.85 54.1818 83.9319 54.1818 86.5C54.1818 96.7725 45.8543 105.1 35.5818 105.1H27.9956C25.1756 105.1 22.6726 106.906 21.7832 109.582L16.4001 125.778C15.2189 129.333 17.8647 133 21.6099 133C54.9624 133 82 105.962 82 72.6099V19C82 13.4772 77.5228 9 72 9Z" stroke="white" stroke-width="4" stroke-linecap="round"/>
<path d="M144 2L96 2C90.4772 2 86 6.47714 86 12V64.85C86 70.3728 90.4772 74.85 96 74.85H121.532C124.1 74.85 126.182 76.9319 126.182 79.5C126.182 89.7725 117.854 98.1 107.582 98.1H99.9956C97.1756 98.1 94.6726 99.9058 93.7832 102.582L88.4001 118.778C87.2189 122.333 89.8647 126 93.6099 126C126.962 126 154 98.9624 154 65.6099V12C154 6.47715 149.523 2 144 2Z" fill="#00FF00" stroke="#00FF00" stroke-width="2" stroke-linecap="round"/>
<path d="M155 9L107 9C101.477 9 97 13.4771 97 19V71.85C97 77.3728 101.477 81.85 107 81.85H132.532C135.1 81.85 137.182 83.9319 137.182 86.5C137.182 96.7725 128.854 105.1 118.582 105.1H110.996C108.176 105.1 105.673 106.906 104.783 109.582L99.4001 125.778C98.2189 129.333 100.865 133 104.61 133C137.962 133 165 105.962 165 72.6099V19C165 13.4772 160.523 9 155 9Z" stroke="white" stroke-width="4" stroke-linecap="round"/>
</svg>
