<svg width="174" height="138" viewBox="0 0 174 138" fill="none" xmlns="http://www.w3.org/2000/svg">
<path d="M12 126L60 126C65.5228 126 70 121.523 70 116L70 63.15C70 57.6272 65.5228 53.15 60 53.15H34.4682C31.9001 53.15 29.8182 51.0681 29.8182 48.5C29.8182 38.2275 38.1457 29.9 48.4182 29.9H56.0044C58.8244 29.9 61.3274 28.0942 62.2168 25.4182L67.5999 9.22151C68.7811 5.66745 66.1353 2 62.3901 2C29.0376 2 2 29.0376 2 62.3901L2 116C2 121.523 6.47716 126 12 126Z" fill="#00FF00" stroke="#00FF00" stroke-width="2" stroke-linecap="round"/>
<path d="M24 133H72C77.5228 133 82 128.523 82 123L82 70.15C82 64.6272 77.5228 60.15 72 60.15H46.4682C43.9001 60.15 41.8182 58.0681 41.8182 55.5C41.8182 45.2275 50.1457 36.9 60.4182 36.9H68.0044C70.8244 36.9 73.3274 35.0942 74.2168 32.4182L79.5999 16.2215C80.7811 12.6674 78.1353 9 74.3901 9C41.0376 9 14 36.0376 14 69.3901L14 123C14 128.523 18.4772 133 24 133Z" stroke="white" stroke-width="4" stroke-linecap="round"/>
<path d="M96 126L144 126C149.523 126 154 121.523 154 116V63.15C154 57.6272 149.523 53.15 144 53.15H118.468C115.9 53.15 113.818 51.0681 113.818 48.5C113.818 38.2275 122.146 29.9 132.418 29.9H140.004C142.824 29.9 145.327 28.0942 146.217 25.4182L151.6 9.22151C152.781 5.66745 150.135 2 146.39 2C113.038 2 86 29.0376 86 62.3901L86 116C86 121.523 90.4772 126 96 126Z" fill="#00FF00" stroke="#00FF00" stroke-width="2" stroke-linecap="round"/>
<path d="M107 133H155C160.523 133 165 128.523 165 123V70.15C165 64.6272 160.523 60.15 155 60.15H129.468C126.9 60.15 124.818 58.0681 124.818 55.5C124.818 45.2275 133.146 36.9 143.418 36.9H151.004C153.824 36.9 156.327 35.0942 157.217 32.4182L162.6 16.2215C163.781 12.6674 161.135 9 157.39 9C124.038 9 97 36.0376 97 69.3901L97 123C97 128.523 101.477 133 107 133Z" stroke="white" stroke-width="4" stroke-linecap="round"/>
</svg>
