<svg width="1000" height="476" viewBox="0 0 1000 476" fill="none" xmlns="http://www.w3.org/2000/svg">
<path d="M356.999 472.6C348.399 470 344.199 468 338.299 463.5L334.199 460.4L339.199 454.4C341.899 451.2 344.599 448.1 345.099 447.6C345.599 447 347.099 447.4 348.799 448.7C358.299 455.7 372.099 459.4 380.399 457C385.699 455.5 388.999 452.1 388.999 447.9C388.999 442.1 383.999 439.2 364.199 433.5C345.899 428.1 340.199 423.4 338.499 411.7C335.499 392.1 348.899 378.1 370.699 378C382.499 378 395.899 382.1 402.999 387.8L405.399 389.7L400.599 396.9C397.899 400.8 395.599 404 395.399 404C395.199 404 392.199 402.4 388.599 400.5C377.699 394.4 363.999 393.8 359.799 399.1C357.199 402.2 357.499 407.6 360.299 410.4C362.899 413 367.299 414.7 380.599 418.4C391.099 421.2 396.499 423.7 401.399 428C406.599 432.6 407.999 436.5 407.999 446.7C407.999 454.9 407.799 456 405.099 460.1C400.899 466.3 399.999 467.3 395.999 469.7C386.499 475.4 370.399 476.6 356.999 472.6Z" fill="white"/>
<path d="M508.902 473C501.202 470.9 494.002 467.4 488.802 463.2L485.102 460.3L488.802 455.9C490.802 453.5 493.502 450.4 494.702 449L496.902 446.6L499.802 448.7C509.402 455.8 523.002 459.4 531.302 457.1C533.802 456.3 536.702 454.9 537.702 453.8C539.902 451.3 540.002 444.8 537.802 442.3C535.902 440.2 528.502 437.3 515.002 433.4C503.402 430.1 499.502 428.2 495.302 423.8C487.202 415.4 486.902 399.4 494.602 389.3C502.102 379.5 517.402 375.8 535.102 379.5C542.202 381 556.002 387.5 556.002 389.4C556.002 390.3 547.002 404 546.402 404C546.202 404 543.202 402.4 539.602 400.5C524.702 392.2 508.602 394.4 508.602 404.6C508.602 410.7 512.402 413 530.502 418C552.102 423.9 559.502 431.1 559.402 446C559.402 455.4 556.902 461.1 550.402 466.9C541.502 474.7 524.302 477.2 508.902 473Z" fill="white"/>
<path d="M0 426.5V379H11.3L22.5 379.1L30.5 392.1C45.3 416.1 46.9 418.5 48 418.5C49 418.5 61 400.1 69.6 385.3L73.2 379H84.1H95L95.2 426.5L95.5 474H85.5H75.5L75.8 443C75.9 424.9 75.7 412 75.1 412C74.3 412 72.3 414.9 55.5 440.3L47.8 452.1L45.6 449.1C44.5 447.5 38.6 438.5 32.5 429.1C26.5 419.7 21.2 412 20.8 412C20.3 412 20 426 20 443V474H10H0V426.5Z" fill="white"/>
<path d="M184 426.5V379L219.8 379.2L255.5 379.5L255.8 387.7L256.1 396L230.3 396.2L204.5 396.5L204.2 406.8L203.9 417H226.5H249V426V435H226.5H204V445.5V456H230H256V465V474H220H184V426.5Z" fill="white"/>
<path d="M635 471.3C635.6 469.7 636.5 467.6 636.9 466.5C637.4 465.4 640 459.6 642.5 453.5C645.1 447.5 648.9 438.5 651 433.5C653.1 428.6 657.7 417.8 661.3 409.5C664.8 401.3 669.2 391 671 386.8L674.3 379H684.1C693.4 379 693.9 379.1 694.5 381.3C695.2 383.5 698.8 392.1 710 418C713.1 425.4 717.6 436 719.9 441.5C724.6 452.7 727.8 460 731.5 468.3L734 474H723.5H713L711.9 471.3C709.1 464.1 706.7 458.2 705.4 455.2L704 452L683.5 452.2L662.9 452.5L659.4 461C657.4 465.7 655.4 470.5 654.9 471.8C654.1 473.9 653.5 474 644 474H634L635 471.3ZM697 434.7C697 434.5 694.9 429.4 692.4 423.4C689.9 417.4 687.5 411.3 687 409.9C685.7 405.7 684 402.9 683 403.5C682.6 403.8 681.5 405.9 680.7 408.3C679.8 410.6 677.7 415.9 676 420C674.2 424.1 672.2 429.2 671.4 431.3L670.1 435H683.5C690.9 435 697 434.9 697 434.7Z" fill="white"/>
<path d="M815 426.4V378.8L842.3 379.2L869.5 379.6L875.8 382.5C887.2 387.6 893 396.9 893 410C893 423.1 888.5 431.5 878.4 437.2C875 439 873.3 440.6 873.7 441.3C875.1 443.7 889.4 464.6 892.7 469.3L896.2 474H884.3H872.5L862.2 458.5L851.8 443H843.4H835V458.5V474H825H815V426.4ZM865.5 424C869.9 421.8 873 416.5 873 411.3C873 405.2 870.8 401.6 865.7 399.1C862 397.3 859.5 397 848.2 397H835V411.6V426.2L848.8 425.8C858.3 425.6 863.4 425 865.5 424Z" fill="white"/>
<path d="M979 426.5V379H989H999V426.5V474H989H979V426.5Z" fill="white"/>
<path d="M368 133V1L401 35.7L434 70.3V139.5V208.8L419.3 221.2C411.1 228.1 396.3 240.8 386.3 249.4L368 265V133Z" fill="white"/>
<path d="M566 166.5V69.7002L577.8 57.6002C588.2 46.9002 620.4 13.1002 628.8 4.1002L632 0.700195V101.8V202.8L622.3 211.6C616.9 216.5 609.6 223.2 606 226.5C602.4 229.8 594.5 237 588.5 242.5C582.5 248 574.9 254.9 571.8 257.9L566 263.3V166.5Z" fill="white"/>
<path d="M467 185.7C467 142.9 467.2 108 467.6 108C467.9 108 474.5 113.3 482.3 119.8C490.1 126.3 497 131.9 497.7 132.3C498.8 133 516.9 118 528.8 106.7L533 102.6V152.8V203L526.3 209.4C522.5 212.8 511.2 223.2 501 232.5C490.8 241.7 480 251.6 477 254.4C474 257.2 470.5 260.4 469.2 261.4L467 263.3V185.7Z" fill="white"/>
</svg>
