<svg width="1200" height="166" viewBox="0 0 1200 166" fill="none" xmlns="http://www.w3.org/2000/svg">
<path fill-rule="evenodd" clip-rule="evenodd" d="M100.235 12V60.2722H41.7336V12.0125H0V153.612H41.7336V103.596H100.235V153.587H141.972V12H100.235Z" fill="white"/>
<path fill-rule="evenodd" clip-rule="evenodd" d="M423.136 12V12.0125H402.254V153.612H444.466V153.6H556.057V113.39H444.466V52.2094H556.028V12H423.136Z" fill="white"/>
<path fill-rule="evenodd" clip-rule="evenodd" d="M1153.12 12V72.8842L1094.88 12L1094.76 12.0954V12H1052.96V153.612H1094.76V90.7181L1153.12 153.612H1194.93V12H1153.12Z" fill="white"/>
<path fill-rule="evenodd" clip-rule="evenodd" d="M748.723 12V60.1959H682.82V12.0251H638.875V153.602H682.82V103.503H748.688V153.612H792.633V102.128H751.649L792.678 60.1959V12H748.723Z" fill="white"/>
<path fill-rule="evenodd" clip-rule="evenodd" d="M205.371 12.0125V12H335.75V12.0125H343.097V153.6H301.685V122.943H242.539V153.612H201.125V12.0125H205.371ZM301.685 81.1075H242.539V52.2094H301.685V81.1075Z" fill="white"/>
<path fill-rule="evenodd" clip-rule="evenodd" d="M863.409 12V12.01H851.832V153.574H863.156V153.612H993.542V113.448H893.249V102.892H993.567V62.7253H893.249V52.1668H993.804V12H863.409Z" fill="white"/>
</svg>
