<svg width="1000" height="476" viewBox="0 0 1000 476" fill="none" xmlns="http://www.w3.org/2000/svg">
<path d="M215.083 398.774C194.513 396.594 175.273 389.586 157.831 378.14C146.803 370.743 131.004 355.248 124.044 344.737C110.435 324.337 103.943 304.481 103.083 280.5C101.831 244.215 114.814 212.447 141.407 186.908C159.161 169.934 181.608 158.644 206.48 154.361C218.524 152.259 237.999 152.648 250.357 155.14C264.67 158.099 282.502 165.34 293.296 172.581C295.877 174.294 298.223 175.774 298.614 175.774C298.927 175.774 299.162 172.27 299.162 167.987V160.201H324.581H350V276.996V393.791H324.581H299.162V384.836C299.162 379.931 299.005 375.882 298.849 375.882C298.771 375.882 296.19 377.439 293.218 379.386C281.173 387.328 264.67 393.868 249.418 396.905C241.832 398.462 221.966 399.475 215.083 398.774ZM243.553 346.216C267.407 340.688 287.352 322.546 295.173 299.109C308.625 258.931 285.553 216.807 243.944 205.673C235.731 203.493 216.569 203.571 208.044 205.907C195.686 209.255 185.284 215.094 176.133 223.971C166.513 233.159 159.396 244.994 155.876 257.919C153.452 267.107 153.373 284.782 155.876 294.126C166.2 332.668 204.29 355.326 243.553 346.216Z" fill="white"/>
<path d="M564.756 398.763C517.713 392.613 479.16 361.161 465.218 317.563C461.013 304.406 460 297.633 460 281.751C460 269.451 460.234 266.181 461.791 259.252C465.218 244.071 471.138 229.98 479.627 216.589C482.12 212.696 506.42 179.687 533.602 143.252L582.981 77H613.201C629.791 77 643.421 77.1557 643.421 77.3114C643.421 77.4671 628.545 96.7745 610.319 120.286C592.094 143.797 577.218 163.26 577.218 163.65C577.218 163.961 581.19 164.195 586.019 164.195C633.919 164.195 678.469 197.515 693.969 244.927C700.822 265.714 701.835 286.423 697.006 307.053C686.414 352.753 651.131 386.852 603.933 397.051C598.091 398.296 592.873 398.685 581.891 398.919C573.947 399.075 566.236 398.997 564.756 398.763ZM600.584 349.561C612.111 345.668 618.575 341.62 627.454 332.745C641.629 318.575 648.094 302.694 648.094 282.141C648.094 249.365 629.323 222.739 599.415 213.241C591.004 210.517 573.557 210.127 563.666 212.385C538.898 218.146 520.206 237.22 513.585 263.534C511.482 271.942 511.716 291.639 513.975 300.825C518.804 320.055 531.811 336.949 548.322 345.435C559.772 351.351 565.691 352.597 581.112 352.286C592.328 352.13 593.73 351.896 600.584 349.561Z" fill="white"/>
<path d="M383.927 258.866V123.732H366.963H350V100.366V77H393H436V235.5V394H409.963H383.927V258.866Z" fill="white"/>
<path d="M720 370.489L720.078 346.899L776.921 278.389C808.188 240.709 833.841 209.646 833.841 209.334C833.841 208.945 808.266 208.711 776.921 208.711H720V185.356V162H808.5H897V185.2V208.322L839.689 277.221C808.188 315.136 782.379 346.354 782.379 346.744C782.379 347.055 808.188 347.289 839.689 347.289H897V370.644V394H808.5H720V370.489Z" fill="white"/>
</svg>
