<svg width="1200" height="166" viewBox="0 0 1200 166" fill="none" xmlns="http://www.w3.org/2000/svg">
<path d="M66.6062 8.64614C86.1015 8.64614 101.388 13.2985 112.465 22.6031C123.542 31.76 129.08 44.5354 129.08 60.9292C129.08 77.1754 123.542 89.9508 112.465 99.2554C101.388 108.412 86.1015 112.991 66.6062 112.991H22.2985V163.723H11V8.64614H66.6062ZM66.6062 102.8C83.1477 102.8 95.7754 99.1815 104.489 91.9446C113.203 84.7077 117.56 74.3692 117.56 60.9292C117.56 47.4892 113.203 37.1508 104.489 29.9138C95.7754 22.5292 83.1477 18.8369 66.6062 18.8369H22.2985V102.8H66.6062ZM260.707 108.56H161.236C161.531 117.569 163.821 125.618 168.104 132.708C172.387 139.649 178.147 145.04 185.384 148.88C192.769 152.72 201.039 154.64 210.196 154.64C217.729 154.64 224.67 153.311 231.021 150.652C237.519 147.846 242.91 143.785 247.193 138.468L253.618 145.778C248.596 151.834 242.246 156.486 234.566 159.735C227.033 162.985 218.836 164.609 209.975 164.609C198.455 164.609 188.19 162.098 179.181 157.077C170.171 152.055 163.082 145.114 157.913 136.252C152.891 127.391 150.381 117.274 150.381 105.902C150.381 94.6769 152.744 84.6338 157.47 75.7723C162.344 66.7631 168.99 59.7477 177.408 54.7262C185.827 49.7046 195.279 47.1938 205.766 47.1938C216.252 47.1938 225.63 49.7046 233.901 54.7262C242.319 59.6 248.892 66.4677 253.618 75.3292C258.492 84.1908 260.929 94.2338 260.929 105.458L260.707 108.56ZM205.766 56.9415C197.642 56.9415 190.332 58.7877 183.833 62.48C177.334 66.0246 172.091 71.12 168.104 77.7662C164.264 84.2646 162.048 91.6492 161.457 99.92H250.073C249.63 91.6492 247.415 84.2646 243.427 77.7662C239.439 71.2677 234.196 66.1723 227.698 62.48C221.199 58.7877 213.889 56.9415 205.766 56.9415ZM324.438 164.609C315.134 164.609 306.272 163.206 297.854 160.4C289.435 157.594 282.863 154.049 278.137 149.766L283.232 140.905C287.958 144.892 294.014 148.215 301.398 150.874C308.93 153.532 316.758 154.862 324.881 154.862C336.549 154.862 345.115 152.942 350.58 149.102C356.192 145.262 358.998 139.945 358.998 133.151C358.998 128.277 357.447 124.437 354.346 121.631C351.392 118.825 347.7 116.757 343.269 115.428C338.838 114.098 332.709 112.695 324.881 111.218C315.724 109.594 308.34 107.822 302.727 105.902C297.115 103.982 292.315 100.88 288.327 96.5969C284.34 92.3138 282.346 86.4062 282.346 78.8738C282.346 69.7169 286.112 62.1846 293.644 56.2769C301.324 50.2215 312.18 47.1938 326.21 47.1938C333.595 47.1938 340.906 48.2277 348.143 50.2954C355.38 52.3631 361.287 55.0954 365.866 58.4923L360.77 67.3538C356.044 63.9569 350.654 61.3723 344.598 59.6C338.543 57.8277 332.34 56.9415 325.989 56.9415C315.207 56.9415 307.084 58.9354 301.62 62.9231C296.155 66.9108 293.423 72.1539 293.423 78.6523C293.423 83.8215 294.974 87.8831 298.075 90.8369C301.177 93.6431 304.943 95.7846 309.374 97.2615C313.952 98.5908 320.303 100.068 328.426 101.692C337.435 103.317 344.672 105.089 350.137 107.009C355.749 108.782 360.475 111.735 364.315 115.871C368.155 120.006 370.075 125.692 370.075 132.929C370.075 142.529 366.087 150.209 358.112 155.969C350.137 161.729 338.912 164.609 324.438 164.609ZM430.232 164.609C420.927 164.609 412.066 163.206 403.647 160.4C395.229 157.594 388.657 154.049 383.93 149.766L389.026 140.905C393.752 144.892 399.807 148.215 407.192 150.874C414.724 153.532 422.552 154.862 430.675 154.862C442.343 154.862 450.909 152.942 456.374 149.102C461.986 145.262 464.792 139.945 464.792 133.151C464.792 128.277 463.241 124.437 460.14 121.631C457.186 118.825 453.494 116.757 449.063 115.428C444.632 114.098 438.503 112.695 430.675 111.218C421.518 109.594 414.134 107.822 408.521 105.902C402.909 103.982 398.109 100.88 394.121 96.5969C390.134 92.3138 388.14 86.4062 388.14 78.8738C388.14 69.7169 391.906 62.1846 399.438 56.2769C407.118 50.2215 417.974 47.1938 432.004 47.1938C439.389 47.1938 446.7 48.2277 453.937 50.2954C461.174 52.3631 467.081 55.0954 471.66 58.4923L466.564 67.3538C461.838 63.9569 456.447 61.3723 450.392 59.6C444.337 57.8277 438.134 56.9415 431.783 56.9415C421.001 56.9415 412.878 58.9354 407.414 62.9231C401.949 66.9108 399.217 72.1539 399.217 78.6523C399.217 83.8215 400.767 87.8831 403.869 90.8369C406.97 93.6431 410.737 95.7846 415.167 97.2615C419.746 98.5908 426.097 100.068 434.22 101.692C443.229 103.317 450.466 105.089 455.93 107.009C461.543 108.782 466.269 111.735 470.109 115.871C473.949 120.006 475.869 125.692 475.869 132.929C475.869 142.529 471.881 150.209 463.906 155.969C455.93 161.729 444.706 164.609 430.232 164.609ZM506.783 48.08H517.86V163.723H506.783V48.08ZM512.321 19.9446C509.81 19.9446 507.669 19.1323 505.897 17.5077C504.124 15.7354 503.238 13.5938 503.238 11.0831C503.238 8.57231 504.124 6.43077 505.897 4.65844C507.669 2.88615 509.81 2 512.321 2C514.832 2 516.974 2.88615 518.746 4.65844C520.518 6.28308 521.404 8.35077 521.404 10.8615C521.404 13.3723 520.518 15.5138 518.746 17.2862C516.974 19.0585 514.832 19.9446 512.321 19.9446ZM708.547 47.1938C722.873 47.1938 734.098 51.4031 742.221 59.8215C750.492 68.24 754.627 80.3508 754.627 96.1539V163.723H743.55V97.04C743.55 84.0431 740.375 74.1477 734.024 67.3538C727.673 60.56 718.812 57.1631 707.439 57.1631C694.442 57.1631 684.104 61.2246 676.424 69.3477C668.892 77.4708 665.126 88.4 665.126 102.135V163.723H654.049V97.04C654.049 84.0431 650.873 74.1477 644.522 67.3538C638.172 60.56 629.31 57.1631 617.938 57.1631C604.941 57.1631 594.602 61.2246 586.922 69.3477C579.39 77.4708 575.624 88.4 575.624 102.135V163.723H564.547V48.08H575.181V72.8923C579.021 64.7692 584.707 58.4923 592.239 54.0615C599.919 49.4831 609.002 47.1938 619.489 47.1938C629.975 47.1938 638.836 49.5569 646.073 54.2831C653.458 59.0092 658.701 65.9508 661.802 75.1077C665.642 66.5415 671.624 59.7477 679.747 54.7262C688.018 49.7046 697.618 47.1938 708.547 47.1938ZM800.364 48.08H811.441V163.723H800.364V48.08ZM805.902 19.9446C803.391 19.9446 801.25 19.1323 799.477 17.5077C797.705 15.7354 796.819 13.5938 796.819 11.0831C796.819 8.57231 797.705 6.43077 799.477 4.65844C801.25 2.88615 803.391 2 805.902 2C808.413 2 810.554 2.88615 812.327 4.65844C814.099 6.28308 814.985 8.35077 814.985 10.8615C814.985 13.3723 814.099 15.5138 812.327 17.2862C810.554 19.0585 808.413 19.9446 805.902 19.9446ZM887.371 164.609C878.066 164.609 869.205 163.206 860.786 160.4C852.368 157.594 845.796 154.049 841.07 149.766L846.165 140.905C850.891 144.892 856.946 148.215 864.331 150.874C871.863 153.532 879.691 154.862 887.814 154.862C899.482 154.862 908.048 152.942 913.513 149.102C919.125 145.262 921.931 139.945 921.931 133.151C921.931 128.277 920.38 124.437 917.279 121.631C914.325 118.825 910.633 116.757 906.202 115.428C901.771 114.098 895.642 112.695 887.814 111.218C878.657 109.594 871.273 107.822 865.66 105.902C860.048 103.982 855.248 100.88 851.26 96.5969C847.273 92.3138 845.279 86.4062 845.279 78.8738C845.279 69.7169 849.045 62.1846 856.577 56.2769C864.257 50.2215 875.113 47.1938 889.143 47.1938C896.528 47.1938 903.839 48.2277 911.076 50.2954C918.313 52.3631 924.22 55.0954 928.799 58.4923L923.703 67.3538C918.977 63.9569 913.586 61.3723 907.531 59.6C901.476 57.8277 895.273 56.9415 888.922 56.9415C878.14 56.9415 870.017 58.9354 864.553 62.9231C859.088 66.9108 856.356 72.1539 856.356 78.6523C856.356 83.8215 857.906 87.8831 861.008 90.8369C864.11 93.6431 867.876 95.7846 872.306 97.2615C876.885 98.5908 883.236 100.068 891.359 101.692C900.368 103.317 907.605 105.089 913.07 107.009C918.682 108.782 923.408 111.735 927.248 115.871C931.088 120.006 933.008 125.692 933.008 132.929C933.008 142.529 929.02 150.209 921.045 155.969C913.069 161.729 901.845 164.609 887.371 164.609ZM1021.3 156.412C1018.49 159.071 1014.95 161.138 1010.67 162.615C1006.53 163.945 1002.17 164.609 997.596 164.609C987.553 164.609 979.799 161.877 974.334 156.412C968.87 150.8 966.137 143.046 966.137 133.151V57.6062H944.87V48.08H966.137V22.8246H977.214V48.08H1013.99V57.6062H977.214V132.043C977.214 139.575 978.986 145.335 982.531 149.323C986.223 153.163 991.614 155.083 998.703 155.083C1005.94 155.083 1011.92 152.942 1016.65 148.658L1021.3 156.412ZM1052.19 48.08H1063.27V163.723H1052.19V48.08ZM1057.73 19.9446C1055.22 19.9446 1053.08 19.1323 1051.3 17.5077C1049.53 15.7354 1048.65 13.5938 1048.65 11.0831C1048.65 8.57231 1049.53 6.43077 1051.3 4.65844C1053.08 2.88615 1055.22 2 1057.73 2C1060.24 2 1062.38 2.88615 1064.15 4.65844C1065.93 6.28308 1066.81 8.35077 1066.81 10.8615C1066.81 13.3723 1065.93 15.5138 1064.15 17.2862C1062.38 19.0585 1060.24 19.9446 1057.73 19.9446ZM1155.81 164.609C1144.59 164.609 1134.55 162.098 1125.69 157.077C1116.82 152.055 1109.88 145.114 1104.86 136.252C1099.84 127.243 1097.33 117.126 1097.33 105.902C1097.33 94.5292 1099.84 84.4123 1104.86 75.5508C1109.88 66.5415 1116.82 59.6 1125.69 54.7262C1134.55 49.7046 1144.59 47.1938 1155.81 47.1938C1165.12 47.1938 1173.54 49.04 1181.07 52.7323C1188.75 56.2769 1194.95 61.52 1199.68 68.4615L1191.48 74.4431C1187.35 68.6831 1182.18 64.4 1175.97 61.5938C1169.92 58.64 1163.2 57.1631 1155.81 57.1631C1146.81 57.1631 1138.68 59.2308 1131.45 63.3662C1124.36 67.3538 1118.74 73.04 1114.61 80.4246C1110.62 87.8092 1108.63 96.3015 1108.63 105.902C1108.63 115.502 1110.62 123.994 1114.61 131.378C1118.74 138.763 1124.36 144.523 1131.45 148.658C1138.68 152.646 1146.81 154.64 1155.81 154.64C1163.2 154.64 1169.92 153.237 1175.97 150.431C1182.18 147.477 1187.35 143.12 1191.48 137.36L1199.68 143.342C1194.95 150.283 1188.75 155.6 1181.07 159.292C1173.54 162.837 1165.12 164.609 1155.81 164.609Z" fill="white"/>
</svg>
