<svg viewBox="0 0 100 65" xmlns="http://www.w3.org/2000/svg" xmlns:xlink="http://www.w3.org/1999/xlink"><clipPath id="a"><path d="m64.09 17.69a14.07 14.07 0 1 1 -14.09-14.06 14.08 14.08 0 0 1 14.09 14.06zm-32.38 17.56a14.06 14.06 0 1 0 14.06 14.06 14.07 14.07 0 0 0 -14.06-14.06zm36.58 0a14.06 14.06 0 1 0 14.06 14.06 14.07 14.07 0 0 0 -14.06-14.06z"/></clipPath><radialGradient id="b" cx="-5765.97" cy="-2476.59" gradientTransform="matrix(0 -.75 -.75 0 -1807.42 -4285.47)" gradientUnits="userSpaceOnUse" r="47.24"><stop offset="0" stop-color="#ffb900"/><stop offset=".6" stop-color="#f95d8f"/><stop offset="1" stop-color="#f95353"/></radialGradient><g clip-path="url(#a)"><path d="m50 3.58a35.43 35.43 0 1 1 -35.4 35.42 35.42 35.42 0 0 1 35.4-35.42z" fill="url(#b)"/></g></svg>