<svg height='100px' width='100px'  fill="#000000" xmlns="http://www.w3.org/2000/svg" xmlns:xlink="http://www.w3.org/1999/xlink" version="1.1" x="0px" y="0px" viewBox="0 0 100 100" enable-background="new 0 0 100 100" xml:space="preserve"><g><path d="M93.158,16.294c0-2.535-2.073-4.607-4.608-4.607H11.421c-2.535,0-4.608,2.073-4.608,4.607v45.817H6.813v0.775l0.001-0.001   v0.922h0.35l-0.351,0.786v1.748l1.131-2.535h0.761l-1.82,4.081c0.064,0.358,0.17,0.704,0.32,1.03l2.28-5.111h0.761l-2.608,5.847   c0.153,0.212,0.326,0.411,0.513,0.597l2.875-6.445h0.762l-3.087,6.919c0.192,0.141,0.397,0.267,0.61,0.382l3.257-7.301h0.762   l-3.388,7.595c0.221,0.084,0.453,0.15,0.688,0.206l3.48-7.8h0.761l-3.534,7.922c0.182,0.018,0.367,0.029,0.555,0.029h0.212   l3.547-7.951h0.761l-3.547,7.951h0.78l3.547-7.951h0.761l-3.547,7.951h0.78l3.547-7.951h0.761l-3.547,7.951h0.78l3.547-7.951h0.761   l-3.547,7.951h0.78l3.547-7.951h0.762l-3.547,7.951h0.78l3.547-7.951h0.762l-3.547,7.951h0.78l3.547-7.951h0.761l-3.547,7.951h0.78   l3.547-7.951h0.761l-3.547,7.951h0.78l3.547-7.951h0.761l-3.547,7.951h0.78l3.547-7.951h0.761l-3.547,7.951h0.78l3.547-7.951h0.761   l-3.547,7.951h0.78l3.547-7.951h0.762l-3.547,7.951h0.78l3.547-7.951h0.762l-3.547,7.951h0.78l3.547-7.951h0.761l-3.547,7.951h0.78   l3.547-7.951h0.762l-3.547,7.951h0.78l3.547-7.951h0.761l-3.547,7.951h0.78l3.547-7.951h0.761l-3.547,7.951h0.78l3.547-7.951h0.761   l-3.547,7.951h0.78l3.547-7.951h0.761l-3.547,7.951h0.78l3.547-7.951h0.761l-3.547,7.951h0.78l3.547-7.951h0.761l-3.547,7.951   h0.781l3.547-7.951h0.761l-3.547,7.951h0.781l3.547-7.951h0.76l-3.547,7.951h0.781l3.547-7.951h0.761l-3.547,7.951h0.781   l3.547-7.951h0.761l-3.547,7.951h0.781l3.547-7.951h0.76l-3.547,7.951h0.781l3.547-7.951h0.761l-3.547,7.951h0.781l3.547-7.951   h0.761l-3.547,7.951h0.781l3.547-7.951h0.76l-3.547,7.951h0.781l3.547-7.951h0.761l-3.547,7.951h0.781l3.547-7.951h0.761   l-3.547,7.951h0.781l3.547-7.951h0.76l-3.547,7.951h0.781l3.547-7.951h0.761l-3.547,7.951h0.781l3.547-7.951h0.761l-3.547,7.951   h0.781l3.547-7.951h0.761l-3.547,7.951h0.781l3.547-7.951h0.761l-3.547,7.951h0.781l3.547-7.951h0.76l-3.547,7.951h0.781   l3.547-7.951h0.761l-3.547,7.951h0.781l3.547-7.951h0.761l-3.547,7.951h0.781l3.547-7.951h0.76l-3.547,7.951h0.781l3.547-7.951   h0.761l-3.547,7.951H75.3l3.547-7.951h0.761l-3.547,7.951h0.781l3.547-7.951h0.76l-3.547,7.951h0.781l3.547-7.951h0.761   l-3.547,7.951h0.781l3.547-7.951h0.761l-3.547,7.951h0.781l3.547-7.951h0.76l-3.547,7.951h0.781l3.547-7.951h0.761l-3.547,7.951   h0.781l3.547-7.951h0.761l-3.547,7.951h0.781l3.547-7.951h0.761l-3.547,7.951h0.781l3.547-7.951h0.76l-3.54,7.936   c0.283-0.016,0.56-0.052,0.829-0.109l3.491-7.827h0.439v-0.985l0.001-0.001v-0.71h-0.001V16.294z M90.029,60.678H9.942V16.294   c0-0.807,0.671-1.479,1.478-1.479h77.13c0.807,0,1.479,0.672,1.479,1.479V60.678z"></path><path d="M91.131,70.821l2.027-4.544v-1.75l-3.053,6.844C90.472,71.225,90.815,71.039,91.131,70.821z"></path><polygon points="57.626,72.169 42.344,72.169 40.17,80.706 32.701,86.971 32.701,88.313 67.27,88.313 67.27,86.971 59.8,80.706     "></polygon></g></svg>