<svg enable-background="new 0 0 100 65" viewBox="0 0 100 65" xmlns="http://www.w3.org/2000/svg"><path d="m50.1 13.8c-9 0-16.5 6.1-18.9 14.3-2-4.4-6.5-7.4-11.6-7.4-7 0-12.8 5.8-12.8 12.8s5.8 12.8 12.8 12.8c5.1 0 9.5-3.1 11.6-7.4 2.4 8.2 9.9 14.3 18.9 14.3 8.9 0 16.4-6 18.9-14.1 2.1 4.3 6.5 7.2 11.5 7.2 7 0 12.8-5.8 12.8-12.8s-5.8-12.8-12.8-12.8c-5 0-9.4 3-11.5 7.2-2.5-8.1-10-14.1-18.9-14.1zm0 7.5c6.8 0 12.2 5.4 12.2 12.2s-5.4 12.2-12.2 12.2-12.2-5.4-12.2-12.2 5.4-12.2 12.2-12.2zm-30.5 6.9c3 0 5.3 2.3 5.3 5.3s-2.3 5.3-5.3 5.3-5.3-2.3-5.3-5.3 2.3-5.3 5.3-5.3zm60.8 0c3 0 5.3 2.3 5.3 5.3s-2.3 5.3-5.3 5.3-5.3-2.3-5.3-5.3 2.4-5.3 5.3-5.3z" fill="#0082c9"/></svg>