<svg width="1200" height="58" viewBox="0 0 1200 58" fill="none" xmlns="http://www.w3.org/2000/svg">
<g clip-path="url(#clip0_10_51)">
<path d="M-0.5 0H1200.5V58H-0.5V0Z" fill="black"/>
<path d="M39.5 38C43.9183 38 47.5 34.4183 47.5 30C47.5 25.5817 43.9183 22 39.5 22C35.0817 22 31.5 25.5817 31.5 30C31.5 34.4183 35.0817 38 39.5 38Z" fill="#FF5B58"/>
<path d="M39.5 37.5C43.6421 37.5 47 34.1421 47 30C47 25.8579 43.6421 22.5 39.5 22.5C35.3579 22.5 32 25.8579 32 30C32 34.1421 35.3579 37.5 39.5 37.5Z" stroke="#EA5552"/>
<path d="M68.5 38C72.9183 38 76.5 34.4183 76.5 30C76.5 25.5817 72.9183 22 68.5 22C64.0817 22 60.5 25.5817 60.5 30C60.5 34.4183 64.0817 38 68.5 38Z" fill="#FDBD29"/>
<path d="M68.5 37.5C72.6421 37.5 76 34.1421 76 30C76 25.8579 72.6421 22.5 68.5 22.5C64.3579 22.5 61 25.8579 61 30C61 34.1421 64.3579 37.5 68.5 37.5Z" stroke="#EFB226"/>
<path d="M96.5 38C100.918 38 104.5 34.4183 104.5 30C104.5 25.5817 100.918 22 96.5 22C92.0817 22 88.5 25.5817 88.5 30C88.5 34.4183 92.0817 38 96.5 38Z" fill="#2DC93D"/>
<path d="M96.5 37.5C100.642 37.5 104 34.1421 104 30C104 25.8579 100.642 22.5 96.5 22.5C92.3579 22.5 89 25.8579 89 30C89 34.1421 92.3579 37.5 96.5 37.5Z" stroke="#2ABA39"/>
<path d="M147.1 36.8H148.7V22.4H147.1V36.8ZM145.3 26.1C145.5 26.1 145.6 26 145.7 25.9C145.8 25.8 145.9 25.7 145.9 25.5C145.9 25.3 145.8 25.2 145.7 25.1C145.6 25 145.4 24.9 145.3 24.9H143.4C143.3 24.9 143.1 25 143 25.1C142.9 25.2 142.8 25.3 142.8 25.5C142.8 25.6 142.9 25.8 143 25.9C143.1 26 143.2 26.1 143.4 26.1H145.3ZM145.3 28.5C145.5 28.5 145.6 28.4 145.7 28.3C145.9 28.1 145.9 27.8 145.8 27.6C145.8 27.6 145.8 27.6 145.7 27.5C145.6 27.4 145.5 27.3 145.3 27.3H143.4C143.2 27.3 143.1 27.4 143 27.5C142.9 27.6 142.8 27.7 142.8 27.9C142.8 28.1 142.9 28.2 143 28.3C143.1 28.4 143.2 28.5 143.4 28.5H145.3ZM145.3 30.9C145.5 30.9 145.6 30.8 145.7 30.7C145.8 30.6 145.9 30.5 145.9 30.3C145.9 30.1 145.8 30 145.7 29.9C145.6 29.8 145.4 29.7 145.3 29.7H143.4C143.3 29.7 143.1 29.8 143 29.9C142.9 30 142.8 30.1 142.8 30.3C142.8 30.4 142.9 30.6 143 30.7C143.1 30.8 143.3 30.9 143.4 30.9H145.3ZM142.8 38.1H158.7C159.5 38.2 160.4 37.9 161 37.4C161.5 36.8 161.8 36 161.8 35.2V23.9C161.9 23.1 161.6 22.3 161 21.7C160.4 21.2 159.6 20.9 158.8 20.9H142.9C142.1 20.8 141.3 21.1 140.7 21.6C140.2 22.2 139.9 23 139.9 23.8V35.1C139.8 35.9 140.1 36.7 140.7 37.3C141.2 37.9 142 38.2 142.8 38.1V38.1ZM142.9 36.5C142.5 36.5 142.2 36.4 141.9 36.2C141.7 35.9 141.5 35.6 141.5 35.2V24.2C141.5 23.8 141.6 23.4 141.9 23.2C142.2 23 142.5 22.8 142.9 22.8H158.7C159.1 22.8 159.4 22.9 159.7 23.2C160 23.5 160.1 23.9 160.1 24.2V35.2C160.1 35.6 160 35.9 159.7 36.2C159.4 36.4 159.1 36.6 158.7 36.5H142.9Z" fill="#909090"/>
<path d="M204.4 38L197.2 30.9C197 30.7 196.9 30.4 196.9 30.2C196.9 30.1 196.9 29.9 197 29.8C197.1 29.7 197.1 29.5 197.2 29.4L204.4 22.3C204.6 22.1 204.8 22 205.1 22C205.7 22 206.1 22.4 206.1 23C206.1 23.3 206 23.5 205.8 23.7L198.7 30.6V29.7L205.8 36.6C206 36.8 206.1 37 206.1 37.3C206.1 37.5 206.1 37.6 206 37.8C205.9 37.9 205.8 38.1 205.6 38.1C205.4 38.2 205.3 38.2 205.1 38.2C205 38.2 204.8 38.2 204.7 38.1C204.6 38.2 204.5 38.1 204.4 38V38Z" fill="#909090"/>
<path opacity="0.5" d="M235.5 38L242.7 30.9C242.9 30.7 243 30.4 243 30.2C243 30.1 243 29.9 242.9 29.8C242.8 29.7 242.8 29.6 242.7 29.4L235.4 22.3C235 21.9 234.4 22 234 22.4C233.9 22.6 233.8 22.8 233.8 23C233.8 23.3 233.9 23.5 234.1 23.7L241.2 30.6V29.7L234.1 36.6C233.9 36.8 233.8 37 233.8 37.3C233.8 37.5 233.8 37.6 233.9 37.8C234 37.9 234.1 38.1 234.3 38.1C234.5 38.2 234.6 38.2 234.8 38.2C234.9 38.2 235.1 38.2 235.2 38.1C235.3 38.1 235.4 38.1 235.5 38V38Z" fill="#909090"/>
<path d="M1071.8 40H1082.4C1083.2 40.1 1084 39.8 1084.6 39.2C1085.1 38.6 1085.4 37.8 1085.3 37V27.9C1085.4 27.1 1085.1 26.3 1084.6 25.7C1084 25.2 1083.2 24.9 1082.4 24.9H1079.9V26.6H1082.4C1082.8 26.6 1083.1 26.7 1083.4 27C1083.6 27.3 1083.8 27.6 1083.8 28V37C1083.8 37.4 1083.7 37.7 1083.4 38C1083.1 38.2 1082.8 38.4 1082.4 38.3H1071.9C1071.5 38.3 1071.2 38.2 1070.9 38C1070.6 37.7 1070.5 37.4 1070.5 37V28C1070.4 27.3 1070.9 26.7 1071.6 26.6H1071.9H1074.4V25H1071.9C1071.1 24.9 1070.3 25.2 1069.7 25.7C1069.2 26.3 1068.9 27.1 1068.9 27.9V37C1068.8 37.8 1069.1 38.6 1069.7 39.2C1070.2 39.8 1071 40.1 1071.8 40V40ZM1077.1 32.7C1077.5 32.7 1077.9 32.3 1077.9 31.9V22.5L1077.8 21.1L1078.4 21.8L1079.7 23.2C1079.8 23.4 1080 23.5 1080.3 23.4C1080.5 23.4 1080.7 23.3 1080.8 23.2C1080.9 23.1 1081 22.9 1081 22.7C1081 22.5 1080.9 22.3 1080.8 22.2L1077.7 19.2C1077.6 19.1 1077.5 19 1077.4 19C1077.2 18.9 1077 18.9 1076.8 19C1076.7 19.1 1076.6 19.1 1076.5 19.2L1073.4 22.2C1073.3 22.3 1073.2 22.5 1073.2 22.7C1073.2 22.9 1073.3 23.1 1073.4 23.2C1073.5 23.3 1073.7 23.4 1073.9 23.4C1074.1 23.4 1074.3 23.3 1074.5 23.2L1075.8 21.8L1076.4 21.1L1076.3 22.5V31.9C1076.4 32.3 1076.7 32.7 1077.1 32.7V32.7Z" fill="#909090"/>
<path d="M1116.5 37.7C1116.7 37.7 1116.8 37.7 1117 37.6C1117.1 37.5 1117.3 37.4 1117.3 37.3C1117.4 37.2 1117.4 37 1117.4 36.8V30.9H1123.2C1123.4 30.9 1123.5 30.9 1123.7 30.8C1123.8 30.7 1124 30.6 1124 30.5C1124.1 30.4 1124.1 30.2 1124.1 30C1124.1 29.8 1124.1 29.7 1124 29.5C1123.9 29.4 1123.8 29.2 1123.7 29.1C1123.6 29 1123.4 29 1123.2 29H1117.4V23.1C1117.4 22.9 1117.4 22.8 1117.3 22.6C1117.2 22.5 1117.1 22.3 1117 22.3C1116.9 22.2 1116.7 22.2 1116.5 22.2C1116.3 22.2 1116.2 22.2 1116 22.3C1115.9 22.4 1115.7 22.5 1115.7 22.6C1115.6 22.7 1115.6 22.9 1115.6 23.1V29H1109.8C1109.6 29 1109.5 29 1109.3 29.1C1109.2 29.2 1109 29.3 1109 29.4C1108.8 29.7 1108.8 30.1 1109 30.4C1109.1 30.5 1109.2 30.7 1109.3 30.7C1109.4 30.8 1109.6 30.8 1109.8 30.8H1115.6V36.7C1115.6 36.9 1115.6 37 1115.7 37.2C1115.8 37.3 1115.9 37.5 1116 37.5C1116.2 37.6 1116.4 37.7 1116.5 37.7Z" fill="#909090"/>
<path d="M1155.4 39.6H1164.7C1165.5 39.7 1166.3 39.4 1166.9 38.9C1167.4 38.3 1167.7 37.5 1167.7 36.7V27.3C1167.8 26.5 1167.5 25.7 1166.9 25.1C1166.3 24.6 1165.5 24.3 1164.7 24.4H1155.4C1154.6 24.3 1153.8 24.6 1153.2 25.1C1152.7 25.7 1152.4 26.5 1152.4 27.3V36.7C1152.3 37.5 1152.6 38.3 1153.2 38.9C1153.8 39.4 1154.6 39.7 1155.4 39.6ZM1155.4 37.9C1155 37.9 1154.7 37.8 1154.4 37.6C1154.2 37.3 1154 37 1154 36.6V27.4C1153.9 26.7 1154.4 26.1 1155.1 26H1155.4H1164.6C1165 26 1165.3 26.1 1165.6 26.4C1165.8 26.7 1166 27 1166 27.4V36.5C1166.1 37.2 1165.6 37.8 1164.9 37.9C1164.8 37.9 1164.7 37.9 1164.6 37.9H1155.4ZM1150.8 35.3H1153.2V33.6H1150.9C1150.2 33.7 1149.6 33.2 1149.5 32.5C1149.5 32.4 1149.5 32.3 1149.5 32.2V23.1C1149.5 22.7 1149.6 22.4 1149.9 22.1C1150.2 21.9 1150.5 21.7 1150.9 21.8H1160.1C1160.5 21.8 1160.8 21.9 1161.1 22.2C1161.3 22.5 1161.5 22.8 1161.5 23.2V25.2H1163.2V23.1C1163.3 22.3 1163 21.5 1162.4 20.9C1161.8 20.4 1161 20.1 1160.2 20.2H1150.9C1150.1 20.1 1149.3 20.4 1148.7 20.9C1148.2 21.5 1147.9 22.3 1147.9 23.1V32.5C1147.8 33.3 1148.1 34.1 1148.7 34.7C1149.2 35.1 1150 35.3 1150.8 35.3V35.3Z" fill="#909090"/>
<path d="M385.5 15H853.5C857.9 15 861.5 18.6 861.5 23V37C861.5 41.4 857.9 45 853.5 45H385.5C381.1 45 377.5 41.4 377.5 37V23C377.5 18.6 381.1 15 385.5 15Z" fill="#1C1C1E"/>
<path d="M385.5 15.5H853.5C857.6 15.5 861 18.9 861 23V37C861 41.1 857.6 44.5 853.5 44.5H385.5C381.4 44.5 378 41.1 378 37V23C378 18.9 381.4 15.5 385.5 15.5Z" stroke="#1C1C1E"/>
<path d="M575.8 38H582.6C583 38 583.4 37.9 583.6 37.6C583.8 37.3 584 36.9 583.9 36.5V31.2C583.9 30.8 583.8 30.4 583.6 30.1C583.3 29.8 582.9 29.7 582.5 29.7H575.8C575.4 29.7 575 29.8 574.7 30.1C574.4 30.4 574.3 30.8 574.3 31.2V36.5C574.3 36.9 574.4 37.3 574.6 37.6C575 37.9 575.4 38 575.8 38V38ZM575.5 30.3H576.8V27.9C576.8 27.4 576.9 26.9 577.1 26.4C577.3 26 577.6 25.7 578 25.5C578.7 25.1 579.6 25.1 580.4 25.5C580.8 25.7 581.1 26 581.3 26.4C581.5 26.8 581.6 27.3 581.6 27.9V30.3H582.9V28C582.9 27.4 582.8 26.8 582.6 26.2C582.3 25.3 581.5 24.5 580.6 24.2C579.7 23.9 578.8 23.9 577.9 24.2C577.5 24.4 577.1 24.6 576.7 25C576.3 25.3 576.1 25.8 575.9 26.2C575.7 26.8 575.6 27.4 575.6 28L575.5 30.3Z" fill="#909090"/>
<path d="M840.8 26.7L841.3 25.6C840.9 25.4 840.5 25.3 840 25.2C839.5 25.1 839.1 25.1 838.6 25.1C836.9 25.1 835.2 25.8 833.9 27C833.3 27.6 832.8 28.3 832.5 29.1C831.1 32.4 832.7 36.3 836 37.7C837.6 38.4 839.5 38.4 841.1 37.7C843.5 36.7 845.1 34.3 845.1 31.6C845.1 31.2 844.8 30.9 844.5 30.9H844.4C844.2 30.9 844 31 843.9 31.1C843.8 31.2 843.7 31.4 843.7 31.6C843.7 33.7 842.5 35.6 840.5 36.4C839.2 36.9 837.7 36.9 836.4 36.4C835.8 36.1 835.2 35.7 834.7 35.3C834.2 34.8 833.8 34.2 833.6 33.6C833.1 32.3 833.1 30.8 833.6 29.5C833.9 28.9 834.2 28.3 834.7 27.8C835.2 27.3 835.7 26.9 836.4 26.7C837 26.4 837.7 26.3 838.4 26.3C838.8 26.3 839.2 26.3 839.6 26.4C840.2 26.5 840.5 26.6 840.8 26.7V26.7ZM838.5 29.7C838.7 29.7 838.8 29.6 839 29.5L842 26.4C842.3 26.1 842.3 25.7 842 25.4L839 22.3C838.8 22 838.4 22 838.1 22.3C838 22.4 837.9 22.6 837.9 22.8C837.9 22.9 837.9 23 838 23C838 23.1 838.1 23.2 838.1 23.2L840.8 25.8L838.1 28.4C838 28.5 838 28.5 838 28.6C838 28.7 837.9 28.8 837.9 28.8C837.9 29 838 29.1 838.1 29.3C838.1 29.7 838.3 29.7 838.5 29.7V29.7Z" fill="#909090"/>
<path d="M345.7 21.5L338.6 24.2V32.8L339.3 34.6L345.8 38.6L345.7 21.5ZM345.7 39.7H346C346.1 39.7 346.2 39.6 346.4 39.6C347.7 38.9 348.8 38.2 349.8 37.6C350.6 37.1 351.3 36.6 352 35.9C352.5 35.4 352.9 34.8 353.2 34.1C353.5 33.4 353.6 32.7 353.6 31.9V24.9C353.6 24.5 353.5 24.1 353.3 23.8C353 23.5 352.7 23.3 352.3 23.2L351.1 22.7L349.5 22.1L347.9 21.5L346.8 21.1C346.7 21.1 346.5 21 346.4 21C346.3 21 346.1 21 345.9 21C345.8 21 345.6 21 345.5 21L345 21.1L343.9 21.5L342.3 22.1L340.7 22.7L339.5 23.2C339.1 23.3 338.8 23.5 338.5 23.8C338.3 24.1 338.2 24.6 338.3 25V32C338.3 32.8 338.4 33.5 338.7 34.2C339 34.9 339.4 35.5 339.9 36C340.6 36.6 341.3 37.2 342.1 37.7C343 38.3 344.1 38.9 345.4 39.7C345.5 39.8 345.6 39.8 345.7 39.8C345.6 39.8 345.7 39.8 345.7 39.7V39.7ZM345.7 37.9C345.6 37.9 345.6 37.9 345.5 37.9C345.4 37.9 345.3 37.8 345.2 37.7C344.1 37.1 343.2 36.5 342.5 36C341.9 35.6 341.3 35.2 340.8 34.7C340.4 34.3 340.1 33.9 339.9 33.4C339.7 32.8 339.6 32.2 339.6 31.6V25.2C339.6 25.1 339.6 25 339.7 24.8C339.8 24.7 339.9 24.6 340 24.6L341 24.2L342.1 23.7L343.3 23.3L344.4 22.9L345.3 22.5L345.5 22.4H345.7H345.9L346.1 22.5L347 22.9L348.1 23.3L349.3 23.7L350.4 24.1L351.4 24.4C351.5 24.4 351.6 24.5 351.7 24.6C351.7 24.7 351.8 24.8 351.8 25V31.4C351.8 32 351.7 32.6 351.5 33.2C351.3 33.7 351 34.2 350.6 34.5C350.1 35 349.5 35.4 348.9 35.8C348.2 36.3 347.3 36.8 346.2 37.5C346.1 37.6 346 37.6 345.9 37.7C345.9 37.9 345.8 37.9 345.7 37.9V37.9Z" fill="#909090"/>
<path d="M598.085 35.975V27.2477H599.93V30.8486H603.676V27.2477H605.517V35.975H603.676V32.3699H599.93V35.975H598.085ZM611.201 33.188V29.4295H613.017V35.975H611.274V34.7861H611.206C611.058 35.1696 610.812 35.4778 610.468 35.7108C610.127 35.9437 609.711 36.0602 609.22 36.0602C608.782 36.0602 608.397 35.9608 608.065 35.7619C607.733 35.563 607.473 35.2804 607.285 34.9139C607.101 34.5474 607.007 34.1085 607.004 33.5971V29.4295H608.819V33.2733C608.822 33.6596 608.926 33.965 609.13 34.1895C609.335 34.4139 609.609 34.5261 609.953 34.5261C610.172 34.5261 610.376 34.4764 610.566 34.377C610.757 34.2747 610.91 34.1241 611.027 33.9253C611.146 33.7264 611.204 33.4807 611.201 33.188ZM614.469 35.975V29.4295H616.199V30.5844H616.276C616.412 30.2008 616.639 29.8983 616.957 29.6767C617.276 29.4551 617.656 29.3443 618.099 29.3443C618.548 29.3443 618.93 29.4565 619.246 29.6809C619.561 29.9025 619.771 30.2037 619.876 30.5844H619.945C620.078 30.2094 620.32 29.9096 620.669 29.6852C621.021 29.4579 621.438 29.3443 621.918 29.3443C622.528 29.3443 623.024 29.5389 623.405 29.9281C623.788 30.3145 623.98 30.8628 623.98 31.573V35.975H622.169V31.9309C622.169 31.5673 622.072 31.2946 621.879 31.1128C621.686 30.9309 621.445 30.84 621.155 30.84C620.825 30.84 620.568 30.9451 620.384 31.1554C620.199 31.3628 620.107 31.6369 620.107 31.9778V35.975H618.347V31.8926C618.347 31.5716 618.254 31.3159 618.07 31.1255C617.888 30.9352 617.648 30.84 617.349 30.84C617.148 30.84 616.966 30.8912 616.804 30.9934C616.645 31.0929 616.518 31.2335 616.425 31.4153C616.331 31.5943 616.284 31.8045 616.284 32.046V35.975H614.469ZM625.448 35.975V27.2477H627.263V30.529H627.319C627.398 30.3528 627.513 30.1738 627.664 29.992C627.817 29.8074 628.016 29.654 628.261 29.5318C628.508 29.4068 628.815 29.3443 629.181 29.3443C629.658 29.3443 630.099 29.4693 630.502 29.7193C630.906 29.9665 631.228 30.34 631.469 30.84C631.711 31.3372 631.832 31.9608 631.832 32.7108C631.832 33.4409 631.714 34.0574 631.478 34.5602C631.245 35.0602 630.927 35.4395 630.523 35.698C630.123 35.9537 629.674 36.0815 629.177 36.0815C628.825 36.0815 628.525 36.0233 628.278 35.9068C628.033 35.7903 627.833 35.644 627.677 35.4679C627.521 35.2889 627.401 35.1085 627.319 34.9267H627.238V35.975H625.448ZM627.225 32.7022C627.225 33.0915 627.279 33.4309 627.387 33.7207C627.495 34.0105 627.651 34.2363 627.856 34.3983C628.06 34.5574 628.309 34.6369 628.602 34.6369C628.897 34.6369 629.147 34.5559 629.352 34.394C629.556 34.2292 629.711 34.002 629.816 33.7122C629.924 33.4196 629.978 33.0829 629.978 32.7022C629.978 32.3244 629.925 31.992 629.82 31.7051C629.715 31.4182 629.56 31.1937 629.356 31.0318C629.151 30.8699 628.9 30.7889 628.602 30.7889C628.306 30.7889 628.056 30.867 627.852 31.0233C627.65 31.1795 627.495 31.4011 627.387 31.688C627.279 31.975 627.225 32.313 627.225 32.7022ZM634.858 27.2477V35.975H633.043V27.2477H634.858ZM639.295 36.1028C638.622 36.1028 638.043 35.9665 637.557 35.6937C637.074 35.4182 636.702 35.029 636.44 34.5261C636.179 34.0204 636.048 33.4224 636.048 32.7321C636.048 32.0588 636.179 31.4679 636.44 30.9594C636.702 30.4508 637.07 30.0545 637.544 29.7704C638.021 29.4863 638.581 29.3443 639.223 29.3443C639.655 29.3443 640.057 29.4139 640.429 29.5531C640.804 29.6895 641.131 29.8954 641.409 30.171C641.69 30.4466 641.909 30.7932 642.065 31.2108C642.222 31.6255 642.3 32.1113 642.3 32.6682V33.1667H636.773V32.0417H640.591C640.591 31.7804 640.534 31.5488 640.42 31.3471C640.307 31.1454 640.149 30.9878 639.947 30.8741C639.749 30.7576 639.517 30.6994 639.253 30.6994C638.977 30.6994 638.733 30.7633 638.52 30.8912C638.31 31.0162 638.145 31.1852 638.026 31.3983C637.906 31.6085 637.845 31.8429 637.842 32.1014V33.171C637.842 33.4949 637.902 33.7747 638.021 34.0105C638.143 34.2463 638.315 34.4281 638.537 34.5559C638.759 34.6838 639.021 34.7477 639.325 34.7477C639.527 34.7477 639.712 34.7193 639.879 34.6625C640.047 34.6057 640.19 34.5204 640.31 34.4068C640.429 34.2932 640.52 34.154 640.582 33.9892L642.261 34.1C642.176 34.5034 642.001 34.8557 641.737 35.1568C641.476 35.4551 641.138 35.688 640.723 35.8557C640.311 36.0204 639.835 36.1028 639.295 36.1028ZM644.545 36.0858C644.264 36.0858 644.023 35.9863 643.821 35.7875C643.622 35.5858 643.523 35.3443 643.523 35.063C643.523 34.7846 643.622 34.546 643.821 34.3471C644.023 34.1483 644.264 34.0488 644.545 34.0488C644.818 34.0488 645.057 34.1483 645.261 34.3471C645.466 34.546 645.568 34.7846 645.568 35.063C645.568 35.2505 645.52 35.4224 645.423 35.5787C645.33 35.7321 645.206 35.8557 645.053 35.9494C644.899 36.0403 644.73 36.0858 644.545 36.0858ZM650.54 29.4295V30.7932H646.598V29.4295H650.54ZM647.493 27.8613H649.309V33.9636C649.309 34.1312 649.334 34.2619 649.385 34.3557C649.436 34.4466 649.507 34.5105 649.598 34.5474C649.692 34.5844 649.8 34.6028 649.922 34.6028C650.007 34.6028 650.093 34.5957 650.178 34.5815C650.263 34.5645 650.328 34.5517 650.374 34.5432L650.659 35.894C650.569 35.9224 650.441 35.9551 650.276 35.992C650.111 36.0318 649.911 36.0559 649.675 36.0645C649.238 36.0815 648.854 36.0233 648.525 35.8897C648.198 35.7562 647.944 35.5488 647.762 35.2676C647.58 34.9863 647.49 34.6312 647.493 34.2022V27.8613ZM653.538 32.1909V35.975H651.723V29.4295H653.453V30.5844H653.529C653.674 30.2037 653.917 29.9025 654.258 29.6809C654.599 29.4565 655.012 29.3443 655.498 29.3443C655.953 29.3443 656.349 29.4437 656.687 29.6426C657.025 29.8415 657.288 30.1255 657.476 30.4949C657.663 30.8613 657.757 31.2988 657.757 31.8074V35.975H655.941V32.1312C655.944 31.7307 655.842 31.4182 655.635 31.1937C655.427 30.9665 655.142 30.8528 654.778 30.8528C654.534 30.8528 654.318 30.9054 654.13 31.0105C653.946 31.1156 653.801 31.269 653.696 31.4707C653.593 31.6696 653.541 31.9096 653.538 32.1909Z" fill="#909090"/>
</g>
<defs>
<clipPath id="clip0_10_51">
<rect width="1200" height="58" fill="white"/>
</clipPath>
</defs>
</svg>
