<svg width="1200" height="58" viewBox="0 0 1200 58" fill="none" xmlns="http://www.w3.org/2000/svg">
<g clip-path="url(#clip0_10_15)">
<path d="M-0.5 0H1200.5V58H-0.5V0Z" fill="white"/>
<path d="M39.5 38C43.9183 38 47.5 34.4183 47.5 30C47.5 25.5817 43.9183 22 39.5 22C35.0817 22 31.5 25.5817 31.5 30C31.5 34.4183 35.0817 38 39.5 38Z" fill="#FF5B58"/>
<path d="M39.5 37.5C43.6421 37.5 47 34.1421 47 30C47 25.8579 43.6421 22.5 39.5 22.5C35.3579 22.5 32 25.8579 32 30C32 34.1421 35.3579 37.5 39.5 37.5Z" stroke="#EA5552"/>
<path d="M68.5 38C72.9183 38 76.5 34.4183 76.5 30C76.5 25.5817 72.9183 22 68.5 22C64.0817 22 60.5 25.5817 60.5 30C60.5 34.4183 64.0817 38 68.5 38Z" fill="#FDBD29"/>
<path d="M68.5 37.5C72.6421 37.5 76 34.1421 76 30C76 25.8579 72.6421 22.5 68.5 22.5C64.3579 22.5 61 25.8579 61 30C61 34.1421 64.3579 37.5 68.5 37.5Z" stroke="#EFB226"/>
<path d="M96.5 38C100.918 38 104.5 34.4183 104.5 30C104.5 25.5817 100.918 22 96.5 22C92.0817 22 88.5 25.5817 88.5 30C88.5 34.4183 92.0817 38 96.5 38Z" fill="#2DC93D"/>
<path d="M96.5 37.5C100.642 37.5 104 34.1421 104 30C104 25.8579 100.642 22.5 96.5 22.5C92.3579 22.5 89 25.8579 89 30C89 34.1421 92.3579 37.5 96.5 37.5Z" stroke="#2ABA39"/>
<path d="M147.07 36.76H148.68V22.38H147.07V36.76ZM145.27 26.08C145.346 26.081 145.421 26.0653 145.49 26.0343C145.559 26.0032 145.62 25.9573 145.67 25.9C145.778 25.8022 145.843 25.6655 145.85 25.52C145.85 25.4454 145.835 25.3715 145.805 25.3028C145.776 25.2342 145.734 25.172 145.68 25.12C145.567 25.0183 145.422 24.9614 145.27 24.96H143.34C143.191 24.961 143.048 25.0182 142.94 25.12C142.886 25.172 142.844 25.2342 142.815 25.3028C142.785 25.3715 142.77 25.4454 142.77 25.52C142.769 25.5933 142.784 25.666 142.813 25.7332C142.843 25.8004 142.886 25.8607 142.94 25.91C142.991 25.9645 143.053 26.0078 143.122 26.037C143.191 26.0663 143.265 26.0809 143.34 26.08H145.27ZM145.27 28.52C145.345 28.5209 145.419 28.5063 145.488 28.477C145.557 28.4478 145.619 28.4045 145.67 28.35C145.774 28.2609 145.839 28.1341 145.85 27.9974C145.862 27.8606 145.818 27.725 145.73 27.62L145.67 27.56C145.619 27.5055 145.557 27.4623 145.488 27.433C145.419 27.4037 145.345 27.3891 145.27 27.39H143.34C143.265 27.3903 143.191 27.4054 143.123 27.4346C143.054 27.4638 142.992 27.5064 142.94 27.56C142.886 27.6094 142.843 27.6696 142.813 27.7368C142.784 27.804 142.769 27.8767 142.77 27.95C142.77 28.0247 142.785 28.0985 142.815 28.1672C142.844 28.2359 142.886 28.298 142.94 28.35C142.991 28.4045 143.053 28.4478 143.122 28.477C143.191 28.5063 143.265 28.5209 143.34 28.52H145.27ZM145.27 30.95C145.345 30.9509 145.419 30.9363 145.488 30.907C145.557 30.8778 145.619 30.8345 145.67 30.78C145.726 30.734 145.772 30.676 145.803 30.6103C145.834 30.5446 145.85 30.4727 145.85 30.4C145.85 30.3254 145.835 30.2515 145.805 30.1828C145.776 30.1142 145.734 30.052 145.68 30C145.567 29.8983 145.422 29.8414 145.27 29.84H143.34C143.191 29.841 143.048 29.8982 142.94 30C142.886 30.052 142.844 30.1142 142.815 30.1828C142.785 30.2515 142.77 30.3254 142.77 30.4C142.769 30.4733 142.784 30.546 142.813 30.6132C142.843 30.6804 142.886 30.7407 142.94 30.79C143.048 30.8919 143.191 30.949 143.34 30.95H145.27ZM142.83 38.14H158.72C159.13 38.1765 159.544 38.1297 159.935 38.0026C160.327 37.8754 160.689 37.6705 161 37.4C161.265 37.1016 161.468 36.7534 161.597 36.3756C161.725 35.9978 161.778 35.5982 161.75 35.2V23.94C161.778 23.5419 161.725 23.1422 161.597 22.7644C161.468 22.3867 161.265 22.0384 161 21.74C160.698 21.4712 160.345 21.2662 159.962 21.1373C159.578 21.0084 159.173 20.9583 158.77 20.99H142.83C142.018 20.9334 141.217 21.1993 140.6 21.73C140.335 22.0284 140.132 22.3767 140.003 22.7544C139.874 23.1322 139.822 23.5319 139.85 23.93V35.19C139.822 35.5882 139.874 35.9878 140.003 36.3656C140.132 36.7434 140.335 37.0916 140.6 37.39C140.902 37.6588 141.255 37.8639 141.638 37.9927C142.022 38.1216 142.427 38.1717 142.83 38.14V38.14ZM142.9 36.47C142.534 36.4889 142.175 36.3632 141.9 36.12C141.659 35.8432 141.531 35.4866 141.54 35.12V24.12C141.521 23.7369 141.65 23.3611 141.9 23.07C142.178 22.8322 142.535 22.7074 142.9 22.72H158.65C158.832 22.7079 159.014 22.7327 159.186 22.7928C159.358 22.853 159.515 22.9473 159.65 23.07C159.778 23.2116 159.876 23.3776 159.938 23.5581C160 23.7386 160.024 23.9297 160.01 24.12V35.12C160.029 35.3029 160.007 35.4876 159.945 35.6608C159.883 35.834 159.784 35.9911 159.653 36.1206C159.523 36.2501 159.365 36.3487 159.191 36.4092C159.018 36.4696 158.833 36.4904 158.65 36.47H142.9Z" fill="#909090"/>
<path d="M204.43 38L197.19 30.91C197.085 30.8174 197 30.7037 196.941 30.5762C196.883 30.4487 196.852 30.3103 196.85 30.17C196.851 30.0285 196.881 29.8887 196.94 29.76C196.999 29.6276 197.084 29.5085 197.19 29.41L204.44 22.33C204.623 22.1537 204.866 22.0536 205.12 22.05C205.385 22.05 205.64 22.1553 205.827 22.3429C206.015 22.5304 206.12 22.7848 206.12 23.05C206.116 23.3138 206.008 23.5654 205.82 23.75L198.74 30.64V29.72L205.82 36.62C206.008 36.8046 206.116 37.0562 206.12 37.32C206.117 37.4947 206.073 37.6661 205.99 37.82C205.9 37.9617 205.777 38.0786 205.63 38.16C205.478 38.2464 205.305 38.2912 205.13 38.29C205.004 38.287 204.879 38.2633 204.76 38.22C204.638 38.1656 204.527 38.0913 204.43 38V38Z" fill="#909090"/>
<path opacity="0.5" d="M235.53 38L242.78 30.91C242.884 30.8165 242.966 30.7023 243.023 30.5749C243.08 30.4475 243.11 30.3095 243.11 30.17C243.109 30.0285 243.079 29.8887 243.02 29.76C242.961 29.6301 242.88 29.5116 242.78 29.41L235.52 22.33C235.379 22.2056 235.205 22.1235 235.02 22.0932C234.834 22.0629 234.644 22.0856 234.47 22.1587C234.297 22.2318 234.148 22.3524 234.04 22.5065C233.932 22.6606 233.869 22.8421 233.86 23.03C233.861 23.2923 233.965 23.5437 234.15 23.73L241.23 30.62V29.7L234.15 36.6C233.965 36.7862 233.861 37.0376 233.86 37.3C233.852 37.476 233.897 37.6503 233.99 37.8C234.072 37.944 234.194 38.0619 234.34 38.14C234.492 38.2264 234.665 38.2712 234.84 38.27C234.97 38.267 235.098 38.2434 235.22 38.2C235.332 38.1488 235.437 38.0814 235.53 38V38Z" fill="#909090"/>
<path d="M1071.83 40H1082.45C1082.85 40.0317 1083.26 39.9816 1083.64 39.8527C1084.02 39.7238 1084.38 39.5188 1084.68 39.25C1084.95 38.9534 1085.15 38.6051 1085.28 38.2267C1085.41 37.8483 1085.45 37.4478 1085.42 37.05V27.94C1085.45 27.5425 1085.4 27.1433 1085.27 26.7655C1085.14 26.3878 1084.94 26.0392 1084.68 25.74C1084.38 25.4712 1084.02 25.2662 1083.64 25.1373C1083.26 25.0084 1082.85 24.9583 1082.45 24.99H1079.92V26.67H1082.38C1082.56 26.6496 1082.75 26.6704 1082.92 26.7308C1083.09 26.7913 1083.25 26.8899 1083.38 27.0194C1083.51 27.149 1083.61 27.3061 1083.68 27.4792C1083.74 27.6524 1083.76 27.8372 1083.74 28.02V37.02C1083.75 37.3869 1083.62 37.7442 1083.38 38.02C1083.1 38.2622 1082.75 38.3878 1082.38 38.37H1071.9C1071.53 38.3888 1071.17 38.2632 1070.9 38.02C1070.78 37.886 1070.68 37.7284 1070.62 37.5566C1070.56 37.3848 1070.53 37.2023 1070.54 37.02V28.05C1070.5 27.7269 1070.59 27.401 1070.79 27.1428C1070.99 26.8846 1071.28 26.7148 1071.6 26.67C1071.7 26.66 1071.81 26.66 1071.91 26.67H1074.38V25H1071.84C1071.44 24.9389 1071.02 24.9727 1070.64 25.0986C1070.25 25.2244 1069.89 25.439 1069.6 25.7252C1069.31 26.0114 1069.09 26.3614 1068.96 26.7476C1068.83 27.1337 1068.79 27.5454 1068.84 27.95V37.09C1068.81 37.4882 1068.86 37.8878 1068.99 38.2656C1069.12 38.6434 1069.32 38.9916 1069.59 39.29C1070.21 39.8064 1071.01 40.0611 1071.81 40H1071.83ZM1077.15 32.7C1077.36 32.6949 1077.56 32.609 1077.71 32.4601C1077.86 32.3111 1077.94 32.1106 1077.95 31.9V22.54L1077.89 21.17L1078.49 21.83L1079.82 23.25C1079.89 23.3288 1079.97 23.3914 1080.07 23.4329C1080.16 23.4745 1080.27 23.494 1080.37 23.49C1080.56 23.491 1080.74 23.4195 1080.88 23.29C1080.95 23.2271 1081 23.1497 1081.04 23.0633C1081.08 22.9769 1081.09 22.8836 1081.09 22.79C1081.09 22.6924 1081.07 22.5963 1081.03 22.507C1080.99 22.4178 1080.93 22.3372 1080.86 22.27L1077.75 19.27C1077.66 19.1811 1077.56 19.1099 1077.44 19.06C1077.34 19.0204 1077.24 19 1077.14 19C1077.04 19 1076.93 19.0204 1076.84 19.06C1076.72 19.1099 1076.62 19.1811 1076.53 19.27L1073.43 22.27C1073.36 22.3365 1073.3 22.4169 1073.26 22.5063C1073.22 22.5957 1073.2 22.6923 1073.2 22.79C1073.2 22.8836 1073.21 22.9769 1073.25 23.0633C1073.29 23.1497 1073.34 23.2271 1073.41 23.29C1073.55 23.4195 1073.73 23.491 1073.92 23.49C1074.02 23.4894 1074.13 23.4678 1074.22 23.4266C1074.31 23.3853 1074.4 23.3252 1074.47 23.25L1075.81 21.82L1076.41 21.15L1076.34 22.53V31.91C1076.35 32.1196 1076.43 32.3191 1076.58 32.4664C1076.73 32.6137 1076.93 32.6975 1077.14 32.7H1077.15Z" fill="#909090"/>
<path d="M1116.54 37.66C1116.71 37.668 1116.87 37.6225 1117.01 37.53C1117.15 37.4477 1117.27 37.3264 1117.35 37.18C1117.44 37.0475 1117.49 36.8907 1117.49 36.73V30.78H1123.28C1123.44 30.7821 1123.6 30.737 1123.74 30.65C1123.89 30.5719 1124.01 30.4541 1124.09 30.31C1124.17 30.1635 1124.22 29.9984 1124.22 29.83C1124.22 29.665 1124.17 29.5035 1124.09 29.36C1124 29.2197 1123.88 29.1004 1123.74 29.01C1123.6 28.9278 1123.44 28.883 1123.28 28.88H1117.49V22.94C1117.49 22.7731 1117.44 22.6098 1117.35 22.47C1117.27 22.3285 1117.15 22.2112 1117.01 22.13C1116.87 22.0417 1116.71 21.9965 1116.54 22C1116.37 21.9969 1116.2 22.0419 1116.06 22.13C1115.92 22.2112 1115.8 22.3285 1115.72 22.47C1115.63 22.6106 1115.59 22.774 1115.59 22.94V28.88H1109.8C1109.64 28.882 1109.48 28.9306 1109.34 29.02C1109.2 29.1027 1109.08 29.2195 1108.99 29.36C1108.9 29.5008 1108.85 29.6661 1108.85 29.835C1108.85 30.004 1108.9 30.1692 1108.99 30.31C1109.08 30.4505 1109.2 30.5673 1109.34 30.65C1109.48 30.737 1109.64 30.7821 1109.8 30.78H1115.59V36.73C1115.59 36.892 1115.64 37.0504 1115.72 37.19C1115.8 37.3341 1115.92 37.4519 1116.07 37.53C1116.21 37.6183 1116.37 37.6635 1116.54 37.66Z" fill="#909090"/>
<path d="M1155.38 39.62H1164.7C1165.51 39.6766 1166.31 39.4107 1166.93 38.88C1167.2 38.5816 1167.4 38.2334 1167.53 37.8556C1167.66 37.4778 1167.71 37.0782 1167.68 36.68V27.28C1167.74 26.8761 1167.69 26.4649 1167.56 26.0793C1167.43 25.6938 1167.21 25.3446 1166.92 25.0598C1166.63 24.7749 1166.27 24.5624 1165.88 24.4391C1165.49 24.3159 1165.08 24.2853 1164.68 24.35H1155.36C1154.96 24.2853 1154.55 24.3159 1154.16 24.4391C1153.77 24.5624 1153.41 24.7749 1153.12 25.0598C1152.83 25.3446 1152.61 25.6938 1152.48 26.0793C1152.35 26.4649 1152.3 26.8761 1152.36 27.28V36.68C1152.31 37.0838 1152.35 37.4943 1152.48 37.8792C1152.62 38.264 1152.84 38.6127 1153.13 38.8978C1153.42 39.1828 1153.77 39.3964 1154.16 39.5217C1154.55 39.6471 1154.96 39.6807 1155.36 39.62H1155.38ZM1155.45 37.94C1155.27 37.9521 1155.09 37.9273 1154.91 37.8672C1154.74 37.8071 1154.58 37.7128 1154.45 37.59C1154.21 37.3142 1154.08 36.9569 1154.09 36.59V27.41C1154.07 27.2485 1154.08 27.0844 1154.12 26.9271C1154.16 26.7698 1154.24 26.6224 1154.34 26.4933C1154.44 26.3642 1154.56 26.256 1154.7 26.1748C1154.84 26.0936 1155 26.041 1155.16 26.02H1164.64C1165.01 26.0073 1165.36 26.1322 1165.64 26.37C1165.76 26.504 1165.86 26.6616 1165.92 26.8334C1165.98 27.0052 1166.01 27.1877 1166 27.37V36.51C1166.04 36.8373 1165.95 37.167 1165.75 37.4273C1165.54 37.6877 1165.25 37.8576 1164.92 37.9H1164.63L1155.45 37.94ZM1150.83 35.27H1153.25V33.59H1150.9C1150.58 33.6296 1150.25 33.5391 1149.99 33.3385C1149.74 33.1378 1149.57 32.8435 1149.53 32.52C1149.52 32.4169 1149.52 32.3131 1149.53 32.21V23.06C1149.52 22.8777 1149.55 22.6952 1149.61 22.5234C1149.67 22.3516 1149.77 22.194 1149.89 22.06C1150.17 21.8223 1150.53 21.7005 1150.89 21.72H1160.07C1160.44 21.7012 1160.8 21.8268 1161.07 22.07C1161.19 22.204 1161.29 22.3616 1161.35 22.5334C1161.41 22.7052 1161.44 22.8877 1161.43 23.07V25.07H1163.11V22.94C1163.14 22.5408 1163.09 22.1395 1162.96 21.761C1162.83 21.3825 1162.62 21.035 1162.35 20.74C1162.05 20.4755 1161.7 20.2737 1161.32 20.1466C1160.94 20.0195 1160.54 19.9697 1160.14 20H1150.81C1150.41 19.9669 1150 20.0155 1149.62 20.1426C1149.24 20.2698 1148.88 20.4729 1148.58 20.74C1148.31 21.0384 1148.11 21.3866 1147.98 21.7644C1147.85 22.1422 1147.8 22.5418 1147.83 22.94V32.34C1147.78 32.7435 1147.82 33.1538 1147.95 33.5383C1148.08 33.9228 1148.31 34.2711 1148.6 34.5554C1148.89 34.8398 1149.24 35.0524 1149.63 35.1764C1150.02 35.3004 1150.43 35.3325 1150.83 35.27V35.27Z" fill="#909090"/>
<path d="M853.5 15H385.5C381.082 15 377.5 18.5817 377.5 23V37C377.5 41.4183 381.082 45 385.5 45H853.5C857.918 45 861.5 41.4183 861.5 37V23C861.5 18.5817 857.918 15 853.5 15Z" fill="#F2F2F2"/>
<path d="M853.5 15.5H385.5C381.358 15.5 378 18.8579 378 23V37C378 41.1421 381.358 44.5 385.5 44.5H853.5C857.642 44.5 861 41.1421 861 37V23C861 18.8579 857.642 15.5 853.5 15.5Z" stroke="#E7E7E7"/>
<path d="M575.8 37.9999H582.64C582.83 38.0141 583.021 37.9895 583.202 37.9276C583.382 37.8657 583.548 37.7679 583.69 37.6399C583.814 37.4797 583.905 37.2965 583.959 37.1009C584.012 36.9052 584.026 36.701 584 36.4999V31.2199C584.026 30.8161 583.902 30.4169 583.65 30.0999C583.507 29.9712 583.339 29.873 583.157 29.8111C582.975 29.7492 582.782 29.725 582.59 29.7399H575.88C575.479 29.7207 575.084 29.8488 574.77 30.0999C574.622 30.2421 574.509 30.4158 574.438 30.608C574.367 30.8002 574.34 31.006 574.36 31.2099V36.4999C574.341 36.7005 574.362 36.903 574.422 37.0953C574.482 37.2877 574.58 37.4661 574.71 37.6199C574.854 37.7582 575.025 37.8638 575.213 37.9294C575.402 37.995 575.602 38.0191 575.8 37.9999V37.9999ZM575.55 30.2599H576.82V27.8599C576.804 27.3563 576.918 26.857 577.15 26.4099C577.355 26.037 577.659 25.7287 578.03 25.5199C578.396 25.323 578.805 25.2199 579.22 25.2199C579.635 25.2199 580.044 25.323 580.41 25.5199C580.778 25.7293 581.079 26.0377 581.28 26.4099C581.512 26.857 581.626 27.3563 581.61 27.8599V30.2599H582.88V27.9999C582.893 27.3987 582.787 26.8007 582.57 26.2399C582.396 25.7845 582.128 25.3709 581.784 25.0262C581.439 24.6816 581.025 24.4136 580.57 24.2399C579.697 23.9097 578.733 23.9097 577.86 24.2399C577.42 24.4078 577.019 24.6629 576.68 24.9899C576.32 25.3388 576.04 25.7619 575.86 26.2299C575.651 26.7926 575.549 27.3897 575.56 27.9899L575.55 30.2599Z" fill="#909090"/>
<path d="M840.84 26.72L841.37 25.6C840.957 25.4205 840.524 25.2896 840.08 25.21C839.629 25.1184 839.17 25.0715 838.71 25.07C837.846 25.0658 836.989 25.2343 836.19 25.5657C835.392 25.8972 834.668 26.3848 834.06 27C833.466 27.6025 832.991 28.3115 832.66 29.09C832.276 29.9871 832.097 30.9584 832.135 31.9334C832.174 32.9084 832.429 33.8626 832.882 34.7268C833.335 35.5909 833.975 36.3432 834.755 36.9291C835.536 37.5149 836.437 37.9196 837.393 38.1138C838.349 38.3079 839.337 38.2866 840.284 38.0514C841.231 37.8162 842.113 37.373 842.868 36.754C843.622 36.1351 844.229 35.3558 844.645 34.473C845.06 33.5901 845.274 32.6258 845.27 31.65C845.274 31.5633 845.261 31.4767 845.232 31.395C845.202 31.3134 845.157 31.2384 845.098 31.1743C845.04 31.1102 844.969 31.0583 844.89 31.0215C844.812 30.9848 844.727 30.9638 844.64 30.96H844.57C844.482 30.9545 844.393 30.9697 844.311 31.0044C844.23 31.0391 844.157 31.0924 844.1 31.16C843.983 31.3 843.919 31.4773 843.92 31.66C843.925 32.6889 843.624 33.696 843.056 34.554C842.489 35.412 841.679 36.0823 840.73 36.48C839.427 37.0195 837.963 37.0195 836.66 36.48C835.405 35.9327 834.409 34.9227 833.88 33.66C833.35 32.3517 833.35 30.8883 833.88 29.58C834.142 28.956 834.522 28.3888 835 27.91C835.48 27.4386 836.043 27.059 836.66 26.79C837.293 26.5226 837.973 26.3865 838.66 26.39C839.052 26.3868 839.443 26.4135 839.83 26.47C840.175 26.513 840.515 26.5969 840.84 26.72V26.72ZM838.48 29.72C838.567 29.7272 838.654 29.7148 838.736 29.6836C838.817 29.6525 838.89 29.6034 838.95 29.54L841.95 26.48C842.019 26.4163 842.074 26.339 842.112 26.253C842.15 26.1669 842.169 26.074 842.169 25.98C842.169 25.886 842.15 25.7931 842.112 25.707C842.074 25.621 842.019 25.5437 841.95 25.48L838.95 22.41C838.832 22.2921 838.672 22.226 838.505 22.226C838.338 22.226 838.178 22.2921 838.06 22.41C837.996 22.4726 837.946 22.5474 837.912 22.6298C837.877 22.7122 837.86 22.8007 837.86 22.89C837.86 22.9769 837.88 23.0627 837.92 23.14C837.947 23.2217 837.992 23.2967 838.05 23.36L840.67 26L838 28.6C837.939 28.6629 837.891 28.7378 837.86 28.82C837.82 28.8937 837.8 28.9762 837.8 29.06C837.799 29.148 837.816 29.2352 837.85 29.3162C837.885 29.3971 837.936 29.47 838 29.53C838.123 29.6509 838.288 29.7191 838.46 29.72H838.48Z" fill="#909090"/>
<path d="M345.73 21.55L338.59 24.25V32.83L339.28 34.67L345.74 38.67L345.73 21.55ZM345.73 39.74C345.829 39.7388 345.927 39.7219 346.02 39.69C346.141 39.6537 346.258 39.6069 346.37 39.55C347.7 38.83 348.81 38.17 349.72 37.6C350.506 37.1212 351.24 36.5615 351.91 35.93C352.431 35.4392 352.84 34.8424 353.11 34.18C353.372 33.4769 353.498 32.7302 353.48 31.98V25C353.522 24.5901 353.407 24.1795 353.16 23.85C352.875 23.5736 352.534 23.3621 352.16 23.23L351 22.74L349.36 22.14L347.73 21.56L346.58 21.15C346.436 21.1028 346.289 21.066 346.14 21.04H345.69C345.542 21.0412 345.395 21.058 345.25 21.09L344.8 21.19L343.66 21.57L342.02 22.16L340.39 22.77L339.22 23.22C338.844 23.3472 338.501 23.5593 338.22 23.84C338.01 24.1876 337.932 24.5994 338 25V32C337.982 32.7502 338.108 33.4969 338.37 34.2C338.642 34.8785 339.054 35.4919 339.58 36C340.255 36.6293 340.992 37.1888 341.78 37.67C342.69 38.24 343.78 38.89 345.12 39.67C345.229 39.727 345.343 39.7739 345.46 39.81C345.553 39.8419 345.651 39.8588 345.75 39.86L345.73 39.74ZM345.73 37.9C345.658 37.92 345.582 37.92 345.51 37.9L345.18 37.74C344.12 37.1 343.23 36.54 342.52 36.08C341.907 35.6984 341.331 35.2598 340.8 34.77C340.4 34.3976 340.089 33.9395 339.89 33.43C339.687 32.8695 339.592 32.2757 339.61 31.68V25.28C339.6 25.1569 339.62 25.0331 339.67 24.92C339.733 24.827 339.824 24.7568 339.93 24.72L340.93 24.36L342 23.9L343.2 23.47L344.33 23.07L345.26 22.72L345.5 22.65H345.89L346.13 22.72L347.05 23.08L348.18 23.49L349.38 23.92L350.53 24.34L351.53 24.68C351.637 24.7099 351.729 24.7774 351.79 24.87C351.829 24.9859 351.85 25.1075 351.85 25.23V31.63C351.863 32.2287 351.768 32.8248 351.57 33.39C351.365 33.9017 351.051 34.3624 350.65 34.74C350.119 35.2266 349.543 35.6619 348.93 36.04C348.21 36.5 347.33 37.04 346.27 37.69C346.171 37.7571 346.063 37.8109 345.95 37.85C345.875 37.8699 345.795 37.8699 345.72 37.85L345.73 37.9Z" fill="#909090"/>
<path d="M597.719 36.0063V27.279H599.565V30.8799H603.31V27.279H605.151V36.0063H603.31V32.4012H599.565V36.0063H597.719ZM610.836 33.2194V29.4608H612.651V36.0063H610.908V34.8174H610.84C610.692 35.2009 610.447 35.5091 610.103 35.7421C609.762 35.975 609.346 36.0915 608.854 36.0915C608.417 36.0915 608.032 35.9921 607.7 35.7932C607.367 35.5944 607.107 35.3117 606.92 34.9452C606.735 34.5787 606.641 34.1398 606.638 33.6284V29.4608H608.454V33.3046C608.457 33.6909 608.56 33.9963 608.765 34.2208C608.969 34.4452 609.244 34.5574 609.587 34.5574C609.806 34.5574 610.011 34.5077 610.201 34.4083C610.391 34.306 610.545 34.1554 610.661 33.9566C610.78 33.7577 610.839 33.512 610.836 33.2194ZM614.103 36.0063V29.4608H615.833V30.6157H615.91C616.046 30.2321 616.274 29.9296 616.592 29.708C616.91 29.4864 617.291 29.3756 617.734 29.3756C618.183 29.3756 618.565 29.4878 618.88 29.7123C619.196 29.9338 619.406 30.235 619.511 30.6157H619.579C619.713 30.2407 619.954 29.9409 620.304 29.7165C620.656 29.4892 621.072 29.3756 621.552 29.3756C622.163 29.3756 622.659 29.5702 623.039 29.9594C623.423 30.3458 623.615 30.8941 623.615 31.6043V36.0063H621.804V31.9623C621.804 31.5986 621.707 31.3259 621.514 31.1441C621.321 30.9623 621.079 30.8713 620.789 30.8713C620.46 30.8713 620.203 30.9765 620.018 31.1867C619.833 31.3941 619.741 31.6682 619.741 32.0091V36.0063H617.981V31.9239C617.981 31.6029 617.889 31.3472 617.704 31.1569C617.522 30.9665 617.282 30.8713 616.984 30.8713C616.782 30.8713 616.6 30.9225 616.439 31.0248C616.279 31.1242 616.153 31.2648 616.059 31.4466C615.965 31.6256 615.919 31.8358 615.919 32.0773V36.0063H614.103ZM625.083 36.0063V27.279H626.898V30.5603H626.953C627.033 30.3841 627.148 30.2052 627.299 30.0233C627.452 29.8387 627.651 29.6853 627.895 29.5631C628.142 29.4381 628.449 29.3756 628.816 29.3756C629.293 29.3756 629.733 29.5006 630.137 29.7506C630.54 29.9978 630.863 30.3713 631.104 30.8713C631.345 31.3685 631.466 31.9921 631.466 32.7421C631.466 33.4722 631.348 34.0887 631.113 34.5915C630.88 35.0915 630.561 35.4708 630.158 35.7293C629.757 35.985 629.309 36.1128 628.811 36.1128C628.459 36.1128 628.159 36.0546 627.912 35.9381C627.668 35.8216 627.468 35.6753 627.311 35.4992C627.155 35.3202 627.036 35.1398 626.953 34.958H626.872V36.0063H625.083ZM626.86 32.7336C626.86 33.1228 626.914 33.4623 627.022 33.752C627.13 34.0418 627.286 34.2677 627.49 34.4296C627.695 34.5887 627.943 34.6682 628.236 34.6682C628.532 34.6682 628.782 34.5873 628.986 34.4253C629.191 34.2605 629.345 34.0333 629.451 33.7435C629.559 33.4509 629.613 33.1142 629.613 32.7336C629.613 32.3557 629.56 32.0233 629.455 31.7364C629.35 31.4495 629.195 31.225 628.99 31.0631C628.786 30.9012 628.534 30.8202 628.236 30.8202C627.941 30.8202 627.691 30.8983 627.486 31.0546C627.284 31.2108 627.13 31.4324 627.022 31.7194C626.914 32.0063 626.86 32.3444 626.86 32.7336ZM634.493 27.279V36.0063H632.677V27.279H634.493ZM638.93 36.1341C638.257 36.1341 637.677 35.9978 637.191 35.725C636.708 35.4495 636.336 35.0603 636.075 34.5574C635.814 34.0517 635.683 33.4537 635.683 32.7634C635.683 32.0901 635.814 31.4992 636.075 30.9907C636.336 30.4821 636.704 30.0858 637.179 29.8017C637.656 29.5177 638.215 29.3756 638.858 29.3756C639.289 29.3756 639.691 29.4452 640.064 29.5844C640.439 29.7208 640.765 29.9267 641.044 30.2023C641.325 30.4779 641.544 30.8245 641.7 31.2421C641.856 31.6569 641.934 32.1427 641.934 32.6995V33.198H636.407V32.073H640.225C640.225 31.8117 640.169 31.5802 640.055 31.3784C639.941 31.1767 639.784 31.0191 639.582 30.9054C639.383 30.789 639.152 30.7307 638.887 30.7307C638.612 30.7307 638.367 30.7946 638.154 30.9225C637.944 31.0475 637.779 31.2165 637.66 31.4296C637.541 31.6398 637.48 31.8742 637.477 32.1327V33.2023C637.477 33.5262 637.537 33.806 637.656 34.0418C637.778 34.2776 637.95 34.4594 638.171 34.5873C638.393 34.7151 638.656 34.779 638.96 34.779C639.162 34.779 639.346 34.7506 639.514 34.6938C639.681 34.637 639.825 34.5517 639.944 34.4381C640.064 34.3245 640.154 34.1853 640.217 34.0205L641.896 34.1313C641.811 34.5347 641.636 34.887 641.372 35.1881C641.11 35.4864 640.772 35.7194 640.358 35.887C639.946 36.0517 639.47 36.1341 638.93 36.1341ZM644.18 36.1171C643.899 36.1171 643.657 36.0177 643.456 35.8188C643.257 35.6171 643.157 35.3756 643.157 35.0944C643.157 34.8159 643.257 34.5773 643.456 34.3784C643.657 34.1796 643.899 34.0802 644.18 34.0802C644.453 34.0802 644.691 34.1796 644.896 34.3784C645.1 34.5773 645.203 34.8159 645.203 35.0944C645.203 35.2819 645.154 35.4537 645.058 35.61C644.964 35.7634 644.84 35.887 644.687 35.9807C644.534 36.0716 644.365 36.1171 644.18 36.1171ZM650.175 29.4608V30.8245H646.233V29.4608H650.175ZM647.128 27.8927H648.943V33.9949C648.943 34.1625 648.969 34.2932 649.02 34.387C649.071 34.4779 649.142 34.5418 649.233 34.5787C649.327 34.6157 649.435 34.6341 649.557 34.6341C649.642 34.6341 649.727 34.627 649.812 34.6128C649.898 34.5958 649.963 34.583 650.008 34.5745L650.294 35.9253C650.203 35.9537 650.075 35.9864 649.91 36.0233C649.746 36.0631 649.545 36.0873 649.31 36.0958C648.872 36.1128 648.489 36.0546 648.159 35.9211C647.832 35.7875 647.578 35.5802 647.396 35.2989C647.214 35.0177 647.125 34.6625 647.128 34.2336V27.8927ZM653.173 32.2222V36.0063H651.357V29.4608H653.087V30.6157H653.164C653.309 30.235 653.552 29.9338 653.893 29.7123C654.234 29.4878 654.647 29.3756 655.133 29.3756C655.587 29.3756 655.984 29.475 656.322 29.6739C656.66 29.8728 656.923 30.1569 657.11 30.5262C657.298 30.8927 657.391 31.3302 657.391 31.8387V36.0063H655.576V32.1625C655.579 31.762 655.477 31.4495 655.269 31.225C655.062 30.9978 654.776 30.8841 654.413 30.8841C654.168 30.8841 653.952 30.9367 653.765 31.0418C653.58 31.1469 653.435 31.3003 653.33 31.502C653.228 31.7009 653.175 31.9409 653.173 32.2222Z" fill="#909090"/>
</g>
<defs>
<clipPath id="clip0_10_15">
<rect width="1200" height="58" fill="white"/>
</clipPath>
</defs>
</svg>
