<svg height='100px' width='100px'  fill="#000000" xmlns="http://www.w3.org/2000/svg" xmlns:xlink="http://www.w3.org/1999/xlink" version="1.1" x="0px" y="0px" viewBox="0 0 100 100" style="enable-background:new 0 0 100 100;" xml:space="preserve"><style type="text/css">
	.st0{fill:#000000;}
</style><g><g><polygon class="st0" points="63,22.4 59.6,10 40.2,10 36.9,22.4 33.1,21.7 37.4,6.2 62.4,6.2 66.7,21.7   "></polygon></g><g><polygon class="st0" points="62.4,93.8 37.4,93.8 33.1,78.3 36.9,77.6 40.2,90 59.6,90 63,77.6 66.7,78.3   "></polygon></g><g><path class="st0" d="M66.3,79.8H33.5c-5.4,0-9.7-4.3-9.7-9.7V29.9c0-5.4,4.3-9.7,9.7-9.7h33c5.2,0,9.7,4.3,9.7,9.7v40.5    C76,75.5,71.7,79.8,66.3,79.8z M33.5,23.9c-3.4,0-6,2.6-6,6v40.5c0,3.2,2.6,5.8,6,5.8h33c3.2,0,6-2.6,6-6V29.9c0-3.2-2.6-6-6-6    H33.5z"></path></g></g></svg>