<svg height='100px' width='100px'  fill="#000000" xmlns="http://www.w3.org/2000/svg" data-name="Layer 1" viewBox="0 0 64 64" x="0px" y="0px"><title>Internet of Things</title><path d="M58,9H6a3,3,0,0,0-3,3V44a3,3,0,0,0,3,3H27v2H22a3,3,0,0,0-3,3v3H45V52a3,3,0,0,0-3-3H37V47H58a3,3,0,0,0,3-3V12A3,3,0,0,0,58,9ZM42,51a1,1,0,0,1,1,1v1H21V52a1,1,0,0,1,1-1H42Zm-7-2H29V47h6Zm24-5a1,1,0,0,1-1,1H6a1,1,0,0,1-1-1V43H59ZM5,41V12a1,1,0,0,1,1-1H58a1,1,0,0,1,1,1V41Z"></path><path d="M34.186,32.03a3.094,3.094,0,0,0-4.371,0l-1.434-1.395a5.026,5.026,0,0,1,7.239,0Z"></path><path d="M37.219,28.91a7.23,7.23,0,0,0-10.437,0l-1.433-1.394a9.227,9.227,0,0,1,13.3,0Z"></path><path d="M40.251,25.791a11.434,11.434,0,0,0-16.5,0L22.316,24.4a13.435,13.435,0,0,1,19.369,0Z"></path><path d="M43.284,22.671a15.64,15.64,0,0,0-22.567,0l-1.433-1.394a17.637,17.637,0,0,1,25.433,0Z"></path><circle cx="32" cy="33.861" r="1"></circle></svg>