<svg height='100px' width='100px'  fill="#000000" xmlns="http://www.w3.org/2000/svg" data-name="Layer 1" viewBox="0 0 64 64" x="0px" y="0px"><title>Internet of Things</title><path d="M34.533,20.9a3.591,3.591,0,0,0-5.066,0l-1.434-1.394a5.505,5.505,0,0,1,7.934,0Z"></path><path d="M37.929,17.408a8.214,8.214,0,0,0-11.858,0l-1.434-1.394a10.214,10.214,0,0,1,14.726,0Z"></path><path d="M41.324,13.916a12.918,12.918,0,0,0-18.648,0l-1.434-1.395a14.92,14.92,0,0,1,21.516,0Z"></path><path d="M44.721,10.423a17.632,17.632,0,0,0-25.442,0L17.846,9.028a19.631,19.631,0,0,1,28.308,0Z"></path><circle cx="32" cy="23.036" r="1.12"></circle><path d="M13.313,57a3,3,0,1,1,3-3A3,3,0,0,1,13.313,57Zm0-4a1,1,0,1,0,1,1A1,1,0,0,0,13.313,53Z"></path><path d="M61,47.05A7.4,7.4,0,0,0,59.03,42L57.7,40.59V35.96l-3.48-6.33A5,5,0,0,0,49.86,27H32.58a10.676,10.676,0,0,0-6.14,1.94l-12.23,8.5L6.63,41.76A7.294,7.294,0,0,0,3,48.14l.03,5.1a3.057,3.057,0,0,0,3,3.07h.68a6.989,6.989,0,0,0,13.2,0H46.4A7,7,0,0,0,60,54a3.708,3.708,0,0,0-.03-.47A3.112,3.112,0,0,0,61,51.2ZM27.58,30.58a8.747,8.747,0,0,1,5-1.58H40.3v4.31a2.1,2.1,0,0,1-1.86,2.13L18.31,37.02ZM13.31,59a5,5,0,0,1-4.43-2.69,4.662,4.662,0,0,1-.55-2A1.615,1.615,0,0,1,8.31,54a5,5,0,1,1,10,0,1.615,1.615,0,0,1-.02.31,4.535,4.535,0,0,1-.09.74A5.029,5.029,0,0,1,13.31,59Zm0-12a7.008,7.008,0,0,0-7,7,1.564,1.564,0,0,0,.02.31h-.3a1.042,1.042,0,0,1-1-1.08L5,48.13a5.311,5.311,0,0,1,2.62-4.64L15,39.29l23.6-1.86a4.092,4.092,0,0,0,3.7-4.12V29h4.77v6.57a2.286,2.286,0,0,1-.2.93l-1.94,4.2a9.145,9.145,0,0,1-4.62,4.59L20.3,54.12a.487.487,0,0,0,.01-.12A7.008,7.008,0,0,0,13.31,47ZM53,59a5.013,5.013,0,0,1-4.56-2.94,4.759,4.759,0,0,1-.43-1.96A.34.34,0,0,1,48,54a5,5,0,1,1,10,0,1.884,1.884,0,0,1-.02.34A5,5,0,0,1,53,59Zm0-12a7.008,7.008,0,0,0-7,7,1.564,1.564,0,0,0,.02.31H24.83l16.29-7.19a11.21,11.21,0,0,0,5.63-5.58l1.94-4.2a4.333,4.333,0,0,0,.38-1.77V29h.79a2.979,2.979,0,0,1,2.6,1.59l3.24,5.88v4.92l1.86,1.97A5.4,5.4,0,0,1,59,47.05V50.4A6.989,6.989,0,0,0,53,47Z"></path><path d="M53,57a3,3,0,1,1,3-3A3,3,0,0,1,53,57Zm0-4a1,1,0,1,0,1,1A1,1,0,0,0,53,53Z"></path></svg>