<svg enable-background="new 0 0 100 100" viewBox="0 0 100 100" xmlns="http://www.w3.org/2000/svg"><g transform="translate(0 -288.53333)"><path d="m25.3 322.3c0-.9.2-1.8.5-2.6s.8-1.5 1.4-2.1 1.4-1.1 2.2-1.4 1.8-.5 2.8-.5 2 .2 2.8.5c.9.3 1.6.8 2.2 1.4s1.1 1.3 1.4 2.1.5 1.6.5 2.6-.2 1.8-.5 2.6-.8 1.5-1.4 2.1-1.3 1-2.2 1.4c-.8.3-1.8.5-2.8.5s-2-.2-2.8-.5-1.6-.8-2.2-1.4-1.1-1.3-1.4-2.1c-.4-.8-.5-1.6-.5-2.6z"/><path d="m74.8 338.9c0 3.8-.3 7.5-.9 10.9s-1.5 6.6-2.5 9.6-2.3 5.7-3.7 8.2-2.9 4.7-4.5 6.6-3.3 3.6-5 4.9c-1.7 1.4-3.4 2.4-5 3.1l-2.4-6.5c1.6-1.2 3.1-2.8 4.7-4.9 1.5-2 2.9-4.5 4.2-7.6 1.2-3 2.2-6.5 3-10.5s1.2-8.6 1.2-13.8v-1.1c0-5.2-.4-9.7-1.2-13.8-.8-4-1.8-7.5-3.1-10.5-1.2-3-2.6-5.5-4.2-7.6-1.5-2.1-3.1-3.7-4.6-4.9l2.4-6.5c1.6.7 3.3 1.7 5 3.1s3.4 3 5 4.9 3.1 4.1 4.5 6.6 2.6 5.2 3.7 8.2 1.9 6.2 2.5 9.6.9 7 .9 10.9z"/></g></svg>