<svg enable-background="new 0 0 1847.5 823.2" viewBox="0 0 1847.5 823.2" xmlns="http://www.w3.org/2000/svg"><g clip-rule="evenodd" fill="#ededed" fill-rule="evenodd"><path d="m1256.9 250.6h-5.2l-3.7-.5-2.4 2.8-2 .7-1.5 1.3-2.5-2-1-5.2-1.6-.3v-1.9l-3.1-1.5-1.7 2.2.2 2.5-.6.9-3.1-.1-.9 2.9-2-1.3-3.2 2-1.8-.8-4.2-1.4h-2.8l-1.6-.2-2.8-1.6-.3 2.2-4 1.2.1 5-2.4 2-3.9.9-.4 2.9-3.8.8-5.7-2.3-.5 7.8-.5 4.6 2.4.9-1.6 3.4 2.6 5 1.1 3.9 4.2 1.1 1.1 3.9-3.8 5.6 9.3 3.1 5.2-.9 3.2.8.9-1.4 3.7.5 6.4-2.5-.8-5.2 2.2-3.5h3.9l.2-1.6 3.9-.9 2 .6 1.7-1.8-1.1-3.7 1.5-3.7 2.9-1.5-2.9-4.1 5 .2.9-2.2-.8-2.4 2-2.6-1.4-3.1-1.8-2.7 2.3-2.7 5.2-1.3 5.6-.8 2.3-1.2 2.7-.7z"/><path d="m963.8 518.6-16.1-.1-1.8.7-1.7-.1-2.2.9-.5 1.1 2.7 3.9 1.1 4.2 1.6 5.9-1.7 2.5-.3 1.3 1.3 3.7 1.5 3.8 1.6 2.1.3 3.5-.7 4.7-1.8 2.7-3.2 4.1-1.3 2.5-1.8 5.5-.3 2.6-1.9 5.7-.9 5.3.5 3.9 2.6-1.2 3.2-1 3.5.1 3.1 2.8.9-.4 21.9-.3 3.6 2.9 13 .9 10-2.4-3.4-3.9-3.5-5 .8-19.7 11.3.1-.5-2.1.9-2.3-.9-2.9.7-2.9-.5-1.9-2.5-.4-3.4 1-2.3-.2-1.4.6.5-7.4-1.8-2.2-.3-3.9.9-3.7-1.2-2.3v-3.9h-6.6l.5-2.2h-2.8l-.3 1.1-3.3.3-1.5 3.6-.9 1.6-2.9-.9-1.8.9-3.6.5-2-3.2-1.3-2-1.6-3.7zm-21.1-1.3.2-2.6.9-1.7 1.9-1.3-1.9-2.1-1.8 1.1-2.1 2.6 1.4 4.7z"/><path d="m972.8 218.2-1.9 3 .5 1.9 1 1-.5 1.9-.1 4.2.7 2.9 2.9 2 .2 1.4 1 .4 2-2.9.1-2 1.6-.9v-1.6l-2.2-1.6-.9-2.5.4-2-.5-2.2-1.3-.6-1.3-1.6-1.3.5z"/><path d="m1173.3 323.3-1.3-2.1-2.9 3.8-3.6 4-3.2 4.2-3.2-.2-4.5-.2-4.1 1-.3-1.7-1 .3.4 1.5 2.5 6.2 16.3 3.1 1-1.3-.1-2.5 1.4-2.5-.3-2.5 2.3-1.3-1.1-.8.1-4.1h2.7z"/><path d="m576.6 820.9.9-2.9-7.1-1.5-7.5-3.5-4.2-4.5-2.9-2.7 5.7 13.1h4.9l2.8.2 3.2 2zm-49-202.2-7.2-1.5-3.9 5.5.9 1.6-1.1 6.4-5.4 3.1 1.6 10.3-.8 1.9 1.9 2.4-3.1 3.9-2.5 5.7-.9 5.6 1.7 6-2 6.3 4.8 10.6 1.6 1.2 1.3 5.7-1.6 6 1.4 5.2-2.9 4.2 1.5 5.7 3.2 6.1-2.4 2.3.3 5.5.7 6.2 3.2 7.4-1.5 1.2 3.5 6.9 3 2.2-.8 2.5 2.7 1.3 1.3 2.2-1.8 1.1 1.8 3.6 1.1 8-.7 5.2 1.8 3.1-.1 3.8-2.6 2.6 3 6.4 2.5 2.1 3-.4 1.8 4.5 3.4 3.5 11.7.8 4.7.9 2.1.4-4.6-3.5-4-6.1.9-2.8 3.4-2.4.5-7 4.6-3.4-.2-5.4-5-1.3-6.2-4.4-.1-4.6 2.8-3 4.6-.1.2-3.2-1.1-5.9 2.8-3.8 4-1.8-2.4-3.1-2.1 1.9-3.9-1.8-2.4-6 1.5-1.5 5.4 2.2 4.9-.9 2.4-2.1-1.7-3-.1-4.7-1.9-3.7 5.6.6 9.9-1.3 6.7-3.3 3.2-8.1-.3-3.1-3.8-2.7-.1-4.4-7.6-5.4-.3-3.2-.4-4.1.9-1.4-1.1-6.1.3-6.3.5-5 5.7-8.4 5.2-6 3.2-2.6 4.1-3.4-.5-5-3-3.6-2.5 1.2-.3 5.5-4.2 4.7-4.1 1.1-6-1-5.5-1.8 4.1-9.3-1.1-2.7-5.7-2.4-7-4.6-4.5-1-10.9-10.1-1-1.3-6.1-.3-1.6 5z"/><path d="m1110.3 242.1-.9-4.3-2.4-1.1-2.4-1.6 1-2-3-2.1.7-1.5-2.1-1.1-1.4-1.6-6.7 1 1.3 2.1v3l4.1 1.5 2.3 1.8 1-.2 1.8 1.6h2.2l.2 1 2.7 3.6z"/><path d="m1603.6 734.7-2.9-.5-1.8 2.8-.6 5.2-2 3.9-.5 5.2 2.9.2.8.3 6.4-4.2.6 1.7 3.9-4.8 3.1-2.1 4.4-7.1-2.7-.5-4.7 1.2-3.3.9zm48.7-167.4.5-2.2.1-3.5-1.6-3.1.1-2.6-1.3-.8.1-3.8-1.2-3.1-2.2 2.3-.4 1.8-1.5 3.4-1.8 3.3.6 2-1.2 1.3-1.5 4.7.1 3.6-.7 1.8.3 3-2.5 4.9-1.3 3.4-1.7 2.8-1.7 3.3-4 2-4.8-2-.5-1.9-2.4-1.6h-1.6l-3.2-3.7-2.4-2.1-3.8-1.9-3.8-3.4-.1-1.8 2.4-3 2-3.1-.3-2.5 1.8-.2 2.4-2.4 2-3.3-2.1-3.1-1.5 1.2-1.9-.5-3.4 1.8-3.1-1.9-1.7.7-4.4-1.6-2.6-2.6-3.4-1.5-3 .9 3.8 2-.3 3.1-4.7 1.2-2.7-.7-3.5 2.1-2.8 3.6.6 1.5-2.6 1.7-3.3 5 .6 3.4-3.3-.6h-3.4l-2.4-3.7-3.6-2.8-2.7.8-2.5.9-.3 1.6-2.3-.7-.3 1.8-2.9 1.1-1.7 2.4-3.4 3-1.4 4.7-2.2-1.3-2.1 3 1.5 2.9-2.5 1.2-1.4-5.3-4.7 5.2-.8 3.4-.7 2.4-3.7 3.2-2 3.3-3.4 2.7-5.9 1.8-3-.2-1.4.6-1.1 1.4-3.4.7-4.6 2.3-1.4-.8-2.5.5-4.5 2.2-3.1 2.7-4.7 2-3 4.3.4-4.7-3 4.5-.1 3.6-1.3 3.1-1.4 1.5-1.3 3.6.9 1.8.1 2 1.6 4.8-.7 3.2-1-2.4-2.2-1.8.4 5.7-1.7-2.7.1 2.7 1.8 4.8-.6 4.9 1.7 2.4-.4 1.8.9 4-1.3 3.5-.3 3.5.7 6.3-.7 3.6-2.1 4.3-.6 2.2-1.5 1.5-2.8.8-1.5 3.6 2.3 1.2 3.9 4h3.5l3.7.3 3.2-2 3.3-1.8 1.4.3 4.4-3.3 3.7-.3 4-.7 4.1 1.2 3.5-.6 4.5-.2 2.9-2.5 2.2-3.2 5-1.5 6.7-3.1 4.9.4 6.7-2 7.6-2.2 9.5-.6 3.9 3 3.6.2 5.2 3.7-1.6 1.5 1.8 2.3 1.3 4.5-1.6 3.3 2.8 2.5 4.2-5 4.2-2 6.5-5.3-1.5 4.5-3.3 3.1-2.4 3.6-4.3 3.4 5-1.2 4.6-4.3-.9 4.7-3.1 3 4.6.8 1.3 2.5-.4 3.2-1.5 4.8 1.4 3.9 3.9 1.8 2.7.4 2.3 1 3.4 1.8 7-4.6 3.4-1.2-2.6 3.3 2.5 1.1 2.6 2.7 4.6-2.6 3.7-2.4 6.1-2.6 5.8-.2 4.1-2.2.9-1.9 2.9-4.4 3.8-4.7 3.5-3.1 4.3-5.4 3.2-3 4.3-4.9 5.2-3 4.9-5.6 3-4.4 1.4-3.5 3.7-5.5 2-2.8 2.4-5.5-.7-5.2 1.7-3.8 1.1-3.6v-5l-2.7-5-1.8-2.4-2.8-3.8.7-6.5-1.5 1-1.6-2.7-2.4 1.4-.6-6.7-2.1-3.9 1-1.5-3-2.7-3.1-2.9-5.2-3.2-.9-4.2 1.3-3.2-.4-5.3-1.3-.7-.2-3.1-.2-5.3 1.1-2.7-2.2-2.4-1.4-2.6-3.8 2.3z"/><path d="m956 182.8-2.2-1.2-2.2.3-3.9-1.9-1.7.5-2.5 2.4-3.7-2-1.5 2.8-1.7.8 1 3.9-.4 1.1-1.7-1.3-2.3-.2-3.3 1.2-4.3-.3-.6 1.6-2.5-1.7-1.5.3.2 1.1-.7 1.6 2.2 1.1 2.5.2 3 .9.5-1.2 4.7-1.1 1.3 2.1 7 1.6 4.1.4 2.3-1.4 4.2-.1.9-1.1 1.3-3.9-1.1-1.3h2.7l.2-2.5-.7-2z"/><path d="m1101.6 236.1-1 .2 1.2 2.3 3.1 2.8 3.6.9-2.7-3.6-.2-1h-2.2zm10.1-9-4.2-3.7-1.5-.2-1.1.9 3.1 3.3-.6.7-2.7-.4-4.1-1.8-1.1 1 1.4 1.6 2.1 1.1-.7 1.4 3 2.1-1 2 2.4 1.6 2.4 1.1.9 4.3 5.2-4.6 1.8-.5 1.8 1.9-1.2 3 3.7 3.3 1.3-.3-.8-3.1 1.7-1.5.4-2.1-.1-4.9 4.1-.5-1.9-1.6-2.4-.2-3.4-4.4-3.3-3.1-2.5 2.4-.5 1.5z"/><path d="m1041.5 499.5-.3-2.4-2.9-.4-1.7 3.5-3.4-.5 1.4 2.8.1 1.1 1.9 5.9-.1.3.6-.1 2-2.2 2.1-3.2 1.4-1.4v-1.9z"/><path d="m898.2 165.5-4.3 1.3-3.5-.5-3.7 1.2.7 2.1 2.1.1 2.3 2.3 3.3 2.8 2.4-.4 4.3 2.7.4-3.4 1.3-.2.4-4.1-2.7-1.4z"/><path d="m894.5 410.1-4.2-3.6h-1.9l-1.8 1.9-1.2 1.9-2.6.6-1.2 2.7-1.8.7-.7 3.2 1.7 1.8 2 2.2.2 3 1.1 1.3-.2 14.2 1.4 4.3 4.5-.8.3-9.9-.1-4 1-3.9 1.7-1.8 2.6-3.9-.6-1.6 1.1-2.4-1.2-3.7z"/><path d="m876.9 389.9h-3.5l-1.4-1.2-2.9.9-5 2.5-1.1 2-4.2 2.8-.8 1.6-2.2 1.3-2.6-.9-1.5 1.5-.8 4.3-4.4 5 .2 2.1-1.5 2.6.4 3.6 2.4 1.4 1 2 2.4 1.3 1.8-1.5 2.6-.2 3.7 1.6-.8-4.7.2-3.5 9.4-.3 2.3.5 1.8-1 2.5.5 4.8.1 1.8-.7 1.2-2.7 2.6-.6 1.2-1.9.1-4.3-6.2-1.4-.2-3-3-4-.8-2.8z"/><path d="m1370.2 345.9-4.4-9.8-1.5.1-.2 3.9-3.4-3.2 1.1-3.5 2.3-.4 1.6-5.1-3.3-1.1-4.9.1-5.2-.9-1.2-4.3-2.6-.4-4.7-2.6-1.2 4.2 4.5 3.3-3 2.3-.8 2.2 3.6 1.6-.4 3.7 2.5 4.7 1.6 5 2.1.6 1.7.7.6-1.2 2.4 1.3 1.3-3.4-.9-2.5 5 .2 2.7 3.6 1.5 3 .8 3.1 1.9 3.2-1.1-5 2 1z"/><path d="m1015.6 212.2-2.9-.7-3.9-2.1-5.6 1.4-2.2 1.6-7.3-.3-3.9-1-1.8.5-1.8-2.5-1.1 1.4.7 2.2 2.7 2.5-1.7 1.9-.7 1.9.6.7-.7.9 2.7 1.9.8 4 3.7.2 3.8-1.7 3.8 2 4.5-.6-.3-2.9 4.9-1.9 4.4.8-2-3.4 1.3-4.3z"/><path d="m957.9 203.1-2.2.1-1 1.3-1.8-1.4-.9 2.4 2.6 2.8 1.3 1.8 2.4 2.2 1.9 1.4 2.1 2.4 4.6 2.3.4-3.3 1.4-1.4.9-.6 1.2-.3.5-2.8-2.6-2.2 1-2.6h-1.8l-2.3-1.4-3.4.1z"/><path d="m1007.1 139.4-5-1.5-4.5 2.2-2.5 1 .9 2.5-3.4 1.9-.5 3.3-4.7 2.1h-4.5l.6 2.6 1.7 2.2.3 2.3-2.6 1.2 1.8 2.8.5 2.6 2.1-.3 2.3-1.6 3.6-.2 4.9.5 5.4 1.5 3.7.1 1.9.9 1.6-1.1 1.5 1.5 4.2-.3 1.9.6-.2-3 1.2-1.4 4-.3-1.9-3.8-1.5-2 .8-.6 3.8.2 1.6-1.3-1.7-1.6-3.3-1.1.1-1.1-2.1-1.1-3.6-3.8.6-1.6-1-2.8-4.7-1.4-2.2.7z"/><path d="m394.6 384 1.4-2.1 1-.2 1.2-1.6 1-3.1-.3-.6.9-2.2-.4-1 1.3-2.6.3-1.8h-1.1l.1-.9h-1l-2.4 3.8-.9-.8-.7.3-.1 1-.7 4.9-1.2 7z"/><path d="m562.9 606.9 1.6-1.3-.8-3.5 1.3-2.7.5-4.9-1.6-3.9-3.1-1.6-.8-2.5.6-3.5-10.4-.3-2.6-7.2 1.5-.1-.3-2.7-1.2-1.8-.5-3.6-3.2-1.8-3.4.1-2.4-1.8-3.7-1.2-2.3-2.3-6.1-1-6.2-5.5.3-4.2-.9-2.4.4-4.6-7.1 1.1-2.7 2.2-4.7 2.5-1.1 1.8-2.8.2-4.1-.6 5.3 10-1.1 2 .1 4.4.3 5.2-1.8 3.1 1.2 2.3-1.1 2 2.7 5.2-2.7 6.7 3 4.2 1.2 4.5 3.1 2.6-1.1 6 3.6 6.9 3 8.5 3.7-.9 3.9-5.5 7.2 1.5 3.6 4.5 1.6-5 6.1.3 1 1.3 1.5-7.4-.2-3.3 2-5.4 9.2-1.8 5 .1 5.2 3.2.3 1.8z"/><path d="m566.1 470.5-1.4.2-3-.5-1.7 1.6-2.5 1.1-1.7.2-.7 1.3-2.7-.3-3.4-2.9-.3-2.8-1.4-3.2 1-5.2 1.6-2.1-1.2-2.9-1.8-.9.8-2.7-1.3-1.4-2.8.3.7 1.8-2 2.3-6.2 2.3-3.9 1-1.8 1.4-4.3-1.6-4.1-.8-1 .6 2.3 1.5-.3 4.2.7 3.9 4.7.5.3 1.4-4 1.8-.7 2.6-2.2 1-4.1 1.5-1.1 1.8-4.3.5-2.9-3.3-1.1.8-1-3.7-1.5-1.9-1.8 2.1-10.6-.1v3.8l3.2.7-.2 2.3-1.1-.6-3.1 1v4.5l2.4 2.3.9 3.5-.1 2.7-2 16.9-5-.3-.7 1-4.5 1.2-6 4.2-.4 2.9-1.3 2.1.7 3.3-3.2 1.8.1 2.6-1.5 1.1 2.5 5.6 3.2 3.7-1 2.7 3.6.3 2.2 3.3 4.8.2 4.3-3.7.2 9.4 2.5.7 2.9-1.1 4.1.6 2.8-.2 1.1-1.8 4.7-2.5 2.7-2.2 7.1-1.1-.4 4.6.9 2.4-.3 4.2 6.2 5.5 6.1 1 2.3 2.3 3.7 1.2 2.4 1.8 3.4-.1 3.2 1.8.5 3.6 1.2 1.8.3 2.7-1.5.1 2.6 7.2 10.4.3-.6 3.5.8 2.5 3.1 1.7 1.6 3.9-.5 4.9-1.3 2.7.8 3.5-1.6 1.3 1.8 3.5.4 8.4 5.8 1.2 2-1.2 3.8 1.7 1.2 1.8 1 5.6.9 2.4 1.9.3 1.9-1.1 2 1.2.3 3.4-.3 3.7-.7 3.5 2.5-1.2 3 3.6.5 5-4 3.3-3.2 2.5-5.2 6-5.7 8.4 3.3-.7 6 4.8 1.8-.2 6 4 4.7 3.4 3.7 4.2-1.8 2.9 2 3.6 2.8-3.6 1.5-5.8 3.1-2.9 3.8-4.9 4.4-10.9 3.3-3.4.8-3 .3-6.2-1.3-3.4.3-4.7 4-6.1 5.8-5 5.8-1.8 3.5-2.8 8.3-2.3h5.7l1.1-3.7 4.1-2.7.6-6.3 5-8.1.5-8.3 1.5-2.5.3-4 1.1-9.6-1-11.6 1.4-4.6 1.4-.1 3.8-5.3 3.2-7 7.5-8.5 2.6-4.1 1.9-10.2-1-3.8-1.9-7.9-2-1.9-4.7-.2-4.2-1.9-7.1-6.9-8.2-5.2-8.2.3-10.6-3.3-6.3 2 .8-3.4-2.6-3.7-9.2-3.7-6.9-2.2-4.1 4-.3-6.1-9.6-1-1.7-1.9 4.1-5-.1-4.3-2.9-1-2.9-10.9-1.3-3.4-1.8.3-3.4 5.6-1.8 4.6-2 2.3-2.6.5-.8-1.8-1.2-.3-1.8 1.8-2.3-1.3-3.1-1.4-2.6.7-2.2-.6-.5 1.8.9 1.3-.5 1.3z"/><path d="m1497.8 454.3 2.6 3.2 1.1-2.1 2.6.2.1-4 .1-3-4.5 3.4z"/><path d="m1358.7 310.5-2.6-1.8-2.8-.1-4.1-1.5-2.5 1.5-2.5 4.7.3 1.2 5.3 2.4 3.1-1 4.6.4 4.3-.2-.4-3.8z"/><path d="m1010.9 591.9-1-.5-3.1 1.5h-1.6l-3.6 2.4-1.9-2.5-8.3 2.1-4 .2-.9 22.1-5.2.2-.6 18 1.4 1 2.9 5.9-.7 3.7 1.1 2.2 3.9-.7 2.7-2.7 2.6-1.8 1.5-3 2.6-1.5 2.2.8 2.4 1.8 4.3.3 3.5-1.5.6-2 1.2-2.9 2.9-.5 1.7-2.3 1.9-4.2 5.1-4.6 7.8-4.6-3.3-2.8-4.1-.9-1.4-4 .1-2.1-2.2-.7-5.8-6.8-1.6-3.6-1.1-1.1z"/><path d="m1004.8 428.9-.5-.3-1.9-1.8-.3-1.9.8-2.5v-2.5l-3.2-3.9-.7-2.6-3.4 1.1-2.7 2.4-3.9 6.8-5.1 2.8-5.2-.4-1.6.6.6 2.2-2.8 2.2-2.2 2.4-6.9 2.3-1.4-1.4-.9-.2-1 1.6-4.6.4-2.6 6.3-1.4 1.1-.4 4.9.6 2.6-.4 1.9 2.5 3.2.5 2.2 2 3.1 2.5 2 .3 2.8.6 1.8 2.8-5.7 3.2-3.3 3.7 1.1 3.5.4.5-4.4 2.1-3.1 2.9-2 4.5 2 3.5 2.3 4 .6 4.1 1.2 1.6-3.7.8-.5 2.5.6 6-3 2.1 1.3 1.8-.2.9-1.5 2-.6 4.2.7 3.5.1 1.8-.6-.9-2-4.1-2.4-1.5-3.7-2.3-2.6-3.7-3.3-.1-1.9-3-2.5z"/><path d="m566.1 195.1-.7-2.9-2.4 1.9.5 2 5.5 2.5 1.8-.4 3.2-2.4-4.6.1zm14-15.5.2-1.1-4-2.5-5.7-1.6-1.8.6 3.4 2.8 5.5 1.9zm-296.6 3.6.2-3.3-3.1-2.5-.4-2.8-.1-2-4-.7-2.3-.9-4-1.4-1.3 1.4-.6 3.2 4.2 1.1-.4 1.8 2.8 2.1v2.1l6.1 2.7zm326.6-13.1 3.8-3.7 1.4-1.6-2-.3-4.8 2.1-4.1 3.4-7.9 9.5-5.2 3.6 1.6 1.6-3.7 2.1.2 1.9 9.3.1 5.2-.3 4.3 1.5-4.3 2.8 2.8.2 7.1-5.2 1.2.8-2.4 5 2.9 1.2 2.2-.2 3.4-5.3-.5-3.8.3-3.2-3.6 1.1 2.7-4.5-4.2-1.9-2.6 1.5-3.8-1.6 2.3-2-2.8-1.3-3.7 1.9zm-346.7-20.6-1.8 2-1.4 2.5.9 1.9-.6 2.7.7 2.7h1.9l-.2-4.8 6.9-6.7-4.8.5zm273-45.7-.4-1.2-1.7-.1-2.8 1.7-.4.4.1 1.7 1.7.5zm-9.4-3.1.8-1.1-5.8-.1-4.8 2.6v1.5l2.9.2s6.9-3.1 6.9-3.1zm-3-16.1-2.6-.5-4.9 5-3.5 4.3-5.5 2.7 6.1-.6-.8 3.3 8-2.9 6-2.9.8 2.5 5.7 1.3 4.8-1.8-1.8-1.8-3.3.4 1.3-2.6-3.6-1.7-3.3-1.8-1.5-1.4-2.7.9zm43.4-8 3.6-1.7 1-.7 1.3-2.2-2.2-1.5-4.1.7-3.7 3-.7 2.6zm-71.8-10.3-.8-2-.3-1-1.5-1-2.9-1.5-4.8 2.2-4.9 1.6 3.4 2.3 3.7-.6 4 1.6zm21.8-2-6.4-1 5.6-2.5-.4-5.8-1.8-2.2-4.4-.8-7.9 3.7-5.3 5.6 2.8 2 1.5 3.2-6.1 5.3-3.1-.2-6 4.3 4.1-5.1-4.7-1.7-4.4.9-2.3 3.3-5.7-.1-7 .8-5-2.3-4.9.4-1.4-2.8-2-1.3-3.7.5-5.1.3-4.3 1.8 1.9 2.2-6.9 2.7-1.4-3.2-4.3 1-11.5.6-6.2-1.2 8.3-2.5-2.7-2.7-4.3.4-4.6-1-7.3-1.8-3.7-2.2-4.4-.3-3.2 1.6-5.7.9 3.8-4-9.1 3.5-1.4-4.6-2-.6-3.7 2.4-4.4 1.2-.2-2.1-8 1.4-8.5 2.2-5-.6-6.8 1.6-6 2.2-3.6-.5-3.2-2.5-5.7-1.3-23.7 19.7-34.4 31.5 4.1.1 2.6 1.5.6 2.5.2 3.8 7.3-3.2 6.2-1.9-.5 2.9.7 2.3 1.6 2.6-1.1 4.1-1.5 6.6 4.5 3.7-3 3.6-5 2.8-2.4 3 2 4.3-3 4.8 4 2.5-3.5 3.6-1.3 5.3 6.7 2.4 1.6 2.6 5.2 5.9h132.8l1.3-2.3h1.6l-.8 3.3 1 1 3.1.4 4.5 1 3.7 1.8 4.3-.8 5.2 1.6 3.1-2.3 3.1-1 1.8-1.5 1.5-.8 3.9 1.2 3.2.2.8.8.1 3.4 5 1-1.7 1.6 1.2 1.9-1.8 2.2 1.8.8-1.8 2 1.2.2 1.3-.9.5 1.4 3.3.7 3.7.1 3.7.6 3.9 1.2.8 1.9 1.4 4.6-2.3 1.9-3.7-.8-1-3.7-.9 3.8-3.7 3.3-.8 2.8-1.1 1.6-4 1.9-3.6 3.3-1.9 2.1 2.6.4 4.4-1.9 2.8-1.6 1.6-.3 2.5.6 1.7-.9 2.7-.8 4.6-.8.3-1.8-.3.1-1.7.3-1.8-.6 2.2-2 1.8-.7 3.8-.9 4.5-.9 1.8 1.2 1.8-1.4 1.8-.8.9.4.1.1 6.5-4.1 2.6-1.2h16.5l1-1.6 1.7-.3 2.4-.9 2.6-2.7 3.1-4.8 5.3-4.6 1.1 1.6 3.6-1.1 1.5 1.7-2.7 8.3 2 3.4 5.7-.8 7.9-.2-10.1 5-1.5 5 3.6.5 6.9-4.4 5.6-2.3 11.9-3.6 7.3-4-2.5-2.1 1-4.4-6.9 6.8-8.5 1.2-5.3-3-.1-4.5.6-6.6 5.9-4-3.2-3-7.4.6-11.8 5-10.6 8-4.5 1 7.6-5.5 9.8-8.1 7-2.6 5.5-4.3 5-.5 7.1.1 9.7 1.3 8.4-1 7.6-4.9 8.5-2.1 4.1-2 4.1-2.2 2-6.6-1.1-2.2-3.3-.8v-5l-2.2-1.8-6.7-1.6-2.7-3.3-4.7-3.3 3.3-3.6-1.9-6.9-2.5-7.3-1-5.1-4.2 2.6-7.2 6.3-7.9 3.1-1.5-3.3-3.6-1 2.1-7.1 2.5-4.8-7.5-.5-.1-2.1-3.5-3.2-2.9-1.9-4.4 1.5-4.1-.5-6.4-1.5-3.8 1.3-3.7 8.8-1 5.1-8.5 5.9 3 4.4.5 4.9-1.7 3.9-4.6 4-7.3 4.1-8.7 2.7 1.7 3.1-2.2 9.3-5.4 6.1-4.5 1.9-4.3-5.6-.1-6.6 1.7-5.8 3.5-5-4.7-.6-7.3-.4-3.5-2.4-4.7-1.6-1.7-2.8-3.2-2.1-6.8-2.5-6.9 1.2.7-4.4 1.5-5.3-5.8-1 4.8-6.6 4.8-4.5 9.1-6.3 8.4-4.5 5.4-.7 2.8-3.6 5-2.3 6.2-.4 7.5-3.7 2.8-2.4 7.2-4.6 3.1-2.7 3.1 1.7 6.3-.9 10.5-3.7 2.2-2.6-.8-2.8 4.9-2.8 1.7-2.6-3.4-2.5-5.2-.8-5.3-.4-4.5 5.8-6.3 4.5-7 3.9-1.3-3.6 4.1-3.9-2.1-3.4-8.5 4.1zm-73.4-18.4-2.7-1-13.8 3.1-5 1.9-7.6 3.8 5.3 1.3 6-.1-11.2 2v1.8l5.4.1 8.7-.4 6.3 1.2-6 1-5.4-.3-6.9.9-3.2.6.6 4.1 4.1-.6 4 1.5-.3 2.5 7.6-.5 10.9-.7 9.1-1.8 4.9-.4 5.5 1.4 6.5.8 3-1.8-.7-2 6.8-.4 2.5-2.3-4.9-2.5-4.1-2.5 2.3-3.5 2.6-5-2.1-2-2.9-.9-4.1.9-2.7 5.2-4.2 2 2.1-5-1.7-1.7-7.1 2.6-2.5-2.5-10.1 1.5zm38-1.5-1.7-1.1-5.2.2-2 .7 2.1 3.5zm104.7 1.6-4.3-2.7-8.2-.5-2 .3-1.7 1.8 1.9 2.7.9.3 4.7-.7 4 .1 4 .1zm-38.3-.3 5.5-3.1-10.9 1.2-5.6 2-6.9 4.5-3.2 5 5.4.1-5.9 2.2 1.7 1.8 5.7.8 7.1 1.5 13.4 1.2 7.7-.6 3.1-1.5 2 1.8 3.2.3 2 3.2-3.4 1.4 6.9 1.8 4.5 2.5.5 1.8-.4 2.3-8.3 5.2-3.1 2.6.2 1.9-8.9.7-7.8.1-5.3 4.1 2.3 1.8 12.6-.9.9-1.6 4.6 2.6 4.6 2.8-2.3 1.6 3.7 2.7 7.4 3.2 10.4 2.2.3-1.9-2.7-3.4-3.4-4.8 8.2 4.5 4.6 1.5 3.5-4v-5.4l-1-1.5-4.3-2.4-2.6-3.2 2.2-3.1 5.6-.7 3.7 5.2 3.9 2.3 10.4-6.3 3.2-3.8-6.2-.3-3.1-5-5.7-1.2-7.5-3.4 8.7-2.4-.8-4.7-2.1-2-8.1-2-1.8-3.2-8 1.2 1.1-2.2-3.5-2.4-6.6-2.5-5 2-8.7 1.5 2.9-3.3-2.2-5.2-11.3 2-6.9 4zm-48.6-3.3-6.9 2.3.9 3.3-7.2-.7-1.7 1.7 5.7 3.8.9 1.9 3.3.5 8.2-1.9 5-4.6-3.7-2.1 5.8-2.3.5-1.5-7.3.6zm21.6 5.2 5.4-1 9.7-4.4-5.9-1.2-7.6-.2-5 1.4-4.1 2-2.5 2.6-1.8 4.4 4.2.2zm-111.4 7 2.5-2.2 8.9-3.5 13.4-3.5 6.2-1.3-1.5-2-1.8-1.5-9.1-.2-4-1.1-13.6.8-.3 3-7.4 3.2-7.2 3.7-4.2 2.1 5.7 2.6-.6 2.3zm120.5-17.8.3-1.6-1.3-1.6-6.7 1.3-4.3 2.2 3.1 1.3 5 .4 4-1.8zm-8.4-8.3-1.1.7-4.7-.3-7.4 1.5-3.7-.1-4.2 3.7 6.4-.4-3.3 2.8 3.1.8 6.6-.5 5.6-3.6 2.7-2.4zm-38 2.4 1.8-2.2-3-.5-5.5 1.7-.7 4.6-5.9-.4-2.7-2.8-8-1.5-5.2 1.4-11.2 4.7 4 .8 17.3-.5-10.3 2.1-1.5 1.5 5.7-.1 11.8-2.1 13.4-.8 5-2.2 2.2-2.3-3.6-.2-4.2.8zm53.6-4.2-6.9-.3-3.7 1.9 2.5 1.5 6.8.6 1.4 2-2.1 2.3-1.5 2.7 8.3 1.6 5.3.6 7.8-.1 11.3-.8 4.2.6 6.5-1 3.4-1.3 1-1.9-2.2-1.8-5.6-.3-7.8.4-6.8 1.1-5-.4-4.7-.3-1.2-1.1-3-1.1 2.7-1.8-1.4-1.5-7.1.1zm-72.9-2.5-5.8.7-5.3-.1-11.8 3-11.3 3.6 3.5 1 6.8-.7 9.5-2 3.7-.3 5-1.5zm78.3.6 1-.5-1.5-.9-7-.1-.6 1.3 6.2.3zm-56.8-.8 3.1-1.4-4-.8-5.7.5-5 1.5 3.2 1.5zm7.6-4.1-3.2-.8-1.5-.2-5.5 1.2-1 .7h5.9zm45.1 2.4 2.9-1.7-2.2-1.6-1.7-.3-4.3-.1-2 1.7-.7 1.8 1.5 1.1zm-13.3-1.1.1-2.1-7.2-1.6-5.9-.6-2 1.6 2.7 1.1-5.2 1.4 7.5.2 3.9 1.5 5.1.5zm52.1-6 .6-2.7-4.6-.8-4.6-.9-1.5-2.1-8 .2.3.9-3.8.3-4 1.3-4.8 1.8-.2 1.9 1.9 1.5h6.3l-4.2 1.2-2 1.6 1.5 1.8 6.5.6 6.6-.4 10.2-3.3 6.2-1.3zm76.3-13.4-6.8-.2-6.7-.3-9.9.6-1.4-.4-10 .2-6.2.4-5 .6-4.9 1.9-2.2-1-3.8-.2-6.5 1.4-7.2.6-4 .1-5.8.8-1.1 1.3 2.4 1.2.8 1.6 4.3 1.5 12-.3 7 .5-7 1.5-2-.3-9-.2-1.1 2.1 2.9 1.6-2.8 1.5-7.3 1.1-4.8 1.7 4.7.9 1.7 2.9-7.3-1.9-2.4.3-2 3.3-7.8 1.1-1.9 2.2 6.5.3 4.8.6 11.4-.8 8.2 1.3 12.2-2.9 1-1.1-6.2.2.5-1.1 6.3-1.4 3.5-1.8 6.6-1.3 4.9-1.5-.8-2.1 3.2-.8-4.2-.6 10.8-.4 3.1-.9 7.7-.8 9-3.4 6.6-1.1 10-2.4h-7.1l3.8-.9 8.7-.8 9.4-1.5 1.1-1.1-5-1-6.5-.4z"/><path d="m921.1 189.2-5.2-1.9-1 1.4h-4.1l-1.3 1-2.2-.6.2 1.6-3.4 3.4v2.7l2.3-.9 1.8 2.6 2.1 1.3 2.3-.3 2.6-2 .9 1 2.3-.2.9-2.4 3.7.8 2-1.1.3-2.4-2.5-.2-2.2-1.1.7-1.6z"/><path d="m555.8 805.8-3.6-.7-3.2 2.4.2 4-1.2 2.7-7-2.1-8.4-3.9-4.4-1.3 9.4 6.6 6.1 3.1 7.3 3.3 5.2.9 4.2 1.8 2.9.5 2.2.1 3.1-1.8.5-2.3-2.8-.2h-4.9zm-45.9-190.7-3.6-6.9 1.1-6-3.1-2.6-1.2-4.5-3-4.2-1.2 3.2-2.6 1.5 2 8.8 1.5 10.1-.1 13.8v12.8l.9 12-1.8 7.6 2 7.6-.5 5.2 3.1 9.2-.1 9.2-1.2 9.9-.6 10.2-2 .2 2.3 7.1 3.2 6.1-1.1 4.2 1.8 11.3 1.5 8.5 3.4.9-1.1-7.5 3.9 1.5 1.8 12.3-6.2-2 2 9.9-2.6 5.3 8 1.8-3.3 4.7.2 5.8 4.9 10.3 4.1 4 .2 3.5 3.2 3.7 7.3 3.4 7.2 4.1 6 1.9 2-.1-1.8-5.5 3.3-2.1 1.7-1.5h4.1l-4.7-.9-11.7-.8-3.4-3.5-1.8-4.5-3 .4-2.5-2.1-3-6.4 2.6-2.6.1-3.8-1.8-3.1.7-5.2-1.1-8-1.8-3.6 1.8-1.1-1.3-2.3-2.7-1.3.8-2.5-3-2.2-3.5-6.9 1.5-1.2-3.2-7.4-.7-6.2-.3-5.5 2.4-2.3-3.2-6.1-1.5-5.7 2.8-4.2-1.4-5.2 1.6-6-1.3-5.7-1.6-1.2-4.8-10.7 2-6.3-1.7-6 .9-5.6 2.5-5.7 3.1-3.9-1.9-2.4.9-1.9-1.6-10.3 5.4-3.1 1.1-6.4-.9-1.6-3.7.9z"/><path d="m1468.1 366.7.6-3.5 1.9-2.7-1.5-2.4-3.1-.1-5.6 1.8-2.1 2.7 1 5.3 4.8 2zm12.8-190.9-5.9-5.9-4.3-3.6-3.7-2.6-7.5-5.9-5.7-2.2-8.3-1.8-6 .2-5 1.1-1.7 2.9 3.6 1.5 2.4 3.2-1.2 1.9.1 6.3 1.8 2.6-4.3 3.8-7.1-2.2.6 4.5.3 6 2.6 2.5 2.3-.8 5.2 1 2.4-2.2 5 1.9 7 4.2.7 2.1-4.2-.7-6.6.8-2.3 1.8-1.4 4-6.1 2.3-3 3.2-5.7-1.3-3.1-.5-.4 3.9 2.8 2.2 1.8 2-2.4 1.9-1.8 3.2-4.8 2.1-7.3.2-7 2.1-4.3 3.2-3.1-1.9-6 .1-9-3.7-5.3-.9-6.2.8-10.9-1.3-5.3.1-4.6-3.5-4.8-5.5-3.3-.7-7.7-3.7-7-.9-6.2-1-2.9-2.6-1.3-7.1-5.6-4.9-7.9-2.2-5.5-3.2-3.2-4.3-1.7.5-1.8 4.1-3.7.6 2.4 6-1.6 2.7-10.4-1.9 1 10.8-1.9 1.4-8.8 2.3 8.5 10.4-2.8 1.6 1.7 3.4-.2 1.4-6.6 3.3-1 2.3-6.2.8-.6 3.9-5.5-.9-3.1 1.2-3.9 2.9 1.1 1.4-1 1.5 2.9 5.7 1.6-.6 3.4 1.4.6 2.4 1.8 3.6 1.4 1.8 4.6 2.9 2.8 4.9 9.1 2.5 7.4 7.3.8 5 2.9 3.2.6 3.2-4-.9 3.1 6.8 6 3.9 8.3 4.3 1.8-1.5 4.6 1.9 6.2 4 3.1.9 2.4 3 4.4 1.2 4.9 2.7 6.2 1.5 6.3.6 2.9-1.4 1.5 5 2.5-4.7 2.5-1.5 4.1 1.5 2.8.1 2.6 1.8 4.1-.8 3.8-4.7 5.2-3.9 4.8 1.5 3.1-2.5 3.4 3.8-1.2 2.6 5.9.9 2.9-.4 2.6 3.6 2.6 1.5 1.3 4.8.8 5.1-4 5.1.7 7.3 5.4-1 2.2 5.6 3.6 1.3-.8 5 4.4 2.3 2.4 1.2 3.7-1.8.6 2.5.7 1.5 2.8.1-1.8-7 2.6-1 2.6-1.5h4.2l5.2-.7 4-3.3 2.9 2.3 5.1 1.1-.2 3.6 2.9 2.5 5.7 1.5 2.3-1 7.5 1.9-.9 2.4 2.1 4.5 2.9-.4.8-6.5 5.4-.9 7-3.1 2.4-3.1 2.2 2 2.7-2.6 5.9-.7 6.4-5.1 6.1-5.7 3.2-7.4 2.2-8.2 2.1-6.7 2.7-.5-.1-5-.8-5-3.7-1.9-2.4-3.3 2.7-1.6-1.6-4.6-5.2-4.8-5.2-5.6-4.5-6.1-6.9-3.4.9-4.5 3.7-3.1 1-3.4 6.5-1.8-2.3-3.3-3.3-.2-5.6-2.4-3.8 4.5-4.8-1.9-1.5-2.8-4.6-1-4.6-4.3 1.2-2.9 4.9-.3 1.2-4 3.5-4.3 3.3-2.1 4.3 3.2-1.9 4.2 2.2 2.4-1.4 2.9 4.7-1.8 2.3-2.8 6.1-1.9 2-3.9 3.7-3.3 1-4.3 3.5 1.9 4.5.2-2.6-3.2 6.1-2.5-.1-3.4 5.3 3.5-1.8-3 2.4-.1-3.7-7.1-4.6-5.1 2.8-2.1 6.6 1.1-.6-5.8-2.7-6.6.4-2.2-1.3-5.4-6.7 1.8-2.5 2.4h-7.3l-5.8-5.6-8.7-4.4z"/><path d="m845.5 418.1-2.2.9-1.3.8-.9-2.6-1.5.7-1-.1-1 1.8-4.2-.1-1.6-1-.7.6-1.1.5-.5 2.1 1.3 2.5 1.3 5-2 .8-.6.9.4 1.2-.3 2.7h-.9l-.3 1.8.6 3-1.2 2.7 1.5 1.8 1.8.4 2.2 2.6.2 2.4-.5.8-.5 5 1.1.2 5.4-2.3 3.8-1.8 6.4-1.1 3.5-.1 3.8 1.3 2.5-.1.2-2.4-2.3-5.4 1.5-7 2.2-5.1-1.3-8.8-3.7-1.5-2.6.2-1.8 1.5-2.4-1.3-1-2z"/><path d="m955.9 414.9.2-4.2-.5-4.1-2.1-4-1.6.4-.2 2 2.2 2.5-.6 1.1-.3 2-4.5 4.9-1.4 3.9-.7 3.2-1.2 1.4-1.1 4.4-2.9 2.5-.8 3.1-1.2 2.5-.5 2.5-3.8 2.1-3.1-2.5-2 .1-3.2 3.6-1.5.1-2.6 5.9-1.4 4.4v1.8l1.4.9 1.1 2.7 2.5 1.1 2.1 4.1-.8 4.9 8.9.2 2.5-.4 3.3.8 3.3-.8.7.3 6.9.3 4.3 1.6 4.4 1.5.4-3.4-.6-1.8-.3-2.8-2.5-2-2-3.1-.5-2.2-2.5-3.2.4-1.9-.6-2.6.4-4.9 1.4-1.1 2.6-6.3.9-1.7-1.8-4.3-.8-2.5-2.4-1.1-3.2-3.6 1.2-2.9 2.4.6 1.6-.4 3 .1z"/><path d="m1018.8 450.4-4.2-.7-2 .6-.9 1.5-1.8.2-2.1-1.3-6 3-2.5-.6-.8.5-1.6 3.7-4.1-1.2-4-.6-3.5-2.3-4.5-2-2.9 1.9-2.1 3.1-.5 4.4-.3 3.7-1.6 3.3-1.1 3.9-.7 5.4.3 3.5-.9 2.1-.2 2.3-.6 1.9-3.6 3-2.5 3.1-2.4 6 .2 5.1-1.4 1.9-3.2 3-3.3 3.9-2-1.1-.4-1.8-3-.1-1.8 2.3-1.5-.6-1.9 1.3-.9 1.7-.2 2.6-1.5.7.8 1.9 2.2-.9 1.7.1 1.8-.7 16.1.1 1.3 4.6 1.6 3.7 1.3 2 2 3.2 3.6-.5 1.8-.9 2.9.9.9-1.6 1.5-3.6 3.3-.3.3-1.1h2.8l-.5 2.2h6.6v3.9l1.2 2.3-.9 3.7.3 3.9 1.8 2.2-.5 7.4 1.4-.6 2.3.2 3.4-1 2.5.4 1.8.1.3 1.9 2.5-.1 3.4.6 1.8 2.9 4.4.9 3.3-1.9 1.2 3.3 4.2.8 2 2.7 2 3.4h4.2l-.3-6.7-1.4 1.2-3.8-2.4-1.4-1.1.8-6.2 1.2-7.3-1.2-2.7 1.6-4 1.6-.7 7.3-1.1 1 .3.2-1.1-1.5-1.7-.7-3.4-3.3-3.4-1.7-4.4 1-2.6-1.5-3.5 1.1-9.9.1.1-.1-1.1-1.4-2.8.6-3.4.8-.4.2-3.7 1.6-1.8.1-4.7 1.3-2.3.3-5 1.2-2.9 2-3.2 2.1-1.6 1.8-2.2-2.2-.8.3-7.3-4.9-4.1-1.4-2.6-3 1.3-2.5-.4-1.5 1.1-2.4-.8-3.4-5-1.8.6z"/><path d="m975.5 460.6-3.5-.4-3.7-1.1-3.2 3.3-2.8 5.7-.4 3.4-4.4-1.5-4.4-1.6-6.9-.3-.4 2.7 1.5 3.2 4.1-.5 1.4 1.2-2.3 7.2 2.6 3.7.6 4.8-.8 4.2-1.7 2.9-4.8-.3-2.9-2.9-.5 2.7-3.7.8-1.8 1.6 2 4.1-4.2 3.4 4.5 6.5 2.1-2.6 1.7-1.1 2 2.1 1.5.6 1.8-2.3 3 .1.4 1.8 2 1.1 3.3-3.9 3.2-3 1.4-1.9-.2-5.3 2.4-6 2.5-3.1 3.6-3 .6-1.9.2-2.3.9-2.1-.3-3.5.7-5.4 1.1-3.9 1.6-3.3z"/><path d="m487.7 409.4 1.2-2-1.3-1.6-1.9-.4-2.8 3-2.2 1.4-4.5 3.1-4.2-.5-.5 1.3-3.5.1-3.2 2.9-1.4 5.2-.1 2-2.3.7-4.3 4.3-2.8-.2-.7.9 1.1 3.7-1.1 1.9-1.8-.5-.9 3 2.1 3.3.6 5.2-1.2 1.6 1.1 5.7-1.2 3.6 1.9 1.5-2.1 3.2-2.4 3.9-2.7.4-1.4 2.2.2 3.1-2 .5.8 2 5.4 3.5 1-.1 1.4 2.6 4.6.9 1.5-1 2.7 2 2.3 1.5 1.5-.6 3.6 2.9 1.8 2.9 2.6 1.6 3.3 6.5 4.1.8 2.9-1.6 2 1.1 3.2-.6 4.3 2.9-3.4 6.3 1.7.1 2.8 3.3 2.1-16.9.1-2.7-.9-3.5-2.4-2.3v-4.5l3.1-1 1.1.6.2-2.3-3.2-.7v-3.8l10.6.1 1.8-2.1 1.5 1.9 1 3.7 1.1-.8-1.7-6.2-1.4-2.1-1.9-1.4 2.8-3-.2-1.5-1.5-1.9-1-4.1.5-4.5 1.3-2 1.2-3.3-2-1.1-3.1.7-3.9-.3-2.2.7-3.7-5.4-3.1-.8-7 .6-1.3-2.1-1.3-.6-.2-1.3.8-2.3-.4-2.4-1.1-1.4-.6-2.8-2.8-.5 1.8-3.6.9-4.4 1.7-2.3 2.1-1.8 1.6-3.1z"/><path d="m420.5 414.6-1.4 1.3-1.6-.4-.8-1.3-1.6-.5-1.4.8-3.4-1.6-.9.8-1.4 1.2 1.5.9-.9 1.9-.1 1.9.7 1.3 1.6.6 1.2 1.8 1.2-1.6-.3-1.8 1.4 1.1.3 1.9 1.9.8 2 1.3 1.5 1.5.1 1.4-.7 1.1 1.1 1.3 2.8 1.4.4-1.2.5-1.3-.1-1.2.8-.7-1.1-1 .1-2.4 2.1-.6-2.3-2.6-1.9-2.5z"/><path d="m449.5 341.4-4.8-2-4.2-.1-4.6-.5-1.4.7-4.1.6-2.9 1.3-2.6 1.4-1.5 2.2-3 1.9 2.1.6 2.8-.7.9-1.5 2.2-.1 4.3-3.2 5.2.3-2.2 1.5 1.8 1.3 6.8 1 1.5 1.3 4.8 1.6 3.1-.2.8 3.5 1.7 1.7 3.4.4 2 1.6-4 3.4 7.7-.6 3.7.5 3.6-.3 3.7-.8.8-1.5-3.8-2.5-3.9-.3.6-1.6-3-1.3h-1.8l-2.9-2.7-4.1-3.9-1.8-1.5-5 .8z"/><path d="m945.5 167.7-2 .6-1.4-.7-1.1 1.2-3.3 1.2-1.7 1.4-3.3 1.3 1 1.8.7 2.5 2.5 1.5 2.8 2.5 3.7 2 2.5-2.4 1.7-.5 3.9 1.9 2.2-.3 2.2 1.2.6-1.4 2.1.1 1.6-.6.1-.6.9-.3.2-1.4 1.1-.3.6-1.1h1.3l-2.5-3-3.5-.3-.7-2-3.3-.6-.6 1.5-2.6-1.2.1-1.6-3.6-.6z"/><path d="m939.8 152-2.3-1.9-5.3-2.3-2.4 1.6-4.6 1.1-.1-2-4.8-1.4-.2-2.2-2.9.9-3.5-.8.4 3.3 1.2 2.1-2.9 2.9-1-1.3-3.8.3-.9 1.3 1 1.9-1 5.4-1.1 2.2h-2.8l1.1 6.2-.4 4.1 1 1.4-.2 2.6 2.3 1.6 6.9 1.2-2.2 4.1-.5 4.4h4.1l1-1.4 5.2 1.9 1.5-.3 2.5 1.7.6-1.6 4.3.3 3.3-1.2 2.3.2 1.6 1.3.4-1.1-1-3.9 1.7-.8 1.5-2.8-2.8-2.5-2.5-1.5-.7-2.5-1-1.8 3.3-1.3 1.7-1.4 3.3-1.2 1.1-1.2 1.4.7 2-.6-2.2-3.8.1-2-1.4-3.2-2-2.1 1.2-1.6z"/><path d="m1109.1 411.3-2.4-1.6 3-1.5.1-2.6-1.4-1.9-1.6 1.5-2.3-.5-1.8 2.7-1.8 2.9.5 1.6.2 2 3 .1 1.3-.5 1.3 1.1z"/><path d="m932.4 141.2-1.7-2.9-6.5 1.9.9 2.4 5 3.3zm-8.4-5-2.5-.9-.7-1.6 1.3-1.9-.1-2.9-3.5 1.6-1.5 1.6-3.9.4-1.2 1.6-.7 1.6.4 5.9 2 3.3 3.5.8 2.9-.9-1.5-2.9 3-4.2 1.4.7z"/><path d="m489 370.7v1.8l1.4 1 2.5-4.3 2-.9.6 1.5 2.1-.4 1.1-1.2 1.8.3 2.5-.2 2.4 1.3 2.2-2.6-2.4-2.2-2.3-.2.3-1.8-2.9.1-.8-2.1-1.4.1-3-1.5-4.3-.1-.8 1.1.2 3.4-.7 2.3-1.5 1.1 1.2 1.9z"/><path d="m917.9 253.6-3.5.4-2.1-1.5h-5.4l-4.8 2.5-2.6-1-8.5.5-8.7 1.2-4.8 1.9-3.3 2.5-5.5 1.2-5 3.4 1.9 4 .3 3.8 1.8 6.5 1.4 1.4-1 2.4-6.8 1-2.4 2.3-3 .5-.3 4.6-6.1 2.4-2 3.1-4.3 1.6-5.2 1-8.7 4.6-.1 7.3v.4l-.1 1.2 19.7 15.1 17.9 13.5 18.1 13.4 1.3 2.9 3.3 1.8 2.5 1.1.1 3.9 5.9-.6 7.6-2.7 15.4-12.1 18.1-11.9-2.4-3.9-4.2-2.8-2.5 1.2-2-3.5-.2-2.6-3.3-4.6 2-2.5-.5-3.9.6-3.4-.5-2.8.9-5-.4-2.9-1.8-5.4-2.5-11-3.3-2.5v-1.5l-4.4-3.7-.6-4.7 3.1-3.5 1.1-5.1-1-6z"/><path d="m463.2 483.1-2.3-1.5-2.7-2-1.5 1-4.6-.9-1.4-2.7-1 .1-5.4-3.5-3.7 2.5-3 1.4.4 2.5-2.1 4-1 3.8-1.8 1 1 5.6-1.1 1.8 3.3 2.6 2-2.8 1.3 2.7-2.8 4.6.7 2.6-1.5 1.5.2 2.2 2.2-.5 2.2.7 2.4 3.1 3-2.5.9-4.2 3.2-5.3 6.5-2.4 5.8-6.5 1.7-4z"/><path d="m1023.5 290.4-5.3-1.9-5.2-1.6-6.9.2-1.8 2.9 1.1 2.6-1.2 3.8 1.9 5 1.3 22 1 22.7h63.4l-1-1.3-6.6-5.5-.4-4.1 1-1.1-5.2-6.8-1.9-3.5-2.2-3.4-4.7-9.6-3.8-6.2-2.7-6.5.5-.6 4.5 8.8 2.6 2.8 1.9 1.9 1.2-1.1 1.2-3.2.7-4.7 1.3-2.4-.7-1.6-3.8-8.9-2.4 1.5-4.1-.4-4.3-1.5-1.1 2-1.7-3.1-3.8-.8-4.6.6-2 1.7-3.8 2z"/><path d="m1090 386.8-3.1-3-1.7-5.7-3.6-7.1-2.5 3.5-3.9 1-1.6 1.9-.4 4.1-1.8 9.1.7 2.4 6.3 1.3 1.5-4.6 3.4 2.8 3.1-1.5 1.4 1.3 3.8.1 4.8 2.4 1.6 2.1 2.4 2 2.4 3.6 1.9 2 2.3.5 1.6-1.5-2.7-1.8-1.8-2.1-3.1-3.6-3.1-3.5z"/><path d="m988 118.2-5.3.9-5.2 1.6.9 3.3 3.2 2 1.5-.8.1 3.4 3.6-1 2 .7 4.3 2.1h3.7l1.6-1.9-2.4-5.3 2.5-3.3-.9-1-4.6.1z"/><path d="m1079.8 389.7-1.5 4.6-6.3-1.3-.7 5.3-2 6-3.1 3.1-2.2 4.7-.5 2.5-2.5 1.8-1.4 6.5v.7l.2 4.9-.8 2-2.9.1-1.8 3.5 3.3.5 2.8 3 1 2.4 2.5 1.5 3.4 6.7 2.8 1.1v3.5l1.9 2h3.8l7 5.2h1.8l1.3-.1 1.2.7 3.7.5 1.6-2.6 5-2.5 2.2 2h3.7l1.5-2 3.5-.1 4.8-4.4 7.2-.3 15-18.6-4.7.1-18-7.4-2.1-2.1-2-3-2.1-3.4 1.1-2.2-1.3-1.1-1.3.5-3-.1-.2-2-.5-1.6 1.8-2.9 1.8-2.7-1.9-2-2.4-3.6-2.4-2-1.6-2.1-4.8-2.4-3.8-.1-1.4-1.3-3.1 1.5-3.4-2.8z"/><path d="m988.2 66.6.8-3.7-5.5-2-5.6 1.8-1.1 3.8-3.3 2.3-4.6-1.3-5.2.3-5-2.8-2 1.4 5.7 2.6 7 3.6 1.7 8.2 1.8 2.1 6.2 2.5.9 2.2-2.5 1.2-8.4 5.9-3.2 3.5-1.5 3.2 2.8 5-.1 5.5 4.6 1.8 3 3 6.9-1.2 7.3-2 7.8-.5 7.7-7.2 3.2-3.2.9-2.8-7.1-3.8.9-3.6-4.8-4 1.7-4.7-6.2-6.1 2.7-4-7-3.6z"/><path d="m1846.5 581.5-3.6 2-1.8.3-3 1.3.2 2.3 3.8-1.3 3.8-1.5zm-10.7 7.9-1.6 1-2.2-.8-2.6 2.1-.2 2.7 2.8.8 3.5-.9 1.8-3.2z" stroke="#fff" stroke-linejoin="round" stroke-width="2"/><path d="m946.3 468.2-.7-.3-3.3.8-3.3-.8-2.5.4v7.4h-8l-1.8.3-1.1 4.7-1.3 4.5-1.3 1.8-.2 2 3.3 6.4 3.6 5.2 5.6 6.2 4.2-3.4-2-4.1 1.8-1.6 3.7-.8.5-2.7 2.9 2.9 4.8.3 1.7-2.9.8-4.2-.6-4.8-2.6-3.7 2.3-7.2-1.4-1.2-4.1.5-1.5-3.2z"/><path d="m848.9 147.3-4.8-3.6-3.8.3.8 3.1-1.1 3.1 2.8-.1 3.4 1.3zm12.6-23.6-5.3.5-3.5-.4-3.6 4.7-1.8 5.9 2.1 2.9.1 5.6 2.5-2.7 1.4 1.6-1.7 2.6 1 1.6 5.5 1.1h.1l3 3.7-.8 3.4-6.9-.6-1 3.9 2.5 3.2-5 1.8 1.3 2.3 7.3 1-4.1 1.3-7.1 6.3 2.4 1.2 3.4-2.2 4.4.7 3.2-2.8 2.1 1.2 8.1-1.6 6.3.1 4.2-3.2-1.8-3 2.3-1.8.5-3.8-5.6-1.2-1.3-2.2-2.8-6.7-3.1-1-4-6.9-.4-.6-4.7-.4 4.1-5.1 1.3-4.8h-4.9l-4.6.8z"/><path d="m1091.8 217.9-7.3-2.8-7.5-1-4.4-1.1-.5.7 2.1 1.9 2.9.7 3.3 2.2 2 4.1-.3 2.6 5.2-.3 5.4 2.9 6.7-1 1.1-1 4.1 1.8 2.7.4.6-.7-3.1-3.3 1.1-.9-3.4-1.4-2-2.4-5-1.3-2.8 1z"/><path d="m874.9 414.1-2.5-.5-1.8 1-2.3-.5-9.4.3-.2 3.5.8 4.7 1.4 8.8-2.2 5.1-1.5 7 2.3 5.4-.2 2.4 4.8 1.8 4.9-1.9 3.1-2 8.5-3.7-1.2-2.1-1.5-3.9-.4-3.1 1.2-5.5-1.4-2.2-.6-5 .1-4.5-2.3-3.2z"/><path d="m812.4 405.3-.8.4-2.9-.5-.4.7-1.3.1-3.9-1.5-2.6-.1-.1 2-.6.7.4 2-.8.9h-1.3l-1.4 1-1.7-.1-2.5 3 1.5 1.1.8 1.4.7 2.7 1.3 1.2 1.5.9 2 2.4 2.3 3.6 2.9-2.7.7-1.6 1-1.4 1.5-.2 1.3-1.1h4.4l1.5 2.2 1.2 2.6-.2 1.8.9 1.6v2.2l1.5-.3 1.2-.2 1.5-.7 2.2 3.8-.4 2.5 1.1 1.3 1.6.1 1.1-2.5 1.5.2h.9l.3-2.7-.4-1.2.6-.9 2-.8-1.3-5-1.3-2.5.5-2.1 1.1-.5-1.7-1.8.3-1.9-.7-.7-1.2.6.2-2 1.2-1.5-2.2-2.6-.6-1.7-1.3-1.4-1.1-.2-1.3.9-1.7.8-1.6 1.4-2.3-.5-1.5-1.6-.9-.2-1.5.8h-.9z"/><path d="m783.6 400.9 4.9.1 1.4-.9h1l2-1.5 2.3 1.4 2.3.1 2.3-1.5-1.1-1.8-1.7 1.2-1.8-.1-2-1.5-1.8.1-1.3 1.5-5.9.2z"/><path d="m800.5 404.4-10-.3-1.5.7-1.8-.2-2.9 1.1.3 1.3 1.7 1.4v.9l1.2 1.8 2.3.5 2.8 2.5 2.5-3 1.7.1 1.4-1h1.3l.8-.9-.4-2 .6-.7z"/><path d="m936.5 468.2-8.9-.2-1.8 7 1 .9 1.8-.3h8z"/><path d="m996.5 261.4-.8 2.7 6.4 1.2v1.1l7.4-.6.5-1.9-2.7.8v-1.1l-3.8-.5-4 .4zm11.2-36.3-2.6-1.6.3 2.9-4.5.6-3.8-2-3.8 1.7-3.7-.2-1 .2-.7 1.1-2.7-.1-1.8 1.3-3.2.6v1.6l-1.6.9-.1 2-2 2.9.5 1.9 2.8 3.5 2.2 2.9 1.3 4.2 2.2 5 4.5 2.8 3.3-.1-2.3-5.5 3.2-.7-1.8-3.2 4.9 1.6-.4-3.6-2.6-1.7-3.1-2.9 1.8-1.4-2.7-2.9-1.6-3.7.9-1.3 2.9 3.1h2.8l2.4-1-3.8-3.5 5.9-1.6 2.6.6 3.1.2 1.1-.7z"/><path d="m788.1.4-25.3-.4-11.5.3-4.8 1.3-11.2-.1-12.3 2-1.6 1.6 6.5 2-6-1.3-4.4-.3-6.8-1.4-10.3 2-2.5-1.1h-10.1l-10.6.6-8.6 1-.2 1.7-5.2.5-14.2 2.9-4.5 1.6 7.9 1.5-2.7 1.5-14.6 2.2-15.1 2.1-2.1 1.7 6.2 1.9 14.1 1.2-7.3.2-10.6 1.4 3.7 3 2.9 1.5 9.1-.3 9.8-.2 7.4.3 7.8 2.8-1.4 2 3.5 1.8 1.3 5.2 1 3.5 1.4 1.8-6.8 4.7 2.5 1.3 4.3-.8 2.5 1.8 5.2 3.3-7.3-1.4h-3.7l-2.9 2.7-1.5 3.5 4.1 1.7 3.9-.8 2.5-.8 5.3-1.8-2.7 4.1-2.5 2.2-6.9 1.9-6.8 6.1 1.9 2-3.3 3.9 3.6 5.1-1.5 4.8.7 3.6 4.7 6.9.8 5.4 3 3.1h8.6l4.9 4.6 6.3-.3 4-5.5 3.4-4.7-.3-4.3 8.4-4.5 3.2-3.6 1.4-3.8 4.6-3.4 6.3-1.3 5.9-1.3 2.9-.2 9.9-3.8 7.2-5.5 4.7-2 4.5-.1 12.1-1.8 11.8-4.2 11.5-4.5-5.3-.3-10.3-.2 5.2-2.7-.5-3.5 4.1 2.9 2.6 2 7.1-1-.6-4.2-4.4-3-4.9-1.3 2.3-1.4 7 2 .5-2.2-4-3.3h5.2l5.5-.8 1.7-1.8-3.9-2 8.4-.3-3.9-3.6 4-.5.1-4.1-6-2.4 6.2-1.5 5.6-.1-3.5-3.1 1.1-5 3.5-2.8 4.8-3.1-7.8-.2 11-.7 2.1-1 14.2-2.8-1.5-1.7-9.7-.8-16.4 1.5-8.9 1.5 4.4-2.2-2.2-1.4-7 1.1-9.4-1.4-11.8.5-1.3-.7 17.8-.4 12.5-.2 6.4-1.4z"/><path d="m394.9 372.1-5-.1h-5l-.4 3.5h-2.5l1.8 2 1.9 1.5.5 1.4.8.4-.4 2h-6.9l-3.2 5.1.7 1.2-.8 1.5-.4 1.9 2.6 2.5 2.4 1.3 3.3.1 2.7 1.1.2-1 2-1.5 1.1-.7-.2-.7 1.4-.4 1.3-1.6-.3-1.3.5-1.2 2.7-1.8 2.7-2.3-1.5-.8-.6.9-1.7-1.1h-1.6l1.2-7z"/><path d="m563.3 445.3-2-2.2-2.8-3-2-.1-.1-3.2-3.2-4-3.5-2.3-4.5 3.7-.6 2.2 1.8 2.2-1.5 1.2-3.3 1.1v2.8l-1.5 1.8 3.6 4.7 2.8-.3 1.3 1.5-.8 2.7 1.8.9 1.2 2.9-1.6 2.1-1 5.2 1.4 3.2.3 2.8 3.3 2.9 2.6.3.7-1.3 1.7-.2 2.5-1.1 1.7-1.6 3 .5 1.4-.2-3.2-5.4-.7-3.4-1.8-.1-2.3-4.5 1.1-3.2-.3-1.5 3.4-1.6z"/><path d="m425.3 389.5-1.3-1.8-1.9-1-1.5-1.4-1.5-1.2-.8-.1-2.4-.9-1.1.5-1.5.2-1.3-.4-1.6-.4-.8.7-1.8.7-2.5.2-2.4-.6-.9.4-.5-.6-1.6.1-1.3 1.1-.6-.2-2.7 2.3-2.7 1.8-.5 1.2.3 1.3-1.3 1.6 1.5.5 1.1 1.3 1.6 1 .1.9 2.4-.8 1.1.5.7.7-.6 2.4 1.6.6.7 2 1.8-.3.8-1.5h.8l.2-3 1.3-.2h1.2l1.4-1.6 1.5 1.3.6-.8 1.1-.7 2-1.8.3-1.3.5.1.8-1.5.6-.2.9.9 1.1.3 1.3-.8h1.4l1.9-.8.9-.9z"/><path d="m960.6 198.7-3.9-2.5-1.6-.8-3.8 1.6-.3 2.4-1.7.6.2 1.6-1.9-.1-1.8-1-.8 1-3.4-.2-.2.1v2.1l1.7 1.9 1.3-2.5 3.2 1 .3 2 2.4 2.5-1 .5 4.5 4.4 4.7 1.8 3 2.1 4.9 2.2.5-1-4.6-2.3-2.1-2.4-1.9-1.4-2.4-2.2-1.3-1.8-2.6-2.8.9-2.4 1.8 1.4 1-1.3 2.2-.1 4.3 1 3.4-.1 2.3 1.4 1.7-2.2-1.7-1.8-1.5-2.3-1.8.9z"/><path d="m490 360.3-4.5-1-3.3-.2-1.4 1.7 3.3 1-.3 2.3 2.1 2.7-2 1.4-4.1-.5-4.9-.9-.7 2 2.7 1.9 2.6-1.1 3.2.4 2.6-.4 3.5 1.1.2-1.8-1.2-1.8 1.5-1.1.7-2.3z"/><path d="m974.3 182.6-1.6.4-1 1.4-2.1.7-.6-.4-2.2 1-1.8.2-.3 1.2-4 .8-1.8-.7-2.5-1.6-.2 2.5h-2.7l1.1 1.3-1.3 3.9.8.1 1.2 2.1 1.6.8 3.9 2.5 4.1 1.2 1.8-.9 3.6-1.6 3.1.2 3.7-1.1 2.5-4.2 1.8-4.1 2.8-1.3-.6-1.6-2.8-1.6-1 .6z"/><path d="m1530.9 545.5.5-1.7-1.8-1.8-2.7-2-5.2 1.3 6.8 4.3zm20.3-.6 3.9-4.7.1-1.8-.5-1.3-5.5 2.5-2.7 3.8-.7 2 .6.8zm-34.6-12.6-1.6 2.1-3 .1-2.1 3.5 2.9.1 3.8-.9 6.4-1.2-1.2-2.7-3.4.6zm27.4 0-5.1 2.2-3.7.5-3.3-1.8-4.4 1.3-.2 2.2 7.2.8 8.4-1.8zm-77.3-8.2-.7-2.2-2.2-.5-4.3-2.3-6.6-.4-4 5.9 4.9.4.8 2.7 9.7 2.5 2.3-.8 4 .6 6.1 2.3 5.1 1.2 5.6.5 5-.2 5.7 2.4 6.4-2.3-6.4-3.7-8.1-1.1-1.8-4-10-3-1.3 2.5zm142.5-3.5.2-2.9-1.2-1.8-1.3 2.1-1.2 2.1.3 4.7zm-39.9-17-1.4-2-5.5.3 1 2.6 3.8 1.2zm17.6-2.3-5.9-1.8-6.7.3-1.4 3.4 3.8.2 3.1-.4 4.5.5 4.6 2.5zm20.4-12-.8-2.3-8.7-2.5-2.8 2-7.4 1.5 2.2 3.1 4.9 1.2 2 3.6 8.1.1.4 1.5-3.9-.1-6 2.2 4.1 3-.1 2.7 1.2 2.2 2-.5 1.8-3 8 5.7 4.5.5 10.3 5.3 2.2 5.2 1 6.7-3.6 1.8-2.7 5 6.9-.2 1.6-1.8 5.3 1.3 4.5 5.1 1.4-20.2 1-20.1-5.8-1.2-4-2.2-4.6-2.1h-4.9l-6.4 3.7-4.8 6.6-5.5-3.7zm-48.6-15.9-1-1.4-5.3 4.5-6.3.3-6.9-.9-4.3-1.8-4.6 4.7-1.2 2.5-2.8 9.3-.9 4.9-2.3 4.1 1.6 4.2 2.2.1.6 5.9-1.8 5.7 2.2 1.8 3.5-1 .3-8.8-.2-7.2 3.7-1.9-.7 6 3.8 3.6-.8 2.4 1.3 1.7 5.4-2.3-2.9 5.1 2 2.1 3-1.8.3-4-4.6-7.2 1.1-2.1-5-7.9 4.9-2.4 2.5-3.6 2.3.9.5-2.8-10.2 2-3 2.8-4.9-5.5.9-4.7 4.8-1 9-.3 5.2 1.3 4.2-1.3 4.3-6.1zm18.9 1.8-.6-2.5-3.2-.6-.5-3.4-1.8 2.2-1 5 1.7 8 2.1 3.9 1.6-.8-2.2-3.2.9-3.8 2.8.6zm-59.2-4.4.9-2.8-4.2-5.8 2.9-5.6-4.9-1h-6.2l-1.7 7-1.9 2.1-2.6 8.6-4.4 1.3-5.2-1.8-2.6.6-3.1 3.1-3.5-.4-3.5 1.2-3.8-3.4-1-4.2-3.2 4.1-.6 5.7.8 5.5 2.5 5.2 2.7 1.8.7 8.3 4.5.8 3.5-.4 1.9 3 6.5-2.2 2.7 1.9 3.9.4 1.9 3.8 6.3-2.8.8 2.2 2.4-9.4.3-6.2 5.3-4.2-.2-5.6 1.8-4.2 6.5-.8zm-66.8 47.5.7-9.5 1.7-7.8-2.5-3.9-4-.5-1.8-3.5-.9-4.3-2-.2-3.1-2.1 2.2-5-4.2-2.8-3.2-5.1-4.7-4.3-5.5-.1-5.3-6.6-3.1-2.6-4.4-4.2-5.1-6-8.6-1.2-3.5-.3.6 3.1 5.9 6.8 4.3 3.5 3 5.4 5 3.9 2.1 4.8 1.7 5.3 4.8 5.1 4 8.6 2.6 4.7 4 5.1 2.1 3.7 6.8 5 4.4 5.2z"/><path d="m1299.9 295.6-8.3-4.3-6-3.9-3.1-6.8 4 .9-.6-3.2-2.9-3.2-.8-5-7.4-7.3-3.6 5.2-5.5 1-8.3-1.5-1.8 2.7 3.1 5.4 2.8 4.2 4.9 3-3.6 3.6 1 4.4-3.8 6.1-2 6.3-4.4 6.5-6.2-.5-4.8 6.4 3.9 2.8 1.3 4.8 3.4 3.1 1.8 5.4h-11.7l-3.1 4.1 6.9 5.2 1.8 2.4-2.3 2.2 7.8 7.5 3.9.8 7.4-3.7 1.7 5.7.8 7.6 2.4 7.9 3.5 12 5.6 8.5 1.3 3.8 2 7.8 3.3 5.9 2.1 2.9 2.4 6.2 3 8.6 5.3 5.8 2.1-1.8 1.7-4.3 4.9-1.8-1.8-2 2.1-4.7 2.8-.3-.7-10.5 1.8-5.9-.7-5.1-1.8-8 1.2-4.8 2.4-.3 4.7-2.2 2.5-1.6-.3-2.8 4.9-4.1 3.6-3.9 5.2-7.3 7.2-4.1 2.3-3.7-.9-4.7 6.4-1.3 3.6.1.5-2.3-1.6-5-2.5-4.7.4-3.7-3.6-1.6.8-2.2 3-2.3-4.5-3.3 1.2-4.2 4.7 2.6 2.6.4 1.2 4.3 5.2.9 4.9-.1 3.3 1.1-1.6 5.1-2.3.4-1.1 3.5 3.4 3.2.2-3.9 1.5-.1 4.4 9.8 2.3-1.5-.9-2.6.9-2-.9-6.4 4.5 1.4 1.4-5.1-.3-3 2-5.2-.9-3.5 5.9-4.3 4 1.1-1.3-3.8 1.6-1.2-.9-2.3-5.9-.9 1.2-2.6-3.4-3.8-3.1 2.5-4.8-1.5-5.2 3.9-3.8 4.7-4.1.8 2.6 1.9.4 3.8-4.3.2-4.6-.4-3.1 1-5.3-2.4-.3-1.2-1.5-5-2.9 1.4.1 2.6 1.5 4-.1 2.4-4.5.1-6.6-1.5-4.2-.6-3.7-3.1-7.4-.9-7.5-3.4-5.6-3-5.5-2.4.9-5.7 2.7-2.8z"/><path d="m846.3 151.4-3.4-1.3-2.8.1 1.1-3.1-.8-3.1-3.6 2.7-6.5 4.6 2 5.9-4.1 6.2 6.5.9 8.5-3.5 3.8-5.2z"/><path d="m1104.9 241.5-3.1-2.8-1.2-2.3-3.2 1.8 2.8 7.1-.7 1.9 3.6 5 4.6 7.6 3.6 1.9 1 3.7-2.2 2.1-.5 4.9 4.5 5.9 6.8 3.3 3.4 4.8-.2 4.5h1.7l.5 3.2 3.3 3.3 1.7-2.4 3.6 2 2.7-1 5 8.2 4.2 5.9 5.3 1.8 5.9 4.8 6.7 2 5-3 3.9-1.1 2.7 1.1 3.1 7.6 6.1.8 5.9 1.5 10.2 1.9 1.2-7.2 7.2-3.2-.9-2.8-2.6-1-1-5.5-5.4-2.6-2.7-3.8-3.1-3.2 3.8-5.6-1.1-3.9-4.2-1.1-1.1-3.9-2.6-5 1.6-3.4-2.4-.9.5-4.6.5-7.8-1.6-5.3-3.8-.2-7.1-5.5-4.2-.7-6.3-3.2-3.7-.6-2 1.2-3.4-.2-2.9 3.6-4.3 1.2-.2 1.5-7.7 1.6-7.6-1-4.2-3.2-5.1-1.3-2.4-4.7-1.3.3-3.7-3.3 1.2-3-1.8-1.9-1.8.5-5.2 4.6-1.8.2z"/><path d="m1098.9 251.7-6-.9-2 1-2 4-2.6 1.5 1.2 4.6-.9 7.6-10.7 6.5 3 7.5 6.5 1.6 8.3 4.4 16.2 12.3 9.9.5 3.1-5.9 3.6.5 3.1.4-3.3-3.3-.5-3.2h-1.7l.2-4.5-3.4-4.8-6.8-3.3-4.5-5.9.5-4.9 2.2-2.1-1-3.7-3.6-1.9-4.6-7.6-2.2 1.1z"/><path d="m815.5 80.4-6.7-.4-7.1 2.8-5-1.5-6.7 2.9-5.7-3.7-6.3.8-3.4 3.6 8.5 1.3-.1 1.6-7.6 1.1 8.5 2.6-4.5 2.4 11.4 1.8 5.4.8 3.8-1 12.5-3.8 5.9-4.1-4.3-3.7z"/><path d="m1060.5 276.5-1.4.1-.4 1.1h-1.8l-.1.1-.6 1.6-.6 4.7-1.1 2.8.4.4-1.4 2 3.8 8.9.7 1.6 1.7-9.9-.4-2.3-2.3.8.1-1.7 1.2-.8-1.4-.7.7-4.2 2 .9.7-1.9h-.1l.6-1z"/><path d="m953.7 245.5-3.9.5-5 .7-6-.6-.6 3.3 7.3 3.2 2.6.7 4.1 2.3.9-3.2-.9-1.9zm-32.8-18.3-2.4 1.9-2.7-.3 1.3 3.5.4 7.4 2 1.6 2-2 2.3.4.4-8.2zm13.9-33.4-1.3-2.1-4.7 1.1-.5 1.2-3-.9-.3 2.4-2 1.1-3.7-.8-.9 2.4-2.3.2-.9-1-2.6 2-2.3.3-2.1-1.3-.2 1.7 1.5 2.3-1.7 1.8 1.5 4.7 2.6.8-.5 2.6 2-.5 2.7-2.7 2.2-.9 4.1 2 2.5.7 1.8 5.8 3.5 3.5 4.8 3.9 4.1 2.7 3.8.4 2.2 2.4 3.3 1.2 1.7 2.6 2.1.8 1.8 3.1 2.2 3.6-1.1 1.3-.8 3.4.1 1.9 2-.5 2.4-5.4 2-.4.5-3.1-3.8-2.2 1.8-4 4.4 1 3 2.9.8-2.2-.6-1.2-4.6-3.1-3.8-1.9-4.7-2.2 1.4-1.2-1.4-1.4-3.9.1-5.8-4.9-2.8-4.9-4.8-3-1.8-3 .5-1.8-.4-2.9 3.8-2.1 4 .9-1.4-2.6.3-2.9z"/><path d="m460.9 371.8 3.8-.1-.8-1.8-2.6-1.5-3.6-.6-1.2-.2-2.3.4-.8 1.5 2.8 2.2 2.9 1z"/><path d="m1078.8 283.4-3-7.5-9.3 6.5-6.1-2.4-.7 1.9.4 3.8-.6 1.9.4 2.3-1.7 9.9.3.9 5.9 1 2-2 1.1-2.2 3.9-.8.7-2.1 1.7-1-5.9-6.2 10.1-3z"/><path d="m1570.4 271.1-4.4-1.3-1.1 2.6-3.2-.8-1.3 3.7 1.2 2.9 4.1 1.8-.1-3.6 2-1.5 3 2 1.3-3.8zm23.7-18.8-3.5-6.5 1.3-6.2-2.7-5.1-7.9-8.4-4.7 1.2.2 3.8 5 6.9 1 7.7-1.7 2.4-4.4 6.3-4.9-3v11.2l-6.1-1.3-9.3 1.8-1.8 4.3-3.8 3.2-1.1 3.9-4.2 1.9 3.9 4.2 4 1.9.9 5.5 3.4 2.4 2.4-2.6-.8-10.5-7.1-4.6 5.9-.1 4.9-2.9 8.4-1.4 2.3 4.7 4.5 2.3 4.3-7.1 8.8-.4 5.2-2.9.6-4.5-2.4-3.1zm-11.5-42.9-5.2-2-10.1-6.2 1.8 4.7 4.2 8.3-5 .4.6 4.6 4.5 5.9h5.5l-1.6-6.6 10.5 4.1.4-5.9 6.2-1.6-5.8-6.7-1.7 2.5z"/><path d="m1197.5 143.7-8.8-1.3-3 2.4-10.5 2.1-1.7 1.5-16.3 2-1.4 2 4.9 4-3.8 1.6 1.5 1.6-3.5 2.8 9.1 4.1-.2 2.9-6.7-.3-.8 1.8-7.1-3.1-7.4.2-4.2 2.4-6.4-2.3-11.6-4.1-7.3.2-7.9 6.4.7 4.5-5.8-3.5-2 6.6 1.7 1.2-1.7 4.6 5.2 4.2 3.5-.2 4.1 4 .2 3.1 2.7 1 4.3-1.3 4.8-2.6 4.6 1.5 4.8-.3 1.8 3.8.6 5.8-4.5-.9-3.9 1 .9 4.4-4.9-.6.6 2 3.1 1.6 3.6 5.4 6.2 2 1.4 2-.7 2.5.7 1.5 1.8-1.9 5.3-1.3 3.7 1.7 4.8 4.8 2.4-.3-6-22.2 11.6-3.5 1.1.5 8.8 4.4 4.7 2.2 6.3 5.3 5.5-.9 8.4-.5 7.3 4.4 1.5 6 2.4.1 2.5 4.9 6.4.2 2.2 2.9h1.8l.9-4.4 5.2-4.2 2.4-1.2.3-2.6 3-.8 8.8 2-.5-3.5 2.4-1.3 7.9 2.5 1.6-.7 8.3.2 7.6.6 3.2 2.1 3.4.9-1.7-3.4 2.8-1.6-8.5-10.4 8.8-2.3 1.9-1.4-1-10.8 10.4 1.9 1.6-2.7-2.4-6 3.7-.6 1.8-4.1-4.2-3.7-5.8.9-3.2-2.5-3.8-1.2-4-3.5-3.1-1.1-6 1.6-8.1-3.5-1.1 3.2-17.6-15.1-8.1-4.6.8-1.8-8.8 5.5-4.3.4-1.2-3.2-6.8-2-4.2 1.4z"/><path d="m1103.2 458h-3.7l-2.2-2-5 2.5-1.6 2.6-3.7-.5-1.2-.7-1.3.1h-1.8l-7-5.2h-3.8l-1.9-2v-3.5l-2.8-1.1-3.7 4.1-3.3 3.7 2.6 4.3.7 3.1 2.5 7.1-2 4.6-2.6 4.1-1.6 2.5v.3l1.4 2.3-.4 4.6 19.6 12.6.4 3.6 7.8 6.1 2.1-2 1.2-4.1 1.8-2.5.9-4.4 2-.4 1.4-2.6 3.9-2.4-3.2-5.1-.2-22.5z"/><path d="m1273.7 220.3-3.4-.9-3.2-2.1-7.6-.6-8.3-.2-1.6.7-7.9-2.5-2.4 1.3.5 3.5-8.8-2-3 .8-.3 2.6 1.8.6-3 4 4.5 2.2 3.1-1.6 6.9 3.2-5.1 4.4-4-.6-1.4 1.9-5.7-1.1.6 3.6 5.2-.5 6.9 2 9.2-.9 1-1.5-1.1-1.4 3.9-2.9 3.1-1.2 5.5.9.6-3.9 6.2-.8 1-2.3 6.6-3.3z"/><path d="m1456 394.4-5-2.2-2 4.2-4.8-2.3-5.2-1-6.9 1.3-2.9 5 2 7.5 3.3 6.4 2.5 3.2 4.6.9 4.6-2.4 5.6-.5-2.7-3.7 8.6-4.8-.1-7.5z"/><path d="m1516.7 248.6 6 5.3-3.3 1.1 5 6.6 1.1 4.7 2 3.4 4.4-.5 3.1-2.6 4.1-1.2.5-3.5-3.3-7.3-3.2-4.1-8-7.4.1 1.6-2 .4-3.4.3-.7 2.8-2.3-.2z"/><path d="m1126.4 296.8-3.6-.5-3.1 5.9 4.8.6 1.7 3 3.7-.2-2.3-4.6.3-1.5z"/><path d="m1456 394.4.2-6.2-1.9-4.4-4.7-4.3-4.2-5.4-5.5-7.3-7.1-3.7 1.3-2.2 3.2-1.6-2.9-5.3-6.6-.1-3.3-5.5-3.9-5-2.6 1 1.8 7-2.8-.1-.7-1.5-4 4-.7 2.3 2.5 1.9.9 3.7 3.7.3-.4 6.5 1 5.5 5.2-3.7 1.8 1.2 3.1-.2.8-2.1 4.2.4 4.8 5.1 1.3 6.1 5 5.3.5 5.2-1.5 2.8 4.8 2.3 2-4.2z"/><path d="m1060.5 276.5.9-3.4 2.5-2.3-1.2-2.4-2.3-.3-.1.2-2 4.4-1.3 5.1h1.8l.4-1.1z"/><path d="m828.9 434.7-1.5-.2-1.1 2.5-1.6-.1-1.1-1.3.4-2.5-2.2-3.8-1.5.7-1.2.2-2.5 2.9-2.5 3.3-.3 1.9-1.3 1.9 3.6 4 4.7 3.4 5 4.7 5.5 3 1.5-.1.5-5 .5-.8-.2-2.4-2.2-2.6-1.8-.4-1.5-1.8 1.2-2.7-.6-3z"/><path d="m1006.1 287.1-1.5-2-5.2-.8-1.8-1.1h-1.9l-1.9-2.7-7.1-1.3-3.5.8-3.6 2.9-1.5 3 1.5 4.7-2.3 2.9-2.4 1.5-5.7-3-7.5-2.6-4.8-1.2-2.7-5.5-7-2.7-4.4-1.1-2.1.6-6.2-2.1-.1 4.8-2.5 1.8-1.5 1.9-3.6 2.4.7 2.5-.4 2.6-2.5 1.4 1.8 5.4.4 2.9-.9 5 .5 2.8-.6 3.4.5 3.9-2 2.5 3.3 4.6.2 2.6 2 3.5 2.5-1.2 4.2 2.8 2.4 3.9 8.6 2.7 3 3.4 3.8-2.3 5.2-3.4 21.7 11.9 21.8 11.9v-2.6h6.1l-.5-12.3-1-22.7-1.3-22-1.9-5 1.2-3.8-1.1-2.6z"/><path d="m1317.5 443.9 2.2-1.8.6-6.4-2.9-6.4-2.8-4.4-4-3.4-1.8 10 1.4 8.8 2.7 5z"/><path d="m1022 671.1 1.1-2 3-1 1.1-2 1.8-3-1.7-1.8-2.2-1.9-2.5 1.3-3 2.4-3.1 3.9 3.6 4.8z"/><path d="m995 141.2-4.9-2.8-2.4-.4-.9-1.3-4.3.6-7.7-.4-4.9 1.9 1.7 4.9 4.9 1.1 2.1.9-.2 1.6.6 1.5 2.4.6 1.4 1.9h4.5l4.7-2.1.5-3.3 3.4-1.9z"/><path d="m904.3 177.5.2-2.6-1-1.4-1.3.2-.4 3.4 1.1.5z"/><path d="m996.7 130.4h-3.7l-4.3-2.1-2-.7-3.6 1-.2 4.5-3.5.1-4.3-4.4-3.9 2-1.7 3.6.5 4.4 4.9-1.9 7.7.4 4.3-.6.9 1.3 2.4.4 4.9 2.8 2.5-1 4.5-2.2-2-3.5-1-2.7z"/><path d="m863.7 264.8-2.2-.1-5.3-1.4-4.9.4-3-2.6h-3.8l-1.8 3.8-3.6 6.5-3.9 2.5-5.2 2.8-3.4 4.2-.9 3.3-2 5.2 1.1 7.7-4.6 5.1-2.7 1.6-4.3 4.3-5 .7-2.7 2.3-.1.1-3.5 6.3-3.6 2.2-2 3.9-.2 3.2-1.6 3.7-1.8 1-3 3.9-1.9 4.4.3 2.1-1.8 3.2-2.1 1.6-.3 2.9h.1l12-.5.7-2.2 2.2-2.8 1.9-8.5 7.6-6.6 2.7-7.9 1.7-.4 1.8-4.9 4.5-.7 1.8.9h2.4l1.8-1.5 3.3-.2-.1-3.3h.8l.1-7.3 8.7-4.6 5.2-1 4.3-1.6 2-3.1 6.1-2.4.3-4.6 3-.5 2.4-2.3 6.8-1 1-2.4-1.3-1.3-1.8-6.5-.3-3.8z"/><path d="m1012.6 201.5 1.2-.7.5-2 1.1-2-.5-1.1 1-.5.6.9 2.9.2 1.2-.5-1-.6.2-1-1.9-1.5-1.1-2.5-1.8-1.1v-2l-2.4-1.6-1.9-.3-3.8-1.9-3.1.6-1.1.9 1.6.6 1.8 1.9 1.8 2.5 3.3 3.6.6 2.6-.2 2.6z"/><path d="m1145.9 566-1.1-4.1-1.4-2.6-1.8-2.6-1.9 2.7-.3 3.7-3.2 4.4-2.2-.8.6 2.6-1.8 3.1-4.7 3.8-3.3 3.6h-2.3l-2.1 1.2-3 1.3-2.7.2-1 4-2.1 3.4.1 5.7.8 3.9 1.1 2.9-.8 4-2.8 4.7-.2 2-2.5 1.1-1.3 4.5.2 4.5 1.6 4.9-.1 5.5 1.2 3.2 4.1 2.2 2.9 1.7 4.9-2.6 4.5-1.5 3-7.2 2.7-8.6 4.2-11.7 3.2-8.6 2.6-7.2.8-5.2 1.6-1.5.7-2.6-.8-4.6 1.2-1.8 1.6 3.7 1.1-1.8.8-3-1.3-2.8z"/><path d="m357.6 322.5-3.5-1.4-3.8-1.9-.8-2.9-.2-4.4-2.3-3.5-1-3.6-1.5-4.3-3-2.5-4.3.1-4.7 4.9-3.9-1.9-2.1-1.8-.4-3.4-.8-3.2-2.3-2.7-2-2-1.3-2.1h-9l-.8 2.5h-14.6l-10.4-4.3-6.9-3 1-1.3-6.8.7-6.1.5.2 5.5.7 5 .7 4 .8 3.9 2.5 1.8 2.8 4.4-1 2.8-2.6 2.2-2-.3-.6.5 2.2 3.6 2.8 1.5 1 1.7.9-.9 3 2.8 2 1.9.1 3.3-1.2 4.6 2.4 1.6 3.2 3 2.8 3.5.7 3.8h1l2.6-2.2.4-1.2-1.5-2.7-1.5-2.9-2.5-.2.4-3.3-.9-2.9-1-2.7-.5-5.7-2.5-3.1-.5-2.3-1.2-1.6v-4l-1 .1-.1-2.1-.7-.5-.4-1.4-2.6-4.3-1.1-2.5 1-4.7.1-2.9 1.8-2.5 2.3 1.7 1.9-.2 3 2.4-.9 2.3.4 4.8 1.5 4.6-.4 2 1.6 3 2.2 3.3 2.6.5.3 4.3 2.3 3 2.4 1.5-1.8 3.9.7 1.5 4 2.5 1.9 3.9 4.4 4.8 3.7 6.2 1.3 3.1v2.4l1.4 2.8-.3 2.1-1.5 1.6.3 1.8-1.9.7.8 3 2.1 3.9 5.1 3.5 1.9 2.8 5.2 2 2.9.4 1.2 1.7 4.1 2.9 5.7 2.9 3.9.9 4.7 2.8 3.9 1.2 3.6 1.6 2.8-.7 4.7-2.3 3-.4 4.3 1.5 2.5 2 5.3 6.7.4-1.9.8-1.5-.7-1.2 3.2-5.1h6.9l.4-2-.8-.4-.5-1.4-1.9-1.5-1.8-2h2.5l.4-3.5h5l5 .1.1-1 .7-.3.9.8 2.4-3.8h1l1.2-.1 1.2 1.6 1.9-4.9 1.2-2.6-.9-1.1 1.7-3.8 3.4-3.7.6-3-1.2-1.2-3.3.5-4.7-.2-5.8 1.5-3.9 1.6-1.2 1.8-1.2 5.2-1.7 3.6-3.8 2.5-3.5 1.1-4.2 1.1-4.2.6-4.9 1.8-1.9-2.5-5.4-1.6-1.8-3.1-.7-3.5-2.9-4.6-.4-4.9-1.2-3-.5-3.3 1.1-3 1.8-8.4 1.8-4.4 3-5.4z"/><path d="m988.8 222.4-2.7-1.9-2.3.1-1.7.4-1.1.2-2.8 1-.1 1.2h-.7l-.4 2 .9 2.5 2.2 1.6 3.2-.6 1.8-1.3 2.7.1.7-1.1 1-.2z"/><path d="m897.8 363.8-5.9.6-.1-3.9-2.5-1.1-3.3-1.8-1.3-2.9-18.1-13.4-17.9-13.5-8.2.1 2.3 26.6 2.3 26.7 1 .8-1.3 4.3-21.7.1-.9 1.4-2-.4-3.1 1.3-3.8-1.7-1.8.2-1 3.6-1.8 1.2.2 3.8 1.1 3.6 2 1.7.4 2.3-.3 1.9.3 2.2h.9l1.5-.8.9.2 1.5 1.6 2.3.5 1.6-1.4 1.7-.8 1.3-.9 1.1.2 1.3 1.4.6 1.7 2.2 2.6-1.2 1.5-.2 2 1.2-.6.7.7-.3 1.9 1.7 1.8.7-.6 1.6 1 4.2.1 1-1.8 1 .1 1.5-.7.9 2.6 1.3-.8 2.2-.9-.4-3.6 1.5-2.6-.2-2.1 4.4-5 .8-4.3 1.5-1.5 2.6.9 2.2-1.3.8-1.6 4.2-2.8 1.1-2 5-2.5 2.9-.9 1.4 1.2h3.5l3.5-.3 1.9-2.1 7.4-.6 4.8-1 .5-3.8 2.9-4.2z"/><path d="m1416.3 349.7-.6-2.5-3.7 1.8-2.5-1.2-4.4-2.3.8-5-3.6-1.3-2.2-5.6-5.4 1-.7-7.3 4-5.1-.8-5.1-1.3-4.8-2.6-1.5-2.6-3.6-2.9.4.9 2.3-1.6 1.2 1.3 3.8-4-1.1-5.9 4.3.9 3.5-2 5.2.3 3-1.4 5.1-4.5-1.4.9 6.4-.9 2 .9 2.6-2.3 1.5.5 4.5-2-1 1.1 5 4.5 5.1 3.3.9-.4 2.1 5.2 7.2 1.8 5.7-.9 7.7 3.5 1.5 3.1.6 5.6-4.5 3.1-3 3 5 1.9 7.9 2.5 7.4 2.5 3.2.2 6.7 2.1 3.7-1.3 4.7.9 4.7 2.1-6.4 2.5-5.7-2.8-5.6-.2-2.9-1-3.4-4.1-5-1.7-3.1 1.7-1.1 1.4-5.4-2.8-4.1-4-4.5-3.3-5.4 2.1-1.1 1.5-6.7 3.8-.3 2.7-2.7 2.9-1.3.8-2.3z"/><path d="m975.2 217.6.4-.6-1.9-1.2-1.8-.7-.8-.8-1.5-1.1-.9.6-1.4 1.4-.4 3.3-.5 1 2.2 1.2 1.6 2 1.1.4-.5-1.9 1.9-3 .4 1.2 1.3-.5z"/><path d="m1357.8 171.2-3.6-4.5-6.4-1.5-4.7-.8-6.7-2.4-1.3 6.2 3.9 3.5-2.3 4.2-7.7-1.6-4.9-.2-4.6-2.8-5-.1-5.2-1.9-5.7 2.8-6.4 5.2-4.6 1 3.2 4.3 5.5 3.2 7.9 2.2 5.6 4.9 1.3 7.1 2.9 2.6 6.2 1 7 .9 7.7 3.7 3.3.7 4.8 5.5 4.6 3.5 5.3-.1 10.9 1.3 6.2-.8 5.3.9 9 3.7 6-.1 3.1 1.9 4.3-3.2 7-2.1 7.3-.2 4.8-2.1 1.8-3.2 2.4-1.9-1.8-2-2.8-2.2.4-3.9 3.1.5 5.7 1.3 3-3.2 6.1-2.3 1.4-4 2.3-1.8 6.6-.8 4.2.7-.7-2.1-7-4.2-5-1.9-2.4 2.2-5.2-1-2.3.8-2.6-2.5-.3-6-.6-4.5-5.3.5-3.8-2-3.2-.7-4.4 4.3-5.6 1-3.5 1.6-6.5-1h-4.4l-4.8-3-6.1-3-5.2-.8-5.5.8-3.8 1.1z"/><path d="m1094.7 548.8-.8-2.8-4.5 3.6-6 2.4-3.2-.1-2 1.8-3.8.1-1.4.8-6.5-1.8-2 .3-1.6 5.8.7 7.1h.3l1.8 2 2.1 4.5.1 8-2.4 1.3-1.8 4.4-3.3-3.9-.2-4.4 1.2-2.9-.3-2.5-2-1.6-1.6.6-2.9-2.9-16.6 5 .3 4.4.3 2.3 4.5-.1 2.5 1.3 1.1 1.6 2.5.5 2.7 2-.3 7.9-1.3 4.3-.5 4.6.8 1.8-.8 3.6-.9.6-1.6 4.5-6 7 2.1 8.8 1.1 4.4-1.4 6.9.4 2.2.6 2.8.3 2.7h4l.7-3.2-1.4-.5-.3-2.5 2.5-2.3 6.6-3.3 4.5-2.1 2.4-2.2.9-2.5-1.2-1.1 1.1-2.9.5-6-1 .3v-1.8l-.8-3.6-2.3-4.7.7-4.5 2.2-1.4 4-4.5 2.1-1.1 6.5-6.6 6.2-3 5-2.4 3.6-3.8 2.3-4.3 1.8-4.5-.9-3 .2-9.6-.4-5.4.4-6.1z"/><path d="m848.7 327.8-19.7-15-.2 9.4-17.4-.3-.2 15.8-5.1.5-1.4 3.2.9 8.9-21-.1-1.1 2.1 2.7 2.6 1.4 2.9-.7 3.1.6 3.1.5 6.1-.8 5.7-1.7 3.1.4 3.3 2-1.9 2.6.5 2.7-1.4h3l2.5 1.8 3.6 1.6 3.1 4.6 3.5 4.3 1.8-1.2 1-3.6 1.8-.2 3.7 1.8 3.1-1.3 2 .4.9-1.4 21.7-.1 1.3-4.3-1-.8-2.3-26.7-2.3-26.6z"/><path d="m1061.9 569.1.1-2.2-1.2-1.8.1-2.7-1.5-4.6 1.7-3.4-.1-7.5-1.8-4 .2-.7-1.1-1.7-5.2-1.2 2.5 2.7 1.2 5.2-1 1.8-1.2 5 1 5-1.8 2.1-1.8 5.7 2.8 1.7 2.9 2.9 1.6-.6 2 1.6.3 2.6-1.3 2.8.2 4.4 3.3 3.9 1.8-4.4 2.4-1.3-.1-8-2.1-4.5-1.8-2h-.3v.8l1.1.3 1 3.3-.2.8-1.8-2.4-1 1.6-.8-1.4z"/><path d="m1425.7 443.9-4.6-2.7-.9 1.1 1.4 2.6-.4 4.6 2 3.3 1 5.1 3.3 4.2.8 3.1 6.5 4.9 5.2 4.7 3.9-.5.1-2-2.2-5.4-2-1.8-.5-3.7-.6-2 .5-2.8-.5-4.2-2.5-4.2-3.4-3.7-1.3-.6-1.7 2.5-3.6.8-.6-3.2zm96.2 10.6-1.2-3 3.7-.4.3-2.3-4.7-1.9-3.7-1.6-.4-2.7-3-3.1h-2.2l-2.4 4.9-4 4.3-.1 3-.1 4-2.6-.2-1.1 2.1-2.6-3.2-2.5 3.9-3.7 4.9-6.5 1.4-2.3 1.2-.9 5.2-4.3 1.2-4-2.1 1 4.2 3.8 3.4 3.5-1.2 3.5.4 3.1-3.1 2.6-.6 5.2 1.8 4.4-1.3 2.6-8.6 1.9-2.1 1.7-7h6.2l4.9 1z"/><path d="m999.9 590.6-10 2.4-13-.9-3.6-2.9-21.9.3-.9.4-3.1-2.8-3.5-.1-3.2 1-2.6 1.2.2 4.8 4.3 6 1.1 3.9 2.7 7.5 2.6 5 2 2.5.6 3.4v7.4l1.6 9.5 1.2 4.5 1 6 1.8 4.6 3.8 4.7 2.6-3.1 2 1.8.8 2.6 2.3.5 3.2 1.2 2.8-.5 4.9-3.1 1.1-22.9.6-18 5.2-.2.9-22.1 4-.2 8.3-2.1 1.9 2.5 3.6-2.4h1.6l3.1-1.5v-.5l-2-1.4-3.5-.4-4.5 1.5z"/><path d="m947.3 339.8-8.6-2.7-18.1 11.9-15.4 12.1-7.6 2.7.1 14.2-2.9 4.2-.5 3.8-4.8 1-7.4.6-1.9 2.1-3.5.3-.5 3 .8 2.8 3 4 .2 3 6.2 1.4-.1 4.3 1.8-1.9h1.9l4.2 3.6.3-5.5 1.6-2.5.8-3.5 1.4-1.4 5.8-.8 5.5 2.3 2 2.3 2.8.1 2.5-1.5 6.6 3.2 2.7-.2 3.2-2.6 3.2.2 1.6-.9 2.9.4 4.2 1.8 4.2-3.4 1.3.2 3.8 6.8 1-.2.2-2 1.6-.4.5-2.8-3.5-.2v-4l-2.3-2.2 2.2-8.2 6.7-5.8.2-8.1 1.8-12.5 1.1-2.6-2.2-2.1-.2-2-1.9-1.5-1.6-9.6-3.8 2.3z"/><path d="m951.7 405-1 .2-3.8-6.8-1.3-.2-4.2 3.4-4.2-1.8-2.9-.4-1.6.9-3.2-.2-3.2 2.6-2.7.2-6.6-3.2-2.5 1.5-2.8-.1-2-2.3-5.5-2.3-5.8.8-1.4 1.4-.8 3.5-1.6 2.5-.3 5.5-.2 2 1.2 3.7-1.1 2.4.6 1.6-2.6 3.9-1.7 1.9-1 3.9.1 4-.3 9.9h8.9l3.8 4.1 1.8 4.5 2.9 3.8 4.4.2 2.1-1.4 2 .3 5.6-2.2 1.4-4.4 2.6-5.9 1.5-.1 3.2-3.6 2-.1 3.1 2.5 3.8-2.1.5-2.5 1.2-2.5.8-3.1 2.9-2.5 1.1-4.4 1.2-1.4.7-3.2 1.4-3.9 4.5-4.9.3-2 .6-1.1-2.2-2.5z"/><path d="m425.3 389.5-1.9-.2-.9.9-1.9.8h-1.4l-1.3.8-1.1-.3-.9-.9-.6.2-.8 1.5-.5-.1-.3 1.3-2 1.8-1.1.7-.6.8-1.5-1.3-1.4 1.7h-1.2l-1.3.2-.2 3h-.8l-.8 1.5-1.8.3-.4.4-.9-1-.7 1 2.5 2.8 2.1 2 1 2 2.4 2.5 1.7 2 .9-.8 3.4 1.6 1.4-.8 1.6.5.8 1.3 1.6.4 1.4-1.3-.8-1.1-.1-1.6 1.2-1.6-.2-1.6.7-2.6.9-.7.1-2.7-.2-1.7.4-2.7.9-2.4 1.4-2.1-.3-2.2.4-1.4z"/><path d="m902.8 163.2h2.8l1.1-2.2 1-5.4-1-1.9-3.8-.2-6.3 2.5-3.8 8.6-2.4 1.6 3.5.5 4.3-1.3 3 2.6 2.7 1.4z"/><path d="m983.8 55.6-6.7 1.1-7.1-.3-5 4.3-6.5-.3-8.2 2.2-9.8 6.6-6.2 3.9-8.5 10.4-6.9 7.6-7.9 5.6-10.9 4.7-3.8 3.5 1.8 13 1.8 6.1 6.2 2.9 5.8-1.4 8.3-6.6 3.2 3.5 1.7-3.2 3.3-3.9.9-6.7-3-2.8-1-7.4 2.2-5.2 4.2.1 1.3-2.1-1.8-1.8 5.5-7.7 3.3-5.9 2.1-3.8 3.9.1.6-3 7.7.9v-3.4l2.4-.3 2-1.4 5 2.8 5.2-.3 4.6 1.3 3.3-2.3 1.1-3.8 5.6-1.8 5.5 2-.8 3.7 3.1-.5 6.2-2.1-5.2-3.2 4.7-1.4zm-22-32.4-5.4-1-1.8-1.6-7 .9 2.5 1.5-2.2 1.1 6.5 1.1zm-24.7-8-4.7-1.6-5 .2-1 1.5h-4.9l-2.1-1.5-9 1.5 3.1 3.4 7.4 3.7 5.5 1.4-2.9 1.7 8.2 2.8 4.3-.2.9-3.8 2.9-.9 1.2-3.3 8.3-1.8zm23.5-3-8.8-1-3.1 1.2-5.2-1-10.1 1.2 4.2 2h5l.9 1.3 10.3.7 9.8-.5 4.2-2.3z"/><path d="m1339.8 309.9-6.3-.6-6.2-1.5-4.9-2.7-4.4-1.2-2.4-3-3.1-.9-6.2-4-4.6-1.9-1.8 1.5-2.7 2.8-.9 5.7 5.5 2.4 5.6 3 7.5 3.4 7.4.9 3.7 3.1 4.2.6 6.6 1.5 4.5-.1.1-2.4-1.5-4z"/><path d="m1741.5 735.5.9-2.5-5.6 2.8-3.3 3.3-3.1 1.6-5.7 4.5-5.4 3.1-6.8 3.1-5.3 2.3-4.2 1.1-11 5.9-6.2 4.5-1.1 2.2 5 .4 1.4 2 4.4.1 3.9-1.8 6.1-2.7 7.9-6 4.6-4 6-2.2 3.9-.1.6-2.8 4.5-2.4 6.8-4.4 4.1-2.8 2-2.5.5-2.5-5.4 2.4zm28-29.7 1.8-5.5-3-1.7-.8-3.5-2.2.5-.4 4.5.8 5.5.9 2.6-.9 1.1-.6 4.3-2.3 4-4.1 4.9-5.2 2.1-1.7 2.3 3.6 2.4-.8 3.4-6.7 5 1.4.9-.4 1.5 5.7-2.4 5.7-4.1 4.4-3.3 1.6-1.2 1.4-2.6 2.7-1.9 3.7.2 4.1-3.7 5-5.5-2-.8-4.5 2.4-3.1-.5-2.8-2 2.2-4.8-1.2-1.8-2.8 4.3.4-6.6z"/><path d="m1190 351.6 2-1.9.8-1.8 1.6-3.7-.1-1.4-2-.8-1.6-2-2.8-3.6-3.2-1.1-4-.9-3.2-2.2-2.8-4.2h-2.7l-.1 4.1 1.1.8-2.3 1.3.3 2.5-1.4 2.5.1 2.5 2.8 4.4-2.5 12.3-15.7 6.2 5.1 10.2 2 4.3 2.4-.3 3.5-2.1 3 .6 2.4-1.8-.2-2.4 2-1.5h3.3l1.2-1.3.2-3 3.2-2.3h2.5l.4-.8-1-4.1.6-3.1 1-1.5 2.4.3zm-16.2-29.5.2-2.5-.7-.6-1.3 2.1 1.3 2.1z"/><path d="m1274.8 262.7-9.1-2.5-2.8-4.9-4.6-2.9-2.7.7-2.3 1.2-5.6.8-5.2 1.3-2.3 2.7 1.8 2.7 1.4 3.1-2 2.6.8 2.4-.9 2.2-5-.2 2.9 4.1-2.9 1.5-1.5 3.7 1.1 3.7-1.7 1.8-2-.6-3.9.9-.2 1.6h-3.9l-2.2 3.5.8 5.2-6.4 2.5-3.7-.5-.9 1.4-3.2-.8-5.2.9-9.3-3.1 3.1 3.2 2.7 3.8 5.4 2.6 1 5.5 2.6 1 .9 2.8-7.2 3.2-1.1 7.2 7.4-.9 8.7-.1 9.6-1.2 4.8 4.7 2 4.5 4.1 1.6 3.1-4.1h11.7l-1.8-5.4-3.4-3.1-1.3-4.8-3.9-2.8 4.8-6.4 6.2.5 4.4-6.5 2-6.3 3.8-6.1-1-4.4 3.6-3.6-4.9-3-2.8-4.2-3.1-5.4 1.8-2.7 8.2 1.5 5.5-1z"/><path d="m453.9 428.6-2-1.8-1.7-1.9-2.4-1.1-3-.2.3-.6-3-.4-1.9 1.9-3.4 1.3-2.4 1.5-2.6.5-1.5-1.5-.5.5-2.2-.3.2-1.3-1.8-2.2-2.1.6-.1 2.4 1.1 1-.8.7.1 1.2-.5 1.3-.4 1.2.6 1 .3-1.4h2.3l1.4.7 2.2.5 1 2.4 1.7.4.8-1.1.8 3.7 2.5-.3.9-.9 1.5-.9-2.4-3.3.6-1.3 1.3-.3 2.2-1.5 1.2-2.1 2.4-.4 2.6 1.8 1 2 1.4.4-1.5 1.6 1 3.4 1.8 1.8.9-3 1.8.5 1.1-1.8-1.1-3.7z"/><path d="m493.5 508.8-2.8-3.3-1.7-.1 3.5-6.3-4.3-2.9-3.2.6-2-1.1-2.9 1.6-4.1-.8-3.3-6.5-2.6-1.6-1.8-2.9-3.6-2.9-1.5.6.8 4.8-1.7 4-5.9 6.5-6.5 2.4-3.2 5.3-.9 4.2-3 2.5-2.4-3.1-2.2-.7-2.2.5-.2-2.2 1.5-1.5-.7-2.6-4.3 3.9-1.6 4.4 2.9 5.9-1.7 2.7 4 2.5 4.4 4 1.9 4.6 2.3 2.8 5.8 12.3 6 11.4 5.2 8.2-.8 1.8 2.7 5.2 4.5 3.8 10.4 6.7 11.3 6.2.7 2.6 5.7 3.6 2.6-1.5 1.2-3.2 2.7-6.7-2.7-5.1 1.1-2-1.2-2.3 1.8-3.1-.3-5.2-.1-4.4 1.1-2-5.3-10-2.9 1.1-2.5-.7-.2-9.4-4.3 3.7-4.8-.2-2.2-3.4-3.6-.3 1-2.7-3.2-3.7-2.5-5.6 1.5-1.1-.1-2.6 3.2-1.8-.7-3.3 1.3-2.1.4-2.9 6-4.2 4.5-1.2.7-1z"/><path d="m1562.7 430.2-.6-2.2-.8-3.1-4.7-2.9.8 4.8-3.8.2-.7 2.7-4.1 1.6-2.1-2.7-2.7 2.3-3.3 1.7-1.8 5.2 1.1 1.9 3.8-3.5 2.6.3 1.4-2.6 3.7 2.9-1.5 3 1.8 4.5 6.6 3.6 1.4-2.9-2-4.6 2.3-3.1 2.4 6.2 1.5-5.6-.6-3.4zm-14.1-11.5v-5.9l-3.5 5.9.5-4.1-2.9.3-.3 3.9-1.2 1.7-1 1.7 3.7 4.3 1.6-1.8 1.4-3.9zm-29.2 5.9 2.5-4.3 3.3-3.4-1.4-5-2.3 6.1-2.8 4.3-3.7 3.9-2.3 4.3zm16.9-15.9 1.2 2.9-.1 3.2.5 2.8 3.2-1.9 2.3-2.6-.2-2.5h-3.5zm19.4-1.7-1.8-2.3-5.2-.1 3.9 4.7.3 2.3-3.2-.5 1.2 3.8 1.7.3.7 4.4 2.4-1.4-1.7-3.9-.4-2 4.4 1.6zm-22.2-5.6-2.1-2.2-4.7-.2 3.3 4.7 2.7 3.1zm-6.3-33.6h-3.2l-.9 5.6 1.1 9.6-2.5-2 1.2 5.8 1.2 2.7 3.2 3.6.4-2.2 1.8 1.4-1.5 1.6.1 2.5 2.8 1.4 4.9-.9 3.9 3.7 1.1-2.3 2.4 3.3 4.7 3 .2-2.8-1.9-1.6.1-3.3-7.3-3.5-2.2.8-3-.7-1.9-5 .1-5 2.9-2 .6-5.1-2.6-4.5.4-2.5-.7-1.5-1.5 1.5-3.6-1.8z"/><path d="m1724.1 524.4.9-1.8-2.3-2.1-2.4-3.9-1.6-1.5-.5-1.8-.8.7.9 4.7 2.1 3.9 2.1 2.4zm-20.6-8.3 2-3.8.4-3.4-1.1-1-3.3.1.4 3.6-3.2 2.2-1.7 2.1-3.1.5-.4-3.3-.8.1-1 3-3 .5-4.9-.9-.6 1.8 3 1.8 4.4 1.8h2.8l2.9-1.5 3.1-1.5 1-1.8zm-27 11.8-.9-4.2 5.1-.7-1.1-3.2-8.8-3.9-.6-3.6-2.8-3.1-3.6-3.2-9.9-3.5-9.3-4.3-1 20.1-1.4 20.2 5.5.2 3 1.1 4.5-2.1-.3-4.6 3.5-2 4.8-1.8 6.8 2.7 2.3 5.5 2.8 3.4 3.8 3.9 5.3 1 4.7.7 1.1 1.5 3.7-.4.8-1.8-5.4-2.6 1.8-1.2-4.1-1.1.5-2.7-3.1.2-2.9-6.6zm33.7-17.8-.5-3.2-2-2-2-2.5-2.2-1.5-1.8-1.4-2.8-1.8-1.6 1.5 3.8 1.8 3 2.6 2.3 2 1.2 2.3.8 3.7z"/><path d="m964.9 148.1-4.5-.1-.5-1.4-4.7-1.1-5.5 2-6.9 2.7-3 1.6 1.4 3-1.2 1.6 2 2.1 1.4 3.2-.1 2 2.2 3.8 2.3 1.9 3.6.6-.1 1.6 2.6 1.2.6-1.5 3.3.6.7 2 3.5.3 2.5 3 .3.4 1.8-.9 2.6 2.1 2.7-1.3 2.3.6 3.3-.8 4.8 2.2 1.1.4-1.6-2.7 3.7-5 2.2-.7.3-1.8-3-5.1-.5-2.6-1.8-2.8 2.6-1.2-.3-2.3-1.7-2.2-.3-2.5-1.4-1.9-2.4-.6-8.4.1z"/><path d="m1523.9 220-5.3-3.5.1 3.4-6.1 2.5 2.6 3.2-4.5-.2-3.5-1.9-1 4.3-3.7 3.3-2 3.9 3.2 1.6 3.3.7.8 1 .4 3.4 1.1 1.2-.9.7-.1 2.8 1.8 1 1.6.6.8 1.2 1.3-.5v-1.3l3 1.3.1-.6 2.3.2.7-2.8 3.4-.3 2-.4-.1-1.6-4.2-2.7-2.5-1 .2-.7-1.1-2.7 1.3-1.6 2.8-1 1-1.9.3-1.1 1.8-1.4-2.7-4.4.3-2 .9-1.9 2.1.3z"/><path d="m836.9 252.6-.4-2 1.9-2.4.8-1.6-1.8-1.9 1.6-4.2-2-3.7 2.1-.5.3-2.9.9-.9.2-4.8 2.3-1.6-1.3-3-2.9-.2-.9.8h-2.9l-1.2-3-2 .9-1.8 1.5.1 2 .9 2.1.1 2.6-1.3 3.7-.4 2.4-2.1 2.2-.6 4.1 1.2 2.3 2.2.6.4 3.9-1 5 2.7-.7 2.6.9z"/><path d="m562.9 606.9-.3-1.8-5.2-3.2-5-.1-9.2 1.8-2 5.4.2 3.3-1.5 7.4 10.9 10.1 4.5 1 7 4.6 5.7 2.4 1.1 2.7-4.1 9.3 5.5 1.8 6 1 4.1-1.1 4.2-4.7.3-5.5.7-3.5.3-3.7-.3-3.4-2-1.2-1.9 1.1-1.9-.3-1-2.3-1-5.6-1.2-1.8-3.8-1.7-2 1.2-5.8-1.2-.4-8.4z"/><path d="m1059.7 282-2-.9-.7 4.2 1.4.7-1.2.8-.1 1.7 2.3-.8.6-1.9z"/><path d="m1148.2 330 .8-3.7-.5-3.6-1.8-2-1.4.7-1.1 3.2.8 4.6 1.8 1.2z"/><path d="m1002.5 185h-2l-1 1.5-3.5.5-1.6.9-2.3-1.4h-3.1l-3.1-.7-1.8 1.3-2.8 1.3-1.8 4.1-2.5 4.2-3.7 1.1 2.8 2.4.8 1.9 3.1 1.4.7 2.4 3 1.8 1.4-1.3 1.4.7-1.1 1.1 1 1 1.8 2.5 1.8-.5 3.9 1 7.3.3 2.2-1.6 5.6-1.4 3.9 2.1 2.9.7.4-7.2 1.6.5 2.2-1.3-.4-1.6-2.3-1.1-2.1 1-2.3-1.1-1.3-2.7.2-2.6-.6-2.6-3.3-3.6-1.8-2.5-1.8-1.9-1.6-.6z"/><path d="m1220.4 18.7-4.4-3.9-13.2-4-9.1-2-6 .9-5.1 2.8 5.6.8 6.4 3.1 7.8 1.6 11.2 1.3zm-173.7-7.1.9-.6-5.5-.9-2.7.7-1.3 1-1.5-1.2-5 .1-6 .8 7.5.1-1.1 1.3 4.3 1 3.5-.7.1-.7 2.8-.3zm194.8 9.6-1.5-1.8-12.2-2.5-2.9-.3-2.1.5 1.2 5.8zm14.8 6.1-8.9-.7 3.3-1.2-8-1.5-5.9 1.8-1 1.9 1.5 2-6.7-.1-5.2 2.5-4.2-1.1-9 .5.3 1.3-8.9.7-4.8 2.3-4.1.2-1.2 3.2 5.3 2.5-7.5.7-9.2-.3-5.6 1.1 4.7 5.2 6.7 4.2-9.3-2.9-7.7.3-5 1.9 4.4 3.7-4.8-1-2-4.9-4.1-2.7-1.8.1 3.5 3.6-4.5 3.4 7.9 4.1.4 5.2 2.8 2.8 4.6.5.4 3.4 4.3 3-1.8 2.5.5 2.6-3.6 1.4-.5 1.9-5.2-.8 3.4-7.6-.5-3.5-6.5-3.2-3.7-7.1-3.6-3.6-3.5-1.6.8-4.1-2.8-2.8-11-1.4-2 1 .5 4.6-4.2 4.6 1.2 1.7 4.6 4 .1 2.5 5.2.5.8 1.1 5.6 2.8-1 2.7-18-5.9-6.4-1.7-12.4-1.5-1.2 1.6 5.7 3-2.6 3.5-6.2-3.1-4.9 2.1-7.4.1-2 1.8-5.2-.6 2.4-3.2-3.1-.2-12 4.4-7.4 2.5.4 3.5-5.8 1.2-3.9-1.8-1.2-2.9 4.8-.7-3.5-2.9-11.8-1.8 4.2 3.3-.8 3.1 4.6 3.2-1.1 3.7-4.5-1.8-3.9-.3-7.8 5.2 4.1 4-3.1 1.4-11.1-3.4-2 2 3.2 2.3.2 2.6-3.7-1.3-5.8-1.7-1.8-5.6-1-2.5-7.8-3.9 2.8-.7 19.5 4.1 6.2-1.5 3.6-2.8-1.6-3.5-3.9-2.5-17.1-5.9-11.3-1.3-7.4-3.1-3.5 1.8-6.2 2.1-3.1.5.4 3.6 7 3.6-2.7 4 6.2 6.1-1.7 4.7 4.8 4-.9 3.6 7.1 3.8-.9 2.8-3.2 3.2-7.7 7.2 5.2 2.7-4.4 3.1.9 1-2.5 3.3 2.4 5.3-1.6 1.9 2.3 1.4 1 2.7 2 3.5 5 1.5 1 1.4 2.2-.7 4.7 1.4 1 2.8-.6 1.6 3.6 3.8 2.1 1.1-.1 1.1 3.3 1.1 1.7 1.6-1.6 1.3-3.8-.2-.8.6 1.5 2 1.9 3.8 1.8.2 1-1.4 1.5.3 4.7-.5 3.7 3.3-.9 1.3.7 1.9 3.9.2 2.1 2.6.2 1.2 6.4 2.1 3.4-1 3.5 2.8 2.8-.1 7.4 1.9.4 1.9-1.3 3.1 1.8 3.3-.3 2-4.6.5-2.1 1.6.4 2.7 4.1-1 .4 1.3-6.6 2.5 3.1 2.3-3.1 5.1-3.3 1 4.9 3.5 6 2.3 7.2 5 .5-.7 4.4 1.1 7.5 1 7.3 2.8 1.1 1.2 2.8-1 5 1.3 2 2.4 3.4 1.4 1.5.2 4.2 3.7 2.3.4.5-1.5 2.5-2.4-7.1-7.1-.4-4-5.7-5.7 3.4-6.1 4.5-1.1 1.4-3.6-2.7-1-.2-3.1-4.1-4-3.5.2-5.2-4.2 1.7-4.6-1.7-1.2 2-6.6 5.8 3.5-.7-4.5 7.9-6.4 7.3-.2 11.6 4.2 6.4 2.3 4.2-2.4 7.4-.2 7.1 3.1.8-1.8 6.7.3.2-2.9-9.1-4.1 3.5-2.8-1.5-1.6 3.8-1.6-4.9-4 1.4-2 16.3-2 1.7-1.5 10.5-2.1 3-2.4 8.8 1.3 4.2 6.1 4.2-1.4 6.8 2 1.2 3.2 4.3-.4 8.8-5.5-.8 1.8 8.1 4.6 17.6 15.1 1.1-3.2 8.1 3.5 6-1.6 3.1 1.1 4 3.5 3.8 1.2 3.2 2.5 5.8-.9 4.2 3.7 1.7-.5 4.6-1 6.4-5.2 5.7-2.8 5.2 1.9 5 .1 4.6 2.8 4.9.2 7.7 1.6 2.3-4.2-3.9-3.5 1.3-6.2 6.7 2.4 4.7.8 6.4 1.5 3.6 4.5 8.2 2.5 3.8-1.1 5.5-.8 5.2.8 6.3 2.9 4.8 3h4.4l6.5 1 3.5-1.6 5.6-1 4.4-4.3 3.2.7 3.8 2 5.3-.5 7.1 2.2 4.3-3.8-1.8-2.6-.1-6.3 1.2-1.9-2.4-3.2-3.6-1.5 1.7-2.9 5-1.1 6-.2 8.3 1.8 5.7 2.2 7.5 5.9 3.7 2.6 4.3 3.6 5.9 5.9 9.6 1.8 8.7 4.4 5.8 5.6h7.3l2.5-2.4 6.7-1.8 1.3 5.4-.4 2.2 2.7 6.6.6 5.8-6.6-1.1-2.8 2.1 4.6 5.1 3.7 7.1-2.4.1 1.8 3 1.4 1.1-.4-2 3.9-4.4 5 2.9 3.1-.1 4.3-3.5 1-3.6 2-6.9 1.8-7-1.3-4.2 1-8.7-5.1-9.6-5.3-7.1-1.3-6-4.6-5-12.3-6.5-5.4-.4-.3 2.9-5.6-1.3-5.5-3.7-7.8-.7 4.8-13.7 3.4-11.2 12.7-1.8 14.5 1 2.4-2.7 7.7.8 4.2 4.2 6.2-.6 8.2-1.6-7.5-3.4v-9.5l8.8-1.8 11.8 6.9 3.5-6.2-3.1-4.6 4.6-.5 6.3 7.9-2.3 4.5-.8 5.8.3 7.3-5.5 1.3 2.7 2.6-.1 3.5 6.2 8.1 15.5 13 10.2 8.6 5.5 4.2 1.6-5.5-4.4-6 5.5-1.5-5.2-6.7 4.9-3-4.6-2.5-3.3-4.9 4-.2-8.7-8.4-6.5-1.4-2.8-2.3-1.1-5.4-3-3.8 6.8.8 1.3-2.4 4.6 2.1 5.9-4.5 11.1 3.9-1.7-2.5 1.9-3.5 1.5-3.9 3-.7 6.3-4.2 9.5 1.2-.9-1.5-3.7-2.2-4-1.6-8.8-4.5-7.9-2.9 5.9.4 1.9-2.4-32-21.3-9.1-2.2-15.3-2.5-7.7.3-14.8-1.4 1.8 2.2 8.3 3.3-2.5 1.8-13.8-4.7-6.6.6-8.9-1.1-6.8.2-3.8 1.1-7-1.6-4.9-3.7-6.3-2.1-8.9-.9-14.3 1-15.6-3.9-7.6-2.9-39-3.3-2 2.1 9 4.7-7.3-.7-1 1.5-9.4-1.6-4.9 1.4-9-2.3 2.9 5.3-8.7-2-9.7-4-.4-2.1-5.8-3.2-9.5-2.5h-5.9l-9-.9 4.6 3.8-16.7-.8-3.8-2.2-12.9-.9-5.2.8-.1 1.3-5.6-3.1-2.2.9-7-1.2-5.4-.7 1.1-1.5 6.4-2.7 2.2-1.5-2.3-2.4-5.3-1.9-11.2-2.2-10.5-.1-1.8 1.2zm-157.6 30.7-9.6-4.2-3-4.2 3.2-4.8 2.7-4.9 8.4-4.6 9.5-2.3 11-2.3 1.3-1.5-4.1-1.8-6.4.6-4.8 1.8-11.4.9-9.8 3-6.6 2.6 2.4 2.1-6.4 4.3 3.8.7-5.2 4.2 1.6 2.7-3.3 1.1 1.8 2.7 7.7 1.4 2.1 2.2 13 .7zm305.1-24-17.4-2.5-9.9-.2-3.3.9 3.3 3.3 12 3.1 4.4-1.2 13.8.2zm24.5 2.2-11.4-1.3-8-.7 1.7 1.5 10 2 6.6.4zm-12.1 9.3-2.4-1.4-8.1-1.8-4 .5-.8 2 1.1.2 8.6.6zm158 12-5.8-3.5-1.4 2.1 3.4 1.6zm-595.1 91.2-.6-1.5.2-1.6-2.1-.9-4.9-1.1-6.1 2-.7 2.5 5.7.7zm573 21.1-7-6-4.9-5.8-6.6-5.6-4.8-3.9-1.3.8 4.3 2.7-1.8 2.7 6.6 8.1 7.6 5.8 6.2 8.1 2.3 4.5 5.3 6.6 3.7 5.8 4.5 5-.1-4.7 6.3 3.7-2.9-4.3-9.2-6.1-3.6-8.7 8.6 1.9z"/><path d="m1040.9 489.2-3.2 1.9-1.4-.6-1.6 1.8-.2 3.7-.8.4-.6 3.4 3.4.5 1.7-3.5 2.9.4 1.6-.8.4-3.6z"/><path d="m829.1 311.2h-.8l.1 3.3-3.3.2-1.8 1.5h-2.4l-1.8-.9-4.5.7-1.8 4.9-1.7.4-2.7 7.8-7.6 6.6-1.9 8.5-2.2 2.8-.7 2.2-12 .5h-.1l-.3 2.6 1.2-2.1 21 .1-.9-8.9 1.4-3.2 5.1-.5.2-15.8 17.4.3.2-9.4.1-1.2z"/><path d="m1119.7 302.3-9.9-.5-16.3-12.3-8.3-4.4-6.5-1.6-.9 1-10.1 3 5.9 6.2-1.7 1-.7 2.1-3.9.8-1.1 2.2-2 2-5.9-1-.5 2.4v2.1l-.6 3.4h2.6l3.1 4.3 3.6 5 2.4 4.6 1.7 1.5 1.7 3.2-.2 1.4 2 3.6 2.9 1.3 2.7 2.4 3.5 6.8v3.7l.9 4.3 3.9 5.9 2.4 1 4 4.3 1.8 5 3.1 5.1 2.9 2.2.6 2.4 1.8 1.9.9 2.7 2.2-2-.7-2.6 1.2-3 2.3 1.6 1.5-.6 6.2-.2 1 .7 5.2.6 2-.3 1.6 2 2.4-1 3.4-6.5 4.9-2.8 15.2-2.3 15.7-6.2 2.5-12.3-2.8-4.4-1 1.3-16.3-3.1-2.5-6.2-.4-1.5-1.2-2.3-1.5.4-1.8-1.2-1-1.6-.9-2-1.7-1.8-1-2 .4-2-.6-2.6-3.9-2.5-1.2-2.2-2.8-1.4-2.6-5.4-3.7.2-1.7-3-4.8-.6z"/><path d="m1073.2 381.5.4-4.1 1.6-1.9 3.9-1 2.5-3.5-3-2.3-2.1-1.6-2.4-7.4-1.1-6.3 1.1-1.2-2-6h-63.4l.5 12.3h-6.1v2.6l1.1 24.5-4.7-.4-2.3 4.6-1.4 3.8 1.2 1.5-1.8 1.8.7 2.6-1.4 2.5-.5 2.3 1.9-.4 1.2 2.4.1 3.6 2 1.8v1.5l.7 2.6 3.2 3.9v2.5l-.8 2.5.3 1.9 1.9 1.8.5.3 1.7-.7 1.8-1.2 1.3-5.5 1.4-2.8 3.9-.9 1 1.8 2.9 3.6 1.4.5 2-1.1 4 .3.8 1.3h5.3l.2-1.3 2.8-1.2.5-1.9 2-1.3 4.7 3.6 2.7-.7 2.6-4.4 2.9-3.4-.6-3.8-1.4-1.8 3.3-.3.3-1.5 2.5.5-.5 4.6.8 4.5 2.8 2.4.7 2.1v3l.8.1v-.2l1.4-6.5 2.5-1.8.5-2.5 2.2-4.7 3.1-3.1 2-6 .7-5.3-.7-2.4z"/><path d="m1058.8 420.5-.7-2.1-2.8-2.4-.8-4.5.5-4.6-2.5-.5-.3 1.5-3.3.3 1.4 1.8.6 3.8-2.9 3.4-2.6 4.4-2.7.7-4.7-3.6-2 1.3-.5 1.9-2.8 1.2-.2 1.3h-5.3l-.8-1.3-4-.3-2 1.1-1.4-.5-2.9-3.6-1-1.8-3.9.9-1.4 2.8-1.3 5.5-1.8 1.2-1.7.7 3.7 2.4 3 2.5.1 1.9 3.7 3.3 2.3 2.6 1.5 3.7 4.1 2.4.9 2 3.4 5 2.4.8 1.5-1.1 2.5.4 3-1.3 1.4 2.6 4.9 4.1 2.2-1.6 3.4 1.4 4.4-1.5 3.9.1 3.3-2.9 3.3-3.7 3.7-4.1-3.4-6.7-2.5-1.5-1-2.4-2.8-3-3.3-.5 1.8-3.5 2.9-.1.8-2-.2-4.9-.8-.1v-3z"/><path d="m809 391.9-3.5-4.3-3.1-4.5-3.6-1.6-2.5-1.8h-3l-2.7 1.3-2.6-.5-2 1.9-1.3 3.2-2.7 4.3-2.4 1.1 2.6 2.2 2.1 4.9 5.9-.2 1.3-1.5 1.8-.1 2 1.5 1.8.1 1.8-1.1 1.1 1.8-2.3 1.5-2.3-.1-2.3-1.4-2 1.5h-1l-1.4.9-4.9-.1.8 4.8 2.9-1.1 1.8.2 1.5-.7 10 .3 2.6.1 3.9 1.5 1.3-.1.4-.7 2.9.5.8-.4.3-1.9-.4-2.3-2-1.8-1.1-3.6z"/><path d="m819.2 430.3-1.5.3v-2.2l-.9-1.6.2-1.8-1.2-2.6-1.5-2.2h-4.3l-1.3 1.2-1.5.2-1 1.4-.7 1.6-2.9 2.7.7 4.6.9 2.2 2.8 3.4 4 2.4 1.5.5 1.3-1.9.3-1.9 2.5-3.3z"/><path d="m399.2 399.5.6-2.4-.7-.7-1.1-.5-2.4.8-.1-.9-1.6-1-1.1-1.3-1.5-.4-1.4.4.2.7-1.1.7-2 1.5-.2 1 1.4 1.3 3 .4 2.1 1.3 1.8.6 3.2.1z"/><path d="m979.9 203.4-3.1-1.4-.8-1.9-2.8-2.4-3.1-.2-3.6 1.6 1.5 2.3 1.7 1.8-1.7 2.2h1.8l-1 2.6 2.6 2.2-.5 2.8-1.2.3 1.5 1.1.8.8 1.8.7 1.9 1.2-.4.6 1.2-.5.5-1.9.9-.4.8.9 1 .4.8 1 .8.3 1.1 1.1h.8l-.5 1.4-.5.7.2.5 1.7-.4 2.3-.1.7-.9-.6-.7.7-1.9 1.7-1.9-2.7-2.5-.7-2.2 1.1-1.4-1-1 1.1-1.1-1.4-.7-1.4 1.3-3-1.8z"/><path d="m574.9 444.9-4.5.5-.6 1.1-6.5-1.2-1 5.5-3.4 1.6.3 1.5-1 3.2 2.3 4.5 1.8.1.7 3.4 3.2 5.4 3 .5.5-1.3-.9-1.3.5-1.8 2.2.6 2.6-.7 3.1 1.4 1.4-2.6.6-2.8 1-2.7-2-3.6-.4-4.3 3-5.3z"/><path d="m982.4 179.8-4.8-2.2-3.3.8-2.3-.6-2.7 1.3-2.6-2.1-1.8.9-.3-.4h-1.5l-.6 1.1-1.1.3-.2 1.4-.9.3-.1.6-1.6.6-2.1-.1-.6 1.4-.3.8.7 2 2.5 1.6 1.8.7 4-.8.3-1.2 1.8-.2 2.2-1 .6.4 2.1-.7 1-1.4 1.6-.4 5.3 1.8 1-.6.7-2.4z"/><path d="m955.2 195.4-1.2-2.1-.8-.1-.9 1.1-4.2.1-2.3 1.4-4.1-.4-.3 2.9 1.4 2.6-1.1.5 3.4.2.8-1 1.8 1 1.9.1-.2-1.6 1.7-.6.3-2.4z"/><path d="m973 82.8-1.8-2.1-1.6-8.2-7-3.6-5.7-2.6-2.4.3v3.4l-7.7-.9-.6 3-3.9-.1-2.1 3.8-3.3 5.9-5.5 7.7 1.8 1.8-1.3 2.1-4.2-.1-2.2 5.2 1 7.4 3 2.8-.9 6.7-3.3 3.9-1.7 3.2 4.1 8.2 4.3 6.5 2 5.5 5.2-.3 2.1-4.6 5.5.5 2-5.3.6-9.7 4.5-1.3 3.2-6.4-4.7-3.2-3.5-3.9 2-7.9 7.5-4.8 5.9-4.4-1.3-3.3 3.3-3.8 6.8-1.4z"/><path d="m1043.7 642-2.6-1.2-1.6.5-.7 1.8-1.6 2.3-.1 2.1 2.9 3.4 3.2-.7 1.3-2.7-.3-2.7z"/><path d="m1075.8 276 10.7-6.5.9-7.6-1.2-4.6 2.6-1.5 2-4-5.7 1.1-2.7-.2-5.5 2.4h-4.2l-2.9-1.2-5.3 1.8-1.8-1.3.1 3.5-1.2 1.5-1.2 1.4-1 2.5 1.1 4.9 2.3.3 1.2 2.4-2.5 2.3-.9 3.4.3 2.5-.6 1h.1l6.1 2.4z"/><path d="m1002.8 361.2-21.8-11.9-21.7-11.9-5.2 3.4 1.6 9.6 1.9 1.5.2 2 2.2 2.1-1.1 2.6-1.8 12.5-.2 8.1-6.7 5.8-2.2 8.2 2.3 2.2v4l3.5.2-.5 2.8 2.1 4 .5 4.1-.2 4.2 3 5.6-3-.1-1.6.4-2.4-.6-1.2 2.9 3.2 3.6 2.4 1.1.8 2.5 1.8 4.3-.9 1.7 4.6-.4 1-1.6.9.2 1.4 1.4 6.9-2.3 2.2-2.4 2.8-2.1-.6-2.2 1.6-.6 5.2.4 5.1-2.8 3.9-6.8 2.7-2.4 3.4-1.1v-1.5l-2-1.8-.1-3.6-1.2-2.4-1.9.4.5-2.3 1.4-2.5-.7-2.6 1.8-1.8-1.2-1.5 1.4-3.8 2.3-4.6 4.7.4z"/><path d="m879.7 414.2-4.8-.1-.4 1.9 2.3 3.2-.1 4.5.6 5 1.4 2.2-1.2 5.5.4 3.1 1.5 3.9 1.2 2.1 4.5-1.3-1.4-4.3.2-14.2-1.1-1.3-.2-3-2-2.2-1.7-1.8z"/><path d="m1444.2 394.1 1.5-2.8-.5-5.2-5-5.3-1.3-6.1-4.8-5.1-4.2-.4-.8 2.1-3.1.2-1.8-1.2-5.2 3.7-1-5.5.4-6.5-3.7-.3-.9-3.7-2.5-1.9-2.9 1.4-2.7 2.7-3.8.3-1.5 6.7-2.1 1 3.4 5.4 4 4.5 2.8 4.1-1.4 5.4-1.7 1.1 1.7 3.1 4.1 5 1 3.4.1 2.9 2.7 5.6-2.5 5.7-2.1 6.4-1.3 5.9-.3 3.8 1.2 3.5.7-3.7 2.8 3 3.1 3.4 1.1 3.1 2.3 2.3.9-1.1 4.6 2.7.6 3.2 3.6-.8 1.7-2.5-3-3.2-3.3-.8-3.2-3.5-1.4-5.4-2.5-5.6-3.5-.3-.7-4.5 1.4-5.4 2.1-9-.2-6.8 4.8-.1-.3 4.9 4.6-.1 5.2 2.8-2-7.5 2.9-5 6.9-1.3z"/><path d="m1231.8 233-2 .2-1.3-1.8.2-2.8-6.2 1.4-.5 3.9-1.5 3.4-4.3-.3-.6 2.7 4.1 1.6 2.3 4.6-1.3 6.4 1.8.8 3.2-2 2 1.3.9-2.9 3.1.1.6-.9-.2-2.5 1.7-2.2 3.1 1.5v1.9l1.6.3 1 5.2 2.5 2 1.5-1.3 2-.7 2.4-2.8 3.7.5h5.2l-1.8-3.6-.6-2.4-3.4-1.4-1.6.6-2.9-5.7-9.2.9-6.9-2-5.2.5-.6-3.6 5.7 1.1z"/><path d="m1213.9 251-.8-3.9-7.5-2.6-6-3.1-4.1-2.9-6.8-4.3-4.2-6.2-1.9-1.2-5.3.3-2.2-1.3-1.8-4.8-7.6-3.2-3.2 3.5-3.7 2.1 1.6 3-5.6.1-2.4.3-4.8-4.8-3.7-1.7-5.3 1.3-1.8 1.9 2.4 3.9-.5-4.4 3.6-1.6 2.3 3.5 4.5 3.6-3.9 2-5.2-1.5.1 5 3.4.4-.4 4.3 4.4 2 .7 6.6 1.8 4.4 4.3-1.2 2.9-3.6 3.4.2 2-1.2 3.7.6 6.3 3.2 4.2.7 7.1 5.5 3.8.2 1.6 5.3 5.7 2.3 3.8-.8.4-2.9 3.9-.9 2.4-2-.1-5 4-1.2.3-2.2 2.8 1.6z"/><path d="m1555.1 540.3 4.8-1.8 5.8-2.7 2.1-1.7-1.9-.8-1.8.8-3.9.2-4.8 1.4-.8 1.5.5 1.3z"/><path d="m934.4 277.4-2-1-1.5-2.9-2.7-.1-1.1-3.4 3.3-3.1.5-5.4-1.8-1.5-.1-3 2.4-3.1-.4-1.3-4.3 2.3.1-3.2-3.6-.7-5.4 2.5-1 3.2 1 6-1.1 5.1-3.1 3.5.6 4.7 4.4 3.7v1.5l3.3 2.5 2.5 11 2.5-1.4.4-2.6-.7-2.5 3.6-2.4 1.5-1.9 2.5-1.8z"/><path d="m1059.4 226.4-9.4-4.3-8.3.2-5.5 1.6-5.4 3.9-9.6-.8-1.6 4.7-7.7.2-5 5.9 3.5 2.9-1.9 4.9 4.1 3.5 3.6 6.2 5.6-.1 5.2 3.4 3.5-.8.9-2.6 5.5.2 4.5 3.4 7.8-.7 3-3.6 4.5 1.5 3.1-.6-1.7 2.3 2.2 2.9 1.2-1.4 1.2-1.5-.1-3.5 1.8 1.3 5.3-1.8 2.9 1.2h4.2l5.5-2.4 2.7.2 5.7-1.1 2-1 6 .9 2 1.5 2.2-1.1-3.6-5 .7-1.9-2.8-7.1 3.2-1.8-2.3-1.8-4.1-1.5v-3l-1.3-2.1-5.4-2.9-5.2.3-5.3 3.1-4.4-.6-5.6 1-7.6-2.3zm-48.2 3.9 1.9-1.9 5.9-.4.7-1.4-4.6-1.9-.9-2.3-4.4-.8-4.9 1.9 2.6 1.6-1.2 3.8-1.1.7.1 1.3 1.8 2.8z"/><path d="m1521.6 341.3 1.2-9.9.1-3.8-2.8-1.8-3.2 4.7-1.8 6.1 1.5 4.6 3.9 5.2z"/><path d="m1042.8 488.5-2 .8 2.2 3.5-.4 3.6-1.6.8.3 2.4 1.2 1.5v1.9l-1.4 1.4-2.1 3.2-2 2.2-.6.1-.3 2.6 1.1.9-.2 2.6 1 2.5-1.3 2.3 4.4 4.2.3 3.8 2.6 6.3.3.2 2.1 1.1 3.4 1.1 3.1 1.8 5.2 1.2 1.1 1.7.4-1.2 2.7 3.3.3 6.5 1.8 2.3v.1l2-.3 6.5 1.8 1.4-.8 3.8-.1 2-1.8 3.2.1 6-2.4 4.5-3.6-2-1.4-2.1-6.1-1.8-3.8.4-3-.3-1.8 1.7-3.8-.2-1.5-3.4-2.2-.3-3.5 2.7-7.7-7.8-6.1-.4-3.6-19.6-12.6-2.7 2.7-1.8 2.8 2.1 2.1-3.1 1.6-.7-.8-3.1.4-2.4 1.4-1.6-2.3 1.1-4.4.2-3.7-6-.1z"/><path d="m1060.3 455.9-3.3 2.9-3.9-.1-4.4 1.5-3.4-1.4-2.2 1.6-.3 7.3 2.2.8-1.8 2.2-2.1 1.6-2.1 3.2-1.2 2.9-.3 5-1.3 2.3-.1 4.7 1.4.6 3.2-1.9 2-.8 6 .1-.3-2.4 2.5-3.6 3.4-.9 2.3-1.5 2.8 1.2.3.5v-.3l1.6-2.5 2.6-4.1 2-4.6-2.5-7.1-.7-3.1z"/><path d="m1032.1 160.4-4.7.5-1.5-.3-1 1.4-1.8-.2-4 .3-1.2 1.4.2 3-1.9-.6-4.2.3-1.5-1.5-1.6 1.1-1.9-.9-3.7-.1-5.4-1.5-4.9-.5-3.6.2-2.3 1.6-2.1.3 3 5.1-.3 1.8-2.2.7-3.7 5 1.6 2.7-1.1-.4-1.1 1.6-.7 2.4 2.8 1.6.6 1.6 1.8-1.3 3.1.7h3.1l2.3 1.4 1.6-.9 3.5-.6 1-1.5h2l1.1-.9 3.1-.6 3.8 1.9 1.9.3 2.4 1.6v2l1.8 1.1 1.1 2.5 1.9 1.5-.2 1 1 .6-1.2.5-2.9-.2-.6-.9-1 .5.5 1.1-1.1 2-.5 2-1.2.7 2.3 1.1 2.1-1 2.3 1.1 3.2-4.5 1.3-3.3 4.4-.8.7 2.3 7.8 1.5 1.7 1.4-4.4 2-.7 1.2 5.6 1.8-.6 2.8 2.9 1.3 6.1-3.5 5.2-1.1.6-2.1-5 .4-2.6-1.4-1-3.8 3.8-2.2 4.5-.3 2.9-1.9 3.8-.5-.4-2.7 2.1-1.6 4.6-.5.3-2-1.8-3.3 1.3-3.1-.4-1.9-7.4-1.9-2.8.1-3.5-2.8-3.4 1-6.4-2.1-.2-1.2-2.1-2.6-3.9-.2-.7-1.9.9-1.3-3.7-3.3z"/><path d="m598.7 691-2-3.6 1.8-2.9-3.7-4.2-4.7-3.4-6-4-1.8.2-6-4.8-3.3.7-.5 5-.3 6.3 1.1 6.1-.9 1.4.4 4.1 3.8 3.4 3.5-.2 5.2 2.6 2.6-.6 4.1 1.2 5.2-3.4 1.6-3.9z"/><path d="m39.2 364.2 1.9-.9 2.4-1.4.2-.4-.9-2.1-.7-.8-.8-.6-1.8-1.1-.4-.1-.4.6v1.3l-1.2 1-.4.7.4 2.2-.6 1.8 1.2.9zm-.6-9.6.6-.7-1.2-1-1.8-.6-.7.5v.4l.5.5.6 1.4zm-2.9-3.3-2.5-.2-.6.7 2.8.2zm-4.6-.9-1.1-2-.3-.4-1.7.9.1.2.4 1.5 1.8.2.4.1zm-8-4.1.3-1.5-1.3-.1-1 .6-.4.5 1.6 1.1zm400.4-168.3h-1.5l-1.3 2.3h-132.1l-1.5 5-2.3 5-2.2 1.5 1-5.7-5.6-2-1.4 1.1-.4 2.8-1.8 5.2-4.1 8.1-3.9 5.4-3.9 5.4-5.2 5.6-1.1 4.6-2.7 5.1-3.8 5.1 1 3.3-1.9 5.1 1.5 5.2 1.3 2.1-.8 1.5.4 8.7 2.4 6.3-.8 3.4 1 1 4.5.7 1.3 1.7 2.7.3-.1 1.8 2.1.7 2 3.6-.3 3.1 6.1-.5 6.8-.7-1 1.3 6.9 3 10.4 4.3h14.6l.8-2.5h9l1.3 2.1 2 2 2.3 2.7.8 3.2.4 3.4 2.1 1.8 4 1.8 4.7-4.9 4.3-.1 3 2.4 1.5 4.3 1 3.6 2.3 3.5.2 4.4.8 2.9 3.8 1.9 3.5 1.4 2-.2-.6-2.1.4-3 1-4.3 1.9-2.7 3.6-3 5.8-2.6 5.9-4.6 4.8-1.5 3.4-.4 3.4 1.4 4.8-.8 3.2 3.3 3.7.2 2.3-1.2 1.6.9 1.3-.8-.9-1.3.7-2.4-.5-1.6 2.3-1 4.1-.4 4.6.7 6-.8 2.9 1.5 1.9 2.9.9.3 5.9-2.8 1.8 1 2.9 5.1.8 3.4-1.9 4.1.4 2.4 1.5 4.8 2 5.4 1.8 1.4.4 2.7 2.5.8 1.7-.8 2-3.8.7-2.4.9-4.2-1.2-7.2.5-2.6-1.5-4.4-.7-5.2.1-4.3 1.8-4.4 3.4-3.7 3.6-2.9 6.7-4 1.3-2.1 3.2-2.2 2.7-.4 4.3-3.7 5.8-1.8 4.5-4.7.9-6.3.1-2.1-1.4-.4 1.5-6-2.9-2 3.1 1v-4l1.8-2.6-1 5.1 2 2.4-2.8 4.3.4.2 4.3-5 2.3-2.4.6-2.4-.9-1.1-.1-3.4 1.2 1.6 1.1.4-.1 1.6 5.1-4.8 2.4-4.4-1.4-.3 2-1.8-.4.8h3.2l7.6-1.9-1.1-1.2-7.7 1.2 4.7-1.8 3-.3 2.3-.3 4-1.1 2.3.1 3.7-1 1-1.7-1.1-1.4-.2 2.1-2-.1-.6-3.2 1.1-3.2 1.4-1.3 3.8-3.6 5.7-1.8 5.8-2 6.1-2.9-.2-1.9-2-3.4 2.7-8.3-1.5-1.7-3.6 1.1-1.1-1.6-5.3 4.6-3.1 4.8-2.6 2.7-2.4.9-1.7.3-1 1.6h-16.6l-2.6 1.2-6.5 4.1.2.9-.6 2.3-4.5 1.9-3.8-.5-3.9-.2-2.5.7-.3 1.8-.1.6-5.6 3.6-4.4 1.8-2.8.8-3.6 1.6-3.9.9-2.4-.3-2.6-1.3 2.6-2.3 1.9-2.1 3.6-3.3.7-2.4.5-3.4-1.5-.7-4.2 2.7-.9-.1.3-1.4 3.7-2.4 1.5-2.7.7-2.7-2.6-2.3-3.6-1.3-1.7 2.3-1.4.6-2.1 3 .4-2-2.5 1.5-2 2-2.5 3-1.3 2.5.1 3.7-1.8 3.8-3.2 2.9-1.4.9-1.6.7h-1.8l-.3-.4-.1-3.2.7-1.6.7-1.5.6-2.9 2.4-3.4 2.8-4.2 4.5-4.6h-.7l-5.2 3.9-.3-.7 2.8-2.2 4.6-3.9 3.6-.5 4.3-1.3 3.6.7h.1l4.6-.5-1.5-2.4-1.2-.2-1.4-.3-.4-1.6-5 .5-4.9 1.4-2.4-2.2-2.4-.8 3-3.2-5.2 1.9-4.8 2-4.5 1.5-2-2-5.3 1.3.4-.9 4.5-2.5 4.6-2.4 5.7-2-5.2-1.6-4.3.8-3.7-1.8-4.5-1-3.1-.4-1-1 .8-3.3zm-233.8-45.6 6.7-2.7v-1.7l-2.5-.4-3.3.9-6.2 2-2.1 2.6.7 1.6zm-37.6-15.9 2.2-2.2-2.8-.5-5.5 1 .8 1.6 1.6 1.1zm1.2-21.7-3 2.1.4.5 4.1-.4.3 1.1 1.6 1.2 4.8-1.2 1.2-.6-3.2-.8-1.6-1.5-3.3.6zm121.3-39-4.3-1.1-9.9 2.7-3.1-.3-10.7 2.2-4.7.6-7.6 2.4-4.7 2.5-8.4 2.4-7.4.1-6.1 2.8 3.1 1.7.7 2.2-.8 2.6 2.2 2-1.2 3.4-8.9.2 4.2-2.7h-3.3l-12.7 2.6-8.8 2.2 1 3.2-1.2 2.1 4.4 1.4 6.7-.7 1.8 1.3 2.8-1.3 5.9-1.2h2.6l-5.7 2 1.1 1-2.4 2.5-5.4 1.8-2.4-.5-6.8 2.6-1.8-.9-4 .4-5.1 2.9-7.4 3-5.6 3.3.3 2.3-3.9 3.2 1.4 1.4.5 2.6 7-1.1.4 2-3.2 2-3.5 3.4h2.7l7-2.2-1.6 3 3.5-2-.4 2.9 4.7-2.1.4 1.1 7-1.8-6 3.3-5.5 4.4-5.5 2-2.3 1.2-10 3.5-4.8 2.3-6.3.7-8.3 3.2-6.4 1.8-7.9 2.7-.4 1 9.7-1.6 5.8-1.9 6.7-2 5.9-1.6 2.7.5 7.9-2.5 4.4-2.7 10.2-3 3.8-2.5 6.4-1.8 7.4-2.4 8.6-4.1-.2-2.8 10.8-4 7.2-3.8 8.9-3.1-.4 1.3-6.5 1.8-8.1 5.5-3.1 3.4 6.2-1.3 5.9-1.9 6.3-1.3 2.8-.3 3.4-4 6.1-1.2 2.5 2.4 5.9 2.7 6.5-.5 5.5 1.9 3.1 1.1 3.2 5.9 3.6 1.6 6.9.2 4 .4-2.6 5.3 1.6 4.8-3.2 5 2.4 1.9.6 2.1 5-2.8 3-3.6-4.5-3.7 1.5-6.6 1.1-4.1-1.6-2.6-.7-2.3.5-2.9-6.3 1.9-7.4 3.2-.2-3.8-.6-2.5-2.6-1.6-4.1-.1 34.4-31.5 23.6-19.6-3.4-.7-4-1.6-6.3.8-2.1-.7-6.9-.5-6-1.6-4.7.5-4.8-.9 1.9-1.2-6.1-.3-3.2 1z"/><path d="m1227.7 220.8-2.4 1.2-5.2 4.2-.9 4.4h-1.8l-2.2-2.9-6.4-.2-2.5-4.9-2.4-.1-1.5-6-7.3-4.4-8.4.5-5.5.9-6.3-5.3-4.7-2.2-8.8-4.4-1.1-.5-11.6 3.5 6 22.2 5.6-.1-1.6-3 3.7-2.1 3.2-3.5 7.6 3.2 1.8 4.8 2.2 1.3 5.3-.3 1.9 1.2 4.2 6.2 6.8 4.3 4.1 2.9 6 3.1 7.5 2.6.8 3.9h2.8l4.2 1.4 1.3-6.4-2.3-4.6-4.1-1.6.6-2.7 4.3.3 1.5-3.4.6-3.9 6.2-1.4-.2 2.8 1.3 1.8 2-.2 4 .6 5.1-4.4-6.9-3.2-3.1 1.6-4.5-2.2 3-4z"/><path d="m549.6 430.5-2.1-1.5-2.8.2-.7-5-4-3.1-4.3-.4-1.8-2.9 4.7-1.8-6.5.1-6.7.4-.2 1.6-3.1 1.8-4.1-.7-3-2.8-5.8.7-4.9-.1-.1-2-3.4-3.4-3.8-.1-1.7-4.4-2 1.9.6 2.9-6.9 2.5v4.6l1.6 2.1-1.5 4.5-2.3.4-1.8-4.9 2.6-3.6.3-3.2-1.7-2.8 3.2-.8.3-1.5-3.6 1.1-1.6 3.1-2.1 1.8-1.7 2.3-.9 4.4-1.8 3.6 2.8.5.6 2.8 1.1 1.4.4 2.4-.8 2.3.2 1.3 1.3.6 1.3 2.1 7-.6 3.1.8 3.7 5.4 2.2-.7 3.9.3 3.1-.7 2 1.1-1.2 3.3-1.3 2-.5 4.5 1 4.1 1.5 1.9.2 1.5-2.8 3 1.9 1.4 1.4 2.1 1.7 6.2 2.9 3.3 4.3-.5 1.1-1.8 4.1-1.5 2.2-1 .7-2.6 4-1.8-.3-1.4-4.7-.5-.7-3.9.3-4.2-2.3-1.5 1-.6 4.1.8 4.3 1.6 1.7-1.5 3.9-1 6.2-2.3 2-2.3-.7-1.8-3.6-4.7 1.5-1.8v-2.8l3.3-1.1 1.5-1.2-1.9-2.1.6-2.2z"/><path d="m1452.9 348.9-5.7-1.5-2.9-2.5.2-3.6-5.1-1.1-2.9-2.3-4 3.3-5.2.7h-4.2l-2.6 1.5 3.9 5 3.3 5.5 6.6.1 2.9 5.3-3.2 1.6-1.3 2.2 7.1 3.7 5.5 7.3 4.2 5.4 4.7 4.3 1.9 4.4-.2 6.2 1.8 4.1.1 7.5-8.7 4.8 2.7 3.7-5.6.5-4.6 2.4 4.4 3.6-1.3 4.1 2.2 3.9 6.4-5.7 4-5.1 5.9-4 4.1-4-.4-10.9-3.9-11.4-4-5-5.4-3.9-6.2-8.1-5.2-6.5.5-4.3 3.6-5.8z"/><path d="m1780.4 584-2.6-3.5-.6 1.7 1.3 2.7zm-2-9.4-2.2-2-.9 4.8.5 1.7 1.2-.4 1.3.8z"/><path d="m1161.3 379.2-2-4.3-5.1-10.2-15.3 2.3-4.9 2.8-3.4 6.5-2.4 1-1.6-2-2 .3-5.2-.6-1-.7-6.2.2-1.5.6-2.3-1.6-1.2 3 .7 2.6-2.2 2 .4 2.6-.6 1.3.7 2.8-1.1.3 1.7 2.5 1.3 4.6 1 1.9v3.3l1.6 3.7 3.8.3 1.8-.9 2.6.2.7-1.7 1.5-.4 1.1-1.6 1.4-.4 4.6-.3 3.4-1.2 3-2.6 1.7.4 2.3-.3 4.6-4.4 8.6-2.9 5.2-2.6v-2l.9-2.8z"/><path d="m1041.5 619.7-2.8-.6-1.8.8-2.5-1.1-2.1-.1-7.8 4.6-5.1 4.6-1.9 4.2-1.7 2.3-2.9.5-1.2 2.9-.6 2-3.5 1.5-4.3-.3-2.4-1.8-2.2-.8-2.6 1.5-1.5 3-2.6 1.8-2.7 2.7-3.9.7-1.1-2.2.7-3.7-2.9-5.9-1.4-1-1.1 22.9-4.9 3.1-2.8.5-3.2-1.2-2.3-.5-.8-2.6-2-1.8-2.6 3.1 3.4 8v.1l2.4 5.2 3.1 5.8-.2 4.7-1.7 1.2 1.4 4.1-.2 3.7.6 1.7.3-.9 2 2.8 1.8.1 2 2.2 2.3-.2 3.4-2.3 4.5-1 5.4-2.4 2.1.3 3.2-.8 5.5 1.2 2.6-1.2 3.1 1 .8-1.7 2.6-.3 5.6-2.4 4.2-2.8 4-3.7 6.5-6.3 3.3-4.5 1.8-3.1 2.4-3.2 1.2-.9 3.8-3.1 1.6-2.8 1.1-5 1.7-4.6h-4l-1.3 2.7-3.2.7-2.9-3.4.1-2.1 1.6-2.3.7-1.8 1.6-.5 2.6 1.2-.4-2.2 1.4-6.9-1.1-4.4zm-19.5 51.4-2 .6-3.6-4.8 3.1-3.9 3-2.4 2.5-1.3 2.2 1.9 1.7 1.8-1.8 3-1.1 2-3 1z"/><path d="m1042.5 535.2-1.8-.5.4-1.3-1-.3-7.3 1.1-1.6.7-1.6 4 1.2 2.7-1.2 7.3-.8 6.2 1.4 1.1 3.8 2.4 1.5-1.2.3 6.7h-4.2l-2-3.4-2-2.7-4.2-.8-1.2-3.3-3.3 1.9-4.4-.8-1.8-2.7-3.4-.6-2.5.1-.3-1.9-1.8-.1.5 1.9-.7 2.9.9 2.9-.9 2.3.5 2.1-11.3-.1-.8 19.7 3.5 5 3.4 3.9 4.5-1.5 3.5.4 2 1.4v.5l1 .5 6 .7 1.7.7 1.8-.1 3.1-4 5-5.2 1.9-.5.7-2.1 3.2-2.4 4.1-.9-.3-4.4 16.6-5-2.8-1.7 1.8-5.7 1.8-2.2-.9-5.2 1.2-5 1-1.8-1.2-5.2-2.5-2.7-3.1-1.8-3.4-1.1-2.1-1.1-.3-.2.5 1.1-1 .4z"/><path d="m1041.5 619.7 6-7 1.6-4.5.9-.6.8-3.6-.8-1.8.5-4.6 1.3-4.3.3-7.9-2.7-2-2.5-.5-1.1-1.6-2.5-1.3-4.5.1-.3-2.3-4.1.9-3.2 2.4-.7 2.1-1.9.5-5 5.2-3.1 4-1.8.1-1.7-.7-6-.7 1.8 5 1.1 1.1 1.6 3.6 5.8 6.8 2.2.7-.1 2.1 1.4 4 4.1.9 3.3 2.8 2.1.1 2.5 1.1 1.8-.8z"/><path d="m1114.5 417.6-2.5-2.6-1.2-2.5-1.8-1.2-1.9 3.3-1.1 2.2 2.1 3.4 2 3 2.1 2.1 18 7.4 4.7-.1-15 18.6-7.2.3-4.8 4.4-3.5.1-1.5 1.9-4.7 7 .2 22.5 3.2 5.1 1.3-1.5 1.3-3.3 5.9-7.5 5.2-4.7 8.1-6.2 5.4-5 6.2-8.5 4.6-6.9 4.5-9 3.1-8 2.4-6.9 1.3-6.6 1.1-2.2-.2-3.3.4-3.6-.2-1.6h-2l-2.5 2.1-2.8.6-2.4.9-1.8.2-3.1.2-1.8 1.1-2.7.5-4.7 1.9-5.9.8-5 1.5z"/><path d="m587.9 466.7 1.8-4.6 3.4-5.6-.9-2.5-5.7-5.2-4-1.5-1.8-.7-3 5.3.4 4.3 2 3.6-1 2.6-.6 2.8-1.4 2.7 2.3 1.3 1.8-1.8 1.2.3.8 1.8 2.6-.5z"/><path d="m922.5 221.4-1.1-5.1-3.1 2.2-1 2.2 1.4 4.1 2.3 1.2zm-30.6-49.4-2.3-2.3-2.1-.1-.7-2.1-4.2 1.2-1.4 4.9-11 4.7-4.5-2.5 1.4 6.8-8-1.6-6.2 1.3.4 4.5 7.3 2.3 3.5 3 5 6.3-1 11.9-2.6 3.6 1.9 2.3 9.1 2.7 1.8-1.3 5.5 2.7 5.8-.8.5-3.6 7.2-1.9 9.7 1.6 4.4-3.3.5-2.6-2.6-.8-1.5-4.7 1.7-1.8-1.5-2.3.2-1.7-1.8-2.6-2.3.9v-2.7l3.4-3.4-.2-1.6 2.2.6 1.3-1 .5-4.4 2.2-4.1-6.9-1.2-2.3-1.6-1.4.1-1.1-.5-4.3-2.7-2.4.4z"/><path d="m882.9 242.7v-.2h-.5l-.3-.4-.1.2-.1.2v.2h.5zm-.8-1.5h.3l.6-.7v-.3l-.3-.2-1.1.2-.2.3v.3l-.3.1-.1.4.1.2.8.1zm-16.7-27.3-8-.2-4.1.3-5.2-1h-6.6l-6-1.1-7.2 4.4 1.9 2.5-.4 4.3 1.8-1.6 2-.9 1.2 3h2.9l.9-.8 2.9.2 1.3 3-2.3 1.7-.2 4.8-.9.9-.3 2.9-2.1.5 2 3.7-1.6 4.2 1.8 1.9-.8 1.6-1.9 2.4.4 2 4.7 1 1.4 3.6 2 2.1 2.4.6 2-2.4 3.2-2.2 4.9.1h6.5l3.7-4.9 3.8-1.3 1.2-4.1 2.9-2.8-2-3.6 2-4.9 3-3.4.5-2 6.4-1.3 4.7-4.1-.3-3.4-5.8.8-5.5-2.7-1.8 1.2-9.1-2.7zm25.3 22 .1-.3.1-.2.1-.1-.2-.2v-.1l.2-.2-.2-.1-1.2.4-.7.4-2 1.5v.3l.1.2h.4l.2.4.4-.4.3-.1.3.1.3.2.1.6.1.2.6.1.9.4.4-.2.5-.3.2-.6.3-.5.3-.5.3-.4-.1-.4-.3-.1-.3-.1-.5.2zm5.8-.3.1-.4v-.1l-.5-.7-.9-.3-1 .1-.1.1v.4l.1.1.6.1 1.5.7z"/><path d="m495.8 405.2-.4-.7-.3-.3-.1.1-.1.3.3.3.3.4.3.1z"/><path d="m535.9 369.5.1-.2-.2-.1-.8.5v.1z"/><path d="m883.3 219.4.1-.2.1-.2v-.1l-.2-.1-.7-.2-.3-.1-.2.1-.2.2-.1.3.1.1v.4l.1.2h.4l.3-.1z"/><path d="m542.1 376.9.2-.1v-.3l-.1-.1-.1-.2-.4-.2-.5.5v.2l.1.3.6.1zm.2-3.4v-.5l-.1-.2h-.3l-.1-.1h-.1l-.1.1.1.6.5.3z"/><path d="m483.9 351.2.2-.6-.3-.1-.5.7-.6.3h-.2l-.7-.3h-.5l-.4.5-.6.1.1.1v.2l-.2.3v.2l.1.3 1.5-.1 1.3-.2.7-.9zm.8-2-.4-.3-.4.3.1.3zm0-5.7-.4-.2-.3.5.3.1.7-.1.5.1.5.4.3-.2-.1-.1-.4-.3-.6-.1h-.2zm-6.4 1.3.7-.6.7-.3.9-1.1-.1-.9.2-.4-.6.1-.1.4-.1.3.3.4v.2l-.2.4-.3.1-.1.2-.3.1-.4.5-.8.6-.2.3zm1.2-3.1-.6-.2-.2-.4-.4-.1-.1.2v.2l.1.4.2-.1.8.4.4-.3zm-4-1.1v-.7l-.4-.5-.6-.4-.1-1.2-.3-.7-.2-.6-.4-.8v.5l.1.1.1.6.4.9.1.4-.1.4-.4.1-.1.2.5.3.8.3.5 1.3zm-4-3.4-.5-.3-.2-.3-.7-.7-.3-.1-.2.4.4.1.9.7.4.2zm7.1-3.9v-.3h-.1l-.3.1-.3.9h.3zm-17.1-1-.2-.3-.3.2h-.5l-.2.1h-.4l-.3.2.4.8.3.3.1 1 .2.1-.1.7 1.1.1.4-.8v-1.7l-.3-.5-.4.6-.4-.3.6-.4zm12.6.3-1-1.4v-.2l-.5-1.5-.3-.1-.1.1-.1.2.4.4v.4l.3.2.4 1.1.4.4-.1.3-.4.3-.1.2h.1l.6-.1h.4zm-10.2-5.1.5-.2-.3-.2h-.7l-.4.1-.2.2.1.1.4.1zm-2.4 2-.5-.6-.3-.9-.2-.4.1-.5-.3-.4-.6-.4-.3.1.1 1.1-.2.6-.8 1.1.1.4.1.2-.5.4v-.3l-.6.1.3.5.6.4.3.1.3-.2v.5l.3.4.1.4.3-.3.6-.2.2-.2.7-.4v-.2l.1-.6zm6.5-4.9-.3-.5-.1.1-.1.4-.3.4.5-.1.4.1.6.5.7.2.3.6.6.6v.6l-.4.6-.1.7-.6.1.1.1.3.3.1.4.2.2v-.7l.3-.8.4-1.2-.1-.3-.3-.3-.7-.9-.7-.3zm-8.5-7.6-.5-.4-.2.4v.1l-.1.3-.5.4-.5.1-.7-.6-.2-.1.8 1.1.3.1h.4l.9-.3 1.6-.5 1.7-.2.1-.2-.1-.3-.8.2-1-.1-.2.2h-.5zm5.9 5 .2-.3.4-1.7.8-.6.1-1.2-.5-.5-.4-.2-.1-.2.1-.2-.2-.1-.3-.2-.4-.6-.4-.4-.7-.1-.6-.1-.4-.1-.5.3h.8l1.5.3.7 1.5.5.4.1.4-.2.4v.4l-.3.5-.1.8-.3.4-.7.5.4.2.3.6z"/><path d="m538.2 282.7.4-.6h-.1l-.5.5-.6.2.1.1h.1z"/><path d="m552.4 401.3.4-.4-.3-.3-.6-.8-.3.1v1l.1.3.5.3z"/><path d="m1112.3 558.3-.4-.4h-.4v.2l.1.4 1.1.2zm3.8-1.4-.3.1-.1.2-.1.3h-.9l.8.5.5.5.2.2.1-.2.1-.7zm-5.4-1.1.2-.3-.2-.7-.4-.8.1-1.4-.2-.2h-.3l-.1.1-.1.3-.3 1.9.4.6.3.1z"/><path d="m743.4 390.3.1-.4-.2-.6-.3-.1-.6.4-.1.3.1.3.3.3.3.1zm6.1-1.6.4-.2v-.7l-.1-.3h-.4l-.2.4v.5zm-1.3.7-.5-.9-.3-.1-.6-.7v-.3l-.3-.1v.6l-.2.5v.5l.4.8.4.2.7.1zm3-7.5v.5l-.3.7.5.3.3.1.6-.4.2-.5-.1-.3-.4-.3-.3-.1-.1.1zm-6.2-2.5-1-.1-.6-.2h-.1v.3l.4.8.2-.5.2-.1.8.2.4-.1-.1-.1zm6.5-.2-.1-.5v-.7h-.2l-.3.2.1.7.1.1.2.5zm-10.8-1v-.2l-.3-.5-.3.1-.4.2-.1.3.4.2h.2zm-1.5-.8.8-.6.2-.3-.2-.5-.5-.1-1.2.6-.1.2.1.3.1.5.2.1z"/><path d="m437.9 362.6-.1-.3-.1.1v.6h.7l.3-.2h.6l-.1-.2-.8-.1-.1.1-.2.1zm7.8-2.2-.1-.1h-.1l-.3.1h-.2l-.1.1-.1.1h.2l.4-.2zm.7-.1.5-.2-.1-.1h-.1l-.1.1h-.1l-.5.3h.2z"/><path d="m543.6 387.9.3-.7-.1-1-.2-.4-.8-.3v.2l-.1.5.3.8.1 1.1z"/><path d="m596.5 803.4-.1-.3-.4-.2-.2-.1.1.2.1.3.1.2.2.1zm5.4-1.3-.3-.1-.1.2.2.3.4.1zm-12.6-1.3-.1.2-.4.1.2.3.6.4h.4l.1-.3-.1-.6h-.3zm2.8-2-.9-.3-.4-.3h-.3l.4.4.1.2.1.2.6.3.6.3.4.3-.1.1-.8.3h-.3l-.2.1.4.2.6-.1.2-.1h.2l.3.1v.2l-.1.2-.2.2-.4.3-.6.4h-.7l-.7.7.9.5.7.3h.9v-.1l.2-.1h.3l.1-.1.2-.4v-.6h.2l.3.1.7-.1.3-.1.6-.9.4-.8.2-.4.3-.2.1-.2.1-.3.3-.2v-.3l-.4-.2-.3-.2-.3.3-.2-.1-.9.3h-.4l-.3-.2-.4-.1-.4.1-.5.5zm.6-.4.1-.3-.1-.2-.5-.2h-.5l.2.5.2.2zm5.8-.7h-.4l.4.5-.8.8.2.6.3.4.1.2-.1.1-.4.1-.3.1-.2.3-.9.9.2.2-.3.7.2.3.8.7.8.4v-.7l.4-.1.4.2.4-.2-.9-1h.3l2.4.5-.1-.4-.1-.2-.3-.4 1.5-.4.5-.3.2-.3.6-.1.8-.3-.1-.1.1-.3-.4-.2-.5-.1.1-.3.5-.1-.8-.7-.3-.1-1 .1-.3.1v.2l.1.3.3.3.1.2-.2-.1-1-.4h-.2l-.2-.4.2-.1.3.1.1-.3-.4-.3-.4-.1-.9.1z"/><path d="m846 107.9v-.3l-.1-.3v-.2h-.1l-.5-.1-.1-.2h-.1v.2l.1.4.5.4zm.5-2-.2-.3-.5-.2-.2-.1-.2.1v.2l.1.1.4.1.4.3h.1zm-2.4-1.9-.2-.1-.5.1h-.3l.1.3.6.2h.6l.2-.1-.1-.2zm2.5-.5-.8-.2-.6-.3-1 .1.7 1.1.8.7.4.2v-.3l-.4-.5-.1-.1v-.1l.1-.1h.2l.3.2h.2zm1-.2-.3-.2-.4-.4v.9h.1l.3.1s.3-.4.3-.4z"/><path d="m540 407.9.5-.2.2-1.1-.3-.1-.3.3-.3.5v.4l-.2.3z"/><path d="m1485.3 344.9v-.4l-.4-.2h-.3l.1.2.4.5zm-1.3 0-.1-.5.2-.3-.9.3-.1.3v.1l.2.1zm1.6-1.1-.1-.3-.2-.1-.1-.3-.1-.2-.3-.1-.2-.1h-.4l-.1.1h-.2l-.2.2v.2l-.5.4v.2l.3.2.5-.1.6.2.8.3v-.5z"/><path d="m537.9 376.3v-.3l-.2-.2h-.3v.5l.2.2zm-.5-.7-.1-.2-.1-.1-.2-.3-.4-.4-.2.1-.1.2v.1l.3.3.4.1.2.4z"/><path d="m545.2 396.7.1-1.2-.1-.5-.2.1-.3.4-.4.6-.1.3v.6l.6.4z"/><path d="m921.2 192.1v-.2l.1-.2-.1-.1-.1-.2-.1-.1v-.2l-.1-.1v-.2l-.1-.1-.2.6v.5l.1.2h.1z"/><path d="m1275.5 462.2.1-.3-.1-.1h-.1l-.1.2v.2zm.3-5.7.1-.2v-.4l-.1.1-.1.2v.1l-.1.1v.1z"/><path d="m949.5 260.5-.2-.2-.5-.5-.5-.1.1.6.4.4h.5zm-1.3-1.2v-.2l-.3-.1-.4.1.1.1.3.2z"/><path d="m539.7 378.8-.1-.5h-.1l-.2.4v.3l.3.1z"/><path d="m1183.8 608.9.3-.3.2-.4.3-.3.1-.7-.2-.8-.4-.7-.5.1-.3.4-.2.5-.5.3-.1.3-.2.7-.1.4-.2.1v.2l.3.3.8.1z"/><path d="m1769.4 622.1v-.3l-.4-.2-.2.5v.1l.2.1h.2zm4.4-7.4-.1-.4.1-.2-.4.2-.6.2.1.8-.1.4.3.1.1.3h.2l.7-.2.3-1.1h-.4zm-2.9-1.6.3-.5.1-.2-.2-.7-.3-.3.3-1-.1-.2-.4-.2-.9.3-.1.2.5.1.2.2-.5.7-.5.1.1.5.2.4.7.2.3.4zm-3.8-2.9.3-.3.3-.4-.1-.1v-.3l.2-.4.3-.1-.2-.2-.2-.1v.3l-.3.7-.1.3-.5.6zm-11.9-2.8-.6-.7-.1.2-.1.4v.3l.3.2.1.2-.1.5v.4l.6.9.1.7.3.6.5.5.4.5.8 1.4.2.5.4.3 1 1.2.4.4.4.2.9.7.6.3.3.5.6.3.8.4.1.2v.3l.1.3.5.4.6.3.1.2.1.2.3-.1.3.1.9.7.4-.1h.3l.5-.2.3-.4-.1-1.1-.5-.5-.7-.4-.4-.5-.4-.5-.8-1-1.1-1-.5-.2-.3-.4-.3-.1-.2-.3-.5-.3-.3-.6-.6-.6-.1-.3.1-.3-.1-.3-.4-.3-.2-.5-.2-.3-.4-.2-.7-.4-1.6-1.8-.7-.6-.7.2zm-21.4-5.8.2-.4.1-.8-.2.4-.2 1z"/><path d="m192.2 633.1v-.2l-.1-.2-.2-.1-.1.1.1.2.2.2z"/><path d="m509.6 370.6v-.1h.1v-.1l.1-.1v-.1h-.5v.2l.2.1zm13.2-.3.7-.2-.4-.1h-.6l-.5.2.1.2zm-3.6-2.1-.1-.2h-.2l-3.4-.1-1.3-.2-.3.1-.3.1-.1.4-.2.2-.3.2.1.3.1.2.2.4-.1.5-.2 1 .3.2.7-.1.3.1.3.1.4-.1.4-.2.9.1.5-.1.6.3.4-.1.2.1h.9l.9-.2.8-.5.3-.5.4-.3.6-.4v-.9l-.7-.1-.6-.3-1-.1h-.1l.1.2h-.1z"/><path d="m133 611.2-.1-.3-.2-.3-.1.1.1.1.2.3v.2zm9-14.3-.2-.2-.4-.2-.2-.1-.2-.1-.1.1.1.1h.1l.3.2.3.1zm-23.9-1.1-.6-.3.1.2.4.2.2.1zm20-.2-.4-.5h-.3zm-21-1-.4-.4-.2-.3-.3-.1.1.1.4.4.3.4.2.1zm-.3-2-.1-.1v-.3l.2-.3.6-.4v-.1l-.2.1-.4.2-.2.2-.1.2-.1.3.1.2.1.1h.2zm-46.1-1-.2-.6-.3-.5-.8-.1-.5.2-.1.2.1.4.5.7.5.1.8-.1.4.6.2.1.4.1.1-.3-.2-.5zm-2.8-.9.1-.4-.2-.1h-.5v.2l.1.2.1.1.3.2zm-9.4-4.2h.2l-.4-.6-.3-.2v.8l.3.1zm42.7-1.5h-.6.6l.3.3zm-.7 0-.3-.1-.3-.2h-.3l.7.3zm-42.6.1.1-.2-.1-.1-.4-.2.1.3v.2zm31.9-1.9-.3-.4-.2-.3-.2-.4-.4-.5.1.3.1.2.2.2.2.4.1.2.3.4zm15.7-1.4.1-.5h-.2zm-14-1.6-.6-.6h-.1l.1.2.6.4v.3zm30-33 .1-.2v-.2l-.1-.1-.3-.1.1.7zm-2.6-3.5-.1-.2h-.2l-.1.1v.5zm.1-1.6-.8.5.2.4.4.1.2-.2.8-.1.3-.4-.3.1zm-5.9-1.7.2-.5-.2-.1-.4.2v.2l.3.4zm2.5-3 .3-.1v-.1l-.2-.2-.3-.1-.1.1-.1.2.1.3zm-2.8-.1.1-.3v-.2l-.1-.2-.9-.2-.1.1v.4l.2.5h.3z"/><path d="m1442.6 474 .1-.2-.2-.2-.3-.1-.5-.2-.6.1-.3.6.9.4z"/><path d="m1780.8 554.4-.2-.2-.1-.4h-.3l-.3.1.2.6h.2zm-34.5.7-.1-.2-.5-.4-1.8-1.3-.4-.1-.1.1-.1.3.1.2.5.1v.1l.3.2.7.2.4.3.1.5.3.1.3.1zm31.1-6.4.2-.4-.2-.1-.5-.1-.7.1-.3.2-.2.3h-.2v.2l.1.4.2-.1.2.1.5-.5h.4zm-23.8-2.2-.1-.2-.2-.1-.9-.7-.5-.2h-.5l-.1.5v.3h.6l.4.2v.6l.2.2v.5l1.2.9.7.4.7.1.4.2.5-.1.5.2.4-.1-.4-.3v-.4l-.5-1.3-.3-.3-.5.1-.5-.2h-.4zm-.3-4.8-.6-1.5-.2-.1.1.6.1.4-.1.5-.1.6.2.2.2-.2.4.5zm-9.6-2.1-.3-.1-.4.3-.1.3-.1.7v.4l.3.7.3.5.3.3.2.2.9.1 1.7.1.9.4.9.2.4-.1.5-.2.1-.1-.1-.6-.2-.3-.4-.2-.2-.6-.5-.4-.9-.7h-1.6l-.6.1zm2.6-1.8-.5.2v.3l.4.1.4.2.1.3.2-.1.4.2.2-.3-.4-.5-.4-.3h-.1zm-5.5.8.3-.2v-.3h-.3l-.1-.2h-.2l-.3.2-.2.3.1.2h.4zm-8.1-2.2-.1-.2-.3-.2h-.2l-.5.1.1.1.6.3.3.1zm3 .4.3-.2-.1-.2-.1-.5-.4.7.1.2zm-.5-.9v-.4l-.2-.1.4-.3-.1-.1-.6-.2-.2.2-.2.1-.1.1-.1.1-.1.5.2.4.4.2zm-3.9.2-.3-.4.1-.5.2-.1.2-.5-.1-.4-.2.1-.7.6-.1.3.6.8zm12.6-1.3-.2-.4v-.2l-.3-.2-.2.1-.1.3.1.2.4.3zm5.8-1.1h-.2l-.1.1h-.5l-.1.2.6 1.1-.3.5.4 2.1.4 1.2.8.8v.2l.8.5.6 1.3.2.1.1-.2v-.6l-.5-1.1.1-.8-.2-.3v-.3l-.2-.8-.6-.7-.3-.1-.2-.3.2-.6.2-.2.1-.3zm-16.1-.5-.6-.2-.2-.3v-1l-.6-.3-.3.2-.6.7-.2.4-.5.3-.1.3v.4l.4.1.3-.4.9-.1.3.1v.4l.1.7.3.3.5.2.4.6.1-.3h.2l.2-.4-.3-1.2zm-6.3-.4.1-.5-.1-.9-.2.1v.2l-.1.4zm3.1-.4.2-.2v-.9l-.2-.4-.2-.2-.5.1-.4.5v.5l.4.6zm-2.5-1.2.2-.3.5-.7.1-.3-.5-.2-.4-.5-.4-.2-.3.4v.4l.5.6-.1.4.2.1.1.4zm17 3.8-.1-.5-.3-.4.4-.5-2.1-1.8-.3-.2-.4-.1-.5-.4-.5-.1-.5-.4-.2-.3-.6-.4-.6-.8-1.5-.3.1.2.4.4.1.7.5.4.5.6.2.1.2.2.4.5.8.4.8.6.3.1.3.3 1.5.7.5.7zm-21.2-8.9.2-.3-.7-.5-.2.3-.2.5.4.2zm8.9 1.4-.4-.1-.4-.2-.7-.8-.2-.3-.2-1-.4-.4-1.4-.8-.8-.8-.7-.1-.2.2v.5l.2.3 1 .9 1.1 1.7 1 1 .8.1h.4v.1l.1.2.5.2.5-.4z"/><path d="m911.2 481.5.5-.8v-.5l-.3-.5h-.4l-.5.4-.3.4v.3l.1.7.1.3.3.2zm4.2-9 .2-.4v-.2l-.1-.1-.1-.1-.2.1-.3.5.1.2.2.2z"/><path d="m535.1 370.5.2.2.3.1.1-.1v-.2z"/><path d="m1177.8 511.2-.5-.8-.4.3.2.3.3.2.1.4.3.2z"/><path d="m488.1 347.1-.1.4v.2l.2.1.6-.1.1-.1.2-.1v-.1l-.4.1zm3.5.5.2-.2-.2-.2-.7-.2-.2.1v.3h.6zm-1.1-.4-.2-.7h-.5v.2l.1.2h.1l.1.2.3.2z"/><path d="m-61.3 613.9-.2.3v.2l.4.4zm-1.5-.8-.4-.3h-.4l-.2-.1v-.2l-.2.3.2.3.9.4.3.2.2-.6v-.2l-.3.1zm2.4-15.6.1-.2v-.3l-.3-.1h-.1l-.3.5.1.1.3.2h.1z"/><path d="m543.2 419.6.1-.2v-.6l.2-.4-.2-.4-.1-.6.1-.5v-.7l.2-.3.5-.8h-.9l-.6.2-1.1.1-.5.2-.7.1-.4.2.1.1.5.2.2.2.1.2.1.4-.3 1.6-.1.1-.6.1-.2.3-1.4.8.8-.1.9.1 2.3-.1zm1.8-6.5 1.2-.5.1-.4h-.3l-.8.3-.6.5v.2z"/><path d="m542.3 403.7.1-.2v-.1h-.1v.1zm.7-1.8.1-.2.1-.1-.1-.1v.1l-.2.1v.1.1h-.1l.1.1zm.3-1.1.3-.2.1-.6-.1-.4h-.2l-.3.1-.2.3-.1.5z"/><path d="m527.5 368.5.3-.2-.2-.1h-.4l-.3.2.1.1zm1-.4.4-.4-.5.1-.2.2.1.1zm.8-1.8h-.7l.1.1h.3l.3.1z"/><path d="m526.2 372.1-.7.2-.1.4h1.1l.7-.3h-.6zm.9-3.4-.5-.1-.2.2.3.1zm-1.1.1-.2-.2-.3-.1-.4.1.5.3z"/><path d="m1043.1 264.8-.3-.1-.5.2-.4.4-.4.3-.5-.3.2.9.6 1.1.2.3.3.2 1.1.3h.9l.2.1.2.4h.4v-.4l.2-.2.3-.2h.3l.6-.1.6-.2.5-.4.9-1h1.1l.6-.1-.2-.4-.1-.1-.4-.5-.2-.4.1-.6 2.4-1.9.5-.5-.8.2-.6.4-.4.2-.7.4-2.2.8-.8.1h-.8l-1-.1-.9-.2v.7l-.2.6-.6.2z"/><path d="m1173.4 614.1.2-.4.1-.8-.4-.8-.4-.7-.4-.2-.8-.1-.7.3-.4.6-.2.3.4 1.1.2.3 1.1.6h.5z"/><path d="m1119.7 562.4v-.3l.2-.5v-.1l.1-.5-.3-.3h-.2l-.2-.3-.3.3.3.5-.1.3-.1.4.1.4.2.2z"/><path d="m545.7 392.6-.2-.7-.1-.2-.2-.3.1-.3v-.1h-.2l-.3-.5-.6-.3h-.2l-.2.2v.3l.3.9.2.2.5.2-.4.4v.1l.1.3h.9l.2.3.1-.1z"/><path d="m544.2 384 .2-.2v-.3l-.2-.3-.2.1-.2.3v.3l.1.1zm-1.9-.8.2-.2v-1.2l.1-.3-.2-.1-.2-.2-.6-.2-.1.1-.2.3.1 1.5.2.5.2.1zm1.6-1.3.8-.2-.9-.6-.2-.4v-.3l-.4-.3-.2.2-.1.3.1.5-.3.4.1.4.4.1z"/><path d="m504.8 407.1v-.6l-.9-.4v.3l.1.2.3.1.1.2-.1.6.2.3z"/><path d="m780.5 310.3-.2-.2-.7.5h-.6l.1.2.1.2.7.4zm13.2-2v-.1h-.1l-.1.1-1.3-.1-.2.6-.5.4v.7l.5.7.3.1.5.1.7-.4.2-.4.1-.8-.1-.4zm-9.5.7.5-.4v-.2l-.1-.3-.5-.3h-.2l-.2.2-.2.4.3.5.2.1zm4.6-2.2 1.2-1v-.3l-1 .1-1.1 1-.3.1-1 .1h-.5l-.4.2.2.3.4 1 .7.9.6-.2.3-.2.4-.6zm11.2 1.3 1.5-.5.3-1 .3-1.1v-.7l-.2-.3h-.5l-.3.2-.1.6-.7 1.3-.5 1.2-.7.6-.7.2.1.1.7.1zm-19.1-2 .5-.5.1-.3-.1-.5.2-.2-.1-.4-.3-.4h-.6l-.4.6.6 1.2zm21.8-2.7.9-.3.5-.3.1-.9.2-.3-.2-.3-.2.2-.2.4-.6.2-.8.4-.2.3-.2.9.4.1z"/></g></svg>