<svg xmlns="http://www.w3.org/2000/svg" fill="none" viewBox="0 0 618 506"><rect width="503" height="443" x="114" y="31" fill="#0D0D0D" stroke="#fff" stroke-width="2" rx="29"/><rect width="480" height="390" x="126" y="58" fill="#000" stroke="#fff" stroke-width="2" rx="29"/><circle cx="245.5" cy="252.5" r="70.5" stroke="#fff" stroke-width="2"/><path stroke="#fff" stroke-width="2" d="M322 256c0 41.992-33.373 76-74.5 76S173 297.992 173 256s33.373-76 74.5-76 74.5 34.008 74.5 76z"/><rect width="53" height="40" x="352" y="234" stroke="#fff" stroke-width="2" rx="9"/><rect width="53" height="40" x="427" y="234" stroke="#fff" stroke-width="2" rx="9"/><rect width="53" height="40" x="352" y="174" stroke="#fff" stroke-width="2" rx="9"/><rect width="53" height="40" x="427" y="174" stroke="#fff" stroke-width="2" rx="9"/><rect width="53" height="40" x="352" y="294" stroke="#fff" stroke-width="2" rx="9"/><rect width="53" height="40" x="427" y="294" stroke="#fff" stroke-width="2" rx="9"/><rect width="51" height="37" x="351" y="172" fill="#FF7BFF" stroke="#fff" stroke-width="2" rx="9"/><rect width="51" height="37" x="426" y="172" fill="#FF7BFF" stroke="#fff" stroke-width="2" rx="9"/><rect width="51" height="37" x="351" y="232" fill="#FF7BFF" stroke="#fff" stroke-width="2" rx="9"/><rect width="51" height="37" x="426" y="232" fill="#FF7BFF" stroke="#fff" stroke-width="2" rx="9"/><rect width="51" height="37" x="351" y="292" fill="#FF7BFF" stroke="#fff" stroke-width="2" rx="9"/><rect width="51" height="37" x="426" y="292" fill="#FF7BFF" stroke="#fff" stroke-width="2" rx="9"/><rect width="53" height="40" x="503" y="234" stroke="#fff" stroke-width="2" rx="9"/><rect width="53" height="40" x="503" y="174" stroke="#fff" stroke-width="2" rx="9"/><rect width="53" height="40" x="503" y="294" stroke="#fff" stroke-width="2" rx="9"/><rect width="51" height="37" x="502" y="172" fill="#FF7BFF" stroke="#fff" stroke-width="2" rx="9"/><rect width="51" height="37" x="502" y="232" fill="#FF7BFF" stroke="#fff" stroke-width="2" rx="9"/><rect width="51" height="37" x="502" y="292" fill="#FF7BFF" stroke="#fff" stroke-width="2" rx="9"/><rect width="37" height="125" x="227" y="190" fill="#FF7BFF" stroke="#fff" stroke-width="2" rx="18.5"/><path fill="#000" stroke="#fff" stroke-width="2" d="M10.703 92.619L126 126.747v125.914L7.297 217.525A6 6 0 0 1 3 211.772v-113.4c0-4.01 3.858-6.891 7.703-5.753zM9.703 419.381L125 385.253V263.339L6.297 298.475A6 6 0 0 0 2 304.228v109.4c0 4.01 3.858 6.891 7.703 5.753z"/><g clip-path="url(#clip0_385_517)"><path fill="#005EFF" stroke="#005EFF" stroke-width="4" d="M30.294 340.779L43.178 313h44.647l12.884 27.779-35.218 34.644-35.197-34.644z"/><path fill="#000" fill-rule="evenodd" d="M71.09 344.734c-.264.023-1.635.114-4.685.114-2.431 0-4.156-.068-4.775-.114-9.392-.43-16.398-2.11-16.398-4.107 0-1.997 7.006-3.698 16.398-4.129v6.558c.613.045 2.366.158 4.797.158 2.917 0 4.375-.136 4.641-.158v-6.558c9.37.431 16.377 2.111 16.377 4.106 0 1.996-6.987 3.7-16.355 4.13zm0-8.894v-5.878h13.085V321H48.548v8.962H61.63v5.878C51 336.343 43 338.494 43 341.104c0 2.61 8 4.743 18.63 5.264v18.811h9.46v-18.811c10.609-.504 18.588-2.655 18.588-5.241s-7.98-4.789-18.588-5.286v-.001z" clip-rule="evenodd"/><path fill="#fff" fill-rule="evenodd" d="M62.09 341.734c-.264.023-1.635.114-4.685.114-2.431 0-4.156-.068-4.775-.114-9.392-.43-16.398-2.11-16.398-4.107 0-1.997 7.006-3.698 16.398-4.129v6.558c.613.045 2.366.158 4.797.158 2.917 0 4.375-.136 4.641-.158v-6.558c9.37.431 16.377 2.111 16.377 4.106 0 1.996-6.987 3.7-16.355 4.13zm0-8.894v-5.878h13.085V318H39.548v8.962H52.63v5.878C42 333.343 34 335.494 34 338.104c0 2.61 8 4.743 18.63 5.264v18.811h9.46v-18.811c10.609-.504 18.588-2.655 18.588-5.241s-7.98-4.789-18.588-5.286v-.001z" clip-rule="evenodd"/></g><mask id="a" fill="#fff"><path fill-rule="evenodd" d="M33.742 308.341l-13.68 29.498a.561.561 0 0 0 .11.658l36.93 36.351a.572.572 0 0 0 .388.153.572.572 0 0 0 .388-.153l36.953-36.351a.567.567 0 0 0 .11-.658l-13.68-29.498a.5.5 0 0 0-.49-.341H34.227a.544.544 0 0 0-.49.341h.005z" clip-rule="evenodd"/></mask><path fill="#fff" d="M33.742 308.341l1.815.842 1.318-2.842h-3.133v2zm-13.68 29.498l1.78.911.017-.034.017-.036-1.815-.841zm.11.658l1.403-1.425-.013-.013-.014-.013-1.376 1.451zm36.93 36.351l-1.402 1.425.022.022.023.021 1.358-1.468zm.388.153v-2 2zm.388-.153l1.358 1.468.022-.021.022-.021-1.402-1.426zm36.953-36.351l-1.39-1.439-.006.007-.007.006 1.403 1.426zm.11-.658l-1.814.841.013.028.013.027 1.788-.896zm-13.68-29.498l-1.886.668.031.089.04.085 1.814-.842zM80.77 308v2h.032l.032-.001L80.77 308zm-46.542 0v-2H34.2l-.028.001.056 1.999zm-.49.341l-1.844-.774-1.166 2.774h3.01v-2zm-1.81-.841l-13.681 29.497 3.629 1.683 13.68-29.497-3.628-1.683zm-13.647 29.428a2.56 2.56 0 0 0-.246 1.59l3.945-.661c.051.302.004.616-.138.893l-3.561-1.822zm-.246 1.59c.09.541.354 1.045.76 1.43l2.753-2.902c.233.222.381.508.432.811l-3.945.661zm.734 1.405l36.931 36.35 2.806-2.85-36.931-36.351-2.806 2.851zm36.976 36.393a2.57 2.57 0 0 0 1.745.685v-4c.367 0 .713.14.971.379l-2.716 2.936zm1.745.685a2.57 2.57 0 0 0 1.746-.685l-2.717-2.936a1.43 1.43 0 0 1 .971-.379v4zm1.79-.727l36.954-36.351-2.806-2.852-36.953 36.351 2.805 2.852zm36.94-36.338c.398-.384.656-.883.746-1.418l-3.945-.662c.05-.297.194-.579.42-.798l2.78 2.878zm.746-1.418a2.569 2.569 0 0 0-.237-1.575l-3.576 1.792a1.433 1.433 0 0 1-.132-.879l3.945.662zm-.21-1.521L83.074 307.5l-3.628 1.683 13.68 29.497 3.63-1.683zm-13.61-29.323a2.518 2.518 0 0 0-.935-1.227l-2.284 3.284a1.479 1.479 0 0 1-.552-.722l3.77-1.335zm-.935-1.227a2.501 2.501 0 0 0-1.505-.446l.128 3.998a1.501 1.501 0 0 1-.907-.268l2.284-3.284zM80.77 306H34.228v4H80.77v-4zm-46.598.001a2.546 2.546 0 0 0-1.38.454l2.284 3.284c-.23.16-.504.252-.792.26l-.112-3.998zm-1.38.454a2.566 2.566 0 0 0-.898 1.112l3.688 1.549a1.433 1.433 0 0 1-.506.623l-2.284-3.284zm.946 3.886h.005v-4h-.005v4z" mask="url(#a)"/><path fill="#005EFF" d="M79.823 160.552c-1.292-.812-2.97-.812-4.391 0l-10.074 6.224-6.845 4.059-10.074 6.224c-1.291.812-2.97.812-4.39 0l-8.008-4.871c-1.292-.812-2.196-2.3-2.196-3.924v-9.607c0-1.623.775-3.111 2.196-3.923l7.878-4.736c1.291-.812 2.97-.812 4.391 0l7.878 4.736c1.292.812 2.196 2.3 2.196 3.923v6.225l6.845-4.195v-6.224c0-1.624-.775-3.112-2.196-3.924l-14.594-8.93c-1.291-.812-2.97-.812-4.39 0l-14.853 8.93c-1.421.812-2.196 2.3-2.196 3.924v17.996c0 1.623.775 3.112 2.196 3.923l14.852 8.931c1.292.812 2.97.812 4.391 0l10.074-6.089 6.845-4.195 10.074-6.088c1.291-.812 2.97-.812 4.39 0l7.88 4.736c1.29.811 2.195 2.3 2.195 3.923v9.607c0 1.623-.775 3.112-2.196 3.924l-7.878 4.871c-1.292.811-2.97.811-4.391 0l-7.878-4.736c-1.292-.812-2.196-2.3-2.196-3.923v-6.225l-6.845 4.195v6.224c0 1.623.775 3.112 2.196 3.923l14.852 8.931c1.291.812 2.97.812 4.39 0l14.854-8.931c1.291-.811 2.195-2.3 2.195-3.923v-17.996c0-1.624-.775-3.112-2.195-3.924l-14.982-9.065z"/><path stroke="#fff" stroke-width="2" d="M84.285 157.7l.007.005.007.004 14.982 9.208.01.006.011.006c1.078.626 1.698 1.786 1.698 3.121v18.276c0 1.286-.71 2.486-1.726 3.137l-14.833 9.059c-1.124.648-2.396.621-3.342.017l-.008-.006-.009-.005-14.852-9.07-.01-.006-.01-.006c-1.077-.625-1.697-1.785-1.697-3.12v-5.765l4.845-3.016v4.522c0 2.009 1.094 3.829 2.657 4.828l.009.005.008.005 7.879 4.81.01.006.01.006c1.713.994 3.793 1.02 5.427-.02l.003-.002 7.858-4.935c1.754-1.026 2.678-2.884 2.678-4.841v-9.757c0-2.008-1.094-3.83-2.658-4.828l-.008-.005-.009-.005-7.878-4.81-.01-.006-.01-.006c-1.711-.994-3.79-1.021-5.422.017l-10.067 6.18-.005.003-6.84 4.257-.006.003-10.057 6.174c-1.123.648-2.395.62-3.34.016l-.01-.005-.008-.005-14.852-9.07-.01-.006-.01-.006c-1.077-.625-1.697-1.785-1.697-3.12v-18.277c0-1.335.62-2.494 1.698-3.12l.01-.005.009-.006 14.842-9.064c1.124-.648 2.396-.621 3.342-.017h0l.01.007 14.594 9.07.013.008.013.007c1.078.625 1.698 1.785 1.698 3.12v5.766l-4.845 3.016v-4.522c0-2.008-1.094-3.829-2.657-4.828l-.009-.005-.009-.005-7.878-4.81-.01-.006-.009-.005c-1.712-.994-3.79-1.021-5.422.016l-7.861 4.799c-1.758 1.025-2.684 2.885-2.684 4.844v9.757c0 2.009 1.094 3.83 2.658 4.828l.006.004.006.004 8.008 4.947.011.008.012.006c1.714.995 3.794 1.022 5.428-.019l.003-.003 10.06-6.312 6.837-4.118.008-.005.007-.004 10.059-6.312c1.123-.645 2.392-.617 3.337-.014z"/><defs><clipPath id="clip0_385_517"><path fill="#fff" d="M0 0h75v67H0z" transform="translate(28 311)"/></clipPath></defs></svg>