<svg xmlns="http://www.w3.org/2000/svg" fill="none" viewBox="0 0 618 506"><rect width="338" height="498" x="252" y="4" fill="#0D0D0D" stroke="#fff" stroke-width="2" rx="29"/><rect width="53" height="40" x="282" y="441" fill="#000" stroke="#fff" stroke-width="2" rx="9"/><rect width="53" height="40" x="357" y="441" fill="#000" stroke="#fff" stroke-width="2" rx="9"/><rect width="53" height="40" x="432" y="441" fill="#000" stroke="#fff" stroke-width="2" rx="9"/><rect width="53" height="40" x="507" y="441" fill="#000" stroke="#fff" stroke-width="2" rx="9"/><rect width="53" height="40" x="282" y="261" fill="#000" stroke="#fff" stroke-width="2" rx="9"/><rect width="53" height="40" x="357" y="261" fill="#000" stroke="#fff" stroke-width="2" rx="9"/><rect width="53" height="40" x="432" y="261" fill="#000" stroke="#fff" stroke-width="2" rx="9"/><rect width="53" height="40" x="507" y="261" fill="#000" stroke="#fff" stroke-width="2" rx="9"/><rect width="53" height="40" x="282" y="201" fill="#000" stroke="#fff" stroke-width="2" rx="9"/><rect width="128" height="27" x="432" y="154" fill="#000" stroke="#fff" stroke-width="2" rx="4"/><path stroke="#fff" stroke-width="2" d="M496 154v27M531 154v27M461 154v27"/><rect width="53" height="40" x="357" y="201" fill="#000" stroke="#fff" stroke-width="2" rx="9"/><rect width="53" height="40" x="432" y="201" fill="#000" stroke="#fff" stroke-width="2" rx="9"/><rect width="53" height="40" x="507" y="201" fill="#000" stroke="#fff" stroke-width="2" rx="9"/><rect width="53" height="40" x="282" y="321" fill="#000" stroke="#fff" stroke-width="2" rx="9"/><rect width="53" height="40" x="357" y="321" fill="#000" stroke="#fff" stroke-width="2" rx="9"/><rect width="53" height="40" x="432" y="321" fill="#000" stroke="#fff" stroke-width="2" rx="9"/><rect width="53" height="40" x="507" y="321" fill="#000" stroke="#fff" stroke-width="2" rx="9"/><rect width="53" height="40" x="282" y="381" fill="#000" stroke="#fff" stroke-width="2" rx="9"/><rect width="53" height="40" x="357" y="381" fill="#000" stroke="#fff" stroke-width="2" rx="9"/><rect width="53" height="40" x="432" y="381" fill="#000" stroke="#fff" stroke-width="2" rx="9"/><rect width="53" height="40" x="507" y="381" fill="#000" stroke="#fff" stroke-width="2" rx="9"/><rect width="278" height="93" x="282" y="42" fill="#000" stroke="#fff" stroke-width="2" rx="19"/><rect width="51" height="37" x="281" y="199" fill="#FF7BFF" stroke="#fff" stroke-width="2" rx="9"/><rect width="51" height="37" x="356" y="199" fill="#FF7BFF" stroke="#fff" stroke-width="2" rx="9"/><rect width="51" height="37" x="431" y="199" fill="#FF7BFF" stroke="#fff" stroke-width="2" rx="9"/><rect width="51" height="37" x="506" y="199" fill="#FF7BFF" stroke="#fff" stroke-width="2" rx="9"/><rect width="51" height="37" x="281" y="259" fill="#FF7BFF" stroke="#fff" stroke-width="2" rx="9"/><rect width="51" height="37" x="356" y="259" fill="#FF7BFF" stroke="#fff" stroke-width="2" rx="9"/><rect width="51" height="37" x="431" y="259" fill="#FF7BFF" stroke="#fff" stroke-width="2" rx="9"/><rect width="51" height="37" x="506" y="259" fill="#FF7BFF" stroke="#fff" stroke-width="2" rx="9"/><rect width="51" height="37" x="281" y="319" fill="#FF7BFF" stroke="#fff" stroke-width="2" rx="9"/><rect width="51" height="37" x="356" y="319" fill="#FF7BFF" stroke="#fff" stroke-width="2" rx="9"/><rect width="51" height="37" x="431" y="319" fill="#FF7BFF" stroke="#fff" stroke-width="2" rx="9"/><rect width="51" height="37" x="506" y="319" fill="#FF7BFF" stroke="#fff" stroke-width="2" rx="9"/><rect width="51" height="37" x="281" y="379" fill="#FF7BFF" stroke="#fff" stroke-width="2" rx="9"/><rect width="51" height="37" x="356" y="379" fill="#FF7BFF" stroke="#fff" stroke-width="2" rx="9"/><rect width="51" height="37" x="431" y="379" fill="#FF7BFF" stroke="#fff" stroke-width="2" rx="9"/><rect width="51" height="37" x="506" y="379" fill="#FF7BFF" stroke="#fff" stroke-width="2" rx="9"/><rect width="51" height="37" x="281" y="439" fill="#FF7BFF" stroke="#fff" stroke-width="2" rx="9"/><rect width="51" height="37" x="356" y="439" fill="#FF7BFF" stroke="#fff" stroke-width="2" rx="9"/><rect width="51" height="37" x="431" y="439" fill="#FF7BFF" stroke="#fff" stroke-width="2" rx="9"/><rect width="51" height="37" x="506" y="439" fill="#FF7BFF" stroke="#fff" stroke-width="2" rx="9"/><circle cx="149" cy="131" r="91" stroke="#fff" stroke-width="2"/><path fill="#000" stroke="#fff" stroke-width="2" d="M232 131c0 45.276-37.149 82-83 82s-83-36.724-83-82 37.149-82 83-82 83 36.724 83 82z"/><rect width="178" height="53" x="69" y="225" stroke="#fff" stroke-width="2" rx="4"/><rect width="178" height="53" x="28" y="281" stroke="#fff" stroke-width="2" rx="4"/><rect width="178" height="53" x="58" y="337" stroke="#fff" stroke-width="2" rx="4"/><rect width="178" height="53" x="60" y="449" stroke="#fff" stroke-width="2" rx="4"/><rect width="178" height="53" x="34" y="393" stroke="#fff" stroke-width="2" rx="4"/><path stroke="#fff" stroke-width="2" d="M77 224.5v54M86 225v54M95 224v54M122 224v54M131 225v54M140 224v54M104 225v54M113 224v54M149 224.5v54M158 225v54M167 224v54M194 225v54M203 225v54M212 224v54M221 224.5v54M230 225v54M239 224v54M176 225v54M185 225v54M66 336.5v54M75 337v54M84 336v54M111 336v54M120 337v54M129 336v54M93 337v54M102 336v54M138 336.5v54M147 337v54M156 336v54M183 337v54M192 337v54M201 336v54M210 336.5v54M219 337v54M228 336v54M165 337v54M174 337v54M69 448.5v54M78 449v54M87 448v54M114 448v54M123 449v54M132 448v54M96 449v54M105 448v54M141 448.5v54M150 449v54M159 448v54M186 449v54M195 449v54M204 448v54M213 448.5v54M222 449v54M231 448v54M168 449v54M177 449v54M42 392.5v54M51 393v54M60 392v54M87 392v54M96 393v54M105 392v54M69 393v54M78 392v54M114 392.5v54M123 393v54M132 392v54M159 393v54M168 393v54M177 392v54M186 392.5v54M195 393v54M204 392v54M141 393v54M150 393v54M36 280.5v54M45 281v54M54 280v54M81 280v54M90 281v54M99 280v54M63 281v54M72 280v54M108 280.5v54M117 281v54M126 280v54M153 281v54M162 281v54M171 280v54M180 280.5v54M189 281v54M198 280v54M135 281v54M144 281v54"/><g filter="url(#filter0_d_374_416)"><path fill="#005EFF" d="M151.736 158.05c0 .003.004.005.006.003l25.41-16.152c.91-.579 1.965.494 1.372 1.394l-25.953 39.343a1 1 0 0 1-1.669-.001l-25.939-39.347c-.594-.9.461-1.972 1.371-1.394l25.401 16.151.001.003zm-.872-75.492a1 1 0 0 1 1.745 0l28.007 50.023a.999.999 0 0 1-.335 1.332l-28.008 17.82a1 1 0 0 1-1.073 0l-28.012-17.82a.999.999 0 0 1-.335-1.332l28.011-50.023z"/></g><path fill="#005EFF" d="M151.736 158.05c0 .003.004.005.006.003l25.41-16.152c.91-.579 1.965.494 1.372 1.394l-25.953 39.343a1 1 0 0 1-1.669-.001l-25.939-39.347c-.594-.9.461-1.972 1.371-1.394l25.401 16.151.001.003zm-.872-75.492a1 1 0 0 1 1.745 0l28.007 50.023a.999.999 0 0 1-.335 1.332l-28.008 17.82a1 1 0 0 1-1.073 0l-28.012-17.82a.999.999 0 0 1-.335-1.332l28.011-50.023z"/><path stroke="#fff" stroke-width="2" d="M145.888 156.897l25.41-16.152-25.952 39.342-25.939-39.347 25.334 16.108a.997.997 0 0 0 1.147.049zm.305-1.379h.001a.987.987 0 0 1-.001 0zm-.847-74.471l28.007 50.023-28.007 17.819-28.012-17.819 28.012-50.023z"/><defs><filter id="filter0_d_374_416" width="60.016" height="103.04" x="121.727" y="81.547" color-interpolation-filters="sRGB" filterUnits="userSpaceOnUse"><feFlood flood-opacity="0" result="BackgroundImageFix"/><feColorMatrix in="SourceAlpha" result="hardAlpha" values="0 0 0 0 0 0 0 0 0 0 0 0 0 0 0 0 0 0 127 0"/><feOffset dy=".5"/><feGaussianBlur stdDeviation=".5"/><feColorMatrix values="0 0 0 0 0 0 0 0 0 0 0 0 0 0 0 0 0 0 0.204257 0"/><feBlend in2="BackgroundImageFix" result="effect1_dropShadow_374_416"/><feBlend in="SourceGraphic" in2="effect1_dropShadow_374_416" result="shape"/></filter></defs></svg>