<svg xmlns="http://www.w3.org/2000/svg" fill="none" viewBox="0 0 618 506"><rect width="616" height="362" x="1" y="1" fill="#0D0D0D" stroke="#fff" stroke-width="2" rx="29"/><path fill="#000" stroke="#fff" stroke-width="2" d="M1 32h616v262H1z"/><circle cx="309" cy="17" r="3" stroke="#fff" stroke-width="2"/><path fill="#0D0D0D" stroke="#fff" stroke-width="2" d="M275 363.5h67v22.948A193.492 193.492 0 0 0 376 496H241a193.492 193.492 0 0 0 34-109.552V363.5z"/><path fill="#000" stroke="#fff" stroke-width="2" d="M320.783 423h-22.598c-7.863 0-14.237 6.374-14.237 14.237 0 20.271-6.49 40.01-18.52 56.326L264 495.5h91l-1.437-1.943A94.784 94.784 0 0 1 335 437.217c0-7.852-6.365-14.217-14.217-14.217z"/><rect width="269" height="9" x="174" y="496" fill="#0D0D0D" stroke="#fff" stroke-width="2" rx="1"/><path stroke="#005EFF" stroke-linecap="round" stroke-width="2" d="M11 196v49"/><rect width="8" height="34" x="7" y="203" fill="#000" stroke="#005EFF" stroke-width="2" rx="1"/><rect width="8" height="36" x="19" y="193" fill="#005EFF" stroke="#005EFF" stroke-width="2" rx="1"/><rect width="8" height="12" x="45" y="189" fill="#FF7BFF" stroke="#FF7BFF" stroke-width="2" rx="1"/><path stroke="#005EFF" stroke-linecap="round" stroke-width="2" d="M23 176v76M36 189v40"/><path stroke="#FF7BFF" stroke-linecap="round" stroke-width="2" d="M49 184v22"/><rect width="8" height="11" x="32" y="197" fill="#000" stroke="#005EFF" stroke-width="2" rx="1"/><path stroke="#FF7BFF" stroke-linecap="round" stroke-width="2" d="M113 207v62"/><path stroke="#005EFF" stroke-linecap="round" stroke-width="2" d="M100 202v51"/><rect width="8" height="47" x="-1" y="1" fill="#000" stroke="#FF7BFF" stroke-width="2" rx="1" transform="matrix(-1 0 0 1 116 219)"/><rect width="6" height="34" x="-1" y="1" fill="#000" stroke="#005EFF" stroke-width="2" rx="1" transform="matrix(-1 0 0 1 102 209)"/><rect width="6" height="36" x="-1" y="1" fill="#FF7BFF" stroke="#FF7BFF" stroke-width="2" rx="1" transform="matrix(-1 0 0 1 88 199)"/><rect width="8" height="11" x="-1" y="1" fill="#FF7BFF" stroke="#FF7BFF" stroke-width="2" rx="1" transform="matrix(-1 0 0 1 65 196)"/><path stroke="#FF7BFF" stroke-linecap="round" stroke-width="2" d="M86 183v75M73 197v38M62 191v21"/><rect width="7" height="13" x="-1" y="1" fill="#000" stroke="#FF7BFF" stroke-width="2" rx="1" transform="matrix(-1 0 0 1 76 202)"/><path stroke="#FF7BFF" stroke-linecap="round" stroke-width="2" d="M125 219v62"/><path stroke="#005EFF" stroke-linecap="round" stroke-width="2" d="M138 214v51"/><rect width="6" height="45" x="122" y="233" fill="#000" stroke="#FF7BFF" stroke-width="2" rx="1"/><rect width="8" height="34" x="134" y="223" fill="#000" stroke="#005EFF" stroke-width="2" rx="1"/><rect width="8" height="35" x="146" y="213" fill="#005EFF" stroke="#005EFF" stroke-width="2" rx="1"/><rect width="7" height="13" x="172" y="208" fill="#FF7BFF" stroke="#FF7BFF" stroke-width="2" rx="1"/><path stroke="#005EFF" stroke-linecap="round" stroke-width="2" d="M150 196v73M162 209v39"/><path stroke="#FF7BFF" stroke-linecap="round" stroke-width="2" d="M175 203v21"/><rect width="8" height="13" x="158" y="215" fill="#000" stroke="#005EFF" stroke-width="2" rx="1"/><path stroke="#005EFF" stroke-linecap="round" stroke-width="2" d="M188 173v62M200 168v51"/><rect width="7" height="45" x="185" y="187" fill="#000" stroke="#005EFF" stroke-width="2" rx="1"/><rect width="7" height="34" x="197" y="177" fill="#000" stroke="#005EFF" stroke-width="2" rx="1"/><rect width="8" height="35" x="209" y="167" fill="#005EFF" stroke="#005EFF" stroke-width="2" rx="1"/><rect width="5" height="13" x="237" y="162" fill="#FF7BFF" stroke="#FF7BFF" stroke-width="2" rx="1"/><path stroke="#005EFF" stroke-linecap="round" stroke-width="2" d="M213 150v73M227 163v39"/><path stroke="#FF7BFF" stroke-linecap="round" stroke-width="2" d="M239 157v21M252 165v21"/><rect width="9" height="13" x="223" y="169" fill="#000" stroke="#005EFF" stroke-width="2" rx="1"/><path stroke="#FF7BFF" stroke-linecap="round" stroke-width="2" d="M302 178v64M290 173v51"/><rect width="8" height="45" x="-1" y="1" fill="#000" stroke="#FF7BFF" stroke-width="2" rx="1" transform="matrix(-1 0 0 1 305 191)"/><rect width="6" height="36" x="-1" y="1" fill="#000" stroke="#FF7BFF" stroke-width="2" rx="1" transform="matrix(-1 0 0 1 292 180)"/><rect width="7" height="35" x="-1" y="1" fill="#FF7BFF" stroke="#FF7BFF" stroke-width="2" rx="1" transform="matrix(-1 0 0 1 280 172)"/><rect width="8" height="12" x="-1" y="1" fill="#FF7BFF" stroke="#FF7BFF" stroke-width="2" rx="1" transform="matrix(-1 0 0 1 255 166)"/><path stroke="#FF7BFF" stroke-linecap="round" stroke-width="2" d="M277 153v76M265 168v39"/><rect width="6" height="12" x="-1" y="1" fill="#000" stroke="#FF7BFF" stroke-width="2" rx="1" transform="matrix(-1 0 0 1 267 173)"/><path stroke="#005EFF" stroke-linecap="round" stroke-width="2" d="M314 196v61M327 189v53"/><rect width="7" height="46" x="311" y="208" fill="#000" stroke="#005EFF" stroke-width="2" rx="1"/><rect width="9" height="34" x="323" y="198" fill="#000" stroke="#005EFF" stroke-width="2" rx="1"/><rect width="7" height="34" x="336" y="189" fill="#005EFF" stroke="#005EFF" stroke-width="2" rx="1"/><rect width="10" height="12" x="362" y="184" fill="#FF7BFF" stroke="#FF7BFF" stroke-width="2" rx="1"/><path stroke="#005EFF" stroke-linecap="round" stroke-width="2" d="M339 170v75M354 184v39"/><path stroke="#FF7BFF" stroke-linecap="round" stroke-width="2" d="M367 178v21"/><rect width="7" height="12" x="351" y="190" fill="#000" stroke="#005EFF" stroke-width="2" rx="1"/><path stroke="#005EFF" stroke-linecap="round" stroke-width="2" d="M379 161v62M392 156v51"/><rect width="7" height="47" x="376" y="174" fill="#000" stroke="#005EFF" stroke-width="2" rx="1"/><rect width="8" height="34" x="388" y="164" fill="#000" stroke="#005EFF" stroke-width="2" rx="1"/><rect width="7" height="36" x="401" y="154" fill="#005EFF" stroke="#005EFF" stroke-width="2" rx="1"/><rect width="6" height="11" x="426" y="151" fill="#005EFF" stroke="#005EFF" stroke-width="2" rx="1"/><path stroke="#005EFF" stroke-linecap="round" stroke-width="2" d="M404 137v75M416 151v38M429 145v21"/><rect width="7" height="12" x="413" y="157" fill="#000" stroke="#005EFF" stroke-width="2" rx="1"/><path stroke="#005EFF" stroke-linecap="round" stroke-width="2" d="M442 120v63M454 116v50"/><rect width="8" height="46" x="438" y="133" fill="#000" stroke="#005EFF" stroke-width="2" rx="1"/><rect width="6" height="34" x="451" y="123" fill="#000" stroke="#005EFF" stroke-width="2" rx="1"/><rect width="10" height="37" x="462" y="113" fill="#005EFF" stroke="#005EFF" stroke-width="2" rx="1"/><rect width="7" height="13" x="490" y="108" fill="#005EFF" stroke="#005EFF" stroke-width="2" rx="1"/><path stroke="#005EFF" stroke-linecap="round" stroke-width="2" d="M467 96v74"/><path stroke="#FF7BFF" stroke-linecap="round" stroke-width="2" d="M481 110v40"/><path stroke="#005EFF" stroke-linecap="round" stroke-width="2" d="M493 105v21"/><rect width="8" height="12" x="477" y="117" fill="#000" stroke="#FF7BFF" stroke-width="2" rx="1"/><path stroke="#005EFF" stroke-linecap="round" stroke-width="2" d="M506 64v62M519 59v51"/><rect width="8" height="46" x="502" y="77" fill="#000" stroke="#005EFF" stroke-width="2" rx="1"/><rect width="8" height="37" x="515" y="66" fill="#000" stroke="#005EFF" stroke-width="2" rx="1"/><rect width="8" height="34" x="528" y="59" fill="#005EFF" stroke="#005EFF" stroke-width="2" rx="1"/><rect width="8" height="12" x="553" y="61" fill="#005EFF" stroke="#005EFF" stroke-width="2" rx="1"/><path stroke="#005EFF" stroke-linecap="round" stroke-width="2" d="M532 39v76"/><path stroke="#FF7BFF" stroke-linecap="round" stroke-width="2" d="M544 53v39"/><path stroke="#005EFF" stroke-linecap="round" stroke-width="2" d="M557 58v20"/><rect width="8" height="12" x="540" y="60" fill="#000" stroke="#FF7BFF" stroke-width="2" rx="1"/><path stroke="#FF7BFF" stroke-linecap="round" stroke-width="2" d="M608 84v50"/><rect width="8" height="34" x="-1" y="1" fill="#000" stroke="#FF7BFF" stroke-width="2" rx="1" transform="matrix(-1 0 0 1 611 91)"/><rect width="6" height="36" x="-1" y="1" fill="#FF7BFF" stroke="#FF7BFF" stroke-width="2" rx="1" transform="matrix(-1 0 0 1 596 81)"/><rect width="6" height="13" x="-1" y="1" fill="#FF7BFF" stroke="#FF7BFF" stroke-width="2" rx="1" transform="matrix(-1 0 0 1 571 76)"/><path stroke="#FF7BFF" stroke-linecap="round" stroke-width="2" d="M594 64v76M581 78v39M569 73v21"/><rect width="8" height="11" x="-1" y="1" fill="#000" stroke="#FF7BFF" stroke-width="2" rx="1" transform="matrix(-1 0 0 1 584 84)"/></svg>