<svg xmlns="http://www.w3.org/2000/svg" fill="none" viewBox="0 0 618 506"><path fill="#000" stroke="#fff" stroke-width="2" d="M79.04 453.348l-24.265-4.227-7.55-5.869 126.848-293.6 153.264-10.65 148.706 9.322 85.629 199.546 4.291 102.14-27.694 3.924c-4.04.572-7.924-1.586-9.517-5.326-11.038-25.914-48.898-114.861-50.518-119.5-2.641-7.567-8.6-12.766-15.895-16.316-7.289-3.548-15.998-5.493-24.323-6.523-8.335-1.03-16.342-1.148-22.26-1.01a158.79 158.79 0 0 0-7.106.319 113.97 113.97 0 0 0-2.497.198l-.09.009-.045.004-.005.001-198.894 3.55c-31.371-7.151-52.699 6.893-66.112 22.65-6.706 7.878-11.449 16.195-14.515 22.536a106.06 106.06 0 0 0-3.384 7.748 72.607 72.607 0 0 0-1.022 2.803l-.052.156-.006.02-33.09 82.576a9 9 0 0 1-9.899 5.519zM152.709 92.17l-7.387-21.186 22.631-4.582h.005l.097-.015.384-.055a635.079 635.079 0 0 1 7.384-.996c5.111-.66 12.54-1.567 21.809-2.559 18.538-1.984 44.435-4.304 73.865-5.65 58.53-2.679 130.926-1.498 187.209 13.787l-7.977 23.082-298.02-1.826z"/><path fill="#000" stroke="#fff" stroke-width="2" d="M180.245 81.283v-.003a12.08 12.08 0 0 1 .04-5.03 12.14 12.14 0 0 1 2.084-4.588h0a13.117 13.117 0 0 1 3.963-3.562 13.214 13.214 0 0 1 5.067-1.701h.002c79.954-9.848 159.119-9.864 235.298-.052h.007a13 13 0 0 1 4.99 1.68 12.9 12.9 0 0 1 3.899 3.511l.004.005a12.131 12.131 0 0 1 2.191 9.496l-.001.002-15.33 82.166C419.243 180.445 403.712 193 385.48 193H233.735c-17.973 0-33.467-12.348-36.883-29.299l-16.607-82.418z"/><path fill="#FF7BFF" stroke="#fff" stroke-width="2" d="M159.871 65.431L77.072 81.77l.591-10.263s0 0 0 0a9.883 9.883 0 0 1 1.466-4.628 10.352 10.352 0 0 1 3.536-3.457c9.54-5.652 35.287-18.101 68.132-11.577a10.7 10.7 0 0 1 5.567 3.005 10.038 10.038 0 0 1 2.759 5.517l.748 5.065z"/><path fill="#005EFF" stroke="#fff" stroke-width="2" d="M459.417 56.727h0l.001-.003a4.687 4.687 0 0 1 1.217-2.523 5.022 5.022 0 0 1 2.501-1.45h.002c37.882-9.179 66.885 7.123 74.857 12.329a4.915 4.915 0 0 1 1.544 1.614c.378.642.596 1.357.641 2.09 0 0 0 0 0 0l.747 12.985-82.798-16.332 1.288-8.71z"/><path fill="#0D0D0D" stroke="#fff" stroke-width="2" d="M44.91 448.533l-.014-.008-.013-.008C22.482 435.538 8.418 411.711 3.26 377.478c-4.264-28.289-2.49-63.864 5.313-105.764C22.41 197.425 51.42 123.141 63.254 94.641a25.017 25.017 0 0 1 6.844-9.392 25.285 25.285 0 0 1 10.38-5.323c12.205-2.979 28.953-6.965 44.038-10.206 7.543-1.62 14.663-3.053 20.587-4.08 5.948-1.031 10.62-1.64 13.305-1.64 7.297 0 12.946 3.405 16.815 6.885a34.4 34.4 0 0 1 4.401 4.8c.496.658.872 1.207 1.124 1.593.171.262.285.448.34.54l13.351 57.444v.863l.042.139c7.303 24.52 1.87 42.166-3.93 52.629a58.263 58.263 0 0 1-9.61 12.807c-2.837 2.849-4.884 4.27-4.884 4.27l-.018.012-.018.014c-6.663 5.033-15.311 15.551-24.898 29.872-9.609 14.353-20.223 32.622-30.806 53.254-21.986 42.862-38.32 85.218-43.654 113.312-3.237 17.05-7.216 28.11-11.194 35.223-3.974 7.108-7.915 10.221-11.066 11.492l-.007.003c-1.34.553-2.775.841-4.226.847l.005 1-.011-1a9.764 9.764 0 0 1-5.255-1.466zM380.555 187a36.16 36.16 0 0 0 23.332-8.528 36.685 36.685 0 0 0 12.458-21.638L380.555 187zm0 0H237.588h142.967zM187.227 75.954v-.001a12.509 12.509 0 0 1 .059-5.033 12.456 12.456 0 0 1 2.038-4.593 12.326 12.326 0 0 1 3.678-3.397 12.213 12.213 0 0 1 4.71-1.643c75.323-9.7 149.902-9.715 221.667-.051 1.641.225 3.22.783 4.642 1.64a12.3 12.3 0 0 1 3.633 3.35 12.44 12.44 0 0 1 2.038 4.522c.369 1.63.407 3.32.111 4.966v.001l-14.443 80.943v.001a35.684 35.684 0 0 1-12.117 21.048A35.159 35.159 0 0 1 380.555 186v.989V186H237.59a35.248 35.248 0 0 1-22.483-8.156 35.768 35.768 0 0 1-12.234-20.7l-15.646-81.19zM563.881 449.152l-.007-.003c-3.133-1.27-7.054-4.382-11.009-11.491-3.958-7.114-7.917-18.173-11.138-35.224-5.308-28.093-21.559-70.449-43.434-113.311-10.529-20.631-21.09-38.9-30.653-53.255-9.541-14.322-18.149-24.843-24.788-29.883l-.02-.015-.02-.014h0c-.066-.046-8.147-5.72-14.401-17.061l-.875.483.875-.483c-5.77-10.464-11.177-28.111-3.909-52.632l.039-.133.002-.139.01-.823 13.274-57.35c.055-.093.168-.28.338-.541.251-.387.625-.936 1.119-1.594a34.389 34.389 0 0 1 4.378-4.8c3.85-3.48 9.469-6.883 16.726-6.883 2.671 0 7.318.609 13.237 1.64 5.894 1.027 12.977 2.46 20.483 4.08 15.009 3.24 31.673 7.227 43.815 10.205a25.106 25.106 0 0 1 10.325 5.323 25.013 25.013 0 0 1 6.81 9.391c11.776 28.5 40.64 102.784 54.408 177.074 7.765 41.9 9.529 77.475 5.287 105.765-5.134 34.234-19.128 58.061-41.446 71.059l-.013.007-.012.008a9.632 9.632 0 0 1-5.19 1.447l-.011 1 .004-1a11.092 11.092 0 0 1-4.204-.847z"/><path fill="#005EFF" d="M168.886 110a7.317 7.317 0 0 1-4.401-1.473 6.775 6.775 0 0 1-2.499-3.764l-3.798-15.42a6.537 6.537 0 0 1 .877-5.127c.991-1.53 2.577-2.622 4.409-3.035a7.381 7.381 0 0 1 5.363.833c1.601.947 2.744 2.463 3.178 4.214l3.798 15.42c.244.998.249 2.036.015 3.037a6.678 6.678 0 0 1-1.368 2.74 7.071 7.071 0 0 1-2.479 1.898 7.382 7.382 0 0 1-3.095.677z"/><path stroke="#fff" stroke-width="2" d="M162.751 109.747a5.811 5.811 0 0 1-2.013-3.211l-3.587-15.418v-.001a5.873 5.873 0 0 1 .707-4.38 5.715 5.715 0 0 1 3.544-2.583 5.637 5.637 0 0 1 4.302.708 5.786 5.786 0 0 1 2.558 3.594s0 0 0 0l3.587 15.417v.001c.197.853.201 1.74.012 2.595a5.829 5.829 0 0 1-1.103 2.339 5.728 5.728 0 0 1-1.993 1.617 5.648 5.648 0 0 1-2.483.575 5.663 5.663 0 0 1-3.531-1.253z"/><path fill="#FF7BFF" d="M451.719 108a6.839 6.839 0 0 1-2.923-.654 6.699 6.699 0 0 1-2.342-1.832 6.52 6.52 0 0 1-1.292-2.646 6.424 6.424 0 0 1 .015-2.932l3.587-14.888a6.567 6.567 0 0 1 3.001-4.069 6.84 6.84 0 0 1 5.065-.804 6.707 6.707 0 0 1 4.165 2.93 6.434 6.434 0 0 1 .828 4.95l-3.587 14.888a6.55 6.55 0 0 1-2.361 3.634 6.807 6.807 0 0 1-4.156 1.423z"/><path fill="#005EFF" d="M120.279 153a9.985 9.985 0 0 1-5.829-1.885l-7.114-5.105a10.345 10.345 0 0 1-3.186-3.724 10.643 10.643 0 0 1-1.15-4.812v-15.633a12.008 12.008 0 0 1 3.387-8.369 11.426 11.426 0 0 1 8.165-3.472h10.896a11.426 11.426 0 0 1 8.165 3.472 12.008 12.008 0 0 1 3.387 8.369v15.787a10.674 10.674 0 0 1-1.097 4.697 10.392 10.392 0 0 1-3.038 3.69l-6.556 4.952a9.988 9.988 0 0 1-6.03 2.033zM125.448 211h-10.896c-3.063-.004-5.999-1.281-8.165-3.553-2.165-2.271-3.384-5.351-3.387-8.563v-15.997a11.091 11.091 0 0 1 1.15-4.923 10.53 10.53 0 0 1 3.186-3.812l7.114-5.223a9.831 9.831 0 0 1 5.953-1.928 9.846 9.846 0 0 1 5.906 2.079l6.556 5.067c1.28.993 2.32 2.286 3.038 3.777A11.127 11.127 0 0 1 137 182.73v16.154c-.003 3.212-1.222 6.292-3.387 8.563-2.166 2.272-5.102 3.549-8.165 3.553zM161.159 179h-15.633a9.954 9.954 0 0 1-4.812-1.251 10.663 10.663 0 0 1-3.724-3.467l-5.105-7.742a11.533 11.533 0 0 1-1.884-6.478 11.505 11.505 0 0 1 2.032-6.428l4.952-7.134a10.647 10.647 0 0 1 3.69-3.307 9.97 9.97 0 0 1 4.697-1.193h15.787c3.14.004 6.149 1.329 8.369 3.686 2.22 2.357 3.468 5.552 3.472 8.885v11.858c-.004 3.333-1.252 6.528-3.472 8.885-2.22 2.357-5.229 3.682-8.369 3.686zM93.474 179H77.841c-3.14-.004-6.15-1.329-8.369-3.686-2.22-2.357-3.468-5.552-3.472-8.885v-11.858c.004-3.333 1.252-6.528 3.472-8.885 2.22-2.357 5.23-3.682 8.369-3.686h15.787a9.968 9.968 0 0 1 4.697 1.193 10.644 10.644 0 0 1 3.69 3.307l4.952 7.134a11.505 11.505 0 0 1 2.032 6.428 11.533 11.533 0 0 1-1.884 6.478l-5.105 7.742a10.657 10.657 0 0 1-3.725 3.467 9.95 9.95 0 0 1-4.81 1.251z"/><path stroke="#fff" stroke-width="2" d="M109.35 154.333v-.001l-7.323-4.986a9.273 9.273 0 0 1-2.962-3.283A8.962 8.962 0 0 1 98 141.835s0 0 0 0v-15.269c.003-2.792 1.145-5.475 3.184-7.458 2.04-1.984 4.812-3.105 7.708-3.108h11.216c2.896.003 5.668 1.124 7.708 3.108 2.039 1.983 3.181 4.666 3.184 7.459v15.416a8.992 8.992 0 0 1-1.016 4.129 9.288 9.288 0 0 1-2.824 3.253l-.001.001-6.747 4.835-.001.001a9.645 9.645 0 0 1-5.623 1.798v1l-.001-1a9.661 9.661 0 0 1-5.437-1.667zM98 204.159v-15.633s0 0 0 0 0 0 0 0c0-1.514.368-3.005 1.07-4.348a9.44 9.44 0 0 1 2.965-3.368h.001l7.323-5.105h0a9.49 9.49 0 0 1 11.044.134h0l6.747 4.951h.001a9.472 9.472 0 0 1 2.828 3.338 9.416 9.416 0 0 1 1.021 4.246v15.784a10.826 10.826 0 0 1-3.193 7.661 10.927 10.927 0 0 1-7.7 3.181h-11.214a10.927 10.927 0 0 1-7.7-3.181 10.825 10.825 0 0 1-3.193-7.66zM162.737 179.71a11.074 11.074 0 0 1-7.854 3.29h-15.996s0 0 0 0a9.59 9.59 0 0 1-4.458-1.103 9.69 9.69 0 0 1-3.455-3.058s0 0 0 0l-5.223-7.532-.001-.001a9.83 9.83 0 0 1-1.749-5.72 9.815 9.815 0 0 1 1.887-5.676v-.001l5.066-6.939v-.001a9.736 9.736 0 0 1 3.424-2.917 9.616 9.616 0 0 1 4.353-1.052h16.152a11.078 11.078 0 0 1 7.854 3.29 11.303 11.303 0 0 1 3.263 7.942v11.536a11.303 11.303 0 0 1-3.263 7.942zM63.336 152.298A11.49 11.49 0 0 1 71.392 149h16.52c1.553.003 3.084.365 4.47 1.056a9.905 9.905 0 0 1 3.508 2.922s0 0 0 0l5.181 6.94v.001a9.66 9.66 0 0 1 1.928 5.667 9.657 9.657 0 0 1-1.787 5.711l-.001.001-5.341 7.532a9.864 9.864 0 0 1-3.54 3.063A10.036 10.036 0 0 1 87.752 183s0 0 0 0h-16.36a11.487 11.487 0 0 1-8.056-3.298A11.167 11.167 0 0 1 60 171.768v-11.536a11.166 11.166 0 0 1 3.336-7.934z"/><path fill="#FF7BFF" d="M500.5 136c11.322 0 20.5-8.954 20.5-20s-9.178-20-20.5-20-20.5 8.954-20.5 20 9.178 20 20.5 20zM546 183c11.046 0 20-9.402 20-21s-8.954-21-20-21-20 9.402-20 21 8.954 21 20 21zM500.5 226c11.322 0 20.5-8.73 20.5-19.5s-9.178-19.5-20.5-19.5-20.5 8.73-20.5 19.5 9.178 19.5 20.5 19.5zM455.5 182c11.322 0 20.5-9.178 20.5-20.5s-9.178-20.5-20.5-20.5-20.5 9.178-20.5 20.5 9.178 20.5 20.5 20.5z"/><path stroke="#fff" stroke-width="2" d="M441.132 106.481a6.304 6.304 0 0 1 .011-2.62h.001l3.375-15.418s0 0 0 0c.333-1.513 1.206-2.8 2.402-3.596a4.937 4.937 0 0 1 3.967-.697c1.352.343 2.545 1.255 3.299 2.565a6.233 6.233 0 0 1 .669 4.415l-3.375 15.419h-.001c-.281 1.284-.954 2.414-1.894 3.217a5.047 5.047 0 0 1-3.264 1.234 4.97 4.97 0 0 1-2.289-.564 5.435 5.435 0 0 1-1.859-1.604 6.024 6.024 0 0 1-1.042-2.351zM514 119c0 10.47-8.707 19-19.5 19s-19.5-8.53-19.5-19 8.707-19 19.5-19 19.5 8.53 19.5 19zM559 166.5c0 10.77-8.73 19.5-19.5 19.5s-19.5-8.73-19.5-19.5 8.73-19.5 19.5-19.5 19.5 8.73 19.5 19.5zM514 210.5c0 10.77-8.73 19.5-19.5 19.5s-19.5-8.73-19.5-19.5 8.73-19.5 19.5-19.5 19.5 8.73 19.5 19.5zM468 165.5c0 10.793-8.53 19.5-19 19.5s-19-8.707-19-19.5 8.53-19.5 19-19.5 19 8.707 19 19.5z"/><path fill="#000" stroke="#fff" stroke-width="2" d="M270 274c0 30.912-25.503 56-57 56s-57-25.088-57-56 25.503-56 57-56 57 25.088 57 56zM462 274c0 30.92-25.288 56-56.5 56S349 304.92 349 274s25.288-56 56.5-56 56.5 25.08 56.5 56z"/><path stroke="#fff" stroke-width="2" d="M246 265.5c0 18.515-14.788 33.5-33 33.5s-33-14.985-33-33.5 14.788-33.5 33-33.5 33 14.985 33 33.5z"/><path stroke="#fff" stroke-width="2" d="M235 265.5c0 12.447-9.87 22.5-22 22.5s-22-10.053-22-22.5 9.87-22.5 22-22.5 22 10.053 22 22.5zM441 265.5c0 18.488-15.209 33.5-34 33.5s-34-15.012-34-33.5 15.209-33.5 34-33.5 34 15.012 34 33.5z"/><path stroke="#fff" stroke-width="2" d="M429 265.5c0 12.426-10.074 22.5-22.5 22.5S384 277.926 384 265.5s10.074-22.5 22.5-22.5 22.5 10.074 22.5 22.5z"/></svg>