<svg xmlns="http://www.w3.org/2000/svg" fill="none" viewBox="0 0 618 506"><rect width="277" height="178.936" x="1" y="301.064" fill="#0D0D0D" stroke="#fff" stroke-width="2" rx="19"/><rect width="277" height="178.936" x="1" y="118" fill="#0D0D0D" stroke="#fff" stroke-width="2" rx="19"/><rect width="77.871" height="49.088" x="100.562" y="421.333" fill="#000" stroke="#fff" stroke-width="2" rx="7"/><path stroke="#fff" stroke-linecap="round" stroke-width="2" d="M100.656 458.649h77.683"/><rect width="8.941" height="3.322" x="223.109" y="319.158" stroke="#fff" stroke-width="2" rx="1.661"/><rect width="8.941" height="3.322" x="236.234" y="319.158" stroke="#fff" stroke-width="2" rx="1.661"/><rect width="8.941" height="3.322" x="249.367" y="319.158" stroke="#fff" stroke-width="2" rx="1.661"/><rect width="254" height="86" x="13" y="327" fill="#000" stroke="#fff" stroke-width="2" rx="14"/><rect width="266.059" height="155.52" x="6.469" y="135.029" fill="#000" stroke="#fff" stroke-width="2" rx="14"/><path stroke="#fff" stroke-linecap="round" stroke-width="2" d="M140.047 458.649v11.708"/><rect width="8.941" height="3.322" x="223.109" y="319.158" fill="#000" stroke="#fff" stroke-width="2" rx="1.661"/><rect width="8.941" height="3.322" x="236.234" y="319.158" fill="#000" stroke="#fff" stroke-width="2" rx="1.661"/><rect width="8.941" height="3.322" x="249.367" y="319.158" fill="#000" stroke="#fff" stroke-width="2" rx="1.661"/><path fill="#000" d="M234.141 297.936h10.941v2.129h-10.941zM31.727 297.936h10.941v2.129H31.727z"/><path stroke="#fff" stroke-linecap="round" stroke-width="2" d="M31.727 297.936v2.128M42.672 297.936v2.128M234.141 297.936v2.128M245.086 297.936v2.128"/><path fill="#000" stroke="#fff" stroke-width="2" d="M142.33 126.579c0 1.185-.995 2.193-2.282 2.193s-2.282-1.008-2.282-2.193c0-1.186.995-2.193 2.282-2.193s2.282 1.007 2.282 2.193z"/><rect width="8.941" height="4.386" x="23.32" y="333" stroke="#fff" stroke-width="2" rx="1"/><rect width="8.941" height="4.386" x="38" y="333.006" stroke="#fff" stroke-width="2" rx="1"/><rect width="8.941" height="4.386" x="53" y="333.006" stroke="#fff" stroke-width="2" rx="1"/><rect width="8.941" height="4.386" x="68" y="333.006" stroke="#fff" stroke-width="2" rx="1"/><rect width="8.941" height="4.386" x="83" y="333.006" stroke="#fff" stroke-width="2" rx="1"/><rect width="8.941" height="4.386" x="98" y="333.006" stroke="#fff" stroke-width="2" rx="1"/><rect width="8.941" height="4.386" x="113" y="333.006" stroke="#fff" stroke-width="2" rx="1"/><rect width="8.941" height="4.386" x="128" y="333.006" stroke="#fff" stroke-width="2" rx="1"/><rect width="8.941" height="4.386" x="143" y="333.006" stroke="#fff" stroke-width="2" rx="1"/><rect width="8.941" height="4.386" x="158" y="333.006" stroke="#fff" stroke-width="2" rx="1"/><rect width="8.941" height="4.386" x="173" y="333.006" stroke="#fff" stroke-width="2" rx="1"/><rect width="8.941" height="4.386" x="188" y="333.006" stroke="#fff" stroke-width="2" rx="1"/><rect width="8.941" height="4.386" x="203" y="333.006" stroke="#fff" stroke-width="2" rx="1"/><rect width="8.941" height="4.386" x="218" y="333.006" stroke="#fff" stroke-width="2" rx="1"/><rect width="8.941" height="4.386" x="233" y="333.006" stroke="#fff" stroke-width="2" rx="1"/><rect width="8.941" height="4.386" x="248" y="333.006" stroke="#fff" stroke-width="2" rx="1"/><rect width="12.223" height="8.643" x="23" y="346.006" stroke="#fff" stroke-width="2" rx="2"/><rect width="8" height="9" x="249" y="346.006" stroke="#fff" stroke-width="2" rx="2"/><rect width="7.847" height="8.643" x="235" y="362.006" stroke="#fff" stroke-width="2" rx="2"/><rect width="7.847" height="8.643" x="236" y="380.006" stroke="#fff" stroke-width="2" rx="2"/><rect width="7.847" height="8.643" x="236" y="346.006" stroke="#fff" stroke-width="2" rx="2"/><rect width="7.847" height="8.643" x="222" y="362.006" stroke="#fff" stroke-width="2" rx="2"/><rect width="7.847" height="8.643" x="222" y="380.006" stroke="#fff" stroke-width="2" rx="2"/><rect width="7.847" height="8.643" x="210" y="346.006" stroke="#fff" stroke-width="2" rx="2"/><rect width="7.847" height="8.643" x="209" y="362.006" stroke="#fff" stroke-width="2" rx="2"/><rect width="7.847" height="8.643" x="209" y="380.006" stroke="#fff" stroke-width="2" rx="2"/><rect width="8.941" height="8.643" x="195" y="380.006" stroke="#fff" stroke-width="2" rx="2"/><rect width="8.941" height="8.643" x="51" y="380.006" stroke="#fff" stroke-width="2" rx="2"/><rect width="8.941" height="8.643" x="67" y="380.006" stroke="#fff" stroke-width="2" rx="2"/><rect width="8.941" height="8.643" x="82" y="380.006" stroke="#fff" stroke-width="2" rx="2"/><rect width="8.941" height="8.643" x="97" y="380.006" stroke="#fff" stroke-width="2" rx="2"/><rect width="8.941" height="8.643" x="112" y="380.006" stroke="#fff" stroke-width="2" rx="2"/><rect width="8.941" height="8.643" x="127" y="380.006" stroke="#fff" stroke-width="2" rx="2"/><rect width="8.941" height="8.643" x="142" y="380.006" stroke="#fff" stroke-width="2" rx="2"/><rect width="8.941" height="8.643" x="157" y="380.006" stroke="#fff" stroke-width="2" rx="2"/><rect width="8.941" height="8.643" x="47" y="362.006" stroke="#fff" stroke-width="2" rx="2"/><rect width="8.941" height="8.643" x="62" y="362.006" stroke="#fff" stroke-width="2" rx="2"/><rect width="8.941" height="8.643" x="77" y="362.006" stroke="#fff" stroke-width="2" rx="2"/><rect width="8.941" height="8.643" x="92" y="362.006" stroke="#fff" stroke-width="2" rx="2"/><rect width="8.941" height="8.643" x="107" y="362.006" stroke="#fff" stroke-width="2" rx="2"/><rect width="8.941" height="8.643" x="122" y="362.006" stroke="#fff" stroke-width="2" rx="2"/><rect width="8.941" height="8.643" x="137" y="362.006" stroke="#fff" stroke-width="2" rx="2"/><rect width="8.941" height="8.643" x="152" y="362.006" stroke="#fff" stroke-width="2" rx="2"/><rect width="8.941" height="8.643" x="167" y="362.006" stroke="#fff" stroke-width="2" rx="2"/><rect width="8.941" height="8.643" x="41" y="346.006" stroke="#fff" stroke-width="2" rx="2"/><rect width="8.941" height="8.643" x="56" y="346.006" stroke="#fff" stroke-width="2" rx="2"/><rect width="8.941" height="8.643" x="71" y="346.006" stroke="#fff" stroke-width="2" rx="2"/><rect width="8.941" height="8.643" x="86" y="346.006" stroke="#fff" stroke-width="2" rx="2"/><rect width="8.941" height="8.643" x="101" y="346.006" stroke="#fff" stroke-width="2" rx="2"/><rect width="8.941" height="8.643" x="116" y="346.006" stroke="#fff" stroke-width="2" rx="2"/><rect width="8.941" height="8.643" x="131" y="346.006" stroke="#fff" stroke-width="2" rx="2"/><rect width="8.941" height="8.643" x="146" y="346.006" stroke="#fff" stroke-width="2" rx="2"/><rect width="8.941" height="8.643" x="161" y="346.006" stroke="#fff" stroke-width="2" rx="2"/><rect width="8.941" height="8.643" x="176" y="346.006" stroke="#fff" stroke-width="2" rx="2"/><rect width="8.941" height="8.643" x="209" y="398.006" stroke="#fff" stroke-width="2" rx="2"/><rect width="8.941" height="8.643" x="222" y="398.006" stroke="#fff" stroke-width="2" rx="2"/><rect width="8.941" height="8.643" x="195" y="398.006" stroke="#fff" stroke-width="2" rx="2"/><rect width="8.941" height="8.643" x="181" y="398.006" stroke="#fff" stroke-width="2" rx="2"/><rect width="8.941" height="8.643" x="46.297" y="397.924" stroke="#fff" stroke-width="2" rx="2"/><rect width="8.941" height="8.643" x="60.516" y="397.924" stroke="#fff" stroke-width="2" rx="2"/><rect width="8.941" height="8.643" x="167" y="398.006" stroke="#fff" stroke-width="2" rx="2"/><rect width="8.941" height="8.643" x="153" y="398.006" stroke="#fff" stroke-width="2" rx="2"/><rect width="7.847" height="8.643" x="236" y="398.006" stroke="#fff" stroke-width="2" rx="2"/><rect width="7.847" height="8.643" x="223" y="346.006" stroke="#fff" stroke-width="2" rx="2"/><rect width="8" height="9" x="249" y="362.006" stroke="#fff" stroke-width="2" rx="2"/><rect width="8" height="26" x="249" y="380.006" stroke="#fff" stroke-width="2" rx="2"/><rect width="14.412" height="8.643" x="191" y="346.006" stroke="#fff" stroke-width="2" rx="2"/><rect width="17.694" height="8.643" x="23" y="362.006" stroke="#fff" stroke-width="2" rx="2"/><rect width="17.694" height="8.643" x="172" y="380.006" stroke="#fff" stroke-width="2" rx="2"/><rect width="73" height="9" x="75" y="398.006" stroke="#fff" stroke-width="2" rx="2"/><rect width="17.694" height="8.643" x="23" y="398.006" stroke="#fff" stroke-width="2" rx="2"/><rect width="22.071" height="8.643" x="23" y="380.006" stroke="#fff" stroke-width="2" rx="2"/><rect width="22.071" height="8.643" x="182" y="362.006" stroke="#fff" stroke-width="2" rx="2"/><path stroke="#fff" stroke-width="2" d="M462 400h-23.203c-2.747 0-4.049-3.385-2.011-5.226l38.703-34.958a3.002 3.002 0 0 1 4.022 0l38.703 34.958c2.038 1.841.736 5.226-2.011 5.226H494"/><rect width="277" height="178.936" x="617" y="182.936" fill="#0D0D0D" stroke="#fff" stroke-width="2" rx="19" transform="rotate(-180 617 182.936)"/><rect width="277" height="178.936" x="617" y="366" fill="#0D0D0D" stroke="#fff" stroke-width="2" rx="19" transform="rotate(-180 617 366)"/><rect width="77.871" height="49.088" x="517.438" y="62.667" fill="#000" stroke="#fff" stroke-width="2" rx="7" transform="rotate(-180 517.438 62.667)"/><path stroke="#fff" stroke-linecap="round" stroke-width="2" d="M517.344 25.35h-77.683"/><rect width="8.941" height="3.322" x="394.891" y="164.842" stroke="#fff" stroke-width="2" rx="1.661" transform="rotate(-180 394.891 164.842)"/><rect width="8.941" height="3.322" x="381.766" y="164.842" stroke="#fff" stroke-width="2" rx="1.661" transform="rotate(-180 381.766 164.842)"/><rect width="8.941" height="3.322" x="368.633" y="164.842" stroke="#fff" stroke-width="2" rx="1.661" transform="rotate(-180 368.633 164.842)"/><rect width="254" height="86" x="605" y="157" fill="#000" stroke="#fff" stroke-width="2" rx="14" transform="rotate(-180 605 157)"/><rect width="266.059" height="155.52" x="611.531" y="348.971" fill="#000" stroke="#fff" stroke-width="2" rx="14" transform="rotate(-180 611.531 348.971)"/><path stroke="#fff" stroke-linecap="round" stroke-width="2" d="M477.953 25.35V13.644"/><rect width="8.941" height="3.322" x="394.891" y="164.842" fill="#000" stroke="#fff" stroke-width="2" rx="1.661" transform="rotate(-180 394.891 164.842)"/><rect width="8.941" height="3.322" x="381.766" y="164.842" fill="#000" stroke="#fff" stroke-width="2" rx="1.661" transform="rotate(-180 381.766 164.842)"/><rect width="8.941" height="3.322" x="368.633" y="164.842" fill="#000" stroke="#fff" stroke-width="2" rx="1.661" transform="rotate(-180 368.633 164.842)"/><path fill="#000" d="M383.859 186.064h-10.941v-2.129h10.941zM586.273 186.064h-10.941v-2.129h10.941z"/><path stroke="#fff" stroke-linecap="round" stroke-width="2" d="M586.273 186.064v-2.128M575.328 186.064v-2.128M383.859 186.064v-2.128M372.914 186.064v-2.128"/><path fill="#000" stroke="#fff" stroke-width="2" d="M475.67 357.421c0-1.185.995-2.193 2.282-2.193s2.282 1.008 2.282 2.193c0 1.186-.995 2.193-2.282 2.193s-2.282-1.007-2.282-2.193z"/><rect width="8.941" height="4.386" x="594.68" y="151" stroke="#fff" stroke-width="2" rx="1" transform="rotate(-180 594.68 151)"/><rect width="8.941" height="4.386" x="580" y="150.994" stroke="#fff" stroke-width="2" rx="1" transform="rotate(-180 580 150.994)"/><rect width="8.941" height="4.386" x="565" y="150.994" stroke="#fff" stroke-width="2" rx="1" transform="rotate(-180 565 150.994)"/><rect width="8.941" height="4.386" x="550" y="150.994" stroke="#fff" stroke-width="2" rx="1" transform="rotate(-180 550 150.994)"/><rect width="8.941" height="4.386" x="535" y="150.994" stroke="#fff" stroke-width="2" rx="1" transform="rotate(-180 535 150.994)"/><rect width="8.941" height="4.386" x="520" y="150.994" stroke="#fff" stroke-width="2" rx="1" transform="rotate(-180 520 150.994)"/><rect width="8.941" height="4.386" x="505" y="150.994" stroke="#fff" stroke-width="2" rx="1" transform="rotate(-180 505 150.994)"/><rect width="8.941" height="4.386" x="490" y="150.994" stroke="#fff" stroke-width="2" rx="1" transform="rotate(-180 490 150.994)"/><rect width="8.941" height="4.386" x="475" y="150.994" stroke="#fff" stroke-width="2" rx="1" transform="rotate(-180 475 150.994)"/><rect width="8.941" height="4.386" x="460" y="150.994" stroke="#fff" stroke-width="2" rx="1" transform="rotate(-180 460 150.994)"/><rect width="8.941" height="4.386" x="445" y="150.994" stroke="#fff" stroke-width="2" rx="1" transform="rotate(-180 445 150.994)"/><rect width="8.941" height="4.386" x="430" y="150.994" stroke="#fff" stroke-width="2" rx="1" transform="rotate(-180 430 150.994)"/><rect width="8.941" height="4.386" x="415" y="150.994" stroke="#fff" stroke-width="2" rx="1" transform="rotate(-180 415 150.994)"/><rect width="8.941" height="4.386" x="400" y="150.994" stroke="#fff" stroke-width="2" rx="1" transform="rotate(-180 400 150.994)"/><rect width="8.941" height="4.386" x="385" y="150.994" stroke="#fff" stroke-width="2" rx="1" transform="rotate(-180 385 150.994)"/><rect width="8.941" height="4.386" x="370" y="150.994" stroke="#fff" stroke-width="2" rx="1" transform="rotate(-180 370 150.994)"/><rect width="12.223" height="8.643" x="595" y="137.994" stroke="#fff" stroke-width="2" rx="2" transform="rotate(-180 595 137.994)"/><rect width="8" height="9" x="369" y="137.994" stroke="#fff" stroke-width="2" rx="2" transform="rotate(-180 369 137.994)"/><rect width="7.847" height="8.643" x="383" y="121.994" stroke="#fff" stroke-width="2" rx="2" transform="rotate(-180 383 121.994)"/><rect width="7.847" height="8.643" x="382" y="103.994" stroke="#fff" stroke-width="2" rx="2" transform="rotate(-180 382 103.994)"/><rect width="7.847" height="8.643" x="382" y="137.994" stroke="#fff" stroke-width="2" rx="2" transform="rotate(-180 382 137.994)"/><rect width="7.847" height="8.643" x="396" y="121.994" stroke="#fff" stroke-width="2" rx="2" transform="rotate(-180 396 121.994)"/><rect width="7.847" height="8.643" x="396" y="103.994" stroke="#fff" stroke-width="2" rx="2" transform="rotate(-180 396 103.994)"/><rect width="7.847" height="8.643" x="408" y="137.994" stroke="#fff" stroke-width="2" rx="2" transform="rotate(-180 408 137.994)"/><rect width="7.847" height="8.643" x="409" y="121.994" stroke="#fff" stroke-width="2" rx="2" transform="rotate(-180 409 121.994)"/><rect width="7.847" height="8.643" x="409" y="103.994" stroke="#fff" stroke-width="2" rx="2" transform="rotate(-180 409 103.994)"/><rect width="8.941" height="8.643" x="423" y="103.994" stroke="#fff" stroke-width="2" rx="2" transform="rotate(-180 423 103.994)"/><rect width="8.941" height="8.643" x="567" y="103.994" stroke="#fff" stroke-width="2" rx="2" transform="rotate(-180 567 103.994)"/><rect width="8.941" height="8.643" x="551" y="103.994" stroke="#fff" stroke-width="2" rx="2" transform="rotate(-180 551 103.994)"/><rect width="8.941" height="8.643" x="536" y="103.994" stroke="#fff" stroke-width="2" rx="2" transform="rotate(-180 536 103.994)"/><rect width="8.941" height="8.643" x="521" y="103.994" stroke="#fff" stroke-width="2" rx="2" transform="rotate(-180 521 103.994)"/><rect width="8.941" height="8.643" x="506" y="103.994" stroke="#fff" stroke-width="2" rx="2" transform="rotate(-180 506 103.994)"/><rect width="8.941" height="8.643" x="491" y="103.994" stroke="#fff" stroke-width="2" rx="2" transform="rotate(-180 491 103.994)"/><rect width="8.941" height="8.643" x="476" y="103.994" stroke="#fff" stroke-width="2" rx="2" transform="rotate(-180 476 103.994)"/><rect width="8.941" height="8.643" x="461" y="103.994" stroke="#fff" stroke-width="2" rx="2" transform="rotate(-180 461 103.994)"/><rect width="8.941" height="8.643" x="571" y="121.994" stroke="#fff" stroke-width="2" rx="2" transform="rotate(-180 571 121.994)"/><rect width="8.941" height="8.643" x="556" y="121.994" stroke="#fff" stroke-width="2" rx="2" transform="rotate(-180 556 121.994)"/><rect width="8.941" height="8.643" x="541" y="121.994" stroke="#fff" stroke-width="2" rx="2" transform="rotate(-180 541 121.994)"/><rect width="8.941" height="8.643" x="526" y="121.994" stroke="#fff" stroke-width="2" rx="2" transform="rotate(-180 526 121.994)"/><rect width="8.941" height="8.643" x="511" y="121.994" stroke="#fff" stroke-width="2" rx="2" transform="rotate(-180 511 121.994)"/><rect width="8.941" height="8.643" x="496" y="121.994" stroke="#fff" stroke-width="2" rx="2" transform="rotate(-180 496 121.994)"/><rect width="8.941" height="8.643" x="481" y="121.994" stroke="#fff" stroke-width="2" rx="2" transform="rotate(-180 481 121.994)"/><rect width="8.941" height="8.643" x="466" y="121.994" stroke="#fff" stroke-width="2" rx="2" transform="rotate(-180 466 121.994)"/><rect width="8.941" height="8.643" x="451" y="121.994" stroke="#fff" stroke-width="2" rx="2" transform="rotate(-180 451 121.994)"/><rect width="8.941" height="8.643" x="577" y="137.994" stroke="#fff" stroke-width="2" rx="2" transform="rotate(-180 577 137.994)"/><rect width="8.941" height="8.643" x="562" y="137.994" stroke="#fff" stroke-width="2" rx="2" transform="rotate(-180 562 137.994)"/><rect width="8.941" height="8.643" x="547" y="137.994" stroke="#fff" stroke-width="2" rx="2" transform="rotate(-180 547 137.994)"/><rect width="8.941" height="8.643" x="532" y="137.994" stroke="#fff" stroke-width="2" rx="2" transform="rotate(-180 532 137.994)"/><rect width="8.941" height="8.643" x="517" y="137.994" stroke="#fff" stroke-width="2" rx="2" transform="rotate(-180 517 137.994)"/><rect width="8.941" height="8.643" x="502" y="137.994" stroke="#fff" stroke-width="2" rx="2" transform="rotate(-180 502 137.994)"/><rect width="8.941" height="8.643" x="487" y="137.994" stroke="#fff" stroke-width="2" rx="2" transform="rotate(-180 487 137.994)"/><rect width="8.941" height="8.643" x="472" y="137.994" stroke="#fff" stroke-width="2" rx="2" transform="rotate(-180 472 137.994)"/><rect width="8.941" height="8.643" x="457" y="137.994" stroke="#fff" stroke-width="2" rx="2" transform="rotate(-180 457 137.994)"/><rect width="8.941" height="8.643" x="442" y="137.994" stroke="#fff" stroke-width="2" rx="2" transform="rotate(-180 442 137.994)"/><rect width="8.941" height="8.643" x="409" y="85.994" stroke="#fff" stroke-width="2" rx="2" transform="rotate(-180 409 85.994)"/><rect width="8.941" height="8.643" x="396" y="85.994" stroke="#fff" stroke-width="2" rx="2" transform="rotate(-180 396 85.994)"/><rect width="8.941" height="8.643" x="423" y="85.994" stroke="#fff" stroke-width="2" rx="2" transform="rotate(-180 423 85.994)"/><rect width="8.941" height="8.643" x="437" y="85.994" stroke="#fff" stroke-width="2" rx="2" transform="rotate(-180 437 85.994)"/><rect width="8.941" height="8.643" x="571.703" y="86.076" stroke="#fff" stroke-width="2" rx="2" transform="rotate(-180 571.703 86.076)"/><rect width="8.941" height="8.643" x="557.484" y="86.076" stroke="#fff" stroke-width="2" rx="2" transform="rotate(-180 557.484 86.076)"/><rect width="8.941" height="8.643" x="451" y="85.994" stroke="#fff" stroke-width="2" rx="2" transform="rotate(-180 451 85.994)"/><rect width="8.941" height="8.643" x="465" y="85.994" stroke="#fff" stroke-width="2" rx="2" transform="rotate(-180 465 85.994)"/><rect width="7.847" height="8.643" x="382" y="85.994" stroke="#fff" stroke-width="2" rx="2" transform="rotate(-180 382 85.994)"/><rect width="7.847" height="8.643" x="395" y="137.994" stroke="#fff" stroke-width="2" rx="2" transform="rotate(-180 395 137.994)"/><rect width="8" height="9" x="369" y="121.994" stroke="#fff" stroke-width="2" rx="2" transform="rotate(-180 369 121.994)"/><rect width="8" height="26" x="369" y="103.994" stroke="#fff" stroke-width="2" rx="2" transform="rotate(-180 369 103.994)"/><rect width="14.412" height="8.643" x="427" y="137.994" stroke="#fff" stroke-width="2" rx="2" transform="rotate(-180 427 137.994)"/><rect width="17.694" height="8.643" x="595" y="121.994" stroke="#fff" stroke-width="2" rx="2" transform="rotate(-180 595 121.994)"/><rect width="17.694" height="8.643" x="446" y="103.994" stroke="#fff" stroke-width="2" rx="2" transform="rotate(-180 446 103.994)"/><rect width="73" height="9" x="543" y="85.994" stroke="#fff" stroke-width="2" rx="2" transform="rotate(-180 543 85.994)"/><rect width="17.694" height="8.643" x="595" y="85.994" stroke="#fff" stroke-width="2" rx="2" transform="rotate(-180 595 85.994)"/><rect width="22.071" height="8.643" x="595" y="103.994" stroke="#fff" stroke-width="2" rx="2" transform="rotate(-180 595 103.994)"/><rect width="22.071" height="8.643" x="436" y="121.994" stroke="#fff" stroke-width="2" rx="2" transform="rotate(-180 436 121.994)"/><path stroke="#fff" stroke-linecap="round" stroke-width="2" d="M156 117.5V98c0-22.091 17.909-40 40-40h55.458c22.091 0 40 17.909 40 40v312c0 38.66 31.34 70 70 70H425c38.66 0 70-31.34 70-70v-10"/><path stroke="#fff" stroke-linecap="round" stroke-width="2" d="M461 400v8c0 22.091-17.909 40-40 40h-58c-22.091 0-40-17.909-40-40V96c0-38.66-31.34-70-70-70h-59c-38.66 0-70 31.34-70 70v22"/><path fill="#FF7BFF" d="M498.54 307.089c-4.758-2.023-10.383-9.013-10.383-9.013s-5.625 6.99-10.383 9.013c-5.709 2.427-9.946 2.669-15.574 0-10.978-5.209-14.845-20.295-10.383-33.045 5.409-15.453 36.34-33.044 36.34-33.044s31.284 15.407 36.339 33.044c3.736 13.033.596 27.836-10.382 33.045-5.628 2.669-9.865 2.427-15.574 0z"/><path stroke="#fff" stroke-width="2" d="M506.54 309.089c-4.758-2.023-10.383-9.013-10.383-9.013s-5.625 6.99-10.383 9.013c-5.709 2.427-9.946 2.669-15.574 0-10.978-5.209-14.845-20.295-10.383-33.045 5.409-15.453 36.34-33.044 36.34-33.044s31.284 15.407 36.339 33.044c3.736 13.033.596 27.836-10.382 33.045-5.628 2.669-9.865 2.427-15.574 0z"/><path fill="#005EFF" d="M115.588 205.984l19.912-19.86L155.42 206 167 194.438 135.5 163 104 194.43l11.588 11.554zM85 213.729l11.412-11.432 11.411 11.432-11.411 11.433L85 213.729zM115.6 222.008l19.904 19.409L155.417 222 167 233.279l-.008.008L135.504 264l-31.488-30.697-.016-.016 11.6-11.279zM163.18 213.732l11.411-11.432 11.412 11.432-11.412 11.433-11.411-11.433z"/><path fill="#005EFF" d="M146.992 213.496L135.504 202l-8.495 8.495-.982.974-2.011 2.011-.016.016.016.024L135.504 225l11.488-11.496.008-.008h-.008z"/><path stroke="#fff" stroke-width="2" d="M113.416 192.43l30.084-30.017 30.085 30.025-10.165 10.149-19.214-19.171-.706-.704-.706.704-19.206 19.156-10.172-10.142zM94.413 211.729l9.998-10.017 9.999 10.017-9.999 10.018-9.998-10.018zM163.417 221.396l10.15 9.884-30.063 29.323-30.071-29.315 10.166-9.884 19.207 18.729.698.681.698-.681 19.215-18.737zM172.593 211.732l9.998-10.017 9.999 10.017-9.999 10.018-9.998-10.018z"/><path stroke="#fff" stroke-width="2" d="M153.582 211.5l-10.079 10.086L133.41 211.5l1.321-1.321.003-.003.979-.971h0l.003-.003 7.788-7.788 10.078 10.086z"/></svg>