<svg xmlns="http://www.w3.org/2000/svg" fill="none" viewBox="0 0 618 506"><g clip-path="url(#clip0_381_284)"><path fill="#005EFF" fill-rule="evenodd" d="M615.006-.001l-43.56 28.329 14.827 7.543-90.671 176.896-65.783-70.477c-4.84-5.186-13.099-5.063-17.784.264l-198.883 226.2-108.239-111.909c-6.161-6.37-16.864-4.094-19.9 4.232l9.395 3.425-9.395-3.425L.608 492.574c-1.892 5.189.78 10.929 5.97 12.821 5.188 1.892 10.928-.781 12.82-5.97l80.026-219.487 105.383 108.955c4.873 5.038 13.009 4.845 17.638-.419l198.779-226.082 67.53 72.349c5.673 6.078 15.659 4.684 19.451-2.714l-4.904-2.514 4.904 2.513 95.894-187.087 13.66 6.949-2.753-51.889z" clip-rule="evenodd"/><mask id="a" fill="#fff"><path fill-rule="evenodd" d="M604.007 0l-43.56 28.329 14.808 7.533-90.678 176.01-65.797-69.644c-4.852-5.136-13.069-4.989-17.735.317L202.154 368.754 93.919 256.85c-6.168-6.377-16.884-4.087-19.907 4.253L.6 463.591c-1.882 5.193.8 10.928 5.993 12.81 5.192 1.882 10.927-.801 12.81-5.993l69.044-190.446L193.81 388.894c4.873 5.038 13.009 4.845 17.637-.419L410.27 162.343l67.524 71.472c5.681 6.014 15.601 4.61 19.39-2.745l95.897-186.14 13.68 6.959L604.007 0z" clip-rule="evenodd"/></mask><path fill="#fff" d="M560.447 28.329l-1.09-1.677-2.904 1.889 3.087 1.57.907-1.782zM604.007 0l1.997-.106-.183-3.46-2.904 1.89L604.007 0zm-28.752 35.862l1.778.916.921-1.788-1.792-.911-.907 1.783zm-90.678 176.01l-1.454 1.373 1.939 2.052 1.293-2.509-1.778-.916zm-65.797-69.644l1.454-1.374-1.454 1.374zm-17.735.317l-1.502-1.32 1.502 1.32zM202.154 368.754l-1.438 1.391 1.508 1.559 1.432-1.629-1.502-1.321zM93.919 256.85l1.437-1.39-1.437 1.39zm-19.907 4.253l1.88.682-1.88-.682zM.6 463.591l-1.88-.681 1.88.681zm5.993 12.81l-.682 1.88.682-1.88zm12.81-5.993l-1.88-.682 1.88.682zm69.044-190.446l1.438-1.39-2.227-2.302-1.091 3.01 1.88.682zM193.81 388.894l-1.438 1.39 1.438-1.39zm17.637-.419l1.502 1.32-1.502-1.32zM410.27 162.343l1.454-1.374-1.507-1.595-1.449 1.648 1.502 1.321zm67.524 71.472l1.454-1.373h-.001l-1.453 1.373zm19.39-2.745l-1.778-.916 1.778.916zm95.897-186.14l.907-1.783-1.773-.902-.912 1.769 1.778.916zm13.68 6.959l-.907 1.782 3.088 1.57-.184-3.459-1.997.107zm-45.223-21.883l43.56-28.33-2.181-3.353-43.56 28.33 2.181 3.353zm14.624 4.073l-14.808-7.533-1.814 3.566 14.808 7.532 1.814-3.565zm-89.807 178.709l90.678-176.01-3.556-1.832-90.678 176.01 3.556 1.832zm-69.029-69.187l65.797 69.644 2.907-2.747-65.796-69.644-2.908 2.747zm-14.779.265c3.888-4.422 10.736-4.544 14.779-.265l2.908-2.747c-5.661-5.991-15.247-5.82-20.691.371l3.004 2.641zM203.656 370.075l198.891-226.209-3.004-2.641-198.891 226.209 3.004 2.641zM92.481 258.241l108.235 111.904 2.875-2.781L95.356 255.46l-2.875 2.781zm-16.59 3.544c2.52-6.951 11.45-8.858 16.59-3.544l2.875-2.781c-7.195-7.44-19.697-4.769-23.225 4.961l3.76 1.364zM2.482 464.273l73.41-202.488-3.76-1.364-73.41 202.489 3.76 1.363zm4.795 10.248a8 8 0 0 1-4.795-10.248l-3.76-1.363c-2.26 6.23.96 13.112 7.191 15.371l1.364-3.76zm10.247-4.795a8 8 0 0 1-10.247 4.795l-1.364 3.76c6.23 2.259 13.113-.961 15.372-7.191l-3.76-1.364zM86.568 279.28L17.523 469.726l3.76 1.364L90.33 280.644l-3.761-1.364zm108.678 108.223L89.886 278.572l-2.875 2.78 105.36 108.932 2.875-2.781zm14.698-.349c-3.857 4.387-10.637 4.548-14.698.349l-2.875 2.781c5.685 5.878 15.177 5.653 20.577-.489l-3.004-2.641zm198.824-226.132L209.944 387.154l3.004 2.641 198.824-226.132-3.004-2.641zm70.479 71.42l-67.523-71.473-2.908 2.747 67.524 71.473 2.907-2.747zm16.159-2.288c-3.157 6.129-11.424 7.299-16.158 2.288l-2.908 2.747c6.628 7.016 18.202 5.377 22.622-3.203l-3.556-1.832zm95.897-186.14l-95.897 186.14 3.556 1.832 95.897-186.14-3.556-1.832zm16.365 6.092l-13.68-6.959-1.813 3.565 13.679 6.96 1.814-3.566zm-5.658-50l2.754 51.889 3.994-.212-2.754-51.889-3.994.212z" mask="url(#a)"/><rect width="302" height="504" x="158" y="1" fill="#000" stroke="#fff" stroke-width="2" rx="39"/><rect width="294" height="494" x="162" y="6" fill="#0D0D0D" stroke="#fff" stroke-width="2" rx="34"/><path stroke="#fff" stroke-width="2" d="M155 74h2v32h-2a2 2 0 0 1-2-2V76a2 2 0 0 1 2-2zM463 114h-2V71h2a2 2 0 0 1 2 2v39a2 2 0 0 1-2 2zM155 114h2v33h-2a2 2 0 0 1-2-2v-29a2 2 0 0 1 2-2z"/><path fill="#000" stroke="#fff" stroke-width="2" d="M162 43h294v421H162z"/><rect width="160" height="49" x="229" y="393" fill="#FF7BFF" stroke="#fff" stroke-width="2" rx="9"/><path stroke="#fff" stroke-width="2" d="M401 186.5c0 51.091-41.195 92.5-92 92.5s-92-41.409-92-92.5S258.195 94 309 94s92 41.409 92 92.5z"/><path fill="#000" stroke="#fff" stroke-width="2" d="M393 186c0 45.829-37.597 83-84 83s-84-37.171-84-83 37.597-83 84-83 84 37.171 84 83z"/><path fill="#FF7BFF" d="M308.65 193.301h29.889c.638 0 .938 0 .985-.835a57.192 57.192 0 0 0 0-9.143c0-.591-.294-.835-.935-.835h-59.485c-.736 0-.935.244-.935.934v8.75c0 1.129 0 1.129 1.179 1.129h29.302zm27.536-21.04a.965.965 0 0 0 0-.686 19.583 19.583 0 0 0-1.777-3.098 25.145 25.145 0 0 0-3.639-4.573 12.058 12.058 0 0 0-2.262-2.212 35.337 35.337 0 0 0-14.75-7.473 36.65 36.65 0 0 0-8.358-.885h-26.399c-.736 0-.835.294-.835.935v17.451c0 .736 0 .934.934.934h56.732s.492-.099.591-.393h-.241.004zm0 31.267a11.484 11.484 0 0 0-2.514 0h-54.519c-.736 0-.984 0-.984.984v17.061c0 .786 0 .984.984.984h25.171c1.204.092 2.407.007 3.586-.244a37.473 37.473 0 0 0 10.672-2.361 19.544 19.544 0 0 0 3.586-1.671h.344a31.943 31.943 0 0 0 13.716-13.808s.343-.744-.042-.938v-.007zm-67.896 27.875V204.218c0-.641 0-.736-.786-.736h-10.669c-.591 0-.835 0-.835-.786v-9.342h11.405c.637 0 .885 0 .885-.835v-9.242c0-.591 0-.736-.786-.736h-10.669c-.591 0-.835 0-.835-.786v-8.651c0-.542 0-.687.786-.687h10.569c.737 0 .935 0 .935-.935v-26.498c0-.786 0-.984.984-.984h36.87c2.676.106 5.334.4 7.964.885a48.057 48.057 0 0 1 15.387 5.702 43.393 43.393 0 0 1 8.652 6.687 47.473 47.473 0 0 1 5.26 6.538 39.491 39.491 0 0 1 3.84 7.522 1.28 1.28 0 0 0 1.469 1.033h8.8c1.129 0 1.129 0 1.179 1.084v8.063c0 .786-.294.984-1.083.984h-6.786c-.687 0-.885 0-.835.885.269 2.995.269 6 0 8.995 0 .835-.001.934.938.934h7.762c.343.442 0 .885 0 1.331.05.57.05 1.147 0 1.717v5.95c0 .835-.244 1.083-.984 1.083h-9.292a1.23 1.23 0 0 0-1.426.935 39.32 39.32 0 0 1-10.326 15.044 59.08 59.08 0 0 1-5.26 4.226c-1.968 1.133-3.883 2.311-5.9 3.246a53.19 53.19 0 0 1-11.604 3.685 60.544 60.544 0 0 1-11.504.934h-34.119v-.049l.014-.011z"/><path stroke="#fff" stroke-width="2" d="M312.65 189.301h29.889c.638 0 .938 0 .985-.835a57.192 57.192 0 0 0 0-9.143c0-.591-.294-.835-.935-.835h-59.485c-.736 0-.935.244-.935.934v8.75c0 1.129 0 1.129 1.179 1.129h29.302zm27.536 10.227a11.484 11.484 0 0 0-2.514 0h-54.519c-.736 0-.984 0-.984.984v17.061c0 .786 0 .984.984.984h25.171c1.204.092 2.407.007 3.586-.244a37.473 37.473 0 0 0 10.672-2.361 19.544 19.544 0 0 0 3.586-1.671h.344a31.943 31.943 0 0 0 13.716-13.808s.343-.744-.042-.938v-.007zm-67.896 27.875V200.218c0-.641 0-.736-.786-.736h-10.669c-.591 0-.835 0-.835-.786v-9.342h11.405c.637 0 .885 0 .885-.835v-9.242c0-.591 0-.736-.786-.736h-10.669c-.591 0-.835 0-.835-.786v-8.651c0-.542 0-.687.786-.687h10.569c.737 0 .935 0 .935-.935v-26.498c0-.786 0-.984.984-.984h36.87c2.676.106 5.334.4 7.964.885a48.057 48.057 0 0 1 15.387 5.702 43.393 43.393 0 0 1 8.652 6.687 47.473 47.473 0 0 1 5.26 6.538 39.491 39.491 0 0 1 3.84 7.522 1.28 1.28 0 0 0 1.469 1.033h8.8c1.129 0 1.129 0 1.179 1.084v8.063c0 .786-.294.984-1.083.984h-6.786c-.687 0-.885 0-.835.885.269 2.995.269 6 0 8.995 0 .835-.001.934.938.934h7.762c.344.442 0 .885 0 1.331.05.57.05 1.147 0 1.717v5.95c0 .835-.244 1.083-.984 1.083h-9.292a1.23 1.23 0 0 0-1.426.935 39.308 39.308 0 0 1-10.326 15.043 58.913 58.913 0 0 1-5.26 4.227c-1.968 1.133-3.883 2.311-5.9 3.246a53.19 53.19 0 0 1-11.604 3.685 60.544 60.544 0 0 1-11.504.934h-34.119v-.049l.014-.011z"/></g><defs><clipPath id="clip0_381_284"><path fill="#fff" d="M0 0h618v506H0z"/></clipPath></defs></svg>