<svg width="763" height="112" viewBox="0 0 763 112" fill="none" xmlns="http://www.w3.org/2000/svg">
<path d="M256.855 60.3904L288.045 24.7021V99.6548L256.855 60.3904Z" fill="white"/>
<path d="M204.012 46.8968H249.157L279.045 12H204.012V46.8968Z" fill="white"/>
<path d="M204.012 60.3081L204 99.5981L237.662 60.3081H204.012Z" fill="white"/>
<path d="M325.756 46.4016H316.016L330.917 12.6763H340.32L355.271 46.4016H345.336H325.756ZM345.336 46.4016L335.547 22.0222L325.758 46.4016H345.338H345.336Z" fill="white"/>
<path d="M373.26 20.0464V27.465H388.161V34.8375H373.26V46.4016H363.711V12.6763H390.187V20.0487H373.26V20.0464Z" fill="white"/>
<path d="M409.955 20.0464V27.465H424.857V34.8375H409.955V46.4016H400.406V12.6763H426.883V20.0487H409.955V20.0464Z" fill="white"/>
<path d="M444.219 44.8113C441.373 43.3017 439.139 41.2151 437.517 38.5468C435.893 35.8808 435.082 32.8778 435.082 29.5378C435.082 26.1978 435.893 23.1949 437.517 20.5289C439.141 17.8629 441.375 15.7763 444.219 14.2644C447.066 12.7548 450.273 12 453.84 12C457.407 12 460.616 12.7548 463.46 14.2644C466.306 15.7739 468.54 17.8629 470.162 20.5289C471.784 23.1949 472.597 26.1978 472.597 29.5378C472.597 32.8778 471.784 35.8808 470.162 38.5468C468.538 41.2128 466.304 43.3017 463.46 44.8113C460.614 46.3209 457.407 47.0757 453.84 47.0757C450.273 47.0757 447.063 46.3209 444.219 44.8113ZM458.47 37.9698C459.851 37.1665 460.944 36.0355 461.748 34.5721C462.552 33.111 462.954 31.4329 462.954 29.5378C462.954 27.6428 462.552 25.9647 461.748 24.5036C460.944 23.0425 459.851 21.9092 458.47 21.1059C457.086 20.3027 455.545 19.901 453.84 19.901C452.135 19.901 450.591 20.3027 449.21 21.1059C447.828 21.9092 446.733 23.0425 445.931 24.5036C445.127 25.9647 444.725 27.6428 444.725 29.5378C444.725 31.4329 445.127 33.111 445.931 34.5721C446.735 36.0332 447.828 37.1665 449.21 37.9698C450.591 38.773 452.135 39.1746 453.84 39.1746C455.545 39.1746 457.086 38.773 458.47 37.9698Z" fill="white"/>
<path d="M498.112 37.4387H492.904V46.3992H483.355V12.6738H498.786C501.84 12.6738 504.493 13.1793 506.743 14.1926C508.993 15.2036 510.728 16.6509 511.951 18.5298C513.173 20.4087 513.783 22.6176 513.783 25.1543C513.783 27.6911 513.212 29.7246 512.071 31.5389C510.929 33.3531 509.298 34.775 507.175 35.8022L514.457 46.4015H504.234L498.109 37.441L498.112 37.4387ZM502.644 21.4912C501.649 20.6233 500.168 20.1894 498.209 20.1894H492.904V30.0662H498.209C500.17 30.0662 501.649 29.6415 502.644 28.7898C503.64 27.9381 504.139 26.7262 504.139 25.152C504.139 23.5778 503.64 22.3568 502.644 21.4912Z" fill="white"/>
<path d="M524.781 12.6738H540.743C544.44 12.6738 547.718 13.364 550.581 14.7466C553.441 16.1269 555.661 18.0866 557.237 20.6256C558.813 23.1624 559.6 26.1353 559.6 29.54C559.6 32.9446 558.813 35.9153 557.237 38.4543C555.661 40.991 553.443 42.9507 550.581 44.3333C547.718 45.7137 544.44 46.4061 540.743 46.4061H524.781V12.6808V12.6738ZM540.358 38.7867C543.25 38.7867 545.574 37.9673 547.326 36.3284C549.077 34.6896 549.955 32.4253 549.955 29.5354C549.955 26.6455 549.079 24.3811 547.326 22.7423C545.572 21.1034 543.25 20.284 540.358 20.284H534.33V38.7844H540.358V38.7867Z" fill="white"/>
<path d="M324.342 97.7388C321.519 96.2408 319.301 94.1541 317.688 91.4789C316.076 88.8037 315.27 85.7753 315.27 82.3915C315.27 79.0076 316.076 75.9792 317.688 73.304C319.301 70.6288 321.519 68.5422 324.342 67.0441C327.165 65.5461 330.349 64.7959 333.898 64.7959C336.994 64.7959 339.785 65.3453 342.268 66.4394C344.752 67.5358 346.817 69.1146 348.462 71.1758L342.365 76.6878C340.17 74.0449 337.509 72.7246 334.381 72.7246C332.542 72.7246 330.904 73.1286 329.469 73.9342C328.034 74.7397 326.921 75.8754 326.13 77.3434C325.34 78.8091 324.945 80.4941 324.945 82.3961C324.945 84.298 325.34 85.9807 326.13 87.4487C326.921 88.9145 328.034 90.0524 329.469 90.858C330.904 91.6636 332.542 92.0675 334.381 92.0675C337.509 92.0675 340.17 90.7472 342.365 88.1043L348.462 93.6163C346.817 95.6799 344.752 97.2587 342.268 98.3528C339.785 99.4492 336.994 99.9962 333.898 99.9962C330.349 99.9962 327.163 99.246 324.342 97.748V97.7388Z" fill="white"/>
<path d="M361.966 99.3082H352.191L367.142 65.4697H376.577L391.576 99.3082H381.609H361.966ZM381.609 99.3082L371.788 74.848L361.966 99.3082H381.611H381.609Z" fill="white"/>
<path d="M421.863 66.9933C424.12 68.0089 425.862 69.4585 427.089 71.3443C428.313 73.2301 428.928 75.446 428.928 77.9919C428.928 80.5379 428.316 82.7469 427.089 84.6142C425.862 86.4839 424.12 87.9265 421.863 88.9398C419.606 89.9554 416.944 90.4632 413.878 90.4632H407.976V99.3106H398.395V65.4722H413.878C416.942 65.4722 419.603 65.98 421.863 66.9956V66.9933ZM417.751 81.6412C418.751 80.7872 419.25 79.5708 419.25 77.9919C419.25 76.4131 418.749 75.1874 417.751 74.3172C416.75 73.447 415.267 73.0131 413.299 73.0131H407.976V82.9223H413.299C415.267 82.9223 416.75 82.4953 417.751 81.6412Z" fill="white"/>
<path d="M437.688 65.4697H447.268V99.3082H437.688V65.4697Z" fill="white"/>
<path d="M465.415 73.0591H455.012V65.4697H485.349V73.0591H474.994V99.3082H465.413V73.0591H465.415Z" fill="white"/>
<path d="M497.056 99.3082H487.281L502.231 65.4697H511.667L526.666 99.3082H516.699H497.056ZM516.699 99.3082L506.878 74.848L497.056 99.3082H516.701H516.699Z" fill="white"/>
<path d="M533.488 65.4697H543.069V91.7188H559.23V99.3082H533.488V65.4697V65.4697Z" fill="white"/>
</svg>
