<svg xmlns="http://www.w3.org/2000/svg" fill="none" viewBox="0 0 107 112"><g fill="#fff" clip-path="url(#clip0_374_176)"><path d="M76.914 105.145c0-.595.116-.911.405-1.171.617-.539.81-.985.559-1.282-.116-.149-.193-.52-.154-.855.038-.483.173-.632.636-.78.328-.093.752-.335.983-.521.771-.687 1.118-.483 1.908 1.19.386.836.752 1.616.79 1.728.078.149-4.626 2.49-5.011 2.49-.058 0-.116-.372-.116-.799zM85.069 97.601c-1.06-.353-2.988-1.672-3.49-2.397-.23-.353-.25-.539-.057-1.17.25-.781 1.215-1.952 2.178-2.602l.54-.372.964 1.004c1.118 1.17 2.198 1.69 3.2 1.505.636-.112 2.757-1.45 3.065-1.933.077-.111-.655-.985-1.793-2.1l-1.927-1.895.655-.65c.752-.725.771-.855.27-1.487-.54-.669-.52-1.858.077-2.397l.443-.409 4.03 3.995c2.216 2.212 4.047 4.088 4.086 4.163.058.186-5.166 4.98-6.304 5.76-1.002.706-3.007 1.338-4.144 1.338-.424-.018-1.234-.167-1.793-.353zM96.35 80.858l-2.255-1.3.771-1.302c1.89-3.14 3.914-8.343 4.877-12.45.617-2.694 1.08-6.93 1.08-9.922 0-10.072-3.45-19.865-9.793-27.8-.694-.854-1.253-1.653-1.272-1.765-.02-.278 3.74-3.289 4.01-3.196.366.112 3.026 3.53 4.356 5.556 4.222 6.504 6.882 13.788 7.807 21.314.367 3.01.367 8.92 0 11.911-.578 4.831-2.004 9.923-4.048 14.494-.771 1.747-2.988 5.76-3.161 5.76-.058 0-1.138-.594-2.371-1.3zM77.688 31.337c0-.334.154-.78.346-1.003.309-.39.367-.39 1.253-.13.945.279 2.449 1.115 2.449 1.375 0 .074-.598.111-1.33.074-.733-.037-1.639.019-2.025.112l-.694.186v-.614zM81.079 24.35c-2.082-1.468-2.005-1.301-1.562-3.698.386-2.137.386-2.286-.27-2.657l-.558-.316-1.176 1.58c-.656.873-1.253 1.579-1.311 1.579-.058 0-.887-.558-1.831-1.227-1.138-.817-1.658-1.3-1.543-1.45.097-.11 2.024-2.656 4.26-5.648 2.603-3.42 4.184-5.389 4.319-5.296 1.002.557 5.243 3.735 5.821 4.348 1.485 1.598 1.832 3.364.983 5.11-.829 1.71-1.696 2.323-4.28 2.955-.134.037-.307 1.208-.462 3.047-.135 1.654-.308 2.992-.385 2.992-.097 0-.983-.595-2.005-1.32zm2.198-8.622c.616-.316 1.156-1.134 1.156-1.784 0-.372-1.176-1.654-1.523-1.654-.289 0-2.159 2.62-2.024 2.824.097.15 1.523.874 1.774.892.038 0 .308-.13.617-.278zM69.745 17.14l-2.274-.65v-3.01l-2.102-.595c-1.156-.334-2.197-.594-2.294-.594-.096 0-.559.538-1.002 1.207-.578.855-.925 1.19-1.137 1.134-.174-.056-1.138-.316-2.14-.595-1.002-.297-1.85-.539-1.89-.557-.076-.056 9.157-11.725 9.389-11.856.115-.074 4.453 1.115 4.588 1.245.096.112 1.233 13.918 1.175 14.402l-.057.501-2.256-.631zm-2.274-9.216c0-1.078-.058-1.951-.135-1.951-.135 0-.463.446-2.044 2.806l-.347.52.926.279c1.657.483 1.6.557 1.6-1.654zM49.543 10.023c0-2.174-.058-4.497-.116-5.166l-.115-1.208-2.101.056-2.102.075V.082l6.477-.112c3.567-.074 6.555-.093 6.651-.018.096.055.174.892.174 1.858v1.747h-4.28l.058 5.165.077 5.148-2.371.055-2.352.056v-3.958zM40.868 11.77c0-.948-.829-1.728-1.966-1.877-.694-.093-.848-.186-.887-.576a2.195 2.195 0 0 0-.347-.818 1.53 1.53 0 0 1-.27-.799c0-.353.116-.409.926-.464 3.296-.205 5.32.966 5.937 3.419.096.427.039.539-.424.743-.308.13-.81.428-1.099.65a2.09 2.09 0 0 1-1.214.428c-.636 0-.656-.019-.656-.706zM33.446 7.44c-.945-.222-2.024-.91-2.024-1.282.02-.538.713-1.765 1.369-2.378.77-.725 2.216-1.412 3.759-1.803 1.195-.297 3.836-.371 4.01-.13.057.093.192.744.308 1.45.115.706.25 1.412.308 1.598.077.26-.116.297-1.523.297-2.525 0-4.01.595-3.701 1.505.058.223.212.39.347.39.116 0 .038.13-.173.28-.405.297-1.523.334-2.68.074zM55.576 111.203c-.502-.186-.212-.873.828-2.026.984-1.077 1.157-1.189 1.851-1.189.405 0 1.272.223 1.928.483.944.372 1.214.428 1.33.223.096-.13.173-.316.173-.409 0-.092.212-.427.463-.761.25-.316.52-.985.598-1.468.115-.706.231-.911.617-1.06.694-.241 1.908-.204 2.66.093l.674.279-.289.743c-.405 1.115-.636 1.487-1.619 2.49-1.58 1.636-4.665 2.751-7.518 2.713-.81 0-1.58-.055-1.696-.111z"/><path d="M71.924 106.539l-.752-1.449 2.776-1.338c1.523-.743 2.776-1.412 2.776-1.524 0-.316-.636-1.486-.81-1.486-.096 0-1.214.501-2.505 1.115-1.273.631-2.352 1.114-2.372 1.077-.038-.037-.404-.706-.828-1.505l-.772-1.45 2.082-1.003c1.677-.799 2.102-.947 2.198-.724.116.278.578.241 1.62-.13.443-.168.443-.168-.29-1.004-.385-.465-.829-.836-.964-.836-.385 0-1.021-.613-1.021-.966 0-.205-.155-.335-.386-.335-.328 0-.386-.13-.386-.817 0-.447-.057-.948-.115-1.115-.077-.205.347-.502 1.735-1.171 1.002-.483 1.87-.836 1.908-.8.058.057 1.176 2.23 2.487 4.832 2.005 3.94 2.352 4.757 2.082 4.85-.154.074-.424.26-.56.428-.134.167-.327.297-.423.297-.077 0-.386.074-.656.186-.482.167-.482.204-.212.594.463.632.367 1.115-.366 1.951-.713.818-.81 1.097-.424 1.227.193.056-4.646 2.546-4.974 2.546-.057 0-.424-.651-.848-1.45zM81.22 94.74c-1.504-2.138-1.736-4.293-.675-6.523.77-1.598 1.677-2.657 4.491-5.277l2.236-2.063 1.215 1.19 1.234 1.207-.425.427c-.23.242-.424.502-.424.577 0 .074.27.501.598.966.347.483.54.948.482 1.152-.135.353-1.407 1.71-1.639 1.71-.077 0-.481-.335-.886-.744s-.849-.743-.984-.743c-.327 0-1.619 1.43-1.927 2.155-.328.744-.347 1.747-.058 2.379.212.427.154.539-.867 1.412-.772.688-1.176 1.227-1.408 1.877-.193.502-.385.91-.443.91-.058 0-.29-.278-.52-.613zM5.96 78.963c-1.967-3.772-3.22-6.968-3.99-10.09-.656-2.676-1.292-6.114-1.543-8.306-.154-1.394-.135-1.45.231-1.45.482 0 2.044.595 2.044.78 0 .075.424.763.925 1.506.56.817 1.06 1.858 1.272 2.583.29 1.04.502 1.375 1.292 2.1.52.464.945 1.022.945 1.207 0 .65 1.58 4.999 2.756 7.582.83 1.784.848 2.155.309 3.735-.309.855-.347 1.226-.193 1.375.116.112.212.26.212.353 0 .13-1.947 1.394-2.43 1.58-.173.055-.79-.948-1.83-2.955zM68.782 69.115c-.404-.335-.77-1.747-.694-2.713l.058-.78 1.118.835c.598.465 1.1.744 1.1.614s-.136-.707-.29-1.264c-.385-1.375-.385-1.598.02-1.282.655.52 1.811 3.326 1.811 4.385 0 .409-.058.428-1.407.428-.848 0-1.523-.093-1.716-.223zM67.299 57.687c-.097-.39-.309-1.17-.463-1.766l-.29-1.04.714-.13c2.757-.465 3.528-.279 3.894.985.309 1.077.039 1.375-.829.873-.597-.334-.617-.334-.906.074-.694.948-1.426 1.691-1.677 1.691-.135 0-.347-.316-.443-.687zM77.44 56.85c.174-.502.174-1.413-.019-1.58-.077-.074-.385.13-.713.465-.636.65-1.272.817-1.04.279.25-.632.346-2.658.134-2.658-.289 0-1.08 1.19-1.407 2.063l-.231.687-.598-.873c-.328-.464-.867-1.022-1.214-1.226-.656-.39-.81-.967-.405-1.357.173-.167.154-.223-.154-.223-.213 0-.79-.353-1.292-.78-.848-.744-.925-.874-1.022-1.914l-.115-1.115 2.12.056c2.506.093 3.624-.186 4.78-1.171.791-.67.695-.762-.558-.483-.386.093-.752.093-.81 0-.058-.075.54-.837 1.35-1.673 2.66-2.806 3.103-4.905 1.33-6.503-.25-.223-.463-.484-.463-.577 0-.204.733-.185 1.176.038.501.26.463-.038-.058-.502-.925-.818-1.735-1.078-3.238-1.06-1.755.038-3.451.558-5.976 1.915-2.41 1.282-2.603 1.263-2.853-.205-.135-.762-.174-.799-1.041-.985-.502-.092-.964-.241-1.041-.315-.077-.093-.405-.149-.752-.149-.328 0-.694-.093-.829-.223-.308-.297-.29-1.115.039-1.728.154-.279.23-.613.173-.743-.116-.298.386-.577 1.35-.744.636-.13.751-.093.848.242.077.334.192.297 1.33-.54 2.853-2.08 6.034-3.14 9.812-3.27 2.891-.092 3.258.02 2.621.78-.212.28-.404.614-.404.744s-.154.298-.328.353c-.29.112-.29.149-.058.298.154.111.482.185.733.185.732 0 1.947.707 2.448 1.45.25.371.81 1.654 1.214 2.824.424 1.171.906 2.509 1.08 2.974.732 1.82-.347 4.348-3.49 8.25-.578.706-1.002 1.3-.963 1.338.038.037.559-.186 1.156-.502 1.851-.966 1.909-.669.251 1.282-.81.967-1.465 1.803-1.465 1.896 0 .074.193.26.443.427l.425.279-.56.576c-.732.743-.54.91.444.371.443-.223.829-.371.906-.315.212.223-.154.91-.83 1.56-.539.54-.635.744-.539 1.171.097.465.02.595-.54.93-.906.538-1.368.52-1.156-.02zM30.347 18.85c-.328-.038-.79-.26-1.022-.502-.366-.372-.559-.41-1.388-.335-.694.056-1.04 0-1.291-.204-.174-.168-.733-.465-1.234-.67-1.022-.408-1.08-.52-.598-.873.193-.13.309-.26.25-.315-.635-.502-3.276-2.36-3.372-2.36-.058 0-.02.167.096.353.308.557.25.854-.096.576-.155-.13-.29-.335-.29-.446-.019-.54-.983-1.245-1.966-1.412-1.06-.186-1.89-.52-1.89-.762 0-.168 3.644-2.77 3.876-2.77.192 0 12.26 7.527 12.665 7.898.212.186.057.39-.887 1.097-1.176.854-1.35.91-2.853.724zM34.912 16.787c-.656-.13-.675-.167-1.003-1.617-.192-.817-.346-1.58-.346-1.69-.02-.15.404-.187 1.33-.112 2.448.167 4.819-.595 4.819-1.524 0-.39-.135-.502-.79-.669-.444-.111-1.234-.149-1.813-.093-2.197.279-4.318-.632-5.127-2.174-.232-.446-.463-1.3-.52-1.951-.097-1.134-.078-1.152.366-1.04.25.074.694.278.983.483.27.204.752.353 1.06.353.29 0 .655.092.79.204.174.13.386.111.713-.056.386-.204.502-.186.772.075.173.167.636.297 1.021.297.617 0 .771.093 1.041.613.174.316.347.762.386.966.058.353.154.39 1.06.446.25 0 .79.316 1.195.688.694.595.752.725.656 1.32-.116.705 0 .724.732.11.52-.408 1.754-.984 1.928-.873.096.056.173.54.173 1.06 0 1.356-.829 2.713-2.178 3.567-1.908 1.208-5.359 1.97-7.248 1.617zM45.403 110.961c-1.06-.186-3.22-.576-4.82-.855-1.58-.279-2.949-.557-3.045-.632-.077-.055 0-.799.173-1.635.25-1.152.405-1.524.636-1.524.174 0 1.542.223 3.065.484 1.504.278 2.776.464 2.815.427.038-.037.135-.446.212-.911l.135-.854-2.198-.409c-1.214-.223-2.39-.409-2.621-.409-.213 0-.444-.074-.502-.167-.154-.242.56-3.271.771-3.252.097.018 1.292.223 2.641.446 1.35.223 2.506.372 2.564.316.058-.056.116-.502.135-.985l.039-.873-2.892-.52c-1.58-.28-3.007-.521-3.161-.521-.193-.019-.232-.186-.135-.706.52-2.899.597-2.992 1.561-2.249.386.28.579.335.636.186.116-.334.52-.278 4.473.428 1.966.353 3.759.65 4.01.65.54 0 .54.353.019 3.066-.772 4.032-1.119 5.798-1.523 7.99-.502 2.713-.54 2.881-.83 2.862-.134 0-1.098-.167-2.158-.353zM55.617 111.221c-.096-.019-.52-.093-.906-.168l-.732-.111v-1.561c0-2.044.038-2.137.925-1.932 1.022.223 3.393.204 4.414-.056 1.33-.316 2.68-1.635 2.853-2.769.135-.91-.135-2.174-.617-2.899-.674-.985-2.544-1.468-4.375-1.096-.733.13-.733.149-.637.892.058.409.135.762.174.799.02.037.443-.019.925-.093.482-.093.926-.093 1.022-.019.154.149.54 2.843.405 2.974-.097.092-5.918.929-6.015.854-.077-.055-.77-4.255-.963-5.816-.174-1.356-.155-1.356.385-1.728.925-.632 3.528-1.45 5.32-1.654 1.967-.241 3.875-.018 5.07.576.868.409.906.576.367 1.245l-.405.483.732.706c.694.688 1.273.892 1.504.521.058-.093.29-.186.501-.186.79 0 1.504 2.917 1.157 4.738-.116.595-.231 1.115-.27 1.134-.039.037-.424-.112-.887-.335-.636-.297-.944-.353-1.426-.204-.54.149-.637.26-.81 1.096-.096.502-.386 1.171-.598 1.468-.23.316-.462.744-.54.967-.25.78-.52.799-2.313.093l-1.715-.688-1.041 1.115c-.579.613-1.099 1.245-1.176 1.412-.077.167-.212.279-.328.242zM29.557 106.762c-.887-.465-1.6-.948-1.6-1.059 0-.483-.983-7.508-1.118-8.028l-.154-.539-.694 1.097a91.763 91.763 0 0 0-1.774 3.121l-1.118 1.989-1.735-.874c-.944-.501-1.773-1.003-1.831-1.115-.077-.204 2.583-5.054 3.046-5.519.096-.111.404.056.752.41.694.706.925.743 1.137.185.096-.241.347-.576.559-.762.308-.278.366-.446.231-.799-.289-.706-.193-3.252.135-4.013.386-.874 1.002-.948 1.6-.205.212.279.79.743 1.292 1.06 1.272.817 1.947 1.839 2.062 3.084.077.929.636 4.515.752 4.906.039.074.29-.28.598-.818.482-.855.578-.948 1.06-.836.366.074.655 0 1.002-.297 1.234-1.06 1.678-1.283 2.43-1.283.404 0 .905.112 1.098.242.328.242.328.297-.154 1.208-.27.52-1.138 2.025-1.909 3.326-.79 1.301-1.927 3.27-2.525 4.385-.617 1.097-1.214 1.989-1.33 1.989-.135 0-.945-.391-1.812-.855zM14.036 95.872c-.694-.167-1.041-.706-.463-.706.154 0 .309-.13.386-.279.058-.148.347-.278.655-.278.328 0 .713-.186.983-.446l.424-.446-.77-.8-.791-.78.385-.409c.444-.464.463-.445-.597-2.694-.386-.873-.79-1.895-.848-2.267-.135-.65-.097-.706.289-.706.231 0 .694.279 1.022.632.867.892 1.195.947 1.677.297.231-.316.54-.557.713-.557.27 0 .27-.056-.02-.465-.173-.242-.308-.78-.308-1.19 0-.631.077-.743.54-.91.308-.093.867-.446 1.234-.762.385-.316.867-.576 1.08-.576 1.079 0 3.835 2.732 4.76 4.739.81 1.71.83 1.635-.616 2.601-.713.483-1.388.91-1.523.966-.135.056-.366-.278-.54-.836-.405-1.133-1.195-2.378-2.12-3.252-.79-.761-1.253-.854-1.735-.334-.367.39-.309.595.81 2.769.809 1.598 1.021 3.103.578 4.125-.887 2.007-3.142 3.122-5.205 2.564zM66.122 86.433c0-.948-.52-3.42-.867-4.181-.27-.539-.27-.52-.231.558.038 1.207-.078 1.468-.636 1.765-.29.148-.502.074-1.06-.39l-.675-.576-.02.891c0 .78-.038.855-.231.576-.135-.185-.733-1.003-1.35-1.82-.616-.8-1.195-1.692-1.272-1.97-.173-.65-2.37-2.119-3.874-2.602-1.658-.52-3.374-.427-4.858.26-.675.316-1.427.614-1.716.67-.713.167-1.754 1.263-3.161 3.325-.675.985-1.408 1.896-1.62 1.989-.482.26-.925.093-1.098-.39-.116-.372-.116-.372-.54.018-.79.725-1.831-.074-1.542-1.208.057-.241.057-.594-.02-.761-.115-.28-.173-.26-.385.204-.212.483-.25.502-.347.186-.56-1.989-.636-2.137-1.003-2.212-2.043-.39-1.927-.334-1.927-1.115v-.743l1.465-.167c1.214-.13 1.58-.111 2.101.149.732.334 1.272.39 1.446.111.058-.093.424-.186.81-.186.674 0 .674 0 .366-.464-.174-.242-.309-.576-.309-.706 0-.316 2.024-.967 4.299-1.394 3.142-.576 9.542-.242 13.957.743 1.619.353 1.792.446 1.792.818 0 .241-.173.539-.385.687-.366.242-.366.26 0 .614.752.724.964.799 2.255.854l1.311.056.058.688c.058.576.154.706.675.91.347.13.886.205 1.214.186.713-.056.848.242.848 1.784 0 .836-.077 1.022-.482 1.282-.655.409-1.002.223-1.253-.65-.27-1.004-.578-.967-.578.074 0 .873-.675 2.88-.983 2.88-.097 0-.174-.334-.174-.743zM46.75 74.632c-.944-.316-1.388-.836-1.696-1.895-.116-.446-.309-.78-.424-.743-.097.037-.386.52-.617 1.078-.501 1.189-.964 1.375-1.465.557-.347-.558-.405-1.245-.212-2.23.096-.464.212-.576.636-.576.752 0 1.08-.26.694-.557-.366-.298-.366-1.282 0-1.747.212-.26.231-.428.077-.613-.328-.353-.096-1.784.385-2.435.212-.316.405-.743.405-.947 0-.223.154-.614.328-.892.193-.297.308-.762.27-1.19-.039-.538.096-.91.559-1.56.328-.446.79-.874 1.022-.93.23-.055 1.33-.111 2.448-.148l2.024-.037.058-.52c.038-.354-.039-.54-.29-.614-1.233-.353-2.583-1.19-4.26-2.62-1.06-.892-1.947-1.728-1.947-1.84-.019-.111.097-.315.25-.427.136-.111.31-.465.387-.762.077-.409.212-.557.5-.557.579 0 2.854 1.059 5.186 2.397l2.005 1.17.79-.297c.444-.167 1.562-.799 2.526-1.393.944-.595 1.831-1.06 1.947-1.004.115.037.27.595.327 1.227.078 1.096.058 1.189-.5 1.765-.695.706-1.967 1.338-2.68 1.338-.347 0-.52.13-.617.427-.174.632-.135 1.394.077 1.524.096.056 1.465.241 3.026.39 1.581.149 3.297.353 3.817.446.868.13 1.022.112 1.562-.279.713-.52 1.04-.334 1.04.558 0 .464-.173.724-.79 1.19-.655.52-.886.594-1.58.538-.444-.056-.964-.149-1.138-.223-.462-.204-1.002.966-.617 1.375.135.149.309.8.386 1.45.058.631.212 1.207.29 1.263.25.149.211.836-.117 2.1-.25.892-.25 1.208-.077 1.542.135.242.29.558.367.706.077.149.385.316.694.372.404.074.578.223.616.539.039.26.29.724.54 1.04.578.744.578.874-.058 1.245a6.463 6.463 0 0 0-1.002.725l-.463.409-1.6-.316c-2.68-.539-5.185-.576-8.462-.13-3.355.446-3.605.465-4.627.111zm6.92-2.452c.058-.39.155-1.877.232-3.308.116-2.527-.039-4.144-.54-5.649-.366-1.096-.52-.26-.732 3.642-.193 3.42-.097 5.222.289 5.835.27.39.655.13.752-.52zM3.686 59.693c-.27-.168-.232-1.431.154-4.85.135-1.152.135-1.784.02-1.821-.367-.13-.194-1.282.27-1.951l.462-.65-.656-.614c-.867-.8-.925-1.914-.154-2.88.482-.595.56-.632 1.735-.632h1.215l-.078.52c-.038.279-.212 1.208-.366 2.081-.443 2.342-.675 5.872-.559 8.585l.096 2.379h-.944c-.501 0-1.041-.074-1.195-.167zM63.544 51.535c-1.426-.706-4.684-.762-6.612-.093-.212.074-.096-.149.309-.557 1.002-1.041 2.699-1.673 4.665-1.766l1.658-.074.79.799c.636.65.81.948.81 1.524 0 .836-.232.854-1.62.167zM47.333 51.276c-.733-.093-1.851-.15-2.468-.112-.636.037-1.099-.019-1.099-.13-.02-.316-1.137-1.394-1.446-1.394-.173 0-.289-.167-.289-.409 0-.39.039-.39 1.928-.26 2.178.13 3.643.576 4.858 1.468 1.446 1.078 1.253 1.19-1.484.837z"/><path d="M51.936 49.826c-.424-.074-1.542-.446-2.486-.818-2.102-.817-3.702-1.114-5.225-.966-.636.056-1.233.056-1.31-.019-.077-.074-.579-.148-1.118-.148-1.465 0-1.37-.353.289-1.115 1.715-.78 2.024-.8 2.178-.186.058.26.154.465.193.465.038 0 .443-.186.887-.41 1.214-.63 2.776-.575 4.395.131 1.658.743 3.296.743 6.361.019 2.506-.595 3.72-.595 4.974.018.77.372.81.372.906.037.173-.483 1.04-.464 2.564.056 1.272.427 1.503.8.886 1.468-.27.297-.347.297-.906.019-.385-.186-1.291-.335-2.41-.372-1.715-.074-1.85-.056-3.276.576-.81.353-1.909.799-2.449.966-1.118.372-3.315.52-4.453.279zM54.173 42.597c-.308-.557-.231-1.895.174-2.713.308-.669 1.889-2.434 2.043-2.285 1.08 1.04 1.484 2.137 1.138 3.01-.174.427-.598.372-.752-.093-.212-.613-.54-.297-.83.78-.404 1.524-1.271 2.175-1.773 1.301zM44.726 42.505c-1.137-.41-4.067-1.896-5.687-2.88-.828-.521-1.6-.948-1.677-.948-.077 0-.154-.335-.154-.744 0-.65-.058-.743-.443-.743-.27 0-.771-.316-1.253-.799-.926-.91-1.06-1.635-.424-2.397.366-.465.366-.483 0-.8-.482-.427-.502-1.337-.02-1.913l.347-.446 1.485.595c1.407.576 3.373 1.802 3.951 2.471.251.297.29.297.54-.056.347-.483.925-.464 2.314.019 1.619.595 3.16 1.524 4.067 2.471.443.465.848.762.906.65.27-.39.655-.092 1.639 1.246 2.004 2.675 2.294 3.419 1.677 4.236-.579.762-1.735-.316-1.986-1.84l-.116-.817-.578 1.096c-.713 1.394-1.446 1.859-2.872 1.84-.578 0-1.35-.111-1.716-.241zM9.78 34.83c-.481-.744-.539-.985-.423-1.71a15.78 15.78 0 0 0 .096-2.007l-.02-1.17h.868c.656 0 .926-.093 1.06-.354.251-.445-.134-.836-.559-.575-.5.297-1.465.204-1.83-.186-.329-.335-.31-.39.173-1.208.5-.818 1.985-2.788 2.95-3.884l.442-.52.714.52c.366.297.848.67 1.04.818.194.148.405.539.444.836.058.316.154.873.212 1.245.058.39.25.818.405.966.25.26.154.483-.983 2.007-1.311 1.765-2.371 3.4-3.258 5.129-.27.52-.578.966-.655.966-.078 0-.386-.39-.675-.873zM23.694 20.893c0-.353-2.198-2.1-2.622-2.1-.135 0-.25-.074-.25-.185 0-.093-.29-.298-.617-.465-.347-.167-.771-.483-.945-.706-.347-.465-1.754-5.5-1.6-5.742.135-.204.733-.186.964.037.096.093.482.205.848.26.366.038.887.13 1.157.205.54.149 1.542 1.245 1.234 1.338-.27.093.906 3.623 1.233 3.735.116.037.598-.205 1.06-.52l.849-.577 1.04.465c.58.26 1.196.576 1.37.706.27.186.385.167.693-.093.502-.446.694-.409 1.504.297.54.447 1.002.65 1.89.78l1.175.205-1.099.706-1.118.725-1.002-.743a34.648 34.648 0 0 0-1.253-.873c-.29-.15-3.913 2.267-3.913 2.62 0 .371-.579.278-.598-.075zM32.947 99.126a3.453 3.453 0 0 0-.656-.54c-.327-.185-.289-.297.579-1.858.501-.91 1.137-2.006 1.388-2.434l.482-.799 1.754.93c.983.5 1.793 1.021 1.831 1.151.02.13-.27.744-.636 1.357s-.675.966-.675.78c0-.483-.829-.799-1.31-.483-1.003.706-2.16 1.747-2.16 1.97 0 .334-.25.297-.597-.075zM23.813 97.546c-.771-.39-1.446-.985-1.446-1.3 0-.26 2.969-5.352 3.123-5.352.193 0 .405 1.932.27 2.527-.077.316 0 .743.154 1.04.328.614.212 1.208-.385 1.821-.232.26-.502.688-.56.985-.192.688-.27.706-1.156.279zM40.636 96.97c-.52-.335-.925-.743-.925-.91 0-.39 0-.39 1.426-.13.83.167 1.08.297 1.003.482-.077.15-.116.484-.116.725 0 .595-.289.558-1.388-.167zM29.938 96.71c-.482-.465-.54-.893-.251-1.636.173-.427.096-.613-.501-1.43-.386-.503-1.06-1.134-1.504-1.394-.443-.26-.983-.707-1.234-1.004-.25-.297-.578-.539-.732-.539-.232 0-.212-.148.135-.743.25-.409.52-.743.617-.743.115 0 .906.371 1.773.836 1.542.817 1.6.855 1.716 1.617.289 2.1.52 4.608.462 4.998l-.057.446-.424-.409zM15.344 88.087c-.424-.167-1.002-.576-1.272-.892-.289-.316-.597-.501-.675-.427-.077.074-.096-.353-.057-.948.115-1.282.79-2.323 2.043-3.177 1.137-.762 2.834-.892 4.145-.298.886.41 1.272 1.004.559.892-.193-.037-.656.186-1.022.483-.347.298-.887.614-1.176.707-.636.222-.675.39-.135 1.096l.386.539-.887 1.096c-.482.613-.945 1.152-1.022 1.19-.077.037-.482-.075-.887-.26zM39.711 86.433c-.135-.26-.405-.929-.578-1.468l-.328-1.022-.328.595c-.616 1.152-1.31.576-1.734-1.45-.27-1.244-.386-1.449-1.176-2.136-.482-.428-.868-.874-.868-1.004 0-.483.617-1.32 1.485-2.044l.925-.762-.906.112c-1.138.148-1.89-.242-1.89-.985v-.483l-.5.501c-.29.26-.598.484-.695.484-.096 0-.23.185-.327.408-.135.353-.193.28-.501-.576-.598-1.746-.135-3.4 1.484-5.277.636-.743.752-1.003.675-1.487-.155-1.003.23-2.564 1.06-4.162 1.08-2.156 1.31-2.063.713.242-.116.427-.173.947-.135 1.152.058.334.347.148 2.082-1.32 1.137-.966 2.217-2.062 2.468-2.508.597-1.022.616-2.397.057-3.921-.482-1.32-.54-3.085-.135-4.014.425-.985 1.967-2.453 2.93-2.806.598-.223 1.119-.279 1.851-.186 1.272.15 1.735.39 1.137.576-.23.056-.462.335-.52.614a2.66 2.66 0 0 1-.424.836c-.27.279-.347.297-.713.056-.424-.26-.463-.242-1.022.594-.328.483-.79 1.097-1.022 1.375-.25.298-.5.93-.578 1.58-.173 1.059-.154 1.078.463 1.598.829.706 1.87 1.375 2.41 1.524.346.092.423.037.423-.28 0-.464.983-.928 1.967-.928h.636l-.694.446c-.367.241-.906.799-1.215 1.226-.482.706-.5.818-.25 1.17.25.372.231.484-.309 1.227-.443.632-.54.892-.385 1.134.173.241.135.353-.116.502-.193.111-.501.501-.675.873-.289.613-.308.706-.038 1.078.405.538.385.873-.058 1.43-.366.465-.366.465.135 1.097l.501.632-.559.446c-.366.297-.732.427-.983.353-.347-.075-.443.018-.54.483-.115.576.058 1.04.56 1.523.25.242.23.41-.097 1.357-.444 1.208-.656 1.505-.868 1.208-.115-.186-.655-3.066-.674-3.642-.02-.093-.193.148-.424.539-.309.594-.367.947-.29 1.858.058.632.155 1.32.232 1.542.135.409.115.409-.463.223-.328-.111-.752-.446-.925-.743-.193-.297-.444-.539-.579-.539-.424 0-.289 1.19.174 1.784.925 1.152 1.33 1.226 3.239.594l1.214-.39.463.54c.79.947.5 1.876-.502 1.616-.23-.056-.52-.019-.655.074-.116.112-.52.279-.887.39-.559.186-.713.168-1.214-.185-.579-.39-1.003-.446-2.275-.28-1.002.13-.81.391.444.614.616.13 1.137.26 1.156.279.039.037.174.446.347.892.27.762.27.91-.154 2.322-.25.837-.52 1.933-.598 2.435-.154.91-.154.929-.424.464zM9.483 80.599c-.405-.502-.385-.948.077-2.36.424-1.32.463-1.599.27-2.435-.116-.52-.173-.985-.116-1.022.039-.037.598.948 1.273 2.193 1.156 2.193 1.176 2.267.829 2.601-.636.595-2.14 1.264-2.333 1.023zM4.86 64.47c-.443-.335-.81-.688-.81-.819 0-.111-.423-.854-.963-1.635-.52-.78-.964-1.486-.964-1.56 0-.094-.308-.26-.675-.39-1.176-.41-1.253-.577-1.253-2.788 0-3.01.174-4.293.579-4.293.192 0 .443.13.597.298.174.204.424.26.83.167.327-.056.924-.167 1.33-.223l.713-.093v1.691c0 1.282-.058 1.691-.251 1.691-.154 0-.463.204-.713.465-.347.371-.405.52-.232.687.135.13.232.372.232.557 0 .205.135.335.385.335.212 0 .386.111.386.26 0 .316.405.483 1.156.483.617 0 .637.056.964 2.973.116.967.25 1.989.309 2.286.096.427.038.502-.347.502-.27 0-.83-.26-1.273-.595z"/><path d="M38.617 58.56c-.733-.427-1.118-.985-1.311-1.802-.077-.335-.154-.613-.193-.613-.019 0-.366.13-.732.278-.945.372-1.08.353-1.215-.185-.135-.52.135-1.301.849-2.398l.462-.724-.559.13c-.655.167-1.773.817-2.95 1.71l-.848.668-.327-.39c-.174-.204-.444-.799-.578-1.32-.136-.5-.309-.928-.386-.928-.058 0-.154.706-.212 1.58-.039.873-.154 1.634-.212 1.709-.077.056-.386-.112-.694-.39l-.54-.502-.135.52c-.193.725-.675 1.394-.906 1.264-.096-.075-.54-.8-.964-1.636-.443-.836-.944-1.672-1.118-1.876-.289-.335-.289-.335.077-.242.887.26 1.446.353 1.446.242 0-.056-.25-.39-.578-.725l-.56-.632.444-.204c.655-.279.482-.744-.79-2.026-1.292-1.3-2.082-2.267-1.947-2.397.058-.037.694.242 1.426.65.733.39 1.369.651 1.408.54.019-.093-.637-1.153-1.465-2.342-1.658-2.378-2.545-4.237-2.7-5.742-.096-.817-.019-1.115.463-2.044.328-.594.771-1.654 1.022-2.378.906-2.713 1.754-3.772 3.335-4.2l.81-.223-.771-.148a13.42 13.42 0 0 0-1.909-.15c-.964-.018-1.099-.055-.887-.297.135-.148.714-.483 1.292-.761 1.947-.874 5.84-.818 8.829.148.636.205 1.176.39 1.214.428.039.018-.173.278-.443.576l-.501.502.597.594c.309.316.579.613.579.688 0 .055-.27.408-.579.799l-.597.724.829.8c.674.668.944.798 1.542.798h.732l-.327.67c-.27.52-.29.724-.097 1.003.482.743.174.706-1.947-.279-2.756-1.282-4.491-1.598-6.15-1.133-.616.167-1.33.501-1.618.743l-.521.427.501.13c.636.149.636.335.116 2.044-.231.725-.424 1.803-.424 2.379 0 .892.096 1.226.674 2.137.386.595.752 1.338.83 1.672.192.874 1.387 1.821 2.583 2.081 2.1.428 4.549.186 7.73-.799.79-.241 1.619-.446 1.831-.446.212-.018.655-.074.983-.13.405-.093.656-.037.83.168.153.167.385.297.539.297.154 0 .25.093.212.223-.058.13-.675.372-1.388.539-.713.186-1.35.353-1.388.409-.039.037.347.13.887.185.79.093 1.06.223 1.58.8.347.39.637.817.637.966 0 .167-.52.483-1.33.799-1.716.669-2.294 1.226-3.22 3.066-.77 1.56-.944 2.508-.655 3.753.058.335.096.595.058.595-.039 0-.328-.167-.675-.372zM14.884 28.345c-.366-.39-.675-1.226-.636-1.765.058-.595-.463-1.84-.752-1.84-.096 0-.443-.241-.752-.52-.405-.353-.52-.595-.405-.78.193-.298-.057-.446 2.603 1.653.944.744 1.754 1.394 1.793 1.413.019.018-.328.501-.771 1.059-.694.855-.868.985-1.08.78zM20.838 23.774a236.181 236.181 0 0 0-1.273-4.608 57.385 57.385 0 0 1-.674-2.546c0-.409.347-.26 1.098.41.386.352.83.65.964.65.155 0 .309.13.367.278.077.149.23.279.346.279.136 0 .772.39 1.427.873.983.744 1.176.985 1.176 1.468.02.335.231 1.134.482 1.803l.482 1.208-.424.371c-.56.483-3.008 2.081-3.2 2.081-.097 0-.444-1.022-.771-2.267zM64.192 101.28c-.27-.112-.848-.52-1.272-.929-.752-.706-.79-.8-.636-1.412.077-.372.328-.837.54-1.06l.404-.371.79.539c.714.483 2.102 2.137 2.102 2.49 0 .093-1.272.966-1.388.929-.039 0-.27-.093-.54-.186zM73.173 98.958c-.212-.558-.116-.744.559-1.06l.675-.315-.424-.837c-.232-.464-.483-.836-.56-.836-.077 0-1.407.595-2.949 1.32-1.561.743-2.853 1.3-2.892 1.263-.212-.223-1.484-2.824-1.407-2.88.174-.167 6.342-3.048 6.516-3.048.096 0 .173.428.173.948 0 .855.039.93.386.818.308-.093.385-.037.385.316 0 .446.598 1.077 1.022 1.077.116 0 .617.428 1.08.948.732.818.829 1.022.674 1.43-.135.354-.443.558-1.233.8-1.311.427-1.851.446-2.005.056zM12.95 95.52c-1.253-.483-3.663-3.178-4.299-4.794l-.385-1.022.443-.316c.694-.502 2.468-1.524 2.525-1.45.02.038.309.614.636 1.283.984 1.97 2.237 3.121 2.854 2.601.327-.242.944.204 1.677 1.227l.597.854-.829.818c-.655.65-.867.762-1.099.594-.212-.185-.327-.167-.52.094-.25.352-.906.39-1.6.11zM67.58 82.55a1.927 1.927 0 0 0-.906-.483c-.52-.112-.559-.186-.52-.8.058-.594 0-.687-.386-.743-.25-.037-.559.019-.674.13a.48.48 0 0 1-.52.019c-.155-.112-.444-.186-.637-.186-.578 0-1.58-.93-1.773-1.617-.078-.353.019-.576.52-1.003l.617-.558 1.156.28c.656.166 1.37.334 1.581.408.347.093.424.019.501-.427a6.59 6.59 0 0 1 .405-1.19c.193-.408.231-.743.135-.929-.154-.204-.308-.111-.77.446-.695.8-1.485.966-1.254.279.328-1.04.328-2.341 0-3.01l-.347-.688-.501.446c-1.022.93-1.253.93-1.928.13-.347-.409-.597-.873-.559-1.04.039-.205-.096-.335-.405-.39-.559-.075-.983-.39-.983-.707 0-.13-.135-.483-.289-.762-.308-.576-.386-1.226-.154-1.45.231-.204.597-1.783.443-1.876-.077-.056-.212-.632-.289-1.282-.077-.706-.25-1.3-.405-1.43-.597-.465-.694-.893-.308-1.413.193-.297.443-.688.54-.892.289-.502.751-.557 1.619-.186l.732.316.79-.595c.617-.483.733-.669.579-.873-.174-.186-.154-.334.077-.576.174-.186.444-.632.598-1.004.404-.929.135-1.672-1.041-3.028-.733-.818-.964-1.227-.906-1.543.212-1.04-1.446-.576-2.969.837-1.214 1.096-1.33 1.059-1.33-.41 0-.575-.096-.836-.328-.91-.964-.372 2.911-1.71 4.357-1.524 1.06.15 2.352.855 2.988 1.654 1.368 1.71 1.6 3.364.77 5.445-.963 2.453-.578 3.79 1.659 5.686.694.576 1.156 1.133 1.156 1.356 0 .65.502 1.989.79 2.137.155.093.772.13 1.37.112l1.079-.037.135.65c.058.372.173.855.231 1.096.077.316.02.41-.308.41s-.25.166.578 1.244c1.118 1.412 1.33 1.858 1.33 2.825 0 1.115-.694 1.486-1.503.762l-.405-.372-.212.743c-.212.762-.79 1.301-1.388 1.301-.482 0-.424.223.154.762 1.542 1.375 1.291 2.954-.444 2.954-.578 0-.636.056-.636.577 0 .371-.154.706-.424.929-.578.446-.983.446-1.388 0zM6.842 67.907c-.193-.278-.771-.873-1.253-1.3-.732-.632-.964-1.004-1.234-1.877-.173-.595-.308-1.134-.308-1.19 0-.278 1.002.038 1.542.484.328.26.675.483.752.483.173 0 1.04 3.716.925 3.846-.058.038-.231-.167-.424-.446zM2.926 59.266a.806.806 0 0 1-.23-.52c-.001-.167-.252-.539-.58-.836-.616-.576-.732-.836-.327-.836.135 0 .501-.242.81-.558.308-.297.655-.557.79-.557.154 0 .231-.354.231-1.097v-1.096l-.655.26c-.887.353-1.484.334-2.082-.13-.578-.446-.636-1.06-.308-3.698.77-6.355 2.544-11.985 5.628-17.913.81-1.58 2.641-4.385 2.853-4.385.078 0 .29.167.482.371.347.372.347.372 1.003-.018l.675-.41.732.707.752.706-.694.799c-.56.669-.733.78-1.022.632-.732-.39-.944-.242-.732.483.135.539.115.855-.135 1.486-.309.781-.309.8.173 1.543.27.409.501.836.501.948 0 .111-.25.669-.559 1.263-.963 1.84-3.296 8.213-3.296 9.013 0 .13-.096.52-.193.891-.193.67-.212.67-1.021.595-.772-.093-.868-.056-1.35.558-.289.371-.52.761-.52.892 0 .148.404.631.886 1.114l.887.874-.713.985c-.598.836-.656 1.022-.386 1.059.27.056.309.204.193.929a25.451 25.451 0 0 0-.212 1.951c-.038.595-.154 1.394-.27 1.765-.096.372-.193.967-.193 1.32 0 .371-.134.724-.327.873-.424.316-.501.316-.79.037zM69.82 55.271c-.54-.242-.752-.26-1.273-.093-.347.13-.887.223-1.195.223-.52 0-.636-.13-1.138-1.152-.327-.65-.963-1.524-1.426-1.951-.578-.539-.752-.8-.54-.8.482 0 .405-.222-.347-.928-.385-.353-.674-.818-.674-1.06 0-.39.077-.427 1.098-.427h1.08l-.444-.464c-.443-.465-.443-.465-.077-.874.193-.241.386-.446.386-.483.02-.037.945.242 2.043.595 1.118.371 2.16.669 2.333.669.193 0 .328.055.347.148.154 1.543.193 1.636 1.099 2.416.79.706.983.8 1.619.725.694-.093.713-.093.482.409a4.23 4.23 0 0 1-.56.873c-.192.204-.346.465-.346.594 0 .13-.29.075-.81-.148-.463-.204-.983-.372-1.176-.372-.308 0-.289.093.154.93.772 1.486.617 1.765-.636 1.17zM58.505 42.58c-.984-.39-1.947-1.877-1.6-2.49.134-.223.096-.428-.116-.725a32.77 32.77 0 0 1-.617-.836c-.308-.39-.308-.446.039-.8.925-1.003 5.262-3.456 6.689-3.79.482-.13.52-.093.52.483 0 .353-.115.855-.27 1.134-.327.613-.096.892.771.892.347 0 .694.092.752.185.058.112.27.186.444.186.173 0 .655.093 1.08.204.654.168.732.242.635.688-.058.26-.019.669.077.91.135.354.251.41.752.316.309-.074.579-.074.579-.018 0 .223-4.878 2.955-6.053 3.382-1.292.464-2.911.594-3.682.279z"/></g><defs><clipPath id="clip0_374_176"><path fill="#fff" d="M0 0h106.217v112H0z"/></clipPath></defs></svg>