<svg xmlns="http://www.w3.org/2000/svg" fill="none" viewBox="0 0 559 130"><path fill="#fff" fill-rule="evenodd" d="M130.028 65.037c0 11.839-3.163 23.407-9.309 33.529l-10.483-14.64c2.53-5.966 3.796-12.382 3.796-18.89 0-3.253-.362-6.596-.995-9.85-.09-.271-.09-.633-.18-.904v-.09c-.091-.361-.181-.633-.271-.994-.091-.362-.091-.542-.181-.813-.181-.633-.362-1.175-.542-1.808l-.181-.542-.09-.271-.543-1.627c-.09-.362-.271-.723-.452-1.085-.18-.361-.271-.723-.451-1.084-.181-.362-.362-.723-.452-1.085-.362-.723-.633-1.446-.994-2.169-.181-.27-.272-.632-.452-.903l-.091-.09v-.091c-.18-.362-.361-.633-.542-.994-.181-.362-.361-.723-.633-.994l-1.355-2.17a47.834 47.834 0 0 0-9.309-10.212c-.27-.27-.542-.452-.813-.723-.271-.27-.723-.542-.994-.813-.271-.271-.633-.452-.994-.723-.362-.271-.543-.452-.904-.633-.362-.27-.723-.451-1.085-.723l-.723-.451-.723-.452a49.233 49.233 0 0 0-41.933-3.796C44.533 20.3 36.941 24.82 36.67 25l-9.49-12.924 1.175-.813c3.164-2.169 6.508-4.067 10.032-5.603 18.075-8.044 38.77-7.501 56.304 1.536.632.271 1.265.633 1.807.994l.904.543.813.542.813.542c.633.362 1.175.723 1.808 1.175l.723.452.994.723.994.723.542.361c.362.271.633.452.904.723.814.633 1.627 1.266 2.44 1.989.814.722 1.537 1.355 2.35 2.078l1.085 1.085 1.084 1.084c.723.723 1.356 1.446 1.988 2.17.271.27.542.632.814.993.271.362.542.633.813.994.271.362.452.543.633.814l.632.813.633.813c.271.362.542.724.723 1.085.181.361.452.723.723 1.084.09.181.271.362.361.543.091.18.271.361.362.542l.542.904.813 1.355c.272.452.362.633.543.995.18.361.361.632.542.994l.09.09s0 .09.091.09c0 0 0 .09.09.09 0 0 0 .091.09.091l.543.994.09.18c.181.362.362.724.542 1.176.181.452.362.813.543 1.265l.542.994c.181.362.271.723.452.994l.361.904c.181.361.362.813.452 1.175.09.09.09.18.09.361.181.452.362.904.452 1.356.362.994.633 1.988.994 3.073.091.452.272.994.362 1.446v.09c.271 1.085.542 2.079.723 3.163.09.543.181 1.085.271 1.537.181.813 0 0 0 0v.18c.09.452.181.904.181 1.356 0 .452.181 1.084.181 1.536v.09c.09.543.09 1.085.18 1.628.091.994.181 1.988.271 3.072.362 1.356.362 2.53.362 3.796z" clip-rule="evenodd"/><path fill="#fff" d="M112.586 109.411c-2.983 3.163-6.236 6.055-9.761 8.495a62.94 62.94 0 0 1-11.206 6.416c-32.806 14.641-71.306 0-85.946-32.806-8.767-19.61-7.32-42.385 3.976-60.731.271-.452.633-.904.904-1.446.271-.543.633-.904.904-1.446 1.084-1.627 2.35-3.163 3.615-4.7.27-.271.542-.633.723-.904.09-.18.27-.27.361-.451.271-.362.542-.633.904-.995l.361-.361 9.4 13.375.09.181c-.181.271-.452.542-.633.814-.18.27-.452.542-.633.813-16.267 21.69-11.839 52.417 9.851 68.594 17.081 12.833 40.578 13.105 57.93.633L88.004 97.3l-9.309-13.014c3.706-2.71 6.598-6.326 8.315-10.573 4.79-12.201-1.265-25.938-13.466-30.728a23.834 23.834 0 0 0-8.676-1.627h-.994a23.04 23.04 0 0 0-12.653 4.429l-9.308-13.105a39.574 39.574 0 0 1 11.749-5.784 40.175 40.175 0 0 1 11.297-1.626c1.174 0 2.35.09 3.524.18 20.515 1.808 36.24 18.98 36.24 39.585 0 8.224-2.621 16.267-7.41 23.045l5.693 7.953 9.58 13.376z"/><path fill="#fff" fill-rule="evenodd" d="M78.786 84.196c-10.574 7.773-25.305 5.423-33.077-5.06-7.773-10.574-5.423-25.305 5.06-33.078.181-.09.362-.27.453-.361l27.564 38.5z" clip-rule="evenodd"/><path fill="#fff" d="M190.036 71.183l8.767 6.416c-5.694 7.592-12.382 10.935-19.792 10.935-13.014.271-23.859-10.122-24.04-23.136-.181-13.013 10.122-23.858 23.136-24.04h.904c7.501 0 14.369 3.526 20.063 11.117l-8.857 6.507c-3.524-4.79-7.23-6.688-11.116-6.688-7.049 0-12.652 5.694-12.652 12.653 0 6.959 5.693 12.652 12.652 12.652 3.886 0 7.32-1.717 10.935-6.416zM214.528 60.337c2.892-1.446 6.145-2.169 9.399-2.169l-2.531 10.122c-3.796 0-6.868 1.898-6.868 4.248v15.364h-10.032V58.71h10.032v1.626zM232.153 101.367l6.598-16.177-10.755-26.48h10.122l5.603 13.737 5.513-13.737h10.122l-17.261 42.657h-9.942zM294.506 73.261c0 4.067-1.627 7.953-4.428 10.755-2.892 2.801-6.688 4.337-10.755 4.337-1.807-.09-3.615-.722-5.061-1.807v14.821H264.23V58.711h10.032v1.355a8.07 8.07 0 0 1 5.061-1.807c3.976 0 7.863 1.536 10.755 4.338 2.801 2.801 4.338 6.687 4.428 10.664zm-10.122 0c0-2.802-2.35-5.061-5.151-5.061-2.802 0-5.061 2.35-5.061 5.151 0 2.802 2.349 5.061 5.061 5.061 2.892 0 5.151-2.259 5.151-5.151zM301.107 77.238v-9.219h-3.525V58.62h3.525v-9.127h10.031v9.127h7.23v9.4h-7.23v9.037c-.09.452.271.813.723.904h6.146l2.621 9.85h-8.857c-5.875 0-10.574-4.699-10.664-10.483v-.09zM354.068 73.261c0 4.067-1.626 7.953-4.428 10.755-2.802 2.801-6.688 4.428-10.664 4.428a15.158 15.158 0 0 1-15.183-15.183 15.158 15.158 0 0 1 15.183-15.183c3.976 0 7.772 1.536 10.664 4.338 2.802 2.983 4.428 6.869 4.428 10.845zm-10.031 0c-.091-2.802-2.44-4.97-5.242-4.88-2.621.09-4.699 2.26-4.88 4.88-.09 2.802 2.079 5.151 4.88 5.242 2.802.09 5.151-2.079 5.242-4.88v-.362zM389.584 73.261c0 4.067-1.627 7.953-4.428 10.755-2.892 2.801-6.688 4.337-10.755 4.337-1.807-.09-3.615-.722-5.061-1.807v14.821h-10.031V58.711h10.031v1.355a8.07 8.07 0 0 1 5.061-1.807c3.977 0 7.863 1.536 10.755 4.338 2.801 2.801 4.428 6.687 4.428 10.664zm-10.122 0c0-2.802-2.35-5.061-5.151-5.061-2.802 0-5.061 2.35-5.061 5.151 0 2.802 2.35 5.061 5.061 5.061 2.892 0 5.242-2.259 5.151-5.151.091 0 .091 0 0 0zM424.018 73.261c0 4.067-1.627 7.953-4.429 10.755-2.801 2.801-6.687 4.428-10.664 4.428a15.158 15.158 0 0 1-15.183-15.183 15.158 15.158 0 0 1 15.183-15.183c3.977 0 7.772 1.536 10.664 4.338 2.802 2.983 4.429 6.869 4.429 10.845zm-10.122 0a5.053 5.053 0 0 0-5.061-5.06 5.052 5.052 0 0 0-5.061 5.06 5.052 5.052 0 0 0 5.061 5.061 5.053 5.053 0 0 0 5.061-5.06zM429.707 87.902V41.178h10.122v46.724h-10.122zM448.781 49.04a5.67 5.67 0 0 1 5.694-5.693h.09c3.163 0 5.784 2.53 5.784 5.694 0 3.163-2.53 5.784-5.693 5.784-3.254-.09-5.875-2.621-5.875-5.784zm.723 9.67h10.032v29.192h-10.032V58.71zM470.107 77.238v-9.219h-3.525V58.62h3.525v-9.127h10.031v9.127h7.23v9.4h-7.23v9.037c-.09.452.271.813.723.904h6.146l2.621 9.85h-8.857c-5.874 0-10.574-4.699-10.664-10.483v-.09zM512.944 60.066v-1.355h10.122V87.9h-10.122v-1.355c-1.446 1.175-3.163 1.808-5.061 1.808-8.314.18-15.273-6.417-15.454-14.731-.18-8.315 6.417-15.274 14.731-15.455h.723c1.898 0 3.706.633 5.061 1.898zm0 13.285c-.09-2.801-2.349-5.06-5.151-4.97-2.802.09-5.061 2.35-4.971 5.151.091 2.802 2.35 4.97 5.061 4.97 2.892-.09 5.152-2.349 5.061-5.15 0-.091 0-.091 0 0zM554.244 62.416c2.621 2.62 4.067 6.236 4.067 10.032v15.454h-10.032V72.448c0-2.26-1.807-4.158-4.067-4.158-2.259 0-4.157 1.808-4.157 4.067v15.454h-10.032v-29.19h10.032v1.355c.542-1.175 2.711-1.807 4.157-1.807 3.706.09 7.321 1.536 10.032 4.247z"/></svg>