<svg width="704" height="112" viewBox="0 0 704 112" fill="none" xmlns="http://www.w3.org/2000/svg">
<path d="M150.667 97.2316C146.495 95.9139 143.804 93.3335 142.487 89.5453C142.048 88.2276 141.883 76.3688 141.883 48.7531V9.82764L166.204 10.0472C187.067 10.212 191.02 10.3767 194.259 11.2551C196.291 11.7492 198.432 12.6276 198.926 13.1218C199.53 13.7257 201.891 24.3767 206.667 48.4237C214.463 87.6237 214.244 83.5061 208.753 89.1061C205.404 92.4551 200.189 95.31 194.863 96.6276C191.679 97.4512 152.918 97.9453 150.667 97.2316ZM192.118 80.8708C195.028 79.3335 197.004 77.1374 198.542 73.8433C199.749 71.208 199.804 70.4943 199.969 54.4629C200.134 40.1884 200.024 37.4433 199.255 35.1374C197.993 31.4041 194.534 27.8904 190.526 26.408C187.616 25.3649 186.353 25.2551 173.177 25.2551H158.902V53.859V82.408L174.44 82.2433C189.098 82.0786 190.032 82.0237 192.118 80.8708Z" fill="white"/>
<path d="M229.013 96.9019C226.542 96.0784 224.456 94.2666 223.303 92.0706C222.644 90.7529 206.668 12.5725 206.668 10.596C206.668 10.047 208.644 9.88232 215.123 9.88232C223.413 9.88232 223.578 9.88232 223.852 11.1451C224.017 11.8039 226.433 25.6941 229.233 42C231.978 58.3059 234.448 71.8117 234.668 72.0862C234.833 72.3059 239.06 59.5686 244.056 43.8117L253.06 15.098L257.452 14.9333C262.942 14.7686 265.139 15.7568 266.895 19.2706C267.554 20.5882 271.342 32.2823 275.295 45.2941C284.299 74.8862 283.641 72.9098 283.97 71.9215C284.135 71.4823 286.66 57.3725 289.57 40.6274L294.841 10.1568L303.46 9.99213C308.182 9.93723 312.08 9.99213 312.08 10.1019C312.08 10.2666 308.456 28.2196 304.064 50.0706C299.342 73.6784 295.609 90.698 294.95 92.0706C292.919 96.4078 289.68 97.8902 282.597 97.6157L278.37 97.451L269.037 67.3647C263.931 50.8392 259.539 37.498 259.319 37.7176C259.099 37.9921 255.201 50.0157 250.644 64.5098C246.033 79.0039 241.805 92.4 241.201 94.3215L240.048 97.7255H235.601C233.131 97.6706 230.166 97.3411 229.013 96.9019Z" fill="white"/>
<path d="M305.492 88.8313L305.547 79.8823L312.52 45.0196L319.547 10.1568L345.186 9.99213L370.826 9.88232V17.2941V24.7059H346.669H322.512V36.7843V48.8627H344.198H365.884V56.2745V63.6862H344.198H322.512V80.7059V97.7255H314.002H305.492V88.8313Z" fill="white"/>
<path d="M396.628 97.2313C393.169 96.1882 390.369 94.1019 386.252 89.6548L381.805 84.8235V80.2666V75.7646L383.342 76.0941C386.691 76.9176 389.491 78.8941 394.432 84.0548C398.605 88.3372 400.032 89.4901 401.185 89.4901C403.656 89.4901 405.467 88.1725 408.652 84.3294C413.593 78.1803 418.095 75.7646 424.628 75.7646C431.107 75.7646 435.554 78.1254 440.55 84.3294C442.142 86.3058 444.118 88.2274 444.997 88.6666C448.181 90.3686 449.169 89.8745 454.769 84.0548C461.742 76.8627 463.334 76.0392 470.471 76.0392C477.554 76.0392 479.201 76.8627 486.118 84.0548C490.291 88.3372 491.718 89.4901 492.871 89.4901C495.287 89.4901 497.154 88.2274 500.393 84.2745C505.499 78.0705 509.836 75.7646 516.315 75.7646C522.793 75.7646 527.13 78.1254 532.291 84.3843C533.938 86.3607 535.915 88.2823 536.738 88.7215C539.867 90.3686 540.856 89.8745 546.456 84.0548C551.452 78.8941 554.197 76.9176 557.656 76.0941L559.138 75.7646V80.2666V84.8235L554.691 89.6548C548.597 96.2431 546.236 97.4509 539.373 97.4509C531.742 97.4509 529.765 96.298 521.695 87.4588C517.522 82.9019 515.107 82.9019 510.934 87.4588C502.864 96.298 500.887 97.4509 493.256 97.4509C486.338 97.4509 484.252 96.3529 477.609 89.2705C472.997 84.3843 472.503 83.9999 470.526 83.9999C468.55 83.9999 468.001 84.3843 462.84 89.7097C456.032 96.6823 453.342 97.9999 446.589 97.6156C440.44 97.2313 438.079 95.9686 431.82 89.4901C426.111 83.6156 425.122 83.1215 421.993 84.7686C421.169 85.2078 419.193 87.1843 417.546 89.1607C414.197 93.3333 410.793 95.9137 407.169 96.9568C404.534 97.7803 398.879 97.8901 396.628 97.2313Z" fill="white"/>
<path d="M529.821 65.3337C524.935 63.4121 521.86 59.2396 521.037 53.6396L520.652 51.0043L522.739 51.169C524.056 51.2788 524.88 51.6082 524.935 52.1572C525.429 55.9454 525.923 57.3729 527.46 59.1298C530.15 62.2043 531.688 62.5886 540.856 62.5886C553.758 62.5337 555.845 60.9964 555.845 51.4984C555.845 46.667 555.735 46.0631 554.527 44.6356C552.495 42.2199 549.915 41.3415 539.539 39.5847C529.107 37.8278 526.637 36.8396 523.782 33.3258C522.135 31.2945 522.08 30.965 521.915 25.2552C521.695 18.5023 522.519 15.9768 525.758 13.5062C529.217 10.9258 532.401 10.3219 541.735 10.5415C550.025 10.7062 550.19 10.7611 552.88 12.3533C556.064 14.3846 558.425 17.8984 558.919 21.5768L559.303 24.1572H557.382C555.57 24.1572 555.405 24.0474 555.076 22.0709C554.637 19.3258 552.77 16.5258 550.354 15.1533C548.652 14.1101 547.499 14.0003 540.472 14.0003C531.413 14.0003 529.217 14.6592 526.856 18.1729C525.703 19.8748 525.594 20.5337 525.758 25.0905C525.923 29.5376 526.088 30.2513 527.295 31.569C529.546 33.9847 531.248 34.5337 541.186 36.2905C552.221 38.2121 555.68 39.5847 558.26 43.2631C559.688 45.2945 559.907 46.118 560.127 50.4552C560.511 58.0866 558.699 61.9298 553.484 64.6199C550.794 66.0474 550.19 66.1023 541.57 66.267C533.609 66.4317 532.182 66.3219 529.821 65.3337Z" fill="white"/>
<path d="M385.593 65.8824C384.107 65.8824 382.902 64.678 382.902 63.1922V63.1922V37.0589V10.9805H385.098H387.295V36.5099V62.0393H402.118H416.942V63.9609V65.8824H401.294H385.593V65.8824Z" fill="white"/>
<path d="M421.883 65.7726C421.993 64.5099 442.8 11.255 443.24 11.0903C444.612 10.6511 446.424 11.5844 447.083 13.0118C448.181 15.3726 466.902 64.9491 466.902 65.4432C466.902 65.6628 466.079 65.8824 465.036 65.8824C462.949 65.8824 463.608 67.0903 458.777 54.353L457.24 50.2354L444.557 50.0707L431.875 49.9609L428.965 57.9216L426 65.8824H423.969C422.816 65.8824 421.883 65.8275 421.883 65.7726ZM450.267 31.2942C447.193 23.1138 444.557 16.6354 444.393 16.855C444.173 17.1295 441.757 23.3334 439.012 30.7452C436.267 38.1569 433.906 44.6354 433.687 45.1844C433.302 46.0628 434.071 46.1177 444.502 46.1177H455.757L450.267 31.2942Z" fill="white"/>
<path d="M475.139 64.8944L473.767 63.7964L473.602 37.3336L473.438 10.9258L487.602 11.0905L501.767 11.2552L504.622 12.8474C509.014 15.263 510.441 17.7336 510.716 23.3885C511.045 29.0983 510.222 32.1728 507.696 35.0826L505.83 37.2787L507.971 38.3768C510.771 39.8042 513.406 42.8787 513.9 45.2395C514.065 46.2826 514.12 49.3572 514.065 52.0474C513.845 56.3297 513.626 57.2081 512.198 59.5689C511.045 61.3807 509.618 62.6983 507.532 63.9062L504.512 65.6081L490.512 65.7728C477.171 65.9376 476.402 65.8826 475.139 64.8944ZM506.049 60.3925C509.014 58.416 510.277 55.4513 510.277 50.4552C510.277 45.6787 509.234 43.1532 506.488 41.3415C504.677 40.1336 504.238 40.0787 491.281 40.0787H477.885V51.114V62.0944L490.951 61.9297C503.908 61.765 504.073 61.765 506.049 60.3925ZM502.59 35.2474C505.555 33.6552 506.708 30.8003 506.708 25.2003C506.708 19.6003 506.049 18.0081 502.81 16.1415C500.614 14.8787 500.23 14.8238 489.249 14.8238H477.885V25.5297V36.2356H489.304C499.296 36.2356 500.888 36.1258 502.59 35.2474Z" fill="white"/>
</svg>
