<svg xmlns="http://www.w3.org/2000/svg" fill="none" viewBox="0 0 749 130"><path fill="#fff" d="M622.999 64.935l-53.03 43.572V93.31c0-4.889 2.125-9.459 5.951-12.647l19.023-15.728-18.81-15.198c-3.826-3.081-6.058-7.758-6.058-12.752V22l52.924 42.935zM161.133 36.028v9.459H136.69V60.47h18.704v9.352h-18.598v24.762H125V36.028h36.133zM183.982 91.29c-4.569-2.55-8.289-6.164-10.946-10.734-2.763-4.676-4.144-10.096-4.038-15.516a29.095 29.095 0 0 1 4.038-15.41c2.657-4.463 6.377-8.182 10.946-10.733a31.886 31.886 0 0 1 30.288 0c4.464 2.55 8.29 6.27 10.84 10.734 2.657 4.676 4.039 9.99 4.039 15.41.106 5.42-1.275 10.733-4.039 15.515a28.419 28.419 0 0 1-10.84 10.734 31.314 31.314 0 0 1-30.288 0zm24.55-8.927c2.763-1.594 4.888-4.038 6.27-6.801 1.594-3.189 2.338-6.696 2.232-10.309.106-3.507-.744-7.014-2.338-10.202-1.382-2.763-3.614-5.208-6.271-6.802-2.869-1.594-6.057-2.444-9.352-2.338-3.294-.106-6.482.744-9.352 2.338-2.763 1.594-4.995 3.932-6.376 6.802-1.594 3.188-2.338 6.695-2.232 10.308-.106 3.507.744 7.014 2.232 10.309 1.381 2.87 3.613 5.207 6.376 6.801 2.87 1.595 6.058 2.445 9.352 2.338 3.295 0 6.483-.85 9.459-2.444zM272.615 94.585L259.65 71.736h-5.526v22.85h-11.69V36.027h21.998c3.932-.106 7.865.744 11.478 2.338 2.975 1.382 5.42 3.614 7.12 6.483a18.395 18.395 0 0 1 2.444 9.14c.107 3.72-1.062 7.439-3.294 10.52-2.444 3.189-5.951 5.527-9.99 6.377l14.028 23.7h-13.603zm-18.491-31.563h9.777c3.188 0 5.526-.744 7.12-2.338 1.594-1.7 2.445-4.038 2.338-6.377.107-2.338-.744-4.57-2.338-6.27-1.594-1.487-3.932-2.231-7.12-2.231h-9.777v17.216zM375.911 36.028l-16.366 58.557H345.73l-11.053-41.66-11.477 41.66-13.71.106-15.728-58.663h12.54l10.309 45.485 11.902-45.485h13.072l11.265 45.167 10.415-45.167h12.646zM417.678 83.426h-23.274l-3.826 11.16H378.25l20.936-58.558h13.709l21.042 58.663h-12.434l-3.825-11.265zm-3.189-9.352l-8.502-24.443-8.501 24.443h17.003zM474.533 94.585l-12.859-22.849h-5.526v22.85h-11.796V36.027h21.998c4.039-.106 7.971.744 11.584 2.338 2.976 1.382 5.42 3.614 7.12 6.483 1.594 2.763 2.445 5.952 2.338 9.14 0 3.72-1.169 7.439-3.294 10.52-2.444 3.189-5.951 5.527-9.99 6.377l14.028 23.7h-13.603zm-18.491-31.563h9.777c3.188 0 5.526-.744 7.12-2.338 1.594-1.7 2.444-4.038 2.338-6.377.106-2.338-.744-4.57-2.338-6.27-1.594-1.487-3.932-2.231-7.12-2.231h-9.777v17.216zM537.341 39.641c4.57 2.232 8.289 5.846 10.84 10.309 2.657 4.782 3.932 10.096 3.826 15.516.106 5.42-1.169 10.734-3.826 15.41-2.551 4.357-6.27 7.864-10.84 10.202a35.68 35.68 0 0 1-16.26 3.613H500.57V36.028h20.511c5.633-.106 11.159 1.17 16.26 3.613zm-2.338 39.96c3.401-3.401 4.995-8.078 4.995-14.135 0-6.058-1.7-10.84-5.101-14.347-3.295-3.4-8.077-5.207-14.241-5.207h-8.289v38.683h8.289c6.164 0 10.946-1.594 14.347-4.995z"/></svg>