<svg width="704" height="125" viewBox="0 0 704 125" fill="none" xmlns="http://www.w3.org/2000/svg">
<path fill-rule="evenodd" clip-rule="evenodd" d="M397.987 98.2569H417.346C421.244 98.2569 424.404 101.556 424.404 105.626C424.404 109.696 421.244 112.996 417.346 112.996H400.188C388.03 112.996 378.174 102.704 378.174 90.0085V20.4709C378.174 16.3449 381.377 13 385.329 13C389.28 13 392.484 16.3449 392.484 20.4709V44.0332H411.746C415.697 44.0332 418.9 47.378 418.9 51.5041C418.9 55.6303 415.697 58.9752 411.746 58.9752H392.484V92.51C392.484 95.6836 394.947 98.2569 397.987 98.2569ZM427.706 77.9398C427.706 58.5789 442.737 42.8838 461.277 42.8838C479.819 42.8838 494.849 58.5789 494.849 77.9398V80.4997C494.849 82.5771 493.236 84.2612 491.247 84.2612H438.793C439.59 90.2047 444.57 96.2161 452.259 99.2052C460.091 102.25 469.66 101.63 477.579 94.7783C479.92 92.7529 483.389 93.0929 485.328 95.5366C487.267 97.9806 486.942 101.603 484.602 103.629C473.258 113.442 459.437 114.26 448.419 109.977C437.725 105.82 428.554 96.3107 427.731 84.2612H427.706V83.7287L427.706 83.6746L427.706 83.6337V77.9398ZM442.01 72.7683C442.01 63.2462 449.402 55.5274 458.521 55.5274H464.023C473.142 55.5274 480.534 63.2462 480.534 72.7683H442.01ZM355.33 34.6338C361.076 34.6338 365.735 29.8738 365.735 24.002C365.735 18.1302 361.076 13.3703 355.33 13.3703C349.583 13.3703 344.924 18.1302 344.924 24.002C344.924 29.8738 349.583 34.6338 355.33 34.6338ZM354.717 40.4482C350.661 40.4482 347.372 43.8083 347.372 47.953V105.489C347.372 109.634 350.661 112.994 354.717 112.994C358.774 112.994 362.063 109.634 362.063 105.489V47.953C362.063 43.8083 358.774 40.4482 354.717 40.4482ZM270.249 75.4703C270.249 58.2006 283.951 44.2006 300.854 44.2006C317.756 44.2006 331.458 58.2014 331.458 75.4711V106.74C331.458 110.194 328.718 112.994 325.337 112.994C321.957 112.994 319.216 110.194 319.216 106.74V75.4711C319.216 65.1091 310.995 56.7086 300.854 56.7086C290.712 56.7086 282.491 65.1087 282.491 75.4703V106.74C282.491 110.194 279.75 112.994 276.37 112.994C272.99 112.994 270.249 110.194 270.249 106.74V75.4703ZM215.616 56.8182H226.424C236.046 56.8182 243.847 64.5499 243.847 74.0875V106.534C243.847 110.105 246.768 113 250.371 113C253.975 113 256.896 110.105 256.896 106.534V67.4386C256.896 54.3297 246.174 43.7028 232.948 43.7028H215.616C211.962 43.7028 209 46.6388 209 50.2605C209 53.8822 211.962 56.8182 215.616 56.8182ZM245.654 34.6338C251.401 34.6338 256.06 29.8738 256.06 24.002C256.06 18.1302 251.401 13.3703 245.654 13.3703C239.907 13.3703 235.248 18.1302 235.248 24.002C235.248 29.8738 239.907 34.6338 245.654 34.6338Z" fill="white"/>
</svg>
