<svg width="295" height="264" viewBox="0 0 295 264" fill="none" xmlns="http://www.w3.org/2000/svg">
<g clip-path="url(#clip0_383_485)">
<path d="M4.26559 148.063C-1.42186 138.212 -1.42186 126.075 4.26559 116.224L62.1517 15.9615C67.8389 6.11047 78.3501 0.0419922 89.7246 0.0419922H205.497C216.872 0.0419922 227.383 6.11047 233.07 15.9615L290.956 116.224C296.643 126.075 296.643 138.212 290.956 148.063L233.07 248.326C227.383 258.177 216.872 264.245 205.497 264.245H89.7246C78.3501 264.245 67.8389 258.177 62.1517 248.326L4.26559 148.063Z" fill="white"/>
<path d="M4.26559 148.063C-1.42186 138.212 -1.42186 126.075 4.26559 116.224L62.1517 15.9615C67.8389 6.11047 78.3501 0.0419922 89.7246 0.0419922H205.497C216.872 0.0419922 227.383 6.11047 233.07 15.9615L290.956 116.224C296.643 126.075 296.643 138.212 290.956 148.063L233.07 248.326C227.383 258.177 216.872 264.245 205.497 264.245H89.7246C78.3501 264.245 67.8389 258.177 62.1517 248.326L4.26559 148.063Z" fill="white"/>
<path d="M4.26559 148.063C-1.42186 138.212 -1.42186 126.075 4.26559 116.224L62.1517 15.9615C67.8389 6.11047 78.3501 0.0419922 89.7246 0.0419922H205.497C216.872 0.0419922 227.383 6.11047 233.07 15.9615L290.956 116.224C296.643 126.075 296.643 138.212 290.956 148.063L233.07 248.326C227.383 258.177 216.872 264.245 205.497 264.245H89.7246C78.3501 264.245 67.8389 258.177 62.1517 248.326L4.26559 148.063Z" fill="white"/>
<path d="M4.26559 148.063C-1.42186 138.212 -1.42186 126.075 4.26559 116.224L62.1517 15.9615C67.8389 6.11047 78.3501 0.0419922 89.7246 0.0419922H205.497C216.872 0.0419922 227.383 6.11047 233.07 15.9615L290.956 116.224C296.643 126.075 296.643 138.212 290.956 148.063L233.07 248.326C227.383 258.177 216.872 264.245 205.497 264.245H89.7246C78.3501 264.245 67.8389 258.177 62.1517 248.326L4.26559 148.063Z" fill="white"/>
<path d="M4.4687 116.341L62.3549 16.0784C68.0004 6.29942 78.4345 0.275391 89.7256 0.275391H205.498C216.789 0.275391 227.223 6.29937 232.869 16.0784L290.755 116.341C296.401 126.12 296.401 138.168 290.755 147.947L232.869 248.209C227.223 257.988 216.789 264.012 205.498 264.012H89.7256C78.4345 264.012 68.0004 257.988 62.3549 248.209L4.4687 147.947C-1.17707 138.168 -1.17707 126.12 4.4687 116.341Z" stroke="white" stroke-width="0.962598"/>
<path d="M176.057 158.446C184.796 158.444 190.257 148.985 185.888 141.417L157.835 92.8213C153.465 85.2519 142.54 85.2509 138.168 92.8189L110.094 141.427C105.721 148.997 111.186 158.46 119.929 158.458L176.057 158.446Z" fill="white"/>
<path d="M176.057 158.446C184.796 158.444 190.257 148.985 185.888 141.417L157.835 92.8213C153.465 85.2519 142.54 85.2509 138.168 92.8189L110.094 141.427C105.721 148.997 111.186 158.46 119.929 158.458L176.057 158.446Z" fill="black"/>
<path d="M39.0103 144.055C34.6945 136.584 34.6945 127.379 39.0103 119.908L82.9363 43.8674C87.2522 36.3964 95.228 31.7939 103.86 31.7939H147.384C136.855 31.9258 126.387 37.3304 120.37 47.7127L60.8868 150.345C54.7851 160.874 55.534 172.721 60.8868 181.925L39.0103 144.055Z" fill="black"/>
<path d="M60.4542 150.095C55.8157 158.098 55.0753 166.855 57.2751 174.673L39.4433 143.805C35.2168 136.488 35.2168 127.474 39.4433 120.158L83.3692 44.1175C87.5957 36.8012 95.4065 32.2939 103.86 32.2939H139.819C131.881 34.3247 124.594 39.4261 119.937 47.462L60.4542 150.095Z" stroke="white"/>
<path d="M147.383 31.7944C147.48 31.793 147.577 31.7925 147.674 31.792C147.674 31.792 147.675 31.7925 147.675 31.7934C147.675 31.7939 147.674 31.7944 147.674 31.7944H147.383Z" fill="white"/>
<path d="M147.383 31.7944C147.48 31.793 147.577 31.7925 147.674 31.792C147.674 31.792 147.675 31.7925 147.675 31.7934C147.675 31.7939 147.674 31.7944 147.674 31.7944H147.383Z" fill="white"/>
<path d="M148.192 31.7939L147.992 31.792C148.051 31.7925 148.11 31.793 148.17 31.7939H148.192Z" fill="white"/>
<path d="M148.192 31.7939L147.992 31.792C148.051 31.7925 148.11 31.793 148.17 31.7939H148.192Z" fill="white"/>
<path d="M235.304 180.82C235.305 180.82 235.306 180.82 235.307 180.819L256.558 144.055C260.874 136.584 260.874 127.379 256.558 119.908L212.632 43.8674C208.317 36.3964 200.341 31.7939 191.709 31.7939H148.172C158.701 31.9258 169.182 37.3304 175.199 47.7127L234.682 150.345C240.676 160.686 240.387 171.711 235.304 180.818C235.303 180.818 235.304 180.819 235.304 180.82Z" fill="black"/>
<path d="M238.581 174.156C240.686 166.506 239.75 158.092 235.115 150.095L175.632 47.462C170.974 39.426 163.681 34.3247 155.739 32.2939H191.709C200.162 32.2939 207.973 36.8012 212.2 44.1175L256.125 120.158C260.352 127.474 260.352 136.488 256.125 143.805L238.581 174.156Z" stroke="white"/>
<path d="M235.265 180.894L235.264 180.893L235.263 180.893C235.227 180.958 235.19 181.022 235.153 181.086L234.98 181.386C229.633 190.522 219.4 197.649 207.267 197.649H88.3013C76.1589 197.649 66.2581 191.123 60.9141 181.975L82.935 220.095C87.2508 227.566 95.2267 232.169 103.858 232.169H191.71C200.342 232.169 208.318 227.566 212.634 220.095L234.98 181.386C235.008 181.339 235.035 181.292 235.062 181.245C235.074 181.226 235.085 181.206 235.097 181.186C235.116 181.153 235.135 181.12 235.153 181.086L235.265 180.894Z" fill="black"/>
<path d="M230.585 188L212.201 219.845C207.974 227.162 200.164 231.669 191.71 231.669H103.858C95.4052 231.669 87.5944 227.162 83.3679 219.845L65.2723 188.52C70.9765 194.37 78.9913 198.149 88.3013 198.149H207.267C216.584 198.149 224.79 194.016 230.585 188Z" stroke="white"/>
<path d="M215.109 16.1592C219.624 18.7656 222.32 24.3656 223.118 32.6092C223.913 40.8272 222.796 51.4727 219.897 63.8394C214.1 88.5617 201.226 119.965 182.631 152.169C164.036 184.374 143.275 211.224 124.761 228.605C115.501 237.299 106.839 243.589 99.3235 247.009C91.7849 250.44 85.5862 250.905 81.0711 248.298C76.5565 245.692 73.8598 240.092 73.0619 231.848C72.2664 223.63 73.3833 212.985 76.2826 200.618C82.0794 175.896 94.9538 144.492 113.549 112.288C132.144 80.0839 152.905 53.2337 171.419 35.853C180.679 27.1585 189.341 20.8683 196.856 17.4486C204.395 14.0177 210.593 13.5529 215.109 16.1592Z" stroke="url(#paint0_linear_383_485)" stroke-width="3.52385"/>
<path d="M13.6172 131.982C13.6172 127.236 17.0813 122.515 23.8438 118.064C30.5723 113.635 40.3646 109.615 52.5414 106.225C76.8828 99.4486 110.559 95.2461 147.792 95.2461C185.024 95.2461 218.701 99.4486 243.042 106.225C255.219 109.615 265.011 113.635 271.74 118.064C278.502 122.515 281.966 127.236 281.966 131.982C281.966 136.728 278.502 141.449 271.74 145.901C265.011 150.328 255.219 154.35 243.042 157.739C218.701 164.516 185.024 168.718 147.792 168.718C110.559 168.718 76.8828 164.516 52.5414 157.739C40.3646 154.35 30.5723 150.328 23.8438 145.901C17.0813 141.449 13.6172 136.728 13.6172 131.982Z" stroke="url(#paint1_linear_383_485)" stroke-width="3.52385"/>
<path d="M81.0862 15.829C76.6589 18.3849 74.0363 23.9335 73.3091 32.1428C72.5844 40.3225 73.7658 50.9359 76.7214 63.276C82.6292 87.946 95.5758 119.323 114.178 151.54C132.78 183.756 153.482 210.656 171.894 228.106C181.105 236.836 189.706 243.166 197.153 246.628C204.627 250.103 210.744 250.606 215.171 248.05C219.599 245.494 222.221 239.945 222.949 231.736C223.673 223.556 222.492 212.943 219.536 200.603C213.629 175.933 200.682 144.556 182.08 112.34C163.478 80.123 142.776 53.2229 124.363 35.7724C115.153 27.043 106.552 20.713 99.1044 17.2507C91.6313 13.7762 85.5141 13.2727 81.0862 15.829Z" stroke="url(#paint2_linear_383_485)" stroke-width="3.52385"/>
<path d="M92.5493 164.662C92.5493 162.459 90.7631 160.673 88.5598 160.673C86.3565 160.673 84.5703 162.459 84.5703 164.662C84.5703 166.865 86.3565 168.651 88.5598 168.651C90.7631 168.651 92.5493 166.865 92.5493 164.662Z" fill="black"/>
<path d="M211.315 164.354C211.315 162.151 209.529 160.365 207.325 160.365C205.122 160.365 203.336 162.151 203.336 164.354C203.336 166.557 205.122 168.343 207.325 168.343C209.529 168.343 211.315 166.557 211.315 164.354Z" fill="black"/>
<path d="M152.088 62.4786C152.088 60.2755 150.302 58.4895 148.099 58.4895C145.896 58.4895 144.109 60.2755 144.109 62.4786C144.109 64.6818 145.896 66.4678 148.099 66.4678C150.302 66.4678 152.088 64.6818 152.088 62.4786Z" fill="black"/>
</g>
<defs>
<linearGradient id="paint0_linear_383_485" x1="90.8658" y1="94.2383" x2="180.343" y2="149.78" gradientUnits="userSpaceOnUse">
<stop/>
<stop offset="1" stop-color="white" stop-opacity="0"/>
</linearGradient>
<linearGradient id="paint1_linear_383_485" x1="163.903" y1="207.622" x2="158.077" y2="120.157" gradientUnits="userSpaceOnUse">
<stop/>
<stop offset="1" stop-color="white" stop-opacity="0"/>
</linearGradient>
<linearGradient id="paint2_linear_383_485" x1="201.038" y1="99.7606" x2="124.797" y2="151.509" gradientUnits="userSpaceOnUse">
<stop/>
<stop offset="1" stop-color="white" stop-opacity="0"/>
</linearGradient>
<clipPath id="clip0_383_485">
<rect width="295" height="264" fill="white"/>
</clipPath>
</defs>
</svg>
