<svg width="96" height="112" viewBox="0 0 96 112" fill="none" xmlns="http://www.w3.org/2000/svg">
<path fill-rule="evenodd" clip-rule="evenodd" d="M32.1895 1V1.49644C32.1895 1.84539 32.4724 2.12827 32.8213 2.12827C38.0556 2.12827 42.2988 6.37145 42.2988 11.6057V19.2476C18.6854 20.756 0 40.3859 0 64.3801C0 90.6798 21.3201 112 47.6199 112H50.0142C50.0142 112 66.2422 111.202 76.0855 104.019C84.3135 98.0148 86.0354 94.613 86.379 93.6582C86.4417 93.4839 86.3834 93.3003 86.2524 93.1693C85.9663 92.8832 85.4572 92.9537 85.2239 93.2842C84.3058 94.5851 81.685 97.649 75.0213 102.157C65.9762 108.276 50.0142 108.276 50.0142 108.276C28.2692 108.276 10.6413 90.6477 10.6413 68.9026V64.3801V63.848C10.6413 44.4773 24.1727 28.2669 42.2988 24.1537V82.57C42.2988 87.8043 38.0556 92.0475 32.8213 92.0475C32.4724 92.0475 32.1895 92.3303 32.1895 92.6793V93.9738C32.1895 94.5261 32.6372 94.9738 33.1895 94.9738H60.4531C61.0054 94.9738 61.4531 94.5261 61.4531 93.9738V92.6793C61.4531 92.3303 61.1703 92.0475 60.8213 92.0475C55.5871 92.0475 51.3439 87.8043 51.3439 82.57V23.1449C51.344 23.1449 51.3442 23.1449 51.3444 23.1449C51.3444 23.1449 67.0403 23.943 73.6912 28.7316C78.5165 32.2058 81.2413 35.1199 82.3735 36.4579C79.4629 42.7346 73.1057 47.0879 65.7317 47.0879H60.5368C59.3996 47.0879 58.2879 46.7513 57.3417 46.1205C57.2471 46.0574 57.1359 46.0237 57.0222 46.0237H55.9625C55.6156 46.0237 55.3344 46.3049 55.3344 46.6518C55.3344 48.1442 56.3846 49.4305 57.8469 49.7289L64.5407 51.095C67.0793 51.6131 69.6811 51.7492 72.2599 51.4988C85.5971 50.2039 95.7714 38.994 95.7714 25.5941V24.6081C95.7714 11.0174 84.754 0 71.1633 0H33.1895C32.6372 0 32.1895 0.447715 32.1895 1ZM84.0659 26.4294V25.5392C84.0659 13.7851 74.5374 4.25653 62.7833 4.25653H51.3439V19.1544H51.3444C51.3444 19.1544 75.1446 20.6361 84.0659 26.4294Z" fill="white"/>
</svg>
