<svg width="112" height="112" viewBox="0 0 112 112" fill="none" xmlns="http://www.w3.org/2000/svg">
<circle cx="56" cy="56" r="54" fill="black" stroke="white" stroke-width="4"/>
<path d="M43.2393 20.0559H41.4278L40.1431 21.4527V23.3171L40.1608 23.3363L39.8602 23.7293L37.9844 23.9514L33.437 29.872L33.6587 31.8007L33.1301 32.4611L33.2013 33.1168L31.8567 34.4585L31.7488 45.5048L33.0675 46.8958L33.0334 47.7608L33.5234 48.2752L33.3164 50.101L37.807 56.0158L39.6828 56.2378L40.092 56.7288L40.1107 56.731L40.0996 56.743V58.6072L41.3842 60.0043H41.4311L41.4114 60.0248L41.4171 60.6852L40.337 61.8136L40.0983 62.0588V71.7377L39.5185 72.3102H30.1054L29.5484 71.7377V69.7969L28.2126 68.4296L28.241 67.8901L29.5938 66.54L29.6677 57.9075L28.3661 56.534L28.4011 55.9576L29.6191 54.7052V52.8408L28.2663 51.4439H26.4255L26.1726 51.2241L25.9395 49.2953L19.2776 44.0469L17.4302 44.2865L16.2422 45.7652L16.4752 47.6939L23.1429 52.995L25.0186 52.7495L25.1088 52.8252L25.0945 52.8408V54.7052L26.3791 56.0962H26.5078L26.5016 56.4522L25.1488 57.8081L25.0465 66.4697L26.3595 67.8608L26.3407 68.4296H26.3254L25.0465 69.7969V71.7377L26.3254 73.0585H28.2126L28.8208 73.6779V75.6182L30.1054 76.9391H39.5185L40.8486 75.6182V73.6779L41.4512 73.0585H43.344L44.623 71.7377V62.0588L43.344 60.6911L43.3099 59.9666L44.6242 58.6072V56.743L43.2714 55.352H41.4134L41.1607 55.0397L41.3824 53.111L36.835 47.1904L34.9649 46.9683L34.9479 46.9461L34.949 46.9251L36.3018 45.5749L36.37 34.5637L35.074 33.1903L35.0806 33.066L35.1366 32.9989L37.0124 32.7768L41.5086 26.862L41.2869 24.9567L41.4962 24.7082H43.3149L44.6678 23.3171V21.4527L44.6604 21.4451L45.2572 20.9159H64.1484L64.7435 21.4435L64.7347 21.4527V23.3171L66.0874 24.7082H67.9068L68.116 24.9567L67.9001 26.862L72.3904 32.7768L74.2663 32.9989L74.3223 33.0662L74.329 33.1903L73.0329 34.5637L73.1011 45.5749L74.4542 46.9251L74.4559 46.9521L74.4433 46.9683L72.5675 47.1904L68.026 53.111L68.242 55.0397L67.949 55.4014L67.9009 55.352H66.0138L64.7347 56.743V58.6072L66.0138 60.0043H66.046L66.0138 60.6911L64.7347 62.0588V71.7377L66.0138 73.0585H67.9009L68.509 73.6779V75.6182L69.8391 76.9391H79.2522L80.537 75.6182V73.6779L81.1393 73.0585H83.0264L84.3113 71.7377V69.7969L83.0264 68.4296H83.0172L82.9984 67.8608L84.3117 66.4697L84.2092 57.8081L82.8565 56.4522L82.8502 56.0962H82.98L84.2644 54.7052V52.8408L84.249 52.824L84.3377 52.7495L86.2135 52.995L92.8756 47.6939L93.1142 45.7652L91.9264 44.2865L90.079 44.0469L83.4169 49.2953L83.1838 51.2241L82.931 51.4439H81.0928L79.7397 52.8408V54.7052L80.9568 55.9565L80.992 56.534L79.6904 57.9075L79.7586 66.54L81.1171 67.8901L81.1452 68.4296H81.1393L79.8092 69.7969V71.7377L79.2522 72.3102H69.8391L69.2594 71.7377V62.0588L69.0205 61.8136L67.9348 60.6852L67.9465 60.0248L67.9139 59.9909L69.2594 58.6072V56.743L69.2523 56.7357L69.3105 56.7288L69.7198 56.2378L71.5956 56.0158L76.0919 50.101L75.8847 48.2734L76.3698 47.7608L76.3355 46.8958L77.6542 45.5048L77.5463 34.4585L76.204 33.1189L76.2785 32.4611L75.7441 31.8007L75.9659 29.872L71.4186 23.9514L69.5482 23.7293L69.2427 23.3353L69.2594 23.3171V21.4527L67.9746 20.0559H66.1494L65.5584 19.5717V17.6313L64.1316 16.2402H45.2572L43.8304 17.6313V19.5717L43.2393 20.0559Z" fill="white"/>
<path d="M49.5702 47.5977H47.6831L46.3984 48.9945V53.8581L47.6831 55.2491H49.5702L50.923 53.8581V48.9945L49.5702 47.5977Z" fill="white"/>
<path d="M59.8375 47.6338H61.7246L63.0091 49.0307V53.8667L61.7246 55.2577H59.8375L58.4844 53.8667V49.0307L59.8375 47.6338Z" fill="white"/>
<path d="M52.0841 75.975L52.0671 75.9633L52.0898 74.0699L50.771 72.6846L48.8839 72.667L47.5367 74.023L47.5196 75.9106L46.9569 76.5304L45.0925 76.5128L36.1227 85.525L36.1057 87.4657L36.1814 87.5418L36.1023 87.4653L35.5111 88.0441H26.0923L25.541 87.4711V85.5308L24.2052 84.1631H22.318L21.0391 85.5308V87.4711L22.318 88.7861H24.2052L24.8134 89.4118V91.3521L26.0923 92.673H35.5111L36.8412 91.3521V89.4118L37.4323 88.7983L39.3116 88.8213L48.2813 79.8033L48.2984 77.9095L48.8384 77.2959L50.6346 77.3135L52.0841 75.975Z" fill="white"/>
<path d="M57.4198 75.975L57.4311 75.9633L57.4141 74.0699L58.7329 72.6846L60.62 72.667L61.9614 74.023L61.9786 75.9106L62.541 76.5304L64.4056 76.5128L73.3754 85.525L73.398 87.4657L73.9873 88.0441H83.4004L83.9575 87.4711V85.5308L85.2875 84.1631H87.1747L88.4591 85.5308V87.4711L87.1747 88.7861H85.2875L84.6849 89.4118V91.3521L83.4004 92.673H73.9873L72.6572 91.3521V89.4118L72.0604 88.7983L70.1921 88.8213L61.2227 79.8033L61.1997 77.9095L60.6656 77.2959L58.8635 77.3135L57.4198 75.975Z" fill="white"/>
</svg>
