<svg width="704" height="112" viewBox="0 0 704 112" fill="none" xmlns="http://www.w3.org/2000/svg">
<path fill-rule="evenodd" clip-rule="evenodd" d="M318.12 0.065384C316.193 0.293453 314.233 1.20458 312.621 2.62244C312.199 2.99416 312.19 3.01946 312.37 3.36843L312.557 3.72973L313.244 3.4878C315.033 2.85788 316.571 2.88394 318.673 3.57959C321.825 4.62306 326.009 8.34169 330.056 13.6973L331.09 15.0657V29.1752C331.09 36.9355 331.054 43.2848 331.011 43.2848C330.967 43.2848 330.408 42.7841 329.768 42.1724C329.128 41.5606 328.071 40.6882 327.42 40.2337L326.235 39.4073L326.308 32.0781C326.386 24.1059 326.378 24.1998 327.118 23.4261C327.432 23.0973 328.089 22.8889 329.123 22.79C329.407 22.7628 329.503 22.689 329.503 22.4993C329.503 22.2497 329.408 22.2444 324.392 22.2119C319.732 22.1815 319.272 22.1972 319.199 22.3891C319.105 22.634 319.476 22.9609 319.735 22.8613C320.097 22.7223 321.277 23.0787 321.604 23.4261C322.334 24.2018 322.332 24.1841 322.332 31.1731C322.332 36.7022 322.307 37.5815 322.15 37.521C321.054 37.0996 318.288 37.0475 316.855 37.4211C315.447 37.7884 313.849 38.6638 312.63 39.736C312.218 40.0984 312.209 40.127 312.383 40.4783L312.565 40.8435L313.356 40.5888C313.79 40.4485 314.264 40.2786 314.409 40.2109C314.553 40.1434 315.21 40.1102 315.868 40.1373C317.746 40.2147 319.554 40.8439 321.36 42.0491L322.354 42.7127L322.292 43.2848C321.984 46.1384 321.602 47.3896 320.6 48.8298C319.647 50.2004 318.581 50.987 316.796 51.6391C315.93 51.9552 312.516 51.9658 311.671 51.6551C308.839 50.6133 307.212 48.7658 306.539 45.8273C306.419 45.3029 306.268 44.6982 306.204 44.4835C306.137 44.2597 306.088 39.8894 306.089 34.2496L306.091 24.4062L306.374 23.9048C306.758 23.2262 307.312 22.9271 308.279 22.8756C309.019 22.8362 309.072 22.8129 309.109 22.5074L309.15 22.1815H294.545H279.941V22.4857C279.941 22.7889 280.239 23.0103 280.462 22.8724C280.527 22.8325 280.9 22.8664 281.291 22.9478C281.86 23.0662 282.114 23.2066 282.554 23.648C282.857 23.9516 283.139 24.361 283.181 24.5574C283.222 24.7539 283.31 25.014 283.376 25.1354C283.445 25.2638 283.495 27.7264 283.495 31.0151V36.6741H277.459H271.423L271.462 30.7944C271.5 25.0119 271.505 24.9061 271.781 24.3904C272.064 23.861 272.674 23.2633 273.147 23.0527C273.289 22.9897 273.747 22.8964 274.166 22.8453C274.812 22.7666 274.928 22.7138 274.928 22.4988C274.928 22.2495 274.817 22.2439 268.645 22.1815L262.363 22.1179L262.323 21.7047C262.282 21.2822 262.189 21.2023 261.976 21.4075C261.853 21.5251 260.882 21.7196 259.38 21.9272C258.926 21.99 252.916 22.0442 246.024 22.0479C234.016 22.0541 232.109 22.1044 231.453 22.4331C231.346 22.4866 231.071 22.5718 230.842 22.6222C230.613 22.6727 230.272 22.794 230.085 22.8919C229.897 22.9897 229.704 23.0701 229.655 23.0706C229.439 23.0725 227.869 24.2791 227.46 24.7584C226.92 25.3903 226.254 26.6812 226.254 27.0962C226.254 27.2599 226.197 27.3937 226.127 27.3937C226.052 27.3937 226 27.8599 226 28.5379C226 29.2159 226.052 29.682 226.127 29.682C226.197 29.682 226.254 29.8123 226.254 29.9716C226.254 30.9391 228.298 33.7501 229.001 33.7501C229.446 33.7501 229.489 33.4622 229.128 32.8902C228.517 31.9204 228.107 30.4854 228.1 29.291C228.095 28.3347 228.139 28.1117 228.46 27.476C229.114 26.1814 230.733 25.0486 232.412 24.7114C232.884 24.6167 234.912 24.54 237.772 24.5086L242.373 24.458V37.6057C242.373 44.837 242.337 50.9324 242.293 51.1511C242.192 51.6579 241.303 52.6747 240.764 52.9004C240.536 52.9957 240.07 53.0736 239.727 53.0736C239.101 53.0736 238.711 53.3046 238.879 53.5766C238.934 53.6666 241.579 53.7093 247.085 53.7093H255.209L255.169 53.4232C255.133 53.1691 255.036 53.1292 254.303 53.0649C253.849 53.0251 253.359 52.9279 253.213 52.849C252.786 52.6172 252.031 51.7108 251.949 51.3288C251.906 51.1348 251.818 50.8616 251.753 50.7218C251.68 50.5667 251.647 45.4077 251.667 37.5004L251.701 24.5333L254.113 24.5389C255.519 24.5422 256.88 24.6124 257.378 24.7074C258.469 24.9154 259.623 25.4756 260.247 26.1007C260.817 26.6718 261.538 28.0397 261.538 28.5507C261.538 28.7451 261.595 28.9396 261.665 28.9828C261.734 29.0261 261.792 29.4237 261.792 29.8666C261.792 30.4651 261.84 30.6907 261.982 30.7451C262.149 30.8093 262.172 32.045 262.172 40.8035C262.172 46.2954 262.125 50.8882 262.067 51.0096C261.333 52.5575 260.859 52.9705 259.727 53.049C258.909 53.1055 258.619 53.2327 258.619 53.5341C258.619 53.6811 259.936 53.7093 266.805 53.7093C274.752 53.7093 274.991 53.7023 274.991 53.4686C274.991 53.1722 274.753 53.0736 274.037 53.0736C273.329 53.0736 272.972 52.9332 272.397 52.4281C271.484 51.6243 271.504 51.7917 271.502 45.1917L271.501 39.2802H277.466H283.431L283.468 44.8103C283.494 48.6427 283.462 50.4965 283.362 50.8489C283.121 51.7055 282.833 52.1842 282.31 52.5991C281.888 52.9339 281.667 53.0074 280.907 53.0668C280.093 53.1303 280.001 53.1652 279.964 53.4232L279.923 53.7093H288.119C296.203 53.7093 296.314 53.7058 296.314 53.4574C296.314 53.1804 296.131 53.1179 295.082 53.0363C294.303 52.9758 293.693 52.5689 293.168 51.7604L292.824 51.2303V38.0725C292.824 23.3455 292.749 24.5149 293.751 23.5382C294.684 22.629 295.882 22.8333 296.444 23.9974C296.687 24.5009 296.695 24.825 296.704 34.1236C296.709 39.407 296.764 44.0157 296.826 44.3654C297.055 45.6571 297.109 45.8937 297.204 46.018C297.257 46.0879 297.34 46.335 297.39 46.5668C297.439 46.7988 297.56 47.1421 297.658 47.3296C297.755 47.5172 297.836 47.7423 297.836 47.8296C297.836 47.9171 297.88 47.9891 297.932 47.9899C297.984 47.9908 298.136 48.2196 298.27 48.4984C298.993 50.0096 301.294 51.98 303.294 52.8008C303.678 52.9583 304.107 53.1385 304.246 53.2011C304.767 53.4349 305.725 53.7093 306.02 53.7093C306.188 53.7093 306.358 53.7617 306.397 53.8256C306.437 53.8897 306.911 53.978 307.452 54.0221C307.993 54.0663 308.524 54.1508 308.633 54.2098C308.742 54.2689 309.913 54.3537 311.235 54.3983C316.062 54.561 318.883 53.9441 321.612 52.1292C322.527 51.521 324.255 49.7481 324.533 49.1327C324.58 49.0278 324.74 48.7417 324.888 48.497C325.036 48.2523 325.338 47.5746 325.56 46.9911L325.964 45.9302L326.849 46.9275C328.246 48.5017 328.945 49.3502 330.056 50.8188L331.09 52.1872V54.8321C331.09 58.1881 330.853 59.135 329.735 60.2466C329.034 60.9434 328.395 61.2037 327.378 61.2071L326.521 61.2098V61.5912V61.9726H328.805H331.09V78.2855C331.09 95.8786 331.117 95.1232 330.451 96.4324C330.08 97.1622 328.688 98.3832 328.473 98.1677C328.442 98.1373 328.619 97.6913 328.865 97.1766C329.582 95.6794 329.454 95.4179 328.328 96.0788C326.344 97.2431 322.554 97.7362 318.652 97.3375C317.051 97.1741 312.496 96.499 312.496 96.4254C312.496 96.3972 311.412 96.1818 309.958 95.9216C309.539 95.8466 309.082 95.7345 308.942 95.6724C308.803 95.6102 308.232 95.4633 307.673 95.3457C307.115 95.228 306.515 95.0816 306.341 95.0205C306.166 94.9592 305.795 94.8707 305.516 94.8238C305.236 94.7769 304.951 94.6953 304.881 94.6424C304.811 94.5895 304.497 94.5079 304.183 94.461C303.869 94.4142 303.498 94.3269 303.358 94.2669C303.218 94.2069 302.847 94.0922 302.533 94.0121C301.926 93.8574 301.615 93.7693 300.502 93.4365C300.118 93.3216 299.576 93.1698 299.296 93.099C299.017 93.0281 298.675 92.9212 298.535 92.8614C298.395 92.8015 298.081 92.7139 297.837 92.6669C297.593 92.6197 297.336 92.5386 297.266 92.4866C297.196 92.4346 296.939 92.3541 296.696 92.3076C296.152 92.2041 295.552 91.9465 295.552 91.8167C295.552 91.7639 297.327 91.7206 299.495 91.7206H303.438L303.398 91.371C303.362 91.0563 303.298 91.0146 302.757 90.9523C301.996 90.8647 301.501 90.4989 301.285 89.8651C301.081 89.2697 301.213 88.5282 301.704 87.5093C301.881 87.1424 302.025 86.7996 302.025 86.7478C302.025 86.6958 302.189 86.2918 302.389 85.8499C302.589 85.408 302.831 84.8605 302.928 84.6332L303.103 84.2201H307.828H312.554L312.811 84.7525C312.952 85.0453 313.067 85.3274 313.067 85.3792C313.067 85.4311 313.239 85.8444 313.448 86.2976C313.657 86.7508 313.829 87.1555 313.829 87.197C313.829 87.2385 313.972 87.5689 314.146 87.9312C314.659 88.995 314.555 89.9567 313.849 90.6942C313.753 90.794 313.368 90.901 312.993 90.9323C312.27 90.9923 311.997 91.1754 312.127 91.5138C312.199 91.7016 312.888 91.7206 319.596 91.7206C323.661 91.7206 327.024 91.6824 327.071 91.6356C327.118 91.5888 327.081 91.4601 326.989 91.3495C326.897 91.2391 326.712 90.8911 326.576 90.5765C326.441 90.2618 326.17 89.8677 325.974 89.7008C325.656 89.4303 324.311 86.8245 322.521 83.0123C322.085 82.0846 321.16 80.1633 318.969 75.6389C318.529 74.7299 317.97 73.5572 317.727 73.0328C317.483 72.5084 316.814 71.1068 316.241 69.9181C315.667 68.7295 314.714 66.7558 314.123 65.5322C312.219 61.5886 311.551 60.3385 310.987 59.6632C310.58 59.1763 310.402 59.1469 310.402 59.5665C310.402 59.7031 310.352 59.9143 310.29 60.0357C310.153 60.3043 310.033 60.5963 309.516 61.9091C309.295 62.4684 309.039 63.0977 308.946 63.3075C308.579 64.1377 307.474 66.552 306.923 67.73C306.602 68.4145 306.341 68.9975 306.341 69.0256C306.341 69.0804 305.652 70.5746 304.741 72.4946C304.434 73.1426 304.183 73.6964 304.183 73.7252C304.183 73.7826 303.636 74.9974 302.978 76.4017C302.749 76.8911 302.436 77.5776 302.282 77.9272C302.129 78.2768 301.898 78.7917 301.77 79.0714C301.641 79.3511 301.339 80.0089 301.097 80.5333C300.432 81.9787 299.866 83.2234 299.68 83.648C299.588 83.8578 299.342 84.4012 299.133 84.8557C298.291 86.6827 297.808 87.738 297.618 88.161C297.112 89.2882 296.337 90.135 295.317 90.6718C294.763 90.964 294.572 90.8784 294.468 90.2904C294.416 89.9933 294.369 83.8005 294.364 76.5288C294.357 65.9142 294.388 63.185 294.523 62.6863C294.84 61.5176 295.987 60.7013 297.312 60.7013C297.781 60.7013 297.837 60.6689 297.837 60.3971C297.837 60.2298 297.759 60.0631 297.665 60.0268C297.57 59.9904 293.933 59.9839 289.581 60.0126C283.749 60.0508 281.646 60.1033 281.579 60.2124C281.378 60.5372 281.617 60.7013 282.288 60.7013C283.233 60.7013 284.064 61.174 284.618 62.0275L284.954 62.5447V75.766C284.954 90.547 285.022 89.4649 284.052 90.3171C283.472 90.8278 283.126 90.9579 282.349 90.9579C281.879 90.9579 281.697 91.0141 281.604 91.1872C281.377 91.6118 281.616 91.7025 283.117 91.763C283.918 91.7954 284.888 91.8814 285.272 91.9543C285.656 92.0273 286.313 92.1501 286.731 92.2274C287.15 92.3047 287.584 92.4178 287.696 92.4787C287.808 92.5396 288.166 92.6293 288.491 92.6782C288.816 92.727 289.114 92.8176 289.152 92.8794C289.19 92.9413 289.335 92.9919 289.475 92.9919C289.614 92.9919 289.968 93.0982 290.26 93.2281C290.553 93.358 291.107 93.6009 291.491 93.7677C291.875 93.9344 293.103 94.5347 294.22 95.1015C295.939 95.9742 296.912 96.4804 299.614 97.9078C299.788 98 300.003 98.0758 300.09 98.0763C300.177 98.0767 300.248 98.1343 300.248 98.2042C300.248 98.2741 300.309 98.3313 300.383 98.3313C300.457 98.3313 301.271 98.696 302.192 99.1419C303.867 99.953 304.592 100.29 305.484 100.671C306.61 101.152 306.817 101.234 307.419 101.443C307.768 101.564 308.168 101.711 308.308 101.77C308.447 101.828 308.762 101.915 309.006 101.962C309.25 102.009 309.507 102.092 309.577 102.145C309.647 102.199 309.946 102.284 310.243 102.333C310.539 102.381 310.81 102.467 310.844 102.523C310.878 102.579 311.173 102.664 311.498 102.713C311.823 102.762 312.181 102.847 312.293 102.903C312.722 103.116 313.483 103.311 314.15 103.38C314.532 103.42 314.844 103.501 314.844 103.561C314.844 103.703 319.377 103.705 319.465 103.563C319.502 103.503 319.982 103.42 320.534 103.377C321.085 103.335 321.701 103.233 321.902 103.152C322.104 103.07 322.383 102.957 322.523 102.9C322.662 102.843 322.917 102.757 323.089 102.708C323.822 102.5 325.262 101.487 326.465 100.334L327.757 99.0941H337.61H347.463V98.7127V98.3313H346.684C345.555 98.3313 344.979 98.1139 344.266 97.4185C343.523 96.6929 343.065 95.7257 342.894 94.5194C342.751 93.5091 342.724 68.201 342.866 68.2034C342.916 68.2043 344.756 70.6186 346.955 73.5686C349.154 76.5186 351.787 80.0505 352.806 81.4173C356.92 86.9363 363.512 95.7863 365.784 98.8398C368.731 102.802 370.12 104.486 371.843 106.177C374.063 108.359 376.162 109.868 378.558 111.006C380.806 112.073 383.825 112.211 386.364 111.364C387.316 111.046 388.785 110.264 389.751 109.561C390.327 109.141 390.341 109.115 390.208 108.719C390.132 108.495 390.06 108.296 390.046 108.278C390.032 108.26 389.784 108.328 389.495 108.43C387.983 108.965 385.76 108.939 383.635 108.363C382.508 108.058 382.021 107.788 380.076 106.395C377.83 104.786 376.873 103.841 374.164 100.555C373.669 99.954 371.329 96.7801 370.284 95.2909L369.801 94.6024V80.8073V67.0121L371.482 68.6836C372.408 69.6029 373.321 70.4755 373.513 70.6225L373.862 70.89V79.8388V88.7877L373.524 89.3961C373.179 90.0152 372.518 90.6979 372.259 90.7016C372.18 90.7027 372.051 90.7822 371.971 90.8783C371.858 91.0155 371.902 91.1039 372.178 91.2914C372.514 91.5194 372.937 91.5298 381.684 91.5263C388.087 91.5236 390.891 91.4809 391.013 91.3841C391.108 91.308 391.642 91.206 392.198 91.1576C392.755 91.109 393.269 91.0228 393.341 90.966C393.413 90.9093 393.757 90.8216 394.106 90.7714C394.455 90.721 394.798 90.6359 394.867 90.5821C394.937 90.5284 395.158 90.4453 395.357 90.3974C395.734 90.3071 396.356 90.0442 397.66 89.4242C398.841 88.862 400.3 87.8365 401.281 86.8778C402.173 86.0052 402.173 86.0047 402.296 86.3282C402.363 86.5063 402.419 86.8165 402.419 87.0177C402.419 87.2188 402.469 87.414 402.53 87.4515C402.591 87.489 402.674 87.7368 402.716 88.0021C402.877 89.0115 404.177 91.257 405.234 92.3527C406.266 93.4228 409.009 95.1531 409.674 95.1531C409.774 95.1531 409.911 95.1986 409.977 95.2543C410.246 95.4802 411.56 95.8276 412.954 96.0416C413.858 96.1804 417.637 96.18 418.538 96.041C419.583 95.8799 420.601 95.6661 420.886 95.5477C421.026 95.4899 421.368 95.3704 421.648 95.2821C425.135 94.1804 428.117 91.6842 429.598 88.6285C429.739 88.3364 429.9 88.0098 429.955 87.9026C430.01 87.7954 430.098 87.5094 430.15 87.2669C430.202 87.0245 430.29 86.769 430.345 86.6991C430.441 86.5793 430.651 85.3052 430.806 83.9188C430.844 83.5782 430.818 83.1777 430.745 83.0289C430.674 82.8799 430.582 82.4435 430.541 82.0589C430.343 80.1839 428.825 77.624 426.95 76.0031C426.04 75.2162 425.437 74.8089 423.742 73.8371C423.008 73.4168 421.81 72.7284 421.076 72.3073C420.343 71.8861 419.486 71.3994 419.173 71.2259C418.859 71.0524 417.992 70.5584 417.247 70.1282C416.504 69.6981 415.832 69.3461 415.756 69.3461C415.681 69.3461 415.619 69.2889 415.619 69.2189C415.619 69.149 415.555 69.0918 415.477 69.0918C415.185 69.0918 413.756 68.1429 413.119 67.5262C412.594 67.0201 412.431 66.7608 412.327 66.2782C412.181 65.5959 412.305 64.7016 412.636 64.0419C413.191 62.9362 414.876 62.0385 416.761 61.8432C417.355 61.7818 418.03 61.6928 418.263 61.6454C418.495 61.5981 418.81 61.6193 418.961 61.6926C419.112 61.7658 419.645 61.855 420.145 61.8907C420.644 61.9266 421.158 62.0075 421.287 62.0705C421.415 62.1336 421.891 62.3653 422.346 62.5854C422.8 62.8054 423.319 63.1244 423.502 63.294C423.892 63.6572 424.757 64.6995 424.757 64.8061C424.757 64.8467 424.826 65.0411 424.909 65.2379C424.994 65.4347 425.123 65.939 425.195 66.3585C425.303 66.9752 425.378 67.1284 425.587 67.1583C425.963 67.2122 426.045 66.7751 426.585 61.9091C426.67 61.1399 426.785 60.4106 426.841 60.2882C427.099 59.7193 426.949 59.6843 424.246 59.6843C422.842 59.6843 421.592 59.6294 421.466 59.5623C421.128 59.3809 414.722 59.2565 413.588 59.4093C412.42 59.5666 411.441 59.7813 411.146 59.9437C411.026 60.0108 410.853 60.0657 410.763 60.0657C410.504 60.0657 409.209 60.7732 408.48 61.314C407.096 62.3384 406.115 63.7267 405.501 65.5322C405.323 66.0537 405.078 67.8036 405.073 68.5833C405.069 69.247 405.342 71.053 405.464 71.1757C405.535 71.2461 405.592 71.3814 405.592 71.4762C405.592 71.9477 406.957 74.1657 407.683 74.8761C408.638 75.8096 409.993 76.774 411.875 77.8611C412.643 78.3045 413.825 79.0015 414.505 79.4097C415.182 79.818 415.771 80.152 415.813 80.152C415.855 80.152 416.077 80.295 416.306 80.4698C416.534 80.6446 416.757 80.7876 416.801 80.7876C416.934 80.7876 418.82 81.954 419.49 82.4513C420.719 83.3623 421.639 84.5553 422.149 85.8987C422.328 86.3713 422.365 86.7574 422.323 87.742C422.277 88.8196 422.215 89.1012 421.863 89.8315C421.328 90.9468 420.339 91.9258 419.146 92.5241C418.633 92.7814 418.127 92.9919 418.02 92.9919C417.914 92.9919 417.773 93.0449 417.707 93.1098C417.641 93.1745 416.888 93.2969 416.034 93.3817C414.819 93.5025 414.186 93.5025 413.117 93.3821C412.366 93.2974 411.695 93.1831 411.623 93.1279C411.552 93.0728 411.31 92.9927 411.084 92.95C409.935 92.7321 407.911 91.5297 406.691 90.3417C405.536 89.2153 404.93 88.3133 404.331 86.8262C404.273 86.6864 404.157 86.4003 404.069 86.1906C403.982 85.9808 403.883 85.2943 403.85 84.665C403.794 83.626 403.818 83.4624 404.11 82.8852C404.286 82.5356 404.471 82.078 404.521 81.8682C404.57 81.6584 404.654 81.4296 404.708 81.3597C404.76 81.2898 404.843 80.9751 404.894 80.6605C404.945 80.3458 405.035 80.0275 405.095 79.9533C405.364 79.6178 405.705 74.4932 405.473 74.2615C405.399 74.187 405.335 73.8085 405.331 73.4205C405.327 73.0324 405.274 72.4575 405.213 72.1429C404.983 70.96 404.817 70.2927 404.699 70.0788C404.631 69.9574 404.577 69.7882 404.577 69.7029C404.577 69.3794 403.281 66.9591 402.681 66.1587C401.489 64.5743 399.621 62.9885 397.977 62.1671C396.736 61.547 395.638 61.0827 395.413 61.0827C395.315 61.0827 395.181 61.0361 395.115 60.9791C395.049 60.9222 394.565 60.7761 394.042 60.6546C393.52 60.5329 392.89 60.3811 392.644 60.317C391.647 60.0569 388.407 59.9377 382.111 59.9294C376.775 59.9225 375.442 59.9537 375.309 60.0886C375.091 60.3098 373.899 62.512 373.843 62.8005C373.801 63.0134 373.443 62.5518 370.53 58.5277L369.801 57.5194V54.985C369.801 52.2121 369.906 51.4577 370.442 50.4039C371.124 49.0591 372.066 48.3699 373.222 48.3699H373.862V49.5671C373.862 51.0031 373.611 51.7137 372.807 52.542L372.276 53.0909L372.571 53.3334C372.734 53.4667 373.075 53.6335 373.33 53.7041C374.261 53.9611 391.564 53.7962 391.999 53.5261C392.076 53.4785 392.41 53.3893 392.742 53.3278C393.956 53.1024 395.123 52.788 396.01 52.4465C396.805 52.1404 398.656 51.1646 399.429 50.6429C400.536 49.897 402.196 48.2177 402.989 47.041C403.565 46.1871 404.319 44.6959 404.503 44.0454C404.553 43.8717 404.638 43.6153 404.694 43.4755C405.185 42.2441 405.402 40.5567 405.398 38.0089C405.394 35.3873 405.156 33.525 404.704 32.6018C404.652 32.4946 404.567 32.2144 404.516 31.9791C404.395 31.4307 403.513 29.6772 402.945 28.8557C402.328 27.9643 400.47 26.0842 399.563 25.433C399.145 25.1322 398.259 24.6155 397.596 24.2848C396.934 23.954 396.303 23.6389 396.196 23.5843C396.088 23.5297 395.803 23.4426 395.562 23.3907C395.319 23.3387 395.064 23.251 394.994 23.1957C394.925 23.1404 394.596 23.0546 394.263 23.005C393.931 22.9554 393.63 22.8691 393.596 22.8132C393.561 22.7572 393.091 22.6712 392.55 22.622C392.009 22.5726 391.488 22.4676 391.39 22.3887C391.262 22.2858 388.608 22.2328 382.033 22.2019L372.856 22.1588L372.535 22.5065C372.357 22.6977 372.216 22.8888 372.22 22.931C372.225 22.9732 372.466 23.1812 372.758 23.3933C373.049 23.6053 373.415 24.0058 373.573 24.2832L373.858 24.7876L373.86 36.0702L373.862 47.3529H371.831H369.801V31.2978C369.801 13.7891 369.771 14.5155 370.519 13.1409C371.245 11.804 372.113 11.2485 373.476 11.2485H374.37V10.74V10.2314H363.962H353.555V10.74V11.2485H354.466C356.015 11.2485 356.879 11.8647 357.667 13.5308L358.061 14.3631L358.095 27.9976C358.114 35.4966 358.086 41.6299 358.031 41.6273C357.978 41.6246 356.163 39.2417 353.999 36.3321C340.285 17.8928 334.344 9.95482 333.514 8.96017C331.825 6.93895 329.193 4.3913 327.608 3.24511C325.396 1.64571 322.439 0.303369 320.746 0.130093C319.212 -0.0269112 318.953 -0.0332676 318.12 0.065384ZM426.471 21.6304C426.052 21.7326 425.423 21.8743 425.074 21.9456C424.687 22.0246 420.099 22.1002 413.311 22.1395C403.998 22.1933 402.173 22.2324 402.117 22.3797C402.028 22.6091 402.376 22.9531 402.606 22.8647C402.703 22.8268 403.099 22.8614 403.485 22.9414C404.089 23.067 404.271 23.1807 404.808 23.7693C405.159 24.155 405.465 24.6281 405.511 24.8579C405.555 25.0814 405.592 31.0382 405.592 38.0954C405.592 50.5751 405.586 50.9414 405.343 51.4742C405.078 52.0556 404.374 52.7582 403.856 52.955C403.685 53.0202 403.264 53.0736 402.923 53.0736C402.28 53.0736 401.939 53.3433 402.15 53.6851C402.24 53.8302 406.133 53.8452 441.488 53.8368L443.304 53.8364L443.265 53.4868C443.225 53.153 443.186 53.1339 442.376 53.0642C441.446 52.984 440.893 52.6667 440.345 51.898L440.051 51.4845L440.018 38.0879L439.984 24.6914L441.731 24.7581C443.576 24.8287 444.22 24.9883 445.355 25.6556C446.926 26.5791 447.701 27.7628 448.058 29.7879C448.225 30.7341 448.24 31.1202 448.131 31.6949C448.056 32.0911 447.965 32.6887 447.928 33.023C447.819 34.0149 447.274 34.9903 446.28 35.9777C445.028 37.2225 444.227 37.595 442.653 37.6658C441.99 37.6956 441.376 37.7777 441.289 37.8482C441.017 38.0683 441.113 38.3252 441.569 38.5947C442.101 38.9091 443.004 40.2488 443.692 41.744C443.969 42.3467 444.314 43.0972 444.459 43.4119C448.798 52.8554 451.113 56.393 455.133 59.7274C455.821 60.2981 456.449 60.7878 456.53 60.8158C456.612 60.8437 456.706 60.9044 456.741 60.9506C456.868 61.1196 458.357 61.949 459.47 62.4713C460.098 62.7663 460.7 63.0535 460.806 63.1095C460.914 63.1657 461.2 63.2541 461.441 63.3059C461.683 63.3579 461.938 63.4445 462.008 63.4984C462.078 63.5524 462.39 63.6386 462.701 63.6902C463.012 63.7417 463.355 63.8321 463.463 63.8912C464.074 64.2277 469.557 64.5475 470.129 64.2799C470.269 64.2138 470.842 64.1021 471.4 64.032C472.64 63.8761 474.298 63.4741 475.081 63.1393C475.221 63.0795 475.879 62.7622 476.543 62.434C478.71 61.3648 478.966 60.9349 477.536 60.7772C475.114 60.5106 472.242 59.9522 471.273 59.5597C471.134 59.5033 470.734 59.3571 470.385 59.2349C469.441 58.9049 467.239 57.8211 466.501 57.3237C466.145 57.0838 465.825 56.8875 465.789 56.8875C465.755 56.8875 465.57 56.7588 465.378 56.6014C465.188 56.4441 464.808 56.1452 464.535 55.9371C463.352 55.0346 461.169 52.7668 459.743 50.9594C459.122 50.1728 457.744 48.2093 456.36 46.1407C453.634 42.065 452.314 40.6538 450.356 39.7191L449.618 39.3672L450.356 39.306C451.158 39.2395 452.214 39.0284 452.616 38.854C455.024 37.8096 456.254 36.6544 457.19 34.5597C457.374 34.1495 457.577 33.7137 457.641 33.5914C458.01 32.8901 457.998 29.1473 457.622 28.2101C456.986 26.6202 456.195 25.5206 455.028 24.6033C454.635 24.2942 452.652 23.3256 452.412 23.3256C452.289 23.3256 452.154 23.2734 452.115 23.2096C452.075 23.1457 451.804 23.0528 451.509 23.0031C451.216 22.9535 450.889 22.8645 450.781 22.8054C450.538 22.6722 449.069 22.4533 447.476 22.313C446.813 22.2547 442.058 22.2012 436.91 22.1942L427.549 22.1815V21.8001C427.549 21.37 427.543 21.369 426.471 21.6304ZM428.89 23.0767C429.358 23.2507 429.993 23.8767 430.23 24.401C430.451 24.8887 430.463 25.5748 430.463 37.9454C430.463 52.6331 430.54 51.506 429.472 52.4698C428.836 53.0444 428.628 53.0811 428.75 52.5969C428.8 52.4047 428.906 51.761 428.987 51.1667C429.069 50.5724 429.173 50.0289 429.217 49.959C429.262 49.8891 429.339 49.3456 429.39 48.7513C429.44 48.157 429.526 47.6135 429.579 47.5436C429.632 47.4736 429.718 46.9588 429.768 46.3994C429.819 45.84 429.905 45.2966 429.958 45.1917C430.012 45.0868 430.097 44.6102 430.146 44.1326C430.236 43.2736 430.234 43.2645 429.941 43.3062C429.712 43.3385 429.599 43.486 429.453 43.943C429.349 44.2701 429.22 44.5799 429.168 44.6316C429.116 44.6833 429.071 44.8162 429.071 44.9269C429.069 45.1541 428.522 46.2678 428.033 47.0394C427.002 48.6647 424.628 50.5476 423.229 50.8476C422.988 50.8995 422.71 51.0067 422.612 51.086C422.49 51.1841 421.221 51.244 418.645 51.2734L414.855 51.3165L414.888 45.4255L414.921 39.5345L417.83 39.5003C420.326 39.4709 420.82 39.497 421.32 39.6846C423.199 40.3908 424.263 41.7152 424.469 43.6026C424.555 44.3937 424.598 44.4969 424.852 44.5332L425.138 44.5737V38.1996V31.8255L424.852 31.8661C424.602 31.9018 424.555 32.0058 424.478 32.7116C424.397 33.455 424.074 34.5288 423.843 34.8307C423.046 35.8695 422.442 36.3461 421.453 36.7143C420.974 36.8928 420.377 36.9283 417.868 36.9283H414.857V30.8169V24.7056L419.014 24.7465C421.889 24.775 423.249 24.8335 423.424 24.9363C423.564 25.0181 423.936 25.2088 424.249 25.3601C425.096 25.7681 425.87 26.5825 426.361 27.5844C426.731 28.3355 426.811 28.6587 426.877 29.6565C426.949 30.7638 426.971 30.8364 427.219 30.8006C427.482 30.7631 427.486 30.7122 427.518 26.9488C427.535 24.8512 427.577 23.0607 427.612 22.9699C427.674 22.8036 428.293 22.8552 428.89 23.0767ZM387.688 24.7317C388.345 24.8007 388.945 24.9052 389.02 24.9638C389.095 25.0224 389.321 25.1097 389.522 25.1579C390.09 25.2945 391.232 26.0814 391.993 26.8614C392.782 27.6721 393.464 28.6812 393.898 29.6874C394.063 30.069 394.242 30.469 394.295 30.5761C394.347 30.6833 394.433 30.9693 394.485 31.2118C394.537 31.4542 394.625 31.7097 394.68 31.7797C394.734 31.8496 394.82 32.25 394.871 32.6695C394.921 33.0891 395.011 33.4933 395.069 33.5678C395.404 33.9909 395.403 41.7245 395.067 42.4584C395.003 42.5983 394.916 42.9668 394.872 43.2774C394.733 44.2761 394.466 45.0504 393.715 46.6385C392.926 48.3056 391.415 49.9688 390.176 50.5351C388.655 51.23 388.779 51.2089 385.888 51.2651L383.127 51.3188V38.0426C383.127 30.7406 383.154 24.7397 383.187 24.707C383.302 24.5907 386.512 24.6081 387.688 24.7317ZM344.255 32.8313C349.339 39.6702 354.587 46.7102 354.82 47.0033L355.097 47.3529H354.327H353.555V47.8614V48.3699L354.475 48.3756C354.981 48.3788 355.55 48.4502 355.74 48.5345C356.059 48.6759 357.125 49.9839 357.783 51.0396L358.061 51.4845L358.095 65.119C358.114 72.618 358.086 78.7513 358.031 78.7485C357.978 78.7455 356.181 76.3858 354.038 73.5044C351.896 70.6229 349.111 66.884 347.851 65.1954C346.59 63.5069 345.559 62.0911 345.559 62.049C345.559 62.0069 345.987 61.9726 346.511 61.9726H347.463V61.6071V61.2418L346.384 61.1851C345.43 61.1348 345.243 61.0831 344.766 60.7392C344.081 60.2453 343.464 59.3934 343.108 58.451L342.83 57.7138L342.825 44.3971C342.822 37.0729 342.851 31.0817 342.889 31.0832C342.926 31.0848 343.541 31.8714 344.255 32.8313ZM388.449 62.4988C391.053 63.3307 392.7 64.7905 393.876 67.312C394.328 68.2788 394.457 68.6322 394.737 69.6639C394.85 70.0834 394.999 70.5983 395.068 70.808C395.138 71.0178 395.229 71.8637 395.272 72.6878C395.315 73.5119 395.399 74.2161 395.458 74.2526C395.598 74.3393 395.598 77.1927 395.459 77.2794C395.399 77.3159 395.314 78.0426 395.268 78.8947C395.223 79.7465 395.135 80.5066 395.074 80.5838C395.012 80.661 394.932 80.8957 394.894 81.1054C394.668 82.3523 394.479 82.886 393.701 84.4711C392.862 86.1801 391.739 87.4275 390.362 88.1782C388.982 88.9303 388.827 88.9598 385.951 89.0199L383.254 89.0762V81.9637V74.8511L384.365 74.6962C386.283 74.429 387.99 73.7132 389.746 72.4402C390.329 72.0187 390.335 72.0057 390.199 71.5642C390.099 71.2349 390.01 71.1368 389.863 71.1941C388.52 71.7194 386.206 71.8291 384.461 71.4502C383.903 71.3291 383.404 71.2031 383.351 71.1705C383.233 71.0972 383.221 62.557 383.339 62.4388C383.486 62.2913 387.964 62.3438 388.449 62.4988ZM308.231 73.8273C308.328 74.0546 308.517 74.4979 308.65 74.8126C308.784 75.1272 308.942 75.4991 309.002 75.6389C309.061 75.7788 309.462 76.7513 309.892 77.8001C310.322 78.8489 310.724 79.8214 310.785 79.9613C310.846 80.1011 311.013 80.4842 311.157 80.8124C311.3 81.1406 311.417 81.4696 311.417 81.5434C311.417 81.6343 310.254 81.6775 307.807 81.6775H304.196L304.584 80.8194C304.797 80.3475 305.108 79.6593 305.275 79.2904C305.442 78.9214 305.579 78.5893 305.579 78.5524C305.579 78.5156 305.701 78.2167 305.85 77.8884C306.083 77.3752 306.329 76.8192 306.847 75.6389C306.909 75.4991 307.134 74.9945 307.348 74.5176C307.562 74.0408 307.737 73.5975 307.737 73.5324C307.737 73.2505 308.071 73.4496 308.231 73.8273Z" fill="white"/>
</svg>
