<svg xmlns="http://www.w3.org/2000/svg" fill="none" viewBox="0 0 670 774"><path fill="#fff" stroke="#010101" stroke-miterlimit="10" stroke-width=".75" d="M250.066 630.49V518.575h111.155V630.49H250.066zm-.798-151.632a230.821 230.821 0 0 1 5.88-51.21 176.76 176.76 0 0 1 18.277-46.633 115.548 115.548 0 0 1 20.992-31.098 352.978 352.978 0 0 1 26.418-23.703 361.213 361.213 0 0 0 35.757-33.811c10.642-11.652 17.639-23.056 20.992-34.211a122.67 122.67 0 0 0 5.321-37.243 87.113 87.113 0 0 0-2.342-20.218 39.897 39.897 0 0 0-7.768-17.078 50.546 50.546 0 0 0-24.876-18.276 90.235 90.235 0 0 0-32.644-5.826 109.985 109.985 0 0 0-26.046 3.113 55.865 55.865 0 0 0-21.284 10.108 50.547 50.547 0 0 0-16.336 20.59 67.59 67.59 0 0 0-4.656 27.587H135a202.888 202.888 0 0 1 23.732-76.215 149.519 149.519 0 0 1 49.352-54.402 175.356 175.356 0 0 1 48.953-22.559 191.574 191.574 0 0 1 53.635-7.767 246.677 246.677 0 0 1 83.566 13.992 150.149 150.149 0 0 1 91.335 91.326 154.506 154.506 0 0 1 9.338 52.459 156.941 156.941 0 0 1-18.943 76.961 320.468 320.468 0 0 1-47.037 64.51c-7.999 8.548-15.254 16.059-21.763 22.532-6.199 6.225-11.919 12.184-17.08 17.877a136.131 136.131 0 0 0-13.303 17.105c-7.272 11.918-11.706 21.628-13.302 29.129a176.445 176.445 0 0 0-2.315 33.04l-111.9-.079z"/><path fill="#fff" stroke="#010101" stroke-miterlimit="10" stroke-width=".75" d="M252.727 635.997V524.082h111.155v111.915H252.727zm-.772-151.632a230.674 230.674 0 0 1 5.854-51.209 175.56 175.56 0 0 1 18.251-46.634 116.143 116.143 0 0 1 20.991-31.098 353.176 353.176 0 0 1 26.418-23.703 361.213 361.213 0 0 0 35.757-33.811c10.642-11.652 17.64-23.055 20.992-34.211a121.85 121.85 0 0 0 5.321-37.243 85.614 85.614 0 0 0-2.342-20.218 39.606 39.606 0 0 0-7.768-17.105 50.556 50.556 0 0 0-24.876-18.249 90.256 90.256 0 0 0-32.644-5.826 110.198 110.198 0 0 0-26.046 3.113 56.164 56.164 0 0 0-21.284 10.082 50.727 50.727 0 0 0-16.335 20.617 67.998 67.998 0 0 0-4.656 27.586h-111.9a202.745 202.745 0 0 1 23.704-76.162 149.835 149.835 0 0 1 49.353-54.428 176.194 176.194 0 0 1 48.979-22.532 191.572 191.572 0 0 1 53.636-7.768 246.62 246.62 0 0 1 83.539 13.993 149.998 149.998 0 0 1 91.335 91.325 154.31 154.31 0 0 1 9.338 52.46 156.478 156.478 0 0 1-18.943 76.88 319.865 319.865 0 0 1-47.011 64.511c-8.034 8.566-15.288 16.085-21.762 22.558-6.226 6.19-11.928 12.149-17.107 17.877a136.131 136.131 0 0 0-13.303 17.105c-7.272 11.918-11.706 21.628-13.302 29.13a176.265 176.265 0 0 0-2.315 33.04l-111.874-.08z"/><path fill="#fff" stroke="#010101" stroke-miterlimit="10" stroke-width=".75" d="M255.387 641.504V529.588h111.155v111.916H255.387zm-.771-151.633a231.045 231.045 0 0 1 5.853-51.236 178 178 0 0 1 18.224-46.5 116.41 116.41 0 0 1 20.991-31.072 348.372 348.372 0 0 1 26.446-23.729 357.443 357.443 0 0 0 35.757-33.785c10.642-11.669 17.639-23.073 20.991-34.21a122.67 122.67 0 0 0 5.321-37.243 85.549 85.549 0 0 0-2.341-20.218 39.484 39.484 0 0 0-7.769-17.105 50.54 50.54 0 0 0-24.876-18.249 89.7 89.7 0 0 0-32.644-5.853 110.198 110.198 0 0 0-26.046 3.113 56.606 56.606 0 0 0-21.284 10.109 51.038 51.038 0 0 0-16.335 20.59 68.214 68.214 0 0 0-4.656 27.613h-111.9a203.468 203.468 0 0 1 23.705-76.189 150.203 150.203 0 0 1 49.352-54.402 176.22 176.22 0 0 1 48.979-22.532 191.572 191.572 0 0 1 53.636-7.767 246.893 246.893 0 0 1 83.566 13.992 150.2 150.2 0 0 1 91.334 91.326 154.867 154.867 0 0 1 9.312 52.459c.338 26.78-6.183 53.2-18.943 76.748a321.85 321.85 0 0 1-47.037 64.51c-8.035 8.566-15.289 16.086-21.763 22.559-6.225 6.207-11.928 12.166-17.107 17.876a136.032 136.032 0 0 0-13.302 17.079c-7.237 11.918-11.671 21.672-13.303 29.263a173.526 173.526 0 0 0-2.341 33.04l-111.82-.187z"/><path fill="#fff" stroke="#010101" stroke-miterlimit="10" stroke-width=".75" d="M258.047 647.011V535.095h111.156v111.916H258.047zm-.771-151.633a231.045 231.045 0 0 1 5.853-51.236 176.765 176.765 0 0 1 18.251-46.687 115.39 115.39 0 0 1 20.991-31.098 353.398 353.398 0 0 1 26.419-23.702 358.281 358.281 0 0 0 35.757-33.812c10.642-11.651 17.639-23.046 20.991-34.183a122.836 122.836 0 0 0 5.321-37.244 86.661 86.661 0 0 0-2.315-20.191 39.53 39.53 0 0 0-7.795-17.105 50.74 50.74 0 0 0-24.849-18.276 90.29 90.29 0 0 0-32.671-5.826 109.87 109.87 0 0 0-26.019 3.113 56.531 56.531 0 0 0-21.284 10.109 50.541 50.541 0 0 0-16.309 20.59 68.169 68.169 0 0 0-4.682 27.586H143.008a203.356 203.356 0 0 1 23.705-76.162 149.98 149.98 0 0 1 49.352-54.401 175.805 175.805 0 0 1 48.979-22.532 191.577 191.577 0 0 1 53.636-7.795 247.45 247.45 0 0 1 83.566 13.993 150.163 150.163 0 0 1 55.99 35.341 150.13 150.13 0 0 1 35.344 55.984 154.489 154.489 0 0 1 9.339 52.46 156.953 156.953 0 0 1-18.969 76.934 321.923 321.923 0 0 1-47.038 64.51c-8.035 8.548-15.289 16.059-21.763 22.532-6.474 6.473-12.203 12.406-17.187 17.797a137.819 137.819 0 0 0-13.302 17.105c-7.272 11.918-11.706 21.672-13.302 29.263a173.326 173.326 0 0 0-2.342 33.013l-111.74-.08z"/><circle cx="218.5" cy="553.5" r="176.5" fill="#FF7BFF"/><path fill="#fff" stroke="#010101" stroke-miterlimit="10" stroke-width=".75" d="M260.708 652.517V540.575h111.155v111.942H260.708zm-.772-151.632a230.794 230.794 0 0 1 5.853-51.236 176.77 176.77 0 0 1 18.278-46.634 115.36 115.36 0 0 1 20.991-31.098 353.213 353.213 0 0 1 26.419-23.703 361.318 361.318 0 0 0 35.757-33.811c10.642-11.652 17.639-23.046 20.991-34.184a122.856 122.856 0 0 0 5.321-37.243 86.65 86.65 0 0 0-2.315-20.191 39.885 39.885 0 0 0-7.769-17.105 50.539 50.539 0 0 0-24.875-18.276 90.235 90.235 0 0 0-32.644-5.826 109.875 109.875 0 0 0-26.046 3.113 56.136 56.136 0 0 0-21.284 10.108 50.546 50.546 0 0 0-16.309 20.59 67.644 67.644 0 0 0-4.656 27.587h-111.98a203.356 203.356 0 0 1 23.705-76.162 149.83 149.83 0 0 1 49.379-54.402 176.095 176.095 0 0 1 48.953-22.558 192.61 192.61 0 0 1 53.635-7.768 247.445 247.445 0 0 1 83.566 13.993 150.153 150.153 0 0 1 91.335 91.219 154.502 154.502 0 0 1 9.338 52.459 156.94 156.94 0 0 1-18.969 76.987 319.73 319.73 0 0 1-47.038 64.51c-8.034 8.531-15.289 16.042-21.763 22.532-6.473 6.491-12.176 12.45-17.106 17.877a137.826 137.826 0 0 0-13.303 17.105c-7.272 11.918-11.706 21.672-13.302 29.263a176.105 176.105 0 0 0-2.342 33.04l-111.82-.186z"/><path fill="#fff" stroke="#010101" stroke-miterlimit="10" stroke-width=".75" d="M263.394 657.997V546.082H374.55v111.915H263.394zm-.798-151.632a229.198 229.198 0 0 1 5.853-51.29 175.864 175.864 0 0 1 18.251-46.633 116.167 116.167 0 0 1 20.991-31.098 353.19 353.19 0 0 1 26.419-23.703 361.324 361.324 0 0 0 35.757-33.811c10.642-11.652 17.639-23.056 20.991-34.211a121.85 121.85 0 0 0 5.321-37.243 87.064 87.064 0 0 0-2.341-20.218 39.897 39.897 0 0 0-7.768-17.078 50.558 50.558 0 0 0-24.876-18.276 90.256 90.256 0 0 0-32.644-5.826 110.05 110.05 0 0 0-26.047 3.113 56.367 56.367 0 0 0-21.283 10.082 50.73 50.73 0 0 0-16.336 20.617 67.576 67.576 0 0 0-4.603 27.693H148.328a202.764 202.764 0 0 1 23.732-76.163 149.823 149.823 0 0 1 49.352-54.428 176.233 176.233 0 0 1 48.979-22.532 191.577 191.577 0 0 1 53.636-7.768 246.625 246.625 0 0 1 83.539 13.993 149.997 149.997 0 0 1 91.335 91.326 154.251 154.251 0 0 1 9.338 52.459 156.932 156.932 0 0 1-18.969 76.881 321.393 321.393 0 0 1-47.091 64.563c-8.035 8.531-15.298 16.041-21.789 22.532-6.199 6.225-11.919 12.184-17.081 17.877a136.217 136.217 0 0 0-13.302 17.105c-7.272 11.918-11.706 21.628-13.302 29.13a176.428 176.428 0 0 0-2.315 33.039l-111.794-.132z"/><path fill="#fff" stroke="#010101" stroke-miterlimit="10" stroke-width=".75" d="M266.055 663.477V551.588H377.21v111.889H266.055zm-.771-151.633a231.028 231.028 0 0 1 5.826-51.209 177.103 177.103 0 0 1 18.251-46.634 116.42 116.42 0 0 1 20.991-31.071 348.824 348.824 0 0 1 26.446-23.703 367.347 367.347 0 0 0 35.757-33.811c10.642-11.687 17.63-23.091 20.964-34.211a121.85 121.85 0 0 0 5.321-37.243 85.65 85.65 0 0 0-2.341-20.217 39.607 39.607 0 0 0-7.769-17.106 50.553 50.553 0 0 0-24.875-18.249 90.264 90.264 0 0 0-32.511-5.773 111.58 111.58 0 0 0-26.047 3.086 56.617 56.617 0 0 0-21.283 10.109 50.972 50.972 0 0 0-16.336 20.617 68.025 68.025 0 0 0-4.736 27.374H151.016a203.468 203.468 0 0 1 23.705-76.189 149.953 149.953 0 0 1 49.352-54.162 176.211 176.211 0 0 1 48.979-22.532 191.563 191.563 0 0 1 53.636-7.768 246.881 246.881 0 0 1 83.566 13.993 150.21 150.21 0 0 1 91.334 91.325 154.999 154.999 0 0 1 9.312 52.46 156.571 156.571 0 0 1-18.969 76.8 320.628 320.628 0 0 1-47.091 64.404c-8.035 8.566-15.289 16.086-21.763 22.559-6.225 6.207-11.928 12.166-17.107 17.877a135.95 135.95 0 0 0-13.302 17.078c-7.272 11.918-11.706 21.672-13.303 29.263a173.526 173.526 0 0 0-2.341 33.04l-111.74-.107z"/><path fill="#fff" stroke="#010101" stroke-miterlimit="10" stroke-width=".75" d="M268.715 669.011V557.069h111.156v111.915l-111.156.027zm-.771-151.633a231.09 231.09 0 0 1 5.826-51.236 176.797 176.797 0 0 1 18.278-46.633 115.773 115.773 0 0 1 20.965-31.072 353.106 353.106 0 0 1 26.445-23.729 358.292 358.292 0 0 0 35.757-33.758c10.642-11.652 17.639-23.047 20.991-34.184a122.83 122.83 0 0 0 5.321-37.243 86.81 86.81 0 0 0-2.315-20.191 39.9 39.9 0 0 0-7.795-17.106 50.68 50.68 0 0 0-24.875-18.275 90.022 90.022 0 0 0-32.538-6.012 110.197 110.197 0 0 0-26.046 3.112 56.614 56.614 0 0 0-21.284 10.109 51.056 51.056 0 0 0-16.336 20.59 68.195 68.195 0 0 0-4.656 27.587H153.676a203.355 203.355 0 0 1 23.705-76.163 149.988 149.988 0 0 1 49.352-54.401 176.204 176.204 0 0 1 48.98-22.532 191.562 191.562 0 0 1 53.635-7.768 247.449 247.449 0 0 1 83.566 13.966 150.368 150.368 0 0 1 91.335 91.326 154.49 154.49 0 0 1 9.311 52.486 156.944 156.944 0 0 1-18.969 76.987 321.918 321.918 0 0 1-47.037 64.51c-8.035 8.566-15.289 16.077-21.763 22.532-6.474 6.455-12.176 12.414-17.107 17.877a140.737 140.737 0 0 0-13.303 17.105c-7.236 11.918-11.67 21.672-13.302 29.262a173.374 173.374 0 0 0-2.341 33.04l-111.794-.186z"/><path fill="#fff" stroke="#010101" stroke-miterlimit="10" stroke-width=".75" d="M271.376 674.517V562.575h111.155v111.942H271.376zm-.772-151.632a231.024 231.024 0 0 1 5.826-51.236 176.817 176.817 0 0 1 18.278-46.634 115.36 115.36 0 0 1 20.991-31.098 353.398 353.398 0 0 1 26.419-23.702 358.281 358.281 0 0 0 35.757-33.812c10.642-11.652 17.639-23.046 20.991-34.184a122.825 122.825 0 0 0 5.321-37.243 86.702 86.702 0 0 0-2.314-20.191 39.909 39.909 0 0 0-7.769-17.105 50.762 50.762 0 0 0-24.876-18.276 90.29 90.29 0 0 0-32.671-5.826 109.767 109.767 0 0 0-26.019 3.113 56.544 56.544 0 0 0-21.284 10.108 50.55 50.55 0 0 0-16.309 20.591 68.098 68.098 0 0 0-4.682 27.586H156.336a203.356 203.356 0 0 1 23.705-76.162 149.594 149.594 0 0 1 49.379-54.402 175.29 175.29 0 0 1 48.953-22.532 191.555 191.555 0 0 1 53.635-7.794 247.444 247.444 0 0 1 83.566 14.046 150.163 150.163 0 0 1 91.335 91.325 154.496 154.496 0 0 1 9.338 52.327 156.941 156.941 0 0 1-18.996 76.96 320.784 320.784 0 0 1-47.037 64.51c-8.035 8.531-15.289 16.042-21.763 22.533-6.474 6.49-12.176 12.449-17.107 17.876a137.893 137.893 0 0 0-13.302 17.105c-7.272 11.918-11.707 21.672-13.303 29.263a175.573 175.573 0 0 0-2.341 33.013l-111.794-.159z"/><path fill="#fff" stroke="#010101" stroke-miterlimit="10" stroke-width=".75" d="M274.036 679.997V568.082h111.182v111.915H274.036zm-.772-151.632a230.86 230.86 0 0 1 5.827-51.103 176.78 176.78 0 0 1 18.277-46.634 115.375 115.375 0 0 1 20.991-31.098 353.398 353.398 0 0 1 26.419-23.702 361.334 361.334 0 0 0 35.757-33.812c10.642-11.652 17.639-23.055 20.991-34.21a122.637 122.637 0 0 0 5.454-37.243 87.052 87.052 0 0 0-2.341-20.218 39.907 39.907 0 0 0-7.768-17.079 50.55 50.55 0 0 0-24.876-18.275 90.235 90.235 0 0 0-32.644-5.826 110.05 110.05 0 0 0-26.047 3.112 56.141 56.141 0 0 0-21.283 10.109 50.54 50.54 0 0 0-16.309 20.59 67.554 67.554 0 0 0-4.656 27.587h-112.06a203.355 203.355 0 0 1 23.705-76.163 149.827 149.827 0 0 1 49.379-54.401 176.094 176.094 0 0 1 48.953-22.559 192.632 192.632 0 0 1 53.635-7.768 246.707 246.707 0 0 1 83.566 13.78 150.149 150.149 0 0 1 91.335 91.326 154.506 154.506 0 0 1 9.338 52.459 156.944 156.944 0 0 1-18.996 77.014 320.44 320.44 0 0 1-47.037 64.51c-8.035 8.531-15.289 16.041-21.763 22.532-6.199 6.225-11.919 12.184-17.08 17.877a133.656 133.656 0 0 0-13.303 17.105c-7.272 11.918-11.706 21.628-13.302 29.13a176.428 176.428 0 0 0-2.315 33.039l-111.847-.079z"/><circle cx="491.5" cy="178.5" r="136.5" fill="#005EFF"/><path fill="#fff" stroke="#010101" stroke-miterlimit="10" stroke-width=".75" d="M276.723 685.504V573.588h111.155v111.916H276.723zm-.798-151.633a230.667 230.667 0 0 1 5.827-51.289 175.55 175.55 0 0 1 18.25-46.633 116.17 116.17 0 0 1 20.992-31.098 353.176 353.176 0 0 1 26.418-23.703 361.33 361.33 0 0 0 35.757-33.811c10.642-11.652 17.639-23.056 20.992-34.211a121.85 121.85 0 0 0 5.454-37.243 85.614 85.614 0 0 0-2.342-20.218 39.9 39.9 0 0 0-7.768-17.105 50.55 50.55 0 0 0-24.876-18.249 90.235 90.235 0 0 0-32.644-5.826 110.25 110.25 0 0 0-26.046 3.112 56.166 56.166 0 0 0-21.284 10.083 50.735 50.735 0 0 0-16.336 20.616 68.022 68.022 0 0 0-4.655 27.587h-111.98a202.148 202.148 0 0 1 23.705-76.162 149.823 149.823 0 0 1 49.352-54.428 176.17 176.17 0 0 1 48.979-22.532 191.547 191.547 0 0 1 53.636-7.768 246.607 246.607 0 0 1 83.539 13.992 149.996 149.996 0 0 1 91.335 91.326 154.285 154.285 0 0 1 9.338 52.46 156.781 156.781 0 0 1-18.996 76.96 319.886 319.886 0 0 1-47.011 64.51c-8.034 8.566-15.289 16.086-21.762 22.559-6.226 6.225-11.92 12.157-17.108 17.877a136.217 136.217 0 0 0-13.302 17.105c-7.272 11.918-11.706 21.627-13.302 29.129a176.445 176.445 0 0 0-2.315 33.04l-111.847-.08z"/><path fill="#fff" stroke="#010101" stroke-miterlimit="10" stroke-width=".75" d="M279.383 691.01V579.095h111.156V691.01H279.383zm-.771-151.632a231.07 231.07 0 0 1 5.8-51.236 177.09 177.09 0 0 1 18.251-46.634 116.42 116.42 0 0 1 20.991-31.071 342.484 342.484 0 0 1 26.472-23.623 367.357 367.357 0 0 0 35.757-33.812c10.642-11.669 17.639-23.073 20.991-34.21a122.67 122.67 0 0 0 5.321-37.243 85.549 85.549 0 0 0-2.341-20.218 39.478 39.478 0 0 0-7.769-17.105 50.541 50.541 0 0 0-24.875-18.249 90.254 90.254 0 0 0-32.645-5.853 110.198 110.198 0 0 0-26.046 3.113 56.621 56.621 0 0 0-21.284 10.109 51.038 51.038 0 0 0-16.335 20.59 68.217 68.217 0 0 0-4.656 27.613h-111.9a203.486 203.486 0 0 1 23.705-76.189 150.192 150.192 0 0 1 49.352-54.401 176.214 176.214 0 0 1 48.979-22.533 191.587 191.587 0 0 1 53.636-7.767 246.913 246.913 0 0 1 83.566 13.992 150.202 150.202 0 0 1 91.335 91.326 154.997 154.997 0 0 1 9.311 52.459 156.62 156.62 0 0 1-18.996 76.801 320.613 320.613 0 0 1-47.011 64.51c-8.034 8.566-15.288 16.086-21.762 22.559-6.226 6.207-11.928 12.166-17.107 17.877a135.864 135.864 0 0 0-13.303 17.078c-7.236 11.918-11.671 21.672-13.302 29.263a173.363 173.363 0 0 0-2.341 33.04l-111.794-.186z"/><path fill="#fff" stroke="#010101" stroke-miterlimit="10" stroke-width=".75" d="M282.047 696.517V584.601h111.156v111.916H282.047zm-.771-151.633a231.018 231.018 0 0 1 5.8-51.236 176.76 176.76 0 0 1 18.277-46.633 115.96 115.96 0 0 1 20.965-31.098c7.804-7.768 16.619-15.669 26.445-23.703a358.047 358.047 0 0 0 35.757-33.811c10.642-11.652 17.639-23.047 20.992-34.184a122.86 122.86 0 0 0 5.321-37.243 86.756 86.756 0 0 0-2.315-20.191 39.533 39.533 0 0 0-7.795-17.106 50.679 50.679 0 0 0-24.876-18.275 90.04 90.04 0 0 0-32.644-5.826 109.82 109.82 0 0 0-26.02 3.112 56.546 56.546 0 0 0-21.284 10.109 50.554 50.554 0 0 0-16.309 20.59 68.188 68.188 0 0 0-4.682 27.587h-111.9a203.35 203.35 0 0 1 23.705-76.162 149.983 149.983 0 0 1 49.352-54.402 175.818 175.818 0 0 1 48.979-22.532 191.588 191.588 0 0 1 53.636-7.768 247.447 247.447 0 0 1 83.566 13.993 150.163 150.163 0 0 1 91.335 91.325 154.5 154.5 0 0 1 9.311 52.487 156.94 156.94 0 0 1-18.996 76.827 321.85 321.85 0 0 1-47.037 64.51c-8.035 8.548-15.289 16.059-21.763 22.532-6.474 6.473-12.176 12.432-17.107 17.877a137.819 137.819 0 0 0-13.302 17.105c-7.272 11.918-11.706 21.672-13.303 29.263a173.244 173.244 0 0 0-2.341 33.013l-111.767-.16z"/><path fill="#fff" stroke="#010101" stroke-miterlimit="10" stroke-width=".75" d="M284.708 702.024V590.081h111.155v111.943H284.708zm-.772-151.633a230.834 230.834 0 0 1 5.8-51.236 176.814 176.814 0 0 1 18.277-46.634 115.367 115.367 0 0 1 21.018-31.124 353.19 353.19 0 0 1 26.419-23.703 358.156 358.156 0 0 0 35.757-33.811c10.642-11.652 17.639-23.047 20.991-34.184a122.83 122.83 0 0 0 5.321-37.243 86.65 86.65 0 0 0-2.315-20.191 39.904 39.904 0 0 0-7.768-17.106 50.545 50.545 0 0 0-24.876-18.275 90.235 90.235 0 0 0-32.644-5.826 109.835 109.835 0 0 0-26.046 3.112 56.145 56.145 0 0 0-21.284 10.109 50.548 50.548 0 0 0-16.309 20.59 68.103 68.103 0 0 0-4.682 27.587H169.668a203.36 203.36 0 0 1 23.705-76.163 149.827 149.827 0 0 1 49.379-54.401 176.094 176.094 0 0 1 48.953-22.559 192.624 192.624 0 0 1 53.635-7.901 247.468 247.468 0 0 1 83.566 13.993 150.149 150.149 0 0 1 91.335 91.326 154.502 154.502 0 0 1 9.338 52.459 156.95 156.95 0 0 1-19.022 77.04 320.796 320.796 0 0 1-47.038 64.511c-8.035 8.548-15.289 16.059-21.763 22.532-6.474 6.473-12.176 12.432-17.107 17.876a137.829 137.829 0 0 0-13.302 17.106c-7.272 11.918-11.706 21.672-13.303 29.262a175.573 175.573 0 0 0-2.341 33.013l-111.767-.159z"/><path fill="#fff" stroke="#010101" stroke-miterlimit="10" stroke-width=".75" d="M287.394 707.504V595.589H398.55v111.915H287.394zm-.798-151.632a230.722 230.722 0 0 1 5.8-51.21 176.763 176.763 0 0 1 18.278-46.633 116.143 116.143 0 0 1 20.991-31.098 352.992 352.992 0 0 1 26.419-23.703 361.435 361.435 0 0 0 35.757-33.811c10.641-11.652 17.639-23.056 20.991-34.211a122.668 122.668 0 0 0 5.454-37.243 87.172 87.172 0 0 0-2.341-20.218 39.91 39.91 0 0 0-7.769-17.078 50.547 50.547 0 0 0-24.876-18.276 90.256 90.256 0 0 0-32.644-5.826 110.043 110.043 0 0 0-26.046 3.113 56.02 56.02 0 0 0-21.284 10.109 50.532 50.532 0 0 0-16.335 20.59 67.558 67.558 0 0 0-4.576 27.533H172.328a202.777 202.777 0 0 1 23.732-76.029 149.823 149.823 0 0 1 49.352-54.428 176.217 176.217 0 0 1 48.979-22.719A191.625 191.625 0 0 1 348 136.966a246.685 246.685 0 0 1 83.566 13.993 150.149 150.149 0 0 1 91.335 91.326 154.255 154.255 0 0 1 9.338 52.459 156.942 156.942 0 0 1-19.022 77.014 320.511 320.511 0 0 1-47.038 64.51c-7.999 8.548-15.253 16.059-21.763 22.532-6.198 6.225-11.919 12.184-17.08 17.877a136.03 136.03 0 0 0-13.302 17.105c-7.272 11.918-11.707 21.672-13.303 29.263a176.602 176.602 0 0 0-2.315 33.04l-111.82-.213z"/><path fill="#fff" stroke="#010101" stroke-miterlimit="10" stroke-width=".75" d="M290.055 713.011V601.095H401.21v111.916H290.055zm-.771-151.633a231.064 231.064 0 0 1 5.773-51.236 177.103 177.103 0 0 1 18.251-46.634 116.42 116.42 0 0 1 20.991-31.071 348.81 348.81 0 0 1 26.445-23.703 367.118 367.118 0 0 0 35.757-33.811c10.642-11.669 17.631-23.073 20.965-34.21a121.855 121.855 0 0 0 5.454-37.243 85.653 85.653 0 0 0-2.341-20.218 39.603 39.603 0 0 0-7.769-17.105 50.55 50.55 0 0 0-24.875-18.25 90.264 90.264 0 0 0-32.645-5.825c-8.773 0-17.515 1.036-26.046 3.085a56.621 56.621 0 0 0-21.284 10.109 50.97 50.97 0 0 0-16.335 20.617 68.036 68.036 0 0 0-4.55 27.533H175.016a203.467 203.467 0 0 1 23.705-76.215 149.958 149.958 0 0 1 49.352-54.402 176.227 176.227 0 0 1 48.979-22.532 191.583 191.583 0 0 1 53.636-7.768 246.893 246.893 0 0 1 83.566 13.993 150.2 150.2 0 0 1 91.334 91.326 154.993 154.993 0 0 1 9.312 52.459 156.562 156.562 0 0 1-19.022 76.96 320.658 320.658 0 0 1-47.011 64.511c-8.035 8.566-15.289 16.085-21.763 22.559-6.226 6.207-11.928 12.166-17.107 17.876a135.894 135.894 0 0 0-13.303 17.079c-7.272 11.918-11.706 21.672-13.302 29.262a176.102 176.102 0 0 0-2.315 33.04l-111.793-.186z"/></svg>