<svg xmlns="http://www.w3.org/2000/svg" fill="none" viewBox="0 0 670 774"><path fill="#fff" stroke="#010101" stroke-miterlimit="10" d="M355.6 597v16a8 8 0 0 1-7.6 7.7H246.2a7.6 7.6 0 0 1-7.6-7.6v-16.2a7.6 7.6 0 0 1 2.2-5.4 7.6 7.6 0 0 1 5.4-2.2H348a7.6 7.6 0 0 1 5.4 2.2 7.6 7.6 0 0 1 1.7 2.5 7.6 7.6 0 0 1 .5 3z"/><path fill="#fff" stroke="#010101" stroke-miterlimit="10" d="M360.6 604v16a8 8 0 0 1-7.6 7.7H251a7.6 7.6 0 0 1-7.7-7.7v-16a7.6 7.6 0 0 1 4.7-7 7.6 7.6 0 0 1 3-.6h102a7.6 7.6 0 0 1 5.4 2.2 7.6 7.6 0 0 1 2.2 5.4z"/><path fill="#fff" stroke="#010101" stroke-miterlimit="10" d="M365.6 611v16a8 8 0 0 1-2.3 5.4 8 8 0 0 1-5.3 2.3H255.7a7.6 7.6 0 0 1-5.4-2.2 7.6 7.6 0 0 1-2.2-5.5v-16a7.6 7.6 0 0 1 2.2-5.4 7.6 7.6 0 0 1 5.4-2.2H358a7.6 7.6 0 0 1 7.6 7.6z"/><path fill="#fff" stroke="#010101" stroke-miterlimit="10" d="M370.7 617.8v16.3a8 8 0 0 1-7.7 7.7H260.5a7.6 7.6 0 0 1-7.1-4.7 7.6 7.6 0 0 1-.6-3v-16.3a7.6 7.6 0 0 1 2.2-5.4 7.6 7.6 0 0 1 5.5-2.2H363a7.6 7.6 0 0 1 5.4 2.2 7.6 7.6 0 0 1 2.3 5.4zm-4.3-466.5a35.6 35.6 0 0 1-13.3-2.7l-72.2-30a31.7 31.7 0 0 1-17.7-17.4 31.8 31.8 0 0 1 .2-24.8 32.8 32.8 0 0 1 18.4-17 33.5 33.5 0 0 1 25.5.4l72.2 30a31.7 31.7 0 0 1 17.7 17.4 31.8 31.8 0 0 1-.2 24.8 32.8 32.8 0 0 1-18.4 17 26.2 26.2 0 0 1-12.2 2.3zm-10.7 385.3v-16.1a7.5 7.5 0 0 0-7.6-7.6H246.4a7.5 7.5 0 0 0-5.5 2.2 7.5 7.5 0 0 0-2.2 5.4v16.1a7.8 7.8 0 0 0 7.7 8H348a7.5 7.5 0 0 0 7.2-5c.4-.9.5-2 .5-3zm0 34.7V555a7.6 7.6 0 0 0-7.6-7.6H246.4a7.5 7.5 0 0 0-5.5 2.2 7.5 7.5 0 0 0-2.2 5.4v16.2a7.8 7.8 0 0 0 7.7 8H348a8 8 0 0 0 5.4-2.5 8 8 0 0 0 2.3-5.5zm-97.5-150.6H229c0-2 .2-2.5.2-3.8a40.8 40.8 0 0 0-2.7-20.2c-3.1-7.1-5.8-8-10.6-10.3a54.8 54.8 0 0 1-11.7-5.8 28.3 28.3 0 0 1-11.2-26 22.7 22.7 0 0 1 12.5-18.9c19.3-8 55.6 14.4 65 28.3a91.7 91.7 0 0 1 14 51.6 19.2 19.2 0 0 0 .6 5h-26.8zm76.7 0h-26s-.4-4.2-.4-6a27.3 27.3 0 0 1 .5-5.8 99.3 99.3 0 0 1 9.4-43.6l-105.8-44a31.8 31.8 0 0 1-17.7-17.3 31.8 31.8 0 0 1 .2-24.8 34 34 0 0 1 12.6-14.2 34 34 0 0 1 18.3-5.1c4.6 0 9.2.9 13.5 2.6l142.1 59.3a31.8 31.8 0 0 1 17.7 17.3 31.8 31.8 0 0 1-.2 24.9 34.5 34.5 0 0 1-11.4 13.3 34.4 34.4 0 0 1-16.4 6 24.6 24.6 0 0 0-4.5 6.7 41.3 41.3 0 0 0-2.6 20.2 35.3 35.3 0 0 1-.5 10.4h-28.8zm32.8-115a35.7 35.7 0 0 1-13.3-2.7L212 244.2a31.8 31.8 0 0 1-10.6-6.9 31.8 31.8 0 0 1-6.9-35.3 33.8 33.8 0 0 1 18.7-17.2 33.8 33.8 0 0 1 25.3.6l142.1 59.2a31.7 31.7 0 0 1 17.7 17.4 31.8 31.8 0 0 1-.2 24.8 33.8 33.8 0 0 1-12.5 13.8 33.8 33.8 0 0 1-18 5zm0-77.4a35.7 35.7 0 0 1-13.3-2.6l-142.2-59.3a34.3 34.3 0 0 1-18-17.5 30.5 30.5 0 0 1 .5-24.2 33.8 33.8 0 0 1 18.7-17.2 33.8 33.8 0 0 1 25.3.6l142.2 59.2a31.7 31.7 0 0 1 17.6 17.4 31.8 31.8 0 0 1-.2 24.8 32.7 32.7 0 0 1-18.4 17 55.9 55.9 0 0 1-12.2 2v-.2zM339.9 510h-87c-27.3 0-49.3-21.1-49.3-47.2v-42h186.1v42c0 25.6-22.4 47.2-49.8 47.2z"/><path fill="#fff" stroke="#010101" stroke-miterlimit="10" d="M371.4 157.2a36.3 36.3 0 0 1-13.5-2.7l-72.3-30.2a31.8 31.8 0 0 1-17.8-17.4 31.9 31.9 0 0 1 .2-24.8A32.8 32.8 0 0 1 286.5 65a33.6 33.6 0 0 1 25.6.4l72.4 30.2a31.8 31.8 0 0 1 17.7 17.4 31.8 31.8 0 0 1-.2 24.8 33 33 0 0 1-18.5 17.1 26.8 26.8 0 0 1-12.1 2.3zm-10.7 386.2v-16.2a7.6 7.6 0 0 0-7.6-7.7h-102a7.6 7.6 0 0 0-5.4 2.2 7.6 7.6 0 0 0-2.2 5.5v16.2a7.8 7.8 0 0 0 2.1 5.6 7.8 7.8 0 0 0 5.5 2.4h102a7.6 7.6 0 0 0 7.7-8zm0 34.6v-16.2a7.6 7.6 0 0 0-.5-2.9 7.6 7.6 0 0 0-4.2-4.1 7.6 7.6 0 0 0-2.9-.6h-102a7.6 7.6 0 0 0-7.6 7.6V578a7.8 7.8 0 0 0 2.1 5.6 7.8 7.8 0 0 0 5.5 2.4h102a8.1 8.1 0 0 0 7.7-7.9zM263 427h-29.3l.1-3.7a41.3 41.3 0 0 0-2.6-20.2c-3.2-7.2-5.9-8-10.8-10.4a54.8 54.8 0 0 1-11.7-5.8 28.4 28.4 0 0 1-11.2-26 22.7 22.7 0 0 1 12.6-19c19.3-8 55.7 14.4 65.1 28.4a91.5 91.5 0 0 1 14 51.7 20.5 20.5 0 0 0 .6 5H263zm76.9 0h-26s-.5-4.1-.5-6a27.5 27.5 0 0 1 .4-5.8 99.6 99.6 0 0 1 9.5-43.6l-106-44a31.8 31.8 0 0 1-17.8-17.4 31.8 31.8 0 0 1 .2-24.9 34 34 0 0 1 12.7-14.1 34 34 0 0 1 18.3-5.2c4.7 0 9.2 1 13.5 2.7L386.6 328a32 32 0 0 1 17.7 17.4 32 32 0 0 1-.1 24.9 34.6 34.6 0 0 1-11.4 13.3 34.6 34.6 0 0 1-16.5 6 24.5 24.5 0 0 0-4.5 6.7 41.5 41.5 0 0 0-2.7 20.3 35.4 35.4 0 0 1-.4 10.5l-28.8-.2zm32.8-115.2a36.2 36.2 0 0 1-13.4-2.7l-142.5-59a31.8 31.8 0 0 1-17.8-17.3 31.9 31.9 0 0 1 .2-24.9 34 34 0 0 1 18.7-17.2 33.9 33.9 0 0 1 25.4.6l142.5 59.3a31.8 31.8 0 0 1 17.7 17.5 31.9 31.9 0 0 1-.2 24.8 34 34 0 0 1-12.6 13.9 33.9 33.9 0 0 1-18 5.1v-.1zm0-77.3a35.6 35.6 0 0 1-13.4-2.7l-142.5-59.3a34.4 34.4 0 0 1-18-17.6 30.5 30.5 0 0 1 .4-24.3 34 34 0 0 1 18.7-17.2 33.9 33.9 0 0 1 25.4.6l142.5 59.3a32 32 0 0 1 20 30 32 32 0 0 1-2.5 12.3 32.9 32.9 0 0 1-18.4 17.1 55.7 55.7 0 0 1-12.1 1.8zm-27.8 282h-87.2a48.3 48.3 0 0 1-49.4-47.2v-42.1h186.4v42.1c0 25.7-22.4 47.3-49.8 47.3z"/><path fill="#fff" stroke="#010101" stroke-miterlimit="10" d="M376.4 163a36 36 0 0 1-13.5-2.6l-72.5-30.2a32 32 0 0 1-17.7-17.5 32 32 0 0 1 .1-25 33 33 0 0 1 18.5-17 33.8 33.8 0 0 1 25.7.4l72.5 30.2a32 32 0 0 1 17.7 17.5 32 32 0 0 1-.1 24.9 33 33 0 0 1-18.5 17.1 26.8 26.8 0 0 1-12.2 2.2zm-10.6 387.1V534a7.6 7.6 0 0 0-7.7-7.7H256a7.6 7.6 0 0 0-5.5 2.2 7.6 7.6 0 0 0-2.2 5.5v16.3a7.8 7.8 0 0 0 2.2 5.6 7.8 7.8 0 0 0 5.5 2.4h102a7.6 7.6 0 0 0 5.6-2.4 7.6 7.6 0 0 0 2-5.6zm0 34.9v-16.1a7.6 7.6 0 0 0-7.7-7.7H255.8a7.5 7.5 0 0 0-5.4 2.2 7.6 7.6 0 0 0-2.3 5.5v16a8 8 0 0 0 7.7 8H358a8.2 8.2 0 0 0 7.7-8zm-98-151.4h-29.3c0-2 .2-2.4.2-3.7a41.1 41.1 0 0 0-2.7-20.3c-3.2-7.2-5.9-8-10.8-10.4a55.6 55.6 0 0 1-11.7-5.8 28.5 28.5 0 0 1-11.3-26.1 22.7 22.7 0 0 1 12.6-19c19.4-8 56 14.5 65.3 28.4a91.9 91.9 0 0 1 14 51.9 19.4 19.4 0 0 0 .6 5h-26.9zm77.1 0h-26.1s-.5-4.1-.5-6a27.6 27.6 0 0 1 .5-5.8 99.5 99.5 0 0 1 9.5-43.7L222 333.9a32 32 0 0 1-17.8-17.5 32 32 0 0 1 .2-24.9 34.1 34.1 0 0 1 12.7-14.2 34.1 34.1 0 0 1 18.4-5.2c4.6 0 9.2 1 13.5 2.7l142.7 59.5a32 32 0 0 1 17.8 17.5 32 32 0 0 1-.2 24.9 34.6 34.6 0 0 1-11.4 13.4 34.6 34.6 0 0 1-16.6 6 24.3 24.3 0 0 0-4.5 6.8 41.6 41.6 0 0 0-2.7 20.3 35.5 35.5 0 0 1-.4 10.4h-28.8zm32.9-115.5a36.4 36.4 0 0 1-13.5-2.7l-142.8-59a32 32 0 0 1-20.2-30A32 32 0 0 1 204 214a34 34 0 0 1 18.8-17.3 34 34 0 0 1 25.4.6L391 256.8a32 32 0 0 1 17.8 17.5 32 32 0 0 1-.2 24.9 34 34 0 0 1-12.6 13.9 34 34 0 0 1-18.1 5zm0-77.5a36.4 36.4 0 0 1-13.5-2.7l-142.8-59.5a34.3 34.3 0 0 1-18-17.6 30.5 30.5 0 0 1 .4-24.3 34 34 0 0 1 18.8-17.4 34 34 0 0 1 25.4.7L391 179.3a32 32 0 0 1 17.8 17.4 32 32 0 0 1-.2 25 33 33 0 0 1-18.5 17 58 58 0 0 1-12.2 1.9zm-28 282.5h-87.3a48.4 48.4 0 0 1-49.6-47.3v-42.2h187V476c0 25.7-22.6 47.3-50 47.3z"/><path fill="#fff" stroke="#010101" stroke-miterlimit="10" d="M381.4 169a36.2 36.2 0 0 1-13.5-2.6L295.2 136a32 32 0 0 1-17.8-17.5 32 32 0 0 1 .2-25 33 33 0 0 1 18.5-17.1 33.7 33.7 0 0 1 25.7.4l72.8 30.1a32 32 0 0 1 20.3 30 32 32 0 0 1-2.7 12.5 33 33 0 0 1-7.5 10.4 32.9 32.9 0 0 1-11 6.8 26.6 26.6 0 0 1-12.3 2.3zm-10.7 388v-16.3a7.6 7.6 0 0 0-2.3-5.5 7.6 7.6 0 0 0-5.4-2.2H260.6a7.6 7.6 0 0 0-5.5 2.2 7.6 7.6 0 0 0-2.2 5.5V557a8 8 0 0 0 7.7 8h102.5a7.6 7.6 0 0 0 3-.7 7.6 7.6 0 0 0 4.6-7.3zm0 34.9v-16.3a7.6 7.6 0 0 0-4.8-7.1 7.6 7.6 0 0 0-3-.6H260.7a7.6 7.6 0 0 0-3 .6 7.6 7.6 0 0 0-4.7 7v16.4a8 8 0 0 0 2.2 5.5 8 8 0 0 0 5.5 2.5h102.5a8.2 8.2 0 0 0 7.6-8zM272.5 440h-29.3l.1-3.7a41 41 0 0 0-2.6-20.4c-3.2-7.2-5.9-8-10.9-10.3a55.7 55.7 0 0 1-11.7-6c-8.1-5.3-12.2-15.7-11.3-26.1a22.8 22.8 0 0 1 3.8-11.2 22.7 22.7 0 0 1 8.9-7.8c19.4-8.1 55.9 14.5 65.4 28.5a92.2 92.2 0 0 1 14 52c0 1.6.2 3.3.6 5h-27zm77.2 0h-26.1s-.5-4.2-.5-6a27.8 27.8 0 0 1 .5-5.9 100 100 0 0 1 9.4-43.8l-106.5-44.2a32 32 0 0 1-10.7-7 32 32 0 0 1-9.5-23 32 32 0 0 1 2.6-12.5 34.1 34.1 0 0 1 12.8-14.3 34.1 34.1 0 0 1 18.5-5c4.6 0 9.2.8 13.5 2.6l143.1 59.6a32 32 0 0 1 20.2 30 32 32 0 0 1-2.6 12.5 34.6 34.6 0 0 1-11.4 13.4 34.6 34.6 0 0 1-16.6 6 24.7 24.7 0 0 0-4.5 6.8 41.6 41.6 0 0 0-2.6 20.3 35.6 35.6 0 0 1-.5 10.5h-29zm33-115.8a36.2 36.2 0 0 1-13.5-2.6l-143-59.4a32 32 0 0 1-17.9-17.5 32 32 0 0 1 .2-25 34 34 0 0 1 18.8-17.2 34 34 0 0 1 25.5.5l143 59.7a32 32 0 0 1 17.9 17.5 32 32 0 0 1-.2 25 34.1 34.1 0 0 1-12.6 13.9 34 34 0 0 1-18.1 5.1zm0-77.7a36.7 36.7 0 0 1-13.5-2.6L226 184.3a34.4 34.4 0 0 1-18.1-17.6 30.4 30.4 0 0 1 .5-24.4 34 34 0 0 1 18.7-17.3 34 34 0 0 1 25.5.6l143.1 59.6a32 32 0 0 1 17.8 17.5 32 32 0 0 1-.1 25 33 33 0 0 1-18.5 17.1 56.6 56.6 0 0 1-12.2 1.8zM354.8 530h-87.6a48.6 48.6 0 0 1-49.6-47.4V440h187.3v42.4c0 25.7-22.6 47.4-50 47.4z"/><circle cx="225.5" cy="549.5" r="176.5" fill="#FF7BFF"/><path fill="#fff" stroke="#010101" stroke-miterlimit="10" d="M375.6 615.9v16.3a8 8 0 0 1-7.7 7.7H265.2a7.6 7.6 0 0 1-7-4.8 7.6 7.6 0 0 1-.7-3V616a7.6 7.6 0 0 1 7.7-7.7H368a7.6 7.6 0 0 1 5.4 2.2 7.6 7.6 0 0 1 2.2 5.5z"/><path fill="#fff" stroke="#010101" stroke-miterlimit="10" d="M380.6 622.9v16.3a8 8 0 0 1-2.3 5.4 8 8 0 0 1-5.4 2.3H270a7.6 7.6 0 0 1-7.6-7.7v-16.3a7.7 7.7 0 0 1 2.2-5.5 7.6 7.6 0 0 1 5.5-2.2h103a7.6 7.6 0 0 1 5.4 2.2 7.6 7.6 0 0 1 2.2 5.5z"/><path fill="#fff" stroke="#010101" stroke-miterlimit="10" d="M385.6 629.8v16.4a8 8 0 0 1-7.7 7.7H274.8a7.7 7.7 0 0 1-5.5-2.3 7.7 7.7 0 0 1-2.2-5.4v-16.4a7.7 7.7 0 0 1 7.7-7.6h103.1a7.7 7.7 0 0 1 5.5 2.2 7.7 7.7 0 0 1 2.2 5.4z"/><path fill="#fff" stroke="#010101" stroke-miterlimit="10" d="M390.6 636.9v16.3a8 8 0 0 1-2.3 5.5 8 8 0 0 1-5.4 2.3H279.5a7.7 7.7 0 0 1-5.5-2.3 7.7 7.7 0 0 1-2.2-5.5V637a7.7 7.7 0 0 1 2.2-5.6 7.7 7.7 0 0 1 5.5-2.2H383a7.7 7.7 0 0 1 5.5 2.3 7.7 7.7 0 0 1 2.2 5.5z"/><path fill="#fff" stroke="#010101" stroke-miterlimit="10" d="M395.6 643.8v16.5a8 8 0 0 1-2.3 5.4 8 8 0 0 1-5.4 2.3H284.3a7.7 7.7 0 0 1-7.2-4.8 7.7 7.7 0 0 1-.6-3v-16.4a7.7 7.7 0 0 1 .6-3 7.7 7.7 0 0 1 7.2-4.7h103.6a7.7 7.7 0 0 1 7.2 4.8c.4.9.5 2 .5 3z"/><path fill="#fff" stroke="#010101" stroke-miterlimit="10" d="M400.6 650.8v16.5a8 8 0 0 1-2.3 5.4 8 8 0 0 1-5.4 2.4H289a7.7 7.7 0 0 1-5.5-2.3 7.7 7.7 0 0 1-2.3-5.5v-16.5a7.7 7.7 0 0 1 7.8-7.8h103.9a7.7 7.7 0 0 1 7.2 4.8c.4 1 .6 2 .5 3z"/><path fill="#fff" stroke="#010101" stroke-miterlimit="10" d="M405.6 657.8v16.5a8 8 0 0 1-7.8 7.8h-104a7.7 7.7 0 0 1-7.2-4.8 7.7 7.7 0 0 1-.6-3v-16.5a7.7 7.7 0 0 1 7.8-7.8h104a7.8 7.8 0 0 1 7.3 4.8 7.8 7.8 0 0 1 .5 3z"/><path fill="#fff" stroke="#010101" stroke-miterlimit="10" d="M410.6 664.8v16.6a8 8 0 0 1-7.8 7.8H298.5a7.7 7.7 0 0 1-5.5-2.3 7.7 7.7 0 0 1-1.7-2.6 7.7 7.7 0 0 1-.5-3v-16.5a7.8 7.8 0 0 1 4.8-7.2 7.8 7.8 0 0 1 3-.6h104.3a7.7 7.7 0 0 1 7.7 7.8z"/><path fill="#fff" stroke="#010101" stroke-miterlimit="10" d="M415.6 671.8v16.6a8 8 0 0 1-2.3 5.4 8 8 0 0 1-5.5 2.4H303.3a7.7 7.7 0 0 1-5.6-2.3 7.8 7.8 0 0 1-1.7-2.5 7.8 7.8 0 0 1-.5-3v-16.6a7.8 7.8 0 0 1 2.2-5.6 7.8 7.8 0 0 1 5.6-2.3h104.6a7.8 7.8 0 0 1 7.7 7.9z"/><path fill="#fff" stroke="#010101" stroke-miterlimit="10" d="M420.6 678.8v16.6a8 8 0 0 1-2.2 5.6 8 8 0 0 1-5.6 2.4H308a7.8 7.8 0 0 1-7.3-5 7.8 7.8 0 0 1-.5-3v-16.6a7.8 7.8 0 0 1 2.2-5.7 7.8 7.8 0 0 1 5.6-2.3h104.8a7.8 7.8 0 0 1 7.3 4.9c.4 1 .6 2 .5 3z"/><path fill="#fff" stroke="#010101" stroke-miterlimit="10" d="M425.7 685.7v16.7a8 8 0 0 1-2.4 5.6 8 8 0 0 1-5.6 2.3H312.8a7.8 7.8 0 0 1-7.9-7.9v-16.7a7.8 7.8 0 0 1 2.3-5.6 7.8 7.8 0 0 1 5.6-2.4h105a7.8 7.8 0 0 1 5.6 2.4 7.8 7.8 0 0 1 2.3 5.6z"/><path fill="#fff" stroke="#010101" stroke-miterlimit="10" d="M430.6 692.7v16.7a8 8 0 0 1-2.3 5.6 8 8 0 0 1-5.5 2.4H317.5a7.8 7.8 0 0 1-8-8v-16.7a7.8 7.8 0 0 1 8-8h105.3a7.8 7.8 0 0 1 7.3 5c.4 1 .6 2 .5 3zm-44.2-518a36.3 36.3 0 0 1-13.5-2.6L300 141.8a32 32 0 0 1-17.9-17.6 32 32 0 0 1 .3-25A33.2 33.2 0 0 1 301 81.8a34 34 0 0 1 25.8.5l72.9 30.3a32 32 0 0 1 17.9 17.6 32 32 0 0 1-.3 25 33 33 0 0 1-18.6 17.3 26.8 26.8 0 0 1-12.3 2.2zm-10.6 388.9v-16.3a7.7 7.7 0 0 0-2.3-5.5 7.6 7.6 0 0 0-5.5-2.3H265.3a7.7 7.7 0 0 0-5.4 2.3 7.7 7.7 0 0 0-2.3 5.4v16.3a8 8 0 0 0 2.3 5.6 8 8 0 0 0 5.4 2.4H368a7.6 7.6 0 0 0 5.6-2.3 7.6 7.6 0 0 0 2.1-5.7zm0 35v-16.4a7.7 7.7 0 0 0-2.2-5.5 7.6 7.6 0 0 0-5.5-2.2H265.3a7.6 7.6 0 0 0-5.4 2.2 7.7 7.7 0 0 0-2.3 5.5v16.3a8 8 0 0 0 7.7 8H368a8.2 8.2 0 0 0 5.4-2.5 8.2 8.2 0 0 0 2.3-5.4zm-98.6-152h-29.4c0-2 .2-2.4.2-3.7a41 41 0 0 0-2.7-20.4c-3.1-7.2-5.8-8.1-10.8-10.4a55.8 55.8 0 0 1-11.8-5.9c-8.1-5.3-12.2-16-11.3-26.2a22.8 22.8 0 0 1 3.8-11.3 22.8 22.8 0 0 1 9-7.8c19.4-8.1 56 14.5 65.6 28.6a92.5 92.5 0 0 1 14 52 19.5 19.5 0 0 0 .6 5.1h-27.1zm77.5 0h-26.2s-.5-4.1-.5-6a27.9 27.9 0 0 1 .5-5.8c.4-12.7 1.3-27.7 9.4-44l-106.7-44.3a32 32 0 0 1-20.4-30.2 32 32 0 0 1 2.7-12.5 34.2 34.2 0 0 1 31.3-19.5c4.6 0 9.2 1 13.5 2.7l143.5 59.8a32 32 0 0 1 10.7 7 32 32 0 0 1 9.6 23.1 32 32 0 0 1-2.7 12.5 34.8 34.8 0 0 1-11.4 13.4 34.8 34.8 0 0 1-16.6 6.1 24.5 24.5 0 0 0-4.5 6.8 41.7 41.7 0 0 0-2.7 20.4 35.8 35.8 0 0 1-.4 10.5h-29.1zm33-116a36.3 36.3 0 0 1-13.6-2.7l-143.4-59.3a32 32 0 0 1-17.9-17.5 32 32 0 0 1 .3-25.1 34.1 34.1 0 0 1 18.8-17.4 34 34 0 0 1 25.5.6L401 269a32 32 0 0 1 17.9 17.6 32 32 0 0 1-.3 25 34.2 34.2 0 0 1-12.7 13.9 34.1 34.1 0 0 1-18 5v.1zm0-77.9a36.3 36.3 0 0 1-13.6-2.6l-143.4-59.8a34.6 34.6 0 0 1-18-17.7 30.6 30.6 0 0 1 .4-24.4 34.1 34.1 0 0 1 18.8-17.4 34 34 0 0 1 25.5.6L401 191.2a32 32 0 0 1 10.7 7 32 32 0 0 1 9.6 23.1 32 32 0 0 1-2.7 12.5 33.1 33.1 0 0 1-18.7 17.2 57 57 0 0 1-12 1.7zm-28 283.9h-87.6a48.6 48.6 0 0 1-49.7-47.6v-42.4H410V489a49.5 49.5 0 0 1-50.3 47.6z"/><path fill="#fff" stroke="#010101" stroke-miterlimit="10" d="M391.5 180.7a36.3 36.3 0 0 1-13.6-2.7l-73-30.5a32.1 32.1 0 0 1-20.4-30 32.1 32.1 0 0 1 2.7-12.6 33 33 0 0 1 18.6-17.2 33.7 33.7 0 0 1 25.9.4l73 30.3a32 32 0 0 1 10.6 7 32.1 32.1 0 0 1 9.6 23.1 32.1 32.1 0 0 1-2.6 12.5 33.2 33.2 0 0 1-18.6 17.3 26.8 26.8 0 0 1-12.2 2.4zm-10.7 389.6V554a7.7 7.7 0 0 0-2.2-5.5 7.6 7.6 0 0 0-5.5-2.2h-103a7.6 7.6 0 0 0-5.5 2.2 7.7 7.7 0 0 0-2.2 5.5v16.3a8 8 0 0 0 7.7 8h103a7.7 7.7 0 0 0 7.6-8h.1zm0 35.1v-16.3a7.7 7.7 0 0 0-4.7-7.2 7.7 7.7 0 0 0-3-.5h-103a7.7 7.7 0 0 0-5.5 2.2 7.7 7.7 0 0 0-1.6 2.5 7.7 7.7 0 0 0-.6 3v16.3a8 8 0 0 0 2.2 5.6 8 8 0 0 0 5.5 2.4h103a8.2 8.2 0 0 0 7.6-8h.1zm-98.5-152.3h-29.7l.1-3.8a41.3 41.3 0 0 0-2.6-20.4c-3.2-7.3-6-8.2-11-10.4a56.6 56.6 0 0 1-11.7-6 28.6 28.6 0 0 1-11.4-26.3 22.9 22.9 0 0 1 12.7-19c19.5-8.2 56.2 14.5 65.8 28.6a92.7 92.7 0 0 1 14 52.2c0 1.7.2 3.4.7 5H282h.2zm77.6 0h-26.5s-.5-4.2-.5-6a28.1 28.1 0 0 1 .5-6c.4-12.6 1.3-27.6 9.5-44l-107-44.4a32 32 0 0 1-18-17.6 32 32 0 0 1 .3-25.1 34.3 34.3 0 0 1 12.8-14.3 34.3 34.3 0 0 1 18.5-5.2c4.6 0 9.3.9 13.6 2.7L406.9 353a32 32 0 0 1 17.9 17.5 32.1 32.1 0 0 1-.2 25.1 35 35 0 0 1-11.5 13.4 34.9 34.9 0 0 1-16.6 6.1 25 25 0 0 0-4.6 6.8 42 42 0 0 0-2.6 20.4c.3 3.6.2 7.2-.5 10.7h-29zm33-116.3a36.3 36.3 0 0 1-13.5-2.7l-143.8-59.4a32 32 0 0 1-18-17.6 32 32 0 0 1 .3-25 34.2 34.2 0 0 1 18.8-17.5 34.1 34.1 0 0 1 25.6.6l143.8 60a32 32 0 0 1 20.4 30 32 32 0 0 1-2.7 12.6 34.2 34.2 0 0 1-12.8 14 34.2 34.2 0 0 1-18.2 5h.2zm0-78a36.3 36.3 0 0 1-13.5-2.7l-143.8-60a34.6 34.6 0 0 1-18.2-17.6 30.5 30.5 0 0 1 .5-24.6 34.2 34.2 0 0 1 18.8-17.3 34.1 34.1 0 0 1 25.6.5l143.8 60a32 32 0 0 1 20.4 30 32 32 0 0 1-2.7 12.6 33.1 33.1 0 0 1-18.6 17.3 57 57 0 0 1-12.4 1.7h.2zm-28.2 284.5h-87.9a48.7 48.7 0 0 1-49.9-47.7v-42.5h188.2v42.5c0 25.9-22.7 47.7-50.4 47.7z"/><path fill="#fff" stroke="#010101" stroke-miterlimit="10" d="M396.5 186.5a36.5 36.5 0 0 1-13.6-2.6l-73.2-30.5a32.2 32.2 0 0 1-17.9-17.6 32.2 32.2 0 0 1 .2-25 33.4 33.4 0 0 1 18.6-17.3 34.1 34.1 0 0 1 25.9.4l73.2 30.5a32.2 32.2 0 0 1 17.8 17.6 32.2 32.2 0 0 1-.1 25 33.1 33.1 0 0 1-18.7 17.4 27 27 0 0 1-12.2 2.1zm-10.7 390.6v-16.4a7.7 7.7 0 0 0-2.2-5.5 7.7 7.7 0 0 0-5.5-2.2H274.8a7.7 7.7 0 0 0-7.2 4.7 7.7 7.7 0 0 0-.6 3v16.4a8 8 0 0 0 7.8 8h103.1a7.6 7.6 0 0 0 7.3-5 7.7 7.7 0 0 0 .5-3h.1zm0 35.1v-16.4a7.7 7.7 0 0 0-2.2-5.5 7.7 7.7 0 0 0-5.5-2.2H274.8a7.7 7.7 0 0 0-7.2 4.8 7.7 7.7 0 0 0-.6 3v16.3a8 8 0 0 0 7.8 8h103.1a8.2 8.2 0 0 0 7.8-8h.1zm-99-152.6h-29.5l.1-3.8a41.5 41.5 0 0 0-2.7-20.5c-3.1-7.2-5.9-8.1-10.8-10.4a55.6 55.6 0 0 1-11.9-6c-8.2-5.3-12.3-16-11.3-26.3a23 23 0 0 1 3.8-11.3 23 23 0 0 1 8.9-7.8c19.5-8.2 56.3 14.5 65.9 28.6a92.7 92.7 0 0 1 14 52.3 20 20 0 0 0 .7 5.2h-27zm77.8 0h-26.3s-.4-4.3-.4-6a28.2 28.2 0 0 1 .4-6c.5-12.7 1.4-27.7 9.6-44.1l-107.3-44.6a32.2 32.2 0 0 1-17.9-17.6 32.2 32.2 0 0 1 .2-25 34.4 34.4 0 0 1 31.3-19.6c4.7 0 9.3 1 13.7 2.7l144 60a32.2 32.2 0 0 1 17.9 17.6 32.2 32.2 0 0 1-.2 25 35 35 0 0 1-11.5 13.5 34.9 34.9 0 0 1-16.6 6.1 24.3 24.3 0 0 0-4.6 6.8 41.8 41.8 0 0 0-2.6 20.5 36.3 36.3 0 0 1-.5 10.7h-29.2zM397.8 343a36.6 36.6 0 0 1-13.6-2.7l-144-59.6a32.2 32.2 0 0 1-20.4-30.1 32.2 32.2 0 0 1 2.6-12.6 34.3 34.3 0 0 1 19-17.4 34.2 34.2 0 0 1 25.6.6l144 60a32.2 32.2 0 0 1 17.9 17.6 32.2 32.2 0 0 1-.2 25 34.3 34.3 0 0 1-12.7 14 34.3 34.3 0 0 1-18.2 5.2zm0-78.2a36.6 36.6 0 0 1-13.6-2.7l-144-60.1a34.6 34.6 0 0 1-18.2-17.7 30.7 30.7 0 0 1 .4-24.6 34.3 34.3 0 0 1 19-17.4 34.2 34.2 0 0 1 25.6.6l144 60a32.2 32.2 0 0 1 17.9 17.6 32.2 32.2 0 0 1-.2 25 33.2 33.2 0 0 1-18.6 17.4 57.7 57.7 0 0 1-12.3 1.9zM369.7 550h-88.2c-27.7 0-50-21.3-50-47.8v-42.6h188.6v42.6c0 26-22.8 47.8-50.4 47.8z"/><path fill="#fff" stroke="#010101" stroke-miterlimit="10" d="M401.5 192.4a36.8 36.8 0 0 1-13.7-2.6l-73.3-30.6a32.2 32.2 0 0 1-18-17.6 32.2 32.2 0 0 1 .2-25.2A33.3 33.3 0 0 1 315.4 99a34 34 0 0 1 26 .4l73.3 30.6a32.2 32.2 0 0 1 18 17.6 32.3 32.3 0 0 1-.3 25.2 33.3 33.3 0 0 1-18.6 17.3 26.8 26.8 0 0 1-12.3 2.2zm-10.8 391.4v-16.4a7.7 7.7 0 0 0-7.7-7.8H279.6a7.7 7.7 0 0 0-7.2 4.8 7.7 7.7 0 0 0-.6 3v16.4a8 8 0 0 0 7.8 8H383a7.7 7.7 0 0 0 5.6-2.3 7.7 7.7 0 0 0 2.1-5.7zm0 35.2v-16.4a7.7 7.7 0 0 0-2.2-5.5 7.7 7.7 0 0 0-5.5-2.2H279.6a7.7 7.7 0 0 0-5.5 2.2 7.7 7.7 0 0 0-2.3 5.5V619a8 8 0 0 0 7.8 8H383a8.3 8.3 0 0 0 7.7-8zm-99-153H262l.1-3.7a41.6 41.6 0 0 0-2.6-20.5c-3.2-7.3-6-8.2-11-10.5a55.7 55.7 0 0 1-11.8-6 28.7 28.7 0 0 1-11.4-26.4 23 23 0 0 1 3.8-11.3 23 23 0 0 1 9-7.8c19.5-8.2 56.4 14.5 66 28.7a92.9 92.9 0 0 1 14.1 52.4 20.2 20.2 0 0 0 .7 5.1h-27.2zm77.9 0h-26.4s-.5-4.2-.5-6a28.4 28.4 0 0 1 .5-6c.4-12.7 1.4-27.8 9.6-44.1l-107.5-44.7a32.3 32.3 0 0 1-20.4-30.3 32.3 32.3 0 0 1 2.6-12.6 34.5 34.5 0 0 1 12.9-14.4 34.4 34.4 0 0 1 18.5-5.2 36.3 36.3 0 0 1 13.7 2.7L417 365.6a32.2 32.2 0 0 1 18 17.6 32.3 32.3 0 0 1-.3 25.2 35 35 0 0 1-11.5 13.5 35 35 0 0 1-16.7 6.1 24.8 24.8 0 0 0-4.6 6.8 41.7 41.7 0 0 0-2.6 20.6c.4 3.5.2 7.1-.5 10.6h-29.2zm33.3-116.8a36.7 36.7 0 0 1-13.7-2.7l-144.4-59.7a32.2 32.2 0 0 1-10.8-7 32.3 32.3 0 0 1-7-35.8 34.4 34.4 0 0 1 19-17.5 34.3 34.3 0 0 1 25.7.6L416 287.3a32.2 32.2 0 0 1 18 17.6 32.3 32.3 0 0 1-.3 25.2 34.4 34.4 0 0 1-12.7 14 34.3 34.3 0 0 1-18.2 5.1zm0-78.4a36.2 36.2 0 0 1-13.7-2.6L244.8 208a34.8 34.8 0 0 1-18.2-17.8 31 31 0 0 1 .4-24.6 34.3 34.3 0 0 1 19-17.5 34.3 34.3 0 0 1 25.7.6L416 209a32.2 32.2 0 0 1 10.7 7 32.3 32.3 0 0 1 7 35.8 33.4 33.4 0 0 1-18.6 17.3 57.7 57.7 0 0 1-12.3 1.8zm-28.3 285.8h-88.3a49 49 0 0 1-50.1-48V466h189v42.6c0 26.1-22.8 48-50.6 48z"/><path fill="#fff" stroke="#010101" stroke-miterlimit="10" d="M406.5 198.3c-4.7 0-9.3-.9-13.7-2.6L319.3 165a32.3 32.3 0 0 1-20.4-30.4 32.3 32.3 0 0 1 2.6-12.6 33.4 33.4 0 0 1 18.7-17.3 34.2 34.2 0 0 1 26 .4l73.5 30.6a32.3 32.3 0 0 1 18 17.7 32.3 32.3 0 0 1-.2 25.3 33.4 33.4 0 0 1-18.6 17.3 26.9 26.9 0 0 1-12.4 2.2zm-10.6 392.3v-16.4a7.7 7.7 0 0 0-7.8-7.8H284.5a7.7 7.7 0 0 0-7.2 4.8 7.7 7.7 0 0 0-.6 3v16.4a8 8 0 0 0 7.8 8H388a7.7 7.7 0 0 0 7.2-5 7.7 7.7 0 0 0 .4-3h.1zm0 35.3v-16.4a7.7 7.7 0 0 0-2.3-5.6 7.7 7.7 0 0 0-5.5-2.2H284.5a7.7 7.7 0 0 0-3 .6 7.7 7.7 0 0 0-4.2 4.2 7.7 7.7 0 0 0-.6 3v16.4a8 8 0 0 0 7.8 8h103.6a8.2 8.2 0 0 0 7.6-8h.2zm-99.3-153.3h-29.8l.1-3.8a41.5 41.5 0 0 0-2.6-20.6c-3.2-7.3-6-8.2-11-10.5a58.2 58.2 0 0 1-11.8-6 28.7 28.7 0 0 1-11.4-26.4 23 23 0 0 1 12.7-19.2c19.7-8.2 56.6 14.6 66.2 28.8 12.8 19.6 13.7 37.3 14.2 52.5a19 19 0 0 0 .6 5.2h-27.4.2zm78.1 0h-26.4s-.5-4.3-.5-6.1c0-2 0-4 .5-6a101 101 0 0 1 9.5-44.2l-107.7-44.8a32.3 32.3 0 0 1-18-17.7 32.4 32.4 0 0 1-2.6-12.7c0-4.3 1-8.6 2.7-12.6a34.6 34.6 0 0 1 12.9-14.4 34.6 34.6 0 0 1 18.6-5.2 36.8 36.8 0 0 1 13.7 2.6L422 371.8a32.3 32.3 0 0 1 18 17.7 32.3 32.3 0 0 1-.2 25.3 35.1 35.1 0 0 1-28.3 19.7 24.4 24.4 0 0 0-4.6 6.8 42.4 42.4 0 0 0-2.6 20.6c.4 3.5.2 7.1-.5 10.6h-29.2zm33.2-117.1a36.8 36.8 0 0 1-13.6-2.7l-144.7-59.9a32.3 32.3 0 0 1-18-17.6 32.3 32.3 0 0 1 .1-25.3 34.4 34.4 0 0 1 19-17.5 34.4 34.4 0 0 1 25.8.6l144.8 60.2a32.3 32.3 0 0 1 18 17.7 32.4 32.4 0 0 1-.3 25.3 34.5 34.5 0 0 1-12.8 14 34.4 34.4 0 0 1-18.3 5.2zm0-78.6a36.2 36.2 0 0 1-13.6-2.7L249.6 214a34.6 34.6 0 0 1-18.3-17.8 30.9 30.9 0 0 1 .4-24.7 34.4 34.4 0 0 1 19-17.5 34.4 34.4 0 0 1 25.8.6l144.8 60.2a32.3 32.3 0 0 1 18 17.7 32.4 32.4 0 0 1-.3 25.3 33.4 33.4 0 0 1-18.6 17.3A56.1 56.1 0 0 1 408 277zm-28.3 286.4H291a49 49 0 0 1-50.2-48v-42.8h189.5v42.8c0 26-22.9 48-50.7 48z"/><path fill="#fff" stroke="#010101" stroke-miterlimit="10" d="M411.5 204.2a36.7 36.7 0 0 1-13.7-2.7L324.2 171a32.4 32.4 0 0 1-18-17.8 32.4 32.4 0 0 1 .1-25.3 33.6 33.6 0 0 1 18.7-17.4 34.2 34.2 0 0 1 26 .5l73.7 30.6a32.5 32.5 0 0 1 18 17.7 32.5 32.5 0 0 1-.1 25.3 33.6 33.6 0 0 1-18.7 17.4 27.3 27.3 0 0 1-12.4 2.3zm-10.8 393v-16.4a7.7 7.7 0 0 0-4.8-7.2 7.7 7.7 0 0 0-3-.6H289a7.7 7.7 0 0 0-7.2 4.8 7.7 7.7 0 0 0-.5 3v16.5a8 8 0 0 0 7.7 8h104a7.7 7.7 0 0 0 7.2-5 7.7 7.7 0 0 0 .5-3zm0 35.5v-16.5a7.7 7.7 0 0 0-2.3-5.5 7.7 7.7 0 0 0-5.5-2.3H289a7.7 7.7 0 0 0-5.5 2.3 7.7 7.7 0 0 0-2.2 5.5v16.5a8 8 0 0 0 2.2 5.5 8 8 0 0 0 5.5 2.5h104a8.3 8.3 0 0 0 7.7-8zM301.2 479h-29.8l.1-3.8a41.7 41.7 0 0 0-2.6-20.6c-3.2-7.3-6-8.2-11-10.5a58.1 58.1 0 0 1-11.9-6 28.8 28.8 0 0 1-11.4-26.6 23.1 23.1 0 0 1 12.8-19.2C267 384 304 406.9 313.7 421a93.3 93.3 0 0 1 14.2 52.6 20.3 20.3 0 0 0 .6 5.2h-27.3v.1zm78.3 0H353s-.5-4.2-.5-6a28.4 28.4 0 0 1 .5-6c.4-12.8 1.4-28 9.6-44.4l-108-45a32.4 32.4 0 0 1-20.5-30.3c0-4.4 1-8.7 2.7-12.6a34.7 34.7 0 0 1 12.9-14.5 34.6 34.6 0 0 1 18.7-5.2c4.7 0 9.3.9 13.7 2.6l145 60.5a32.5 32.5 0 0 1 18 17.7 32.5 32.5 0 0 1-.2 25.3 35.3 35.3 0 0 1-11.6 13.6 35.2 35.2 0 0 1-16.7 6.2 24.4 24.4 0 0 0-4.6 6.9 42.4 42.4 0 0 0-2.7 20.6 35.6 35.6 0 0 1-.5 10.6h-29.3zm33.4-117.3a36.5 36.5 0 0 1-13.7-2.6l-145-60a32.4 32.4 0 0 1-18-17.8 32.4 32.4 0 0 1 .1-25.3 34.6 34.6 0 0 1 19-17.4 34.6 34.6 0 0 1 25.8.5l145 60.4a32.4 32.4 0 0 1 18.1 17.8 32.4 32.4 0 0 1-.2 25.3 34.6 34.6 0 0 1-12.8 14 34.6 34.6 0 0 1-18.3 5v.1zm0-78.7a37 37 0 0 1-13.7-2.7l-145-60.6a35 35 0 0 1-18.3-17.9 31 31 0 0 1 .4-24.7 34.6 34.6 0 0 1 19-17.5 34.6 34.6 0 0 1 25.8.5l145 60.5a32.4 32.4 0 0 1 18.1 17.7 32.4 32.4 0 0 1-.2 25.3 33.4 33.4 0 0 1-18.6 17.4 58.2 58.2 0 0 1-12.5 2zm-28.4 287h-88.7c-28 0-50.3-21.5-50.3-48v-43h189.8v43c0 26-22.9 48-50.8 48z"/><path fill="#fff" stroke="#010101" stroke-miterlimit="10" d="M416.5 210a36.6 36.6 0 0 1-13.7-2.6L329 176.6a32.4 32.4 0 0 1-20.6-30.4 32.5 32.5 0 0 1 2.7-12.7c1.8-4 4.4-7.6 7.7-10.6a33.5 33.5 0 0 1 11.1-6.8 34.6 34.6 0 0 1 26.1.4l73.8 30.8a32.5 32.5 0 0 1 18 17.7 32.5 32.5 0 0 1 0 25.3 33.6 33.6 0 0 1-18.9 17.5 27.1 27.1 0 0 1-12.4 2.2zm-10.8 394v-16.5a7.7 7.7 0 0 0-2.3-5.5 7.7 7.7 0 0 0-5.5-2.3h-104a7.7 7.7 0 0 0-7.3 4.8 7.7 7.7 0 0 0-.6 3V604a8 8 0 0 0 7.8 8H398a7.7 7.7 0 0 0 5.6-2.3 7.7 7.7 0 0 0 2.2-5.7zm0 35.5V623a7.7 7.7 0 0 0-4.8-7.3 7.7 7.7 0 0 0-3-.5h-104a7.7 7.7 0 0 0-3 .5 7.7 7.7 0 0 0-4.9 7.3v16.5a8 8 0 0 0 2.3 5.6 8 8 0 0 0 5.5 2.4H398a8.3 8.3 0 0 0 5.4-2.5 8.3 8.3 0 0 0 2.4-5.5zm-99.7-154h-30c0-2 .2-2.7.2-3.8.8-7 0-14.1-2.7-20.7-3.2-7.3-6-8.2-11-10.6a57.2 57.2 0 0 1-11.9-6 28.8 28.8 0 0 1-11.5-26.7 23.1 23.1 0 0 1 12.9-19.2c19.7-8.3 56.8 14.7 66.5 28.9A93.6 93.6 0 0 1 333 480a19.1 19.1 0 0 0 .6 5.2H306v.2zm78.4 0h-26.6s-.5-4.3-.5-6.1c0-2 .1-4 .5-6 .4-12.8 1.3-28 9.6-44.5l-108.2-45a32.5 32.5 0 0 1-18-17.7 32.5 32.5 0 0 1 .1-25.4 34.6 34.6 0 0 1 13-14.5 34.6 34.6 0 0 1 18.7-5.2 36.6 36.6 0 0 1 13.7 2.7L432 384.3a32.5 32.5 0 0 1 18.2 17.8 32.5 32.5 0 0 1-.2 25.5 35.4 35.4 0 0 1-11.6 13.6 35.3 35.3 0 0 1-16.8 6.1 24.8 24.8 0 0 0-4.6 7 42.5 42.5 0 0 0-2.7 20.6 35.7 35.7 0 0 1-.4 10.6h-29.5zM418 367.9c-4.7 0-9.4-.9-13.7-2.7L258.8 305a32.5 32.5 0 0 1-18-17.8 32.5 32.5 0 0 1 .1-25.4 34.6 34.6 0 0 1 19-17.5 34.6 34.6 0 0 1 26 .6l145.3 60.5a32.5 32.5 0 0 1 10.8 7 32.5 32.5 0 0 1 9.7 23.5 32.5 32.5 0 0 1-2.6 12.7 34.6 34.6 0 0 1-12.8 14.1 34.6 34.6 0 0 1-18.4 5.2zm0-79c-4.7 0-9.4-.8-13.7-2.6l-145.4-60.7a35 35 0 0 1-18.3-17.8 31 31 0 0 1 .4-24.8 34.6 34.6 0 0 1 19-17.6 34.6 34.6 0 0 1 26 .6l145.3 60.6a32.4 32.4 0 0 1 20.6 30.4 32.5 32.5 0 0 1-2.7 12.7 33.7 33.7 0 0 1-18.8 17.4A58.2 58.2 0 0 1 418 289zm-28.4 287.8h-89c-28 0-50.4-21.6-50.4-48.2v-43h190.3v43c0 26.1-23 48.2-51 48.2z"/><circle cx="468.5" cy="168.5" r="136.5" fill="#005EFF"/><path fill="#fff" stroke="#010101" stroke-miterlimit="10" d="M421.6 216a36.7 36.7 0 0 1-13.8-2.8l-74-30.8a32.6 32.6 0 0 1-20.6-30.6 32.6 32.6 0 0 1 2.7-12.7 33.6 33.6 0 0 1 18.8-17.4 34.4 34.4 0 0 1 26.2.4l74 31a32.5 32.5 0 0 1 18.1 17.8 32.6 32.6 0 0 1-.2 25.4 33.6 33.6 0 0 1-18.8 17.4 27.2 27.2 0 0 1-12.4 2.2zm-11 394.8v-16.6a7.8 7.8 0 0 0-2.3-5.5 7.8 7.8 0 0 0-5.5-2.3H298.6a7.7 7.7 0 0 0-7.3 4.8 7.8 7.8 0 0 0-.5 3v16.6c0 2 .8 4 2.2 5.5a8 8 0 0 0 5.6 2.5h104.3a7.7 7.7 0 0 0 5.5-2.4 7.7 7.7 0 0 0 2.2-5.6zm0 35.5v-16.6a7.8 7.8 0 0 0-2.3-5.5 7.7 7.7 0 0 0-5.5-2.3H298.6a7.7 7.7 0 0 0-7.3 4.8 7.8 7.8 0 0 0-.5 3v16.6a8 8 0 0 0 2.2 5.7 8 8 0 0 0 5.6 2.4h104.3a8.3 8.3 0 0 0 7.7-8.1zM310.6 492h-29.8c0-2 .2-2.6.2-3.9a41.5 41.5 0 0 0-2.7-20.6c-3.2-7.4-6-8.3-11-10.7a57.5 57.5 0 0 1-12-6 28.8 28.8 0 0 1-11.5-26.6 23.1 23.1 0 0 1 12.9-19.3c19.8-8.3 57 14.7 66.6 29a93.7 93.7 0 0 1 14.2 52.8 20.2 20.2 0 0 0 .7 5.2h-27.5zm78.7 0h-26.6s-.5-4.3-.5-6.2c0-2 .1-4 .5-6a102 102 0 0 1 9.6-44.5l-108.3-45a32.5 32.5 0 0 1-18.2-17.8 32.6 32.6 0 0 1 .2-25.5 34.8 34.8 0 0 1 13-14.5 34.8 34.8 0 0 1 18.8-5.2 36.8 36.8 0 0 1 13.7 2.6l145.7 60.8a32.5 32.5 0 0 1 18.2 17.8 32.6 32.6 0 0 1-.2 25.4 35.3 35.3 0 0 1-11.7 13.6 35.3 35.3 0 0 1-16.8 6.2 24.9 24.9 0 0 0-4.6 6.9 42.7 42.7 0 0 0-2.7 20.7 37 37 0 0 1-.4 10.6h-29.7zm33.6-118a37 37 0 0 1-13.8-2.7l-145.7-60.2a32.5 32.5 0 0 1-18.2-17.8 32.6 32.6 0 0 1 .3-25.5 34.6 34.6 0 0 1 19.2-17.7 34.6 34.6 0 0 1 26 .7l145.7 60.7a32.5 32.5 0 0 1 18.1 17.8 32.6 32.6 0 0 1-.2 25.4 34.6 34.6 0 0 1-12.9 14.2A34.6 34.6 0 0 1 423 374zm0-79a37 37 0 0 1-13.8-2.7l-145.7-60.7a35 35 0 0 1-18.3-18 31 31 0 0 1 .4-24.8 34.6 34.6 0 0 1 19.1-17.8 34.6 34.6 0 0 1 26.2.6l145.6 60.7a32.5 32.5 0 0 1 20.5 30.6 32.5 32.5 0 0 1-2.7 12.6 33.6 33.6 0 0 1-18.9 17.5 58.7 58.7 0 0 1-12.4 2zm-28.5 288.2h-89c-28.1 0-50.7-21.6-50.7-48.2v-43h190.7v43c0 26.3-23 48.3-51 48.3z"/><path fill="#fff" stroke="#010101" stroke-miterlimit="10" d="M426.6 221.8a37 37 0 0 1-13.8-2.7l-74.1-31a32.6 32.6 0 0 1-20.6-30.5c0-4.4.9-8.7 2.6-12.8a33.6 33.6 0 0 1 7.7-10.6 33.6 33.6 0 0 1 11.2-6.9 34.6 34.6 0 0 1 26.3.5l74 30.9a32.6 32.6 0 0 1 20.6 30.6A32.6 32.6 0 0 1 458 202a33.6 33.6 0 0 1-19 17.5 26.9 26.9 0 0 1-12.3 2.3zm-11 395.7v-16.7a7.8 7.8 0 0 0-2.2-5.5 7.7 7.7 0 0 0-5.6-2.3H303.3a7.7 7.7 0 0 0-5.5 2.3 7.8 7.8 0 0 0-2.3 5.5v16.6a8 8 0 0 0 2.2 5.7 8 8 0 0 0 5.6 2.5H408a7.7 7.7 0 0 0 7.3-5 7.8 7.8 0 0 0 .5-3.1zm0 35.6v-16.6a7.8 7.8 0 0 0-2.2-5.5 7.7 7.7 0 0 0-5.6-2.3H303.3a7.8 7.8 0 0 0-5.5 2.3 7.8 7.8 0 0 0-2.3 5.5v16.6a8 8 0 0 0 2.2 5.7 8 8 0 0 0 5.6 2.4H408a8.3 8.3 0 0 0 5.5-2.5 8.3 8.3 0 0 0 2.3-5.6zm-100-154.6h-30.2c0-2 .2-2.5.2-3.8a42 42 0 0 0-2.7-20.7c-3.2-7.4-6-8.3-11-10.7a56.1 56.1 0 0 1-12-6 28.7 28.7 0 0 1-11.5-26.6 23.1 23.1 0 0 1 12.9-19.4c19.8-8.3 57.1 14.8 66.8 29 12.9 19.9 13.8 37.8 14.2 53 0 1.8.2 3.5.7 5.2h-27.5zm78.7 0h-26.6s-.5-4.3-.5-6a27.3 27.3 0 0 1 .5-6c.4-13 1.3-28.2 9.6-44.8l-108.7-45.1a32.6 32.6 0 0 1-18-18 32.6 32.6 0 0 1 .2-25.5 34.9 34.9 0 0 1 13-14.5 34.8 34.8 0 0 1 18.8-5.3 36.5 36.5 0 0 1 13.8 2.7l146 60.8a32.6 32.6 0 0 1 10.8 7.1 32.6 32.6 0 0 1 9.8 23.5 32.7 32.7 0 0 1-2.7 12.7 35.4 35.4 0 0 1-11.6 13.7 35.3 35.3 0 0 1-17 6.1 24.7 24.7 0 0 0-4.5 7 42.7 42.7 0 0 0-2.7 20.7 37 37 0 0 1-.4 10.7l-29.8.2zM428 380.4a37 37 0 0 1-13.8-2.7l-146-60.3a32.6 32.6 0 0 1-18-17.9 32.6 32.6 0 0 1 .1-25.5 34.6 34.6 0 0 1 19.1-17.6 34.6 34.6 0 0 1 26 .6l146 60.8a32.6 32.6 0 0 1 20.6 30.5 32.6 32.6 0 0 1-2.6 12.6 34.6 34.6 0 0 1-13 14.2 34.6 34.6 0 0 1-18.4 5.2v.1zm0-79.2a37 37 0 0 1-13.8-2.7l-146-60.8a35 35 0 0 1-18.3-18 31.2 31.2 0 0 1 .4-24.9 34.6 34.6 0 0 1 19.1-17.7 34.6 34.6 0 0 1 26 .6l146 60.6a32.6 32.6 0 0 1 18.2 17.9 32.6 32.6 0 0 1-.2 25.5 33.8 33.8 0 0 1-19 17.5A58.7 58.7 0 0 1 428 301zM399.4 590h-89.3c-28.1 0-50.6-21.7-50.6-48.4v-43.2h191v43.2c0 26.3-23 48.4-51 48.4z"/><path fill="#fff" stroke="#010101" stroke-miterlimit="10" d="M431.6 227.7a36.7 36.7 0 0 1-13.9-2.7l-74.3-31a32.7 32.7 0 0 1-18.3-17.8 32.7 32.7 0 0 1 .3-25.6 33.7 33.7 0 0 1 18.9-17.6 34.6 34.6 0 0 1 26.3.5l74.3 31a32.7 32.7 0 0 1 20.7 30.6 32.7 32.7 0 0 1-2.7 12.7 33.8 33.8 0 0 1-19 17.6 27.5 27.5 0 0 1-12.3 2.3zm-11 396.5v-16.6a7.8 7.8 0 0 0-2.2-5.7 7.8 7.8 0 0 0-5.6-2.3H308.1a7.8 7.8 0 0 0-7.3 5 7.8 7.8 0 0 0-.6 3v16.6a8 8 0 0 0 2.2 5.8 8 8 0 0 0 5.7 2.4h104.7a7.8 7.8 0 0 0 5.7-2.4 7.8 7.8 0 0 0 2.2-5.8zm0 35.7v-16.6a7.8 7.8 0 0 0-2.2-5.6 7.8 7.8 0 0 0-5.6-2.3H308.1a7.8 7.8 0 0 0-7.3 4.9 7.8 7.8 0 0 0-.6 3v16.6a8 8 0 0 0 2.2 5.7 8 8 0 0 0 5.7 2.5h104.7a8.4 8.4 0 0 0 5.5-2.6 8.4 8.4 0 0 0 2.4-5.6zM320.4 505h-30v-4a42.2 42.2 0 0 0-2.6-20.8c-3.2-7.4-6-8.3-11-10.7a56.8 56.8 0 0 1-12-6 29 29 0 0 1-11.6-26.8 23.3 23.3 0 0 1 13-19.4c19.8-8.3 57.1 14.8 66.8 29.1 13 19.9 13.9 37.9 14.3 53.1a20.5 20.5 0 0 0 .7 5.2h-27.6zm79 0h-26.7s-.4-4.3-.4-6.1a29 29 0 0 1 .4-6c.5-13 1.4-28.2 9.7-44.9l-108.9-45.3a32.7 32.7 0 0 1-18.2-17.8 32.7 32.7 0 0 1 .2-25.6 35 35 0 0 1 13-14.6 35 35 0 0 1 19-5.2 37 37 0 0 1 13.8 2.6l146.3 61a32.7 32.7 0 0 1 18.2 17.9 32.7 32.7 0 0 1-.2 25.5 35.5 35.5 0 0 1-28.6 19.9 25.7 25.7 0 0 0-4.6 6.9 42.8 42.8 0 0 0-2.7 20.8c.4 3.5.2 7.1-.5 10.6l-29.8.3zM433 386.5a37.3 37.3 0 0 1-14-2.5l-146.3-60.5a32.7 32.7 0 0 1-20.6-30.7 32.7 32.7 0 0 1 2.7-12.8 34.8 34.8 0 0 1 19.1-17.7 34.8 34.8 0 0 1 26.1.7l146.2 60.7a32.7 32.7 0 0 1 18.2 18 32.7 32.7 0 0 1-.1 25.4 34.8 34.8 0 0 1-13 14.3 34.8 34.8 0 0 1-18.4 5.3zm0-79.4a37.3 37.3 0 0 1-13.9-2.7l-146.3-61a35.2 35.2 0 0 1-18.4-18 31.2 31.2 0 0 1 .5-24.9 34.8 34.8 0 0 1 19.1-17.7 34.8 34.8 0 0 1 26.1.6l146.3 61a32.7 32.7 0 0 1 18.2 17.9 32.7 32.7 0 0 1-.2 25.5 33.8 33.8 0 0 1-19 17.5 57.6 57.6 0 0 1-12.4 1.8zm-28.6 289.6h-89.7a49.6 49.6 0 0 1-50.7-48.5v-43.3h191.5v43.3c0 26.3-23 48.5-51.1 48.5z"/><path fill="#fff" stroke="#010101" stroke-miterlimit="10" d="M436.6 233.6c-4.8 0-9.5-1-13.9-2.7l-74.4-31.1a32.8 32.8 0 0 1-18.3-18 32.8 32.8 0 0 1 .2-25.5 33.9 33.9 0 0 1 19-17.6 34.8 34.8 0 0 1 26.4.4l74.5 31A32.7 32.7 0 0 1 471 201a32.7 32.7 0 0 1-2.7 12.7 33.9 33.9 0 0 1-19 17.6 27.5 27.5 0 0 1-12.6 2.4zm-11 397.4v-16.7a7.8 7.8 0 0 0-7.8-7.9h-105a7.8 7.8 0 0 0-7.3 4.9 7.8 7.8 0 0 0-.6 3V631a8 8 0 0 0 2.3 5.7 8 8 0 0 0 5.6 2.4h105a7.8 7.8 0 0 0 7.8-8.1zm0 35.8V650a7.8 7.8 0 0 0-2.2-5.7 7.8 7.8 0 0 0-5.6-2.3h-105a7.8 7.8 0 0 0-5.6 2.3 7.8 7.8 0 0 0-2.3 5.7v16.7a8 8 0 0 0 7.9 8.1h105a8.4 8.4 0 0 0 7.8-8.1zM325.1 511.4h-30.2c0-2 .2-2.7.2-3.8a42.2 42.2 0 0 0-2.8-20.9c-3.2-7.4-6-8.3-11-10.6a57 57 0 0 1-12.1-6 29 29 0 0 1-11.6-26.9 23.3 23.3 0 0 1 13-19.4c19.9-8.4 57.3 14.8 67 29.1 13 20 13.9 38 14.4 53.3a20.5 20.5 0 0 0 .6 5.2h-27.5zm79.1 0h-26.8s-.5-4.3-.5-6.1c0-2 .1-4 .5-6 .5-13 1.4-28.3 9.7-45L278 409a32.7 32.7 0 0 1-18.2-17.9 32.8 32.8 0 0 1 .2-25.6 35 35 0 0 1 13-14.6 35 35 0 0 1 19-5.3 37.3 37.3 0 0 1 13.8 2.7l146.6 61a32.8 32.8 0 0 1 18.3 18 32.8 32.8 0 0 1-.2 25.6 35.6 35.6 0 0 1-11.8 13.8 35.6 35.6 0 0 1-17 6.2 25 25 0 0 0-4.5 7 42.7 42.7 0 0 0-2.8 20.8c.4 3.5.2 7.1-.5 10.6h-29.6zM438 392.8a37 37 0 0 1-14-2.8l-146.5-60.6a32.7 32.7 0 0 1-18.2-18 32.8 32.8 0 0 1 .2-25.5 34.8 34.8 0 0 1 19.2-17.7 34.8 34.8 0 0 1 26 .5L451.6 330a32.7 32.7 0 0 1 11 7.1 32.7 32.7 0 0 1 7 36.4 35 35 0 0 1-13 14.2 34.9 34.9 0 0 1-18.5 5.2zm0-79.6a37 37 0 0 1-13.9-2.8l-146.5-61.1a35.2 35.2 0 0 1-18.5-18 31.4 31.4 0 0 1 .5-25 34.9 34.9 0 0 1 19.2-17.8 34.8 34.8 0 0 1 26 .6l146.7 61.1a32.7 32.7 0 0 1 20.7 30.7 32.8 32.8 0 0 1-2.7 12.8 33.8 33.8 0 0 1-19 17.6 57.6 57.6 0 0 1-12.5 1.9zm-28.7 290.3h-89.7a49.7 49.7 0 0 1-50.9-48.6v-43.5h192v43.4a50.5 50.5 0 0 1-51.4 48.7z"/><path fill="#fff" stroke="#010101" stroke-miterlimit="10" d="M441.6 239.4a37.5 37.5 0 0 1-13.9-2.6l-74.6-31.1a32.8 32.8 0 0 1-18.3-18 32.8 32.8 0 0 1-2.5-12.8c0-4.4 1-8.8 2.7-12.8a33.9 33.9 0 0 1 19-17.7 34.6 34.6 0 0 1 26.5.5l74.5 31a32.9 32.9 0 0 1 18.3 18 32.9 32.9 0 0 1-.2 25.7 33.9 33.9 0 0 1-19 17.6 27.2 27.2 0 0 1-12.5 2.2zm-11 398.3V621a7.8 7.8 0 0 0-2.2-5.6 7.8 7.8 0 0 0-5.6-2.4H317.5a7.8 7.8 0 0 0-8 8v16.7a8 8 0 0 0 2.3 5.8 8 8 0 0 0 5.7 2.4h105.3a7.8 7.8 0 0 0 5.7-2.4 7.8 7.8 0 0 0 2.1-5.8zm0 35.9v-16.8a7.8 7.8 0 0 0-2.2-5.6 7.8 7.8 0 0 0-5.6-2.4H317.5a7.8 7.8 0 0 0-8 8v16.7a8 8 0 0 0 .6 3.1 8 8 0 0 0 7.4 5.1h105.3a8.4 8.4 0 0 0 7.8-8.1zM329.8 517.9h-30.2c0-2 .2-2.7.2-3.9a42 42 0 0 0-2.7-20.8c-3.2-7.5-6-8.4-11.1-10.7a57.7 57.7 0 0 1-12-6 29.1 29.1 0 0 1-11.6-27c.2-4 1.6-8 3.8-11.4a23.3 23.3 0 0 1 9.1-8c20-8.4 57.5 14.8 67.2 29.3 13 20 14 38 14.4 53.3 0 1.8.2 3.6.7 5.4h-27.8v-.2zm79.3 0h-26.8s-.5-4.3-.5-6.2a29.3 29.3 0 0 1 .5-6c.4-13 1.4-28.3 9.7-45l-109.2-45.5a32.8 32.8 0 0 1-11-7 32.8 32.8 0 0 1-10-23.8c.1-4.4 1-8.7 2.8-12.8a35 35 0 0 1 13-14.6 35 35 0 0 1 19-5.3 37 37 0 0 1 13.8 2.6l147 61.3a32.8 32.8 0 0 1 18.2 18 32.9 32.9 0 0 1-.2 25.6 35.6 35.6 0 0 1-11.7 13.8 35.6 35.6 0 0 1-17 6.2 24.8 24.8 0 0 0-4.6 7 43 43 0 0 0-2.8 20.8 36.7 36.7 0 0 1-.5 10.8h-29.7zm34-118.9a37 37 0 0 1-14-2.7l-147-60.7a32.8 32.8 0 0 1-11-7.2 32.9 32.9 0 0 1-7-36.5 35 35 0 0 1 19.3-17.8 35 35 0 0 1 26.2.6L456.5 336a32.8 32.8 0 0 1 18.2 18 32.8 32.8 0 0 1-.2 25.6 35 35 0 0 1-13 14.2A35 35 0 0 1 443 399zm0-79.8a37 37 0 0 1-14-2.7l-147-61.3a35.3 35.3 0 0 1-18.6-18 31.3 31.3 0 0 1 .5-25.1 35 35 0 0 1 19.2-17.8 35 35 0 0 1 26.2.6l147 61.3a32.8 32.8 0 0 1 18.2 17.9 32.8 32.8 0 0 1 0 25.5 34 34 0 0 1-19 17.7 58.2 58.2 0 0 1-12.6 1.9zm-28.8 290.9h-90c-28.2 0-51-21.8-51-48.8V518h192.4v43.4c0 26.5-23.1 48.8-51.4 48.8z"/></svg>