<svg xmlns="http://www.w3.org/2000/svg" fill="none" viewBox="0 0 464 380"><mask id="a" style="mask-type:alpha" width="160" height="205" x="190" y="175" maskUnits="userSpaceOnUse"><path fill="#C4C4C4" stroke="#fff" stroke-linecap="round" stroke-linejoin="round" stroke-width="2" d="M191 379h138c11.046 0 20-8.954 20-20V221h-50.101v-15.713a28.995 28.995 0 0 0-2.204-11.231 29.12 29.12 0 0 0-6.384-9.521 29.337 29.337 0 0 0-9.58-6.345 29.478 29.478 0 0 0-11.299-2.19 29.008 29.008 0 0 0-20.07 8.621 28.657 28.657 0 0 0-8.261 20.119V221H191"/></mask><g mask="url(#a)"><circle cx="190.5" cy="220.5" r="91.5" fill="#000" stroke="#005EFF" stroke-width="10"/></g><mask id="b" style="mask-type:alpha" width="160" height="206" x="32" y="62" maskUnits="userSpaceOnUse"><path fill="#C4C4C4" stroke="#fff" stroke-linecap="round" stroke-linejoin="round" stroke-width="2" d="M83.083 220.822v17.315a28.826 28.826 0 0 0 8.257 20.216A28.9 28.9 0 0 0 111.414 267a29.361 29.361 0 0 0 11.299-2.201 29.313 29.313 0 0 0 15.964-15.944 29.266 29.266 0 0 0 2.204-11.286v-16.747L191 221v-49.832h-17.336a28.917 28.917 0 0 1-20.242-8.259 28.852 28.852 0 0 1-8.657-20.055A29.266 29.266 0 0 1 153.353 122a29.313 29.313 0 0 1 9.58-6.376 29.361 29.361 0 0 1 11.299-2.201H191V63H53c-11.046 0-20 8.954-20 20v138l50.083-.178z"/></mask><g mask="url(#b)"><circle cx="190.5" cy="220.5" r="91.5" fill="#000" stroke="#005EFF" stroke-width="10"/></g><mask id="c" style="mask-type:alpha" width="207" height="160" x="32" y="220" maskUnits="userSpaceOnUse"><path fill="#C4C4C4" stroke="#fff" stroke-linecap="round" stroke-linejoin="round" stroke-width="2" d="M33 221l.229 138.033c.018 11.033 8.967 19.967 20 19.967H191v-50.072h16.849a29.282 29.282 0 0 0 27.234-18.212 29.316 29.316 0 0 0 2.178-11.311 28.89 28.89 0 0 0-8.646-20.069 28.853 28.853 0 0 0-20.217-8.264h-17.314L191 221"/></mask><g mask="url(#c)"><circle cx="190.5" cy="220.5" r="91.5" fill="#000" stroke="#005EFF" stroke-width="10"/></g><path stroke="#fff" stroke-linecap="round" stroke-linejoin="round" stroke-width="2" d="M191 379h138c11.046 0 20-8.954 20-20V221h-50.101v-15.713a28.995 28.995 0 0 0-2.204-11.231 29.12 29.12 0 0 0-6.384-9.521 29.337 29.337 0 0 0-9.58-6.345 29.478 29.478 0 0 0-11.299-2.19 29.008 29.008 0 0 0-20.07 8.621 28.657 28.657 0 0 0-8.261 20.119V221H191M83.083 220.822v17.315a28.826 28.826 0 0 0 8.257 20.216A28.9 28.9 0 0 0 111.414 267a29.361 29.361 0 0 0 11.299-2.201 29.313 29.313 0 0 0 15.964-15.944 29.266 29.266 0 0 0 2.204-11.286v-16.747L191 221v-49.832h-17.336a28.917 28.917 0 0 1-20.242-8.259 28.852 28.852 0 0 1-8.657-20.055A29.266 29.266 0 0 1 153.353 122a29.313 29.313 0 0 1 9.58-6.376 29.361 29.361 0 0 1 11.299-2.201H191V63H53c-11.046 0-20 8.954-20 20v138l50.083-.178z"/><path stroke="#fff" stroke-linecap="round" stroke-linejoin="round" stroke-width="2" d="M33 221l.229 138.033c.018 11.033 8.967 19.967 20 19.967H191v-50.072h16.849a29.282 29.282 0 0 0 27.234-18.212 29.316 29.316 0 0 0 2.178-11.311 28.89 28.89 0 0 0-8.646-20.069 28.853 28.853 0 0 0-20.217-8.264h-17.314L191 221"/><mask id="d" style="mask-type:alpha" width="205" height="160" x="226" y="0" maskUnits="userSpaceOnUse"><path fill="#C4C4C4" stroke="#fff" stroke-linecap="round" stroke-linejoin="round" stroke-width="2" d="M430 21c0-11.046-8.954-20-20-20H272.955v50.084h-16.666c-3.852-.02-7.669.729-11.231 2.202a29.128 29.128 0 0 0-9.522 6.382 29.312 29.312 0 0 0-6.345 9.577A29.446 29.446 0 0 0 227 80.54a28.976 28.976 0 0 0 8.604 20.074 28.644 28.644 0 0 0 20.12 8.266h17.231l-.384 50.083h50.183v-16.761a29.453 29.453 0 0 1 2.184-11.302 29.352 29.352 0 0 1 6.344-9.583 29.148 29.148 0 0 1 9.525-6.386 28.978 28.978 0 0 1 11.235-2.204 28.66 28.66 0 0 1 19.961 8.684 28.993 28.993 0 0 1 8.199 20.259V159H430V21z"/></mask><g mask="url(#d)"><circle cx="272.5" cy="158.5" r="91.5" fill="#000" stroke="#FF7BFF" stroke-width="10"/></g><path stroke="#fff" stroke-linecap="round" stroke-linejoin="round" stroke-width="2" d="M430 21c0-11.046-8.954-20-20-20H272.955v50.084h-16.666c-3.852-.02-7.669.729-11.231 2.202a29.128 29.128 0 0 0-9.522 6.382 29.312 29.312 0 0 0-6.345 9.577A29.446 29.446 0 0 0 227 80.54a28.976 28.976 0 0 0 8.604 20.074 28.644 28.644 0 0 0 20.12 8.266h17.231l-.384 50.083h50.183v-16.761a29.453 29.453 0 0 1 2.184-11.302 29.352 29.352 0 0 1 6.344-9.583 29.148 29.148 0 0 1 9.525-6.386 28.978 28.978 0 0 1 11.235-2.204 28.66 28.66 0 0 1 19.961 8.684 28.993 28.993 0 0 1 8.199 20.259V159H430V21z"/></svg>