<svg xmlns="http://www.w3.org/2000/svg" fill="none" viewBox="0 0 464 380"><path stroke="#fff" stroke-linecap="round" stroke-width="2" d="M277 105h113M277 92h113M277 118h113"/><rect width="456" height="12" x="4" y="21" stroke="#fff" stroke-width="2" rx="4"/><rect width="456" height="12" x="4" y="261" stroke="#fff" stroke-width="2" rx="4"/><rect width="245" height="12" x="109" y="363" stroke="#fff" stroke-width="2" rx="4"/><path stroke="#fff" stroke-width="2" d="M239 12v9h-14v-9a7 7 0 1 1 14 0zM227 273h10v90h-10v-90zM28 33h407v228H28z"/><mask id="a" style="mask-type:alpha" width="160" height="160" x="61" y="68" maskUnits="userSpaceOnUse"><circle cx="141" cy="148" r="79" fill="#C4C4C4" stroke="#fff" stroke-width="2"/></mask><g mask="url(#a)"><path fill="#005EFF" stroke="#fff" stroke-width="2" d="M141 146V69h79v77h-79z"/></g><path fill="#FF7BFF" fill-rule="evenodd" d="M215.128 117.86a79.697 79.697 0 0 1 5.846 28.077L141 145.5l72.5-27.5 1.628-.14z" clip-rule="evenodd"/><path stroke="#fff" stroke-width="2" d="M141 69v77h79M141 145.5l72.5-27.5"/><circle cx="141" cy="148" r="79" stroke="#fff" stroke-width="2"/><path stroke="#fff" stroke-linecap="round" stroke-width="2" d="M277 189h113M277 176h113M277 202h113"/></svg>