<svg xmlns="http://www.w3.org/2000/svg" fill="none" viewBox="0 0 464 380"><circle cx="232" cy="191" r="169" stroke="#fff" stroke-width="2"/><path fill="#000" stroke="#fff" stroke-linecap="round" stroke-linejoin="round" stroke-width="2" d="M341.999 191A110 110 0 1 1 232 81a109.574 109.574 0 0 1 109.999 110v0z"/><path fill="#000" stroke="#fff" stroke-linecap="round" stroke-linejoin="round" stroke-width="2" d="M314 263.452a109.704 109.704 0 0 1-37.06 26.992A110.406 110.406 0 0 1 232 300a110.406 110.406 0 0 1-44.94-9.556A109.694 109.694 0 0 1 150 263.452c6.025-16.81 17.141-31.357 31.822-41.643A87.457 87.457 0 0 1 232 206a87.457 87.457 0 0 1 50.178 15.809c14.681 10.286 25.797 24.833 31.822 41.643v0z"/><path fill="#000" stroke="#fff" stroke-linecap="round" stroke-linejoin="round" stroke-width="2" d="M232 210c24.853 0 45-20.371 45-45.5S256.853 119 232 119s-45 20.371-45 45.5 20.147 45.5 45 45.5zM150.999 324.02a55.001 55.001 0 0 1-33.965 50.799 55.002 55.002 0 0 1-74.979-40.096A55 55 0 0 1 96 269.001a54.738 54.738 0 0 1 38.977 16.036 54.733 54.733 0 0 1 16.022 38.983z"/><path fill="#000" stroke="#fff" stroke-width="2" d="M137 360.5c-5.211 5.748-10.591 10.571-17.745 13.721A56.47 56.47 0 0 1 96.506 379a56.468 56.468 0 0 1-22.748-4.779A55.489 55.489 0 0 1 55 360.723c3.05-8.404 8.676-15.677 16.108-20.819C78.539 334.761 87.41 332 96.506 332c9.095 0 17.967 2.761 25.399 7.904 7.431 5.142 12.045 12.192 15.095 20.596z"/><path fill="#000" stroke="#fff" stroke-width="2" d="M95.5 338c12.426 0 22.5-10.074 22.5-22.5S107.926 293 95.5 293 73 303.074 73 315.5 83.074 338 95.5 338z"/><path fill="#000" stroke="#fff" stroke-linecap="round" stroke-linejoin="round" stroke-width="2" d="M423 55.981a55.007 55.007 0 0 1-33.939 50.827 54.999 54.999 0 0 1-51.619-96.537A54.998 54.998 0 0 1 368 1.001a54.751 54.751 0 0 1 55 54.98v0z"/><path fill="#000" stroke="#fff" stroke-width="2" d="M409 91.723a54.836 54.836 0 0 1-18.529 13.498A55.197 55.197 0 0 1 368 110a55.197 55.197 0 0 1-22.471-4.779A54.836 54.836 0 0 1 327 91.723a43.243 43.243 0 0 1 15.911-20.82A43.734 43.734 0 0 1 368 63c8.984 0 17.748 2.76 25.089 7.903A43.243 43.243 0 0 1 409 91.724v0z"/><path fill="#000" stroke="#fff" stroke-width="2" d="M368 66c12.703 0 23-10.074 23-22.5S380.703 21 368 21s-23 10.074-23 22.5S355.297 66 368 66z"/><path fill="#000" stroke="#fff" stroke-linecap="round" stroke-linejoin="round" stroke-width="2" d="M150.999 56a54.995 54.995 0 0 1-33.952 50.813A54.999 54.999 0 1 1 96 1.001a54.743 54.743 0 0 1 38.964 16.035A54.742 54.742 0 0 1 150.999 56z"/><path fill="#000" stroke="#fff" stroke-width="2" d="M137 92.723a54.836 54.836 0 0 1-18.529 13.498A55.197 55.197 0 0 1 96 111a55.2 55.2 0 0 1-22.471-4.779A54.842 54.842 0 0 1 55 92.723a43.247 43.247 0 0 1 15.911-20.82A43.732 43.732 0 0 1 96 64c8.984 0 17.748 2.76 25.089 7.903A43.243 43.243 0 0 1 137 92.724v0z"/><path fill="#000" stroke="#fff" stroke-width="2" d="M95.5 66c12.426 0 22.5-10.074 22.5-22.5S107.926 21 95.5 21 73 31.074 73 43.5 83.074 66 95.5 66z"/><path fill="#000" stroke="#fff" stroke-linecap="round" stroke-linejoin="round" stroke-width="2" d="M422.999 324a54.993 54.993 0 0 1-33.952 50.813A54.998 54.998 0 1 1 368 269.001a54.713 54.713 0 0 1 21.086 4.119 54.732 54.732 0 0 1 29.794 29.794A54.713 54.713 0 0 1 422.999 324z"/><path fill="#000" stroke="#fff" stroke-width="2" d="M409 360.723a54.832 54.832 0 0 1-18.529 13.498A55.197 55.197 0 0 1 368 379a55.197 55.197 0 0 1-22.471-4.779A54.832 54.832 0 0 1 327 360.723a43.24 43.24 0 0 1 15.911-20.819A43.732 43.732 0 0 1 368 332a43.732 43.732 0 0 1 25.089 7.904A43.24 43.24 0 0 1 409 360.723v0z"/><path fill="#000" stroke="#fff" stroke-width="2" d="M368 338c12.703 0 23-10.074 23-22.5S380.703 293 368 293s-23 10.074-23 22.5 10.297 22.5 23 22.5z"/><rect width="16" height="11" x="224" y="218" fill="#005EFF" rx="4"/><rect width="16" height="11" x="224" y="218" fill="#005EFF" rx="4"/><rect width="16" height="11" x="224" y="218" stroke="#fff" stroke-width="2" rx="4"/><path fill="#005EFF" d="M218.383 275.248L228.5 229h7l10.117 46.248a3 3 0 0 1-.979 2.919l-10.686 9.16a2.999 2.999 0 0 1-3.904 0l-10.686-9.16a3 3 0 0 1-.979-2.919z"/><path fill="#005EFF" d="M218.383 275.248L228.5 229h7l10.117 46.248a3 3 0 0 1-.979 2.919l-10.686 9.16a2.999 2.999 0 0 1-3.904 0l-10.686-9.16a3 3 0 0 1-.979-2.919z"/><path stroke="#fff" stroke-linecap="round" stroke-width="2" d="M218.383 275.248L228.5 229h7l10.117 46.248a3 3 0 0 1-.979 2.919l-10.686 9.16a2.999 2.999 0 0 1-3.904 0l-10.686-9.16a3 3 0 0 1-.979-2.919z"/><rect width="7" height="5" x="92" y="342" fill="#FF7BFF" stroke="#fff" stroke-width="2" rx="2.5"/><path fill="#FF7BFF" stroke="#fff" stroke-linecap="round" stroke-width="2" d="M88.458 368.31L93.625 347h3.75l5.167 21.31a3 3 0 0 1-1.081 3.08l-4.126 3.191a3 3 0 0 1-3.67 0l-4.126-3.191a3 3 0 0 1-1.08-3.08z"/><rect width="7" height="5" x="92" y="71" fill="#FF7BFF" stroke="#fff" stroke-width="2" rx="2.5"/><path fill="#FF7BFF" stroke="#fff" stroke-linecap="round" stroke-width="2" d="M88.458 97.31L93.625 76h3.75l5.167 21.31a3 3 0 0 1-1.081 3.08l-4.126 3.191a3 3 0 0 1-3.67 0l-4.126-3.191a3 3 0 0 1-1.08-3.08z"/><rect width="7" height="5" x="364" y="70" fill="#FF7BFF" stroke="#fff" stroke-width="2" rx="2.5"/><path fill="#FF7BFF" stroke="#fff" stroke-linecap="round" stroke-width="2" d="M360.458 96.31L365.625 75h3.75l5.167 21.31a3 3 0 0 1-1.081 3.08l-4.126 3.191a2.999 2.999 0 0 1-3.67 0l-4.126-3.191a3 3 0 0 1-1.081-3.08z"/><rect width="7" height="5" x="364" y="342" fill="#FF7BFF" stroke="#fff" stroke-width="2" rx="2.5"/><path fill="#FF7BFF" stroke="#fff" stroke-linecap="round" stroke-width="2" d="M360.458 368.31l5.167-21.31h3.75l5.167 21.31a3 3 0 0 1-1.081 3.08l-4.126 3.191a2.999 2.999 0 0 1-3.67 0l-4.126-3.191a3 3 0 0 1-1.081-3.08z"/></svg>