<svg xmlns="http://www.w3.org/2000/svg" fill="none" viewBox="0 0 464 380"><g stroke="#fff" stroke-width="2" clip-path="url(#clip0_514_4914)"><rect width="203" height="117" x="128" y="1" fill="#000" rx="9"/><path fill="#000" d="M128 11h203v86H128zM218.333 119h22.334v6.805A70.827 70.827 0 0 0 252.5 165H207a72.504 72.504 0 0 0 11.333-38.923V119z"/><path fill="#090909" d="M233.275 140h-7.56a4.919 4.919 0 0 0-4.919 4.919c0 6.596-1.99 13.039-5.708 18.487L214 165h31l-1.091-1.595a32.742 32.742 0 0 1-5.722-18.493 4.912 4.912 0 0 0-4.912-4.912z"/><rect width="88" height="4" x="186" y="165" fill="#000" rx="1"/><rect width="203" height="117" y="211" fill="#000" rx="9"/><path fill="#000" d="M0 223h203v86H0zM90.333 329h22.334v6.805A70.827 70.827 0 0 0 124.5 375H79a72.505 72.505 0 0 0 11.333-38.923V329z"/><path fill="#090909" d="M105.275 350h-7.56a4.919 4.919 0 0 0-4.92 4.919c0 6.596-1.989 13.039-5.707 18.487L86 375h31l-1.091-1.595a32.742 32.742 0 0 1-5.722-18.493 4.912 4.912 0 0 0-4.912-4.912z"/><rect width="88" height="4" x="58" y="375" fill="#000" rx="1"/><rect width="203" height="117" x="260" y="211" fill="#000" rx="9"/><path fill="#000" d="M260 221h203v86H260zM350.333 329h22.334v6.805A70.827 70.827 0 0 0 384.5 375H339a72.504 72.504 0 0 0 11.333-38.923V329z"/><path fill="#090909" d="M365.275 350h-7.56a4.919 4.919 0 0 0-4.919 4.919c0 6.596-1.99 13.039-5.708 18.487L346 375h31l-1.091-1.595a32.742 32.742 0 0 1-5.722-18.493 4.912 4.912 0 0 0-4.912-4.912z"/><rect width="88" height="4" x="318" y="375" fill="#000" rx="1"/><circle cx="204" cy="307" r="11" fill="#FF7BFF"/><circle cx="259" cy="307" r="11" fill="#FF7BFF"/><circle cx="127" cy="18" r="11" fill="#FF7BFF"/><circle cx="57" cy="205" r="11" fill="#FF7BFF"/><circle cx="333" cy="18" r="11" fill="#FF7BFF"/><path stroke-linecap="round" d="M215 307h32M116.001 18H87c-16.569 0-30 13.431-30 30v146"/><circle r="11" fill="#FF7BFF" transform="matrix(-1 0 0 1 404 205)"/><path stroke-linecap="round" d="M344.999 18H374c16.569 0 30 13.431 30 30v146"/><path fill="#005EFF" stroke-linecap="round" stroke-linejoin="round" d="M130 266a27.998 27.998 0 0 1-47.799 19.799A28 28 0 0 1 102 238a27.857 27.857 0 0 1 19.839 8.161A27.857 27.857 0 0 1 130 266z"/><path fill="#000" d="M121.848 285.443a27.115 27.115 0 0 1-8.744 6.203A27.343 27.343 0 0 1 102 294a27.34 27.34 0 0 1-11.103-2.354 27.106 27.106 0 0 1-8.745-6.203 21.099 21.099 0 0 1 7.57-9.587A21.443 21.443 0 0 1 102 272c4.398 0 8.686 1.347 12.278 3.856a21.103 21.103 0 0 1 7.57 9.587z"/><path fill="#000" d="M113 263.5c0 5.759-4.884 10.5-11 10.5s-11-4.741-11-10.5 4.884-10.5 11-10.5 11 4.741 11 10.5z"/><path fill="#005EFF" stroke-linecap="round" stroke-linejoin="round" d="M258 53a27.997 27.997 0 0 1-17.285 25.869A28 28 0 1 1 230 25a27.862 27.862 0 0 1 28 28z"/><path fill="#000" d="M249.848 72.443a27.106 27.106 0 0 1-8.744 6.203A27.348 27.348 0 0 1 230 81c-3.828 0-7.612-.802-11.104-2.354a27.106 27.106 0 0 1-8.744-6.203 21.105 21.105 0 0 1 7.57-9.587A21.447 21.447 0 0 1 230 59c4.398 0 8.686 1.347 12.278 3.856a21.105 21.105 0 0 1 7.57 9.587z"/><path fill="#000" d="M241 50.5c0 5.76-4.884 10.5-11 10.5s-11-4.74-11-10.5S223.884 40 230 40s11 4.74 11 10.5z"/><path fill="#005EFF" stroke-linecap="round" stroke-linejoin="round" d="M390 266a27.998 27.998 0 0 1-47.799 19.799 27.997 27.997 0 0 1 4.243-43.08A27.998 27.998 0 0 1 362 238a27.857 27.857 0 0 1 19.839 8.161A27.857 27.857 0 0 1 390 266z"/><path fill="#000" d="M381.848 285.443a27.115 27.115 0 0 1-8.744 6.203A27.343 27.343 0 0 1 362 294c-3.828 0-7.612-.802-11.104-2.354a27.115 27.115 0 0 1-8.744-6.203 21.103 21.103 0 0 1 7.57-9.587A21.443 21.443 0 0 1 362 272c4.398 0 8.686 1.347 12.278 3.856a21.103 21.103 0 0 1 7.57 9.587z"/><path fill="#000" d="M373 263.5c0 5.759-4.884 10.5-11 10.5s-11-4.741-11-10.5 4.884-10.5 11-10.5 11 4.741 11 10.5z"/></g><defs><clipPath id="clip0_514_4914"><path fill="#fff" d="M0 0h464v380H0z"/></clipPath></defs></svg>