<svg xmlns="http://www.w3.org/2000/svg" fill="none" viewBox="0 0 2659 495"><g clip-path="url(#clip0_468_555)"><path fill="#000" d="M144.5 378.5c-27.667 0-52.083-5.917-73.25-17.75-21-12-37.5-28.417-49.5-49.25-11.833-21-17.75-45-17.75-72 0-29.5 5.833-55.167 17.5-77s27.75-38.75 48.25-50.75c20.5-12.167 44.083-18.25 70.75-18.25 28.333 0 52.417 6.667 72.25 20s34.5 32.083 44 56.25 12.833 52.583 10 85.25H199.5v-25c0-27.5-4.417-47.25-13.25-59.25-8.667-12.167-22.917-18.25-42.75-18.25-23.167 0-40.25 7.083-51.25 21.25C81.417 187.75 76 208.5 76 236c0 25.167 5.417 44.667 16.25 58.5 11 13.667 27.083 20.5 48.25 20.5 13.333 0 24.75-2.917 34.25-8.75S191.5 292 196.5 281l68 19.5c-10.167 24.667-26.25 43.833-48.25 57.5-21.833 13.667-45.75 20.5-71.75 20.5zM55 255v-50.5h179V255H55zm228.434 116l96.5-136.5-94.5-133.5h80l54 80 53-80h80l-94.5 133.5 97 136.5h-80l-55.5-83-56 83h-80zm420.972 7.5c-28 0-52-6.25-72-18.75s-35.333-29.5-46-51c-10.666-21.5-16-45.75-16-72.75 0-27.333 5.5-51.75 16.5-73.25 11.167-21.5 26.834-38.417 47-50.75 20.167-12.333 44-18.5 71.5-18.5 31.834 0 58.5 8.083 80 24.25 21.667 16 35.5 37.917 41.5 65.75l-68 18c-4-14-11-24.917-21-32.75-9.833-7.833-21-11.75-33.5-11.75-14.333 0-26.083 3.5-35.25 10.5-9.166 6.833-15.916 16.25-20.25 28.25-4.333 11.833-6.5 25.25-6.5 40.25 0 23.5 5.167 42.583 15.5 57.25 10.5 14.5 26 21.75 46.5 21.75 15.334 0 27-3.5 35-10.5s14-17 18-30l69.5 14.5c-7.666 28.667-22.166 50.75-43.5 66.25-21.333 15.5-47.666 23.25-79 23.25zm170.18-7.5V3.5h68V371h-68zm243.454 8c-21.17 0-38.42-3.583-51.75-10.75-13.34-7.167-23.75-16.25-31.25-27.25-7.34-11-12.59-22.417-15.75-34.25-3.17-12-5.09-22.917-5.75-32.75-.67-9.833-1-17-1-21.5V101h69v127.5c0 6.167.33 14.083 1 23.75.66 9.5 2.75 19.083 6.25 28.75 3.5 9.667 9.16 17.75 17 24.25 8 6.5 19.25 9.75 33.75 9.75 5.83 0 12.08-.917 18.75-2.75 6.66-1.833 12.91-5.333 18.75-10.5 5.83-5.333 10.58-13.083 14.25-23.25 3.83-10.333 5.75-23.833 5.75-40.5l39 18.5c0 21.333-4.34 41.333-13 60-8.67 18.667-21.75 33.75-39.25 45.25-17.34 11.5-39.25 17.25-65.75 17.25zm87.5-8v-89.5h-8.5V101h68.5v270h-60zm235.37 7.5c-34 0-61.5-7.667-82.5-23-20.84-15.5-33.5-37.333-38-65.5l69.5-10.5c2.83 12.667 9.08 22.583 18.75 29.75 9.83 7.167 22.25 10.75 37.25 10.75 12.33 0 21.83-2.333 28.5-7 6.66-4.833 10-11.5 10-20 0-5.333-1.34-9.583-4-12.75-2.67-3.333-8.67-6.583-18-9.75-9.17-3.167-23.5-7.333-43-12.5-22-5.667-39.59-12-52.75-19-13.17-7-22.67-15.333-28.5-25-5.84-9.833-8.75-21.667-8.75-35.5 0-17.333 4.41-32.333 13.25-45 8.83-12.833 21.25-22.667 37.25-29.5 16.16-7 35.16-10.5 57-10.5 21.16 0 39.91 3.25 56.25 9.75 16.33 6.5 29.5 15.75 39.5 27.75 10.16 12 16.41 26.167 18.75 42.5l-69.5 12.5c-1.17-10-5.5-17.917-13-23.75-7.5-5.833-17.67-9.25-30.5-10.25-12.5-.833-22.59.833-30.25 5-7.5 4.167-11.25 10.167-11.25 18 0 4.667 1.58 8.583 4.75 11.75 3.33 3.167 10.08 6.417 20.25 9.75 10.33 3.333 26 7.667 47 13 20.5 5.333 36.91 11.583 49.25 18.75 12.5 7 21.58 15.5 27.25 25.5 5.66 9.833 8.5 21.75 8.5 35.75 0 27.667-10 49.417-30 65.25-20 15.833-47.67 23.75-83 23.75zm172.93-315v-60h68v60h-68zm0 307.5V101h68v270h-68zm215.95 0l-98-270h68l64 187 64-187h68l-98 270h-68zm216.18-307.5v-60h68v60h-68zm0 307.5V101h68v270h-68zm304.95 0c-18.66 3.5-37 5-55 4.5-17.83-.333-33.83-3.417-48-9.25-14-6-24.66-15.583-32-28.75-6.66-12.333-10.16-24.833-10.5-37.5-.33-12.833-.5-27.333-.5-43.5V26h68v226.5c0 10.5.09 20 .25 28.5.34 8.333 2.09 15 5.25 20 6 9.5 15.59 14.667 28.75 15.5 13.17.833 27.75.167 43.75-2V371zm-192-217.5V101h192v52.5h-192zM2438.27 491l52-143 1 42-117.5-289h70.5l79 204.5h-16l78.5-204.5h68l-152.5 390h-63z"/><path fill="#fff" d="M71.25 360.75l-1.488 2.605.012.007.012.007 1.464-2.619zm-49.5-49.25l-2.614 1.473.007.012.007.012 2.6-1.497zm-.25-149l-2.646-1.414L21.5 162.5zm48.25-50.75l1.516 2.589.007-.005.008-.004-1.531-2.58zm143 1.75l1.674-2.49-1.674 2.49zm44 56.25l2.792-1.098-2.792 1.098zm10 85.25v3h2.751l.238-2.741-2.989-.259zm-67.25 0h-3v3h3v-3zm-13.25-84.25l-2.443 1.741.013.019.014.018 2.416-1.778zm-94 3l-2.37-1.84-.003.004 2.373 1.836zm0 120.75l-2.362 1.85.012.015.013.016 2.337-1.881zm82.5 11.75l-1.57-2.557 1.57 2.557zM196.5 281l.827-2.884-2.487-.713-1.071 2.356L196.5 281zm68 19.5l2.774 1.143 1.278-3.102-3.225-.925-.827 2.884zM216.25 358l-1.583-2.548-.009.005L216.25 358zM55 255h-3v3h3v-3zm0-50.5v-3h-3v3h3zm179 0h3v-3h-3v3zm0 50.5v3h3v-3h-3zm-89.5 120.5c-27.227 0-51.127-5.819-71.786-17.369l-2.928 5.238C91.46 375.485 116.394 381.5 144.5 381.5v-6zm-71.762-17.355c-20.54-11.737-36.656-27.773-48.388-48.142l-5.2 2.994c12.268 21.298 29.153 38.095 50.612 50.358l2.976-5.21zm-48.374-48.118C12.813 289.529 7 266.047 7 239.5H1c0 27.453 6.02 51.971 18.136 73.473l5.228-2.946zM7 239.5c0-29.101 5.752-54.264 17.146-75.586l-5.292-2.828C6.914 183.431 1 209.601 1 239.5h6zm17.146-75.586c11.417-21.366 27.118-37.867 47.12-49.575l-3.032-5.178c-20.998 12.292-37.464 29.625-49.38 51.925l5.292 2.828zM71.28 114.33c19.984-11.86 43.027-17.83 69.22-17.83v-6c-27.14 0-51.264 6.197-72.281 18.67l3.062 5.16zM140.5 96.5c27.85 0 51.324 6.547 70.576 19.49l3.348-4.98C194.01 97.286 169.317 90.5 140.5 90.5v6zm70.576 19.49c19.284 12.964 33.585 31.206 42.882 54.858l5.584-2.196c-9.703-24.682-24.735-43.939-45.118-57.642l-3.348 4.98zm42.882 54.858c9.292 23.637 12.607 51.569 9.803 83.893l5.978.518c2.863-33.01-.489-61.911-10.197-86.607l-5.584 2.196zM266.75 252H199.5v6h67.25v-6zm-64.25 3v-25h-6v25h6zm0-25c0-27.67-4.415-48.233-13.834-61.028l-4.832 3.556C192.082 183.733 196.5 202.67 196.5 230h6zm-13.807-60.991c-9.405-13.203-24.738-19.509-45.193-19.509v6c19.212 0 32.378 5.861 40.307 16.991l4.886-3.482zM143.5 149.5c-23.799 0-41.892 7.307-53.62 22.41l4.74 3.68c10.272-13.23 26.345-20.09 48.88-20.09v-6zm-53.623 22.414C78.467 186.66 73 208.181 73 236h6c0-27.181 5.366-47.16 15.623-60.414l-4.746-3.672zM73 236c0 25.555 5.496 45.803 16.888 60.35l4.724-3.7C84.338 279.531 79 260.778 79 236h-6zm16.913 60.381C101.601 310.903 118.633 318 140.5 318v-6c-20.466 0-35.601-6.569-45.913-19.381l-4.674 3.762zM140.5 318c13.778 0 25.762-3.018 35.82-9.193l-3.14-5.114c-8.942 5.491-19.791 8.307-32.68 8.307v6zm35.82-9.193c10.052-6.173 17.685-15.069 22.911-26.566l-5.462-2.482c-4.774 10.503-11.641 18.44-20.589 23.934l3.14 5.114zm19.353-24.923l68 19.5 1.654-5.768-68-19.5-1.654 5.768zm66.053 15.473c-9.934 24.104-25.61 42.771-47.059 56.095l3.166 5.096c22.551-14.009 39.042-33.675 49.441-58.905l-5.548-2.286zm-47.068 56.1C193.307 368.822 169.943 375.5 144.5 375.5v6c26.557 0 51.027-6.989 73.342-20.957l-3.184-5.086zM58 255v-50.5h-6V255h6zm-3-47.5h179v-6H55v6zm176-3V255h6v-50.5h-6zm3 47.5H55v6h179v-6zm49.434 119l-2.45-1.732-3.345 4.732h5.795v-3zm96.5-136.5l2.449 1.732 1.225-1.733-1.226-1.732-2.448 1.733zm-94.5-133.5v-3h-5.8l3.351 4.733 2.449-1.733zm80 0l2.486-1.678-.892-1.322h-1.594v3zm54 80l-2.487 1.678 2.51 3.719 2.478-3.74-2.501-1.657zm53-80v-3h-1.612l-.889 1.343 2.501 1.657zm80 0l2.448 1.733L558.233 98h-5.799v3zm-94.5 133.5l-2.449-1.733-1.229 1.736 1.232 1.735 2.446-1.738zm97 136.5v3h5.812l-3.367-4.738-2.445 1.738zm-80 0l-2.494 1.668.891 1.332h1.603v-3zm-55.5-83l2.493-1.668-2.482-3.712-2.498 3.702 2.487 1.678zm-56 83v3h1.594l.892-1.322-2.486-1.678zm-77.551 1.732l96.5-136.5-4.899-3.464-96.5 136.5 4.899 3.464zm96.499-139.965l-94.5-133.5-4.897 3.466 94.5 133.5 4.897-3.466zM285.434 104h80v-6h-80v6zm77.513-1.322l54 80 4.973-3.356-54-80-4.973 3.356zm58.988 79.979l53-80-5.002-3.314-53 80 5.002 3.314zM472.434 104h80v-6h-80v6zm77.551-4.733l-94.5 133.5 4.897 3.466 94.5-133.5-4.897-3.466zm-94.497 136.971l97 136.5 4.891-3.476-97-136.5-4.891 3.476zM554.934 368h-80v6h80v-6zm-77.507 1.332l-55.5-83-4.987 3.336 55.5 83 4.987-3.336zm-60.48-83.01l-56 83 4.973 3.356 56-83-4.973-3.356zM363.434 368h-80v6h80v-6zm222.972-59.25l2.688-1.333-2.688 1.333zm.5-146l-2.662-1.383-.004.008-.004.009 2.67 1.366zm47-50.75l1.565 2.559-1.565-2.559zm151.5 5.75l-1.803 2.398.011.008.01.007 1.782-2.413zm41.5 65.75l.768 2.9 2.768-.733-.603-2.799-2.933.632zm-68 18l-2.884.824.808 2.829 2.844-.753-.768-2.9zm-21-32.75l-1.869 2.346.01.008.009.008 1.85-2.362zm-68.75-1.25l1.793 2.405.014-.01.014-.011-1.821-2.384zm-20.25 28.25l2.817 1.032.005-.013-2.822-1.019zm9 97.5l-2.452 1.728.011.016.011.016 2.43-1.76zm81.5 11.25l1.976 2.258-1.976-2.258zm18-30l.613-2.937-2.676-.558-.804 2.613 2.867.882zm69.5 14.5l2.898.775.82-3.064-3.105-.648-.613 2.937zm-122.5 86.5c-27.544 0-50.969-6.144-70.41-18.294l-3.18 5.088c20.56 12.85 45.134 19.206 73.59 19.206v-6zm-70.41-18.294c-19.52-12.2-34.478-28.777-44.902-49.789l-5.375 2.666c10.909 21.988 26.618 39.411 47.097 52.211l3.18-5.088zm-44.902-49.789c-10.437-21.037-15.688-44.821-15.688-71.417h-6c0 27.404 5.416 52.12 16.313 74.083l5.375-2.666zM573.406 236c0-26.921 5.414-50.859 16.171-71.884l-5.341-2.732c-11.244 21.975-16.83 46.871-16.83 74.616h6zm16.163-71.867c10.921-21.028 26.214-37.533 45.902-49.574l-3.13-5.118c-20.645 12.625-36.685 29.954-48.097 51.926l5.325 2.766zm45.902-49.574c19.623-12 42.896-18.059 69.935-18.059v-6c-27.96 0-52.355 6.275-73.065 18.941l3.13 5.118zM705.406 96.5c31.306 0 57.308 7.94 78.197 23.648l3.606-4.796C765.099 98.727 737.767 90.5 705.406 90.5v6zm78.218 23.663c21.044 15.54 34.494 36.805 40.35 63.969l5.865-1.264c-6.144-28.503-20.361-51.071-42.651-67.531l-3.564 4.826zm42.515 60.437l-68 18 1.535 5.8 68-18-1.535-5.8zm-64.348 20.076c-4.148-14.517-11.466-26.008-22.035-34.288l-3.7 4.724c9.431 7.387 16.113 17.729 19.966 31.212l5.769-1.648zm-22.016-34.272C729.414 158.15 717.59 154 704.406 154v6c11.817 0 22.326 3.684 31.631 11.096l3.738-4.692zM704.406 154c-14.828 0-27.265 3.628-37.07 11.116l3.641 4.768c8.528-6.512 19.591-9.884 33.429-9.884v-6zm-37.043 11.095c-9.691 7.224-16.769 17.15-21.278 29.636l5.643 2.038c4.158-11.514 10.579-20.422 19.221-26.864l-3.586-4.81zm-21.274 29.623c-4.475 12.22-6.683 25.995-6.683 41.282h6c0-14.713 2.126-27.772 6.317-39.218l-5.634-2.064zM639.406 236c0 23.928 5.262 43.67 16.048 58.978l4.905-3.456c-9.882-14.025-14.953-32.45-14.953-55.522h-6zm16.07 59.01c11.152 15.4 27.629 22.99 48.93 22.99v-6c-19.698 0-34.222-6.91-44.07-20.51l-4.86 3.52zm48.93 22.99c15.744 0 28.23-3.59 36.976-11.242l-3.951-4.516c-7.255 6.348-18.102 9.758-33.025 9.758v6zm36.976-11.242c8.521-7.457 14.773-17.99 18.892-31.376l-5.735-1.764c-3.881 12.614-9.63 22.081-17.108 28.624l3.951 4.516zm15.412-29.321l69.5 14.5 1.225-5.874-69.5-14.5-1.225 5.874zm67.214 10.788c-7.512 28.09-21.658 49.553-42.365 64.598l3.527 4.854c21.959-15.955 36.814-38.659 44.634-67.902l-5.796-1.55zm-42.365 64.598c-20.73 15.061-46.414 22.677-77.237 22.677v6c31.845 0 58.827-7.884 80.764-23.823l-3.527-4.854zM874.586 371h-3v3h3v-3zm0-367.5v-3h-3v3h3zm68 0h3v-3h-3v3zm0 367.5v3h3v-3h-3zm-65 0V3.5h-6V371h6zm-3-364.5h68v-6h-68v6zm65-3V371h6V3.5h-6zm3 364.5h-68v6h68v-6zm123.704.25l-1.43 2.642 1.43-2.642zM1035.04 341l-2.5 1.664.01.013.01.013 2.48-1.69zm-15.75-34.25l-2.91.765.01.011 2.9-.776zm-5.75-32.75l-3 .203 3-.203zm-1-173v-3h-3v3h3zm69 0h3v-3h-3v3zm1 151.25l-3 .206v.004l3-.21zm23.25 53l-1.92 2.309.01.01.01.009 1.9-2.328zm52.5 7l-.8-2.893.8 2.893zm18.75-10.5l1.98 2.246.02-.016.02-.016-2.02-2.214zm14.25-23.25l-2.82-1.043v.012l-.01.013 2.83 1.018zm5.75-40.5l1.28-2.711-4.28-2.032V238h3zm39 18.5h3v-1.897l-1.72-.814-1.28 2.711zm-13 60l2.72 1.263-2.72-1.263zm-39.25 45.25l-1.65-2.507-.01.007 1.66 2.5zm21.75 9.25h-3v3h3v-3zm0-89.5h3v-3h-3v3zm-8.5 0h-3v3h3v-3zm0-180.5v-3h-3v3h3zm68.5 0h3v-3h-3v3zm0 270v3h3v-3h-3zm-147.5 5c-20.86 0-37.58-3.535-50.33-10.392l-2.85 5.284c13.91 7.477 31.7 11.108 53.18 11.108v-6zm-50.33-10.392c-12.97-6.971-23-15.747-30.2-26.298l-4.95 3.38c7.8 11.449 18.61 20.839 32.3 28.202l2.85-5.284zm-30.18-26.272c-7.16-10.749-12.27-21.868-15.35-33.362l-5.79 1.552c3.25 12.173 8.65 23.887 16.15 35.138l4.99-3.328zm-15.34-33.351c-3.13-11.861-5.01-22.586-5.66-32.188l-5.99.406c.68 10.065 2.64 21.173 5.84 33.312l5.81-1.53zm-5.66-32.188c-.67-9.826-.99-16.906-.99-21.297h-6c0 4.609.33 11.862 1 21.703l5.99-.406zm-.99-21.297V101h-6v151.5h6zm-3-148.5h69v-6h-69v6zm66-3v127.5h6V101h-6zm0 127.5c0 6.263.33 14.255 1 23.956l5.99-.412c-.67-9.632-.99-17.473-.99-23.544h-6zm1 23.96c.69 9.798 2.84 19.654 6.42 29.561l5.65-2.042c-3.42-9.426-5.44-18.737-6.08-27.939l-5.99.42zm6.42 29.561c3.68 10.164 9.66 18.693 17.91 25.538l3.83-4.618c-7.42-6.155-12.77-13.792-16.09-22.962l-5.65 2.042zm17.93 25.557c8.72 7.082 20.73 10.422 35.65 10.422v-6c-14.09 0-24.58-3.16-31.86-9.078l-3.79 4.656zM1139.54 318c6.14 0 12.66-.966 19.54-2.857l-1.59-5.786c-6.45 1.775-12.43 2.643-17.95 2.643v6zm19.54-2.857c7.16-1.97 13.81-5.715 19.94-11.147l-3.97-4.492c-5.54 4.902-11.39 8.156-17.56 9.853l1.59 5.786zm19.98-11.179c6.3-5.76 11.27-13.982 15.05-24.446l-5.65-2.036c-3.56 9.869-8.08 17.147-13.45 22.054l4.05 4.428zm15.04-24.421c4-10.792 5.94-24.684 5.94-41.543h-6c0 16.474-1.9 29.582-5.57 39.457l5.63 2.086zm1.65-38.832l39 18.499 2.57-5.421-39-18.5-2.57 5.422zm37.29 15.789c0 20.913-4.25 40.48-12.73 58.737l5.45 2.526c8.85-19.077 13.28-39.51 13.28-61.263h-6zm-12.73 58.737c-8.42 18.151-21.13 32.807-38.17 44.006l3.29 5.014c17.96-11.801 31.42-27.311 40.33-46.494l-5.45-2.526zm-38.18 44.013c-16.73 11.095-38.02 16.75-64.09 16.75v6c26.92 0 49.46-5.845 67.4-17.75l-3.31-5zm26.41 11.75v-89.5h-6V371h6zm-3-92.5h-8.5v6h8.5v-6zm-5.5 3V101h-6v180.5h6zm-3-177.5h68.5v-6h-68.5v6zm65.5-3v270h6V101h-6zm3 267h-60v6h60v-6zm92.87-12.5l-1.79 2.407.01.008.01.008 1.77-2.423zm-38-65.5l-.45-2.966-2.99.452.47 2.987 2.97-.473zm69.5-10.5l2.92-.655-.61-2.729-2.76.418.45 2.966zm18.75 29.75l-1.79 2.41.01.007.01.007 1.77-2.424zm65.75 3.75l1.72 2.458.02-.015.02-.014-1.76-2.429zm6-32.75l-2.35 1.874.03.03.02.028 2.3-1.932zm-18-9.75l-.98 2.836v.002l.01.003.97-2.841zm-43-12.5l.76-2.9-.01-.003-.01-.002-.74 2.905zm-52.75-19l-1.41 2.649 1.41-2.649zm-28.5-25l-2.58 1.531v.009l.01.01 2.57-1.55zm4.5-80.5l2.46 1.716v-.008l.01-.007-2.47-1.701zm37.25-29.5l1.17 2.759.01-.003.01-.003-1.19-2.753zm113.25-.75l1.11-2.787-1.11 2.787zm39.5 27.75l-2.31 1.921.01.009.01.009 2.29-1.939zm18.75 42.5l.53 2.953 2.85-.513-.41-2.864-2.97.424zm-69.5 12.5l-2.98.348.37 3.17 3.14-.565-.53-2.953zm-43.5-34l.23-2.991-.02-.001-.01-.001-.2 2.993zm-30.25 5l-1.44-2.636-.01.007-.01.007 1.46 2.622zm-6.5 29.75l-2.13 2.121.03.028.03.026 2.07-2.175zm20.25 9.75l-.94 2.851.01.002.01.002.92-2.855zm47 13l.75-2.903-.01-.003-.01-.002-.73 2.908zm49.25 18.75l-1.51 2.594.02.012.02.012 1.47-2.618zm27.25 25.5l-2.61 1.479v.009l.01.01 2.6-1.498zm-104.5 121.75c-33.56 0-60.39-7.565-80.73-22.423l-3.54 4.846c21.65 15.809 49.83 23.577 84.27 23.577v-6zm-80.71-22.407c-20.14-14.985-32.44-36.089-36.83-63.566l-5.93.946c4.61 28.856 17.65 51.419 39.18 67.434l3.58-4.814zm-39.35-60.127l69.5-10.5-.89-5.932-69.5 10.5.89 5.932zm66.13-12.811c2.98 13.31 9.6 23.874 19.89 31.505l3.57-4.82c-9.04-6.702-14.92-15.971-17.61-27.995l-5.85 1.31zm19.91 31.519c10.46 7.621 23.53 11.326 39.02 11.326v-6c-14.52 0-26.28-3.462-35.49-10.174l-3.53 4.848zM1445.91 323c12.65 0 22.85-2.383 30.22-7.542l-3.44-4.916c-5.97 4.175-14.77 6.458-26.78 6.458v6zm30.26-7.571c7.47-5.419 11.24-13.004 11.24-22.429h-6c0 7.575-2.91 13.323-8.76 17.571l3.52 4.858zM1487.41 293c0-5.833-1.47-10.835-4.71-14.682l-4.59 3.864c2.09 2.486 3.3 5.984 3.3 10.818h6zm-4.66-14.624c-1.69-2.111-4.25-3.986-7.41-5.701-3.2-1.733-7.21-3.4-11.97-5.016l-1.93 5.682c4.57 1.551 8.24 3.092 11.04 4.609 2.83 1.535 4.61 2.952 5.58 4.174l4.69-3.748zm-19.36-10.712c-9.28-3.204-23.7-7.394-43.22-12.564l-1.53 5.8c19.49 5.163 33.73 9.307 42.79 12.436l1.96-5.672zm-43.24-12.569c-21.87-5.635-39.21-11.897-52.09-18.744l-2.81 5.298c13.45 7.153 31.28 13.558 53.41 19.256l1.49-5.81zm-52.09-18.744c-12.83-6.825-21.86-14.825-27.34-23.901l-5.13 3.1c6.19 10.257 16.16 18.924 29.66 26.099l2.81-5.298zm-27.32-23.882c-5.51-9.281-8.33-20.561-8.33-33.969h-6c0 14.259 3.01 26.646 9.17 37.031l5.16-3.062zm-8.33-33.969c0-16.798 4.27-31.181 12.71-43.284l-4.92-3.432c-9.23 13.231-13.79 28.847-13.79 46.716h6zm12.72-43.299c8.47-12.312 20.41-21.805 35.95-28.442l-2.35-5.518c-16.46 7.03-29.35 17.203-38.54 30.558l4.94 3.402zm35.97-28.448c15.71-6.803 34.29-10.253 55.81-10.253v-6c-22.15 0-41.57 3.55-58.2 10.747l2.39 5.506zm55.81-10.253c20.86 0 39.22 3.203 55.14 9.537l2.22-5.574c-16.75-6.666-35.89-9.963-57.36-9.963v6zm55.14 9.537c15.92 6.339 28.66 15.314 38.3 26.884l4.61-3.842c-10.36-12.43-23.96-21.955-40.69-28.616l-2.22 5.574zm38.32 26.902c9.78 11.548 15.81 25.182 18.07 40.985l5.94-.848c-2.41-16.864-8.88-31.563-19.43-44.015l-4.58 3.878zm20.51 37.608l-69.5 12.5 1.06 5.906 69.5-12.5-1.06-5.906zm-65.99 15.105c-1.26-10.745-5.97-19.411-14.14-25.77l-3.69 4.736c6.83 5.308 10.79 12.475 11.87 21.73l5.96-.696zm-14.14-25.77c-8.1-6.301-18.89-9.843-32.11-10.873l-.47 5.982c12.45.97 22 4.261 28.89 9.627l3.69-4.736zm-32.14-10.875c-12.84-.856-23.55.825-31.89 5.357l2.87 5.272c6.99-3.802 16.45-5.454 28.62-4.643l.4-5.986zm-31.91 5.371c-8.34 4.634-12.79 11.578-12.79 20.622h6c0-6.623 3.04-11.678 9.7-15.378l-2.91-5.244zM1393.91 175c0 5.425 1.87 10.116 5.62 13.871l4.25-4.242c-2.58-2.579-3.87-5.721-3.87-9.629h-6zm5.68 13.925c3.87 3.675 11.21 7.091 21.38 10.426l1.87-5.702c-10.16-3.331-16.32-6.416-19.12-9.074l-4.13 4.35zm21.4 10.43c10.42 3.364 26.16 7.716 47.18 13.053l1.47-5.816c-20.98-5.33-36.57-9.644-46.81-12.947l-1.84 5.71zm47.16 13.048c20.35 5.295 36.49 11.46 48.5 18.441l3.01-5.188c-12.65-7.352-29.35-13.687-50-19.059l-1.51 5.806zm48.54 18.465c12.14 6.797 20.77 14.943 26.11 24.361l5.22-2.958c-6-10.582-15.54-19.436-28.4-26.639l-2.93 5.236zm26.12 24.38c5.35 9.283 8.1 20.656 8.1 34.252h6c0-14.404-2.92-26.864-8.9-37.248l-5.2 2.996zm8.1 34.252c0 26.839-9.65 47.687-28.87 62.898l3.73 4.704c20.78-16.455 31.14-39.108 31.14-67.602h-6zm-28.87 62.898c-19.29 15.278-46.22 23.102-81.13 23.102v6c35.75 0 64.16-8.009 84.86-24.398l-3.73-4.704zm91.8-288.898h-3v3h3v-3zm0-60v-3h-3v3h3zm68 0h3v-3h-3v3zm0 60v3h3v-3h-3zm-68 307.5h-3v3h3v-3zm0-270v-3h-3v3h3zm68 0h3v-3h-3v3zm0 270v3h3v-3h-3zm-65-307.5v-60h-6v60h6zm-3-57h68v-6h-68v6zm65-3v60h6v-60h-6zm3 57h-68v6h68v-6zm-65 310.5V101h-6v270h6zm-3-267h68v-6h-68v6zm65-3v270h6V101h-6zm3 267h-68v6h68v-6zm147.95 3l-2.82 1.024.72 1.976h2.1v-3zm-98-270v-3h-4.28l1.46 4.024 2.82-1.024zm68 0l2.84-.971-.69-2.029h-2.15v3zm64 187l-2.84.971 2.84 8.294 2.84-8.294-2.84-.971zm64-187v-3h-2.14l-.7 2.029 2.84.971zm68 0l2.82 1.024 1.46-4.024h-4.28v3zm-98 270v3h2.11l.71-1.976-2.82-1.024zm-65.18-1.024l-98-270-5.64 2.048 98 270 5.64-2.048zM1731.79 104h68v-6h-68v6zm65.16-2.029l64 187 5.68-1.942-64-187-5.68 1.942zm69.68 187l64-187-5.68-1.942-64 187 5.68 1.942zM1927.79 104h68v-6h-68v6zm65.18-4.024l-98 270 5.64 2.048 98-270-5.64-2.048zM1897.79 368h-68v6h68v-6zm148.18-304.5h-3v3h3v-3zm0-60v-3h-3v3h3zm68 0h3v-3h-3v3zm0 60v3h3v-3h-3zm-68 307.5h-3v3h3v-3zm0-270v-3h-3v3h3zm68 0h3v-3h-3v3zm0 270v3h3v-3h-3zm-65-307.5v-60h-6v60h6zm-3-57h68v-6h-68v6zm65-3v60h6v-60h-6zm3 57h-68v6h68v-6zm-65 310.5V101h-6v270h6zm-3-267h68v-6h-68v6zm65-3v270h6V101h-6zm3 267h-68v6h68v-6zm236.95 3l.55 2.949 2.45-.459V371h-3zm-55 4.5l.09-2.999h-.03l-.06 2.999zm-48-9.25l-1.18 2.757.02.009.02.008 1.14-2.774zm-32-28.75l-2.64 1.427.01.016.01.017 2.62-1.46zm-10.5-37.5l-3 .078v.001l3-.079zm-.5-274v-3h-3v3h3zm68 0h3v-3h-3v3zm.25 255l-3 .059v.061l3-.12zm5.25 20l2.54-1.602v-.003l-2.54 1.605zm72.5 13.5h3v-3.434l-3.4.461.4 2.973zm-192-161h-3v3h3v-3zm0-52.5v-3h-3v3h3zm192 0h3v-3h-3v3zm0 52.5v3h3v-3h-3zm-.55 214.551c-18.47 3.463-36.59 4.944-54.36 4.45l-.17 5.998c18.22.506 36.77-1.013 55.63-4.55l-1.1-5.898zm-54.39 4.45c-17.52-.328-33.15-3.355-46.92-9.025l-2.28 5.548c14.56 5.997 30.94 9.136 49.09 9.475l.11-5.998zm-46.88-9.008c-13.39-5.742-23.55-14.873-30.56-27.453l-5.24 2.92c7.66 13.753 18.84 23.789 33.44 30.047l2.36-5.514zm-30.54-27.42c-6.47-11.963-9.82-24.005-10.14-36.152l-6 .158c.35 13.186 4 26.144 10.86 38.848l5.28-2.854zm-10.14-36.151c-.33-12.802-.5-27.275-.5-43.422h-6c0 16.186.17 30.713.5 43.578l6-.156zm-.5-43.422V26h-6v230.5h6zm-3-227.5h68v-6h-68v6zm65-3v226.5h6V26h-6zm0 226.5c0 10.515.09 20.035.25 28.559l6-.118c-.16-8.476-.25-17.956-.25-28.441h-6zm.25 28.62c.35 8.656 2.18 15.894 5.72 21.485l5.07-3.21c-2.8-4.409-4.47-10.504-4.79-18.515l-6 .24zm5.72 21.482c6.6 10.463 17.16 16.01 31.09 16.892l.38-5.988c-12.4-.785-21.01-5.571-26.4-14.108l-5.07 3.204zm31.09 16.892c13.4.848 28.19.166 44.34-2.021l-.8-5.946c-15.85 2.146-30.23 2.797-43.16 1.979l-.38 5.988zm40.94-4.994V371h6v-56.5h-6zm-186-161V101h-6v52.5h6zm-3-49.5h192v-6h-192v6zm189-3v52.5h6V101h-6zm3 49.5h-192v6h192v-6zm87.35 340.5l-2.82-1.025-1.47 4.025h4.29v-3zm52-143l2.99-.071-5.81-.954 2.82 1.025zm1 42l-2.78 1.13 5.77-1.201-2.99.071zm-117.5-289v-3h-4.46l1.68 4.13 2.78-1.13zm70.5 0l2.79-1.081-.74-1.919h-2.05v3zm79 204.5v3h4.37l-1.58-4.081-2.79 1.081zm-16 0l-2.81-1.075-1.56 4.075h4.37v-3zm78.5-204.5v-3h-2.07l-.74 1.925 2.81 1.075zm68 0l2.79 1.093 1.6-4.093h-4.39v3zm-152.5 390v3h2.04l.75-1.907-2.79-1.093zm-60.18 1.025l52-143-5.64-2.05-52 143 5.64 2.05zm46.18-143.954l1 42 5.99-.142-1-42-5.99.142zm6.77 40.799l-117.5-289-5.55 2.26 117.5 289 5.55-2.26zM2373.77 104h70.5v-6h-70.5v6zm67.7-1.919l79 204.5 5.59-2.162-79-204.5-5.59 2.162zm81.8 200.419h-16v6h16v-6zm-13.2 4.075l78.5-204.5-5.61-2.15-78.5 204.5 5.61 2.15zM2585.77 104h68v-6h-68v6zm65.2-4.093l-152.5 390 5.59 2.186 152.5-390-5.59-2.186zM2501.27 488h-63v6h63v-6z"/><path fill="#090909" d="M144.5 378.5c-27.667 0-52.083-5.917-73.25-17.75-21-12-37.5-28.417-49.5-49.25-11.833-21-17.75-45-17.75-72 0-29.5 5.833-55.167 17.5-77s27.75-38.75 48.25-50.75c20.5-12.167 44.083-18.25 70.75-18.25 28.333 0 52.417 6.667 72.25 20s34.5 32.083 44 56.25 12.833 52.583 10 85.25H199.5v-25c0-27.5-4.417-47.25-13.25-59.25-8.667-12.167-22.917-18.25-42.75-18.25-23.167 0-40.25 7.083-51.25 21.25C81.417 187.75 76 208.5 76 236c0 25.167 5.417 44.667 16.25 58.5 11 13.667 27.083 20.5 48.25 20.5 13.333 0 24.75-2.917 34.25-8.75S191.5 292 196.5 281l68 19.5c-10.167 24.667-26.25 43.833-48.25 57.5-21.833 13.667-45.75 20.5-71.75 20.5zM55 255v-50.5h179V255H55zm228.434 116l96.5-136.5-94.5-133.5h80l54 80 53-80h80l-94.5 133.5 97 136.5h-80l-55.5-83-56 83h-80zm420.972 7.5c-28 0-52-6.25-72-18.75s-35.333-29.5-46-51c-10.666-21.5-16-45.75-16-72.75 0-27.333 5.5-51.75 16.5-73.25 11.167-21.5 26.834-38.417 47-50.75 20.167-12.333 44-18.5 71.5-18.5 31.834 0 58.5 8.083 80 24.25 21.667 16 35.5 37.917 41.5 65.75l-68 18c-4-14-11-24.917-21-32.75-9.833-7.833-21-11.75-33.5-11.75-14.333 0-26.083 3.5-35.25 10.5-9.166 6.833-15.916 16.25-20.25 28.25-4.333 11.833-6.5 25.25-6.5 40.25 0 23.5 5.167 42.583 15.5 57.25 10.5 14.5 26 21.75 46.5 21.75 15.334 0 27-3.5 35-10.5s14-17 18-30l69.5 14.5c-7.666 28.667-22.166 50.75-43.5 66.25-21.333 15.5-47.666 23.25-79 23.25zm170.18-7.5V3.5h68V371h-68zm243.454 8c-21.17 0-38.42-3.583-51.75-10.75-13.34-7.167-23.75-16.25-31.25-27.25-7.34-11-12.59-22.417-15.75-34.25-3.17-12-5.09-22.917-5.75-32.75-.67-9.833-1-17-1-21.5V101h69v127.5c0 6.167.33 14.083 1 23.75.66 9.5 2.75 19.083 6.25 28.75 3.5 9.667 9.16 17.75 17 24.25 8 6.5 19.25 9.75 33.75 9.75 5.83 0 12.08-.917 18.75-2.75 6.66-1.833 12.91-5.333 18.75-10.5 5.83-5.333 10.58-13.083 14.25-23.25 3.83-10.333 5.75-23.833 5.75-40.5l39 18.5c0 21.333-4.34 41.333-13 60-8.67 18.667-21.75 33.75-39.25 45.25-17.34 11.5-39.25 17.25-65.75 17.25zm87.5-8v-89.5h-8.5V101h68.5v270h-60zm235.37 7.5c-34 0-61.5-7.667-82.5-23-20.84-15.5-33.5-37.333-38-65.5l69.5-10.5c2.83 12.667 9.08 22.583 18.75 29.75 9.83 7.167 22.25 10.75 37.25 10.75 12.33 0 21.83-2.333 28.5-7 6.66-4.833 10-11.5 10-20 0-5.333-1.34-9.583-4-12.75-2.67-3.333-8.67-6.583-18-9.75-9.17-3.167-23.5-7.333-43-12.5-22-5.667-39.59-12-52.75-19-13.17-7-22.67-15.333-28.5-25-5.84-9.833-8.75-21.667-8.75-35.5 0-17.333 4.41-32.333 13.25-45 8.83-12.833 21.25-22.667 37.25-29.5 16.16-7 35.16-10.5 57-10.5 21.16 0 39.91 3.25 56.25 9.75 16.33 6.5 29.5 15.75 39.5 27.75 10.16 12 16.41 26.167 18.75 42.5l-69.5 12.5c-1.17-10-5.5-17.917-13-23.75-7.5-5.833-17.67-9.25-30.5-10.25-12.5-.833-22.59.833-30.25 5-7.5 4.167-11.25 10.167-11.25 18 0 4.667 1.58 8.583 4.75 11.75 3.33 3.167 10.08 6.417 20.25 9.75 10.33 3.333 26 7.667 47 13 20.5 5.333 36.91 11.583 49.25 18.75 12.5 7 21.58 15.5 27.25 25.5 5.66 9.833 8.5 21.75 8.5 35.75 0 27.667-10 49.417-30 65.25-20 15.833-47.67 23.75-83 23.75zm172.93-315v-60h68v60h-68zm0 307.5V101h68v270h-68zm215.95 0l-98-270h68l64 187 64-187h68l-98 270h-68zm216.18-307.5v-60h68v60h-68zm0 307.5V101h68v270h-68zm304.95 0c-18.66 3.5-37 5-55 4.5-17.83-.333-33.83-3.417-48-9.25-14-6-24.66-15.583-32-28.75-6.66-12.333-10.16-24.833-10.5-37.5-.33-12.833-.5-27.333-.5-43.5V26h68v226.5c0 10.5.09 20 .25 28.5.34 8.333 2.09 15 5.25 20 6 9.5 15.59 14.667 28.75 15.5 13.17.833 27.75.167 43.75-2V371zm-192-217.5V101h192v52.5h-192zM2438.27 491l52-143 1 42-117.5-289h70.5l79 204.5h-16l78.5-204.5h68l-152.5 390h-63z"/></g><defs><clipPath id="clip0_468_555"><path fill="#fff" d="M0 0h2659v495H0z"/></clipPath></defs></svg>