<svg xmlns="http://www.w3.org/2000/svg" fill="none" viewBox="0 0 464 380"><mask id="a" style="mask-type:alpha" width="295" height="295" x="83" y="85" maskUnits="userSpaceOnUse"><path fill="#C4C4C4" stroke="#fff" stroke-linecap="round" stroke-linejoin="round" stroke-width="2" d="M376.525 232.792a145.988 145.988 0 0 1-174.471 143.185A145.993 145.993 0 0 1 87.35 261.273a145.99 145.99 0 0 1 143.185-174.47 145.273 145.273 0 0 1 145.99 145.989z"/></mask><g mask="url(#a)"><path fill="#000" stroke="#fff" stroke-width="2" d="M338.766 351.045a144.068 144.068 0 0 1-48.26 35.287 143.956 143.956 0 0 1-118.014 0 144.068 144.068 0 0 1-48.26-35.287 114.158 114.158 0 0 1 41.506-54.453 113.999 113.999 0 0 1 65.761-20.883c23.548 0 46.52 7.295 65.761 20.883a114.158 114.158 0 0 1 41.506 54.453z"/></g><path stroke="#fff" stroke-linecap="round" stroke-linejoin="round" stroke-width="2" d="M375.998 233.001c0 28.876-8.533 57.103-24.521 81.113a145.6 145.6 0 0 1-65.298 53.772 145.032 145.032 0 0 1-84.065 8.309 145.352 145.352 0 0 1-74.498-39.957 146.154 146.154 0 0 1-39.82-74.754 146.468 146.468 0 0 1 8.28-84.355 145.899 145.899 0 0 1 53.588-65.522 145.144 145.144 0 0 1 80.835-24.605 144.353 144.353 0 0 1 55.792 10.92 144.755 144.755 0 0 1 47.302 31.63 145.317 145.317 0 0 1 31.522 47.465 145.704 145.704 0 0 1 10.883 55.984z"/><path fill="#000" stroke="#fff" stroke-width="2" d="M292 216.5c0 32.278-27.055 58.5-60.5 58.5S171 248.778 171 216.5s27.055-58.5 60.5-58.5 60.5 26.222 60.5 58.5z"/><path fill="#000" d="M69 226h20v32H69z"/><path fill="#000" d="M69 226h20v32H69zm303 0h20v32h-20z"/><path fill="#000" d="M372 226h20v32h-20z"/><path fill="#000" stroke="#fff" stroke-width="2" d="M202.144 68.478l.005.008c2.284 3.395 4.473 6.65 6.097 9.905 1.622 3.248 2.644 6.424 2.644 9.643a3.223 3.223 0 0 0 3.223 3.224h35.945c1.726 0 3.126-1.4 3.126-3.127 0-6.898 3.961-13.018 8.46-19.95l.026-.04c5.009-7.69 10.887-16.715 10.887-28.054C272.557 18.515 254.145 1 231.65 1c-22.496 0-40.908 17.515-40.908 39.087 0 11.125 5.938 20.118 11.064 27.88l.338.511zm47.672 27.16h-35.461a3.37 3.37 0 0 0 0 6.736h35.461a3.368 3.368 0 0 0 0-6.736zm0 11.213h-35.461a3.37 3.37 0 0 0 0 6.737h35.461a3.368 3.368 0 0 0 0-6.737zm-1.259 11.214h-32.652a3.368 3.368 0 1 0 0 6.736h32.652a3.368 3.368 0 0 0 0-6.736zm110.146 94.056h0l.005.008c1.916 2.847 3.743 5.566 5.099 8.281 1.352 2.709 2.197 5.345 2.197 8.008a2.863 2.863 0 0 0 2.863 2.863h30.118a2.782 2.782 0 0 0 2.782-2.782c0-5.722 3.285-10.809 7.062-16.627l.031-.047c4.192-6.436 9.139-14.032 9.139-23.582 0-18.172-15.506-32.913-34.438-32.913-18.931 0-34.438 14.741-34.438 32.913 0 9.371 5 16.942 9.289 23.437l.291.441zm40.08 22.506H369.07a2.984 2.984 0 0 0 0 5.969h29.713a2.985 2.985 0 0 0 0-5.969zm0 9.395H369.07a2.985 2.985 0 0 0 0 5.969h29.713a2.984 2.984 0 0 0 0-5.969zm-1.055 9.396h-27.359a2.984 2.984 0 1 0 0 5.969h27.359a2.984 2.984 0 0 0 0-5.969zM54.58 211.76v.001l.005.007c1.916 2.846 3.743 5.563 5.099 8.277 1.352 2.707 2.197 5.342 2.197 8.003a2.862 2.862 0 0 0 2.862 2.862h30.12a2.782 2.782 0 0 0 2.781-2.781c0-5.719 3.285-10.803 7.062-16.618l.031-.047c4.192-6.432 9.139-14.024 9.139-23.569 0-18.163-15.507-32.895-34.438-32.895C60.508 155 45 169.732 45 187.895c0 9.366 5 16.933 9.289 23.425l.291.44zm40.081 22.492H64.946a2.984 2.984 0 0 0 0 5.967H94.66a2.983 2.983 0 0 0 0-5.967zm0 9.391H64.946a2.983 2.983 0 0 0 0 5.967H94.66a2.984 2.984 0 0 0 0-5.967zm-1.055 9.39H66.245a2.984 2.984 0 0 0 0 5.967h27.36a2.983 2.983 0 0 0 0-5.967z"/><path fill="#000" stroke="#FF7BFF" stroke-width="2" d="M76.782 204.052v15.031a2.917 2.917 0 0 0 5.835 0v-15.139c0-.83.343-1.622.949-2.189l9.675-9.068a2.875 2.875 0 1 0-3.942-4.184l-7.582 7.183a3 3 0 0 1-4.09.034l-7.938-7.269a2.876 2.876 0 1 0-3.884 4.245l10.001 9.142a3 3 0 0 1 .976 2.214zm293.025-15.642l.681.732-.681-.732a2.845 2.845 0 0 0 .051 4.213l9.914 8.788a2.998 2.998 0 0 1 1.01 2.245v14.427a2.918 2.918 0 0 0 5.835 0V203.55a3 3 0 0 1 .982-2.22l9.59-8.715a2.845 2.845 0 1 0-3.837-4.199l-7.668 7.045a3.002 3.002 0 0 1-4.022.034l-8.028-7.129a2.845 2.845 0 0 0-3.827.044zM228.427 54.078v18.608a3.314 3.314 0 0 0 6.628 0V53.953a3 3 0 0 1 .944-2.184l11.952-11.25a3.267 3.267 0 1 0-4.491-4.747l-9.697 9.226a3 3 0 0 1-4.099.035l-10.136-9.322a3.27 3.27 0 1 0-4.426 4.816l12.354 11.341a3 3 0 0 1 .971 2.21z"/><rect width="18" height="12" x="222" y="285" fill="#005EFF" stroke="#fff" stroke-width="2" rx="4"/><path fill="#005EFF" stroke="#fff" stroke-linecap="round" stroke-width="2" d="M216.376 347.263L227.25 297h7.5l10.874 50.263a3 3 0 0 1-.967 2.901l-11.692 10.133a3.001 3.001 0 0 1-3.93 0l-11.692-10.133a3 3 0 0 1-.967-2.901z"/></svg>