<svg xmlns="http://www.w3.org/2000/svg" fill="none" viewBox="0 0 464 380"><rect width="462" height="271" x="1" y="1" fill="#000" stroke="#fff" stroke-width="2" rx="24"/><path fill="#000" stroke="#fff" stroke-width="2" d="M1 24h462v197H1z"/><circle cx="232" cy="13" r="2" stroke="#fff" stroke-width="2"/><path fill="#000" stroke="#fff" stroke-width="2" d="M206.437 272h50.126v17.3c0 29.804 8.853 58.936 25.437 83.7H181a150.421 150.421 0 0 0 25.437-83.7V272z"/><path fill="#090909" stroke="#fff" stroke-width="2" d="M241.065 318h-17.154c-5.957 0-10.785 4.829-10.785 10.785a71.903 71.903 0 0 1-13.416 41.824L198 373h69l-1.717-2.395a71.798 71.798 0 0 1-13.448-41.835c0-5.948-4.822-10.77-10.77-10.77z"/><rect width="135" height="244" x="288" y="74" fill="#C4C4C4" stroke="#fff" stroke-width="2" rx="15"/><circle cx="231.5" cy="122.5" r="62.5" stroke="#fff" stroke-width="2"/><circle cx="275" cy="158" r="24" fill="#005EFF" stroke="#fff" stroke-width="2"/><path fill="#000" stroke="#fff" stroke-width="2" d="M302 70h107c9.941 0 18 8.059 18 18v216c0 9.941-8.059 18-18 18H302c-9.941 0-18-8.059-18-18V88c0-9.941 8.059-18 18-18z"/><path fill="#000" stroke="#fff" stroke-width="2" d="M302 70h107c9.941 0 18 8.059 18 18v216c0 9.941-8.059 18-18 18H302c-9.941 0-18-8.059-18-18V88c0-9.941 8.059-18 18-18z"/><path stroke="#fff" stroke-width="2" d="M283 107h1v15h-1a2 2 0 0 1-2-2v-11a2 2 0 0 1 2-2z"/><path fill="#000" stroke="#fff" stroke-width="2" d="M283 127h1v15h-1a2 2 0 0 1-2-2v-11a2 2 0 0 1 2-2zM288 91h135v209H288z"/><path stroke="#fff" stroke-width="2" d="M383 190c0 15.497-12.121 28-27 28s-27-12.503-27-28 12.121-28 27-28 27 12.503 27 28z"/><circle r="14.5" fill="#005EFF" stroke="#fff" stroke-width="2" transform="matrix(1 0 0 -1 196.5 74.5)"/><circle r="9" fill="#FF7BFF" stroke="#fff" stroke-width="2" transform="matrix(1 0 0 -1 340 168)"/><circle r="13" fill="#FF7BFF" stroke="#fff" stroke-width="2" transform="matrix(1 0 0 -1 373 208)"/><rect width="201" height="6" x="131" y="373" fill="#000" stroke="#fff" stroke-width="2" rx="1"/></svg>