<svg xmlns="http://www.w3.org/2000/svg" fill="none" viewBox="0 0 464 380"><path stroke="#fff" stroke-linecap="round" stroke-linejoin="round" stroke-width="2" d="M339.768 352.82c0 5.522-4.477 10-10 10H95c-5.523 0-10-4.478-10-10V14c0-5.523 4.477-10 10-10h234.768c5.523 0 10 4.477 10 10v338.82z"/><path fill="#000" stroke="#fff" stroke-linecap="round" stroke-linejoin="round" stroke-width="2" d="M332.768 358.82c0 5.522-4.477 10-10 10H88c-5.523 0-10-4.478-10-10V20c0-5.523 4.477-10 10-10h234.768c5.523 0 10 4.477 10 10v338.82z"/><path fill="#000" stroke="#fff" stroke-linecap="round" stroke-linejoin="round" stroke-width="2" d="M325.768 364.82c0 5.522-4.477 10-10 10H81c-5.523 0-10-4.478-10-10V26c0-5.523 4.477-10 10-10h180.552l64.216 64.216V364.82z"/><path fill="#000" d="M276.239 250.972h-10.216a2.506 2.506 0 1 0 0 5.014h10.216a2.506 2.506 0 1 0 0-5.014zM295.811 250.972h-10.216a2.506 2.506 0 1 0 0 5.014h10.216a2.507 2.507 0 1 0 0-5.014zM276.239 281.564h-10.216a2.507 2.507 0 0 0 0 5.015h10.216a2.507 2.507 0 0 0 0-5.015zM295.811 281.564h-10.216a2.507 2.507 0 0 0 0 5.015h10.216a2.508 2.508 0 1 0 0-5.015z"/><path fill="#005EFF" stroke="#fff" stroke-linecap="round" stroke-linejoin="round" stroke-width="2" d="M261.551 16v54.216c0 5.523 4.477 10 10 10h54.216L261.551 16z"/><path fill="#000" d="M355.069 361.722l-28.197 13.341-28.198-13.341a66.09 66.09 0 0 1-37.815-59.725v-87.231l66.013-11.077 66.012 11.077v87.156a66.094 66.094 0 0 1-37.815 59.8z"/><path fill="#000" d="M348.819 347.932l-21.948 10.796-21.948-10.796a53.697 53.697 0 0 1-29.451-48.33V228.07l51.399-8.982 51.399 8.982v71.532a53.697 53.697 0 0 1-29.451 48.33z"/><path stroke="#fff" stroke-linecap="round" stroke-linejoin="round" stroke-width="2" d="M355.069 361.722l-26.059 12.329a4.997 4.997 0 0 1-4.277 0l-26.059-12.329a66.09 66.09 0 0 1-37.815-59.725v-83a5 5 0 0 1 4.173-4.931l61.012-10.238a4.997 4.997 0 0 1 1.655 0l61.012 10.238a5 5 0 0 1 4.173 4.931v82.925a66.094 66.094 0 0 1-37.815 59.8z"/><path fill="#FF7BFF" stroke="#fff" stroke-width="2" d="M361.46 289.011c0 19.103-15.486 34.588-34.589 34.588-19.102 0-34.588-15.485-34.588-34.588s15.486-34.588 34.588-34.588c19.103 0 34.589 15.485 34.589 34.588z"/><path fill="#000" d="M317.684 288.15l-16.334-16.334-15.455 15.436 31.789 31.79 50.164-50.164-15.436-15.455-34.728 34.727z"/><path stroke="#fff" stroke-linecap="round" stroke-linejoin="round" stroke-width="2" d="M354.533 255.547a3 3 0 0 0-4.244-.002l-30.483 30.484a3 3 0 0 1-4.243 0l-12.093-12.093a3.001 3.001 0 0 0-4.242-.002l-11.21 11.197a3 3 0 0 0-.001 4.244l27.546 27.546a3.001 3.001 0 0 0 4.243 0l45.922-45.923a3 3 0 0 0 .002-4.241l-11.197-11.21z"/><path stroke="#fff" stroke-linecap="round" stroke-width="2" d="M97 67h150M97 110h216M97 125h216M97 140h216M97 155h216M97 53h150M97 319h113M97 306h113M97 332h113"/></svg>