<svg xmlns="http://www.w3.org/2000/svg" fill="none" viewBox="0 0 464 380"><rect width="462" height="271" x="1" y="1" fill="#000" stroke="#fff" stroke-width="2" rx="24"/><path fill="#000" stroke="#fff" stroke-width="2" d="M1 24h462v197H1z"/><path stroke="#fff" stroke-width="2" d="M297 138.5c0 33.958-27.751 61.5-62 61.5-34.249 0-62-27.542-62-61.5S200.751 77 235 77c34.249 0 62 27.542 62 61.5z"/><circle cx="232" cy="13" r="2" stroke="#fff" stroke-width="2"/><path fill="#000" stroke="#fff" stroke-width="2" d="M206.437 273h50.126v17.127c0 29.236 8.87 57.784 25.437 81.873H181a144.483 144.483 0 0 0 25.437-81.873V273z"/><path fill="#000" stroke="#fff" stroke-width="2" d="M241.35 318h-17.724c-5.799 0-10.5 4.701-10.5 10.5a70.002 70.002 0 0 1-14.017 42.022L198 372h69l-1.116-1.483a69.902 69.902 0 0 1-14.049-42.032c0-5.791-4.694-10.485-10.485-10.485z"/><rect width="201" height="6" x="131" y="373" fill="#000" stroke="#fff" stroke-width="2" rx="1"/><path fill="#000" stroke="#fff" stroke-linecap="round" stroke-linejoin="bevel" stroke-miterlimit="10" stroke-width="2" d="M293.379 92.634c-.635-1.986-3.123-2.434-4.595-.956l-16.212 16.269a2.999 2.999 0 0 1-2.906.779l-9.669-2.608a3 3 0 0 1-2.115-2.115l-2.609-9.673a3 3 0 0 1 .776-2.902l16.211-16.212c1.474-1.473 1.025-3.958-.96-4.592-11.713-3.747-25.013-1.02-34.318 8.286-8.549 8.548-11.481 20.532-8.924 31.556.246 1.062-.035 2.188-.807 2.959l-13.775 13.776a.052.052 0 0 0 0 .073v0c.02.02.02.053 0 .073l-40.76 40.76c-6.288 6.288-6.288 16.451 0 22.739l.438.438c6.288 6.288 16.451 6.288 22.739 0l40.797-40.797 13.811-13.812c.771-.771 1.898-1.052 2.96-.806 11.024 2.557 23.011-.376 31.629-8.924 9.304-9.304 12.032-22.599 8.289-34.31z"/><circle r="21.5" fill="#005EFF" stroke="#fff" stroke-width="2" transform="matrix(-1 0 0 1 197.5 82.5)"/><circle r="11.5" fill="#FF7BFF" stroke="#fff" stroke-width="2" transform="matrix(-1 0 0 1 269.5 188.5)"/></svg>