<svg width="184" height="156" viewBox="0 0 184 156" fill="none" xmlns="http://www.w3.org/2000/svg">
<path d="M155.764 18.7341C144.036 13.3354 131.46 9.35794 118.311 7.07987C118.072 7.0359 117.833 7.14578 117.709 7.36553C116.092 10.2516 114.3 14.0166 113.046 16.9759C98.9031 14.8517 84.8331 14.8517 70.9805 16.9759C69.7256 13.9508 67.8691 10.2516 66.2444 7.36553C66.1211 7.15311 65.8818 7.04323 65.6424 7.07987C52.5006 9.35066 39.9246 13.3281 28.1898 18.7341C28.0882 18.778 28.0012 18.8513 27.9434 18.9465C4.08934 54.7001 -2.44529 89.5749 0.760381 124.017C0.774886 124.186 0.869169 124.347 0.999718 124.449C16.7379 136.045 31.9831 143.084 46.9451 147.75C47.1846 147.824 47.4383 147.736 47.5907 147.538C51.13 142.689 54.2849 137.576 56.99 132.199C57.1496 131.884 56.9972 131.511 56.671 131.386C51.6667 129.482 46.9016 127.16 42.3179 124.523C41.9554 124.31 41.9263 123.79 42.2599 123.541C43.2245 122.816 44.1893 122.061 45.1103 121.3C45.277 121.161 45.5092 121.131 45.7051 121.219C75.8179 135.012 108.419 135.012 138.176 121.219C138.372 121.124 138.604 121.153 138.778 121.292C139.699 122.054 140.664 122.816 141.636 123.541C141.969 123.79 141.947 124.31 141.585 124.523C137.001 127.211 132.236 129.482 127.225 131.379C126.898 131.504 126.753 131.884 126.913 132.199C129.676 137.569 132.831 142.681 136.305 147.531C136.45 147.736 136.711 147.824 136.95 147.75C151.985 143.084 167.23 136.045 182.968 124.449C183.106 124.347 183.193 124.193 183.208 124.025C187.044 84.2054 176.782 49.6166 156.003 18.9538C155.952 18.8513 155.865 18.778 155.764 18.7341ZM61.4868 103.046C52.4208 103.046 44.9507 94.6951 44.9507 84.4399C44.9507 74.1848 52.276 65.8343 61.4868 65.8343C70.77 65.8343 78.1679 74.2581 78.0227 84.4399C78.0227 94.6951 70.6975 103.046 61.4868 103.046ZM122.626 103.046C113.561 103.046 106.091 94.6951 106.091 84.4399C106.091 74.1848 113.416 65.8343 122.626 65.8343C131.91 65.8343 139.307 74.2581 139.163 84.4399C139.163 94.6951 131.91 103.046 122.626 103.046Z" fill="#005EFF"/>
</svg>
