<svg width="184" height="156" viewBox="0 0 184 156" fill="none" xmlns="http://www.w3.org/2000/svg">
<path d="M69.5455 145C64.0669 145 64.9983 142.929 63.1087 137.708L47 84.6393L171 11" fill="white"/>
<path d="M69 145C73.3636 145 75.2909 143.072 77.7273 140.783L101 118.916L71.9702 102" fill="#005EFF"/>
<path d="M72.0832 102.29L140.273 152.889C148.055 157.201 153.67 154.968 155.608 145.634L183.365 14.2651C186.206 2.82246 179.022 -2.36923 171.577 1.02534L8.59044 64.1456C-2.53478 68.6278 -2.46851 74.8618 6.5628 77.6389L48.3888 90.7513L145.221 29.3955C149.792 26.6113 153.988 28.1068 150.545 31.1771" fill="#005EFF"/>
</svg>
