<svg width="125" height="43" viewBox="0 0 125 43" fill="none" xmlns="http://www.w3.org/2000/svg">
<path d="M35.4453 34.8299L43.8015 22.3083L35.685 10.0619H40.7364L46.3528 18.7823L51.9179 10.0619H57.0035L48.8871 22.3083L57.209 34.8299H52.1576L46.3528 25.8343L40.5309 34.8299H35.4453ZM58.5712 34.8299V10.0619H66.4308C66.6363 10.0619 67.0416 10.0676 67.6465 10.0791C68.263 10.0906 68.8567 10.1307 69.4273 10.1995C71.3794 10.4518 73.0288 11.1512 74.376 12.2979C75.7343 13.4331 76.7617 14.8836 77.4582 16.6495C78.1547 18.4154 78.5027 20.3475 78.5027 22.4459C78.5027 24.5443 78.1547 26.4764 77.4582 28.2423C76.7617 30.0082 75.7343 31.4644 74.376 32.6111C73.0288 33.7463 71.3794 34.44 69.4273 34.6923C68.8678 34.7611 68.2801 34.8012 67.6636 34.8127C67.0472 34.8242 66.6363 34.8299 66.4308 34.8299H58.5712ZM62.7664 30.9255H66.4308C66.7732 30.9255 67.2069 30.914 67.7321 30.8911C68.2685 30.8682 68.7424 30.8166 69.1534 30.7363C70.3178 30.5184 71.2651 29.9967 71.9958 29.1711C72.7266 28.3455 73.263 27.3422 73.6054 26.1611C73.9595 24.98 74.1363 23.7416 74.1363 22.4459C74.1363 21.1043 73.9595 19.843 73.6054 18.6619C73.2514 17.4808 72.7035 16.489 71.9616 15.6863C71.2309 14.8836 70.2951 14.3734 69.1534 14.1555C68.7424 14.0638 68.2685 14.0122 67.7321 14.0007C67.2069 13.9778 66.7732 13.9663 66.4308 13.9663H62.7664V30.9255ZM78.7994 34.8299L86.5733 10.0619H92.6179L100.392 34.8299H96.1453L89.0905 12.6075H90.0151L83.0459 34.8299H78.7994ZM83.1316 29.4635V25.5935H96.0768V29.4635H83.1316ZM111.877 35.3459C109.411 35.3459 107.299 34.807 105.541 33.7291C103.784 32.6398 102.431 31.1262 101.483 29.1883C100.547 27.2504 100.079 25.003 100.079 22.4459C100.079 19.8888 100.547 17.6414 101.483 15.7035C102.431 13.7656 103.784 12.2578 105.541 11.1799C107.299 10.0906 109.411 9.5459 111.877 9.5459C114.343 9.5459 116.455 10.0906 118.212 11.1799C119.982 12.2578 121.335 13.7656 122.271 15.7035C123.218 17.6414 123.692 19.8888 123.692 22.4459C123.692 25.003 123.218 27.2504 122.271 29.1883C121.335 31.1262 119.982 32.6398 118.212 33.7291C116.455 34.807 114.343 35.3459 111.877 35.3459ZM111.877 31.4415C113.532 31.453 114.908 31.086 116.004 30.3407C117.111 29.5954 117.938 28.5462 118.486 27.1931C119.046 25.84 119.325 24.2576 119.325 22.4459C119.325 20.6342 119.046 19.0632 118.486 17.7331C117.938 16.3915 117.111 15.348 116.004 14.6027C114.908 13.8574 113.532 13.4732 111.877 13.4503C110.222 13.4388 108.846 13.8058 107.75 14.5511C106.654 15.2964 105.827 16.3456 105.267 17.6987C104.719 19.0518 104.445 20.6342 104.445 22.4459C104.445 24.2576 104.719 25.8343 105.267 27.1759C105.815 28.506 106.637 29.5438 107.733 30.2891C108.84 31.0344 110.222 31.4186 111.877 31.4415Z" fill="white"/>
<path fill-rule="evenodd" clip-rule="evenodd" d="M8.01802 8.39868C8.46417 8.84687 8.68258 9.43718 8.6732 10.0245L14.5548 15.9324L17.0647 13.4112C17.0554 12.8239 17.2738 12.2336 17.7199 11.7854C18.594 10.9074 20.0111 10.9074 20.8851 11.7854C21.7592 12.6634 21.7592 14.0868 20.8851 14.9648C20.439 15.4129 19.8513 15.6323 19.2666 15.6229L16.7926 18.108C16.802 18.6953 16.5835 19.2856 16.1374 19.7338C15.2634 20.6117 13.8462 20.6117 12.9722 19.7338C12.526 19.2856 12.3076 18.6953 12.317 18.108L6.4714 12.2362C5.88664 12.2456 5.29897 12.0262 4.85282 11.5781C3.97878 10.7001 3.97878 9.27666 4.85282 8.39868C5.72688 7.52075 7.14396 7.52075 8.01802 8.39868ZM7.19234 16.0015C6.31828 15.1235 4.9012 15.1235 4.02715 16.0015C3.1531 16.8794 3.1531 18.3029 4.02715 19.1808C4.47333 19.629 5.06096 19.8484 5.64568 19.839L8.15565 22.3602L2.27409 28.2681C1.68937 28.2587 1.1017 28.4781 0.655531 28.9263C-0.21851 29.8043 -0.21851 31.2277 0.655531 32.1057C1.52957 32.9836 2.94667 32.9836 3.82072 32.1057C4.26689 31.6575 4.48527 31.0672 4.47594 30.4798L10.3215 24.6081C10.9062 24.6175 11.4939 24.398 11.9401 23.9499C12.8141 23.0719 12.8141 21.6485 11.9401 20.7705C11.4939 20.3224 10.9062 20.103 10.3215 20.1124L7.84756 17.6273C7.85689 17.04 7.63848 16.4497 7.19234 16.0015ZM22.6382 32.4842L16.7926 26.6125C16.802 26.0251 16.5836 25.4348 16.1374 24.9867C15.2634 24.1087 13.8462 24.1087 12.9722 24.9867C12.526 25.4348 12.3076 26.0251 12.317 26.6125L9.84298 29.0975C9.2583 29.0881 8.67059 29.3075 8.22444 29.7557C7.35038 30.6336 7.35038 32.0571 8.22444 32.935C9.09846 33.813 10.5156 33.813 11.3896 32.935C11.8358 32.4869 12.0542 31.8966 12.0449 31.3092L14.5548 28.7881L20.4363 34.6959C20.427 35.2833 20.6454 35.8736 21.0916 36.3218C21.9656 37.1997 23.3827 37.1997 24.2568 36.3218C25.1308 35.4438 25.1308 34.0204 24.2568 33.1424C23.8106 32.6942 23.2229 32.4749 22.6382 32.4842ZM28.4541 15.7942C28.0079 16.2424 27.4202 16.4617 26.8355 16.4523L20.954 22.3602L23.4639 24.8814C24.0486 24.872 24.6363 25.0914 25.0825 25.5396C25.9565 26.4175 25.9565 27.841 25.0825 28.7189C24.2084 29.5969 22.7914 29.5969 21.9173 28.7189C21.4711 28.2707 21.2527 27.6805 21.262 27.0931L18.7881 24.6081C18.2033 24.6175 17.6157 24.398 17.1695 23.9499C16.2955 23.0719 16.2955 21.6485 17.1695 20.7705C17.6157 20.3224 18.2033 20.103 18.7881 20.1124L24.6336 14.2406C24.6243 13.6533 24.8427 13.063 25.2889 12.6148C26.1629 11.7369 27.58 11.7369 28.4541 12.6148C29.3281 13.4928 29.3281 14.9162 28.4541 15.7942Z" fill="#005EFF"/>
</svg>
