<svg xmlns="http://www.w3.org/2000/svg" xmlns:xlink="http://www.w3.org/1999/xlink" width="125" zoomAndPan="magnify" viewBox="0 0 93.75 32.249999" height="43" preserveAspectRatio="xMidYMid meet" version="1.0"><defs><g/><clipPath id="id1"><path d="M 4 3 L 28 3 L 28 31 L 4 31 Z M 4 3 " clip-rule="nonzero"/></clipPath><clipPath id="id2"><path d="M -1.484375 13.371094 L 22.175781 -0.0273438 L 33.761719 20.4375 L 10.101562 33.835938 Z M -1.484375 13.371094 " clip-rule="nonzero"/></clipPath><clipPath id="id3"><path d="M 6.492188 7.292969 L 25.601562 7.292969 L 25.601562 26.402344 L 6.492188 26.402344 Z M 6.492188 7.292969 " clip-rule="nonzero"/></clipPath></defs><g clip-path="url(#id1)"><g clip-path="url(#id2)"><path fill="#004aad" d="M 16.261719 3.324219 L 4.429688 10.023438 L 4.308594 23.605469 L 16.015625 30.484375 L 27.847656 23.785156 L 27.96875 10.207031 L 16.261719 3.324219 " fill-opacity="1" fill-rule="nonzero"/></g></g><g clip-path="url(#id3)"><path fill="#ffffff" d="M 25.089844 20.777344 L 25.089844 18.789062 C 25.089844 18.699219 25.015625 18.625 24.925781 18.625 L 22.230469 18.625 C 22.410156 18.109375 22.523438 17.5625 22.566406 17 L 23.589844 17 C 23.664062 17.292969 23.929688 17.507812 24.242188 17.507812 C 24.617188 17.507812 24.917969 17.207031 24.917969 16.835938 C 24.917969 16.460938 24.617188 16.160156 24.242188 16.160156 C 23.929688 16.160156 23.664062 16.378906 23.589844 16.671875 L 22.582031 16.671875 C 22.585938 16.613281 22.585938 16.554688 22.585938 16.496094 C 22.585938 16.011719 22.53125 15.542969 22.433594 15.085938 L 23.734375 15.085938 C 23.824219 15.085938 23.894531 15.015625 23.894531 14.921875 L 23.894531 13.25 C 24.1875 13.175781 24.40625 12.910156 24.40625 12.59375 C 24.40625 12.222656 24.105469 11.917969 23.734375 11.917969 C 23.359375 11.917969 23.058594 12.222656 23.058594 12.59375 C 23.058594 12.910156 23.277344 13.175781 23.570312 13.25 L 23.570312 14.761719 L 22.351562 14.761719 C 21.777344 12.671875 20.1875 11 18.152344 10.304688 L 18.152344 8.128906 L 19.976562 8.128906 C 20.050781 8.421875 20.316406 8.640625 20.632812 8.640625 C 21.003906 8.640625 21.304688 8.339844 21.304688 7.964844 C 21.304688 7.59375 21.003906 7.292969 20.632812 7.292969 C 20.316406 7.292969 20.050781 7.507812 19.976562 7.800781 L 17.988281 7.800781 C 17.898438 7.800781 17.824219 7.875 17.824219 7.964844 L 17.824219 10.203125 C 17.304688 10.054688 16.761719 9.972656 16.199219 9.957031 L 16.199219 9.304688 C 16.492188 9.230469 16.707031 8.964844 16.707031 8.648438 C 16.707031 8.277344 16.40625 7.976562 16.035156 7.976562 C 15.664062 7.976562 15.359375 8.277344 15.359375 8.648438 C 15.359375 8.964844 15.578125 9.230469 15.871094 9.304688 L 15.871094 9.960938 C 15.324219 9.972656 14.792969 10.054688 14.285156 10.199219 L 14.285156 9.160156 C 14.285156 9.070312 14.214844 8.996094 14.121094 8.996094 L 12.449219 8.996094 C 12.375 8.703125 12.109375 8.484375 11.792969 8.484375 C 11.421875 8.484375 11.121094 8.789062 11.121094 9.160156 C 11.121094 9.53125 11.421875 9.835938 11.792969 9.835938 C 12.109375 9.835938 12.375 9.617188 12.449219 9.324219 L 13.960938 9.324219 L 13.960938 10.296875 C 11.921875 10.988281 10.328125 12.65625 9.746094 14.738281 L 7.328125 14.738281 L 7.328125 12.914062 C 7.621094 12.84375 7.839844 12.578125 7.839844 12.261719 C 7.839844 11.890625 7.539062 11.585938 7.164062 11.585938 C 6.792969 11.585938 6.492188 11.890625 6.492188 12.261719 C 6.492188 12.578125 6.710938 12.84375 7.003906 12.914062 L 7.003906 14.902344 C 7.003906 14.996094 7.074219 15.066406 7.164062 15.066406 L 9.664062 15.066406 C 9.5625 15.527344 9.507812 16.007812 9.507812 16.496094 C 9.507812 16.5625 9.507812 16.628906 9.507812 16.695312 L 8.503906 16.695312 C 8.429688 16.402344 8.164062 16.183594 7.847656 16.183594 C 7.476562 16.183594 7.175781 16.488281 7.175781 16.859375 C 7.175781 17.230469 7.476562 17.535156 7.847656 17.535156 C 8.164062 17.535156 8.429688 17.316406 8.503906 17.023438 L 9.527344 17.023438 C 9.570312 17.570312 9.683594 18.101562 9.855469 18.605469 L 8.359375 18.605469 C 8.269531 18.605469 8.195312 18.679688 8.195312 18.769531 L 8.195312 20.445312 C 7.902344 20.519531 7.683594 20.785156 7.683594 21.097656 C 7.683594 21.472656 7.988281 21.773438 8.359375 21.773438 C 8.730469 21.773438 9.035156 21.472656 9.035156 21.097656 C 9.035156 20.785156 8.816406 20.519531 8.523438 20.445312 L 8.523438 18.933594 L 9.976562 18.933594 C 10.683594 20.691406 12.136719 22.074219 13.9375 22.6875 L 13.9375 25.5625 L 12.113281 25.5625 C 12.042969 25.269531 11.777344 25.050781 11.460938 25.050781 C 11.089844 25.050781 10.785156 25.355469 10.785156 25.726562 C 10.785156 26.097656 11.089844 26.402344 11.460938 26.402344 C 11.777344 26.402344 12.042969 26.183594 12.113281 25.890625 L 14.101562 25.890625 C 14.195312 25.890625 14.265625 25.816406 14.265625 25.726562 L 14.265625 22.792969 C 14.785156 22.9375 15.332031 23.023438 15.894531 23.035156 L 15.894531 24.390625 C 15.777344 24.417969 15.667969 24.480469 15.582031 24.566406 C 15.453125 24.695312 15.382812 24.863281 15.382812 25.042969 C 15.382812 25.414062 15.6875 25.71875 16.058594 25.71875 C 16.429688 25.71875 16.734375 25.414062 16.734375 25.042969 C 16.734375 24.730469 16.515625 24.464844 16.222656 24.390625 L 16.222656 23.035156 C 16.769531 23.019531 17.300781 22.9375 17.804688 22.796875 L 17.804688 24.53125 C 17.804688 24.566406 17.816406 24.597656 17.832031 24.621094 C 17.832031 24.621094 17.832031 24.625 17.832031 24.625 C 17.835938 24.625 17.835938 24.628906 17.835938 24.628906 C 17.84375 24.636719 17.847656 24.644531 17.851562 24.648438 C 17.882812 24.679688 17.925781 24.695312 17.96875 24.695312 L 19.644531 24.695312 C 19.71875 24.988281 19.984375 25.207031 20.296875 25.207031 C 20.671875 25.207031 20.972656 24.90625 20.972656 24.53125 C 20.972656 24.160156 20.671875 23.859375 20.296875 23.859375 C 19.984375 23.859375 19.71875 24.074219 19.644531 24.367188 L 18.132812 24.367188 L 18.132812 22.695312 C 19.9375 22.085938 21.394531 20.707031 22.105469 18.953125 L 24.761719 18.953125 L 24.761719 20.777344 C 24.46875 20.851562 24.25 21.117188 24.25 21.429688 C 24.25 21.804688 24.554688 22.105469 24.925781 22.105469 C 25.296875 22.105469 25.601562 21.804688 25.601562 21.429688 C 25.601562 21.117188 25.382812 20.851562 25.089844 20.777344 Z M 24.242188 16.488281 C 24.433594 16.488281 24.589844 16.644531 24.589844 16.835938 C 24.589844 17.027344 24.433594 17.183594 24.242188 17.183594 C 24.050781 17.183594 23.898438 17.027344 23.894531 16.835938 C 23.894531 16.835938 23.894531 16.835938 23.894531 16.832031 C 23.898438 16.644531 24.050781 16.488281 24.242188 16.488281 Z M 23.386719 12.59375 C 23.386719 12.402344 23.542969 12.246094 23.734375 12.246094 C 23.925781 12.246094 24.078125 12.402344 24.078125 12.59375 C 24.078125 12.785156 23.925781 12.941406 23.734375 12.941406 C 23.539062 12.941406 23.386719 12.785156 23.386719 12.59375 Z M 20.632812 7.621094 C 20.824219 7.621094 20.976562 7.773438 20.976562 7.964844 C 20.976562 8.15625 20.824219 8.3125 20.632812 8.3125 C 20.441406 8.3125 20.285156 8.15625 20.285156 7.964844 C 20.285156 7.773438 20.441406 7.621094 20.632812 7.621094 Z M 11.792969 9.507812 C 11.601562 9.507812 11.445312 9.351562 11.445312 9.160156 C 11.445312 8.96875 11.601562 8.8125 11.792969 8.8125 C 11.984375 8.8125 12.140625 8.96875 12.140625 9.160156 C 12.140625 9.351562 11.984375 9.507812 11.792969 9.507812 Z M 7.164062 12.609375 C 6.976562 12.609375 6.820312 12.453125 6.820312 12.261719 C 6.820312 12.070312 6.972656 11.914062 7.164062 11.914062 C 7.355469 11.914062 7.511719 12.070312 7.511719 12.261719 C 7.511719 12.453125 7.355469 12.609375 7.164062 12.609375 Z M 7.847656 17.207031 C 7.65625 17.207031 7.5 17.050781 7.5 16.859375 C 7.5 16.667969 7.65625 16.511719 7.847656 16.511719 C 8.039062 16.511719 8.195312 16.667969 8.195312 16.859375 C 8.195312 17.050781 8.039062 17.207031 7.847656 17.207031 Z M 8.707031 21.097656 C 8.707031 21.289062 8.550781 21.445312 8.359375 21.445312 C 8.167969 21.445312 8.011719 21.289062 8.011719 21.097656 C 8.011719 20.90625 8.167969 20.75 8.359375 20.75 C 8.550781 20.75 8.707031 20.90625 8.707031 21.097656 Z M 11.460938 26.074219 C 11.269531 26.074219 11.113281 25.917969 11.113281 25.726562 C 11.113281 25.535156 11.269531 25.378906 11.460938 25.378906 C 11.652344 25.378906 11.808594 25.535156 11.808594 25.726562 C 11.808594 25.917969 11.652344 26.074219 11.460938 26.074219 Z M 20.296875 24.1875 C 20.488281 24.1875 20.644531 24.339844 20.644531 24.53125 C 20.644531 24.722656 20.488281 24.878906 20.296875 24.878906 C 20.105469 24.878906 19.949219 24.722656 19.949219 24.53125 C 19.949219 24.339844 20.105469 24.1875 20.296875 24.1875 Z M 15.6875 8.648438 C 15.6875 8.457031 15.84375 8.300781 16.035156 8.300781 C 16.226562 8.300781 16.382812 8.457031 16.382812 8.648438 C 16.382812 8.839844 16.226562 8.996094 16.035156 8.996094 C 15.84375 8.996094 15.6875 8.839844 15.6875 8.648438 Z M 16.40625 25.042969 C 16.40625 25.234375 16.25 25.390625 16.058594 25.390625 C 15.867188 25.390625 15.710938 25.234375 15.710938 25.042969 C 15.710938 24.949219 15.746094 24.863281 15.8125 24.796875 C 15.878906 24.734375 15.964844 24.695312 16.058594 24.695312 C 16.25 24.695312 16.40625 24.851562 16.40625 25.042969 Z M 16.046875 22.710938 C 12.621094 22.710938 9.832031 19.921875 9.832031 16.496094 C 9.832031 13.070312 12.621094 10.285156 16.046875 10.285156 C 19.472656 10.285156 22.257812 13.070312 22.257812 16.496094 C 22.257812 19.921875 19.472656 22.710938 16.046875 22.710938 Z M 24.925781 21.777344 C 24.734375 21.777344 24.578125 21.621094 24.578125 21.429688 C 24.578125 21.238281 24.734375 21.085938 24.925781 21.085938 C 25.117188 21.085938 25.273438 21.238281 25.273438 21.429688 C 25.273438 21.621094 25.117188 21.777344 24.925781 21.777344 Z M 24.925781 21.777344 " fill-opacity="1" fill-rule="nonzero"/></g><path fill="#ffffff" d="M 16.050781 21.707031 L 16.046875 21.707031 C 14.726562 21.707031 13.464844 21.210938 12.5 20.3125 C 12.488281 20.304688 12.480469 20.292969 12.46875 20.285156 C 12.464844 20.28125 12.460938 20.277344 12.453125 20.273438 C 12.449219 20.265625 12.445312 20.261719 12.441406 20.257812 L 12.410156 20.230469 C 12.347656 20.164062 12.242188 20.167969 12.179688 20.230469 C 12.117188 20.296875 12.117188 20.398438 12.183594 20.464844 L 12.214844 20.492188 C 12.21875 20.5 12.222656 20.503906 12.230469 20.507812 C 12.234375 20.511719 12.238281 20.519531 12.246094 20.523438 C 12.253906 20.53125 12.265625 20.542969 12.277344 20.550781 C 13.304688 21.507812 14.640625 22.035156 16.046875 22.035156 L 16.050781 22.035156 C 16.140625 22.035156 16.214844 21.960938 16.214844 21.871094 C 16.214844 21.78125 16.140625 21.707031 16.050781 21.707031 Z M 16.050781 21.707031 " fill-opacity="1" fill-rule="nonzero"/><path fill="#ffffff" d="M 20.785156 19.039062 C 20.707031 18.992188 20.605469 19.019531 20.5625 19.097656 C 19.898438 20.246094 18.835938 21.089844 17.574219 21.476562 C 17.574219 21.480469 17.574219 21.480469 17.574219 21.480469 L 17.535156 21.492188 C 17.53125 21.492188 17.523438 21.496094 17.515625 21.496094 C 17.511719 21.5 17.503906 21.5 17.496094 21.5 L 17.457031 21.511719 C 17.371094 21.539062 17.320312 21.628906 17.34375 21.714844 C 17.367188 21.789062 17.429688 21.835938 17.503906 21.835938 C 17.515625 21.835938 17.53125 21.832031 17.546875 21.828125 L 17.589844 21.816406 C 17.597656 21.8125 17.601562 21.8125 17.609375 21.808594 C 17.617188 21.808594 17.625 21.804688 17.628906 21.804688 C 17.644531 21.800781 17.65625 21.796875 17.671875 21.792969 C 17.671875 21.792969 17.675781 21.789062 17.675781 21.789062 C 19.015625 21.378906 20.140625 20.480469 20.84375 19.261719 C 20.890625 19.183594 20.863281 19.085938 20.785156 19.039062 Z M 20.785156 19.039062 " fill-opacity="1" fill-rule="nonzero"/><path fill="#ffffff" d="M 20.839844 13.726562 C 20.796875 13.648438 20.695312 13.621094 20.617188 13.667969 C 20.539062 13.710938 20.511719 13.8125 20.558594 13.890625 C 21.015625 14.679688 21.253906 15.582031 21.253906 16.496094 C 21.253906 16.890625 21.210938 17.285156 21.125 17.664062 L 21.113281 17.703125 C 21.113281 17.710938 21.113281 17.71875 21.113281 17.722656 C 21.109375 17.730469 21.105469 17.738281 21.105469 17.742188 L 21.09375 17.785156 C 21.074219 17.871094 21.128906 17.960938 21.214844 17.984375 C 21.226562 17.984375 21.242188 17.988281 21.253906 17.988281 C 21.328125 17.988281 21.394531 17.9375 21.414062 17.863281 L 21.421875 17.820312 C 21.425781 17.816406 21.425781 17.808594 21.425781 17.800781 C 21.429688 17.792969 21.433594 17.785156 21.433594 17.78125 L 21.445312 17.738281 C 21.535156 17.332031 21.582031 16.914062 21.582031 16.496094 C 21.582031 15.523438 21.328125 14.566406 20.839844 13.726562 Z M 20.839844 13.726562 " fill-opacity="1" fill-rule="nonzero"/><path fill="#ffffff" d="M 10.835938 16.496094 C 10.835938 16.105469 10.878906 15.714844 10.964844 15.335938 L 10.976562 15.296875 C 10.976562 15.289062 10.976562 15.28125 10.980469 15.273438 C 10.980469 15.269531 10.984375 15.261719 10.984375 15.253906 L 10.996094 15.214844 C 11.015625 15.128906 10.964844 15.039062 10.875 15.015625 C 10.789062 14.996094 10.699219 15.046875 10.675781 15.136719 L 10.667969 15.175781 C 10.664062 15.183594 10.664062 15.191406 10.664062 15.199219 C 10.660156 15.207031 10.660156 15.210938 10.65625 15.21875 L 10.648438 15.261719 C 10.554688 15.664062 10.507812 16.082031 10.507812 16.496094 C 10.507812 17.472656 10.765625 18.433594 11.253906 19.273438 C 11.285156 19.324219 11.339844 19.355469 11.394531 19.355469 C 11.421875 19.355469 11.453125 19.347656 11.476562 19.332031 C 11.554688 19.285156 11.582031 19.1875 11.535156 19.109375 C 11.078125 18.320312 10.835938 17.414062 10.835938 16.496094 Z M 10.835938 16.496094 " fill-opacity="1" fill-rule="nonzero"/><path fill="#ffffff" d="M 11.304688 13.960938 C 11.332031 13.976562 11.359375 13.980469 11.386719 13.980469 C 11.441406 13.980469 11.5 13.953125 11.527344 13.898438 C 12.191406 12.75 13.25 11.90625 14.511719 11.515625 L 14.550781 11.503906 C 14.558594 11.503906 14.5625 11.5 14.570312 11.5 C 14.574219 11.496094 14.582031 11.496094 14.589844 11.492188 L 14.628906 11.484375 C 14.714844 11.457031 14.765625 11.367188 14.742188 11.28125 C 14.71875 11.191406 14.625 11.144531 14.539062 11.167969 L 14.496094 11.179688 C 14.492188 11.179688 14.484375 11.183594 14.476562 11.1875 C 14.46875 11.1875 14.464844 11.1875 14.457031 11.191406 L 14.417969 11.203125 C 14.414062 11.203125 14.414062 11.203125 14.414062 11.203125 C 13.074219 11.617188 11.949219 12.515625 11.246094 13.734375 C 11.199219 13.816406 11.226562 13.914062 11.304688 13.960938 Z M 11.304688 13.960938 " fill-opacity="1" fill-rule="nonzero"/><path fill="#ffffff" d="M 16.035156 11.289062 L 16.046875 11.289062 C 17.367188 11.289062 18.628906 11.785156 19.597656 12.683594 L 19.625 12.710938 C 19.632812 12.71875 19.636719 12.722656 19.640625 12.726562 C 19.648438 12.730469 19.652344 12.734375 19.65625 12.742188 L 19.6875 12.769531 C 19.71875 12.800781 19.757812 12.816406 19.800781 12.816406 C 19.84375 12.816406 19.886719 12.800781 19.917969 12.765625 C 19.980469 12.703125 19.980469 12.597656 19.914062 12.535156 L 19.882812 12.503906 C 19.878906 12.5 19.871094 12.496094 19.867188 12.492188 C 19.863281 12.484375 19.855469 12.480469 19.851562 12.476562 L 19.820312 12.445312 C 18.792969 11.488281 17.453125 10.960938 16.046875 10.960938 L 16.035156 10.960938 C 15.945312 10.960938 15.871094 11.03125 15.871094 11.125 C 15.871094 11.214844 15.945312 11.289062 16.035156 11.289062 Z M 16.035156 11.289062 " fill-opacity="1" fill-rule="nonzero"/><path fill="#ffffff" d="M 20.324219 16.496094 C 20.324219 17.339844 20.078125 18.160156 19.613281 18.859375 C 19.605469 18.871094 19.597656 18.882812 19.589844 18.894531 C 19.585938 18.898438 19.582031 18.90625 19.578125 18.910156 C 19.574219 18.914062 19.570312 18.921875 19.566406 18.925781 L 19.542969 18.960938 C 19.492188 19.035156 19.507812 19.136719 19.582031 19.1875 C 19.613281 19.207031 19.644531 19.21875 19.675781 19.21875 C 19.730469 19.21875 19.78125 19.191406 19.8125 19.148438 L 19.835938 19.113281 C 19.839844 19.105469 19.84375 19.101562 19.847656 19.09375 C 19.851562 19.089844 19.855469 19.082031 19.859375 19.078125 C 19.867188 19.066406 19.875 19.054688 19.886719 19.039062 C 20.386719 18.285156 20.652344 17.40625 20.652344 16.496094 C 20.652344 16.011719 20.574219 15.53125 20.425781 15.070312 C 20.398438 14.984375 20.304688 14.9375 20.21875 14.964844 C 20.132812 14.996094 20.085938 15.085938 20.113281 15.171875 C 20.253906 15.597656 20.324219 16.042969 20.324219 16.496094 Z M 20.324219 16.496094 " fill-opacity="1" fill-rule="nonzero"/><path fill="#ffffff" d="M 14.691406 20.898438 C 14.703125 20.902344 14.71875 20.90625 14.730469 20.910156 C 14.738281 20.914062 14.746094 20.914062 14.753906 20.917969 C 14.757812 20.917969 14.765625 20.921875 14.773438 20.921875 L 14.8125 20.933594 C 14.816406 20.933594 14.816406 20.933594 14.816406 20.933594 C 15.214844 21.046875 15.628906 21.101562 16.046875 21.101562 C 17.027344 21.101562 17.964844 20.796875 18.757812 20.21875 C 18.828125 20.167969 18.84375 20.0625 18.792969 19.992188 C 18.738281 19.917969 18.636719 19.902344 18.5625 19.957031 C 17.828125 20.492188 16.957031 20.773438 16.046875 20.773438 C 15.65625 20.773438 15.273438 20.722656 14.902344 20.621094 L 14.863281 20.609375 C 14.855469 20.605469 14.851562 20.605469 14.84375 20.605469 C 14.835938 20.601562 14.832031 20.597656 14.824219 20.597656 L 14.785156 20.585938 C 14.699219 20.558594 14.609375 20.609375 14.582031 20.695312 C 14.554688 20.78125 14.605469 20.871094 14.691406 20.898438 Z M 14.691406 20.898438 " fill-opacity="1" fill-rule="nonzero"/><path fill="#ffffff" d="M 13.34375 20.226562 C 13.375 20.246094 13.40625 20.257812 13.441406 20.257812 C 13.492188 20.257812 13.542969 20.234375 13.574219 20.191406 C 13.625 20.117188 13.609375 20.015625 13.535156 19.960938 C 12.472656 19.1875 11.832031 17.996094 11.773438 16.6875 C 11.773438 16.6875 11.773438 16.683594 11.773438 16.683594 L 11.769531 16.644531 C 11.769531 16.636719 11.769531 16.632812 11.769531 16.625 C 11.769531 16.617188 11.769531 16.613281 11.769531 16.605469 L 11.769531 16.566406 C 11.769531 16.472656 11.691406 16.402344 11.601562 16.402344 C 11.511719 16.40625 11.441406 16.480469 11.441406 16.570312 L 11.441406 16.613281 C 11.441406 16.621094 11.445312 16.628906 11.445312 16.632812 C 11.445312 16.640625 11.445312 16.648438 11.445312 16.65625 C 11.445312 16.667969 11.445312 16.683594 11.445312 16.695312 C 11.445312 16.695312 11.445312 16.699219 11.445312 16.699219 C 11.507812 18.109375 12.199219 19.394531 13.34375 20.226562 Z M 13.34375 20.226562 " fill-opacity="1" fill-rule="nonzero"/><path fill="#ffffff" d="M 14.550781 12.140625 L 14.511719 12.152344 C 14.503906 12.15625 14.496094 12.160156 14.492188 12.164062 C 14.484375 12.164062 14.476562 12.167969 14.472656 12.167969 C 14.457031 12.171875 14.445312 12.179688 14.429688 12.183594 C 13.125 12.671875 12.089844 13.757812 11.664062 15.082031 C 11.636719 15.167969 11.683594 15.261719 11.769531 15.289062 C 11.785156 15.292969 11.800781 15.296875 11.820312 15.296875 C 11.886719 15.296875 11.953125 15.25 11.976562 15.183594 C 12.371094 13.953125 13.332031 12.945312 14.542969 12.492188 C 14.542969 12.492188 14.542969 12.492188 14.546875 12.492188 C 14.558594 12.484375 14.570312 12.480469 14.582031 12.476562 C 14.589844 12.472656 14.59375 12.472656 14.601562 12.46875 C 14.609375 12.46875 14.613281 12.464844 14.621094 12.464844 L 14.660156 12.449219 C 14.746094 12.421875 14.789062 12.328125 14.761719 12.242188 C 14.730469 12.15625 14.636719 12.109375 14.550781 12.140625 Z M 14.550781 12.140625 " fill-opacity="1" fill-rule="nonzero"/><path fill="#ffffff" d="M 16.035156 12.21875 L 16.046875 12.21875 C 17.359375 12.21875 18.578125 12.808594 19.394531 13.835938 C 19.394531 13.839844 19.398438 13.839844 19.398438 13.839844 L 19.421875 13.871094 C 19.425781 13.875 19.429688 13.878906 19.433594 13.882812 C 19.4375 13.890625 19.441406 13.894531 19.445312 13.902344 L 19.46875 13.933594 C 19.503906 13.976562 19.550781 14 19.601562 14 C 19.636719 14 19.667969 13.988281 19.699219 13.964844 C 19.773438 13.910156 19.785156 13.808594 19.730469 13.738281 C 19.722656 13.726562 19.714844 13.714844 19.707031 13.703125 C 19.703125 13.695312 19.695312 13.691406 19.691406 13.6875 C 19.6875 13.679688 19.683594 13.671875 19.679688 13.667969 L 19.652344 13.636719 C 19.652344 13.636719 19.652344 13.632812 19.652344 13.632812 C 18.773438 12.527344 17.457031 11.890625 16.046875 11.890625 L 16.035156 11.890625 C 15.945312 11.890625 15.871094 11.964844 15.871094 12.054688 C 15.871094 12.144531 15.945312 12.21875 16.035156 12.21875 Z M 16.035156 12.21875 " fill-opacity="1" fill-rule="nonzero"/><path fill="#ffffff" d="M 14.585938 13.164062 C 14.570312 13.171875 14.558594 13.175781 14.546875 13.183594 C 14.539062 13.183594 14.535156 13.1875 14.527344 13.191406 C 14.519531 13.195312 14.515625 13.195312 14.507812 13.199219 C 14.496094 13.207031 14.480469 13.210938 14.46875 13.21875 C 13.21875 13.820312 12.410156 15.109375 12.410156 16.496094 L 12.410156 16.503906 C 12.410156 16.59375 12.480469 16.667969 12.574219 16.667969 C 12.664062 16.667969 12.738281 16.59375 12.738281 16.503906 L 12.738281 16.496094 C 12.738281 15.234375 13.472656 14.0625 14.613281 13.511719 C 14.625 13.507812 14.636719 13.503906 14.648438 13.496094 C 14.652344 13.496094 14.65625 13.492188 14.664062 13.488281 C 14.667969 13.484375 14.675781 13.484375 14.679688 13.480469 C 14.691406 13.476562 14.703125 13.46875 14.714844 13.464844 C 14.800781 13.429688 14.835938 13.332031 14.800781 13.25 C 14.765625 13.167969 14.667969 13.128906 14.585938 13.164062 Z M 14.585938 13.164062 " fill-opacity="1" fill-rule="nonzero"/><path fill="#ffffff" d="M 19.683594 16.496094 C 19.683594 16.402344 19.609375 16.332031 19.519531 16.332031 C 19.429688 16.332031 19.355469 16.40625 19.355469 16.496094 C 19.355469 17.761719 18.617188 18.933594 17.476562 19.484375 L 17.441406 19.5 C 17.433594 19.5 17.429688 19.503906 17.425781 19.507812 C 17.417969 19.511719 17.410156 19.511719 17.40625 19.515625 L 17.371094 19.53125 C 17.289062 19.566406 17.25 19.664062 17.285156 19.746094 C 17.3125 19.808594 17.375 19.84375 17.4375 19.84375 C 17.457031 19.84375 17.480469 19.839844 17.503906 19.832031 C 17.515625 19.824219 17.527344 19.820312 17.539062 19.8125 C 17.546875 19.8125 17.554688 19.808594 17.558594 19.804688 C 17.566406 19.800781 17.574219 19.800781 17.578125 19.796875 L 17.617188 19.777344 C 18.871094 19.175781 19.683594 17.886719 19.683594 16.496094 Z M 19.683594 16.496094 " fill-opacity="1" fill-rule="nonzero"/><path fill="#ffffff" d="M 16.035156 13.1875 L 16.046875 13.1875 C 17.3125 13.1875 18.484375 13.925781 19.03125 15.070312 L 19.050781 15.105469 C 19.050781 15.109375 19.054688 15.117188 19.058594 15.121094 C 19.058594 15.128906 19.0625 15.132812 19.066406 15.140625 C 19.070312 15.152344 19.074219 15.164062 19.082031 15.175781 C 19.109375 15.234375 19.167969 15.273438 19.230469 15.273438 C 19.253906 15.273438 19.273438 15.269531 19.296875 15.257812 C 19.378906 15.222656 19.417969 15.125 19.382812 15.042969 C 19.375 15.03125 19.371094 15.019531 19.363281 15.003906 C 19.359375 15 19.359375 14.992188 19.355469 14.984375 C 19.351562 14.980469 19.347656 14.972656 19.347656 14.964844 C 19.339844 14.953125 19.335938 14.941406 19.328125 14.929688 C 19.328125 14.929688 19.328125 14.925781 19.328125 14.925781 C 18.726562 13.671875 17.4375 12.859375 16.046875 12.859375 L 16.035156 12.859375 C 15.945312 12.859375 15.871094 12.933594 15.871094 13.023438 C 15.871094 13.113281 15.945312 13.1875 16.035156 13.1875 Z M 16.035156 13.1875 " fill-opacity="1" fill-rule="nonzero"/><path fill="#ffffff" d="M 13.0625 17.929688 C 13.054688 17.917969 13.050781 17.90625 13.046875 17.894531 C 13.042969 17.886719 13.039062 17.882812 13.035156 17.878906 C 13.035156 17.871094 13.03125 17.863281 13.027344 17.859375 L 13.011719 17.824219 C 12.976562 17.742188 12.878906 17.703125 12.796875 17.738281 C 12.714844 17.777344 12.675781 17.871094 12.714844 17.957031 L 12.730469 17.992188 C 12.734375 18 12.738281 18.007812 12.742188 18.011719 C 12.742188 18.019531 12.746094 18.027344 12.75 18.03125 C 12.753906 18.046875 12.761719 18.058594 12.765625 18.070312 C 13.367188 19.324219 14.65625 20.132812 16.046875 20.132812 L 16.050781 20.132812 C 16.140625 20.132812 16.214844 20.0625 16.214844 19.96875 C 16.214844 19.878906 16.140625 19.804688 16.050781 19.804688 L 16.046875 19.804688 C 14.78125 19.804688 13.609375 19.070312 13.0625 17.929688 Z M 13.0625 17.929688 " fill-opacity="1" fill-rule="nonzero"/><path fill="#ffffff" d="M 14.996094 18.660156 C 14.984375 18.65625 14.976562 18.648438 14.964844 18.644531 C 14.957031 18.640625 14.953125 18.636719 14.945312 18.636719 C 14.941406 18.632812 14.9375 18.628906 14.929688 18.625 C 14.917969 18.621094 14.90625 18.613281 14.898438 18.609375 C 14.816406 18.566406 14.71875 18.59375 14.675781 18.675781 C 14.632812 18.753906 14.660156 18.851562 14.742188 18.894531 C 14.753906 18.902344 14.765625 18.910156 14.777344 18.917969 C 14.785156 18.917969 14.789062 18.921875 14.796875 18.925781 C 14.804688 18.929688 14.808594 18.933594 14.816406 18.9375 C 14.828125 18.941406 14.839844 18.949219 14.855469 18.953125 C 15.226562 19.136719 15.628906 19.226562 16.046875 19.226562 C 17.019531 19.226562 17.925781 18.703125 18.414062 17.859375 C 18.457031 17.78125 18.429688 17.679688 18.351562 17.636719 C 18.273438 17.589844 18.175781 17.617188 18.128906 17.695312 C 17.699219 18.4375 16.902344 18.898438 16.046875 18.898438 C 15.679688 18.898438 15.324219 18.820312 14.996094 18.660156 Z M 14.996094 18.660156 " fill-opacity="1" fill-rule="nonzero"/><path fill="#ffffff" d="M 16.039062 14.09375 L 16.046875 14.09375 C 17.300781 14.09375 18.355469 15.074219 18.445312 16.324219 C 18.445312 16.339844 18.445312 16.351562 18.445312 16.363281 C 18.445312 16.371094 18.445312 16.375 18.449219 16.382812 C 18.449219 16.386719 18.449219 16.394531 18.449219 16.402344 C 18.449219 16.414062 18.449219 16.425781 18.449219 16.4375 C 18.449219 16.527344 18.523438 16.597656 18.613281 16.597656 C 18.613281 16.597656 18.613281 16.597656 18.617188 16.597656 C 18.707031 16.597656 18.777344 16.519531 18.777344 16.429688 C 18.777344 16.417969 18.777344 16.402344 18.773438 16.386719 C 18.773438 16.382812 18.773438 16.375 18.773438 16.367188 C 18.773438 16.359375 18.773438 16.351562 18.773438 16.34375 C 18.773438 16.332031 18.769531 16.316406 18.769531 16.304688 C 18.671875 14.878906 17.472656 13.765625 16.042969 13.765625 L 16.039062 13.765625 C 15.949219 13.765625 15.875 13.839844 15.875 13.929688 C 15.875 14.019531 15.945312 14.09375 16.039062 14.09375 Z M 16.039062 14.09375 " fill-opacity="1" fill-rule="nonzero"/><path fill="#ffffff" d="M 14.617188 14.167969 C 14.605469 14.175781 14.59375 14.183594 14.582031 14.191406 C 14.574219 14.195312 14.570312 14.199219 14.566406 14.203125 C 14.558594 14.207031 14.550781 14.210938 14.546875 14.214844 C 14.535156 14.222656 14.523438 14.230469 14.511719 14.238281 C 13.761719 14.746094 13.316406 15.59375 13.316406 16.496094 C 13.316406 16.980469 13.441406 17.453125 13.683594 17.867188 C 13.714844 17.921875 13.769531 17.949219 13.824219 17.949219 C 13.851562 17.949219 13.882812 17.941406 13.90625 17.925781 C 13.984375 17.882812 14.011719 17.78125 13.964844 17.703125 C 13.753906 17.339844 13.640625 16.921875 13.640625 16.496094 C 13.640625 15.699219 14.035156 14.957031 14.695312 14.507812 C 14.707031 14.5 14.714844 14.496094 14.726562 14.488281 C 14.730469 14.484375 14.738281 14.480469 14.742188 14.476562 C 14.746094 14.472656 14.753906 14.472656 14.757812 14.46875 C 14.769531 14.460938 14.777344 14.453125 14.789062 14.449219 C 14.867188 14.398438 14.890625 14.300781 14.84375 14.222656 C 14.796875 14.144531 14.695312 14.121094 14.617188 14.167969 Z M 14.617188 14.167969 " fill-opacity="1" fill-rule="nonzero"/><path fill="#ffffff" d="M 17.222656 17.445312 C 17.214844 17.457031 17.207031 17.464844 17.203125 17.472656 C 17.199219 17.476562 17.195312 17.484375 17.191406 17.488281 C 17.1875 17.492188 17.183594 17.496094 17.179688 17.5 C 17.171875 17.507812 17.164062 17.519531 17.15625 17.527344 C 17.09375 17.59375 17.097656 17.695312 17.164062 17.757812 C 17.195312 17.789062 17.234375 17.800781 17.273438 17.800781 C 17.316406 17.800781 17.363281 17.785156 17.394531 17.75 C 17.402344 17.738281 17.414062 17.730469 17.421875 17.71875 C 17.429688 17.710938 17.433594 17.707031 17.4375 17.699219 C 17.441406 17.695312 17.445312 17.691406 17.453125 17.683594 C 17.460938 17.675781 17.46875 17.664062 17.480469 17.652344 C 17.742188 17.328125 17.886719 16.917969 17.886719 16.496094 C 17.886719 15.480469 17.0625 14.65625 16.042969 14.65625 L 16.039062 14.65625 C 15.949219 14.65625 15.875 14.730469 15.875 14.820312 C 15.875 14.910156 15.949219 14.984375 16.039062 14.984375 L 16.046875 14.984375 C 16.878906 14.984375 17.558594 15.664062 17.558594 16.496094 C 17.558594 16.847656 17.441406 17.175781 17.222656 17.445312 Z M 17.222656 17.445312 " fill-opacity="1" fill-rule="nonzero"/><path fill="#ffffff" d="M 14.695312 15.246094 C 14.6875 15.257812 14.675781 15.269531 14.667969 15.277344 C 14.660156 15.285156 14.65625 15.289062 14.652344 15.296875 C 14.648438 15.300781 14.644531 15.304688 14.636719 15.3125 C 14.628906 15.324219 14.621094 15.332031 14.609375 15.34375 C 14.351562 15.667969 14.207031 16.078125 14.207031 16.496094 C 14.207031 17.511719 15.03125 18.335938 16.046875 18.335938 L 16.050781 18.335938 C 16.140625 18.335938 16.210938 18.265625 16.210938 18.171875 C 16.210938 18.082031 16.136719 18.007812 16.046875 18.007812 C 15.210938 18.007812 14.535156 17.332031 14.535156 16.496094 C 14.535156 16.148438 14.648438 15.820312 14.867188 15.550781 C 14.875 15.539062 14.882812 15.53125 14.890625 15.523438 C 14.894531 15.519531 14.894531 15.511719 14.898438 15.507812 C 14.902344 15.503906 14.90625 15.5 14.910156 15.496094 C 14.917969 15.488281 14.925781 15.476562 14.9375 15.46875 C 14.996094 15.402344 14.992188 15.300781 14.925781 15.238281 C 14.859375 15.175781 14.757812 15.179688 14.695312 15.246094 Z M 14.695312 15.246094 " fill-opacity="1" fill-rule="nonzero"/><path fill="#ffffff" d="M 15.046875 16.640625 C 15.046875 16.648438 15.046875 16.65625 15.050781 16.664062 C 15.050781 16.679688 15.054688 16.695312 15.058594 16.710938 C 15.15625 17.171875 15.574219 17.507812 16.046875 17.507812 C 16.605469 17.507812 17.058594 17.054688 17.058594 16.496094 C 17.058594 15.9375 16.605469 15.484375 16.046875 15.484375 L 16.042969 15.484375 C 15.953125 15.484375 15.878906 15.558594 15.878906 15.648438 C 15.878906 15.738281 15.957031 15.8125 16.046875 15.8125 C 16.421875 15.8125 16.730469 16.121094 16.730469 16.496094 C 16.730469 16.875 16.421875 17.179688 16.046875 17.179688 C 15.726562 17.179688 15.445312 16.953125 15.378906 16.640625 C 15.375 16.632812 15.375 16.621094 15.371094 16.609375 C 15.371094 16.605469 15.371094 16.601562 15.367188 16.59375 C 15.367188 16.589844 15.367188 16.585938 15.367188 16.578125 C 15.367188 16.570312 15.363281 16.558594 15.363281 16.546875 C 15.359375 16.457031 15.28125 16.390625 15.1875 16.394531 C 15.097656 16.402344 15.03125 16.480469 15.039062 16.570312 C 15.039062 16.585938 15.039062 16.601562 15.042969 16.617188 C 15.042969 16.625 15.042969 16.632812 15.046875 16.640625 Z M 15.046875 16.640625 " fill-opacity="1" fill-rule="nonzero"/><g fill="#ffffff" fill-opacity="1"><g transform="translate(31.666768, 20.474719)"><g><path d="M 3.625 -5.53125 C 3.101562 -5.53125 2.695312 -5.332031 2.40625 -4.9375 C 2.113281 -4.539062 1.96875 -3.988281 1.96875 -3.28125 C 1.96875 -1.8125 2.519531 -1.078125 3.625 -1.078125 C 4.09375 -1.078125 4.65625 -1.191406 5.3125 -1.421875 L 5.3125 -0.25 C 4.769531 -0.0195312 4.164062 0.09375 3.5 0.09375 C 2.539062 0.09375 1.804688 -0.195312 1.296875 -0.78125 C 0.785156 -1.363281 0.53125 -2.195312 0.53125 -3.28125 C 0.53125 -3.96875 0.65625 -4.566406 0.90625 -5.078125 C 1.15625 -5.597656 1.515625 -5.992188 1.984375 -6.265625 C 2.453125 -6.546875 3 -6.6875 3.625 -6.6875 C 4.269531 -6.6875 4.914062 -6.53125 5.5625 -6.21875 L 5.109375 -5.09375 C 4.859375 -5.207031 4.609375 -5.304688 4.359375 -5.390625 C 4.109375 -5.484375 3.863281 -5.53125 3.625 -5.53125 Z M 3.625 -5.53125 "/></g></g></g><g fill="#ffffff" fill-opacity="1"><g transform="translate(37.547765, 20.474719)"><g><path d="M 4.859375 0 L 4.390625 -1.5625 L 1.984375 -1.5625 L 1.5 0 L 0 0 L 2.328125 -6.625 L 4.03125 -6.625 L 6.375 0 Z M 4.046875 -2.734375 C 3.609375 -4.160156 3.359375 -4.96875 3.296875 -5.15625 C 3.242188 -5.34375 3.207031 -5.488281 3.1875 -5.59375 C 3.082031 -5.207031 2.796875 -4.253906 2.328125 -2.734375 Z M 4.046875 -2.734375 "/></g></g></g><g fill="#ffffff" fill-opacity="1"><g transform="translate(43.915466, 20.474719)"><g><path d="M 2.234375 -3.671875 L 2.671875 -3.671875 C 3.117188 -3.671875 3.445312 -3.742188 3.65625 -3.890625 C 3.863281 -4.035156 3.96875 -4.265625 3.96875 -4.578125 C 3.96875 -4.890625 3.859375 -5.113281 3.640625 -5.25 C 3.429688 -5.382812 3.101562 -5.453125 2.65625 -5.453125 L 2.234375 -5.453125 Z M 2.234375 -2.53125 L 2.234375 0 L 0.828125 0 L 0.828125 -6.59375 L 2.75 -6.59375 C 3.644531 -6.59375 4.304688 -6.425781 4.734375 -6.09375 C 5.171875 -5.769531 5.390625 -5.28125 5.390625 -4.625 C 5.390625 -4.226562 5.28125 -3.878906 5.0625 -3.578125 C 4.851562 -3.273438 4.550781 -3.039062 4.15625 -2.875 C 5.144531 -1.394531 5.789062 -0.4375 6.09375 0 L 4.546875 0 L 2.96875 -2.53125 Z M 2.234375 -2.53125 "/></g></g></g><g fill="#ffffff" fill-opacity="1"><g transform="translate(50.008268, 20.474719)"><g><path d="M 6.296875 -3.359375 C 6.296875 -2.273438 5.988281 -1.441406 5.375 -0.859375 C 4.757812 -0.285156 3.867188 0 2.703125 0 L 0.828125 0 L 0.828125 -6.59375 L 2.90625 -6.59375 C 3.976562 -6.59375 4.8125 -6.304688 5.40625 -5.734375 C 6 -5.171875 6.296875 -4.378906 6.296875 -3.359375 Z M 4.84375 -3.328125 C 4.84375 -4.742188 4.21875 -5.453125 2.96875 -5.453125 L 2.234375 -5.453125 L 2.234375 -1.15625 L 2.828125 -1.15625 C 4.171875 -1.15625 4.84375 -1.878906 4.84375 -3.328125 Z M 4.84375 -3.328125 "/></g></g></g><g fill="#ffffff" fill-opacity="1"><g transform="translate(56.840137, 20.474719)"><g><path d="M 4.859375 0 L 4.390625 -1.5625 L 1.984375 -1.5625 L 1.5 0 L 0 0 L 2.328125 -6.625 L 4.03125 -6.625 L 6.375 0 Z M 4.046875 -2.734375 C 3.609375 -4.160156 3.359375 -4.96875 3.296875 -5.15625 C 3.242188 -5.34375 3.207031 -5.488281 3.1875 -5.59375 C 3.082031 -5.207031 2.796875 -4.253906 2.328125 -2.734375 Z M 4.046875 -2.734375 "/></g></g></g><g fill="#ffffff" fill-opacity="1"><g transform="translate(63.206577, 20.474719)"><g><path d="M 4.578125 -1.703125 C 4.578125 -1.148438 4.375 -0.710938 3.96875 -0.390625 C 3.5625 -0.0664062 3.023438 0.09375 2.359375 0.09375 C 1.546875 0.09375 0.925781 0.00390625 0.5 -0.171875 L 0.5 -0.640625 C 0.976562 -0.429688 1.582031 -0.328125 2.3125 -0.328125 C 2.851562 -0.328125 3.28125 -0.453125 3.59375 -0.703125 C 3.914062 -0.953125 4.078125 -1.28125 4.078125 -1.6875 C 4.078125 -1.9375 4.023438 -2.140625 3.921875 -2.296875 C 3.816406 -2.460938 3.644531 -2.613281 3.40625 -2.75 C 3.164062 -2.882812 2.816406 -3.03125 2.359375 -3.1875 C 1.691406 -3.414062 1.226562 -3.664062 0.96875 -3.9375 C 0.707031 -4.207031 0.578125 -4.566406 0.578125 -5.015625 C 0.578125 -5.503906 0.769531 -5.90625 1.15625 -6.21875 C 1.539062 -6.53125 2.039062 -6.6875 2.65625 -6.6875 C 3.269531 -6.6875 3.847656 -6.566406 4.390625 -6.328125 L 4.234375 -5.9375 C 3.679688 -6.164062 3.15625 -6.28125 2.65625 -6.28125 C 2.175781 -6.28125 1.789062 -6.164062 1.5 -5.9375 C 1.207031 -5.71875 1.0625 -5.410156 1.0625 -5.015625 C 1.0625 -4.773438 1.101562 -4.578125 1.1875 -4.421875 C 1.28125 -4.265625 1.425781 -4.125 1.625 -4 C 1.832031 -3.875 2.179688 -3.722656 2.671875 -3.546875 C 3.179688 -3.367188 3.566406 -3.195312 3.828125 -3.03125 C 4.085938 -2.863281 4.273438 -2.675781 4.390625 -2.46875 C 4.515625 -2.257812 4.578125 -2.003906 4.578125 -1.703125 Z M 4.578125 -1.703125 "/></g></g></g><g fill="#ffffff" fill-opacity="1"><g transform="translate(68.235843, 20.474719)"><g><path d="M 5.703125 0 L 5.25 0 L 5.25 -3.234375 L 1.390625 -3.234375 L 1.390625 0 L 0.9375 0 L 0.9375 -6.59375 L 1.390625 -6.59375 L 1.390625 -3.671875 L 5.25 -3.671875 L 5.25 -6.59375 L 5.703125 -6.59375 Z M 5.703125 0 "/></g></g></g><g fill="#ffffff" fill-opacity="1"><g transform="translate(74.873934, 20.474719)"><g><path d="M 0.9375 0 L 0.9375 -6.59375 L 1.390625 -6.59375 L 1.390625 0 Z M 0.9375 0 "/></g></g></g><g fill="#ffffff" fill-opacity="1"><g transform="translate(77.199293, 20.474719)"><g><path d="M 1.390625 0 L 0.9375 0 L 0.9375 -6.59375 L 4.546875 -6.59375 L 4.546875 -6.171875 L 1.390625 -6.171875 L 1.390625 -3.375 L 4.375 -3.375 L 4.375 -2.9375 L 1.390625 -2.9375 Z M 1.390625 0 "/></g></g></g><g fill="#ffffff" fill-opacity="1"><g transform="translate(81.831986, 20.474719)"><g><path d="M 2.65625 0 L 2.1875 0 L 2.1875 -6.15625 L 0.046875 -6.15625 L 0.046875 -6.59375 L 4.796875 -6.59375 L 4.796875 -6.15625 L 2.65625 -6.15625 Z M 2.65625 0 "/></g></g></g></svg>