<svg width="206" height="118" viewBox="0 0 206 118" fill="none" xmlns="http://www.w3.org/2000/svg">
<path d="M183.769 111.551C181.298 106.551 180.435 105.033 179.81 104.705C179.363 104.497 177.28 103.604 175.167 102.771C170.732 100.985 169.66 100.479 169.66 100.092C169.66 99.6156 171.833 98.6631 175.821 97.3832C177.905 96.6986 179.869 95.9545 180.167 95.6866C180.435 95.4485 182.042 92.5316 183.679 89.2574C186.537 83.6022 187.876 81.5186 188.531 81.727C188.799 81.8163 189.722 84.2272 192.4 92.0553C193.293 94.5853 193.859 95.8354 194.246 95.9843C194.573 96.1033 197.282 96.8177 200.318 97.5618C203.354 98.3357 205.884 99.0203 205.943 99.0798C206.39 99.5263 204.276 100.657 199.425 102.592C192.966 105.152 194.008 103.991 190.168 113.129C188.918 116.105 187.787 117.921 187.162 117.951C187.043 117.951 185.495 115.063 183.769 111.551Z" fill="white"/>
<path d="M25.7464 96.818C17.0552 95.4488 9.61399 90.8055 5.08976 83.8704C1.9347 79.0485 0 72.1431 0 65.7437C0 59.1061 2.26212 51.6947 6.04223 45.8013C7.53046 43.5392 11.4892 39.4317 13.8406 37.7351C16.2813 35.979 21.371 33.5681 24.2582 32.7644C26.312 32.2286 27.4728 32.1096 32.4435 32.1096C37.95 32.0798 38.3964 32.1096 41.2241 32.9132C47.3854 34.6693 52.8621 38.0328 56.1957 42.1403C58.3983 44.8489 59.827 46.9622 59.827 47.4682C59.827 47.9444 46.1055 61.6957 45.6292 61.6957C45.4507 61.6957 45.2125 61.2492 45.1232 60.6837C44.8851 59.4038 41.6408 54.4926 40.3907 53.5402C38.9322 52.4091 36.045 51.0994 34.2889 50.7125C25.1214 48.7778 17.9183 55.326 17.8588 65.6246C17.8588 70.6846 19.5554 75.3279 22.4128 78.0067C24.4963 79.9414 26.0441 80.6558 29.1396 81.1022C35.7176 82.0249 41.2241 78.9592 44.3791 72.5598C45.0637 71.1608 45.7483 70.0298 45.8376 70.0298C45.9567 70.0298 48.3378 71.4585 51.0762 73.1848C53.8443 74.941 56.8803 76.8459 57.803 77.4412C58.7555 78.0365 59.5293 78.6318 59.5293 78.7806C59.5293 79.5247 55.2432 85.3586 53.1597 87.4719C48.6652 91.9664 44.4684 94.5856 39.3787 96.1036C37.1463 96.7585 36.0748 96.9073 32.1458 96.9966C29.6158 97.0263 26.7287 96.9668 25.7464 96.818Z" fill="white"/>
<path d="M80.0643 96.6985C75.0638 95.627 71.4325 93.5732 67.8905 89.7634C64.4676 86.1321 62.3245 81.6674 60.9851 75.4466C60.1219 71.339 59.8838 63.6895 60.5386 60.0285C62.2948 49.9382 67.1464 42.7649 75.0638 38.4788C80.8382 35.3833 88.4579 34.0141 96.7623 34.6392C107.835 35.4726 114.591 38.3598 118.61 43.9853C119.354 44.9973 119.949 46.1581 119.949 46.5153C119.949 46.932 119.175 47.944 117.806 49.3429C116.615 50.5335 115.187 52.0218 114.621 52.6766C114.085 53.3016 112.299 55.1768 110.722 56.8734C108.192 59.5225 107.686 59.9392 106.972 59.8499C106.317 59.7903 106.079 59.5522 105.9 58.8081C105.573 57.5878 103.757 54.9387 102.388 53.7481C99.2923 51.0693 93.2798 49.7299 88.6365 50.7121C86.3744 51.1884 83.4277 52.7063 82.0287 54.1351C76.9092 59.2248 76.5818 70.5354 81.3144 77.2622C81.6418 77.7087 82.6836 78.6016 83.6063 79.2564C89.589 83.3044 98.1612 82.5306 103.34 77.4706C104.293 76.5479 105.067 75.6549 105.067 75.4763C105.067 75.0299 100.066 74.7322 94.7085 74.8215L90.3331 74.9108L90.2438 67.6482L90.1843 60.4154L93.9644 60.6238C96.0777 60.7428 99.5304 60.9512 101.644 61.1C103.787 61.2488 108.073 61.5167 111.168 61.6953C114.294 61.8739 117.687 62.112 118.758 62.231L120.693 62.4394L120.782 78.0659L120.842 93.7221L119.949 95.121L119.056 96.5199H112.538C106.882 96.5199 105.989 96.4604 105.84 96.0437C105.513 95.1508 105.662 93.0375 106.406 88.9002C107.329 83.7807 107.329 83.1556 106.436 84.9117C104.858 88.1263 102.358 90.8349 98.816 93.1863C94.0537 96.3414 92.4166 96.8474 86.4637 96.9962C83.4277 97.0557 81.3739 96.9664 80.0643 96.6985Z" fill="white"/>
<path d="M148.526 96.0434C141.145 94.9718 137.632 93.4241 133.614 89.4058C131.025 86.8163 129.596 84.4351 128.316 80.5955C126.441 74.8807 126.352 73.7199 126.352 52.1702V32.6744H134.537H142.722L142.633 50.682C142.544 62.8855 142.633 69.3444 142.841 70.6839C143.258 73.2436 144.716 76.3094 146.086 77.5C148.11 79.2858 149.449 79.6728 153.586 79.7026C156.771 79.7026 157.515 79.6133 158.676 79.0775C161.414 77.7976 163.141 75.6843 164.093 72.4102C164.302 71.7851 164.48 63.5701 164.569 51.4261L164.748 31.4838L173.439 31.3945L182.101 31.335L182.726 32.1088C183.351 32.8827 183.351 33.1208 183.351 50.8011C183.351 69.8802 183.113 74.0473 181.863 78.125C180.315 83.1255 178.112 86.6972 174.689 89.644C169.421 94.2277 162.754 96.2517 153.437 96.1922C151.146 96.1624 148.943 96.1029 148.526 96.0434Z" fill="white"/>
<path d="M9.61231 31.8704C9.67184 31.6621 10.4457 30.3524 11.2791 28.9833C12.1125 27.5843 12.7674 26.3342 12.7078 26.1854C12.6781 26.0366 10.8327 24.846 8.63008 23.5661C2.91526 20.2622 3.51055 21.1254 3.98679 16.75C4.99879 8.02893 5.41549 4.96317 5.71314 4.63576C6.27867 3.9214 7.29067 4.24881 9.3742 5.82634C15.6843 10.5292 19.9704 13.4759 20.2681 13.2973C20.4169 13.208 21.2801 11.809 22.173 10.172C23.7803 7.34434 24.9411 6.06446 25.5662 6.4514C25.715 6.57046 27.0842 10.3506 28.6022 14.9046C30.0904 19.4288 31.5786 23.8042 31.8763 24.5781C32.2037 25.352 32.4418 26.1854 32.4418 26.4235C32.4418 27.1081 30.5964 28.001 28.1259 28.4773C26.8163 28.7154 23.4827 29.4 20.6848 29.9953C8.57055 32.555 9.3742 32.4062 9.61231 31.8704Z" fill="white"/>
<path d="M85.424 18.8638C80.5128 17.2565 77.7447 11.0357 79.9175 6.39245C80.8402 4.39822 82.9238 2.19563 84.8882 1.12411C87.8945 -0.512949 92.0913 -0.155773 95.0082 2.01705C97.9847 4.21963 99.1752 9.22009 97.5084 12.7323C96.4369 15.054 94.651 17.1077 92.8354 18.09C91.4662 18.8341 90.8412 18.9531 88.6981 19.0424C87.2992 19.0722 85.8407 19.0127 85.424 18.8638ZM94.8594 7.6128C96.4667 5.61857 95.1273 2.76116 92.5675 2.76116C89.591 2.76116 88.46 6.45198 90.9304 8.14856C92.1806 8.98197 93.9664 8.74386 94.8594 7.6128Z" fill="white"/>
<path d="M104.532 18.4172C100.008 16.2444 97.9839 10.6784 100.127 6.27319C101.139 4.21943 103.371 1.86802 105.127 1.00485C109.116 -0.900093 113.581 -0.0369172 116.081 3.08837C117.658 5.08261 118.135 6.15413 118.343 8.35672C118.73 11.8987 116.974 15.2026 113.313 17.7624C111.676 18.9232 111.527 18.9529 108.848 19.072C106.407 19.1613 105.931 19.072 104.532 18.4172ZM114.771 7.7019C116.111 6.36249 116.17 4.87425 114.92 3.62414C112.747 1.48108 108.907 3.6539 109.83 6.48155C110.604 8.83295 113.045 9.42825 114.771 7.7019Z" fill="white"/>
</svg>
