<svg width="186" height="71" viewBox="0 0 186 71" fill="none" xmlns="http://www.w3.org/2000/svg">
<g clip-path="url(#clip0_147_22)">
<path d="M85.375 70.4298C85.375 70.7238 85.6563 70.8794 85.9552 70.8794C86.2364 70.8794 86.5353 70.7238 86.5353 70.4298V58.6562C86.5353 58.3623 86.2364 58.2412 85.9552 58.2412C85.6563 58.2412 85.375 58.3623 85.375 58.6562V70.4298Z" fill="white"/>
<path d="M90.0335 65.8308C90.0335 64.4476 91.0884 63.635 92.1257 63.635C93.3389 63.635 94.3233 64.7243 94.3233 65.8308V70.4295C94.3233 70.7234 94.6223 70.8791 94.886 70.8791C95.1673 70.8791 95.4662 70.7234 95.4662 70.4295V65.8308C95.4662 64.05 94.0244 62.5977 92.3367 62.5977C91.1587 62.5977 90.3499 63.2374 89.9807 63.9117V63.1163C89.9807 62.8744 89.7346 62.7014 89.4533 62.7014C89.1193 62.7014 88.8906 62.8744 88.8906 63.1163V70.4295C88.8906 70.6543 89.1193 70.8791 89.4533 70.8791C89.7697 70.8791 90.0335 70.6543 90.0335 70.4295V65.8308Z" fill="white"/>
<path d="M98.7561 60.7822C98.7736 59.6757 99.6704 58.7075 100.884 58.7075H101.182C101.481 58.7075 101.675 58.4655 101.675 58.2062C101.675 57.9295 101.481 57.6875 101.182 57.6875H100.743C99.0551 57.6875 97.6133 59.1224 97.6133 60.8687V70.4468C97.6133 70.7061 97.8594 70.8789 98.1583 70.8789C98.4749 70.8789 98.7561 70.7061 98.7561 70.4468V63.6349H101.27C101.516 63.6349 101.675 63.4101 101.675 63.1508C101.675 62.926 101.516 62.7012 101.27 62.7012H98.7561V60.7822Z" fill="white"/>
<path d="M105.34 62.5977C104.215 62.5977 102.967 63.03 102.967 63.4794C102.967 63.7387 103.125 64.0845 103.424 64.0845C103.705 64.0845 104.127 63.5832 105.305 63.5832C106.817 63.5832 107.38 64.828 107.38 65.9345V66.3494H106.483C104.039 66.3494 102.387 66.8336 102.387 68.718C102.387 70.2741 103.441 71.0001 104.778 71.0001C105.956 71.0001 106.817 70.3604 107.433 69.6689V70.4295C107.433 70.6889 107.661 70.8791 107.96 70.8791C108.294 70.8791 108.523 70.6889 108.523 70.4295V65.9345C108.523 64.2056 107.696 62.5977 105.34 62.5977ZM107.38 68.2339C107.38 69.012 106.184 70.0493 105.059 70.0493C104.197 70.0493 103.529 69.6169 103.529 68.6143C103.529 67.2831 105.024 67.1275 106.641 67.1275H107.38V68.2339Z" fill="white"/>
<path d="M115.898 70.4469C115.898 70.7582 116.196 70.8791 116.46 70.8791C116.741 70.8791 117.04 70.7582 117.04 70.4469V65.7616C117.04 64.465 118.078 63.635 119.097 63.635C120.064 63.635 121.102 64.3784 121.102 65.8308V70.4295C121.102 70.6543 121.365 70.8791 121.664 70.8791C121.998 70.8791 122.244 70.6543 122.244 70.4295V65.8308C122.244 63.7733 120.803 62.5977 119.291 62.5977C118.271 62.5977 117.234 63.1509 116.618 64.3265C116.196 63.3065 115.282 62.5977 114.122 62.5977C112.961 62.5977 112.17 63.2374 111.783 63.9117V63.1163C111.783 62.8744 111.537 62.7014 111.238 62.7014C110.922 62.7014 110.676 62.8744 110.676 63.1163V70.4295C110.676 70.6543 110.922 70.8791 111.238 70.8791C111.555 70.8791 111.819 70.6543 111.819 70.4295V65.8308C111.819 64.4304 112.873 63.635 113.893 63.635C114.983 63.635 115.898 64.5341 115.898 65.7788V70.4469Z" fill="white"/>
<path d="M128.145 70.4298C128.145 70.7238 128.426 70.8794 128.725 70.8794C129.006 70.8794 129.305 70.7238 129.305 70.4298V65.762H131.837C133.894 65.762 135.494 64.7592 135.494 62.0793V61.9065C135.494 59.2266 133.911 58.2412 131.872 58.2412H128.637C128.338 58.2586 128.145 58.4314 128.145 58.6562V70.4298ZM131.837 59.2959C133.401 59.2959 134.333 60.1257 134.333 61.9237V62.1313C134.333 63.9292 133.401 64.7764 131.837 64.7764H129.305V59.2959H131.837Z" fill="white"/>
<path d="M137.891 57.6875C137.574 57.6875 137.328 57.8603 137.328 58.1025V70.4294C137.328 70.6541 137.574 70.8789 137.891 70.8789C138.225 70.8789 138.471 70.6541 138.471 70.4294V58.1025C138.471 57.8603 138.225 57.6875 137.891 57.6875Z" fill="white"/>
<path d="M143.2 62.5977C142.075 62.5977 140.826 63.03 140.826 63.4794C140.826 63.7387 140.984 64.0845 141.283 64.0845C141.565 64.0845 141.987 63.5832 143.165 63.5832C144.677 63.5832 145.239 64.828 145.239 65.9345V66.3494H144.343C141.899 66.3494 140.246 66.8336 140.246 68.718C140.246 70.2741 141.301 71.0001 142.637 71.0001C143.815 71.0001 144.677 70.3604 145.292 69.6689V70.4295C145.292 70.6889 145.521 70.8791 145.819 70.8791C146.153 70.8791 146.382 70.6889 146.382 70.4295V65.9345C146.382 64.2056 145.556 62.5977 143.2 62.5977ZM145.239 68.2339C145.239 69.012 144.044 70.0493 142.918 70.0493C142.057 70.0493 141.389 69.6169 141.389 68.6143C141.389 67.2831 142.883 67.1275 144.501 67.1275H145.239V68.2339Z" fill="white"/>
<path d="M149.643 63.635H151.911C152.139 63.635 152.315 63.4103 152.315 63.1683C152.315 62.9262 152.139 62.7014 151.911 62.7014H149.643V59.2263C149.643 58.9844 149.344 58.8115 149.063 58.8115C148.799 58.8115 148.5 58.9844 148.5 59.2263V68.3377C148.5 70.1185 149.467 70.8791 151.278 70.8791H151.77C152.087 70.8791 152.298 70.6371 152.298 70.3604C152.298 70.1011 152.087 69.8591 151.77 69.8591H151.278C150.065 69.8591 149.643 69.4615 149.643 68.3377V63.635Z" fill="white"/>
<path d="M154.9 60.7822C154.918 59.6757 155.815 58.7075 157.028 58.7075H157.327C157.626 58.7075 157.819 58.4655 157.819 58.2062C157.819 57.9295 157.626 57.6875 157.327 57.6875H156.887C155.199 57.6875 153.758 59.1224 153.758 60.8687V70.4468C153.758 70.7061 154.004 70.8789 154.303 70.8789C154.619 70.8789 154.9 70.7061 154.9 70.4468V63.6349H157.415C157.661 63.6349 157.819 63.4101 157.819 63.1508C157.819 62.926 157.661 62.7012 157.415 62.7012H154.9V60.7822Z" fill="white"/>
<path d="M161.811 62.5977C159.983 62.5977 158.488 64.1019 158.488 65.8308V67.7153C158.488 69.4441 160.035 71.0001 161.811 71.0001C163.605 71.0001 165.169 69.4269 165.169 67.7153V65.8308C165.169 64.05 163.605 62.5977 161.811 62.5977ZM164.027 67.7153C164.027 68.8735 163.042 69.9628 161.811 69.9628C160.598 69.9628 159.631 68.8735 159.631 67.7153V65.8308C159.631 64.7243 160.58 63.635 161.811 63.635C163.042 63.635 164.027 64.7243 164.027 65.8308V67.7153Z" fill="white"/>
<path d="M171.126 63.635C171.372 63.635 171.583 63.393 171.583 63.1163C171.583 62.8398 171.372 62.5977 171.126 62.5977H170.51C169.368 62.5977 168.541 63.272 168.155 63.9635V63.1163C168.155 62.8744 167.908 62.7014 167.61 62.7014C167.293 62.7014 167.047 62.8744 167.047 63.1163V70.4295C167.047 70.6543 167.293 70.8791 167.61 70.8791C167.944 70.8791 168.19 70.6543 168.19 70.4295V66.1592C168.19 64.5858 169.35 63.635 170.51 63.635H171.126Z" fill="white"/>
<path d="M178.089 70.4469C178.089 70.7582 178.388 70.8791 178.652 70.8791C178.933 70.8791 179.232 70.7582 179.232 70.4469V65.7616C179.232 64.465 180.269 63.635 181.289 63.635C182.256 63.635 183.293 64.3784 183.293 65.8308V70.4295C183.293 70.6543 183.557 70.8791 183.856 70.8791C184.19 70.8791 184.436 70.6543 184.436 70.4295V65.8308C184.436 63.7733 182.994 62.5977 181.482 62.5977C180.462 62.5977 179.425 63.1509 178.81 64.3265C178.388 63.3065 177.474 62.5977 176.313 62.5977C175.153 62.5977 174.362 63.2374 173.975 63.9117V63.1163C173.975 62.8744 173.729 62.7014 173.43 62.7014C173.113 62.7014 172.867 62.8744 172.867 63.1163V70.4295C172.867 70.6543 173.113 70.8791 173.43 70.8791C173.746 70.8791 174.01 70.6543 174.01 70.4295V65.8308C174.01 64.4304 175.065 63.635 176.085 63.635C177.175 63.635 178.089 64.5341 178.089 65.7788V70.4469Z" fill="white"/>
<path d="M92.6106 3.44952C92.6106 0.643131 90.6104 0 88.9045 0C88.375 0 85.375 -2.45006e-06 85.375 3.44952V46.013C85.375 48.8194 87.3162 49.4042 89.0221 49.4042C89.6105 49.4042 92.6106 49.4042 92.6106 46.013V3.44952Z" fill="white"/>
<path d="M114.608 3.50798C112.961 0.233864 109.431 0 108.431 0C107.49 0 103.137 0.233867 103.137 4.96965V46.013C103.137 48.8194 105.078 49.4042 106.784 49.4042C107.313 49.4042 110.314 49.4042 110.314 46.013V10.8748C110.314 10.4655 110.49 9.88083 111.02 9.88083C111.314 9.88083 111.667 10.3486 111.843 10.6409L129.727 45.9546C130.844 48.1763 132.844 49.4042 135.903 49.4042C136.845 49.4042 141.257 49.2873 141.257 44.5514V3.44952C141.257 0.643131 139.315 0 137.609 0C137.021 0 134.021 -2.45006e-06 134.021 3.44952V38.5879C134.021 39.0556 133.844 39.6402 133.315 39.6402C132.786 39.6402 132.491 39.1141 132.374 38.8217L114.608 3.50798Z" fill="white"/>
<path d="M159.314 21.9249V10.29C159.314 8.53598 160.196 7.54205 162.138 7.54205H181.197C184.198 7.54205 184.433 5.26185 184.433 4.38485C184.433 3.97559 184.433 1.28613 181.197 1.28613H160.079C154.313 1.28613 152.078 3.56633 152.078 9.1791V46.0129C152.078 48.8778 154.255 49.4041 155.784 49.4041C156.314 49.4041 159.314 49.4041 159.314 46.0129V27.9468H178.315C180.315 27.9468 181.55 27.0114 181.55 24.9065C181.55 21.9249 179.256 21.9249 178.315 21.9249H159.314Z" fill="white"/>
<path d="M26.5627 9.08382C26.5627 4.07206 30.6573 0 35.697 0C41.5764 0 44.0963 5.42941 48.9259 5.42941C52.7054 5.42941 55.0152 2.19265 58.5849 0.730881C58.795 0.62647 59.11 0.522059 59.3199 0.417646C59.4249 0.417646 59.4249 0.417646 59.53 0.417646C59.7398 0.313235 60.0549 0.313235 60.2649 0.208824H60.3698C60.5798 0.208824 60.8949 0.104412 61.2098 0.104412H61.3148C61.6297 0.104412 61.8397 0.104412 62.1546 0.104412C67.2993 0 71.3939 4.07206 71.3939 9.08382C71.3939 9.39706 71.3939 9.7103 71.3939 9.91911V10.0235C71.3939 10.3368 71.2889 10.5456 71.2889 10.8588V10.9632C71.1839 11.1721 71.1839 11.4853 71.0789 11.6941C71.0789 11.7985 71.0789 11.7985 71.0789 11.9029C70.974 12.1118 70.869 12.425 70.764 12.6338C69.294 16.1838 66.0394 18.4809 66.0394 22.2396C66.0394 25.9985 69.294 28.2956 70.764 31.8456C70.869 32.0544 70.974 32.3676 71.0789 32.5765C71.0789 32.6809 71.0789 32.6809 71.0789 32.7854C71.1839 32.9941 71.1839 33.3074 71.2889 33.5161V33.6206C71.2889 33.8294 71.3939 34.1426 71.3939 34.4559V34.5604C71.3939 34.8735 71.3939 35.0824 71.3939 35.3956C71.3939 35.7089 71.3939 36.022 71.3939 36.2309V36.3354C71.3939 36.6485 71.2889 36.8574 71.2889 37.1706V37.275C71.1839 37.4839 71.1839 37.797 71.0789 38.0059C71.0789 38.1104 71.0789 38.1104 71.0789 38.2146C70.974 38.4235 70.869 38.7367 70.764 38.9456C69.294 42.4956 66.0394 44.7926 66.0394 48.5515C66.0394 52.3102 69.294 54.6074 70.764 58.1574C70.869 58.3661 70.974 58.6794 71.0789 58.8881C71.0789 58.9926 71.0789 58.9926 71.0789 59.097C71.1839 59.3059 71.1839 59.6191 71.2889 59.828V59.9324C71.2889 60.1411 71.3939 60.4544 71.3939 60.7676V60.872C71.3939 61.1854 71.3939 61.3941 71.3939 61.7074C71.3939 66.7191 67.2993 70.7911 62.2596 70.7911C57.2202 70.7911 53.1255 66.7191 53.1255 61.7074C53.1255 61.3941 53.1255 61.0809 53.1255 60.872V60.7676C53.1255 60.4544 53.2304 60.2456 53.2304 59.9324V59.828C53.3354 59.6191 53.3354 59.3059 53.4404 59.097C53.4404 58.9926 53.4404 58.9926 53.4404 58.8881C53.5454 58.6794 53.6505 58.3661 53.7555 58.1574C55.2253 54.6074 58.4801 52.3102 58.4801 48.5515C58.4801 44.7926 55.2253 42.4956 53.7555 38.9456C53.6505 38.7367 53.5454 38.4235 53.4404 38.2146C53.4404 38.1104 53.4404 38.1104 53.4404 38.0059C53.3354 37.797 53.3354 37.4839 53.2304 37.275V37.1706C53.2304 36.9617 53.1255 36.6485 53.1255 36.3354V36.2309C53.1255 35.9176 53.1255 35.7089 53.1255 35.3956C53.1255 35.0824 53.1255 34.7691 53.1255 34.5604V34.4559C53.1255 34.1426 53.2304 33.9339 53.2304 33.6206V33.5161C53.3354 33.3074 53.3354 32.9941 53.4404 32.7854C53.4404 32.6809 53.4404 32.6809 53.4404 32.5765C53.5454 32.3676 53.6505 32.0544 53.7555 31.8456C55.2253 28.2956 58.4801 25.9985 58.4801 22.2396C58.4801 19.6294 56.9051 17.75 55.5403 15.6618C53.4404 14.2 51.5506 12.7382 48.9259 12.7382C44.0963 12.7382 41.5764 18.1676 35.697 18.1676C30.6573 18.2721 26.5627 14.2 26.5627 9.08382ZM9.13422 18.2721C14.1738 18.2721 18.2684 14.2 18.2684 9.18824C18.2684 4.17646 14.2788 0 9.13422 0C4.09465 0 0 4.07206 0 9.08382C0 14.2 4.09465 18.2721 9.13422 18.2721ZM35.697 71C40.7364 71 44.8313 66.928 44.8313 61.9161C44.8313 56.9044 40.7364 52.8324 35.697 52.8324C30.6573 52.8324 26.5627 56.9044 26.5627 61.9161C26.5627 66.928 30.6573 71 35.697 71ZM35.697 44.6881C40.7364 44.6881 44.8313 40.6161 44.8313 35.6044C44.8313 30.5926 40.7364 26.5206 35.697 26.5206C30.6573 26.5206 26.5627 30.5926 26.5627 35.6044C26.5627 40.5117 30.6573 44.6881 35.697 44.6881ZM0.104991 36.4396C0.104991 36.753 0.209983 36.9617 0.209983 37.275V37.3794C0.314973 37.5881 0.314973 37.9015 0.419964 38.1104C0.419964 38.2146 0.419964 38.2146 0.419964 38.3191C0.524956 38.528 0.629946 38.8411 0.734937 39.05C2.20481 42.6 5.45953 44.897 5.45953 48.6559C5.45953 52.4146 2.20481 54.7117 0.734937 58.2617C0.629946 58.4706 0.524956 58.7839 0.419964 58.9926C0.419964 59.097 0.419964 59.097 0.419964 59.2015C0.314973 59.4102 0.314973 59.7235 0.209983 59.9324V60.0367C0.209983 60.2456 0.104991 60.5589 0.104991 60.872V60.9765C0.104991 61.2896 0.104991 61.4985 0.104991 61.8117C0 66.928 4.09465 71 9.13422 71C14.1738 71 18.2684 66.928 18.2684 61.9161C18.2684 61.603 18.2684 61.2896 18.2684 61.0809V60.9765C18.2684 60.6631 18.1634 60.4544 18.1634 60.1411V60.0367C18.0585 59.828 18.0585 59.5146 17.9535 59.3059C17.9535 59.2015 17.9535 59.2015 17.9535 59.097C17.8485 58.8881 17.7435 58.575 17.6385 58.3661C16.1686 54.8161 12.9139 52.5191 12.9139 48.7604C12.9139 45.0015 16.1686 42.7044 17.6385 39.1544C17.7435 38.9456 17.8485 38.6324 17.9535 38.4235C17.9535 38.3191 17.9535 38.3191 17.9535 38.2146C18.0585 38.0059 18.0585 37.6926 18.1634 37.4839V37.3794C18.1634 37.1706 18.2684 36.8574 18.2684 36.5441V36.4396C18.2684 36.1265 18.2684 35.9176 18.2684 35.6044C18.2684 30.5926 14.1738 26.5206 9.13422 26.5206C4.09465 26.5206 0 30.4881 0 35.5C0 35.8131 0 36.1265 0 36.3354C0 36.4396 0 36.4396 0.104991 36.4396Z" fill="white"/>
</g>
<defs>
<clipPath id="clip0_147_22">
<rect width="186" height="71" fill="white"/>
</clipPath>
</defs>
</svg>
