<svg width="277" height="112" viewBox="0 0 277 112" fill="none" xmlns="http://www.w3.org/2000/svg">
<path d="M107.833 111.676C105.271 110.998 103.287 109.29 102.106 106.753C101.453 105.372 101.453 105.372 101.453 98.7152V92.0589L103.412 91.9836L105.346 91.9082V98.1124C105.346 102.282 105.447 104.643 105.648 105.346C106.075 106.778 107.582 108.21 108.863 108.411L109.868 108.587V110.295C109.868 112.254 109.893 112.229 107.833 111.676Z" fill="white"/>
<path d="M145.039 111.626C143.482 111.224 141.397 109.893 140.593 108.813C140.317 108.436 139.814 107.607 139.488 107.004C138.91 105.899 138.885 105.698 138.81 98.8911L138.734 91.9082L140.694 91.9836L142.653 92.0589L142.778 98.8659L142.904 105.673L143.607 106.602C144.461 107.708 145.29 108.26 146.37 108.486L147.174 108.662V110.27C147.174 112.153 147.124 112.179 145.039 111.626Z" fill="white"/>
<path d="M111.113 110.295C110.711 109.466 110.359 108.738 110.359 108.662C110.359 108.612 110.661 108.486 111.063 108.386C112.143 108.135 113.273 107.13 113.851 105.924C114.353 104.895 114.378 104.417 114.378 98.389V91.9336H116.413H118.422L118.347 98.7909C118.272 105.171 118.221 105.698 117.719 106.804C116.765 108.863 114.353 111.074 112.444 111.651C111.967 111.777 111.791 111.601 111.113 110.295Z" fill="white"/>
<path d="M120.164 101.855V91.8828L125.765 91.9833C131.819 92.0586 132.171 92.134 133.803 93.6662C135.511 95.2486 136.139 98.2628 135.16 100.197C134.733 101.051 134.733 101.051 135.511 101.93C137.169 103.814 137.47 106.2 136.34 108.461C135.134 110.872 133.226 111.776 129.357 111.776H127.072L126.243 110.194C125.791 109.34 125.439 108.561 125.439 108.461C125.439 108.335 126.871 108.26 128.604 108.26C130.337 108.26 131.97 108.159 132.221 108.009C132.824 107.682 133.301 106.25 133.075 105.396C132.999 105.02 132.623 104.517 132.296 104.241C131.718 103.789 131.266 103.739 127.926 103.739H124.208L124.133 107.707L124.057 111.651L122.123 111.726L120.164 111.802V101.855ZM131.191 99.0666C131.492 98.6898 131.718 98.0368 131.718 97.5846C131.718 97.1325 131.492 96.4794 131.191 96.1027C130.689 95.4496 130.638 95.4496 127.423 95.4496H124.183V97.5846V99.7197H127.423C130.638 99.7197 130.689 99.7197 131.191 99.0666Z" fill="white"/>
<path d="M149.11 111.476C148.985 111.3 148.583 110.571 148.231 109.868L147.578 108.562L148.307 108.411C148.708 108.336 149.487 107.859 150.065 107.356C151.647 105.924 151.823 104.97 151.823 97.9117V91.9336H153.707H155.616L155.541 98.9164C155.465 105.548 155.44 105.924 154.888 107.03C154.033 108.763 152.778 110.094 151.12 110.973C149.412 111.903 149.462 111.877 149.11 111.476Z" fill="white"/>
<path d="M157.578 101.855V91.9336H161.949C164.335 91.9336 166.897 92.0341 167.6 92.1848C170.614 92.7625 173.553 95.0482 174.834 97.8112C175.462 99.1676 175.538 99.6198 175.538 101.855C175.538 104.141 175.462 104.518 174.759 106C173.905 107.783 172.398 109.441 170.765 110.395C169.409 111.199 166.922 111.827 165.44 111.727C164.26 111.651 164.234 111.626 163.431 110.144C162.979 109.315 162.602 108.562 162.602 108.461C162.602 108.336 163.682 108.26 165.013 108.26C166.721 108.26 167.676 108.135 168.304 107.859C172.021 106.075 173.026 100.549 170.187 97.4094C168.731 95.7767 167.751 95.4501 164.31 95.4501H161.346V103.614V111.777H159.462H157.578V101.855Z" fill="white"/>
<path d="M0.601562 46.2175V1.00473H9.26734H17.9331V5.22458V9.41932L19.5658 7.63593C23.0823 3.74261 27.3273 1.43174 32.8282 0.376773C35.4656 -0.125591 41.3181 -0.125591 44.2067 0.376773C58.3232 2.83835 69.7268 14.443 71.7865 28.4589C74.223 44.836 64.7032 60.4343 49.0797 65.6589C44.91 67.0404 42.3982 67.3921 37.3997 67.2414C32.8784 67.0907 31.1704 66.8144 28.2818 65.6338C26.3979 64.9054 24.0117 63.549 23.1075 62.7201L22.4795 62.1675L25.5942 56.5159C27.3022 53.4012 28.759 50.789 28.7842 50.6885C28.8344 50.6131 29.7135 50.8141 30.7434 51.1657C33.4561 52.0951 37.6258 52.2709 40.4892 51.5425C45.9399 50.161 50.1346 46.7701 52.5962 41.8218C53.9526 39.0839 54.4298 36.8986 54.4298 33.5328C54.455 30.1669 54.0028 28.3584 52.4455 25.1684C50.436 21.0742 46.6181 17.8088 41.921 16.151C40.0622 15.4979 39.6101 15.4477 36.1438 15.4477C32.8533 15.4477 32.15 15.523 30.6178 16.0505C25.6193 17.7334 21.9018 21.0239 19.6663 25.7461C17.8578 29.5892 17.9331 28.1826 17.9331 61.5395V91.4302H9.26734H0.601562V46.2175Z" fill="white"/>
<path d="M259.062 61.5395C259.062 28.1826 259.137 29.5892 257.329 25.7461C255.093 21.0239 251.376 17.7334 246.377 16.0505C244.845 15.523 244.142 15.4477 240.851 15.4477C237.385 15.4477 236.933 15.4979 235.074 16.151C232.16 17.1808 229.824 18.6628 227.614 20.8732C226.082 22.4305 225.454 23.3097 224.549 25.1684C222.992 28.3584 222.54 30.1669 222.565 33.5328C222.565 36.8986 223.042 39.0839 224.399 41.8218C227.538 48.1516 233.692 51.9946 240.725 51.9946C242.911 51.9946 244.342 51.7435 247.407 50.8643C247.884 50.7136 248.286 51.3164 251.099 56.1894C252.832 59.2035 254.339 61.8661 254.415 62.0921C254.54 62.3936 254.113 62.7703 252.732 63.6243C248.663 66.1613 244.217 67.3167 238.515 67.3167C232.763 67.3167 228.518 66.3371 223.72 63.9258C210.885 57.5206 203.676 44.8108 204.832 30.6693C205.761 19.1652 212.694 9.01743 223.319 3.56678C228.242 1.05496 232.713 0 238.465 0C246.729 0 252.581 2.31087 257.278 7.4601L259.062 9.41932V5.22458V1.00473H267.727H276.393V46.2175V91.4302H267.727H259.062V61.5395Z" fill="white"/>
<path d="M37.7812 80.6293C37.7812 80.127 37.9571 80.127 139.761 80.127C241.565 80.127 241.741 80.127 241.741 80.6293C241.741 81.1317 241.565 81.1317 139.761 81.1317C37.9571 81.1317 37.7812 81.1317 37.7812 80.6293Z" fill="white"/>
<path d="M107.607 66.4139C107.255 66.3636 106.125 66.1878 105.095 66.0371C95.2235 64.6054 85.6033 57.4216 80.8308 47.9018C77.0631 40.4668 76.41 30.947 79.0976 22.9343C83.0161 11.2543 93.1889 2.43786 105.195 0.353055C108.486 -0.224664 115.243 -0.0237181 118.031 0.754946C122.326 1.9355 126.219 4.27149 129.334 7.58709L131.218 9.59655V5.30134V1.00613H139.632H148.047V33.283V65.5599H139.632H131.243L131.143 47.8013C131.042 28.0835 131.117 28.9124 129.334 25.3959C126.872 20.4978 122.703 17.132 117.403 15.8007C114.439 15.0472 110.068 15.1979 107.406 16.1273C101.98 18.0614 97.8107 22.1305 95.9519 27.3551C95.2235 29.4148 95.1733 29.6911 95.1733 33.283C95.1733 37.5782 95.5249 38.9346 97.3334 42.0241C101.654 49.3335 110.671 52.9254 118.232 50.3885L119.915 49.8359L123.18 55.6131L126.42 61.4154L125.617 62.1187C124.461 63.1234 120.593 64.957 118.408 65.5347C115.243 66.3888 110.219 66.7906 107.607 66.4139Z" fill="white"/>
<path d="M157.094 33.2819V1.00508H165.885H174.676V5.02399V9.01778L177.012 6.70691C179.449 4.29556 181.609 2.83871 184.498 1.68327C187.462 0.502717 189.119 0.201298 193.766 0.0757075C197.559 -0.0247653 198.514 0.0254711 200.699 0.477598C204.592 1.28138 209.591 3.08989 209.591 3.71784C209.591 3.81832 209.44 4.11973 209.239 4.39603C209.063 4.67233 207.355 7.6614 205.471 11.0524C203.562 14.4433 201.93 17.3068 201.804 17.4324C201.679 17.5328 200.975 17.3319 200.171 16.9551C197.509 15.6992 195.047 15.2471 191.656 15.3727C189.195 15.4732 188.215 15.6239 186.507 16.2016C182.363 17.6082 178.494 20.9238 176.485 24.8171C174.601 28.4593 174.676 27.3792 174.676 47.5239V65.5588H165.885H157.094V33.2819Z" fill="white"/>
</svg>
